<svg width="37" height="37" viewBox="0 0 37 37" fill="none" xmlns="http://www.w3.org/2000/svg">
<path d="M18.5 37C14.8411 37 11.2643 35.915 8.22196 33.8822C5.17965 31.8494 2.80845 28.9601 1.40823 25.5796C0.00801201 22.1992 -0.358345 18.4795 0.355482 14.8908C1.06931 11.3022 2.83126 8.00581 5.41853 5.41853C8.0058 2.83126 11.3022 1.06931 14.8908 0.35548C18.4795 -0.358346 22.1992 0.00801694 25.5796 1.40824C28.9601 2.80846 31.8494 5.17965 33.8822 8.22196C35.915 11.2643 37 14.8411 37 18.5C36.9944 23.4048 35.0436 28.1071 31.5753 31.5753C28.1071 35.0436 23.4048 36.9944 18.5 37ZM18.5 0.880965C15.0153 0.880965 11.6088 1.9143 8.71139 3.85031C5.81395 5.78631 3.55567 8.53803 2.22213 11.7575C0.888585 14.9769 0.539669 18.5196 1.2195 21.9373C1.89934 25.3551 3.57739 28.4945 6.04146 30.9585C8.50553 33.4226 11.6449 35.1007 15.0627 35.7805C18.4805 36.4603 22.0231 36.1114 25.2425 34.7779C28.462 33.4443 31.2137 31.1861 33.1497 28.2886C35.0857 25.3912 36.119 21.9847 36.119 18.5C36.1138 13.8288 34.2558 9.35036 30.9527 6.0473C27.6496 2.74423 23.1712 0.886244 18.5 0.880965Z" fill="#3F3D56"/>
<path fill-rule="evenodd" clip-rule="evenodd" d="M31 19.0714C30.9996 16.7642 30.3421 14.5054 29.1054 12.5624C27.8687 10.6194 26.1046 9.07368 24.0219 8.10812C21.9392 7.14255 19.6251 6.79763 17.3537 7.11418C15.0822 7.43072 12.9484 8.39546 11.2049 9.89421C9.46147 11.393 8.18134 13.363 7.51607 15.571C6.85081 17.779 6.82827 20.1326 7.45114 22.353C8.07401 24.5735 9.3162 26.568 11.0306 28.1002C12.7451 29.6325 14.86 30.6384 17.125 30.9989V22.5625H14.0773V19.0714H17.125V16.4109C17.125 13.3855 18.917 11.713 21.6577 11.713C22.5577 11.7256 23.4557 11.8045 24.3443 11.949V14.9206H22.8303C21.3405 14.9206 20.8745 15.8509 20.8745 16.807V19.0719H24.2023L23.6709 22.563H20.8745V31C23.6974 30.5502 26.2681 29.1016 28.1242 26.915C29.9804 24.7283 31.0001 21.947 31 19.0714L31 19.0714Z" fill="#3F3D56"/>
</svg>
