<svg width="470" height="468" viewBox="0 0 470 468" fill="none" xmlns="http://www.w3.org/2000/svg">
<path d="M415.293 400.815C405.68 410.789 396.584 417.233 389.397 422.317C304.915 482.098 204.953 464.672 183.706 460.422C152.335 454.138 91.6919 441.991 47.8484 391.143C-18.482 314.215 -8.15787 193.014 43.2963 113.009C52.7074 98.3756 102.42 17.1511 203.462 4.12389C264.611 -3.75791 335.89 12.1412 387.508 54.7904C495.861 144.314 488.148 325.173 415.293 400.815Z" fill="#EFEFF4"/>
<path opacity="0.69" d="M361.264 17.279C359.901 15.1973 356.645 16.3302 356.88 18.8134C359.144 42.758 363.113 105.733 347.4 146.017C321.827 211.606 322.717 301.76 366.806 331.651C366.806 331.646 509.829 244.01 361.264 17.279Z" fill="url(#paint0_linear)"/>
<path opacity="0.69" d="M368.887 49.7525C369.105 50.4813 369.228 51.1002 369.386 51.7575L369.811 53.7036L370.626 57.6113C371.153 60.2198 371.649 62.8334 372.123 65.4496C373.074 70.682 373.966 75.9254 374.798 81.18C376.452 91.6908 377.823 102.242 379.035 112.815C380.247 123.387 381.194 133.99 381.899 144.61C382.605 155.231 383.14 165.865 383.337 176.511C383.769 197.798 383.04 219.132 380.81 240.327C379.582 250.91 378.076 261.467 375.951 271.916C373.759 282.342 371.128 292.684 367.749 302.783C367.716 302.892 367.64 302.982 367.54 303.034C367.439 303.087 367.322 303.097 367.214 303.063C367.105 303.03 367.015 302.954 366.963 302.854C366.91 302.753 366.9 302.636 366.934 302.528C369.887 292.344 372.317 282.016 374.212 271.584C376.143 261.162 377.465 250.639 378.513 240.095C379.562 229.551 380.173 218.961 380.559 208.368C380.945 197.775 380.869 187.165 380.746 176.562C380.411 155.351 378.94 134.166 376.895 113.042C375.849 102.484 374.599 91.9448 373.143 81.4255C372.43 76.1675 371.663 70.9156 370.841 65.6695L369.537 57.8159L368.847 53.898L368.481 51.9442C368.35 51.3074 368.225 50.6195 368.084 50.0671L368.061 49.975C368.047 49.9214 368.043 49.8655 368.049 49.8103C368.056 49.7552 368.074 49.7019 368.101 49.6536C368.129 49.6053 368.165 49.5628 368.209 49.5287C368.253 49.4945 368.303 49.4693 368.357 49.4546C368.41 49.4398 368.466 49.4357 368.521 49.4426C368.577 49.4494 368.63 49.467 368.678 49.4945C368.727 49.5219 368.769 49.5586 368.803 49.6024C368.837 49.6463 368.862 49.6964 368.877 49.7499L368.887 49.7525Z" fill="url(#paint1_linear)"/>
<path d="M446.935 43.4411C446.189 40.9502 442.588 41.1164 442.089 43.6661C437.23 68.3293 422.428 132.601 394.683 168.276C349.512 226.362 323.542 316.946 358.803 360.028C358.814 360.028 528.201 314.857 446.935 43.4411Z" fill="url(#paint2_linear)"/>
<path opacity="0.43" d="M444.887 78.2543C444.887 79.0497 444.826 79.7044 444.79 80.4102L444.639 82.4944L444.289 86.6502C444.033 89.4198 443.744 92.1843 443.45 94.9488C442.841 100.474 442.17 105.993 441.437 111.505C439.964 122.525 438.189 133.499 436.253 144.457C434.318 155.415 432.1 166.312 429.643 177.16C427.185 188.009 424.551 198.824 421.574 209.547C415.662 231.001 408.58 252.155 400.028 272.714C395.648 282.943 390.996 293.078 385.766 302.914C380.467 312.709 374.749 322.283 368.358 331.398C368.29 331.485 368.191 331.544 368.081 331.561C367.971 331.579 367.859 331.554 367.767 331.492C367.674 331.43 367.609 331.336 367.583 331.228C367.558 331.12 367.574 331.006 367.629 330.909C373.626 321.59 379.141 311.968 384.15 302.083C389.193 292.219 393.655 282.069 397.85 271.819C402.044 261.569 405.811 251.142 409.358 240.642C412.905 230.141 415.989 219.493 419.027 208.833C425.009 187.485 429.85 165.824 434.092 144.05C436.19 133.159 438.076 122.228 439.752 111.257C440.604 105.774 441.399 100.283 442.135 94.7851L443.158 86.5274L443.634 82.3973L443.846 80.3309C443.905 79.6532 443.982 78.9244 444.007 78.3285V78.2313C444.009 78.1742 444.021 78.1179 444.044 78.0656C444.067 78.0133 444.1 77.9661 444.141 77.9265C444.182 77.887 444.231 77.8559 444.284 77.8352C444.337 77.8144 444.394 77.8043 444.451 77.8055C444.508 77.8067 444.565 77.8191 444.617 77.842C444.669 77.865 444.716 77.898 444.756 77.9392C444.795 77.9804 444.827 78.029 444.847 78.0822C444.868 78.1354 444.878 78.1921 444.877 78.2492L444.887 78.2543Z" fill="white"/>
<path opacity="0.5" d="M326.842 212.792H6.79995C5.39462 212.792 4.25537 213.932 4.25537 215.337V247.936C4.25537 249.341 5.39462 250.48 6.79995 250.48H326.842C328.247 250.48 329.386 249.341 329.386 247.936V215.337C329.386 213.932 328.247 212.792 326.842 212.792Z" fill="url(#paint3_linear)"/>
<path opacity="0.5" d="M328.729 239.808H4.27336C1.91325 239.808 0 241.721 0 244.082V250.948C0 253.308 1.91325 255.221 4.27336 255.221H328.729C331.089 255.221 333.002 253.308 333.002 250.948V244.082C333.002 241.721 331.089 239.808 328.729 239.808Z" fill="url(#paint4_linear)"/>
<path opacity="0.5" d="M319.942 69.0249H11.9225C7.29107 69.0249 6.07888 62.6315 10.388 60.9283L164.395 0.29059C165.381 -0.0973516 166.478 -0.0973516 167.464 0.29059L321.476 60.9283C325.785 62.6264 324.571 69.0249 319.942 69.0249Z" fill="url(#paint5_linear)"/>
<path d="M28.7143 77.9935H22.1086V199.525H28.7143V77.9935Z" fill="#C6C9D3"/>
<path d="M38.6213 77.9935H32.0156V199.525H38.6213V77.9935Z" fill="#C6C9D3"/>
<path d="M48.5288 77.9935H41.9231V199.525H48.5288V77.9935Z" fill="#C6C9D3"/>
<path d="M55.7941 71.3878H14.843V73.1677L20.7863 76.0115H49.8482L55.7941 73.1677V71.3878Z" fill="#C6C9D3"/>
<path d="M56.124 210.094H15.1729V203.693L21.1162 200.847H50.1781L56.124 203.693V210.094Z" fill="#C6C9D3"/>
<path d="M80.8918 77.9935H74.2861V199.525H80.8918V77.9935Z" fill="#C6C9D3"/>
<path d="M90.7995 77.9935H84.1938V199.525H90.7995V77.9935Z" fill="#C6C9D3"/>
<path d="M100.709 77.9935H94.1033V199.525H100.709V77.9935Z" fill="#C6C9D3"/>
<path d="M107.972 71.3878H67.021V73.1677L72.9669 76.0115H102.029L107.972 73.1677V71.3878Z" fill="#C6C9D3"/>
<path d="M108.302 210.094H67.3508V203.693L73.2967 200.847H102.359L108.302 203.693V210.094Z" fill="#C6C9D3"/>
<path d="M133.072 77.9935H126.467V199.525H133.072V77.9935Z" fill="#C6C9D3"/>
<path d="M142.98 77.9935H136.374V199.525H142.98V77.9935Z" fill="#C6C9D3"/>
<path d="M152.887 77.9935H146.281V199.525H152.887V77.9935Z" fill="#C6C9D3"/>
<path d="M160.153 71.3878H119.201V73.1677L125.145 76.0115H154.207L160.153 73.1677V71.3878Z" fill="#C6C9D3"/>
<path d="M160.483 210.094H119.531V203.693L125.477 200.847H154.539L160.483 203.693V210.094Z" fill="#C6C9D3"/>
<path d="M185.251 77.9935H178.645V199.525H185.251V77.9935Z" fill="#C6C9D3"/>
<path d="M195.16 77.9935H188.554V199.525H195.16V77.9935Z" fill="#C6C9D3"/>
<path d="M205.068 77.9935H198.462V199.525H205.068V77.9935Z" fill="#C6C9D3"/>
<path d="M212.331 71.3878H171.382V73.1677L177.325 76.0115H206.387L212.331 73.1677V71.3878Z" fill="#C6C9D3"/>
<path d="M212.663 210.094H171.712V203.693L177.655 200.847H206.717L212.663 203.693V210.094Z" fill="#C6C9D3"/>
<path d="M237.431 77.9935H230.825V199.525H237.431V77.9935Z" fill="#C6C9D3"/>
<path d="M247.338 77.9935H240.732V199.525H247.338V77.9935Z" fill="#C6C9D3"/>
<path d="M257.245 77.9935H250.64V199.525H257.245V77.9935Z" fill="#C6C9D3"/>
<path d="M264.511 71.3878H223.56V73.1677L229.506 76.0115H258.568L264.511 73.1677V71.3878Z" fill="#C6C9D3"/>
<path d="M264.841 210.094H223.89V203.693L229.836 200.847H258.897L264.841 203.693V210.094Z" fill="#C6C9D3"/>
<path d="M289.612 77.9935H283.006V199.525H289.612V77.9935Z" fill="#C6C9D3"/>
<path d="M299.519 77.9935H292.913V199.525H299.519V77.9935Z" fill="#C6C9D3"/>
<path d="M309.426 77.9935H302.82V199.525H309.426V77.9935Z" fill="#C6C9D3"/>
<path d="M316.691 71.3878H275.74V73.1677L281.684 76.0115H310.745L316.691 73.1677V71.3878Z" fill="#C6C9D3"/>
<path d="M317.021 210.094H276.07V203.693L282.013 200.847H311.075L317.021 203.693V210.094Z" fill="#C6C9D3"/>
<path opacity="0.5" d="M327.816 212.825H6.11213C5.08532 212.825 4.25293 213.658 4.25293 214.685V218.058C4.25293 219.085 5.08532 219.917 6.11213 219.917H327.816C328.843 219.917 329.675 219.085 329.675 218.058V214.685C329.675 213.658 328.843 212.825 327.816 212.825Z" fill="url(#paint6_linear)"/>
<path d="M196.955 354.9L188.375 431.859H287.929L274.963 354.9H196.955Z" fill="#647180"/>
<path d="M23.7246 159.793V341.152C23.7242 348.326 26.5263 355.217 31.5334 360.355C36.5405 365.493 43.3565 368.471 50.5284 368.656C116.764 370.364 348.462 374.507 411.521 373.576C416.737 373.499 421.722 371.41 425.435 367.746C429.149 364.082 431.304 359.125 431.451 353.91C432.668 311.775 434.642 210.457 427.333 163.42C426.588 158.619 424.188 154.23 420.549 151.011C416.909 147.793 412.26 145.947 407.404 145.794C351.909 144.02 106.294 138.378 43.2654 139.797C38.0415 139.916 33.0716 142.075 29.4195 145.813C25.7674 149.55 23.7233 154.568 23.7246 159.793Z" fill="#97A6B7"/>
<path d="M35.105 158.911V331.222C35.1045 335.408 36.7513 339.426 39.6895 342.409C42.6277 345.391 46.6212 347.097 50.8072 347.159L402.445 351.507C404.497 351.538 406.535 351.161 408.44 350.399C410.345 349.637 412.08 348.505 413.545 347.067C415.01 345.63 416.174 343.916 416.972 342.025C417.769 340.135 418.184 338.104 418.191 336.052L418.779 165.282C418.791 162.313 417.638 159.458 415.569 157.33C413.5 155.201 410.678 153.969 407.711 153.896L47.6975 146.621C46.0583 146.581 44.4277 146.869 42.9017 147.469C41.3757 148.069 39.985 148.968 38.8116 150.113C37.6383 151.258 36.7058 152.626 36.0693 154.138C35.4327 155.649 35.1048 157.272 35.105 158.911Z" fill="#F2E6E6"/>
<path d="M420.843 358.644L35.0948 352.072C34.9449 352.069 34.8023 352.007 34.6982 351.899C34.5941 351.791 34.5372 351.646 34.5399 351.496C34.5426 351.346 34.6047 351.204 34.7127 351.1C34.8206 350.995 34.9654 350.939 35.1153 350.941L420.85 357.519C421 357.519 421.144 357.578 421.25 357.684C421.356 357.79 421.416 357.934 421.416 358.084C421.416 358.234 421.356 358.378 421.25 358.484C421.144 358.59 421 358.649 420.85 358.649L420.843 358.644Z" fill="#74767B"/>
<path d="M309.372 447.605H163.669C159.71 447.605 156.739 444.792 157.503 441.758L159.373 434.365C159.935 432.143 162.383 430.509 165.288 430.419L305.751 426.036C308.787 425.941 311.475 427.552 312.145 429.872L315.515 441.636C316.382 444.699 313.395 447.605 309.372 447.605Z" fill="#97A6B7"/>
<path d="M442.182 352.834H342.48C341.158 352.834 340.086 353.905 340.086 355.227V368.4C340.086 369.722 341.158 370.794 342.48 370.794H442.182C443.504 370.794 444.575 369.722 444.575 368.4V355.227C444.575 353.905 443.504 352.834 442.182 352.834Z" fill="url(#paint7_linear)"/>
<path d="M442.182 372.167H342.48C341.158 372.167 340.086 373.239 340.086 374.561V387.734C340.086 389.056 341.158 390.128 342.48 390.128H442.182C443.504 390.128 444.575 389.056 444.575 387.734V374.561C444.575 373.239 443.504 372.167 442.182 372.167Z" fill="url(#paint8_linear)"/>
<path d="M442.182 391.501H342.48C341.158 391.501 340.086 392.573 340.086 393.895V407.068C340.086 408.39 341.158 409.461 342.48 409.461H442.182C443.504 409.461 444.575 408.39 444.575 407.068V393.895C444.575 392.573 443.504 391.501 442.182 391.501Z" fill="url(#paint9_linear)"/>
<path d="M442.182 410.835H342.48C341.158 410.835 340.086 411.906 340.086 413.228V426.401C340.086 427.723 341.158 428.795 342.48 428.795H442.182C443.504 428.795 444.575 427.723 444.575 426.401V413.228C444.575 411.906 443.504 410.835 442.182 410.835Z" fill="url(#paint10_linear)"/>
<path d="M442.182 430.168H342.48C341.158 430.168 340.086 431.24 340.086 432.562V445.735C340.086 447.057 341.158 448.129 342.48 448.129H442.182C443.504 448.129 444.575 447.057 444.575 445.735V432.562C444.575 431.24 443.504 430.168 442.182 430.168Z" fill="url(#paint11_linear)"/>
<path d="M442.182 449.502H342.48C341.158 449.502 340.086 450.574 340.086 451.896V465.069C340.086 466.391 341.158 467.463 342.48 467.463H442.182C443.504 467.463 444.575 466.391 444.575 465.069V451.896C444.575 450.574 443.504 449.502 442.182 449.502Z" fill="url(#paint12_linear)"/>
<path d="M386.252 222.785C391.464 217.574 391.464 209.125 386.252 203.913C381.041 198.702 372.592 198.702 367.38 203.913C362.169 209.125 362.169 217.574 367.38 222.785C372.592 227.996 381.041 227.996 386.252 222.785Z" fill="url(#paint13_linear)"/>
<path d="M385.698 172.696C390.909 167.484 390.909 159.035 385.698 153.824C380.486 148.613 372.037 148.613 366.826 153.824C361.615 159.035 361.615 167.484 366.826 172.696C372.037 177.907 380.486 177.907 385.698 172.696Z" fill="url(#paint14_linear)"/>
<path d="M97.8113 269.129C101.067 262.517 98.3474 254.518 91.7358 251.262C85.1243 248.006 77.1249 250.726 73.8687 257.337C70.6125 263.949 73.3326 271.948 79.9442 275.204C86.5557 278.46 94.5551 275.74 97.8113 269.129Z" fill="url(#paint15_linear)"/>
<path d="M98.621 213.557C98.8602 206.189 93.0817 200.023 85.7143 199.784C78.3469 199.544 72.1805 205.323 71.9413 212.69C71.702 220.058 77.4805 226.224 84.8479 226.463C92.2153 226.702 98.3817 220.924 98.621 213.557Z" fill="url(#paint16_linear)"/>
<path d="M91.6477 174.455C97.9549 170.643 99.9775 162.439 96.1652 156.132C92.3529 149.825 84.1494 147.802 77.8422 151.614C71.5349 155.427 69.5123 163.63 73.3246 169.938C77.1369 176.245 85.3404 178.267 91.6477 174.455Z" fill="url(#paint17_linear)"/>
<path d="M291.512 331.515C293.86 324.53 290.101 316.963 283.115 314.615C276.129 312.266 268.562 316.026 266.214 323.011C263.866 329.997 267.625 337.564 274.611 339.912C281.597 342.26 289.164 338.501 291.512 331.515Z" fill="url(#paint18_linear)"/>
<path d="M241.7 331.061C243.506 323.916 239.179 316.659 232.034 314.853C224.889 313.046 217.632 317.374 215.825 324.519C214.019 331.664 218.346 338.92 225.491 340.727C232.636 342.534 239.893 338.206 241.7 331.061Z" fill="url(#paint19_linear)"/>
<path d="M180.633 341.53C187.926 340.459 192.97 333.678 191.898 326.385C190.826 319.092 184.045 314.049 176.752 315.12C169.459 316.192 164.416 322.973 165.488 330.266C166.559 337.559 173.34 342.602 180.633 341.53Z" fill="url(#paint20_linear)"/>
<path d="M297.756 53.8758C299.373 46.6854 294.854 39.546 287.664 37.9295C280.473 36.313 273.334 40.8316 271.717 48.022C270.101 55.2124 274.62 62.3518 281.81 63.9683C289 65.5848 296.14 61.0662 297.756 53.8758Z" fill="url(#paint21_linear)"/>
<path d="M237.742 64.4372C244.909 62.718 249.325 55.5147 247.606 48.3482C245.886 41.1816 238.683 36.7657 231.516 38.4849C224.35 40.2041 219.934 47.4074 221.653 54.574C223.372 61.7405 230.576 66.1564 237.742 64.4372Z" fill="url(#paint22_linear)"/>
<path d="M195.775 59.2508C199.752 53.0462 197.946 44.7923 191.742 40.8151C185.537 36.8379 177.283 38.6436 173.306 44.8482C169.329 51.0528 171.135 59.3068 177.339 63.2839C183.544 67.2611 191.798 65.4554 195.775 59.2508Z" fill="url(#paint23_linear)"/>
<path d="M261.061 246.862C261.743 246.855 262.412 247.045 262.99 247.407C263.567 247.77 264.029 248.291 264.319 248.907L282.203 286.462C282.425 286.929 282.543 287.439 282.551 287.956L282.98 327.217C282.997 327.691 282.919 328.165 282.75 328.609C282.581 329.053 282.325 329.459 281.996 329.803C281.668 330.146 281.275 330.421 280.839 330.61C280.403 330.799 279.934 330.899 279.458 330.905C278.983 330.91 278.512 330.82 278.072 330.64C277.632 330.46 277.233 330.194 276.897 329.858C276.562 329.521 276.297 329.121 276.119 328.68C275.94 328.24 275.851 327.768 275.858 327.293L275.444 288.805L257.898 251.956C257.641 251.416 257.525 250.82 257.558 250.224C257.592 249.627 257.776 249.048 258.092 248.541C258.408 248.034 258.846 247.614 259.367 247.321C259.888 247.027 260.474 246.869 261.071 246.862H261.061Z" fill="url(#paint24_linear)"/>
<path d="M211.197 247.411C211.665 247.406 212.13 247.493 212.564 247.668C212.998 247.842 213.393 248.1 213.728 248.428C214.062 248.755 214.329 249.145 214.512 249.575C214.696 250.005 214.793 250.468 214.798 250.935L215.016 270.717L231.383 286.741C232.057 287.403 232.442 288.305 232.454 289.25L232.879 327.754C232.889 328.698 232.524 329.609 231.863 330.284C231.203 330.96 230.301 331.345 229.356 331.356C228.411 331.366 227.501 331.001 226.825 330.34C226.15 329.68 225.764 328.778 225.754 327.833L225.347 290.802L208.967 274.778C208.633 274.451 208.366 274.061 208.182 273.631C207.998 273.201 207.901 272.739 207.896 272.272L207.661 251.012C207.656 250.543 207.744 250.078 207.919 249.643C208.094 249.209 208.354 248.813 208.682 248.478C209.011 248.144 209.402 247.877 209.833 247.694C210.265 247.511 210.729 247.415 211.197 247.411Z" fill="url(#paint25_linear)"/>
<path d="M189.585 247.649C190.53 247.639 191.44 248.004 192.115 248.664C192.791 249.325 193.177 250.226 193.188 251.171L193.562 285.133C193.566 285.601 193.478 286.065 193.302 286.499C193.127 286.933 192.867 287.328 192.539 287.662L182.46 297.965L182.795 328.303C182.806 329.248 182.441 330.159 181.78 330.834C181.119 331.51 180.217 331.895 179.273 331.906C178.328 331.916 177.417 331.551 176.742 330.89C176.066 330.23 175.681 329.328 175.67 328.383L175.323 296.569C175.318 296.101 175.406 295.636 175.582 295.201C175.757 294.767 176.017 294.371 176.346 294.037L186.424 283.736L186.066 251.258C186.06 250.79 186.146 250.325 186.32 249.89C186.493 249.456 186.751 249.059 187.078 248.724C187.405 248.389 187.794 248.122 188.225 247.937C188.655 247.753 189.117 247.655 189.585 247.649Z" fill="url(#paint26_linear)"/>
<path d="M302.201 231.497C303.042 231.49 303.857 231.782 304.503 232.32L340.201 261.986L377.316 261.577C378.261 261.566 379.171 261.931 379.847 262.592C380.522 263.253 380.908 264.155 380.918 265.099C380.929 266.044 380.563 266.954 379.903 267.63C379.242 268.305 378.34 268.691 377.395 268.701L338.971 269.123C338.125 269.134 337.303 268.842 336.654 268.3L299.951 237.801C299.39 237.334 298.986 236.707 298.793 236.004C298.6 235.301 298.628 234.555 298.872 233.868C299.116 233.181 299.565 232.586 300.159 232.162C300.753 231.738 301.462 231.507 302.191 231.499L302.201 231.497Z" fill="url(#paint27_linear)"/>
<path d="M303.733 192.771C304.201 192.766 304.666 192.854 305.1 193.029C305.534 193.205 305.929 193.465 306.263 193.794L324.931 212.061L376.772 211.493C377.247 211.476 377.72 211.555 378.164 211.724C378.608 211.893 379.014 212.149 379.358 212.477C379.701 212.805 379.976 213.199 380.165 213.635C380.354 214.071 380.454 214.54 380.46 215.015C380.465 215.49 380.375 215.962 380.195 216.401C380.015 216.841 379.749 217.241 379.413 217.576C379.076 217.912 378.676 218.176 378.236 218.355C377.795 218.533 377.324 218.622 376.848 218.615L323.535 219.201C322.589 219.208 321.679 218.84 321.003 218.178L301.273 198.878C300.77 198.385 300.424 197.754 300.28 197.065C300.135 196.375 300.198 195.659 300.46 195.005C300.723 194.352 301.173 193.791 301.754 193.393C302.335 192.995 303.021 192.779 303.726 192.771H303.733Z" fill="url(#paint28_linear)"/>
<path d="M296.654 144.183L326.962 143.851C327.43 143.846 327.895 143.934 328.33 144.109C328.764 144.285 329.16 144.545 329.493 144.874L346.72 161.727L376.224 161.402C377.154 161.414 378.042 161.79 378.699 162.448C379.355 163.106 379.729 163.995 379.739 164.924C379.75 165.854 379.396 166.751 378.754 167.424C378.112 168.096 377.233 168.491 376.303 168.524L345.324 168.867C344.378 168.875 343.468 168.507 342.794 167.844L325.568 150.988L296.734 151.306C296.259 151.322 295.785 151.244 295.341 151.075C294.897 150.906 294.491 150.65 294.148 150.322C293.804 149.994 293.529 149.6 293.34 149.164C293.151 148.728 293.051 148.259 293.046 147.784C293.04 147.309 293.13 146.837 293.31 146.397C293.49 145.957 293.756 145.558 294.093 145.223C294.429 144.887 294.829 144.622 295.27 144.444C295.71 144.265 296.182 144.177 296.657 144.183H296.654Z" fill="url(#paint29_linear)"/>
<path d="M286.952 45.6788C287.893 45.674 288.797 46.0416 289.468 46.7013C290.139 47.3611 290.521 48.2594 290.532 49.2003L290.872 80.1955C290.877 80.6641 290.789 81.1289 290.613 81.5634C290.438 81.9979 290.178 82.3934 289.849 82.7273L277.017 95.8466L277.318 123.262C277.329 124.206 276.964 125.117 276.303 125.792C275.642 126.468 274.74 126.853 273.796 126.864C272.851 126.874 271.94 126.509 271.265 125.848C270.589 125.188 270.204 124.286 270.193 123.341L269.876 94.4426C269.868 93.4972 270.236 92.5875 270.899 91.9134L283.735 78.7941L283.41 49.2744C283.406 48.8055 283.494 48.3404 283.67 47.9057C283.845 47.4709 284.105 47.0752 284.434 46.7411C284.763 46.4071 285.155 46.1413 285.587 45.959C286.019 45.7766 286.483 45.6814 286.952 45.6788Z" fill="url(#paint30_linear)"/>
<path d="M236.848 46.2285C237.552 46.2208 238.243 46.4222 238.833 46.8072C239.423 47.1922 239.886 47.7435 240.163 48.3914C240.44 49.0393 240.518 49.7547 240.388 50.4472C240.258 51.1397 239.926 51.7781 239.433 52.2818L222.222 69.8764L222.816 123.86C222.821 124.328 222.734 124.792 222.56 125.226C222.385 125.66 222.127 126.056 221.8 126.39C221.473 126.725 221.083 126.992 220.653 127.176C220.223 127.359 219.761 127.457 219.293 127.462C218.825 127.467 218.361 127.38 217.926 127.206C217.492 127.032 217.097 126.774 216.762 126.447C216.428 126.119 216.161 125.73 215.977 125.299C215.793 124.869 215.696 124.407 215.691 123.939L215.09 68.4801C215.082 67.5348 215.45 66.625 216.113 65.9509L234.342 47.3102C234.667 46.9736 235.056 46.7047 235.487 46.519C235.917 46.3334 236.379 46.2346 236.848 46.2285Z" fill="url(#paint31_linear)"/>
<path d="M186.759 46.7809C187.464 46.7732 188.155 46.9745 188.745 47.3595C189.335 47.7445 189.798 48.2958 190.074 48.9438C190.351 49.5917 190.429 50.3071 190.3 50.9996C190.17 51.6921 189.838 52.3305 189.345 52.8341L169.927 72.6819L170.073 86.0083L198.943 114.249C199.288 114.574 199.565 114.964 199.757 115.397C199.95 115.83 200.054 116.297 200.064 116.77C200.073 117.244 199.989 117.715 199.814 118.155C199.64 118.596 199.38 118.997 199.048 119.336C198.717 119.674 198.321 119.943 197.885 120.127C197.448 120.311 196.979 120.406 196.506 120.407C196.032 120.407 195.563 120.313 195.126 120.13C194.689 119.947 194.293 119.679 193.961 119.341L164.04 90.0694C163.365 89.4073 162.98 88.5055 162.968 87.5606L162.789 71.2855C162.782 70.3396 163.15 69.4294 163.812 68.7537L184.271 47.8524C184.926 47.1805 185.821 46.7953 186.759 46.7809Z" fill="url(#paint32_linear)"/>
<path d="M136.226 242.317L167.937 241.967C168.405 241.962 168.869 242.049 169.304 242.223C169.738 242.397 170.133 242.655 170.468 242.982C170.802 243.309 171.069 243.699 171.253 244.129C171.437 244.559 171.534 245.022 171.539 245.49C171.544 245.957 171.458 246.422 171.283 246.856C171.109 247.29 170.851 247.686 170.524 248.02C170.197 248.355 169.807 248.621 169.377 248.805C168.947 248.989 168.484 249.086 168.017 249.092L137.791 249.424L119.416 268.208C119.087 268.547 118.694 268.817 118.26 269.003C117.826 269.188 117.359 269.286 116.887 269.29L85.8688 269.632C85.401 269.637 84.9367 269.55 84.5026 269.376C84.0685 269.201 83.6729 268.943 83.3386 268.616C83.0042 268.289 82.7376 267.899 82.5539 267.469C82.3702 267.038 82.2731 266.576 82.268 266.108C82.263 265.64 82.3501 265.176 82.5245 264.742C82.6989 264.308 82.9571 263.912 83.2843 263.578C83.6115 263.244 84.0014 262.977 84.4317 262.793C84.862 262.61 85.3242 262.513 85.7921 262.508L115.353 262.17L133.727 243.386C134.386 242.713 135.284 242.329 136.226 242.317Z" fill="url(#paint33_linear)"/>
<path d="M162.219 181.296C162.924 181.288 163.614 181.49 164.205 181.875C164.795 182.26 165.257 182.811 165.534 183.459C165.811 184.107 165.889 184.822 165.759 185.515C165.629 186.207 165.297 186.845 164.805 187.349L134.883 217.94C134.221 218.615 133.319 219 132.375 219.012L85.3344 219.523C84.8595 219.54 84.3861 219.462 83.942 219.293C83.4979 219.124 83.092 218.868 82.7483 218.54C82.4046 218.212 82.13 217.819 81.9406 217.383C81.7513 216.947 81.651 216.478 81.6457 216.003C81.6404 215.528 81.7302 215.056 81.9098 214.617C82.0895 214.177 82.3553 213.777 82.6916 213.442C83.0279 213.106 83.428 212.841 83.8682 212.662C84.3085 212.484 84.78 212.395 85.2551 212.401L130.822 211.89L159.72 182.352C160.381 181.683 161.279 181.304 162.219 181.296Z" fill="url(#paint34_linear)"/>
<path d="M142.034 145.339L166.861 145.066C167.805 145.055 168.716 145.42 169.391 146.081C170.067 146.742 170.452 147.644 170.463 148.588C170.473 149.533 170.108 150.444 169.447 151.119C168.787 151.795 167.885 152.18 166.94 152.19L143.586 152.446L128.457 167.916C127.795 168.59 126.893 168.975 125.948 168.985L84.7743 169.437C83.8446 169.425 82.9565 169.05 82.2998 168.392C81.643 167.733 81.2696 166.845 81.2593 165.915C81.2489 164.985 81.6025 164.088 82.2444 163.416C82.8863 162.743 83.7658 162.348 84.695 162.315L124.396 161.88L139.527 146.413C139.854 146.078 140.244 145.811 140.674 145.627C141.104 145.442 141.566 145.345 142.034 145.339Z" fill="url(#paint35_linear)"/>
<path d="M285.705 247.854C319.749 213.81 319.749 158.613 285.705 124.569C251.661 90.525 196.464 90.525 162.42 124.569C128.376 158.613 128.376 213.81 162.42 247.854C196.464 281.898 251.661 281.898 285.705 247.854Z" fill="#E5B731"/>
<path d="M283.654 245.803C316.566 212.892 316.566 159.531 283.654 126.62C250.743 93.7082 197.382 93.7082 164.471 126.62C131.559 159.531 131.559 212.892 164.471 245.803C197.382 278.715 250.743 278.715 283.654 245.803Z" fill="url(#paint36_linear)"/>
<path opacity="0.7" d="M154.567 151.768C154.47 151.769 154.375 151.745 154.29 151.698C154.205 151.651 154.133 151.583 154.082 151.501C154.031 151.419 154.001 151.324 153.997 151.228C153.992 151.131 154.012 151.034 154.056 150.947C161.69 135.832 174.01 123.591 189.174 116.053C204.338 108.514 221.533 106.083 238.193 109.122C238.341 109.149 238.471 109.233 238.556 109.357C238.641 109.48 238.674 109.633 238.647 109.78C238.62 109.928 238.535 110.058 238.412 110.144C238.288 110.229 238.136 110.261 237.988 110.234C233.391 109.398 228.728 108.979 224.056 108.981C194.728 108.981 168.305 125.256 155.068 151.456C155.021 151.549 154.95 151.628 154.862 151.683C154.773 151.738 154.671 151.767 154.567 151.768Z" fill="white"/>
<path opacity="0.78" d="M276.335 238.486C304.191 210.63 304.191 165.466 276.335 137.61C248.479 109.754 203.315 109.754 175.459 137.61C147.603 165.466 147.603 210.63 175.459 238.486C203.315 266.342 248.479 266.342 276.335 238.486Z" fill="white"/>
<path d="M261.138 193.847C257.522 190.482 252.545 188.454 246.423 187.766C246.409 187.764 246.397 187.757 246.388 187.747C246.379 187.737 246.374 187.723 246.374 187.71V187.589C246.374 187.577 246.378 187.565 246.386 187.555C246.393 187.545 246.403 187.537 246.415 187.533C251.305 186.311 253.98 184.142 257.082 181.027C260.184 177.912 261.864 174.26 261.864 170.094C261.864 164.351 259.186 159.898 254.074 156.737C249.755 154.07 244.796 152.528 237.638 152.114C237.408 152.1 237.193 151.999 237.035 151.832C236.877 151.665 236.789 151.443 236.789 151.213V136.961C236.789 136.722 236.694 136.492 236.525 136.323C236.355 136.154 236.126 136.058 235.886 136.058H229.334C229.095 136.058 228.865 136.154 228.696 136.323C228.527 136.492 228.431 136.722 228.431 136.961V151.377C228.431 151.617 228.336 151.846 228.167 152.015C227.998 152.185 227.768 152.28 227.529 152.28H219.995C219.755 152.28 219.526 152.185 219.356 152.015C219.187 151.846 219.092 151.617 219.092 151.377V136.961C219.092 136.722 218.997 136.492 218.828 136.323C218.658 136.154 218.429 136.058 218.189 136.058H211.64C211.4 136.058 211.171 136.154 211.001 136.323C210.832 136.492 210.737 136.722 210.737 136.961V151.377C210.737 151.617 210.642 151.846 210.473 152.015C210.303 152.185 210.074 152.28 209.834 152.28H190.749C190.509 152.28 190.28 152.375 190.11 152.544C189.941 152.714 189.846 152.943 189.846 153.183V160.471C189.846 160.711 189.941 160.94 190.11 161.109C190.28 161.279 190.509 161.374 190.749 161.374H201.49C201.729 161.374 201.959 161.469 202.128 161.638C202.297 161.808 202.392 162.037 202.392 162.277V218.475C202.392 218.714 202.297 218.944 202.128 219.113C201.959 219.282 201.729 219.377 201.49 219.377H190.749C190.509 219.377 190.28 219.473 190.11 219.642C189.941 219.811 189.846 220.041 189.846 220.28V228.551C189.846 228.79 189.941 229.02 190.11 229.189C190.28 229.358 190.509 229.453 190.749 229.453H209.834C210.074 229.453 210.303 229.549 210.473 229.718C210.642 229.887 210.737 230.117 210.737 230.356V245.263C210.737 245.503 210.832 245.732 211.001 245.901C211.171 246.071 211.4 246.166 211.64 246.166H218.189C218.429 246.166 218.658 246.071 218.828 245.901C218.997 245.732 219.092 245.503 219.092 245.263V230.356C219.092 230.117 219.187 229.887 219.356 229.718C219.526 229.549 219.755 229.453 219.995 229.453H227.529C227.768 229.453 227.998 229.549 228.167 229.718C228.336 229.887 228.431 230.117 228.431 230.356V245.263C228.431 245.503 228.527 245.732 228.696 245.901C228.865 246.071 229.095 246.166 229.334 246.166H235.886C236.126 246.166 236.355 246.071 236.525 245.901C236.694 245.732 236.789 245.503 236.789 245.263V230.088C236.789 229.855 236.879 229.631 237.041 229.463C237.202 229.295 237.423 229.196 237.656 229.188C246.116 228.858 253.143 226.802 258.245 223.017C263.836 218.869 266.605 213.26 266.605 206.187C266.605 201.338 264.767 197.228 261.138 193.847ZM229.155 165.062C238.51 165.062 243.19 167.777 243.19 173.45C243.19 176.503 242.05 178.899 239.771 180.638C237.491 182.377 234.37 183.247 230.406 183.247H219.987C219.869 183.247 219.751 183.224 219.642 183.179C219.532 183.134 219.433 183.068 219.349 182.984C219.265 182.901 219.198 182.801 219.153 182.692C219.108 182.582 219.084 182.465 219.084 182.347V165.972C219.084 165.733 219.179 165.503 219.349 165.334C219.518 165.164 219.748 165.069 219.987 165.069L229.155 165.062ZM242.804 214.002C240.285 215.871 236.807 216.92 232.367 216.92H219.987C219.748 216.92 219.518 216.825 219.349 216.655C219.179 216.486 219.084 216.256 219.084 216.017V197.172C219.084 196.932 219.179 196.703 219.349 196.534C219.518 196.364 219.748 196.269 219.987 196.269H232.485C236.924 196.269 240.385 197.036 242.863 198.801C245.341 200.565 246.579 203.258 246.579 206.345C246.584 209.581 245.328 212.133 242.812 214.002H242.804Z" fill="url(#paint37_linear)"/>
<g opacity="0.3">
<path opacity="0.3" d="M103.965 423.312C104.146 423.683 104.183 424.107 104.07 424.504C103.956 424.901 103.7 425.241 103.351 425.46C101.755 426.463 100.09 427.412 98.4048 428.273C98.2097 428.374 97.9967 428.435 97.778 428.453C97.5593 428.471 97.3391 428.446 97.1301 428.379C96.9211 428.312 96.7273 428.205 96.5599 428.063C96.3925 427.921 96.2547 427.747 96.1544 427.552V427.522C95.9613 427.13 95.93 426.677 96.0673 426.263C96.2046 425.848 96.4995 425.504 96.8883 425.304C98.4892 424.481 100.072 423.578 101.589 422.627C101.964 422.392 102.417 422.315 102.849 422.414C103.28 422.512 103.655 422.779 103.89 423.154C103.918 423.205 103.943 423.258 103.965 423.312ZM90.8581 429.621C90.8867 429.681 90.9123 429.743 90.9348 429.805C91.0076 430.012 91.0389 430.231 91.0269 430.45C91.0148 430.669 90.9597 430.884 90.8647 431.081C90.7697 431.279 90.6366 431.456 90.4731 431.602C90.3096 431.748 90.1189 431.861 89.9118 431.933C88.1217 432.562 86.2932 433.12 84.4698 433.593C84.0435 433.697 83.5935 433.629 83.2169 433.404C82.8404 433.179 82.5675 432.815 82.4573 432.39C82.3471 431.965 82.4084 431.514 82.628 431.134C82.8477 430.755 83.2079 430.477 83.631 430.36C85.3648 429.91 87.1064 429.381 88.8045 428.782C89.1901 428.647 89.6122 428.657 89.9907 428.812C90.3692 428.966 90.6778 429.254 90.8581 429.621ZM76.6877 432.887C76.7719 433.059 76.8264 433.244 76.8488 433.434C76.8737 433.652 76.8555 433.873 76.795 434.084C76.7346 434.295 76.6332 434.492 76.4967 434.663C76.3601 434.835 76.1911 434.978 75.9992 435.085C75.8073 435.191 75.5963 435.258 75.3783 435.283C73.5012 435.498 71.5909 435.634 69.701 435.685C69.2659 435.685 68.8477 435.516 68.5355 435.213C68.2233 434.91 68.0417 434.497 68.0294 434.062C68.0171 433.627 68.175 433.205 68.4695 432.884C68.764 432.564 69.1719 432.371 69.6063 432.347C71.3965 432.296 73.2174 432.168 74.9998 431.964C75.3421 431.924 75.6881 431.992 75.9903 432.157C76.2926 432.323 76.5362 432.578 76.6877 432.887ZM62.1414 432.902C62.2738 433.171 62.3314 433.47 62.3081 433.769C62.2849 434.068 62.1816 434.354 62.0092 434.599C61.8367 434.844 61.6015 435.038 61.3282 435.161C61.0549 435.283 60.7537 435.33 60.4561 435.296C58.5764 435.086 56.684 434.784 54.8299 434.421C54.3955 434.335 54.0133 434.079 53.7675 433.71C53.5217 433.342 53.4324 432.89 53.5192 432.456C53.6061 432.022 53.8619 431.639 54.2305 431.394C54.599 431.148 55.0502 431.059 55.4846 431.145C57.244 431.498 59.0419 431.777 60.8295 431.979C61.1083 432.01 61.3748 432.111 61.6042 432.272C61.8336 432.433 62.0184 432.65 62.1414 432.902ZM47.9582 429.675C48.1003 429.972 48.1516 430.304 48.1057 430.629C48.0598 430.955 47.9188 431.26 47.7002 431.506C47.4817 431.751 47.1955 431.927 46.8774 432.011C46.5593 432.095 46.2236 432.083 45.9123 431.977C44.1222 431.355 42.3499 430.649 40.6212 429.877C40.231 429.688 39.9298 429.354 39.7813 428.947C39.6328 428.539 39.6485 428.09 39.8253 427.694C40.002 427.298 40.3258 426.986 40.7283 426.825C41.1307 426.663 41.5802 426.665 41.9817 426.829C43.6261 427.563 45.3063 428.233 47.0095 428.823C47.426 428.97 47.7673 429.277 47.9582 429.675ZM34.8415 423.389C35.0018 423.715 35.0515 424.084 34.9831 424.441C34.9147 424.797 34.732 425.122 34.4625 425.365C34.1931 425.609 33.8517 425.758 33.4899 425.789C33.1282 425.821 32.766 425.735 32.458 425.542C30.8546 424.542 29.2767 423.458 27.7627 422.325C27.4083 422.059 27.1741 421.663 27.1115 421.225C27.0489 420.786 27.1631 420.341 27.429 419.986C27.6949 419.632 28.0906 419.398 28.5292 419.335C28.9678 419.272 29.4133 419.387 29.7677 419.653C31.2049 420.729 32.7036 421.76 34.2277 422.721C34.4898 422.883 34.7022 423.114 34.8415 423.389ZM4.32958 370.211C4.43395 370.425 4.4915 370.659 4.49836 370.896C4.55207 372.687 4.68249 374.505 4.88964 376.292C4.91483 376.511 4.89677 376.732 4.83651 376.943C4.77624 377.154 4.67494 377.352 4.53839 377.524C4.40184 377.696 4.23272 377.84 4.04069 377.947C3.84865 378.053 3.63745 378.121 3.41915 378.147C2.97829 378.197 2.53527 378.071 2.18756 377.795C1.83985 377.519 1.61593 377.117 1.56506 376.676C1.34769 374.796 1.20704 372.883 1.15333 370.996C1.14195 370.615 1.26152 370.241 1.49215 369.937C1.72277 369.633 2.05055 369.417 2.42091 369.325C2.79127 369.234 3.18189 369.271 3.52776 369.433C3.87363 369.594 4.15389 369.868 4.3219 370.211H4.32958ZM23.451 414.359C23.6261 414.714 23.6694 415.119 23.5734 415.503C23.4774 415.887 23.2482 416.224 22.9267 416.455C22.6052 416.685 22.2123 416.794 21.8179 416.762C21.4236 416.73 21.0534 416.559 20.7734 416.279C19.4334 414.947 18.1368 413.538 16.9144 412.096C16.7728 411.928 16.6657 411.733 16.5992 411.524C16.5327 411.315 16.508 411.094 16.5267 410.876C16.5453 410.657 16.6069 410.444 16.7079 410.249C16.8088 410.054 16.9472 409.88 17.1151 409.739C17.283 409.597 17.4772 409.49 17.6865 409.424C17.8958 409.357 18.1162 409.333 18.335 409.351C18.5538 409.37 18.7669 409.431 18.9619 409.532C19.1569 409.633 19.3302 409.772 19.4717 409.94C20.6302 411.31 21.8654 412.645 23.1364 413.911C23.265 414.042 23.3713 414.193 23.451 414.359ZM6.40872 384.609C6.45654 384.71 6.49506 384.815 6.5238 384.924C6.97901 386.66 7.5135 388.402 8.11192 390.097C8.19134 390.305 8.2283 390.527 8.22064 390.75C8.21297 390.972 8.16083 391.191 8.06729 391.394C7.97374 391.596 7.84069 391.777 7.67595 391.927C7.51121 392.077 7.31813 392.193 7.10807 392.267C6.89801 392.341 6.67522 392.373 6.45282 392.359C6.23042 392.346 6.01291 392.289 5.81309 392.19C5.61328 392.092 5.43519 391.954 5.28934 391.786C5.14348 391.617 5.0328 391.421 4.96381 391.21C4.33469 389.419 3.77207 387.596 3.29385 385.767C3.18884 385.367 3.23642 384.942 3.42736 384.574C3.61829 384.207 3.93895 383.923 4.32709 383.779C4.71524 383.634 5.14317 383.639 5.52783 383.793C5.91249 383.946 6.22643 384.237 6.40872 384.609ZM14.3775 403.022C14.5648 403.406 14.5979 403.847 14.4699 404.254C14.342 404.662 14.0629 405.005 13.6898 405.213C13.3168 405.421 12.8782 405.478 12.4643 405.373C12.0504 405.267 11.6927 405.007 11.4646 404.646C10.457 403.048 9.50569 401.385 8.63874 399.705L8.62084 399.674C8.52227 399.478 8.46326 399.265 8.44719 399.046C8.43111 398.827 8.45828 398.608 8.52715 398.399C8.59602 398.191 8.70524 397.998 8.84856 397.832C8.99189 397.666 9.16651 397.53 9.36247 397.432C9.55843 397.333 9.77189 397.274 9.99066 397.258C10.2094 397.242 10.4292 397.269 10.6375 397.338C10.8457 397.407 11.0384 397.516 11.2045 397.659C11.3705 397.803 11.5067 397.977 11.6053 398.173C12.4288 399.769 13.3341 401.347 14.2905 402.866C14.3084 402.907 14.3365 402.958 14.3647 403.012L14.3775 403.022Z" fill="#74767B"/>
<path opacity="0.3" d="M5.04574 358.511C5.19533 358.816 5.24798 359.16 5.19662 359.496C5.06619 360.347 4.94088 361.214 4.85393 362.076C4.82958 362.294 4.76247 362.506 4.65644 362.698C4.55041 362.89 4.40753 363.06 4.23595 363.197C4.06438 363.334 3.86747 363.436 3.65648 363.497C3.44548 363.558 3.22453 363.577 3.00623 363.553C2.78794 363.529 2.57658 363.461 2.38422 363.355C2.19186 363.249 2.02226 363.107 1.88512 362.935C1.60815 362.588 1.48018 362.146 1.52936 361.705C1.62909 360.8 1.74929 359.887 1.88739 358.992C1.94131 358.64 2.10606 358.315 2.35765 358.064C2.60924 357.812 2.93453 357.648 3.28613 357.594C3.63772 357.541 3.99726 357.601 4.31238 357.765C4.6275 357.93 4.88174 358.192 5.03806 358.511H5.04574Z" fill="#74767B"/>
</g>
<g opacity="0.3">
<path opacity="0.3" d="M31.7725 315.189C31.9455 315.546 31.9865 315.952 31.8882 316.336C31.7899 316.72 31.5586 317.057 31.2354 317.286C30.5322 317.782 29.8263 318.309 29.141 318.821C28.9672 318.955 28.7686 319.054 28.5566 319.111C28.3447 319.169 28.1234 319.184 27.9055 319.156C27.6876 319.128 27.4774 319.058 27.2868 318.949C27.0962 318.84 26.9289 318.694 26.7946 318.52C26.6602 318.346 26.5614 318.148 26.5038 317.936C26.4462 317.724 26.431 317.503 26.4589 317.285C26.4868 317.067 26.5573 316.857 26.6665 316.666C26.7756 316.475 26.9213 316.308 27.0951 316.174C27.8188 315.619 28.5604 315.072 29.3021 314.547C29.481 314.421 29.6832 314.331 29.8969 314.283C30.1106 314.235 30.3317 314.229 30.5476 314.266C30.7635 314.304 30.9699 314.383 31.1551 314.5C31.3402 314.617 31.5005 314.77 31.6267 314.949C31.6826 315.024 31.7314 315.105 31.7725 315.189Z" fill="#74767B"/>
<path opacity="0.3" d="M127.676 339.579C128.017 340.269 128.346 340.967 128.661 341.673C128.843 342.077 128.857 342.537 128.7 342.951C128.543 343.365 128.227 343.7 127.823 343.881C127.42 344.063 126.96 344.077 126.546 343.92C126.132 343.763 125.797 343.448 125.615 343.044C124.881 341.412 124.081 339.817 123.234 338.28C123.122 338.087 123.049 337.874 123.02 337.654C122.991 337.433 123.007 337.208 123.066 336.993C123.125 336.779 123.227 336.578 123.365 336.403C123.502 336.228 123.674 336.083 123.869 335.975C124.064 335.867 124.279 335.8 124.5 335.776C124.722 335.753 124.946 335.774 125.159 335.838C125.372 335.903 125.57 336.009 125.742 336.151C125.913 336.293 126.055 336.468 126.157 336.666C126.684 337.615 127.193 338.594 127.676 339.579ZM131.717 349.941C131.757 350.024 131.792 350.109 131.819 350.197C132.346 351.987 132.804 353.813 133.177 355.634C133.226 355.85 133.231 356.075 133.193 356.293C133.154 356.512 133.072 356.72 132.952 356.907C132.831 357.093 132.675 357.254 132.492 357.379C132.308 357.505 132.102 357.593 131.885 357.637C131.667 357.682 131.443 357.683 131.225 357.64C131.007 357.597 130.8 357.511 130.616 357.387C130.432 357.263 130.274 357.104 130.153 356.918C130.031 356.733 129.947 356.525 129.906 356.306C129.551 354.578 129.116 352.839 128.628 351.141C128.51 350.74 128.548 350.309 128.732 349.935C128.916 349.56 129.234 349.268 129.623 349.116C130.012 348.964 130.444 348.963 130.834 349.114C131.223 349.265 131.542 349.557 131.727 349.931L131.717 349.941ZM121.383 329.288C121.564 329.661 121.599 330.088 121.483 330.486C121.366 330.885 121.105 331.225 120.751 331.441C120.397 331.658 119.975 331.735 119.568 331.657C119.16 331.579 118.796 331.353 118.547 331.022C117.49 329.61 116.36 328.224 115.184 326.902C114.889 326.571 114.739 326.136 114.764 325.694C114.79 325.252 114.991 324.838 115.322 324.544C115.653 324.25 116.087 324.099 116.529 324.125C116.972 324.151 117.385 324.351 117.68 324.682C118.917 326.076 120.109 327.536 121.222 329.03C121.282 329.111 121.336 329.198 121.383 329.288ZM134.228 364.037C134.325 364.233 134.381 364.446 134.395 364.664C134.515 366.521 134.558 368.405 134.523 370.265C134.499 370.697 134.309 371.104 133.992 371.398C133.675 371.693 133.256 371.854 132.823 371.845C132.39 371.837 131.977 371.661 131.672 371.354C131.366 371.047 131.192 370.634 131.185 370.201C131.218 368.433 131.185 366.646 131.062 364.881C131.037 364.495 131.147 364.113 131.372 363.799C131.597 363.484 131.925 363.258 132.299 363.159C132.672 363.059 133.069 363.092 133.421 363.252C133.773 363.413 134.058 363.69 134.228 364.037ZM111.601 318.854C111.769 319.199 111.814 319.591 111.727 319.965C111.641 320.339 111.428 320.671 111.125 320.907C110.821 321.142 110.446 321.266 110.063 321.257C109.679 321.248 109.31 321.108 109.018 320.859C107.675 319.713 106.269 318.611 104.831 317.578C104.482 317.316 104.25 316.927 104.183 316.496C104.117 316.064 104.222 315.624 104.477 315.269C104.731 314.914 105.115 314.673 105.545 314.597C105.975 314.522 106.417 314.618 106.778 314.864C108.292 315.951 109.775 317.112 111.187 318.319C111.359 318.468 111.5 318.65 111.601 318.854ZM99.7526 310.816C99.9096 311.132 99.962 311.491 99.9023 311.839C99.8426 312.187 99.6738 312.507 99.4203 312.753C99.1668 312.999 98.8417 313.159 98.4919 313.208C98.1421 313.257 97.7856 313.194 97.4739 313.028C95.9114 312.202 94.2951 311.43 92.6712 310.727C92.4599 310.647 92.2667 310.526 92.1035 310.371C91.9402 310.215 91.8102 310.027 91.7214 309.82C91.6325 309.613 91.5866 309.389 91.5864 309.164C91.5863 308.938 91.6318 308.715 91.7204 308.507C91.809 308.3 91.9387 308.112 92.1017 307.956C92.2647 307.8 92.4577 307.679 92.6689 307.599C92.8801 307.52 93.1053 307.484 93.3307 307.494C93.5562 307.504 93.7772 307.56 93.9806 307.658C95.6889 308.387 97.3921 309.192 99.0365 310.069C99.349 310.235 99.6 310.497 99.7526 310.816ZM86.4543 305.55C86.6343 305.915 86.6734 306.333 86.5642 306.724C86.4481 307.151 86.1674 307.514 85.7838 307.733C85.4001 307.953 84.9449 308.011 84.5183 307.895C82.81 307.427 81.0659 307.029 79.3294 306.706C78.8991 306.62 78.5199 306.368 78.2739 306.005C78.0279 305.642 77.9348 305.196 78.0148 304.764C78.0948 304.333 78.3414 303.95 78.7013 303.699C79.0612 303.448 79.5055 303.349 79.9381 303.423C81.764 303.76 83.6028 304.19 85.3981 304.673C85.6262 304.736 85.8384 304.847 86.0205 304.998C86.2026 305.149 86.3504 305.338 86.4543 305.55ZM72.3197 303.302C72.4478 303.563 72.5057 303.852 72.4877 304.142C72.4697 304.432 72.3764 304.712 72.217 304.954C72.0576 305.197 71.8377 305.393 71.579 305.525C71.3202 305.656 71.0317 305.718 70.7418 305.704C68.9747 305.619 67.1845 305.612 65.4199 305.681C65.003 305.66 64.6091 305.483 64.3158 305.186C64.0226 304.889 63.8512 304.493 63.8355 304.076C63.8198 303.659 63.9608 303.251 64.2309 302.933C64.501 302.614 64.8805 302.409 65.2946 302.356C67.1513 302.285 69.036 302.292 70.8978 302.379C71.1955 302.393 71.4842 302.485 71.7342 302.648C71.9841 302.81 72.1862 303.036 72.3197 303.302ZM58.0291 304.223C58.099 304.363 58.1481 304.512 58.1749 304.666C58.2132 304.881 58.2086 305.103 58.1613 305.317C58.114 305.531 58.0251 305.734 57.8994 305.914C57.7738 306.093 57.614 306.247 57.4291 306.365C57.2443 306.483 57.038 306.563 56.822 306.601C55.0856 306.911 53.3389 307.297 51.628 307.752C51.2036 307.855 50.7557 307.788 50.3803 307.565C50.0049 307.342 49.7319 306.98 49.6198 306.558C49.5078 306.136 49.5656 305.687 49.7808 305.306C49.9961 304.926 50.3516 304.646 50.7713 304.525C52.5615 304.047 54.4104 303.637 56.239 303.315C56.5966 303.253 56.9648 303.309 57.2878 303.474C57.6108 303.64 57.8711 303.907 58.0291 304.233V304.223ZM44.3012 308.256C44.3165 308.287 44.3293 308.32 44.3421 308.351C44.5126 308.759 44.5138 309.219 44.3455 309.629C44.1772 310.038 43.8531 310.364 43.4445 310.535C42.2425 311.046 41.0431 311.578 39.8769 312.151C39.4558 312.357 39.0373 312.569 38.6213 312.785C38.2281 312.986 37.7714 313.023 37.3509 312.889C36.9304 312.754 36.5805 312.458 36.3776 312.066C36.1747 311.673 36.1355 311.217 36.2684 310.796C36.4013 310.375 36.6956 310.023 37.0869 309.819C37.525 309.594 37.9657 309.372 38.409 309.154C39.6365 308.55 40.8999 307.98 42.1632 307.453C42.5562 307.291 42.9961 307.285 43.3933 307.436C43.7905 307.587 44.1152 307.884 44.3012 308.266V308.256Z" fill="#74767B"/>
<path opacity="0.3" d="M133.569 378.379C133.72 378.687 133.771 379.033 133.717 379.371C133.576 380.266 133.415 381.162 133.236 382.067C133.193 382.282 133.108 382.486 132.986 382.669C132.864 382.851 132.707 383.007 132.525 383.129C132.342 383.251 132.138 383.335 131.923 383.378C131.707 383.421 131.486 383.42 131.271 383.377C131.056 383.334 130.851 383.25 130.669 383.128C130.487 383.005 130.33 382.849 130.208 382.666C130.087 382.484 130.002 382.279 129.96 382.064C129.917 381.849 129.917 381.627 129.96 381.412C130.131 380.561 130.285 379.699 130.42 378.855C130.476 378.505 130.642 378.181 130.894 377.932C131.146 377.682 131.471 377.519 131.821 377.466C132.172 377.414 132.53 377.474 132.845 377.638C133.159 377.803 133.412 378.063 133.569 378.382V378.379Z" fill="#74767B"/>
</g>
<g filter="url(#filter0_d)">
<path d="M115.189 384.883C115.259 384.736 115.28 384.57 115.25 384.41C115.22 384.25 115.139 384.104 115.02 383.993L108.151 377.433C109.048 373.025 109.221 368.501 108.663 364.038L115.997 358.03C116.124 357.928 116.215 357.789 116.258 357.631C116.3 357.474 116.291 357.308 116.232 357.156L112.284 346.463C112.227 346.311 112.125 346.18 111.991 346.088C111.857 345.996 111.697 345.949 111.534 345.952L102.044 346.172C99.5588 342.423 96.4794 339.105 92.9271 336.346L93.858 326.884C93.8759 326.723 93.8419 326.559 93.761 326.418C93.6801 326.277 93.5564 326.165 93.4079 326.099L83.0531 321.348C82.906 321.278 82.7405 321.256 82.5805 321.287C82.4205 321.317 82.2743 321.397 82.1631 321.516L75.6035 328.385C71.1966 327.488 66.673 327.316 62.2106 327.874L56.1905 320.537C56.0877 320.411 55.9481 320.32 55.7913 320.278C55.6345 320.235 55.4683 320.243 55.3159 320.299L44.6235 324.273C44.4697 324.327 44.3372 324.429 44.2452 324.564C44.1532 324.699 44.1066 324.859 44.1121 325.022L44.3295 334.513C40.5812 336.997 37.2633 340.077 34.5066 343.63L25.0444 342.699C24.8827 342.681 24.7195 342.715 24.5784 342.796C24.4372 342.877 24.3255 343 24.2592 343.149L19.5051 353.504C19.4378 353.652 19.4181 353.817 19.4488 353.976C19.4795 354.136 19.5591 354.282 19.6764 354.394L26.5455 360.951C25.6474 365.358 25.4747 369.883 26.0341 374.346L18.697 380.366C18.5712 380.469 18.4806 380.609 18.438 380.766C18.3953 380.922 18.4027 381.089 18.4591 381.241L22.4205 391.923C22.4748 392.077 22.5767 392.21 22.7115 392.301C22.8462 392.393 23.0068 392.44 23.1698 392.435L32.6576 392.217C35.1439 395.965 38.2241 399.283 41.7772 402.04L40.8438 411.502C40.8284 411.664 40.8638 411.826 40.9449 411.967C41.026 412.108 41.1488 412.22 41.2964 412.287L51.6742 417.031C51.822 417.099 51.9871 417.118 52.1465 417.088C52.306 417.057 52.4519 416.977 52.5642 416.86L59.1238 409.991C63.5314 410.889 68.056 411.062 72.5193 410.502L78.5266 417.837C78.6282 417.964 78.7677 418.056 78.925 418.099C79.0822 418.142 79.249 418.133 79.4012 418.075L90.0833 414.113C90.2371 414.059 90.3697 413.957 90.4616 413.822C90.5536 413.688 90.6003 413.527 90.5948 413.364L90.3748 403.876C94.1239 401.391 97.4426 398.31 100.2 394.757L109.662 395.688C109.824 395.705 109.987 395.672 110.128 395.591C110.27 395.51 110.381 395.386 110.448 395.237L115.189 384.883Z" fill="#34D2A5"/>
</g>
<path d="M77.6391 364.168C78.9463 366.831 79.17 369.897 78.263 372.721C77.356 375.546 75.3891 377.908 72.7759 379.312C70.1627 380.716 67.1069 381.052 64.2511 380.25C61.3953 379.447 58.9621 377.568 57.4631 375.008C55.9642 372.448 55.5164 369.407 56.2138 366.523C56.9113 363.64 58.6997 361.14 61.2029 359.548C63.7061 357.956 66.7291 357.397 69.6361 357.988C72.543 358.579 75.1075 360.275 76.7901 362.718C77.1081 363.18 77.3919 363.664 77.6391 364.168ZM59.4613 373.055C59.6526 373.445 59.8723 373.821 60.1186 374.18C61.4052 376.048 63.3661 377.345 65.589 377.798C67.812 378.251 70.1239 377.825 72.039 376.608C73.954 375.392 75.323 373.481 75.8582 371.276C76.3934 369.072 76.0531 366.745 74.9089 364.786C73.7647 362.828 71.9057 361.388 69.7225 360.772C67.5394 360.155 65.2021 360.408 63.202 361.479C61.2019 362.549 59.6946 364.354 58.9971 366.512C58.2995 368.671 58.4659 371.016 59.4613 373.055Z" fill="#979AA0"/>
<path d="M92.3847 356.665C92.8096 357.531 93.1903 358.417 93.5253 359.322C93.6327 359.611 93.735 359.897 93.8322 360.189C94.3092 361.616 94.6726 363.08 94.9191 364.564C94.9179 364.585 94.9179 364.605 94.9191 364.626C94.9191 364.682 94.937 364.741 94.9447 364.797C94.9626 364.91 94.9805 365.02 94.9958 365.132C95.0159 365.272 94.9913 365.414 94.9257 365.539C94.86 365.664 94.7565 365.765 94.6301 365.828C94.5667 365.857 94.4996 365.878 94.4306 365.889C94.3429 365.903 94.2533 365.899 94.167 365.878C94.0808 365.857 93.9996 365.819 93.9282 365.766C93.8568 365.713 93.7967 365.646 93.7512 365.57C93.7057 365.494 93.6759 365.409 93.6634 365.321C93.3897 363.432 92.9174 361.577 92.2543 359.787C90.4101 354.813 87.1325 350.498 82.8357 347.387C78.539 344.276 73.4162 342.509 68.1152 342.309C62.8142 342.109 57.5729 343.486 53.0544 346.265C48.5358 349.044 44.9427 353.101 42.7296 357.922C40.5165 362.743 39.7827 368.112 40.621 373.35C41.4593 378.588 43.832 383.46 47.4392 387.35C51.0463 391.239 55.7259 393.972 60.8861 395.202C66.0463 396.432 71.4554 396.105 76.4293 394.261C80.9838 392.575 84.9968 389.688 88.0423 385.906C88.1034 385.829 88.1812 385.766 88.2699 385.724C88.4069 385.655 88.5635 385.636 88.7133 385.668C88.863 385.701 88.9969 385.785 89.0924 385.905C89.1878 386.025 89.239 386.174 89.2373 386.328C89.2356 386.481 89.1812 386.629 89.0832 386.747C86.5028 389.963 83.246 392.571 79.5442 394.386C78.6917 394.805 77.8154 395.182 76.9152 395.516C70.1465 398.034 62.669 397.855 56.0285 395.016C49.3879 392.177 44.0919 386.896 41.2352 380.263C38.3785 373.63 38.1794 366.153 40.679 359.377C43.1787 352.602 48.1861 347.046 54.6662 343.857C55.5339 343.432 56.4224 343.051 57.3284 342.714C63.8616 340.293 71.0605 340.379 77.5339 342.956C84.0073 345.533 89.2957 350.418 92.3771 356.667L92.3847 356.665Z" fill="#979AA0"/>
<g opacity="0.3">
<path opacity="0.3" d="M168.558 455.09C168.657 455.29 168.688 455.516 168.647 455.735C168.605 455.954 168.493 456.153 168.328 456.302C167.681 456.896 167.011 457.474 166.331 458.026C166.119 458.199 165.846 458.28 165.574 458.252C165.302 458.224 165.052 458.089 164.88 457.876C164.707 457.664 164.626 457.392 164.654 457.12C164.682 456.848 164.817 456.598 165.029 456.425C165.679 455.898 166.308 455.346 166.934 454.783C167.052 454.673 167.194 454.592 167.348 454.547C167.503 454.502 167.666 454.494 167.824 454.524C167.983 454.554 168.132 454.621 168.259 454.719C168.387 454.818 168.489 454.945 168.558 455.09Z" fill="#74767B"/>
<path opacity="0.3" d="M162.242 459.888C162.355 460.117 162.379 460.38 162.309 460.625C162.238 460.871 162.078 461.081 161.861 461.215C160.577 462.016 159.253 462.751 157.894 463.417C157.61 463.558 157.321 463.693 157.032 463.829C156.783 463.934 156.503 463.942 156.249 463.849C155.994 463.757 155.784 463.571 155.662 463.33C155.604 463.207 155.571 463.073 155.565 462.937C155.559 462.801 155.581 462.665 155.629 462.537C155.676 462.409 155.749 462.292 155.843 462.193C155.936 462.094 156.048 462.014 156.173 461.959C156.449 461.831 156.725 461.703 156.996 461.565C158.292 460.929 159.554 460.229 160.779 459.466C160.893 459.393 161.022 459.343 161.155 459.321C161.289 459.298 161.427 459.302 161.559 459.332C161.691 459.363 161.816 459.42 161.926 459.499C162.037 459.579 162.13 459.68 162.201 459.796C162.208 459.826 162.226 459.857 162.242 459.888ZM152.524 464.399C152.545 464.443 152.564 464.488 152.58 464.534C152.664 464.795 152.641 465.079 152.516 465.323C152.392 465.567 152.175 465.751 151.915 465.836C150.172 466.4 148.397 466.856 146.598 467.202C146.33 467.253 146.052 467.196 145.825 467.043C145.599 466.889 145.443 466.652 145.391 466.383C145.34 466.115 145.397 465.837 145.55 465.61C145.704 465.384 145.941 465.228 146.209 465.176C147.925 464.846 149.619 464.41 151.281 463.872C151.518 463.792 151.776 463.801 152.006 463.898C152.236 463.995 152.423 464.173 152.531 464.399H152.524ZM142.008 466.419C142.085 466.571 142.122 466.74 142.117 466.91C142.113 467.08 142.065 467.246 141.98 467.394C141.895 467.541 141.774 467.665 141.629 467.754C141.484 467.842 141.318 467.894 141.148 467.902C139.32 468.022 137.487 468.028 135.658 467.92C135.523 467.912 135.392 467.878 135.271 467.82C135.15 467.761 135.041 467.679 134.952 467.578C134.863 467.478 134.794 467.361 134.75 467.233C134.706 467.106 134.687 466.972 134.695 466.837C134.703 466.703 134.737 466.572 134.796 466.45C134.855 466.329 134.936 466.221 135.037 466.132C135.138 466.042 135.255 465.973 135.382 465.929C135.509 465.885 135.644 465.867 135.778 465.874C137.523 465.977 139.272 465.971 141.015 465.857C141.219 465.84 141.424 465.884 141.602 465.984C141.78 466.085 141.924 466.236 142.015 466.419H142.008ZM131.318 465.795C131.405 465.966 131.441 466.159 131.424 466.35C131.407 466.541 131.336 466.723 131.22 466.876C131.104 467.029 130.947 467.146 130.768 467.214C130.589 467.282 130.394 467.298 130.206 467.261C128.403 466.93 126.623 466.487 124.876 465.936C124.747 465.895 124.627 465.829 124.523 465.742C124.42 465.655 124.334 465.548 124.272 465.428C124.209 465.308 124.171 465.177 124.159 465.042C124.148 464.907 124.163 464.771 124.203 464.642C124.244 464.513 124.31 464.393 124.397 464.289C124.484 464.185 124.591 464.1 124.711 464.038C124.831 463.975 124.963 463.937 125.097 463.925C125.232 463.913 125.368 463.928 125.497 463.969C127.163 464.495 128.86 464.917 130.579 465.233C130.739 465.26 130.89 465.326 131.02 465.424C131.15 465.521 131.255 465.649 131.326 465.795H131.318ZM121.106 462.578C121.205 462.769 121.242 462.986 121.21 463.199C121.179 463.412 121.081 463.609 120.931 463.763C120.781 463.917 120.586 464.02 120.374 464.057C120.163 464.094 119.944 464.063 119.751 463.969C118.086 463.209 116.468 462.348 114.907 461.391C114.792 461.321 114.692 461.228 114.612 461.118C114.533 461.008 114.476 460.884 114.444 460.753C114.413 460.621 114.408 460.484 114.429 460.351C114.45 460.217 114.498 460.089 114.568 459.973C114.639 459.858 114.732 459.758 114.842 459.678C114.951 459.599 115.076 459.542 115.207 459.51C115.339 459.479 115.476 459.474 115.609 459.495C115.743 459.516 115.871 459.564 115.987 459.635C117.475 460.547 119.019 461.368 120.608 462.092C120.827 462.191 121.006 462.363 121.114 462.578H121.106ZM111.984 456.98C112.098 457.19 112.134 457.434 112.086 457.668C112.039 457.902 111.911 458.113 111.725 458.263C111.539 458.412 111.306 458.492 111.067 458.488C110.828 458.484 110.598 458.397 110.417 458.241C108.986 457.098 107.627 455.868 106.348 454.558C106.253 454.461 106.179 454.347 106.129 454.221C106.078 454.095 106.053 453.961 106.055 453.826C106.057 453.69 106.085 453.557 106.138 453.432C106.192 453.308 106.269 453.195 106.366 453.1C106.463 453.006 106.577 452.931 106.703 452.881C106.829 452.831 106.963 452.806 107.098 452.807C107.234 452.809 107.367 452.837 107.492 452.891C107.616 452.944 107.729 453.021 107.823 453.118C109.043 454.367 110.338 455.539 111.703 456.627C111.825 456.721 111.923 456.842 111.992 456.98H111.984ZM104.519 449.328C104.59 449.443 104.637 449.571 104.659 449.704C104.68 449.837 104.675 449.973 104.644 450.104C104.613 450.236 104.556 450.359 104.477 450.469C104.398 450.578 104.298 450.671 104.183 450.741C104.068 450.812 103.941 450.859 103.807 450.881C103.674 450.902 103.538 450.897 103.407 450.866C103.276 450.835 103.152 450.778 103.043 450.699C102.933 450.62 102.841 450.52 102.77 450.405C101.664 448.945 100.648 447.419 99.7294 445.835C99.6614 445.717 99.6172 445.588 99.5993 445.453C99.5815 445.318 99.5903 445.182 99.6253 445.05C99.6604 444.919 99.7209 444.796 99.8035 444.688C99.886 444.581 99.989 444.49 100.107 444.422C100.224 444.354 100.354 444.31 100.489 444.292C100.623 444.274 100.76 444.283 100.891 444.318C101.022 444.353 101.145 444.414 101.253 444.496C101.361 444.579 101.452 444.682 101.52 444.799C102.396 446.307 103.366 447.759 104.422 449.147C104.459 449.205 104.492 449.265 104.519 449.328ZM97.3587 435.007C97.3842 435.062 97.4056 435.118 97.4226 435.176C97.8438 436.635 98.3423 438.071 98.9161 439.477C99.0031 439.692 99.09 439.902 99.1719 440.109C99.2261 440.233 99.255 440.367 99.2568 440.503C99.2587 440.639 99.2336 440.774 99.1829 440.9C99.1322 441.025 99.057 441.14 98.9616 441.237C98.8661 441.333 98.7524 441.41 98.6271 441.462C98.5028 441.516 98.369 441.545 98.2334 441.547C98.0978 441.549 97.9631 441.524 97.8372 441.474C97.7114 441.423 97.5968 441.348 97.5001 441.253C97.4035 441.158 97.3267 441.045 97.2743 440.92C97.1797 440.7 97.0876 440.477 96.9955 440.252C96.3964 438.779 95.8748 437.274 95.433 435.746C95.3845 435.62 95.3612 435.486 95.3646 435.351C95.3679 435.216 95.3978 435.083 95.4526 434.96C95.5073 434.836 95.5858 434.725 95.6836 434.632C95.7814 434.539 95.8965 434.466 96.0225 434.418C96.1484 434.369 96.2827 434.346 96.4176 434.349C96.5525 434.353 96.6855 434.382 96.8088 434.437C96.9322 434.492 97.0436 434.57 97.1366 434.668C97.2296 434.766 97.3025 434.881 97.351 435.007H97.3587Z" fill="#74767B"/>
</g>
<g opacity="0.3">
<path opacity="0.3" d="M177.959 403.296C178.081 403.541 178.101 403.824 178.014 404.083C177.927 404.343 177.741 404.557 177.496 404.679C177.375 404.74 177.243 404.776 177.108 404.785C176.973 404.795 176.837 404.777 176.709 404.734C176.449 404.647 176.235 404.461 176.113 404.216C175.337 402.684 174.468 401.201 173.512 399.774C173.437 399.662 173.384 399.535 173.357 399.403C173.331 399.27 173.331 399.133 173.357 399C173.383 398.867 173.435 398.741 173.51 398.628C173.585 398.516 173.682 398.419 173.795 398.343C173.907 398.268 174.033 398.215 174.166 398.189C174.299 398.162 174.436 398.162 174.568 398.188C174.701 398.215 174.828 398.267 174.94 398.342C175.053 398.417 175.15 398.513 175.225 398.626C176.227 400.122 177.138 401.677 177.952 403.283L177.959 403.296ZM180.056 408.137C180.072 408.17 180.087 408.206 180.1 408.242C180.714 409.934 181.227 411.661 181.634 413.415C181.665 413.547 181.67 413.684 181.648 413.818C181.626 413.951 181.578 414.08 181.506 414.195C181.435 414.31 181.341 414.41 181.231 414.489C181.121 414.568 180.996 414.625 180.864 414.655C180.732 414.686 180.596 414.691 180.462 414.669C180.328 414.647 180.2 414.599 180.085 414.527C179.97 414.456 179.87 414.363 179.791 414.252C179.711 414.142 179.655 414.018 179.624 413.886C179.234 412.211 178.744 410.561 178.156 408.945C178.049 408.694 178.046 408.41 178.148 408.157C178.25 407.903 178.448 407.7 178.7 407.593C178.951 407.486 179.234 407.483 179.488 407.585C179.741 407.687 179.944 407.885 180.051 408.137H180.056ZM172.098 394.549C172.237 394.776 172.283 395.047 172.226 395.307C172.169 395.566 172.013 395.793 171.791 395.94C171.57 396.086 171.3 396.141 171.038 396.092C170.777 396.043 170.545 395.894 170.392 395.677C169.268 394.378 168.065 393.148 166.791 391.995C166.588 391.811 166.466 391.554 166.452 391.28C166.438 391.006 166.533 390.738 166.717 390.534C166.901 390.331 167.158 390.209 167.432 390.195C167.706 390.181 167.974 390.276 168.177 390.46C169.512 391.671 170.772 392.962 171.952 394.324C172.009 394.392 172.058 394.465 172.098 394.544V394.549ZM182.44 418.399C182.493 418.508 182.527 418.625 182.539 418.745C182.735 420.537 182.82 422.339 182.795 424.141C182.791 424.414 182.678 424.675 182.481 424.866C182.285 425.056 182.02 425.16 181.747 425.156C181.473 425.152 181.212 425.039 181.022 424.842C180.831 424.645 180.727 424.381 180.731 424.108C180.759 422.389 180.681 420.671 180.499 418.962C180.459 418.715 180.511 418.463 180.645 418.252C180.779 418.041 180.985 417.886 181.225 417.817C181.465 417.748 181.722 417.769 181.948 417.876C182.174 417.984 182.352 418.17 182.45 418.399H182.44ZM164.295 387.478C164.406 387.684 164.442 387.921 164.399 388.151C164.356 388.38 164.236 388.588 164.059 388.74C163.881 388.891 163.657 388.978 163.424 388.985C163.191 388.992 162.962 388.918 162.776 388.777C161.373 387.786 159.911 386.88 158.398 386.067C158.279 386.003 158.173 385.916 158.088 385.811C158.002 385.706 157.938 385.585 157.899 385.455C157.86 385.326 157.847 385.19 157.861 385.055C157.874 384.92 157.914 384.79 157.978 384.67C158.043 384.551 158.13 384.446 158.235 384.36C158.339 384.275 158.46 384.21 158.59 384.171C158.852 384.093 159.134 384.121 159.375 384.251C160.966 385.103 162.503 386.052 163.978 387.092C164.113 387.191 164.222 387.322 164.295 387.473V387.478ZM155.027 382.486C155.124 382.673 155.16 382.884 155.132 383.092C155.105 383.3 155.013 383.495 154.871 383.649C154.729 383.803 154.543 383.91 154.338 383.955C154.133 384 153.919 383.981 153.726 383.901C152.124 383.275 150.487 382.746 148.823 382.315C148.558 382.247 148.331 382.077 148.192 381.842C148.053 381.606 148.012 381.326 148.08 381.061C148.148 380.796 148.318 380.569 148.554 380.429C148.789 380.29 149.07 380.25 149.335 380.318C151.078 380.77 152.794 381.325 154.472 381.98C154.713 382.072 154.911 382.251 155.027 382.481V382.486ZM144.826 379.857C144.916 380.039 144.95 380.244 144.923 380.446C144.906 380.58 144.863 380.711 144.796 380.828C144.728 380.946 144.638 381.05 144.53 381.132C144.422 381.215 144.299 381.275 144.167 381.31C144.036 381.344 143.899 381.352 143.765 381.333C142.061 381.107 140.345 380.986 138.627 380.97C138.492 380.968 138.358 380.941 138.233 380.887C138.109 380.834 137.996 380.757 137.901 380.661C137.806 380.564 137.732 380.45 137.681 380.324C137.63 380.199 137.605 380.064 137.606 379.929C137.608 379.794 137.636 379.66 137.689 379.535C137.742 379.411 137.819 379.298 137.916 379.203C138.012 379.109 138.127 379.034 138.252 378.983C138.378 378.933 138.512 378.907 138.647 378.909C140.45 378.924 142.249 379.052 144.036 379.29C144.204 379.311 144.364 379.373 144.502 379.471C144.64 379.57 144.751 379.7 144.826 379.852V379.857Z" fill="#74767B"/>
<path opacity="0.3" d="M182.269 428.974C182.358 429.16 182.391 429.368 182.363 429.573C182.24 430.445 182.092 431.319 181.921 432.171C181.894 432.304 181.841 432.43 181.766 432.542C181.691 432.654 181.594 432.751 181.481 432.826C181.368 432.901 181.242 432.953 181.109 432.979C180.976 433.005 180.84 433.004 180.707 432.978C180.575 432.951 180.448 432.899 180.336 432.823C180.224 432.748 180.127 432.651 180.052 432.538C179.978 432.425 179.926 432.299 179.899 432.166C179.873 432.034 179.874 431.897 179.9 431.764C180.061 430.954 180.205 430.12 180.32 429.286C180.344 429.063 180.441 428.854 180.595 428.692C180.75 428.529 180.954 428.422 181.175 428.386C181.397 428.351 181.624 428.389 181.821 428.495C182.019 428.602 182.176 428.77 182.269 428.974Z" fill="#74767B"/>
</g>
<path d="M169.929 434.073C169.979 433.975 169.995 433.864 169.976 433.756C169.957 433.647 169.904 433.548 169.824 433.472L165.221 429.081C165.82 426.136 165.935 423.113 165.561 420.131L170.471 416.1C170.556 416.032 170.618 415.939 170.646 415.835C170.675 415.73 170.669 415.619 170.63 415.517L167.978 408.357C167.941 408.252 167.871 408.163 167.779 408.101C167.687 408.04 167.577 408.01 167.467 408.016L161.117 408.162C159.455 405.653 157.393 403.432 155.015 401.587L155.639 395.263C155.651 395.154 155.629 395.045 155.574 394.95C155.52 394.855 155.437 394.78 155.337 394.736L148.409 391.557C148.311 391.51 148.2 391.495 148.093 391.516C147.985 391.536 147.888 391.59 147.813 391.67L143.425 396.273C140.479 395.674 137.456 395.559 134.474 395.933L130.441 391.02C130.373 390.935 130.28 390.873 130.174 390.845C130.069 390.816 129.957 390.822 129.855 390.862L122.695 393.511C122.59 393.548 122.501 393.618 122.439 393.71C122.378 393.802 122.348 393.912 122.355 394.023L122.5 400.372C119.992 402.035 117.772 404.096 115.928 406.474L109.616 405.853C109.508 405.841 109.399 405.864 109.305 405.918C109.211 405.972 109.136 406.055 109.092 406.155L105.911 413.083C105.866 413.182 105.853 413.292 105.873 413.399C105.894 413.506 105.947 413.603 106.026 413.678L110.629 418.067C110.03 421.012 109.915 424.035 110.289 427.018L105.379 431.051C105.295 431.12 105.235 431.213 105.207 431.318C105.178 431.423 105.183 431.534 105.22 431.636L107.872 438.797C107.909 438.901 107.979 438.991 108.071 439.052C108.163 439.114 108.273 439.143 108.384 439.137L114.734 438.991C116.396 441.5 118.456 443.721 120.833 445.566L120.194 451.885C120.182 451.994 120.204 452.103 120.259 452.197C120.313 452.291 120.396 452.366 120.495 452.41L127.423 455.591C127.522 455.636 127.633 455.649 127.74 455.629C127.846 455.608 127.944 455.555 128.019 455.476L132.408 450.873C135.353 451.472 138.376 451.586 141.358 451.213L145.386 456.123C145.455 456.207 145.549 456.267 145.654 456.296C145.759 456.324 145.87 456.319 145.972 456.282L153.133 453.632C153.236 453.593 153.324 453.523 153.385 453.431C153.446 453.339 153.477 453.231 153.473 453.121L153.327 446.771C155.834 445.106 158.054 443.046 159.899 440.669L166.224 441.293C166.332 441.303 166.441 441.28 166.535 441.226C166.63 441.172 166.705 441.09 166.75 440.991L169.929 434.073Z" fill="#D8DEE8"/>
<path d="M144.931 420.154C145.816 421.968 145.962 424.054 145.341 425.973C144.719 427.893 143.377 429.497 141.597 430.448C139.818 431.399 137.739 431.623 135.797 431.073C133.856 430.523 132.203 429.242 131.187 427.499C130.17 425.756 129.869 423.686 130.346 421.726C130.824 419.765 132.043 418.066 133.747 416.986C135.451 415.905 137.508 415.527 139.485 415.932C141.462 416.336 143.205 417.491 144.348 419.154C144.567 419.472 144.762 419.806 144.931 420.154ZM132.768 426.097C132.892 426.35 133.034 426.594 133.193 426.826C134.055 428.081 135.381 428.942 136.878 429.219C138.375 429.496 139.921 429.168 141.176 428.305C142.431 427.443 143.291 426.118 143.569 424.62C143.846 423.123 143.518 421.577 142.655 420.323C141.833 419.131 140.591 418.294 139.178 417.98C137.765 417.665 136.286 417.896 135.036 418.626C133.786 419.357 132.858 420.532 132.439 421.918C132.019 423.303 132.139 424.796 132.774 426.097H132.768Z" fill="#979AA0"/>
<path d="M155.204 414.95C156.075 416.732 156.672 418.636 156.976 420.596L157.002 420.773C157.041 421.044 156.97 421.32 156.806 421.539C156.642 421.759 156.397 421.904 156.126 421.943C155.854 421.982 155.579 421.911 155.359 421.747C155.14 421.583 154.995 421.338 154.956 421.067C154.779 419.844 154.473 418.644 154.043 417.487L153.971 417.295C152.948 414.604 151.266 412.213 149.079 410.341C147.888 409.324 146.566 408.472 145.148 407.807L145.115 407.792L145.008 407.74C142.412 406.549 139.563 406.016 136.713 406.188C133.862 406.361 131.098 407.234 128.666 408.73C126.233 410.226 124.207 412.299 122.767 414.765C121.327 417.231 120.518 420.014 120.41 422.868C120.303 425.722 120.901 428.558 122.151 431.125C123.402 433.693 125.266 435.912 127.579 437.587C129.892 439.261 132.583 440.34 135.412 440.726C138.242 441.112 141.123 440.795 143.8 439.802C146.745 438.713 149.338 436.844 151.304 434.396C151.398 434.277 151.517 434.18 151.654 434.115C151.865 434.001 152.108 433.965 152.343 434.013C152.577 434.061 152.788 434.189 152.937 434.376C153.087 434.562 153.166 434.796 153.162 435.035C153.157 435.274 153.069 435.504 152.912 435.685C151.132 437.904 148.885 439.704 146.33 440.956C145.739 441.246 145.134 441.506 144.516 441.736C139.858 443.418 134.732 443.259 130.187 441.29C125.642 439.321 122.02 435.691 120.061 431.142C118.103 426.592 117.955 421.466 119.648 416.811C121.341 412.156 124.748 408.324 129.172 406.096C133.799 403.824 139.138 403.48 144.017 405.14C148.897 406.801 152.918 410.33 155.199 414.952L155.204 414.95Z" fill="#979AA0"/>
<path d="M310.05 397.339C310.119 397.314 347.446 331.948 352.502 325.795C352.92 325.287 353.458 324.892 354.068 324.646C354.678 324.401 355.34 324.313 355.993 324.391L366.412 325.633L378.651 352.112L358.261 340.236C360.279 354.192 334.084 374.929 325.1 382.497C324.884 382.678 324.708 382.902 324.582 383.154C324.456 383.407 324.383 383.682 324.368 383.964C324.352 384.245 324.395 384.527 324.493 384.791C324.591 385.056 324.741 385.298 324.936 385.501L328.517 389.256C322.635 395.225 315.832 399.055 308.165 400.828L310.05 397.339Z" fill="url(#paint38_linear)"/>
<path d="M326.435 387.228C326.435 387.228 328.724 387.969 329.504 390.008C329.672 390.49 329.677 391.014 329.518 391.499C329.36 391.985 329.047 392.405 328.627 392.695C324.857 395.396 312.423 404.114 306.687 405.82C306.579 405.851 306.464 405.853 306.354 405.827C306.245 405.8 306.144 405.745 306.062 405.668C305.98 405.591 305.919 405.493 305.886 405.385C305.853 405.277 305.849 405.163 305.874 405.052C306.168 403.72 307.122 401.058 310.191 397.163L309.914 397.721C309.839 397.873 309.815 398.045 309.844 398.213C309.874 398.38 309.956 398.534 310.079 398.651C310.202 398.768 310.36 398.843 310.528 398.865C310.697 398.887 310.868 398.854 311.017 398.772C314.853 396.608 322.668 391.867 326.435 387.228Z" fill="#333435"/>
<path d="M324.588 413.384C324.652 413.343 330.25 399.851 330.314 399.81C335.45 368.549 347.976 341.776 351.671 334.73C351.977 334.148 352.424 333.652 352.972 333.288C353.52 332.924 354.151 332.704 354.806 332.648L365.261 331.756L382.597 355.217L360.225 347.716C365.026 360.971 343.569 386.588 336.304 395.81C336.129 396.032 336.001 396.287 335.929 396.559C335.857 396.832 335.841 397.117 335.883 397.395C335.925 397.674 336.024 397.942 336.173 398.181C336.322 398.421 336.519 398.627 336.751 398.787L341.025 401.738C336.465 408.774 330.588 413.901 323.435 417.19L324.588 413.384Z" fill="url(#paint39_linear)"/>
<path d="M338.59 400.165C338.59 400.165 340.981 400.421 342.153 402.265C342.415 402.704 342.526 403.216 342.47 403.725C342.413 404.233 342.191 404.708 341.838 405.078C338.693 408.485 328.284 419.54 323.008 422.371C322.909 422.423 322.797 422.449 322.685 422.445C322.573 422.442 322.463 422.409 322.368 422.35C322.272 422.291 322.193 422.208 322.139 422.11C322.085 422.011 322.058 421.9 322.059 421.788C322.077 420.422 322.471 417.625 324.688 413.188L324.53 413.788C324.487 413.953 324.497 414.128 324.56 414.286C324.623 414.444 324.735 414.578 324.88 414.668C325.025 414.758 325.194 414.8 325.364 414.786C325.534 414.773 325.695 414.706 325.824 414.594C329.148 411.694 335.839 405.469 338.59 400.165Z" fill="#333435"/>
<path d="M414.194 326.831C414.194 326.831 423.656 340.896 424.423 347.312C425.19 353.729 421.807 355.949 411.907 356.775C382.452 359.209 367.921 350.381 367.921 350.381C365.908 337.533 364.473 334.27 347.643 327.281C347.643 327.281 368.931 328.969 373.217 327.306C377.503 325.644 414.194 326.831 414.194 326.831Z" fill="#2E987A"/>
<path d="M381.398 247.041C381.398 247.041 386.375 247.946 387.863 250.168C389.057 251.958 393.973 250.851 395.535 254.58C395.911 255.516 396.585 256.302 397.451 256.819C398.318 257.335 399.331 257.552 400.333 257.436C405.493 256.812 413.833 257.25 417.467 265.497C420.232 271.791 417.585 275.215 414.319 277.051C411.92 278.404 410.907 281.399 412.155 283.844C413.355 286.196 413.414 289.288 409.731 292.779C401.476 300.594 386.991 286.087 386.991 286.087L376.605 256.582L381.398 247.041Z" fill="#2F2E41"/>
<path d="M388.617 324.956C388.617 324.956 377.605 314.471 372.184 307.522C370.741 305.67 369.763 303.5 369.329 301.193C368.895 298.886 369.019 296.509 369.69 294.26C372.163 285.923 376.562 277.286 376.963 275.941C377.577 273.895 389.927 273.967 389.927 273.967C389.927 273.967 414.222 289.738 423.773 316.45L413.05 319.79C413.05 319.79 406.705 309.146 400.437 302.377C400.437 302.377 411.283 316.698 411.667 322.58L388.617 324.956Z" fill="url(#paint40_linear)"/>
<path d="M367.634 329.094L375.91 320.089L385.467 322.664C385.467 322.664 396.609 324.391 402.985 322.664L409.363 320.938L423.773 316.45L426.037 322.843C426.315 323.634 426.328 324.494 426.075 325.292C425.821 326.091 425.314 326.785 424.63 327.27C423.382 328.155 421.922 329.129 420.988 329.536C419.091 330.367 377.273 329.792 377.273 329.792L367.634 329.094Z" fill="url(#paint41_linear)"/>
<path d="M383.186 257.073L389.74 274.553C389.19 277.923 380.708 278.018 379.396 276.005C379.27 275.796 379.183 275.565 379.14 275.325L376.46 262.641C376.355 262.151 376.413 261.641 376.624 261.187C376.836 260.734 377.189 260.361 377.631 260.127L380.93 258.37C382.191 257.705 382.748 255.702 383.186 257.073Z" fill="url(#paint42_linear)"/>
<path d="M367.13 250.071C367.13 250.071 365.085 254.963 367.68 262.316C370.276 269.668 374.311 270.244 376.843 268.387C379.375 266.53 382.646 263.211 382.961 256.511C383.275 249.81 369.941 243.88 367.13 250.071Z" fill="url(#paint43_linear)"/>
<path d="M377.958 256.147C377.958 256.147 373.355 246.212 366.742 252.539L366.263 255.122C366.263 255.122 359.857 253.398 361.87 247.588C363.882 241.777 370.053 238.865 376.935 242.509C383.817 246.153 387.582 249.414 387.293 254.682C387.004 259.95 383.582 257.973 383.582 257.973C383.582 257.973 382.216 254.349 380.354 253.69C378.493 253.03 378.564 255.955 378.564 255.955L377.958 256.147Z" fill="#2F2E41"/>
<path d="M379.498 256.247C379.498 256.247 377.096 251.153 380.349 250.92C383.602 250.688 382.354 255.835 381.733 257.715L379.498 256.247Z" fill="url(#paint44_linear)"/>
<path d="M395.026 332.656H394.939L356.878 332.615C356.426 332.615 355.993 332.436 355.673 332.116C355.354 331.797 355.175 331.364 355.175 330.912C355.175 330.46 355.354 330.027 355.673 329.708C355.993 329.388 356.426 329.209 356.878 329.209L394.939 329.25C395.382 329.252 395.807 329.427 396.123 329.737C396.439 330.047 396.622 330.468 396.633 330.911C396.644 331.353 396.482 331.783 396.182 332.108C395.881 332.434 395.466 332.629 395.023 332.654L395.026 332.656Z" fill="#2F2E41"/>
<path d="M322.663 298.098H354.359C355.507 298.096 356.632 298.42 357.602 299.034C358.572 299.648 359.348 300.525 359.837 301.564L374.491 332.636H335.107C334.371 332.636 333.652 332.414 333.043 332C332.434 331.586 331.964 330.998 331.693 330.314L320.328 301.561C320.177 301.179 320.121 300.765 320.166 300.356C320.21 299.947 320.354 299.556 320.584 299.215C320.813 298.874 321.123 298.594 321.485 298.399C321.848 298.205 322.252 298.102 322.663 298.098Z" fill="#2F2E41"/>
<path d="M345.004 314.043C345.689 316.179 345.183 318.25 343.871 318.672C342.559 319.094 340.935 317.708 340.25 315.575C339.564 313.442 340.071 311.368 341.383 310.944C342.695 310.519 344.306 311.898 345.004 314.043Z" fill="#FFA412"/>
<defs>
<filter id="filter0_d" x="14.4106" y="320.25" width="105.873" height="105.875" filterUnits="userSpaceOnUse" color-interpolation-filters="sRGB">
<feFlood flood-opacity="0" result="BackgroundImageFix"/>
<feColorMatrix in="SourceAlpha" type="matrix" values="0 0 0 0 0 0 0 0 0 0 0 0 0 0 0 0 0 0 127 0"/>
<feOffset dy="4"/>
<feGaussianBlur stdDeviation="2"/>
<feColorMatrix type="matrix" values="0 0 0 0 0 0 0 0 0 0 0 0 0 0 0 0 0 0 0.25 0"/>
<feBlend mode="normal" in2="BackgroundImageFix" result="effect1_dropShadow"/>
<feBlend mode="normal" in="SourceGraphic" in2="effect1_dropShadow" result="shape"/>
</filter>
<linearGradient id="paint0_linear" x1="375.165" y1="44.981" x2="616.307" y2="223.828" gradientUnits="userSpaceOnUse">
<stop stop-color="#ABFFE7"/>
<stop offset="1" stop-color="#9571F6"/>
</linearGradient>
<linearGradient id="paint1_linear" x1="369.969" y1="89.683" x2="426.523" y2="97.1832" gradientUnits="userSpaceOnUse">
<stop stop-color="#81DFC4"/>
<stop offset="1" stop-color="#9571F6"/>
</linearGradient>
<linearGradient id="paint2_linear" x1="405.423" y1="4.4186" x2="237.693" y2="236.078" gradientUnits="userSpaceOnUse">
<stop stop-color="#FF9263"/>
<stop offset="0.0001" stop-color="#FF4D00"/>
<stop offset="0.8125" stop-color="#FFF510"/>
<stop offset="1" stop-color="#FFA950"/>
</linearGradient>
<linearGradient id="paint3_linear" x1="689864" y1="32507.4" x2="720228" y2="146547" gradientUnits="userSpaceOnUse">
<stop stop-color="#78E6C6"/>
<stop offset="1" stop-color="#9571F6"/>
</linearGradient>
<linearGradient id="paint4_linear" x1="706562" y1="13447.4" x2="711812" y2="62834.4" gradientUnits="userSpaceOnUse">
<stop stop-color="#78E6C6"/>
<stop offset="1" stop-color="#9571F6"/>
</linearGradient>
<linearGradient id="paint5_linear" x1="671374" y1="59147.4" x2="760957" y2="237930" gradientUnits="userSpaceOnUse">
<stop stop-color="#78E6C6"/>
<stop offset="1" stop-color="#9571F6"/>
</linearGradient>
<linearGradient id="paint6_linear" x1="690483" y1="6289.56" x2="691630" y2="29211.8" gradientUnits="userSpaceOnUse">
<stop stop-color="#78E6C6"/>
<stop offset="1" stop-color="#9571F6"/>
</linearGradient>
<linearGradient id="paint7_linear" x1="333453" y1="49957.6" x2="332545" y2="38224" gradientUnits="userSpaceOnUse">
<stop stop-color="#20A58D"/>
<stop offset="1" stop-color="#FF9A03"/>
</linearGradient>
<linearGradient id="paint8_linear" x1="333453" y1="49976.9" x2="332545" y2="38243.4" gradientUnits="userSpaceOnUse">
<stop stop-color="#20A58D"/>
<stop offset="1" stop-color="#FF9A03"/>
</linearGradient>
<linearGradient id="paint9_linear" x1="333453" y1="49996.3" x2="332545" y2="38262.7" gradientUnits="userSpaceOnUse">
<stop stop-color="#20A58D"/>
<stop offset="1" stop-color="#FF9A03"/>
</linearGradient>
<linearGradient id="paint10_linear" x1="333453" y1="50015.6" x2="332545" y2="38282" gradientUnits="userSpaceOnUse">
<stop stop-color="#20A58D"/>
<stop offset="1" stop-color="#FF9A03"/>
</linearGradient>
<linearGradient id="paint11_linear" x1="333453" y1="50035" x2="332545" y2="38301.4" gradientUnits="userSpaceOnUse">
<stop stop-color="#20A58D"/>
<stop offset="1" stop-color="#FF9A03"/>
</linearGradient>
<linearGradient id="paint12_linear" x1="333453" y1="50054.3" x2="332545" y2="38320.7" gradientUnits="userSpaceOnUse">
<stop stop-color="#20A58D"/>
<stop offset="1" stop-color="#FF9A03"/>
</linearGradient>
<linearGradient id="paint13_linear" x1="365.133" y1="201.746" x2="378.895" y2="226.639" gradientUnits="userSpaceOnUse">
<stop stop-color="#FF9263"/>
<stop offset="0.0001" stop-color="#FF4D00"/>
<stop offset="0.8125" stop-color="#FFF510"/>
<stop offset="1" stop-color="#FFA950"/>
</linearGradient>
<linearGradient id="paint14_linear" x1="364.578" y1="151.656" x2="378.341" y2="176.55" gradientUnits="userSpaceOnUse">
<stop stop-color="#FF9263"/>
<stop offset="0.0001" stop-color="#FF4D00"/>
<stop offset="0.8125" stop-color="#FFF510"/>
<stop offset="1" stop-color="#FFA950"/>
</linearGradient>
<linearGradient id="paint15_linear" x1="71.043" y1="256.009" x2="92.0869" y2="275.146" gradientUnits="userSpaceOnUse">
<stop stop-color="#FF9263"/>
<stop offset="0.0001" stop-color="#FF4D00"/>
<stop offset="0.8125" stop-color="#FFF510"/>
<stop offset="1" stop-color="#FFA950"/>
</linearGradient>
<linearGradient id="paint16_linear" x1="68.8185" y1="212.645" x2="95.8878" y2="221.401" gradientUnits="userSpaceOnUse">
<stop stop-color="#FF9263"/>
<stop offset="0.0001" stop-color="#FF4D00"/>
<stop offset="0.8125" stop-color="#FFF510"/>
<stop offset="1" stop-color="#FFA950"/>
</linearGradient>
<linearGradient id="paint17_linear" x1="76.1789" y1="148.972" x2="83.5823" y2="176.436" gradientUnits="userSpaceOnUse">
<stop stop-color="#FF9263"/>
<stop offset="0.0001" stop-color="#FF4D00"/>
<stop offset="0.8125" stop-color="#FFF510"/>
<stop offset="1" stop-color="#FFA950"/>
</linearGradient>
<linearGradient id="paint18_linear" x1="263.237" y1="322.07" x2="286.639" y2="338.24" gradientUnits="userSpaceOnUse">
<stop stop-color="#FF9263"/>
<stop offset="0.0001" stop-color="#FF4D00"/>
<stop offset="0.8125" stop-color="#FFF510"/>
<stop offset="1" stop-color="#FFA950"/>
</linearGradient>
<linearGradient id="paint19_linear" x1="212.785" y1="323.808" x2="237.355" y2="338.139" gradientUnits="userSpaceOnUse">
<stop stop-color="#FF9263"/>
<stop offset="0.0001" stop-color="#FF4D00"/>
<stop offset="0.8125" stop-color="#FFF510"/>
<stop offset="1" stop-color="#FFA950"/>
</linearGradient>
<linearGradient id="paint20_linear" x1="176.242" y1="312.039" x2="172.429" y2="340.232" gradientUnits="userSpaceOnUse">
<stop stop-color="#FF9263"/>
<stop offset="0.0001" stop-color="#FF4D00"/>
<stop offset="0.8125" stop-color="#FFF510"/>
<stop offset="1" stop-color="#FFA950"/>
</linearGradient>
<linearGradient id="paint21_linear" x1="268.659" y1="47.3924" x2="293.601" y2="61.0668" gradientUnits="userSpaceOnUse">
<stop stop-color="#FF9263"/>
<stop offset="0.0001" stop-color="#FF4D00"/>
<stop offset="0.8125" stop-color="#FFF510"/>
<stop offset="1" stop-color="#FFA950"/>
</linearGradient>
<linearGradient id="paint22_linear" x1="230.733" y1="35.4622" x2="229.456" y2="63.8782" gradientUnits="userSpaceOnUse">
<stop stop-color="#FF9263"/>
<stop offset="0.0001" stop-color="#FF4D00"/>
<stop offset="0.8125" stop-color="#FFF510"/>
<stop offset="1" stop-color="#FFA950"/>
</linearGradient>
<linearGradient id="paint23_linear" x1="170.647" y1="43.211" x2="189.412" y2="64.5882" gradientUnits="userSpaceOnUse">
<stop stop-color="#FF9263"/>
<stop offset="0.0001" stop-color="#FF4D00"/>
<stop offset="0.8125" stop-color="#FFF510"/>
<stop offset="1" stop-color="#FFA950"/>
</linearGradient>
<linearGradient id="paint24_linear" x1="17925.2" y1="201003" x2="32491.2" y2="200802" gradientUnits="userSpaceOnUse">
<stop stop-color="#137753"/>
<stop offset="1" stop-color="#893976"/>
</linearGradient>
<linearGradient id="paint25_linear" x1="17728.7" y1="200768" x2="32173.8" y2="200571" gradientUnits="userSpaceOnUse">
<stop stop-color="#137753"/>
<stop offset="1" stop-color="#893976"/>
</linearGradient>
<linearGradient id="paint26_linear" x1="12847.5" y1="201513" x2="23295.8" y2="201410" gradientUnits="userSpaceOnUse">
<stop stop-color="#137753"/>
<stop offset="1" stop-color="#893976"/>
</linearGradient>
<linearGradient id="paint27_linear" x1="57444.8" y1="90111.7" x2="104107" y2="85474.7" gradientUnits="userSpaceOnUse">
<stop stop-color="#137753"/>
<stop offset="1" stop-color="#893976"/>
</linearGradient>
<linearGradient id="paint28_linear" x1="56059.4" y1="63328.2" x2="101179" y2="57100.1" gradientUnits="userSpaceOnUse">
<stop stop-color="#137753"/>
<stop offset="1" stop-color="#893976"/>
</linearGradient>
<linearGradient id="paint29_linear" x1="60525" y1="59901.2" x2="108989" y2="52266.3" gradientUnits="userSpaceOnUse">
<stop stop-color="#137753"/>
<stop offset="1" stop-color="#893976"/>
</linearGradient>
<linearGradient id="paint30_linear" x1="14857.3" y1="193974" x2="26884.5" y2="193833" gradientUnits="userSpaceOnUse">
<stop stop-color="#137753"/>
<stop offset="1" stop-color="#893976"/>
</linearGradient>
<linearGradient id="paint31_linear" x1="17834" y1="194091" x2="32359.5" y2="193885" gradientUnits="userSpaceOnUse">
<stop stop-color="#137753"/>
<stop offset="1" stop-color="#893976"/>
</linearGradient>
<linearGradient id="paint32_linear" x1="26060.4" y1="175919" x2="47404.1" y2="175427" gradientUnits="userSpaceOnUse">
<stop stop-color="#137753"/>
<stop offset="1" stop-color="#893976"/>
</linearGradient>
<linearGradient id="paint33_linear" x1="62105.1" y1="66328.3" x2="112172" y2="58984.2" gradientUnits="userSpaceOnUse">
<stop stop-color="#137753"/>
<stop offset="1" stop-color="#893976"/>
</linearGradient>
<linearGradient id="paint34_linear" x1="58563.4" y1="91502" x2="106309" y2="86723" gradientUnits="userSpaceOnUse">
<stop stop-color="#137753"/>
<stop offset="1" stop-color="#893976"/>
</linearGradient>
<linearGradient id="paint35_linear" x1="62057" y1="58362.7" x2="111785" y2="50088.6" gradientUnits="userSpaceOnUse">
<stop stop-color="#137753"/>
<stop offset="1" stop-color="#893976"/>
</linearGradient>
<linearGradient id="paint36_linear" x1="150.276" y1="112.93" x2="237.193" y2="270.144" gradientUnits="userSpaceOnUse">
<stop stop-color="#FF9263"/>
<stop offset="0.0001" stop-color="#FF4D00"/>
<stop offset="0.8125" stop-color="#FFF510"/>
<stop offset="1" stop-color="#FFA950"/>
</linearGradient>
<linearGradient id="paint37_linear" x1="244900" y1="304242" x2="211928" y2="253161" gradientUnits="userSpaceOnUse">
<stop stop-color="#20A58D"/>
<stop offset="1" stop-color="#FF9A03"/>
</linearGradient>
<linearGradient id="paint38_linear" x1="317.106" y1="404.165" x2="363" y2="342.392" gradientUnits="userSpaceOnUse">
<stop stop-color="white"/>
<stop offset="1" stop-color="#EFEFF4"/>
</linearGradient>
<linearGradient id="paint39_linear" x1="105669" y1="154587" x2="116575" y2="155050" gradientUnits="userSpaceOnUse">
<stop stop-color="white"/>
<stop offset="1" stop-color="#EFEFF4"/>
</linearGradient>
<linearGradient id="paint40_linear" x1="174747" y1="141101" x2="162793" y2="112604" gradientUnits="userSpaceOnUse">
<stop stop-color="#20A58D"/>
<stop offset="1" stop-color="#FF9A03"/>
</linearGradient>
<linearGradient id="paint41_linear" x1="125027" y1="20646.8" x2="127321" y2="16315.3" gradientUnits="userSpaceOnUse">
<stop stop-color="white"/>
<stop offset="1" stop-color="#EFEFF4"/>
</linearGradient>
<linearGradient id="paint42_linear" x1="25071.6" y1="30487.8" x2="23749.8" y2="28137.6" gradientUnits="userSpaceOnUse">
<stop stop-color="white"/>
<stop offset="1" stop-color="#EFEFF4"/>
</linearGradient>
<linearGradient id="paint43_linear" x1="30398.4" y1="27490.5" x2="30733.5" y2="25681.3" gradientUnits="userSpaceOnUse">
<stop stop-color="white"/>
<stop offset="1" stop-color="#EFEFF4"/>
</linearGradient>
<linearGradient id="paint44_linear" x1="7426.8" y1="8765.18" x2="7563.57" y2="8215.85" gradientUnits="userSpaceOnUse">
<stop stop-color="white"/>
<stop offset="1" stop-color="#EFEFF4"/>
</linearGradient>
</defs>
</svg>
