<svg width="467" height="459" viewBox="0 0 467 459" fill="none" xmlns="http://www.w3.org/2000/svg">
<path d="M111.343 29.2198C95.7538 51.0446 113.387 86.8783 90.4232 103.175C68.0699 119.045 41.0961 92.366 20.0435 106.002C-11.186 126.23 -6.51147 220.339 38.218 279.251C51.669 296.969 62.9912 303.926 67.8327 323.854C78.2191 366.643 39.8706 391.629 46.8897 412.813C62.7082 460.508 313.246 503.029 415.444 361.265C463.176 295.048 471.226 198.794 429.977 125.196C355.44 -7.80173 146.323 -19.7507 111.343 29.2198Z" fill="#F4F7FA"/>
<g opacity="0.3">
<path opacity="0.3" d="M219.724 14.781L436.011 8.13978C452.767 7.62602 466.666 22.6149 466.949 41.6223C467.231 60.6296 453.775 76.26 437.024 76.5299L220.691 80.0182C205.545 80.262 193.129 65.9472 192.864 48.0393C192.598 30.1348 204.587 15.2457 219.724 14.781Z" fill="url(#paint0_linear)"/>
<path opacity="0.3" d="M127.005 49.4203C127.265 66.9715 139.26 81.0082 153.882 80.7709C168.607 80.532 180.396 65.9374 180.133 48.1752C179.869 30.413 167.654 16.3796 152.935 16.8312C138.322 17.2795 126.745 31.8692 127.005 49.4203Z" fill="url(#paint1_linear)"/>
</g>
<g opacity="0.5">
<path opacity="0.5" d="M83.558 102.882L246.371 100.828C258.839 100.665 269.171 112.347 269.387 126.907C269.602 141.469 259.618 153.28 247.148 153.295L84.3073 153.474C72.7756 153.487 63.3038 142.225 63.0977 128.321C62.8915 114.417 72.0279 103.027 83.558 102.882Z" fill="url(#paint2_linear)"/>
<path opacity="0.5" d="M12.6809 128.542C12.8837 142.215 22.0921 153.29 33.2966 153.277C44.5648 153.264 53.5768 142.063 53.3723 128.26C53.1678 114.457 43.8269 103.39 32.5603 103.526C21.3574 103.667 12.478 114.867 12.6809 128.542Z" fill="url(#paint3_linear)"/>
</g>
<path d="M315.118 328.997C317.201 336.184 321.465 346.329 325.917 357.957L203.76 343.595C226.475 311.295 255.059 278.639 243.961 209.056C238.753 176.405 217.902 115.876 241.255 85.4565C267.859 50.8009 295.412 76.1877 311.61 48.1781C336.904 4.40086 385.809 -17.6956 422.691 17.2611C459.088 51.7613 435.093 135.914 354.314 213.42C302.66 275.586 304.244 291.461 315.118 328.997Z" fill="url(#paint4_linear)"/>
<g style="mix-blend-mode:multiply" opacity="0.3">
<g style="mix-blend-mode:soft-light" opacity="0.6">
<g style="mix-blend-mode:soft-light" opacity="0.6">
<path d="M263.587 343.454C266.859 327.783 270.742 313.169 274.852 297.694L276.222 292.535C278.661 285.206 280.865 277.914 282.999 270.861C287.812 254.937 292.361 239.894 299.38 224.511C299.684 223.583 299.933 222.672 300.198 221.705C301.139 218.253 302.111 214.684 305.03 211.803L305.113 211.674C335.942 128.627 356.728 88.5761 421.5 17.627L420.973 17.1459C356.158 88.1327 335.335 128.247 304.475 211.351C301.463 214.359 300.427 218.161 299.512 221.517C299.252 222.476 299.005 223.38 298.722 224.253C291.696 239.642 287.143 254.707 282.32 270.654C280.193 277.703 277.985 284.991 275.544 292.33L274.168 297.512C270.055 312.994 266.172 327.618 262.893 343.308L263.587 343.454Z" fill="url(#paint5_linear)" style="mix-blend-mode:multiply"/>
</g>
<g style="mix-blend-mode:soft-light" opacity="0.6">
<path d="M284.553 268.112C296.063 228.026 303.943 179.227 294.805 141.375C284.91 100.382 272.13 68.4442 272 68.1268V69.6268C275.511 76.1088 283.616 99.1818 293.5 140.127C302.617 177.893 295.34 227.973 283.872 267.915L284.553 268.112Z" fill="url(#paint6_linear)" style="mix-blend-mode:multiply"/>
</g>
<g style="mix-blend-mode:soft-light" opacity="0.6">
<path d="M353.5 105.627C368.085 63.7622 381.858 32.7571 383.709 17.2103C384.062 14.2357 384.295 12.2723 384.406 11.9074L383.722 11.6996C383.599 12.1087 383.413 13.663 383 17.1268C381.158 32.654 367.393 63.6019 352.833 105.391L353.5 105.627Z" fill="url(#paint7_linear)" style="mix-blend-mode:multiply"/>
</g>
<g style="mix-blend-mode:soft-light" opacity="0.6">
<path d="M324.765 164.415C348.995 131.464 433.066 118.949 433.912 118.828L433.811 118.123C432.961 118.245 348.601 130.803 324.187 163.993L324.765 164.415Z" fill="url(#paint8_linear)" style="mix-blend-mode:multiply"/>
</g>
</g>
</g>
<g filter="url(#filter0_d)">
<path d="M352.146 195.117C344.888 251.158 319.996 229.477 294.39 232.095C260.684 270.381 253.423 308.733 292.505 347.183L341.262 345.646C359.139 346.913 380.642 343.932 382.248 320.122C384.066 293.188 379.734 275.435 411.505 265.839C443.276 256.243 459.08 233.77 450.05 205.042C440.547 174.806 475.31 139.641 455.495 117.802C420.972 79.7349 359.702 136.763 352.146 195.117Z" fill="#34D2A5"/>
</g>
<g opacity="0.5" filter="url(#filter1_d)">
<g style="mix-blend-mode:soft-light" opacity="0.6">
<path d="M328.438 294.145C351.051 274.577 371.206 252.339 388.462 227.918C405.858 203.292 420.022 176.827 430.563 149.254C436.58 133.527 441.414 117.373 445.025 100.926L444.311 100.763C440.71 117.174 435.886 133.293 429.88 148.986C419.363 176.501 405.227 202.912 387.865 227.489C370.643 251.863 350.529 274.059 327.962 293.59L328.438 294.145Z" fill="white"/>
</g>
<g style="mix-blend-mode:soft-light" opacity="0.6">
<path d="M376.392 331.032L376.798 330.425C368.431 324.844 358.347 320.075 346.828 316.246C341.485 314.461 336.025 313.046 330.486 312.013L330.354 312.732C335.859 313.757 341.287 315.163 346.598 316.94C358.056 320.747 368.081 325.489 376.392 331.032Z" fill="#34D2A5"/>
</g>
<g style="mix-blend-mode:soft-light" opacity="0.6">
<path d="M377.25 242.825C404.811 221.797 457.229 230.179 457.749 230.269L457.869 229.549C457.337 229.464 404.615 221.024 376.803 242.244L377.25 242.825Z" fill="#34D2A5"/>
</g>
<g style="mix-blend-mode:soft-light" opacity="0.8">
<path d="M413.5 185.627C425.397 148.309 409.4 111.276 409.155 110.8L408.5 111.127C408.737 111.6 426.21 146.687 414.404 183.718L413.5 185.627Z" fill="white"/>
</g>
</g>
<path d="M7.81796 416.705L447.597 412.875V424.207C447.597 427.283 445.679 429.899 443.081 430.364L318.732 452.681C317.26 452.946 315.76 453.016 314.27 452.89L12.5988 427.446C9.90564 427.219 7.81955 424.595 7.81955 421.435L7.81796 416.705Z" fill="#97A6B7"/>
<path d="M149.382 398.333L442.747 419.066C447.998 419.436 452.265 415.494 452.265 410.26V200.536C452.259 198.018 451.253 195.604 449.468 193.827C447.683 192.05 445.266 191.054 442.747 191.058H149.382C145.058 191.058 141.56 194.893 141.56 199.627V389.213C141.566 393.944 145.064 398.028 149.382 398.333Z" fill="#97A6B7"/>
<path d="M144.711 398.333L438.076 419.066C443.326 419.436 447.594 415.494 447.594 410.26V200.536C447.587 198.018 446.581 195.604 444.797 193.827C443.012 192.05 440.595 191.054 438.076 191.058H144.711C140.387 191.058 136.889 194.893 136.889 199.627V389.213C136.889 393.944 140.384 398.028 144.711 398.333Z" fill="#97A6B7"/>
<path d="M153.851 384.967L427.091 402.976C431.363 403.257 434.835 400.021 434.835 395.747V212.135C434.831 210.08 434.015 208.109 432.564 206.654C431.114 205.198 429.146 204.375 427.091 204.365L153.851 203.234C150.282 203.22 147.396 206.363 147.396 210.255V377.494C147.396 381.39 150.282 384.733 153.851 384.967Z" fill="white"/>
<path d="M281.035 196.794C281.035 198.743 282.544 200.327 284.409 200.333C286.274 200.34 287.791 198.759 287.791 196.807C287.791 194.856 286.276 193.268 284.409 193.268C282.542 193.268 281.035 194.846 281.035 196.794Z" fill="white"/>
<g style="mix-blend-mode:soft-light" opacity="0.48">
<path d="M215.394 340.813C238.01 328.645 255.792 344.064 272.954 328.851C283.358 319.628 278.25 312.749 291.053 298.966C305.234 283.701 314.465 288.832 328.716 275.093C346.735 257.72 337.715 244.204 353.244 231.735C372.073 216.603 392.379 230.607 410.304 216.096C418.034 209.838 422.275 200.738 424.491 191.063H442.029C443.504 191.063 444.919 191.649 445.962 192.692C447.006 193.735 447.592 195.15 447.592 196.626V414.023C447.592 417.094 445.097 419.41 442.029 419.19L143.037 397.968C141.565 397.863 140.269 397.007 139.438 395.765C161.325 394.967 174.779 387.63 183.366 380.045C200.177 365.202 197.262 350.569 215.394 340.813Z" fill="white"/>
</g>
<path d="M152.031 397.393L447.597 419.215L318.726 442.342C317.254 442.607 315.754 442.677 314.264 442.552L7.80975 416.7L147.321 397.536C148.882 397.323 150.461 397.275 152.031 397.393Z" fill="#D8DEE8"/>
<g style="mix-blend-mode:multiply" opacity="0.3">
<path d="M404.469 419.765L158.403 401.325L82.2456 411.702L326.193 431.413L404.469 419.765Z" fill="#D8DEE8"/>
</g>
<path d="M154.597 255.443L427.868 259.607V209.934H154.597V255.443Z" fill="#D8DEE8"/>
<path d="M241.248 344.043L414.379 351.6V268.257L241.248 265.145V344.043Z" fill="#D8DEE8"/>
<path d="M166.009 286.883L231.134 288.556V264.964L166.009 263.794V286.883Z" fill="#D8DEE8"/>
<path d="M166.009 340.759L231.134 343.601V296.911L166.009 295.061V340.759Z" fill="#D8DEE8"/>
<path d="M166.009 351.342L414.379 363.06V382.853L166.009 369.621V351.342Z" fill="#D8DEE8"/>
<path d="M332.87 418.614C328.35 424.545 329.529 433.607 335.509 438.823C341.49 444.039 350.071 443.463 354.608 437.514C359.146 431.565 357.94 422.479 351.933 417.274C345.927 412.07 337.391 412.682 332.87 418.614ZM349.932 433.446C347.346 436.841 342.455 437.177 339.034 434.199C335.613 431.221 334.943 426.046 337.522 422.657C340.101 419.269 344.988 418.925 348.411 421.895C351.834 424.865 352.521 430.05 349.932 433.446Z" fill="url(#paint9_linear)"/>
<path d="M361.996 356.793C357.482 362.716 358.683 371.72 364.682 376.872C370.682 382.025 379.275 381.406 383.806 375.462C388.336 369.518 387.109 360.494 381.082 355.352C375.054 350.21 366.502 350.869 361.996 356.793ZM379.115 371.447C376.53 374.837 371.633 375.199 368.2 372.255C364.768 369.312 364.084 364.173 366.664 360.787C369.244 357.402 374.131 357.036 377.564 359.969C380.997 362.903 381.699 368.057 379.115 371.447Z" fill="url(#paint10_linear)"/>
<path d="M437.145 336.335C432.605 342.29 433.873 351.329 439.972 356.491C446.072 361.653 454.775 361.016 459.33 355.039C463.885 349.063 462.594 340.003 456.465 334.851C450.336 329.699 441.684 330.378 437.145 336.335ZM454.557 351.015C451.959 354.424 447.001 354.797 443.51 351.847C440.018 348.897 439.298 343.74 441.891 340.337C444.485 336.934 449.434 336.554 452.926 339.493C456.417 342.431 457.155 347.605 454.557 351.015Z" fill="url(#paint11_linear)"/>
<path d="M375.321 276.039C370.826 281.929 372.032 290.836 378.016 295.892C383.999 300.948 392.566 300.269 397.075 294.346C401.585 288.423 400.348 279.506 394.343 274.462C388.338 269.417 379.814 270.14 375.321 276.039ZM392.396 290.419C389.824 293.795 384.943 294.182 381.519 291.301C378.094 288.42 377.409 283.333 379.976 279.964C382.543 276.595 387.415 276.201 390.84 279.071C394.264 281.94 394.971 287.037 392.396 290.419Z" fill="url(#paint12_linear)"/>
<path d="M279.142 324.677L275.665 329.24L312.742 361.25L337.067 420.782L342.408 418.706L317.433 357.688L279.142 324.677Z" fill="url(#paint13_linear)"/>
<path d="M299.777 297.599L296.3 302.162L363.58 359.773L367.093 355.162L299.777 297.599Z" fill="url(#paint14_linear)"/>
<path d="M320.414 270.52L316.937 275.083L361.214 312.691L413.416 320.12L437.75 340.653L441.284 336.016L415.548 314.332L363.346 306.935L320.414 270.52Z" fill="url(#paint15_linear)"/>
<path d="M341.051 243.442L337.573 248.005L376.648 280.923L380.146 276.332L341.051 243.442Z" fill="url(#paint16_linear)"/>
<path d="M128.261 25.293C132.559 19.6531 131.591 11.3447 126.11 6.77977C120.628 2.21486 112.709 3.09839 108.424 8.72026C104.139 14.3421 105.085 22.6277 110.543 27.2089C116.001 31.7902 123.961 30.9345 128.261 25.293ZM112.668 12.2675C113.242 11.5074 113.964 10.8727 114.792 10.4024C115.619 9.93203 116.534 9.63602 117.481 9.53257C118.427 9.42911 119.384 9.5204 120.294 9.8008C121.204 10.0812 122.046 10.5448 122.77 11.1631C125.897 13.7695 126.447 18.5111 123.994 21.7278C121.541 24.9445 117.004 25.437 113.883 22.824C110.761 20.2111 110.221 15.4793 112.668 12.2707V12.2675Z" fill="url(#paint17_linear)"/>
<path d="M99.2962 83.503C103.601 77.8549 102.652 69.4958 97.1904 64.8752C91.7289 60.2547 83.8164 61.0973 79.5198 66.729C75.2233 72.3607 76.1559 80.7002 81.5961 85.3306C87.0364 89.9609 94.9914 89.151 99.2962 83.503ZM83.7526 70.3188C86.2068 67.102 90.7292 66.6276 93.8412 69.2634C96.9532 71.8993 97.4964 76.672 95.0405 79.8985C92.5846 83.125 88.0541 83.5897 84.9421 80.944C81.8301 78.2983 81.3049 73.5355 83.7558 70.3188H83.7526Z" fill="url(#paint18_linear)"/>
<path d="M29.8687 104.304C34.1506 98.6849 33.2572 90.3536 27.884 85.7396C22.5109 81.1256 14.69 81.9486 10.4212 87.5508C6.15246 93.153 7.02453 101.458 12.3764 106.089C17.7283 110.719 25.5869 109.924 29.8687 104.304ZM14.582 91.1357C17.0215 87.9353 21.4948 87.4723 24.5626 90.1065C27.6305 92.7407 28.136 97.4938 25.6932 100.701C23.2504 103.908 18.769 104.364 15.7126 101.723C12.6562 99.0825 12.1441 94.336 14.582 91.134V91.1357Z" fill="url(#paint19_linear)"/>
<path d="M85.2693 159.953C89.5921 154.28 88.6497 145.831 83.1751 141.124C77.7005 136.417 69.7667 137.207 65.457 142.861C61.1474 148.516 62.0685 156.949 67.5202 161.666C72.9719 166.383 80.9466 165.627 85.2693 159.953ZM69.698 146.52C72.1522 143.289 76.6975 142.845 79.8177 145.538C82.9378 148.231 83.4745 153.05 81.0088 156.285C78.5431 159.519 73.9962 159.961 70.8793 157.266C67.7624 154.572 67.2355 149.75 69.7012 146.52H69.698Z" fill="url(#paint20_linear)"/>
<path d="M177.161 111.951L180.543 107.512L145.511 78.0398L123.556 23.3525L118.565 25.4583L141.035 81.515L177.161 111.951Z" fill="url(#paint21_linear)"/>
<path d="M157.09 138.287L160.472 133.849L97.8841 80.7607L94.5349 85.1555L157.09 138.287Z" fill="url(#paint22_linear)"/>
<path d="M137.02 164.624L140.402 160.185L99.1882 124.942L51.0538 118.919L29.4417 100.316L26.1105 104.686L48.9513 124.376L97.0841 130.427L137.02 164.624Z" fill="url(#paint23_linear)"/>
<path d="M116.949 190.96L120.331 186.523L84.1337 155.316L80.7713 159.729L116.949 190.96Z" fill="url(#paint24_linear)"/>
<path d="M105.121 220.255C105.121 292.63 161.714 349.562 234.051 347.341C309.326 345.029 372.634 280.018 372.634 202.213C372.634 124.409 309.324 67.9413 234.051 75.7785C161.714 83.3164 105.121 147.881 105.121 220.255Z" fill="url(#paint25_linear)"/>
<path d="M85.5719 214.01C85.5719 286.384 142.165 343.316 214.502 341.096C289.779 338.784 353.085 273.773 353.085 195.968C353.085 118.163 289.777 61.6961 214.502 69.5333C142.169 77.076 85.5719 141.641 85.5719 214.01Z" fill="url(#paint26_linear)"/>
<path d="M91.2528 213.632C91.2528 282.819 145.41 337.153 214.499 334.915C286.279 332.591 346.537 270.548 346.537 196.421C346.537 122.295 286.279 68.3766 214.502 75.7295C145.402 82.8092 91.2528 144.445 91.2528 213.632Z" fill="url(#paint27_linear)"/>
<path d="M95.3186 213.356C95.3186 280.26 147.715 332.739 214.499 330.495C283.787 328.169 341.889 268.246 341.889 196.732C341.889 125.219 283.787 73.1362 214.502 80.1488C147.715 86.9111 95.3186 146.453 95.3186 213.356Z" fill="url(#paint28_linear)"/>
<path style="mix-blend-mode:multiply" opacity="0.3" d="M236.067 229.742C232.04 189.972 195.49 173.131 200.259 136.552C203.204 114.006 220.289 95.0052 239.352 80.1685C297.176 86.2321 341.889 134.111 341.889 196.734C341.889 268.247 283.787 328.17 214.5 330.497C207.923 330.716 201.339 330.395 194.814 329.537C222.329 302.155 239.525 263.913 236.067 229.742Z" fill="url(#paint29_linear)"/>
<path d="M55.7218 441.673C55.4944 440.415 51.4302 439.276 49.4177 440.961C48.4196 441.797 47.7308 443.494 48.3084 444.26C48.5194 444.539 47.6539 445.029 48.4834 445.039C51.2126 445.071 55.9493 442.923 55.7218 441.673Z" fill="url(#paint30_linear)"/>
<path d="M51.2779 441.679L47.0632 441.889C48.5226 439.235 46.7671 432.013 46.7671 432.013L51.3188 432.145C51.3188 432.145 51.2076 434.243 50.9295 437.357C50.8346 438.423 51.0096 440.029 51.2779 441.679Z" fill="url(#paint31_linear)"/>
<path d="M51.8341 441.616C51.8341 441.616 46.8012 440.457 46.258 441.452C45.7148 442.447 45.2911 445.124 48.4832 445.037C51.6754 444.95 52.1172 442.462 51.8341 441.616Z" fill="url(#paint32_linear)"/>
<path d="M109.082 450.799C108.68 449.585 104.501 449.026 102.74 450.976C101.868 451.945 101.432 453.722 102.104 454.399C102.351 454.646 101.567 455.251 102.385 455.145C105.101 454.793 109.483 452.005 109.082 450.799Z" fill="url(#paint33_linear)"/>
<path d="M104.139 451.969L99.998 452.787C101.062 449.95 98.2882 443.055 98.2882 443.055L102.812 442.535C102.812 442.535 103.002 444.626 103.174 447.748C103.233 448.81 103.637 450.374 104.139 451.969Z" fill="url(#paint34_linear)"/>
<path d="M105.224 451.287C105.224 451.287 100.08 450.844 99.6807 451.909C99.2814 452.974 99.2373 455.672 102.385 455.145C105.533 454.618 105.623 452.086 105.224 451.287Z" fill="url(#paint35_linear)"/>
<path d="M67.1733 306.19C66.0455 325.477 64.4338 345.511 62.3385 366.29C59.8744 390.341 56.8802 413.31 53.5228 435.146C49.3833 436.565 45.5579 435.146 45.5579 435.146C45.5579 435.146 40.7198 427.221 37.0253 406.153C34.6562 392.637 34.4925 392.807 34.4663 390.446C34.3322 378.551 38.506 375.107 39.3012 364.474C40.0375 354.637 36.9059 351.69 35.0357 340.615C33.5959 332.107 33.0576 319.69 37.5947 303.474L67.1733 306.19Z" fill="url(#paint36_linear)"/>
<path style="mix-blend-mode:multiply" opacity="0.3" d="M67.1733 306.19C66.0455 325.477 64.4338 345.511 62.3385 366.29C59.8744 390.341 56.8802 413.31 53.5228 435.146C49.3833 436.565 45.5579 435.146 45.5579 435.146C45.6103 433.126 45.7526 430.074 46.1748 426.401C47.2939 416.643 49.079 413.866 49.2606 407.878C49.4962 400.219 46.7229 399.983 46.1748 392.442C45.324 380.752 51.7377 377.98 52.348 367.736C52.9894 356.921 46.2173 353.362 41.029 339.952C37.9661 332.035 35.2484 320.155 37.5931 303.466L67.1733 306.19Z" fill="url(#paint37_linear)"/>
<path d="M87.9362 305.586C101.419 351.105 106.81 398.637 103.863 446.019L98.4633 447.529C87.9918 436.566 84.2482 426.498 82.8199 419.14C80.7059 408.258 83.8916 404.568 81.1134 392.262C80.4753 389.43 79.5754 386.39 69.1693 365.987C59.2362 346.517 57.2008 343.686 55.5172 336.7C53.1169 326.719 53.7501 317.866 54.6647 311.935L87.9362 305.586Z" fill="url(#paint38_linear)"/>
<path d="M132.6 264.327L150.376 222.692C150.584 222.203 150.684 221.674 150.668 221.143C150.651 220.611 150.52 220.09 150.281 219.615C150.043 219.139 149.704 218.722 149.288 218.391C148.872 218.06 148.389 217.823 147.872 217.698L115.313 209.79C114.461 209.583 113.563 209.689 112.783 210.088C112.002 210.486 111.39 211.152 111.059 211.963L94.71 251.981C94.518 252.452 94.4261 252.957 94.4404 253.466C94.4546 253.974 94.5746 254.474 94.7927 254.934C95.0109 255.393 95.3223 255.802 95.7072 256.135C96.0922 256.467 96.5421 256.716 97.0285 256.865L128.16 266.39C129.024 266.655 129.956 266.591 130.776 266.21C131.595 265.829 132.245 265.159 132.6 264.327Z" fill="#26264F"/>
<path d="M131.797 262.324L148.401 223.433C148.596 222.976 148.689 222.483 148.673 221.986C148.658 221.49 148.535 221.003 148.312 220.559C148.09 220.116 147.773 219.726 147.385 219.417C146.996 219.107 146.545 218.887 146.063 218.77L115.65 211.392C114.855 211.199 114.016 211.298 113.288 211.67C112.559 212.042 111.988 212.664 111.679 213.421L96.4067 250.799C96.2272 251.239 96.1413 251.712 96.1546 252.186C96.1678 252.661 96.2798 253.128 96.4834 253.557C96.6871 253.987 96.9779 254.369 97.3374 254.679C97.6969 254.99 98.1171 255.222 98.5713 255.361L127.653 264.258C128.46 264.505 129.331 264.444 130.096 264.087C130.861 263.73 131.467 263.102 131.797 262.324Z" fill="url(#paint39_linear)"/>
<path d="M142.046 250.891L142.579 245.982L145.406 240.593C145.791 239.859 145.992 239.043 145.992 238.214V232.864L142.579 240.757C142.579 240.757 140.339 238.729 139.487 238.302C138.634 237.875 138.739 239.583 139.379 240.223C140.019 240.863 139.052 246.089 139.706 246.622L139.493 249.823L142.046 250.891Z" fill="url(#paint40_linear)"/>
<path d="M114.956 219.642C112.302 213.151 106.611 209.419 103.65 207.483C96.6602 202.902 92.1853 203.74 76.1329 201.297C54.74 198.041 52.1794 194.957 44.9901 197.457C35.5445 200.741 30.6115 209.314 28.3519 213.243C16.9544 233.04 30.2793 243.116 26.8581 282.569C25.4608 298.682 21.8793 312.682 30.4839 320.965C32.2967 322.707 34.3239 323.62 38.3767 325.443C54.4537 332.676 68.8667 331.43 77.6267 330.562C87.2637 329.609 92.1362 329.062 94.6903 325.654C98.7725 320.214 94.5709 313.301 93.8379 301.336C93.311 292.746 95.2646 285.939 99.1701 272.326C108.251 240.68 120.041 232.077 114.956 219.642Z" fill="url(#paint41_linear)"/>
<path d="M79.1469 189.621C80.1286 186.153 78.4188 182.939 78.0441 182.247C76.4717 179.348 76.0692 178.952 75.3199 178.45L74.2776 177.807L74.1533 177.759C73.4857 177.522 71.2082 177.453 70.7435 177.551C69.271 177.866 67.6986 183.875 68.1469 192.372C68.0847 192.699 68.0258 193.026 67.9702 193.354C67.7379 194.695 67.5513 196.01 67.4106 197.297C67.2732 198.525 65.529 198.498 64.2937 198.419C59.2821 198.092 56.8279 198.525 56.6152 199.272C56.216 200.67 62.1618 205.245 69.5033 206.274C79.3563 206.346 87.3719 205.293 86.5096 203.746C86.1284 203.058 78.4924 201.063 76.3458 199.085C74.3824 197.275 74.546 195.405 74.3824 194.067C74.9746 193.756 78.4302 192.179 79.1469 189.621Z" fill="url(#paint42_linear)"/>
<path d="M77.3354 175.397C77.3256 178.029 76.0854 180.84 75.4538 181.287C75.0823 181.58 74.7607 181.931 74.5016 182.327C74.4376 182.424 74.387 182.529 74.351 182.64C73.7735 184.297 76.411 186.249 75.9021 186.992C75.534 187.532 73.7407 186.811 73.528 187.277C73.3268 187.714 74.8174 188.62 74.5883 189.145C74.4247 189.541 73.5002 189.178 72.921 189.785C72.6331 190.088 72.7182 190.327 72.4122 191.258C72.2562 191.746 72.0551 192.219 71.8117 192.67C70.902 194.216 68.3251 194.78 67.8293 194.162C67.6919 193.988 67.8097 193.844 67.6657 193.265C67.5511 192.859 67.3815 192.47 67.1617 192.11C66.6283 191.225 65.3423 190.592 64.0448 189.656C61.6413 187.925 60.9868 186.449 60.7905 185.952C60.7218 185.773 60.6776 185.639 60.6465 185.542C60.0215 183.604 60.0182 180.753 60.8903 178.998C62.3514 176.063 65.6483 177.455 68.3463 174.546C71.455 171.19 69.6045 166.604 71.2914 166.097C73.1599 165.535 77.3518 170.527 77.3354 175.397Z" fill="#2F2E41"/>
<path d="M74.9566 186.375C74.3119 185.489 73.178 186.323 73.1715 187.468C73.1649 188.614 74.2759 189.808 75.3541 189.582C76.4324 189.356 75.8254 187.568 74.9566 186.375Z" fill="url(#paint43_linear)"/>
<path d="M74.4331 184.458L75.9302 186.403C75.9302 186.403 77.5434 188.789 78.4858 187.483C79.2548 186.414 79.4544 186.439 79.5019 186.483C79.5019 186.483 79.5134 186.504 79.515 186.504C79.5166 186.504 79.4021 185.973 79.2892 185.508C79.872 186.343 80.3049 187.273 80.5687 188.257C80.8959 189.469 81.2379 190.767 80.554 192.02C80.5147 192.092 79.7604 193.421 78.3533 193.741C78.3533 193.741 77.8003 193.867 75.4622 193.457C75.4622 193.457 78.0179 191.603 78.0572 191.166C78.1635 189.968 76.5012 189.322 75.2675 186.866C74.8863 186.103 74.6058 185.293 74.4331 184.458Z" fill="#2F2E41"/>
<path style="mix-blend-mode:multiply" opacity="0.3" d="M69.3069 319.258C72.1424 313.612 65.1952 306.107 69.7339 297.497C73.5887 290.187 80.5915 291.825 83.8049 285.124C87.6941 277.032 79.2367 270.985 79.5394 258.674C79.901 243.949 92.565 229.223 100.018 230.517C104.84 231.353 105.458 238.546 108.853 246.421C105.851 253.005 102.343 261.251 99.1653 272.326C95.2598 285.939 93.3062 292.746 93.833 301.336C94.566 313.301 98.7677 320.214 94.6854 325.654C92.1314 329.059 87.2589 329.605 77.6219 330.562C68.8618 331.43 54.4488 332.676 38.3719 325.443C36.3365 324.528 34.8132 323.843 33.5713 323.165C58.693 326.937 67.0588 323.736 69.3069 319.258Z" fill="url(#paint44_linear)"/>
<path d="M143.001 249.932L138.309 247.905C135.665 250.61 132.293 253.239 129.456 252.385C125.228 251.112 126.285 243.333 121.137 229.667C115.303 214.182 108.686 210.196 105.352 208.763C103.49 207.96 102.204 207.425 100.659 207.803C93.5482 209.54 91.1987 228.07 93.1932 241.933C94.3173 249.744 96.5212 265.06 109.085 272.33C110.869 273.362 120.702 279.038 130.416 274.57C138.726 270.744 143.859 260.929 143.001 249.932Z" fill="url(#paint45_linear)"/>
<path d="M149.065 266.781C149.269 268.164 149.962 269.427 151.017 270.339C152.072 271.251 153.418 271.751 154.81 271.747H155.568C189.762 267.127 215.315 257.889 233.698 243.107C242.722 235.852 250.367 227.018 256.264 217.03C261.534 208.037 265.723 198.446 268.742 188.46L279.658 190.03C280.704 190.175 281.77 190.032 282.743 189.617C283.715 189.202 284.558 188.531 285.182 187.674C285.806 186.817 286.188 185.807 286.287 184.75C286.387 183.693 286.2 182.628 285.747 181.669L267.364 143.306C266.966 142.498 266.391 141.792 265.683 141.24C264.974 140.687 264.15 140.304 263.273 140.118C262.402 139.94 261.503 139.964 260.643 140.188C259.782 140.412 258.984 140.831 258.31 141.412L226.138 169.359C225.32 170.079 224.715 171.012 224.391 172.055C224.066 173.098 224.035 174.211 224.3 175.271C224.565 176.334 225.125 177.3 225.914 178.056C226.703 178.812 227.689 179.328 228.758 179.544L238.432 181.6C235.891 195.108 230.275 207.843 222.025 218.809C208.949 236.154 191.094 246.525 178.364 252.091C172.649 254.626 166.768 256.764 160.761 258.489C158.463 259.136 156.717 259.551 155.614 259.806L154.281 260.106H153.982C153.223 260.219 152.493 260.481 151.835 260.878C151.177 261.275 150.603 261.798 150.146 262.418C149.689 263.038 149.359 263.743 149.173 264.491C148.988 265.24 148.951 266.018 149.065 266.781ZM171.056 262.161C174.067 261.076 177.422 259.852 181.006 258.189C194.403 252.253 213.316 241.305 227.287 222.781C236.892 210.049 243.208 195.122 245.671 179.336C245.802 178.467 245.6 177.581 245.105 176.856C244.61 176.131 243.859 175.622 243.005 175.433L231.998 173.123L261.871 147.278L278.784 183.078L266.789 181.346H266.306C265.59 181.336 264.888 181.554 264.302 181.969C263.716 182.384 263.276 182.974 263.043 183.656C260.104 194.097 255.849 204.117 250.382 213.473C244.905 222.773 237.797 230.997 229.401 237.748C215.062 249.273 195.92 257.334 171.056 262.254V262.161Z" fill="url(#paint46_linear)"/>
<path d="M251.716 176.904C242.536 234.104 187.455 258.399 161.061 263.397C240.93 255.093 268.547 205.35 272.372 181.517L288.169 183.142L272.372 140L236.799 171.137L251.716 176.904Z" fill="url(#paint47_linear)" stroke="#FFDB44" stroke-width="3" stroke-linecap="round" stroke-linejoin="round"/>
<defs>
<filter id="filter0_d" x="262.045" y="105.481" width="203.663" height="249.701" filterUnits="userSpaceOnUse" color-interpolation-filters="sRGB">
<feFlood flood-opacity="0" result="BackgroundImageFix"/>
<feColorMatrix in="SourceAlpha" type="matrix" values="0 0 0 0 0 0 0 0 0 0 0 0 0 0 0 0 0 0 127 0"/>
<feOffset dy="4"/>
<feGaussianBlur stdDeviation="2"/>
<feColorMatrix type="matrix" values="0 0 0 0 0 0 0 0 0 0 0 0 0 0 0 0 0 0 0.25 0"/>
<feBlend mode="normal" in2="BackgroundImageFix" result="effect1_dropShadow"/>
<feBlend mode="normal" in="SourceGraphic" in2="effect1_dropShadow" result="shape"/>
</filter>
<filter id="filter1_d" x="323.962" y="100.763" width="137.907" height="238.269" filterUnits="userSpaceOnUse" color-interpolation-filters="sRGB">
<feFlood flood-opacity="0" result="BackgroundImageFix"/>
<feColorMatrix in="SourceAlpha" type="matrix" values="0 0 0 0 0 0 0 0 0 0 0 0 0 0 0 0 0 0 127 0"/>
<feOffset dy="4"/>
<feGaussianBlur stdDeviation="2"/>
<feColorMatrix type="matrix" values="0 0 0 0 0 0 0 0 0 0 0 0 0 0 0 0 0 0 0.25 0"/>
<feBlend mode="normal" in2="BackgroundImageFix" result="effect1_dropShadow"/>
<feBlend mode="normal" in="SourceGraphic" in2="effect1_dropShadow" result="shape"/>
</filter>
<linearGradient id="paint0_linear" x1="373.053" y1="26.5559" x2="104.758" y2="142.602" gradientUnits="userSpaceOnUse">
<stop stop-color="#31EFB8"/>
<stop offset="1" stop-color="#FB6FBB"/>
</linearGradient>
<linearGradient id="paint1_linear" x1="-76413.6" y1="17629.6" x2="-163643" y2="47709.5" gradientUnits="userSpaceOnUse">
<stop stop-color="#5ECCAC"/>
<stop offset="1" stop-color="#FB6FBB"/>
</linearGradient>
<linearGradient id="paint2_linear" x1="-411510" y1="65226.3" x2="-491454" y2="199671" gradientUnits="userSpaceOnUse">
<stop stop-color="#31EFB8"/>
<stop offset="1" stop-color="#9571F6"/>
</linearGradient>
<linearGradient id="paint3_linear" x1="-86299.9" y1="42735.9" x2="-137253" y2="60881.9" gradientUnits="userSpaceOnUse">
<stop stop-color="#31EFB8"/>
<stop offset="1" stop-color="#9571F6"/>
</linearGradient>
<linearGradient id="paint4_linear" x1="322" y1="-41.873" x2="467.835" y2="291.304" gradientUnits="userSpaceOnUse">
<stop stop-color="#FF9263"/>
<stop offset="0.0001" stop-color="#FF4D00"/>
<stop offset="0.8125" stop-color="#FFF510"/>
<stop offset="1" stop-color="#FFA950"/>
</linearGradient>
<linearGradient id="paint5_linear" x1="-399407" y1="623138" x2="-527330" y2="894355" gradientUnits="userSpaceOnUse">
<stop stop-color="#FCB148"/>
<stop offset="0.05" stop-color="#FDBA46"/>
<stop offset="0.14" stop-color="#FFC244"/>
<stop offset="0.32" stop-color="#FFC444"/>
<stop offset="0.48" stop-color="#FDB946"/>
<stop offset="0.78" stop-color="#F99C4D"/>
<stop offset="0.87" stop-color="#F8924F"/>
<stop offset="1" stop-color="#F8924F"/>
</linearGradient>
<linearGradient id="paint6_linear" x1="-75120.1" y1="350245" x2="-163132" y2="412869" gradientUnits="userSpaceOnUse">
<stop stop-color="#FCB148"/>
<stop offset="0.05" stop-color="#FDBA46"/>
<stop offset="0.14" stop-color="#FFC244"/>
<stop offset="0.32" stop-color="#FFC444"/>
<stop offset="0.48" stop-color="#FDB946"/>
<stop offset="0.78" stop-color="#F99C4D"/>
<stop offset="0.87" stop-color="#F8924F"/>
<stop offset="1" stop-color="#F8924F"/>
</linearGradient>
<linearGradient id="paint7_linear" x1="-49873" y1="188540" x2="-99630.1" y2="232359" gradientUnits="userSpaceOnUse">
<stop stop-color="#FCB148"/>
<stop offset="0.05" stop-color="#FDBA46"/>
<stop offset="0.14" stop-color="#FFC244"/>
<stop offset="0.32" stop-color="#FFC444"/>
<stop offset="0.48" stop-color="#FDB946"/>
<stop offset="0.78" stop-color="#F99C4D"/>
<stop offset="0.87" stop-color="#F8924F"/>
<stop offset="1" stop-color="#F8924F"/>
</linearGradient>
<linearGradient id="paint8_linear" x1="-235076" y1="79297.9" x2="-239318" y2="120994" gradientUnits="userSpaceOnUse">
<stop stop-color="#FCB148"/>
<stop offset="0.05" stop-color="#FDBA46"/>
<stop offset="0.14" stop-color="#FFC244"/>
<stop offset="0.32" stop-color="#FFC444"/>
<stop offset="0.48" stop-color="#FDB946"/>
<stop offset="0.78" stop-color="#F99C4D"/>
<stop offset="0.87" stop-color="#F8924F"/>
<stop offset="1" stop-color="#F8924F"/>
</linearGradient>
<linearGradient id="paint9_linear" x1="-32462.3" y1="69997" x2="-73024.7" y2="23133.1" gradientUnits="userSpaceOnUse">
<stop stop-color="#137753"/>
<stop offset="1" stop-color="#169E75"/>
</linearGradient>
<linearGradient id="paint10_linear" x1="-32485.4" y1="69519.4" x2="-72760.4" y2="22633.2" gradientUnits="userSpaceOnUse">
<stop stop-color="#137753"/>
<stop offset="1" stop-color="#169E75"/>
</linearGradient>
<linearGradient id="paint11_linear" x1="-32836.6" y1="69774.9" x2="-73216.4" y2="22345.8" gradientUnits="userSpaceOnUse">
<stop stop-color="#137753"/>
<stop offset="1" stop-color="#169E75"/>
</linearGradient>
<linearGradient id="paint12_linear" x1="-32362.8" y1="68707.1" x2="-72167" y2="22029.5" gradientUnits="userSpaceOnUse">
<stop stop-color="#137753"/>
<stop offset="1" stop-color="#169E75"/>
</linearGradient>
<linearGradient id="paint13_linear" x1="-80085" y1="233746" x2="-215621" y2="119351" gradientUnits="userSpaceOnUse">
<stop stop-color="#137753"/>
<stop offset="1" stop-color="#169E75"/>
</linearGradient>
<linearGradient id="paint14_linear" x1="-84940.1" y1="151307" x2="-169393" y2="34442.3" gradientUnits="userSpaceOnUse">
<stop stop-color="#137753"/>
<stop offset="1" stop-color="#169E75"/>
</linearGradient>
<linearGradient id="paint15_linear" x1="-149402" y1="170609" x2="-226025" y2="5501.94" gradientUnits="userSpaceOnUse">
<stop stop-color="#137753"/>
<stop offset="1" stop-color="#169E75"/>
</linearGradient>
<linearGradient id="paint16_linear" x1="-50922.1" y1="91278.4" x2="-101873" y2="20944.6" gradientUnits="userSpaceOnUse">
<stop stop-color="#137753"/>
<stop offset="1" stop-color="#169E75"/>
</linearGradient>
<linearGradient id="paint17_linear" x1="-30242.9" y1="63876.6" x2="-67431.4" y2="20557.4" gradientUnits="userSpaceOnUse">
<stop stop-color="#137753"/>
<stop offset="1" stop-color="#169E75"/>
</linearGradient>
<linearGradient id="paint18_linear" x1="-30234.9" y1="64287.5" x2="-67666.2" y2="20977.8" gradientUnits="userSpaceOnUse">
<stop stop-color="#137753"/>
<stop offset="1" stop-color="#169E75"/>
</linearGradient>
<linearGradient id="paint19_linear" x1="-29929.2" y1="64082.3" x2="-67275.5" y2="21254.6" gradientUnits="userSpaceOnUse">
<stop stop-color="#137753"/>
<stop offset="1" stop-color="#169E75"/>
</linearGradient>
<linearGradient id="paint20_linear" x1="-30328.7" y1="65015.7" x2="-68180" y2="21546.3" gradientUnits="userSpaceOnUse">
<stop stop-color="#137753"/>
<stop offset="1" stop-color="#169E75"/>
</linearGradient>
<linearGradient id="paint21_linear" x1="-74505.4" y1="215212" x2="-199604" y2="108857" gradientUnits="userSpaceOnUse">
<stop stop-color="#137753"/>
<stop offset="1" stop-color="#169E75"/>
</linearGradient>
<linearGradient id="paint22_linear" x1="-79296.9" y1="139800" x2="-157271" y2="31179.1" gradientUnits="userSpaceOnUse">
<stop stop-color="#137753"/>
<stop offset="1" stop-color="#169E75"/>
</linearGradient>
<linearGradient id="paint23_linear" x1="-137585" y1="156292" x2="-207736" y2="4769.79" gradientUnits="userSpaceOnUse">
<stop stop-color="#137753"/>
<stop offset="1" stop-color="#169E75"/>
</linearGradient>
<linearGradient id="paint24_linear" x1="-47550.1" y1="86727.6" x2="-96342.1" y2="20915.4" gradientUnits="userSpaceOnUse">
<stop stop-color="#137753"/>
<stop offset="1" stop-color="#169E75"/>
</linearGradient>
<linearGradient id="paint25_linear" x1="284.72" y1="225.915" x2="440.728" y2="275.983" gradientUnits="userSpaceOnUse">
<stop stop-color="#FCB148"/>
<stop offset="0.05" stop-color="#FDBA46"/>
<stop offset="0.14" stop-color="#FFC244"/>
<stop offset="0.32" stop-color="#FFC444"/>
<stop offset="0.48" stop-color="#FDB946"/>
<stop offset="0.78" stop-color="#F99C4D"/>
<stop offset="0.87" stop-color="#F8924F"/>
<stop offset="1" stop-color="#F8924F"/>
</linearGradient>
<linearGradient id="paint26_linear" x1="158.519" y1="70.6246" x2="297.793" y2="377.89" gradientUnits="userSpaceOnUse">
<stop stop-color="#FFDB44"/>
<stop offset="1" stop-color="#FEEF06"/>
</linearGradient>
<linearGradient id="paint27_linear" x1="-546366" y1="745942" x2="-502949" y2="513001" gradientUnits="userSpaceOnUse">
<stop stop-color="#FCB148"/>
<stop offset="0.05" stop-color="#FDBA46"/>
<stop offset="0.14" stop-color="#FFC244"/>
<stop offset="0.32" stop-color="#FFC444"/>
<stop offset="0.48" stop-color="#FDB946"/>
<stop offset="0.78" stop-color="#F99C4D"/>
<stop offset="0.87" stop-color="#F8924F"/>
<stop offset="1" stop-color="#F8924F"/>
</linearGradient>
<linearGradient id="paint28_linear" x1="-441845" y1="355878" x2="-613717" y2="714219" gradientUnits="userSpaceOnUse">
<stop stop-color="#FCB148"/>
<stop offset="0.05" stop-color="#FDBA46"/>
<stop offset="0.14" stop-color="#FFC244"/>
<stop offset="0.32" stop-color="#FFC444"/>
<stop offset="0.48" stop-color="#FDB946"/>
<stop offset="0.78" stop-color="#F99C4D"/>
<stop offset="0.87" stop-color="#F8924F"/>
<stop offset="1" stop-color="#F8924F"/>
</linearGradient>
<linearGradient id="paint29_linear" x1="-234127" y1="378235" x2="-448264" y2="645240" gradientUnits="userSpaceOnUse">
<stop stop-color="#FCB148"/>
<stop offset="0.05" stop-color="#FDBA46"/>
<stop offset="0.14" stop-color="#FFC244"/>
<stop offset="0.32" stop-color="#FFC444"/>
<stop offset="0.48" stop-color="#FDB946"/>
<stop offset="0.78" stop-color="#F99C4D"/>
<stop offset="0.87" stop-color="#F8924F"/>
<stop offset="1" stop-color="#F8924F"/>
</linearGradient>
<linearGradient id="paint30_linear" x1="58.0013" y1="437.977" x2="49.0551" y2="443.923" gradientUnits="userSpaceOnUse">
<stop stop-color="#448C47"/>
<stop offset="1" stop-color="#448C47"/>
</linearGradient>
<linearGradient id="paint31_linear" x1="49.5237" y1="443.876" x2="48.8284" y2="429.911" gradientUnits="userSpaceOnUse">
<stop stop-color="#FFC444"/>
<stop offset="1" stop-color="#F36F56"/>
</linearGradient>
<linearGradient id="paint32_linear" x1="-31063.6" y1="15117.9" x2="-31252.5" y2="15371.5" gradientUnits="userSpaceOnUse">
<stop stop-color="#448C47"/>
<stop offset="1" stop-color="#26264F"/>
</linearGradient>
<linearGradient id="paint33_linear" x1="-37580.1" y1="17849" x2="-37845.6" y2="18166.1" gradientUnits="userSpaceOnUse">
<stop stop-color="#448C47"/>
<stop offset="1" stop-color="#26264F"/>
</linearGradient>
<linearGradient id="paint34_linear" x1="-22486.8" y1="35288" x2="-22655.5" y2="34428.1" gradientUnits="userSpaceOnUse">
<stop stop-color="#FFC444"/>
<stop offset="1" stop-color="#F36F56"/>
</linearGradient>
<linearGradient id="paint35_linear" x1="-30174.2" y1="13228.6" x2="-30365.7" y2="13478.9" gradientUnits="userSpaceOnUse">
<stop stop-color="#448C47"/>
<stop offset="1" stop-color="#26264F"/>
</linearGradient>
<linearGradient id="paint36_linear" x1="-22975.6" y1="316337" x2="-41974.1" y2="316121" gradientUnits="userSpaceOnUse">
<stop stop-color="#137753"/>
<stop offset="1" stop-color="#893976"/>
</linearGradient>
<linearGradient id="paint37_linear" x1="-86956.1" y1="359407" x2="-92628.8" y2="359407" gradientUnits="userSpaceOnUse">
<stop stop-color="#311944"/>
<stop offset="1" stop-color="#6B3976"/>
</linearGradient>
<linearGradient id="paint38_linear" x1="-35188.6" y1="339366" x2="-64283.5" y2="338893" gradientUnits="userSpaceOnUse">
<stop stop-color="#137753"/>
<stop offset="1" stop-color="#893976"/>
</linearGradient>
<linearGradient id="paint39_linear" x1="-36341.6" y1="127080" x2="-66370.8" y2="125730" gradientUnits="userSpaceOnUse">
<stop stop-color="#137753"/>
<stop offset="1" stop-color="#893976"/>
</linearGradient>
<linearGradient id="paint40_linear" x1="-16802.5" y1="34595.1" x2="-20230.2" y2="36769.5" gradientUnits="userSpaceOnUse">
<stop stop-color="#FFC444"/>
<stop offset="1" stop-color="#F36F56"/>
</linearGradient>
<linearGradient id="paint41_linear" x1="-294899" y1="372195" x2="-254327" y2="310249" gradientUnits="userSpaceOnUse">
<stop stop-color="#20A58D"/>
<stop offset="1" stop-color="#FF9A03"/>
</linearGradient>
<linearGradient id="paint42_linear" x1="-165365" y1="74039.5" x2="-169237" y2="83431.3" gradientUnits="userSpaceOnUse">
<stop stop-color="#FFC444"/>
<stop offset="1" stop-color="#F36F56"/>
</linearGradient>
<linearGradient id="paint43_linear" x1="-14413" y1="7639.77" x2="-15054.6" y2="8701.2" gradientUnits="userSpaceOnUse">
<stop stop-color="#FFC444"/>
<stop offset="1" stop-color="#F36F56"/>
</linearGradient>
<linearGradient id="paint44_linear" x1="-191469" y1="203745" x2="-224554" y2="227341" gradientUnits="userSpaceOnUse">
<stop stop-color="#FF9085"/>
<stop offset="1" stop-color="#FB6FBB"/>
</linearGradient>
<linearGradient id="paint45_linear" x1="-62744.2" y1="123131" x2="19951.6" y2="150390" gradientUnits="userSpaceOnUse">
<stop stop-color="#FF5304"/>
<stop offset="1" stop-color="#FF4404"/>
</linearGradient>
<linearGradient id="paint46_linear" x1="149" y1="205.873" x2="298.394" y2="207.829" gradientUnits="userSpaceOnUse">
<stop stop-color="#FC8800"/>
<stop offset="1" stop-color="#FF3D00"/>
</linearGradient>
<linearGradient id="paint47_linear" x1="161.061" y1="201.698" x2="303.388" y2="203.593" gradientUnits="userSpaceOnUse">
<stop stop-color="#FFDB44"/>
<stop offset="1" stop-color="#FFDB44"/>
</linearGradient>
</defs>
</svg>
