<svg width="460" height="458" viewBox="0 0 460 458" fill="none" xmlns="http://www.w3.org/2000/svg">
<path d="M221.135 6.54363C174.691 25.0102 170.242 72.2161 128.425 76.2704C91.9888 79.7961 78.1397 45.6253 52.5727 51.743C13.6267 61.0756 -10.8581 153.924 4.7831 230.27C20.9338 309.102 88.7928 413.895 201.214 421.052C327.43 429.088 422.935 308.503 428.763 202.687C429.394 191.244 433.117 95.3632 359.814 38.7236C356.152 35.8935 283.919 -18.4207 221.135 6.54363Z" fill="#F4F7FA"/>
<path d="M273.078 339.506C267.057 322.959 260.655 297.61 266.295 269.06C272.762 236.276 289.185 229.232 303.005 193.97C322.724 143.629 297.459 108.43 319.039 92.5473C329.564 84.8016 346.488 84.2558 357.155 91.3531C387.602 111.601 382.396 204.205 336.318 241.748C315.48 258.729 296.78 257.391 281.42 278.994C267.853 298.079 269.757 322.628 273.078 339.506Z" fill="url(#paint0_linear)"/>
<g style="mix-blend-mode:soft-light">
<g style="mix-blend-mode:soft-light">
<path d="M268.391 297.541L267.842 297.421C269.415 290.294 271.597 283.315 274.364 276.561C280.704 261.101 287.959 252.496 297.143 241.598C303.108 234.52 309.869 226.497 317.608 215.064C332.084 193.679 336.547 186.196 340.367 174.258C347.939 150.627 345.986 129.719 344.153 119.36C341.558 104.678 341.507 100.078 333.5 87.5002L333.973 87.1989C342.019 99.8376 342.097 104.506 344.706 119.26C346.548 129.671 348.504 150.681 340.902 174.427C337.059 186.427 332.584 193.94 318.072 215.377C310.317 226.834 303.546 234.87 297.564 241.958C288.415 252.819 281.182 261.398 274.876 276.774C272.124 283.498 269.954 290.446 268.391 297.541Z" fill="white"/>
</g>
<g style="mix-blend-mode:soft-light">
<path d="M342.843 171.5L342.821 171.04C341.966 153.845 330.616 143.07 321.243 137.052C311.068 130.518 300.972 128.031 300.873 128.006L301.004 127.46C301.106 127.486 311.292 129.994 321.546 136.579C330.944 142.613 342.307 153.387 343.356 170.538C345.129 169.413 352.535 164.422 359.073 155.622C365.94 146.378 373.228 130.915 368.949 109.74L369.5 109.63C373.821 131.018 366.457 146.637 359.516 155.976C351.996 166.088 343.334 171.218 343.247 171.268L342.843 171.5Z" fill="white"/>
</g>
<g style="mix-blend-mode:soft-light">
<path d="M341.928 213.066C330.495 213.066 321.918 209.557 321.764 209.493L321.546 209.401L321.599 209.171C325.49 192.133 321.243 179.807 316.996 172.47C312.396 164.525 306.82 160.562 306.764 160.523L307.08 160.064C307.137 160.103 312.814 164.137 317.476 172.189C321.754 179.58 326.032 191.965 322.193 209.06C324.846 210.089 350.948 219.521 372.088 201.952L372.448 202.384C362.39 210.748 351.216 213.066 341.928 213.066Z" fill="white"/>
</g>
<g style="mix-blend-mode:soft-light">
<path d="M322.936 246.071C319.234 246.09 315.544 245.675 311.939 244.835C303.751 242.886 299.462 239.278 299.419 239.242L299.262 239.111L299.336 238.925C306.277 221.532 294.919 193.787 294.812 193.509L295.331 193.295C295.446 193.574 306.798 221.326 299.935 238.939C301.701 240.303 318.392 252.209 348.481 240.114L348.69 240.636C338.474 244.746 329.831 246.071 322.936 246.071Z" fill="white"/>
</g>
</g>
<path d="M220.116 375.706C217.044 360.225 214.788 335.968 226.762 313.826C247.65 275.198 288.334 286.49 325.592 244.63C355.644 210.871 345.029 185.716 378.791 162.837C384.443 159.009 414.286 137.975 437.329 149.332C450.318 155.732 455.393 169.561 456.344 172.156C470.741 211.39 432.336 274.766 380.598 304.845C350.872 322.125 340.943 317.105 288.325 337.836C257.405 350.016 234.381 365.163 220.116 375.706Z" fill="url(#paint1_linear)"/>
<g style="mix-blend-mode:soft-light">
<g style="mix-blend-mode:soft-light">
<path d="M216.162 394.568L215.609 394.472C222.163 357.028 236.053 331.566 256.891 318.796C267.091 312.546 275.334 311.344 284.061 310.074C293.445 308.706 303.149 307.293 315.76 299.107C328.014 291.152 332.261 283.733 337.638 274.34C342.473 265.892 348.493 255.378 362.303 241.19C374.407 228.753 383.322 222.828 391.187 217.601C399.706 211.938 406.437 207.466 414.054 196.794C426.496 179.363 434 160.5 434.5 156.5C435 152.5 435 149 435 149C436.5 159.5 427.024 179.589 414.511 197.12C406.833 207.876 400.066 212.373 391.498 218.068C383.656 223.274 374.776 229.187 362.705 241.581C348.944 255.719 342.945 266.191 338.126 274.619C332.71 284.084 328.433 291.548 316.066 299.577C303.354 307.831 293.586 309.254 284.141 310.629C275.465 311.892 267.287 313.084 257.184 319.274C236.49 331.958 222.689 357.29 216.162 394.568Z" fill="white"/>
</g>
<g style="mix-blend-mode:soft-light">
<path d="M387.965 220.177L388.072 219.818C388.23 219.292 393.5 180 395 169.5C396.5 159 393.854 154.5 393.854 154.5C396.258 159.5 396.124 160.793 393.854 187C392.628 201.198 389.338 217.387 388.713 219.614C417.034 219.474 429.605 212.547 442 203C455.496 192.607 455 191.5 458.486 186.336C458.486 186.336 454 193.5 453 194.5C452 195.5 450.698 197 442.36 203.425C429.839 213.071 417.02 220.128 388.342 220.171L387.965 220.177Z" fill="white"/>
</g>
<g style="mix-blend-mode:soft-light">
<path d="M390.618 264.338C387.766 264.338 385.063 264.242 382.536 264.08C362.691 262.807 349.082 257.323 348.946 257.268L348.724 257.178L348.78 256.943C355.355 229.784 347.57 191.684 347.491 191.304L348.04 191.188C348.121 191.57 355.884 229.571 349.383 256.837C351.225 257.549 364.221 262.346 382.595 263.521C400.821 264.689 412.666 263.922 439.696 246.527L440 247C416.582 262.077 408.444 264.338 390.618 264.338Z" fill="white"/>
</g>
<g style="mix-blend-mode:soft-light">
<path d="M404.009 387.338C401.157 387.338 398.455 387.242 395.928 387.08C376.082 385.807 362.473 380.323 362.337 380.268L362.115 380.178L362.172 379.943C368.747 352.784 360.962 314.684 360.883 314.304L361.432 314.188C361.512 314.57 369.275 352.571 362.774 379.837C364.617 380.549 377.612 385.346 395.986 386.521C414.213 387.689 426.058 386.922 453.087 369.527L453.391 370C429.973 385.077 421.835 387.338 404.009 387.338Z" fill="white"/>
</g>
<g style="mix-blend-mode:soft-light">
<path d="M367.384 327.926C320.205 327.926 292.66 309.394 292.37 309.194L292.125 309.027L292.306 308.792C311.947 283.187 302.668 242.209 302.571 241.797L303.119 241.669C303.215 242.083 312.497 283.062 292.934 308.894C295.976 310.861 326.706 329.808 377.166 327.1L377.196 327.662C373.839 327.842 370.569 327.93 367.384 327.926Z" fill="white"/>
</g>
</g>
<path d="M200.346 375.947C212.902 366.272 226.764 358.422 241.519 352.63C275.028 339.536 290.786 346.122 304.676 331.333C319.053 316.031 308.967 301.726 326.217 284.595C327.668 283.155 346.206 265.22 363.685 271.119C375.912 275.245 381.055 288.822 383.469 295.19C392.836 319.912 389.072 358.156 363.006 377.794C338.296 396.409 306.017 388.947 295.766 386.505C277.782 382.221 273.337 375.407 255.066 371.593C232.86 366.955 213.178 371.547 200.346 375.947Z" fill="url(#paint2_linear)"/>
<path d="M459.135 404.443L18.6716 400.637V411.902C18.6716 414.959 20.5915 417.559 23.1944 418.023L147.743 440.206C149.218 440.468 150.72 440.538 152.213 440.414L454.347 415.122C457.045 414.896 459.135 412.282 459.135 409.146V404.443Z" fill="#BFC8D6"/>
<path d="M297.049 386.39L17.0941 407.002C12.0839 407.371 8.01074 403.453 8.01074 398.249V189.777C8.01074 184.571 12.0839 180.356 17.0941 180.356H297.049C301.175 180.356 304.512 184.169 304.512 188.874V377.324C304.507 382.028 301.171 386.087 297.049 386.39Z" fill="#BFC8D6"/>
<path d="M301.507 386.39L21.5569 407.002C16.5483 407.371 12.4751 403.453 12.4751 398.249V189.777C12.4751 184.571 16.5483 180.356 21.5569 180.356H301.507C305.633 180.356 308.971 184.169 308.971 188.874V377.324C308.971 382.028 305.633 386.087 301.507 386.39Z" fill="white"/>
<path d="M292.789 373.104L32.0412 391.006C27.9649 391.285 24.6521 388.069 24.6521 383.82V201.301C24.6521 197.052 27.9649 193.594 32.0412 193.571L292.789 192.458C296.194 192.444 298.942 195.569 298.942 199.437V365.671C298.942 369.545 296.19 372.871 292.789 373.104Z" fill="#34D2A5"/>
<path d="M171.419 186.055C171.419 187.992 169.979 189.567 168.199 189.573C166.42 189.579 164.971 188.01 164.971 186.068C164.971 184.126 166.416 182.552 168.199 182.55C169.982 182.548 171.419 184.118 171.419 186.055Z" fill="white"/>
<g style="mix-blend-mode:soft-light" opacity="0.48">
<path d="M21.5553 407.002L300.09 386.494L301.51 386.39C303.403 386.251 305.125 385.316 306.441 383.895C286.397 382.798 273.944 375.691 265.918 368.335C249.789 353.576 252.587 339.02 235.195 329.317C213.503 317.212 196.446 332.549 179.982 317.418C170.002 308.243 174.901 301.401 162.621 287.691C149.021 272.505 140.167 277.61 126.496 263.944C109.214 246.664 117.857 233.219 102.97 220.811C84.9104 205.76 65.4343 219.691 48.2424 205.257C40.828 199.03 36.758 189.98 34.6346 180.354H21.5569C16.5483 180.354 12.4751 184.572 12.4751 189.775V398.245C12.4751 403.45 16.5467 407.367 21.5553 407.002Z" fill="white"/>
</g>
<path d="M314.696 385.248L18.6716 406.939L147.743 429.929C149.218 430.192 150.72 430.262 152.213 430.137L459.135 404.444L319.405 385.39C317.845 385.179 316.267 385.131 314.696 385.248Z" fill="url(#paint3_linear)"/>
<path d="M61.866 407.127L308.317 388.798L384.59 399.113L140.263 418.704L61.866 407.127Z" fill="#D8DEE8"/>
<g style="mix-blend-mode:multiply" opacity="0.3">
<path d="M210.431 249.914C201.985 222.794 174.823 207.136 149.764 214.941C124.705 222.747 111.24 251.067 119.687 278.178C128.135 305.29 155.295 320.956 180.354 313.152C205.413 305.348 218.879 277.034 210.431 249.914ZM171.151 283.026L171.32 290.423L164.208 290.581L164.05 283.687C159.184 283.583 154.437 282.387 151.642 280.847L153.621 272.308C156.709 273.905 161.025 275.331 165.742 275.22C169.878 275.126 172.67 273.463 172.602 270.56C172.538 267.801 170.176 266.115 164.765 264.425C156.939 261.994 151.558 258.489 151.395 251.45C151.247 245.066 155.63 239.953 163.358 238.249L163.2 231.357L170.312 231.199L170.46 237.585C175.327 237.689 178.616 238.63 181.029 239.734L179.122 247.987C177.216 247.233 173.841 245.642 168.616 245.763C163.899 245.872 162.422 247.94 162.463 249.972C162.519 252.367 165.095 253.831 171.316 256.009C180.021 258.849 183.596 262.767 183.749 269.297C183.905 275.76 179.463 281.381 171.151 283.026Z" fill="#060606"/>
</g>
<g style="mix-blend-mode:multiply" opacity="0.3">
<path d="M214.56 349.441C214.56 352.873 211.845 355.807 208.384 355.998L122.683 360.708C118.6 360.932 115.199 358.067 115.199 354.307V340.115C115.199 336.356 118.636 333.206 122.719 333.081L208.33 330.472C209.139 330.438 209.947 330.57 210.704 330.858C211.461 331.146 212.152 331.585 212.735 332.148C213.317 332.711 213.779 333.386 214.093 334.133C214.407 334.88 214.565 335.683 214.56 336.493V349.441Z" fill="#97A6B7"/>
</g>
<path d="M335.009 193.563C335.009 250.77 290.276 295.772 233.1 294.017C173.599 292.19 123.555 240.802 123.555 179.307C123.555 117.811 173.599 73.1705 233.1 79.367C290.276 85.3254 335.009 136.36 335.009 193.563Z" fill="url(#paint4_linear)"/>
<path d="M350.459 188.636C350.459 245.844 305.725 290.846 248.551 289.092C189.049 287.263 139.007 235.875 139.007 174.38C139.007 112.885 189.049 68.2439 248.551 74.4404C305.725 80.3924 350.459 131.427 350.459 188.636Z" fill="url(#paint5_linear)"/>
<path d="M345.971 188.333C345.971 243.021 303.169 285.97 248.551 284.201C191.813 282.365 144.175 233.323 144.175 174.729C144.175 116.134 191.816 73.516 248.551 79.3292C303.169 84.9247 345.971 133.643 345.971 188.333Z" fill="url(#paint6_linear)"/>
<path d="M342.757 188.117C342.757 241.001 301.341 282.482 248.55 280.718C193.783 278.879 147.855 231.512 147.855 174.984C147.855 118.457 193.783 77.2753 248.55 82.8203C301.341 88.1665 342.757 135.232 342.757 188.117Z" fill="url(#paint7_linear)"/>
<path d="M248.011 100.812C250.821 101.08 253.094 103.609 253.094 106.461V116.198C258.774 116.836 264.41 117.814 269.973 119.126C274.128 120.103 278.253 121.265 282.351 122.612C284.805 123.418 286.479 125.898 286.228 128.449L285.033 140.657C284.717 143.897 281.513 145.8 278.498 144.456C275.799 143.252 273.026 142.218 270.196 141.362C265.093 139.836 259.844 138.855 254.534 138.436L253.099 138.318V166.208C267.753 170.31 278.543 175.828 285.47 182.763C292.392 189.666 295.849 198.279 295.84 208.601C295.84 219.772 292.017 228.726 284.372 235.463C276.672 242.245 265.859 246.051 251.931 246.883V257.629C251.931 260.485 249.656 262.707 246.845 262.595H246.755C243.938 262.483 241.649 260.071 241.649 257.207V246.606L239.385 246.503C233.084 246.234 226.807 245.565 220.591 244.5C216.21 243.743 211.875 242.748 207.603 241.52C205.049 240.781 203.295 238.349 203.53 235.733L204.935 220.038C205.24 216.645 208.649 214.675 211.876 215.937C215.607 217.411 219.421 218.663 223.299 219.687C229.279 221.266 235.392 222.287 241.561 222.738L241.651 191.719C227.585 188.239 217.054 183.083 210.135 176.259C203.182 169.398 199.702 160.626 199.695 149.943C199.695 138.9 203.467 130.381 211.012 124.387C218.51 118.432 229.145 115.462 242.917 115.477V105.522C242.909 102.648 245.195 100.545 248.011 100.812ZM242.909 138.042C238.564 138.357 235.176 139.551 232.747 141.624C230.318 143.697 229.102 146.487 229.1 149.995C229.1 153.314 230.224 156.087 232.472 158.314C234.721 160.542 238.2 162.317 242.909 163.639V138.042ZM251.925 194.202V222.648C256.651 222.655 260.28 221.528 262.81 219.265C265.34 217.003 266.602 213.811 266.596 209.69C266.596 205.929 265.423 202.808 263.078 200.327C260.733 197.846 257.017 195.805 251.931 194.203L251.925 194.202Z" fill="url(#paint8_linear)"/>
<path style="mix-blend-mode:multiply" opacity="0.3" d="M231.504 201.067C234.686 169.63 263.578 156.322 259.808 127.406C257.484 109.58 243.976 94.565 228.905 82.8376C183.2 87.6302 147.855 125.477 147.855 174.976C147.855 231.504 193.783 278.871 248.55 280.71C253.75 280.883 258.955 280.629 264.113 279.95C242.362 258.306 228.768 228.074 231.504 201.067Z" fill="url(#paint9_linear)"/>
<path d="M330.107 122.826V123.273C326.2 117.936 319.2 110.523 315.009 106.235C314.93 106.046 314.799 105.857 314.72 105.666C312.119 99.4435 308.899 93.4988 305.107 87.922C301.016 81.8422 295.815 75.8586 289.752 70.3483C289.027 69.6353 288.188 69.0043 287.413 68.3291C287.015 67.9994 286.616 67.6586 286.214 67.3289L285.626 66.8273C285.419 66.6601 285.206 66.5118 284.995 66.354C284.164 65.723 283.33 65.0867 282.494 64.4452L281.863 63.972L281.205 63.5255C280.77 63.2242 280.335 62.9229 279.899 62.6263C278.18 61.3817 276.326 60.3042 274.518 59.1652C273.597 58.6131 272.625 58.1051 271.693 57.5798C271.231 57.3179 270.756 57.0498 270.281 56.791C269.806 56.5323 269.305 56.3067 268.823 56.0654C260.978 52.1154 252.602 49.3201 243.957 47.766C242.873 47.5878 241.791 47.4079 240.696 47.2297C239.608 47.0798 238.503 46.9836 237.42 46.8558L235.779 46.6712L234.132 46.5829L232.485 46.4819C231.938 46.4535 231.397 46.3983 230.844 46.4093C229.75 46.4093 228.656 46.392 227.557 46.3873C227.289 46.3873 226.998 46.3699 226.748 46.3873L226.016 46.4267L224.553 46.504L223.102 46.5766C222.973 46.5766 222.884 46.5766 222.717 46.5939L221.226 46.7043L219.234 46.8447L217.743 46.9567L217.492 46.9725H217.402C217.402 46.9725 216.883 46.9725 217.754 46.9883L214.533 47.4615C214.003 47.5452 213.468 47.5956 212.936 47.7124L211.359 48.0279L209.781 48.3434L208.992 48.5011C208.729 48.5516 208.473 48.6305 208.216 48.692C207.183 48.9539 206.151 49.211 205.123 49.4808C204.605 49.5912 204.102 49.7711 203.599 49.9209L202.092 50.3942L200.586 50.8469L199.112 51.388C198.13 51.7556 197.147 52.0806 196.192 52.4702C195.238 52.8598 194.288 53.2747 193.353 53.6817C186.113 56.8833 179.376 61.1189 173.353 66.2562L172.271 67.1601L171.242 68.1256C170.562 68.7566 169.859 69.3703 169.21 70.0186C169.184 70.0407 169.161 70.0754 169.133 70.0975C167.871 71.4037 166.593 72.631 165.461 73.9829C165.159 74.3111 164.863 74.6471 164.572 74.9815L164.126 75.4721L163.713 75.9975C163.161 76.6789 162.608 77.3652 162.066 78.0404C161.932 78.2076 161.787 78.3701 161.652 78.542L161.279 79.0673C161.023 79.4191 160.771 79.7709 160.52 80.1116C160.029 80.8152 159.493 81.462 159.053 82.1877C155.323 87.7705 152.482 93.3518 150.55 98.6776C148.802 103.439 147.54 108.365 146.783 113.38C146.71 113.932 146.638 114.475 146.565 115.01C146.503 115.54 146.398 116.059 146.376 116.587C146.292 117.625 146.207 118.613 146.123 119.556C146.068 120.517 146.068 121.437 146.029 122.303C146.013 122.738 145.984 123.162 145.978 123.565C145.972 123.967 146.007 124.391 146.013 124.782C146.024 125.571 146.035 126.311 146.046 127.004C146.048 127.148 146.061 127.291 146.085 127.433C146.101 127.562 146.119 127.69 146.134 127.813C146.158 128.059 146.191 128.024 146.213 128.248C146.231 128.438 146.253 128.528 146.268 128.528H183.015L160.687 153.282L108.786 210.051L34.5479 128.526H73.5743C73.6311 128.526 73.6911 127.856 73.7526 127.332C73.9103 126.198 74.0681 125.093 74.2448 123.748C74.3442 123.077 74.4341 122.452 74.5398 121.733C74.595 121.381 74.6455 121.045 74.6975 120.678C74.7496 120.31 74.7969 119.924 74.8695 119.605C75.144 118.255 75.4279 116.832 75.7292 115.313C75.887 114.56 76.0447 113.789 76.2151 112.997C76.3855 112.205 76.6063 111.4 76.8177 110.574C77.2421 108.927 77.6554 107.196 78.1697 105.417C78.7155 103.647 79.2829 101.806 79.8718 99.8954C80.1558 98.9347 80.5296 97.9913 80.8767 97.0148C81.2237 96.0384 81.5913 95.0666 81.9589 94.0617C85.332 85.2154 89.5864 76.7308 94.658 68.7361C100.173 60.0281 107.19 51.3486 115.518 43.3C116.527 42.2668 117.644 41.3234 118.722 40.3359C119.269 39.85 119.81 39.3578 120.357 38.8672L121.189 38.1305L122.038 37.4269C123.181 36.4946 124.338 35.5512 125.488 34.6079L126.358 33.9043L127.262 33.2354C127.871 32.7827 128.474 32.3362 129.083 31.8898C131.465 30.0646 134.028 28.4192 136.573 26.7202C137.857 25.8952 139.185 25.1238 140.517 24.3255C141.17 23.9359 141.834 23.5446 142.498 23.1424L144.549 22.0381C155.634 15.9837 167.529 11.5489 179.871 8.86891C181.43 8.56287 182.998 8.25052 184.561 7.9429C186.125 7.63528 187.716 7.45229 189.294 7.21093L191.66 6.87649L194.044 6.64302L196.402 6.4127C197.191 6.34013 197.98 6.25495 198.781 6.22339C200.359 6.15083 201.957 5.96153 203.548 5.88896C203.938 5.87161 204.337 5.72174 204.736 5.72174H205.932L208.298 5.85583L210.665 5.93313C211.453 5.93313 212.242 6.03882 213.031 6.07826L217.748 6.36379C218.819 6.37957 218.117 6.39061 218.39 6.39692L218.513 6.4127L218.764 6.44109L219.254 6.50893L220.248 6.6304L222.225 6.87649L223.219 6.99954L223.709 7.06106L224.318 7.14467L226.819 7.51381L229.319 7.89242L230.559 8.08803C230.966 8.15429 231.329 8.24578 231.72 8.32308C233.244 8.64648 234.768 8.97618 236.295 9.29326C237.054 9.45102 237.801 9.66241 238.549 9.85802L240.799 10.4543L243.032 11.0522L245.241 11.7495C246.705 12.2227 248.172 12.6708 249.606 13.185C251.04 13.6993 252.464 14.2562 253.887 14.7925C265.181 19.2806 275.485 25.2689 284.343 32.2416C284.902 32.6706 285.447 33.106 286.007 33.5367C286.567 33.9674 287.079 34.4359 287.609 34.8934C288.67 35.7973 289.737 36.6681 290.764 37.5941C292.778 39.4871 294.788 41.3013 296.624 43.2653C297.097 43.7465 297.552 44.2324 298.02 44.7056L298.706 45.4202L299.366 46.1632C300.242 47.1571 301.107 48.143 301.961 49.1211L302.603 49.8578L303.217 50.6182C303.614 51.1261 304.021 51.6278 304.417 52.1295C305.206 53.1407 306.042 54.1014 306.757 55.1441C310.622 60.3509 314.069 65.8552 317.066 71.6056C318.451 74.2574 319.684 76.8982 320.773 79.5043C323.81 86.6829 326.117 94.1484 327.66 101.788C327.818 102.636 327.976 103.469 328.124 104.289C328.273 105.109 328.44 105.901 328.538 106.699C328.749 108.291 328.962 109.815 329.158 111.284C329.325 112.757 329.413 114.174 329.536 115.519C329.587 116.19 329.654 116.843 329.694 117.49C329.733 118.136 329.852 118.752 329.878 119.365C329.912 120.583 330.107 121.749 330.107 122.826Z" fill="url(#paint10_linear)"/>
<path style="mix-blend-mode:multiply" opacity="0.4" d="M330.107 122.826V123.273C326.2 117.936 319.2 110.523 315.009 106.236C314.93 106.046 314.799 105.857 314.72 105.666C312.119 99.4435 308.899 93.4989 305.106 87.922C301.016 81.8422 295.815 75.8586 289.752 70.3483C289.027 69.6353 288.188 69.0043 287.413 68.3291C287.015 67.9994 286.616 67.6586 286.214 67.3289L285.626 66.8273C285.419 66.6601 285.206 66.5118 284.995 66.354C284.164 65.723 283.33 65.0867 282.494 64.4452L281.863 63.972L281.205 63.5255C280.77 63.2242 280.335 62.9229 279.899 62.6263C278.18 61.3817 276.326 60.3042 274.518 59.1652C273.597 58.6131 272.625 58.1051 271.693 57.5798C271.231 57.318 270.756 57.0498 270.281 56.7911C269.806 56.5323 269.304 56.3068 268.823 56.0654C260.978 52.1154 252.602 49.3201 243.957 47.766C242.873 47.5878 241.791 47.4079 240.696 47.2297C239.608 47.0798 238.503 46.9836 237.42 46.8558L235.779 46.6712L234.132 46.5829L232.485 46.4819C231.938 46.4535 231.396 46.3983 230.844 46.4093C229.75 46.4093 228.656 46.392 227.557 46.3873C227.289 46.3873 226.998 46.3699 226.748 46.3873L226.016 46.4267L224.553 46.504L223.102 46.5766C222.972 46.5766 222.884 46.5766 222.717 46.5939L221.226 46.7043L219.234 46.8447L217.743 46.9567L217.492 46.9725H217.402C217.402 46.9725 216.883 46.9725 217.754 46.9883L214.533 47.4616C214.003 47.5452 213.468 47.5956 212.936 47.7124L211.359 48.0279L209.781 48.3434L208.992 48.5011C208.729 48.5516 208.473 48.6305 208.216 48.692C207.183 48.9539 206.151 49.211 205.123 49.4808C204.605 49.5912 204.102 49.7711 203.599 49.9209L202.092 50.3942L200.586 50.8469L199.112 51.388C198.13 51.7556 197.147 52.0806 196.192 52.4702C195.238 52.8599 194.288 53.2747 193.353 53.6817C186.113 56.8833 179.376 61.1189 173.353 66.2562L172.271 67.1601L171.242 68.1256C170.562 68.7566 169.859 69.3703 169.21 70.0186C169.184 70.0407 169.161 70.0754 169.133 70.0975C185.628 49.6733 212.349 36.4047 242.504 36.4047C273.4 36.4047 300.689 50.3311 317.067 71.604C318.452 74.2559 319.686 76.8967 320.774 79.5027C323.811 86.6813 326.119 94.1468 327.662 101.787C327.82 102.634 327.977 103.467 328.126 104.287C328.274 105.108 328.441 105.899 328.539 106.698C328.75 108.289 328.963 109.813 329.159 111.282C329.326 112.755 329.415 114.172 329.538 115.518C329.588 116.188 329.656 116.841 329.695 117.488C329.735 118.135 329.853 118.75 329.88 119.364C329.912 120.583 330.107 121.749 330.107 122.826Z" fill="url(#paint11_linear)"/>
<path d="M109.058 233.96C107.937 233.09 107.067 231.94 106.534 230.625C105.865 228.909 106.335 228.145 105.497 227.074C104.436 225.714 102.263 225.131 100.765 225.795C100.38 225.934 100.052 226.194 99.8276 226.536C99.1635 227.655 100.635 229.593 101.809 230.625C102.692 231.401 103.058 231.345 103.995 232.005C104.909 232.651 106.06 233.763 106.993 235.801L109.058 233.96Z" fill="url(#paint12_linear)"/>
<path d="M59.905 224.572C61.2764 224.208 62.5278 223.489 63.5333 222.488C64.8175 221.169 64.6834 220.28 65.8728 219.622C67.3809 218.786 69.6084 219.095 70.7221 220.288C71.0208 220.567 71.2221 220.935 71.2964 221.337C71.4699 222.626 69.3592 223.836 67.8763 224.334C66.7594 224.705 66.4455 224.509 65.3254 224.752C64.2322 224.99 62.7383 225.564 61.0913 227.08L59.905 224.572Z" fill="url(#paint13_linear)"/>
<path d="M64.6028 226.166C65.2559 229.273 61.8958 232.039 59.4711 234.754C54.6108 240.199 49.5217 249.915 51.3895 258.259C52.4101 262.813 55.6819 267.738 60.3009 270.073C65.2733 272.586 68.2517 270.3 73.4244 273.283C73.8046 273.504 80.3466 277.385 80.5359 282.614C80.7709 289.069 71.2789 295.938 63.1531 296.463C48.2943 297.426 30.3894 277.664 31.2239 258.055C32.131 236.708 55.0698 219.764 61.6702 222.637C62.7066 223.085 64.2353 224.418 64.6028 226.166Z" fill="url(#paint14_linear)"/>
<path d="M71.2159 447.21L71.7491 452.618L69.2298 452.161L67.5371 447.081L71.2159 447.21Z" fill="url(#paint15_linear)"/>
<path d="M55.8682 347.279C56.0822 355.526 57.0458 363.737 58.7472 371.809C60.2742 379.028 61.1624 380.274 61.6388 385.266C62.6752 396.127 59.1747 397.681 58.5326 409.957C57.8227 423.513 61.4274 434.286 62.844 438.395C63.8451 441.298 65.0171 444.14 66.354 446.904C67.5971 447.988 69.498 447.572 71.5015 447.165C72.2397 434.869 73.1594 423.298 73.8977 411.004C76.2777 392.508 78.6577 374.013 81.0376 355.518L55.8682 347.279Z" fill="url(#paint16_linear)"/>
<path style="mix-blend-mode:multiply" opacity="0.3" d="M71.5015 447.165C72.2397 434.869 73.1594 423.298 73.8977 411.004C76.2777 392.508 78.6577 374.013 81.0376 355.518L55.8682 347.279C55.8855 347.91 55.9171 348.528 55.9423 349.151C67.7138 359.375 70.017 367.473 69.9018 372.995C69.763 379.695 66.1 383.016 66.8162 392.729C67.3273 399.67 69.4144 400.899 69.4144 407.165C69.4144 415.235 65.9438 419.772 64.2622 424.436C62.6326 428.943 62.0537 435.32 65.2008 444.407C65.6157 445.344 66.0054 446.183 66.354 446.904C67.5971 447.986 69.498 447.572 71.5015 447.165Z" fill="url(#paint17_linear)"/>
<path d="M70.2711 454.464C69.08 452.986 67.9852 453.093 67.7849 452.097C67.6271 451.309 68.1304 450.362 68.8623 450.009C69.8909 449.518 71.1056 450.346 71.3864 450.533C73.251 451.804 72.6941 453.716 74.461 454.588C74.8159 454.763 75.3823 454.954 75.9691 455.535C76.2183 455.779 76.8367 456.384 76.6806 456.787C76.4991 457.261 75.3744 457.215 74.3064 457.177C73.0238 457.13 72.3818 457.108 71.7729 456.704C70.9242 456.144 71.1923 455.604 70.2711 454.464Z" fill="url(#paint18_linear)"/>
<path d="M72.8045 408.195L68.094 410.039L66.72 407.878L70.4035 405.403L72.8045 408.195Z" fill="url(#paint19_linear)"/>
<path d="M65.6126 411.181C65.8886 409.304 65.0667 408.572 65.6678 407.745C66.141 407.097 67.179 406.819 67.9331 407.114C68.9916 407.537 69.2077 408.992 69.2566 409.323C69.5895 411.555 67.8069 412.445 68.3638 414.333C68.4758 414.713 68.7187 415.257 68.695 416.081C68.6856 416.43 68.6603 417.294 68.2581 417.452C67.7848 417.636 67.0592 416.783 66.365 415.971C65.529 414.997 65.103 414.511 64.9894 413.794C64.8191 412.801 65.398 412.632 65.6126 411.181Z" fill="url(#paint20_linear)"/>
<path d="M93.1846 338.741C101.96 356.635 104.94 371.554 106.067 381.298C106.791 387.562 106.721 391.437 104.917 395.338C98.4488 409.272 75.909 410.194 72.4811 410.29L69.0957 403.357C71.1702 399.509 74.7906 394.166 80.9887 390.263C85.7544 387.266 87.6143 387.906 88.8101 385.892C93.59 377.818 67.8116 360.307 71.6623 348.657C72.9954 344.625 78.1223 340.538 93.1846 338.741Z" fill="url(#paint21_linear)"/>
<path d="M74.169 274.419C83.6515 276.047 90.8703 277.743 94.0948 282.709C97.4991 287.954 92.0866 291.903 90.6147 303.412C88.3604 321.033 98.4913 327.615 95.5761 345.357C95.1457 347.969 94.4848 350.537 93.601 353.032C92.2264 356.891 89.5858 360.172 86.1093 362.339C83.1288 364.222 79.9458 365.763 76.6205 366.933C67.0055 370.296 62.265 368.342 49.3293 369.08C28.1699 370.29 25.0022 376.427 15.4424 372.653C5.77528 368.834 -1.2179 358.528 0.831311 354.124C2.05863 351.486 5.92988 353.133 11.4828 349.894C18.6384 345.722 17.4364 340.027 23.2417 335.14C31.5805 328.123 39.6022 335.209 46.7358 329.107C53.9498 322.933 54.8112 307.921 51.7444 298.984C49.741 293.147 49.7047 286.799 48.2171 280.809C48.034 280.086 48.0647 279.325 48.3054 278.618C49.4886 275.176 55.7877 274.517 60.5486 274.059C67.8116 273.367 73.3897 274.285 74.169 274.419Z" fill="url(#paint22_linear)"/>
<path style="mix-blend-mode:multiply" opacity="0.3" d="M16.5468 365.966C19.4778 364.013 17.8909 358.479 22.2259 355.54C26.2533 352.814 29.3942 356.381 35.3304 354.56C42.942 352.227 42.5445 344.898 49.8437 342.559C55.0905 340.877 56.6728 344.224 64.2402 344.37C71.8076 344.515 81.6955 341.398 87.9662 333.39C90.3494 330.325 92.0424 326.782 92.9291 323.002C94.9499 329.527 97.1427 335.835 95.5778 345.357C95.0257 348.695 94.1008 351.959 92.8203 355.09C91.8367 357.504 90.1741 359.581 88.034 361.069C84.5128 363.532 80.6732 365.505 76.6206 366.933C67.0056 370.296 62.2651 368.342 49.3294 369.08C28.17 370.29 25.0023 376.427 15.4425 372.653C9.26651 370.214 4.19633 365.128 1.86475 360.623C10.2241 366.701 14.4219 367.383 16.5468 365.966Z" fill="url(#paint23_linear)"/>
<path d="M79.6462 258.008C79.6462 258.008 82.2601 262.912 82.4242 266.355C82.5883 269.797 78.7044 269.547 78.7044 269.547L78.8511 271.718C78.9115 272.625 79.2336 273.496 79.7785 274.224C80.3233 274.952 81.0675 275.506 81.921 275.82L83.4512 276.383C83.4512 276.383 73.4465 278.525 67.9819 274.665L69.5595 274.507C70.6409 274.402 71.6526 273.925 72.4226 273.159C73.1927 272.392 73.6737 271.383 73.7841 270.302L73.8787 269.372C73.8787 269.372 72.145 258.647 79.6462 258.008Z" fill="url(#paint24_linear)"/>
<path d="M104.284 234.938C102.8 237.745 105.267 241.329 106.848 244.607C110.019 251.182 112.23 261.925 108.135 269.426C105.898 273.528 101.394 277.355 96.3035 278.325C90.831 279.368 88.5973 276.35 82.803 277.79C82.3755 277.897 75.0195 279.82 73.3946 284.797C71.388 290.939 78.6178 300.158 86.283 302.904C100.301 307.927 122.961 293.87 127.567 274.791C132.582 254.021 115.207 231.409 108.072 232.356C106.957 232.499 105.12 233.359 104.284 234.938Z" fill="url(#paint25_linear)"/>
<path d="M78.0877 262.886C77.5703 262.843 77.1412 262.187 76.7894 262.382C76.4376 262.578 76.4597 263.542 76.7815 264.214C76.9906 264.633 77.3167 264.982 77.7201 265.219C77.1643 265.971 76.7818 266.838 76.6001 267.755C76.1268 270.242 77.4535 272.242 78.0025 273.412C80.4808 278.688 76.6253 287.028 72.3944 291.239C68.957 294.662 67.3463 293.289 65.2955 296.082C61.2996 301.524 66.8147 307.506 64.7497 314.832C61.6073 325.971 44.0178 329.285 43.2953 329.413C43.0082 329.464 42.8221 329.495 42.516 329.543C34.6284 330.797 22.6676 332.698 14.2451 326.22C7.93502 321.379 5.04815 312.945 5.52141 305.518C5.64761 303.564 6.23918 296.146 12.2827 290.093C13.2418 289.133 18.9209 283.457 26.5972 283.389C30.6625 283.352 31.4875 284.785 34.5905 283.898C38.8498 282.685 41.4685 278.816 43.095 276.416C46.0923 271.999 44.8713 271.053 47.0246 268.885C51.2413 264.626 56.19 267.972 60.6939 264.217C65.1346 260.516 62.456 255.495 66.7421 252.291C71.1592 248.988 79.6226 250.141 81.4257 254.075C82.978 257.453 79.6652 263.017 78.0877 262.886Z" fill="#2F2E41"/>
<defs>
<linearGradient id="paint0_linear" x1="371" y1="127" x2="280.014" y2="246.833" gradientUnits="userSpaceOnUse">
<stop offset="0.0833333" stop-color="#FF4C00"/>
<stop offset="0.989583" stop-color="#53B839"/>
</linearGradient>
<linearGradient id="paint1_linear" x1="373.3" y1="166.593" x2="299.959" y2="385.414" gradientUnits="userSpaceOnUse">
<stop stop-color="#FF4D00"/>
<stop offset="0.8125" stop-color="#FFF510"/>
</linearGradient>
<linearGradient id="paint2_linear" x1="233658" y1="215566" x2="4948.57" y2="375357" gradientUnits="userSpaceOnUse">
<stop stop-color="#D9FAEC"/>
<stop offset="1" stop-color="#9571F6"/>
</linearGradient>
<linearGradient id="paint3_linear" x1="18.6716" y1="407.692" x2="459.135" y2="407.692" gradientUnits="userSpaceOnUse">
<stop offset="0.49" stop-color="#EBEFF2"/>
<stop offset="1" stop-color="white"/>
</linearGradient>
<linearGradient id="paint4_linear" x1="193.045" y1="198.043" x2="69.7283" y2="237.618" gradientUnits="userSpaceOnUse">
<stop stop-color="#FCB148"/>
<stop offset="0.05" stop-color="#FDBA46"/>
<stop offset="0.14" stop-color="#FFC244"/>
<stop offset="0.32" stop-color="#FFC444"/>
<stop offset="0.48" stop-color="#FDB946"/>
<stop offset="0.78" stop-color="#F99C4D"/>
<stop offset="0.87" stop-color="#F8924F"/>
<stop offset="1" stop-color="#F8924F"/>
</linearGradient>
<linearGradient id="paint5_linear" x1="292.802" y1="75.2939" x2="182.712" y2="318.172" gradientUnits="userSpaceOnUse">
<stop stop-color="#FFDB44"/>
<stop offset="1" stop-color="#FEEF06"/>
</linearGradient>
<linearGradient id="paint6_linear" x1="348789" y1="432141" x2="320654" y2="281185" gradientUnits="userSpaceOnUse">
<stop stop-color="#FCB148"/>
<stop offset="0.05" stop-color="#FDBA46"/>
<stop offset="0.14" stop-color="#FFC244"/>
<stop offset="0.32" stop-color="#FFC444"/>
<stop offset="0.48" stop-color="#FDB946"/>
<stop offset="0.78" stop-color="#F99C4D"/>
<stop offset="0.87" stop-color="#F8924F"/>
<stop offset="1" stop-color="#F8924F"/>
</linearGradient>
<linearGradient id="paint7_linear" x1="281237" y1="181128" x2="392627" y2="413355" gradientUnits="userSpaceOnUse">
<stop stop-color="#FCB148"/>
<stop offset="0.05" stop-color="#FDBA46"/>
<stop offset="0.14" stop-color="#FFC244"/>
<stop offset="0.32" stop-color="#FFC444"/>
<stop offset="0.48" stop-color="#FDB946"/>
<stop offset="0.78" stop-color="#F99C4D"/>
<stop offset="0.87" stop-color="#F8924F"/>
<stop offset="1" stop-color="#F8924F"/>
</linearGradient>
<linearGradient id="paint8_linear" x1="136737" y1="106700" x2="204474" y2="257548" gradientUnits="userSpaceOnUse">
<stop stop-color="#FFDB44"/>
<stop offset="1" stop-color="#FEEF06"/>
</linearGradient>
<linearGradient id="paint9_linear" x1="148837" y1="195736" x2="287604" y2="368768" gradientUnits="userSpaceOnUse">
<stop stop-color="#FCB148"/>
<stop offset="0.05" stop-color="#FDBA46"/>
<stop offset="0.14" stop-color="#FFC244"/>
<stop offset="0.32" stop-color="#FFC444"/>
<stop offset="0.48" stop-color="#FDB946"/>
<stop offset="0.78" stop-color="#F99C4D"/>
<stop offset="0.87" stop-color="#F8924F"/>
<stop offset="1" stop-color="#F8924F"/>
</linearGradient>
<linearGradient id="paint10_linear" x1="116.702" y1="215.833" x2="262.412" y2="16.1382" gradientUnits="userSpaceOnUse">
<stop stop-color="#51FFEA"/>
<stop offset="1" stop-color="#0A7E2C"/>
</linearGradient>
<linearGradient id="paint11_linear" x1="239270" y1="64827" x2="260043" y2="12071.4" gradientUnits="userSpaceOnUse">
<stop stop-color="#6165D7"/>
<stop offset="1" stop-color="#AA80F9"/>
</linearGradient>
<linearGradient id="paint12_linear" x1="104.742" y1="228.276" x2="102.289" y2="242.583" gradientUnits="userSpaceOnUse">
<stop stop-color="#FFC444"/>
<stop offset="1" stop-color="#F36F56"/>
</linearGradient>
<linearGradient id="paint13_linear" x1="10200.5" y1="12666.3" x2="9995.81" y2="13372.5" gradientUnits="userSpaceOnUse">
<stop stop-color="#FFC444"/>
<stop offset="1" stop-color="#F36F56"/>
</linearGradient>
<linearGradient id="paint14_linear" x1="61378.4" y1="133175" x2="-20794.5" y2="157605" gradientUnits="userSpaceOnUse">
<stop stop-color="#FF5304"/>
<stop offset="1" stop-color="#FFF504"/>
</linearGradient>
<linearGradient id="paint15_linear" x1="-1279.3" y1="16541.1" x2="-1213.93" y2="14687.5" gradientUnits="userSpaceOnUse">
<stop stop-color="#FFC444"/>
<stop offset="1" stop-color="#F36F56"/>
</linearGradient>
<linearGradient id="paint16_linear" x1="67.9379" y1="357.634" x2="60.2295" y2="454.184" gradientUnits="userSpaceOnUse">
<stop stop-color="#137753"/>
<stop offset="1" stop-color="#398989"/>
</linearGradient>
<linearGradient id="paint17_linear" x1="-5998.39" y1="228051" x2="-16586.8" y2="287829" gradientUnits="userSpaceOnUse">
<stop stop-color="#137753"/>
<stop offset="1" stop-color="#137753"/>
</linearGradient>
<linearGradient id="paint18_linear" x1="-2208.31" y1="21790.1" x2="-2506.15" y2="20383.5" gradientUnits="userSpaceOnUse">
<stop stop-color="#FF9085"/>
<stop offset="1" stop-color="#FBE56F"/>
</linearGradient>
<linearGradient id="paint19_linear" x1="5415.27" y1="13412.8" x2="6461.29" y2="12518.1" gradientUnits="userSpaceOnUse">
<stop stop-color="#FFC444"/>
<stop offset="1" stop-color="#F36F56"/>
</linearGradient>
<linearGradient id="paint20_linear" x1="-1103.56" y1="13955.6" x2="-712.674" y2="12294.7" gradientUnits="userSpaceOnUse">
<stop stop-color="#FF9085"/>
<stop offset="1" stop-color="#FBE56F"/>
</linearGradient>
<linearGradient id="paint21_linear" x1="26054.1" y1="171249" x2="47469.2" y2="170740" gradientUnits="userSpaceOnUse">
<stop stop-color="#137753"/>
<stop offset="1" stop-color="#893976"/>
</linearGradient>
<linearGradient id="paint22_linear" x1="88643" y1="149380" x2="73799" y2="232106" gradientUnits="userSpaceOnUse">
<stop stop-color="#FFCE85"/>
<stop offset="1" stop-color="#FB6FBB"/>
</linearGradient>
<linearGradient id="paint23_linear" x1="-178001" y1="64484.2" x2="-193649" y2="95461" gradientUnits="userSpaceOnUse">
<stop stop-color="#FBA138"/>
<stop offset="1" stop-color="#E3C164"/>
</linearGradient>
<linearGradient id="paint24_linear" x1="-3637" y1="32000.9" x2="-5002.05" y2="33675.6" gradientUnits="userSpaceOnUse">
<stop stop-color="#FFC444"/>
<stop offset="1" stop-color="#F36F56"/>
</linearGradient>
<linearGradient id="paint25_linear" x1="68957.1" y1="128570" x2="-20739" y2="159589" gradientUnits="userSpaceOnUse">
<stop stop-color="#FF5304"/>
<stop offset="1" stop-color="#FFF504"/>
</linearGradient>
</defs>
</svg>
