<svg width="1032" height="979" viewBox="0 0 1032 979" fill="none" xmlns="http://www.w3.org/2000/svg">
<path opacity="0.2" d="M901.497 452.384C840.24 375.784 748.433 386.057 717.064 312.21C689.737 247.867 746.519 209.643 720.451 165.908C680.732 99.2857 481.14 -6.82709 348.097 121.032C215.054 248.892 327.324 392.079 180.924 495.554C34.5243 599.029 444.748 933.365 648.191 902.876C670.192 899.579 853.659 869.128 919.241 714.973C922.517 707.263 984.305 555.937 901.497 452.384Z" fill="#28B88F" fill-opacity="0.42"/>
<g opacity="0.5" filter="url(#filter0_d)">
<path d="M831.729 455.594C777.228 391.652 692.489 401.822 665.426 339.737C641.851 285.643 695.041 252.343 672.121 215.693C637.197 159.864 463.003 155.961 336.856 207.115C206.593 259.923 -13.7215 268.262 96.7558 573.993C142.98 768.647 399.631 870.504 587.602 841.421C607.929 838.276 777.514 809.545 841.638 677.853C844.841 671.267 905.403 542.034 831.729 455.594Z" fill="#34D2A5"/>
</g>
<path d="M588.339 296.22C572.749 318.045 590.382 353.878 567.419 370.175C545.065 386.045 518.092 359.366 497.039 373.002C465.81 393.23 470.484 487.339 515.214 546.251C528.665 563.969 539.987 570.926 544.828 590.854C555.215 633.643 516.866 658.629 523.885 679.813C539.704 727.508 790.242 770.029 892.44 628.265C940.172 562.048 948.222 465.794 906.973 392.196C832.435 259.198 623.318 247.249 588.339 296.22Z" fill="#F4F7FA"/>
<g opacity="0.3">
<path opacity="0.3" d="M696.72 281.781L913.007 275.14C929.763 274.626 943.662 289.615 943.945 308.622C944.226 327.63 930.77 343.26 914.019 343.53L697.687 347.018C682.541 347.262 670.124 332.947 669.859 315.039C669.594 297.135 681.582 282.246 696.72 281.781Z" fill="url(#paint0_linear)"/>
<path opacity="0.3" d="M604 316.42C604.26 333.972 616.255 348.008 630.878 347.771C645.603 347.532 657.392 332.937 657.128 315.175C656.865 297.413 644.649 283.38 629.93 283.831C615.318 284.279 603.74 298.869 604 316.42Z" fill="url(#paint1_linear)"/>
</g>
<g opacity="0.5">
<path opacity="0.5" d="M560.554 369.882L723.367 367.828C735.834 367.665 746.167 379.347 746.383 393.907C746.597 408.469 736.613 420.28 724.144 420.295L561.303 420.474C549.771 420.487 540.299 409.225 540.093 395.321C539.887 381.417 549.023 370.027 560.554 369.882Z" fill="url(#paint2_linear)"/>
<path opacity="0.5" d="M489.676 395.542C489.879 409.215 499.088 420.29 510.292 420.277C521.56 420.264 530.572 409.063 530.368 395.26C530.163 381.457 520.823 370.39 509.556 370.526C498.353 370.667 489.474 381.867 489.676 395.542Z" fill="url(#paint3_linear)"/>
</g>
<path d="M792.114 595.997C794.196 603.184 798.46 613.329 802.912 624.957L680.756 610.595C703.471 578.295 732.055 545.639 720.957 476.056C715.749 443.405 694.897 382.876 718.25 352.457C744.854 317.801 772.408 343.188 788.606 315.178C813.899 271.401 862.804 249.304 899.687 284.261C936.083 318.761 912.089 402.914 831.31 480.42C779.656 542.586 781.24 558.461 792.114 595.997Z" fill="url(#paint4_linear)"/>
<g style="mix-blend-mode:multiply" opacity="0.3">
<g style="mix-blend-mode:soft-light" opacity="0.6">
<g style="mix-blend-mode:soft-light" opacity="0.6">
<path d="M740.583 610.454C743.855 594.783 747.738 580.169 751.848 564.694L753.217 559.535C755.657 552.206 757.861 544.914 759.994 537.861C764.808 521.937 769.356 506.894 776.375 491.511C776.68 490.583 776.928 489.672 777.194 488.705C778.134 485.253 779.106 481.684 782.025 478.803L782.109 478.674C812.937 395.627 833.723 355.576 898.496 284.627L897.969 284.146C833.154 355.133 812.33 395.247 781.47 478.351C778.458 481.359 777.423 485.161 776.508 488.517C776.248 489.476 776.001 490.38 775.718 491.253C768.692 506.642 764.139 521.707 759.315 537.654C757.188 544.703 754.981 551.991 752.54 559.33L751.164 564.512C747.05 579.994 743.168 594.618 739.889 610.308L740.583 610.454Z" fill="url(#paint5_linear)" style="mix-blend-mode:multiply"/>
</g>
<g style="mix-blend-mode:soft-light" opacity="0.6">
<path d="M761.549 535.112C773.059 495.026 780.939 446.227 771.801 408.375C761.905 367.382 749.125 335.444 748.996 335.127V336.627C752.507 343.109 760.612 366.182 770.496 407.127C779.613 444.893 772.336 494.973 760.868 534.915L761.549 535.112Z" fill="url(#paint6_linear)" style="mix-blend-mode:multiply"/>
</g>
<g style="mix-blend-mode:soft-light" opacity="0.6">
<path d="M830.496 372.627C845.081 330.762 858.854 299.757 860.704 284.21C861.058 281.236 861.29 279.272 861.401 278.907L860.717 278.7C860.595 279.109 860.408 280.663 859.996 284.127C858.154 299.654 844.389 330.602 829.828 372.391L830.496 372.627Z" fill="url(#paint7_linear)" style="mix-blend-mode:multiply"/>
</g>
<g style="mix-blend-mode:soft-light" opacity="0.6">
<path d="M801.761 431.415C825.991 398.464 910.062 385.949 910.908 385.828L910.806 385.123C909.957 385.245 825.596 397.803 801.183 430.993L801.761 431.415Z" fill="url(#paint8_linear)" style="mix-blend-mode:multiply"/>
</g>
</g>
</g>
<g filter="url(#filter1_d)">
<path d="M829.142 462.117C821.884 518.158 796.991 496.477 771.385 499.095C737.68 537.381 730.419 575.733 769.5 614.183L818.258 612.646C836.135 613.913 857.637 610.932 859.244 587.122C861.062 560.188 856.729 542.435 888.5 532.839C920.271 523.243 936.075 500.77 927.045 472.042C917.542 441.806 952.306 406.641 932.49 384.802C897.967 346.735 836.698 403.763 829.142 462.117Z" fill="#34D2A5"/>
</g>
<g opacity="0.5" filter="url(#filter2_d)">
<g style="mix-blend-mode:soft-light" opacity="0.6">
<path d="M805.434 561.145C828.046 541.577 848.202 519.339 865.458 494.918C882.854 470.292 897.018 443.827 907.558 416.254C913.576 400.527 918.41 384.373 922.02 367.926L921.307 367.763C917.705 384.174 912.881 400.293 906.876 415.986C896.359 443.501 882.222 469.912 864.861 494.489C847.639 518.863 827.524 541.059 804.957 560.59L805.434 561.145Z" fill="white"/>
</g>
<g style="mix-blend-mode:soft-light" opacity="0.6">
<path d="M853.388 598.032L853.794 597.425C845.426 591.844 835.343 587.075 823.824 583.246C818.481 581.461 813.02 580.046 807.482 579.013L807.349 579.732C812.855 580.757 818.283 582.163 823.593 583.94C835.051 587.747 845.076 592.489 853.388 598.032Z" fill="#34D2A5"/>
</g>
<g style="mix-blend-mode:soft-light" opacity="0.6">
<path d="M854.245 509.825C881.807 488.797 934.225 497.179 934.745 497.269L934.864 496.549C934.333 496.464 881.61 488.024 853.799 509.244L854.245 509.825Z" fill="#34D2A5"/>
</g>
<g style="mix-blend-mode:soft-light" opacity="0.8">
<path d="M890.496 452.627C902.392 415.309 886.396 378.276 886.15 377.8L885.496 378.127C885.733 378.6 903.206 413.687 891.399 450.718L890.496 452.627Z" fill="white"/>
</g>
</g>
<path d="M484.814 683.705L924.592 679.875V691.207C924.592 694.283 922.675 696.899 920.076 697.364L795.728 719.681C794.256 719.946 792.756 720.016 791.266 719.89L489.594 694.446C486.901 694.219 484.815 691.595 484.815 688.435L484.814 683.705Z" fill="#97A6B7"/>
<path d="M626.378 665.333L919.743 686.066C924.993 686.436 929.26 682.494 929.26 677.26V467.536C929.254 465.018 928.248 462.604 926.464 460.827C924.679 459.05 922.261 458.054 919.743 458.058H626.378C622.054 458.058 618.555 461.893 618.555 466.627V656.213C618.562 660.944 622.06 665.028 626.378 665.333Z" fill="#97A6B7"/>
<path d="M621.707 665.333L915.072 686.066C920.322 686.436 924.589 682.494 924.589 677.26V467.536C924.583 465.018 923.577 462.604 921.792 460.827C920.008 459.05 917.59 458.054 915.072 458.058H621.707C617.382 458.058 613.884 461.893 613.884 466.627V656.213C613.884 660.944 617.379 665.028 621.707 665.333Z" fill="#97A6B7"/>
<path d="M630.846 651.967L904.086 669.976C908.358 670.257 911.83 667.021 911.83 662.747V479.135C911.827 477.08 911.011 475.109 909.56 473.654C908.109 472.198 906.142 471.375 904.086 471.365L630.846 470.234C627.278 470.22 624.392 473.363 624.392 477.255V644.494C624.392 648.39 627.278 651.733 630.846 651.967Z" fill="white"/>
<path d="M758.031 463.794C758.031 465.743 759.539 467.327 761.404 467.333C763.27 467.34 764.786 465.759 764.786 463.807C764.786 461.856 763.271 460.268 761.404 460.268C759.538 460.268 758.031 461.846 758.031 463.794Z" fill="white"/>
<g style="mix-blend-mode:soft-light" opacity="0.48">
<path d="M692.389 607.813C715.006 595.645 732.788 611.064 749.95 595.851C760.354 586.628 755.246 579.749 768.049 565.966C782.229 550.701 791.461 555.832 805.712 542.093C823.731 524.72 814.711 511.204 830.239 498.735C849.068 483.603 869.375 497.607 887.299 483.096C895.03 476.838 899.271 467.738 901.486 458.063H919.024C920.5 458.063 921.915 458.649 922.958 459.692C924.001 460.735 924.587 462.15 924.587 463.626V681.023C924.587 684.094 922.092 686.41 919.024 686.19L620.033 664.968C618.56 664.863 617.265 664.007 616.433 662.765C638.32 661.967 651.775 654.63 660.361 647.045C677.173 632.202 674.257 617.569 692.389 607.813Z" fill="white"/>
</g>
<path d="M629.027 664.393L924.592 686.215L795.721 709.342C794.25 709.607 792.749 709.677 791.259 709.552L484.805 683.7L624.316 664.536C625.877 664.323 627.456 664.275 629.027 664.393Z" fill="#D8DEE8"/>
<g style="mix-blend-mode:multiply" opacity="0.3">
<path d="M881.465 686.765L635.398 668.325L559.241 678.702L803.189 698.413L881.465 686.765Z" fill="#D8DEE8"/>
</g>
<path d="M631.593 522.443L904.864 526.607V476.934H631.593V522.443Z" fill="#D8DEE8"/>
<path d="M718.244 611.043L891.375 618.6V535.257L718.244 532.145V611.043Z" fill="#D8DEE8"/>
<path d="M643.005 553.883L708.129 555.556V531.964L643.005 530.794V553.883Z" fill="#D8DEE8"/>
<path d="M643.005 607.759L708.129 610.601V563.911L643.005 562.061V607.759Z" fill="#D8DEE8"/>
<path d="M643.005 618.342L891.375 630.06V649.853L643.005 636.621V618.342Z" fill="#D8DEE8"/>
<path d="M809.866 685.614C805.345 691.545 806.525 700.607 812.505 705.823C818.485 711.039 827.067 710.463 831.604 704.514C836.141 698.565 834.935 689.479 828.929 684.274C822.923 679.07 814.387 679.682 809.866 685.614ZM826.928 700.446C824.341 703.841 819.451 704.177 816.029 701.199C812.608 698.221 811.939 693.046 814.518 689.657C817.096 686.269 821.983 685.925 825.406 688.895C828.829 691.865 829.516 697.05 826.928 700.446Z" fill="url(#paint9_linear)"/>
<path d="M838.991 623.793C834.477 629.716 835.678 638.72 841.678 643.872C847.678 649.025 856.271 648.406 860.802 642.462C865.332 636.518 864.105 627.494 858.077 622.352C852.05 617.21 843.497 617.869 838.991 623.793ZM856.111 638.447C853.526 641.837 848.628 642.199 845.196 639.255C841.763 636.312 841.079 631.173 843.659 627.787C846.24 624.402 851.127 624.036 854.56 626.969C857.992 629.903 858.694 635.057 856.111 638.447Z" fill="url(#paint10_linear)"/>
<path d="M914.141 603.335C909.6 609.29 910.868 618.329 916.968 623.491C923.067 628.653 931.77 628.016 936.325 622.039C940.88 616.063 939.589 607.003 933.46 601.851C927.331 596.699 918.679 597.378 914.141 603.335ZM931.553 618.015C928.954 621.424 923.997 621.797 920.505 618.847C917.014 615.897 916.294 610.74 918.887 607.337C921.48 603.934 926.43 603.554 929.921 606.493C933.413 609.431 934.151 614.605 931.553 618.015Z" fill="url(#paint11_linear)"/>
<path d="M852.316 543.039C847.822 548.929 849.028 557.836 855.011 562.892C860.995 567.948 869.562 567.269 874.071 561.346C878.58 555.423 877.343 546.506 871.338 541.462C865.334 536.417 856.809 537.14 852.316 543.039ZM869.391 557.419C866.819 560.795 861.939 561.182 858.514 558.301C855.09 555.42 854.404 550.333 856.971 546.964C859.538 543.595 864.411 543.201 867.835 546.071C871.26 548.94 871.967 554.037 869.391 557.419Z" fill="url(#paint12_linear)"/>
<path d="M756.138 591.677L752.661 596.24L789.738 628.25L814.063 687.782L819.403 685.706L794.429 624.688L756.138 591.677Z" fill="url(#paint13_linear)"/>
<path d="M776.773 564.599L773.296 569.162L840.575 626.773L844.088 622.162L776.773 564.599Z" fill="url(#paint14_linear)"/>
<path d="M797.41 537.52L793.933 542.083L838.209 579.691L890.411 587.12L914.746 607.653L918.28 603.016L892.543 581.332L840.341 573.935L797.41 537.52Z" fill="url(#paint15_linear)"/>
<path d="M818.047 510.442L814.568 515.005L853.643 547.923L857.141 543.332L818.047 510.442Z" fill="url(#paint16_linear)"/>
<path d="M605.257 292.293C609.555 286.653 608.586 278.345 603.105 273.78C597.624 269.215 589.705 270.098 585.42 275.72C581.135 281.342 582.08 289.628 587.539 294.209C592.997 298.79 600.957 297.934 605.257 292.293ZM589.664 279.267C590.237 278.507 590.96 277.873 591.787 277.402C592.615 276.932 593.53 276.636 594.476 276.533C595.423 276.429 596.38 276.52 597.29 276.801C598.199 277.081 599.042 277.545 599.766 278.163C602.892 280.769 603.442 285.511 600.99 288.728C598.537 291.944 594 292.437 590.878 289.824C587.756 287.211 587.216 282.479 589.664 279.271V279.267Z" fill="url(#paint17_linear)"/>
<path d="M576.292 350.503C580.597 344.855 579.648 336.496 574.186 331.875C568.725 327.255 560.812 328.097 556.515 333.729C552.219 339.361 553.151 347.7 558.592 352.331C564.032 356.961 571.987 356.151 576.292 350.503ZM560.748 337.319C563.202 334.102 567.725 333.628 570.837 336.263C573.949 338.899 574.492 343.672 572.036 346.899C569.58 350.125 565.05 350.59 561.938 347.944C558.826 345.298 558.3 340.535 560.751 337.319H560.748Z" fill="url(#paint18_linear)"/>
<path d="M506.864 371.304C511.146 365.685 510.253 357.354 504.88 352.74C499.506 348.126 491.686 348.949 487.417 354.551C483.148 360.153 484.02 368.458 489.372 373.089C494.724 377.719 502.582 376.924 506.864 371.304ZM491.578 358.136C494.017 354.935 498.49 354.472 501.558 357.107C504.626 359.741 505.132 364.494 502.689 367.701C500.246 370.908 495.765 371.364 492.708 368.723C489.652 366.083 489.14 361.336 491.578 358.134V358.136Z" fill="url(#paint19_linear)"/>
<path d="M562.265 426.953C566.588 421.28 565.645 412.831 560.171 408.124C554.696 403.417 546.762 404.207 542.453 409.861C538.143 415.516 539.064 423.949 544.516 428.666C549.968 433.383 557.942 432.627 562.265 426.953ZM546.694 413.52C549.148 410.289 553.693 409.845 556.813 412.538C559.933 415.231 560.47 420.05 558.004 423.285C555.539 426.519 550.992 426.961 547.875 424.266C544.758 421.572 544.231 416.75 546.697 413.52H546.694Z" fill="url(#paint20_linear)"/>
<path d="M654.157 378.951L657.539 374.512L622.507 345.04L600.551 290.353L595.561 292.458L618.03 348.515L654.157 378.951Z" fill="url(#paint21_linear)"/>
<path d="M634.086 405.287L637.468 400.849L574.88 347.761L571.53 352.155L634.086 405.287Z" fill="url(#paint22_linear)"/>
<path d="M614.015 431.624L617.397 427.185L576.184 391.942L528.049 385.919L506.437 367.316L503.106 371.686L525.947 391.376L574.08 397.427L614.015 431.624Z" fill="url(#paint23_linear)"/>
<path d="M593.944 457.96L597.326 453.523L561.129 422.316L557.767 426.729L593.944 457.96Z" fill="url(#paint24_linear)"/>
<path d="M582.116 487.255C582.116 559.63 638.71 616.562 711.046 614.341C786.321 612.029 849.63 547.018 849.63 469.213C849.63 391.409 786.32 334.941 711.046 342.779C638.71 350.316 582.116 414.881 582.116 487.255Z" fill="url(#paint25_linear)"/>
<path d="M562.568 481.01C562.568 553.384 619.161 610.316 691.497 608.096C766.774 605.784 830.081 540.773 830.081 462.968C830.081 385.163 766.773 328.696 691.497 336.533C619.164 344.076 562.568 408.641 562.568 481.01Z" fill="url(#paint26_linear)"/>
<path d="M568.248 480.632C568.248 549.819 622.406 604.153 691.494 601.915C763.275 599.591 823.533 537.548 823.533 463.421C823.533 389.295 763.275 335.377 691.498 342.73C622.397 349.809 568.248 411.445 568.248 480.632Z" fill="url(#paint27_linear)"/>
<path d="M572.314 480.356C572.314 547.26 624.711 599.739 691.494 597.495C760.783 595.169 818.885 535.246 818.885 463.732C818.885 392.219 760.783 340.136 691.497 347.149C624.711 353.911 572.314 413.453 572.314 480.356Z" fill="url(#paint28_linear)"/>
<path style="mix-blend-mode:multiply" opacity="0.3" d="M713.062 496.742C709.036 456.972 672.485 440.131 677.255 403.552C680.2 381.006 697.285 362.005 716.348 347.168C774.171 353.232 818.885 401.111 818.885 463.734C818.885 535.247 760.783 595.17 691.496 597.497C684.919 597.716 678.334 597.395 671.809 596.537C699.325 569.155 716.521 530.913 713.062 496.742Z" fill="url(#paint29_linear)"/>
<path d="M532.717 708.673C532.49 707.415 528.426 706.276 526.413 707.961C525.415 708.797 524.726 710.494 525.304 711.26C525.515 711.539 524.65 712.029 525.479 712.039C528.208 712.071 532.945 709.923 532.717 708.673Z" fill="url(#paint30_linear)"/>
<path d="M528.274 708.679L524.059 708.889C525.518 706.235 523.763 699.013 523.763 699.013L528.314 699.145C528.314 699.145 528.203 701.243 527.925 704.357C527.83 705.423 528.005 707.029 528.274 708.679Z" fill="url(#paint31_linear)"/>
<path d="M528.83 708.616C528.83 708.616 523.797 707.457 523.254 708.452C522.71 709.447 522.287 712.124 525.479 712.037C528.671 711.95 529.113 709.462 528.83 708.616Z" fill="url(#paint32_linear)"/>
<path d="M586.078 717.799C585.675 716.585 581.497 716.026 579.736 717.976C578.864 718.945 578.427 720.722 579.1 721.399C579.347 721.646 578.563 722.251 579.381 722.145C582.097 721.793 586.479 719.005 586.078 717.799Z" fill="url(#paint33_linear)"/>
<path d="M581.135 718.969L576.994 719.787C578.057 716.95 575.284 710.055 575.284 710.055L579.808 709.535C579.808 709.535 579.998 711.626 580.169 714.748C580.228 715.81 580.632 717.374 581.135 718.969Z" fill="url(#paint34_linear)"/>
<path d="M582.22 718.287C582.22 718.287 577.076 717.844 576.676 718.909C576.277 719.974 576.233 722.672 579.381 722.145C582.529 721.618 582.619 719.086 582.22 718.287Z" fill="url(#paint35_linear)"/>
<path d="M544.169 573.19C543.041 592.477 541.429 612.511 539.334 633.29C536.87 657.341 533.876 680.31 530.518 702.146C526.379 703.565 522.554 702.146 522.554 702.146C522.554 702.146 517.715 694.221 514.021 673.153C511.652 659.637 511.488 659.807 511.462 657.446C511.328 645.551 515.502 642.107 516.297 631.474C517.033 621.637 513.901 618.69 512.031 607.615C510.592 599.107 510.053 586.69 514.59 570.474L544.169 573.19Z" fill="url(#paint36_linear)"/>
<path style="mix-blend-mode:multiply" opacity="0.3" d="M544.169 573.19C543.041 592.477 541.429 612.511 539.334 633.29C536.87 657.341 533.876 680.31 530.518 702.146C526.379 703.565 522.554 702.146 522.554 702.146C522.606 700.126 522.748 697.074 523.17 693.401C524.29 683.643 526.075 680.866 526.256 674.878C526.492 667.219 523.718 666.983 523.17 659.442C522.32 647.752 528.733 644.98 529.344 634.736C529.985 623.921 523.213 620.362 518.025 606.952C514.962 599.035 512.244 587.155 514.589 570.466L544.169 573.19Z" fill="url(#paint37_linear)"/>
<path d="M564.932 572.586C578.415 618.105 583.805 665.637 580.858 713.019L575.459 714.529C564.987 703.566 561.244 693.498 559.815 686.14C557.702 675.258 560.887 671.568 558.109 659.262C557.471 656.43 556.571 653.39 546.165 632.987C536.232 613.517 534.196 610.686 532.513 603.7C530.113 593.719 530.746 584.866 531.66 578.935L564.932 572.586Z" fill="url(#paint38_linear)"/>
<path d="M609.596 531.327L627.371 489.692C627.58 489.203 627.68 488.674 627.663 488.143C627.647 487.611 627.515 487.09 627.277 486.615C627.039 486.139 626.7 485.722 626.284 485.391C625.868 485.06 625.385 484.823 624.868 484.698L592.308 476.79C591.456 476.583 590.559 476.689 589.778 477.088C588.998 477.486 588.386 478.152 588.054 478.963L571.706 518.981C571.514 519.452 571.422 519.957 571.436 520.466C571.45 520.974 571.57 521.474 571.788 521.934C572.006 522.393 572.318 522.802 572.703 523.135C573.088 523.467 573.538 523.716 574.024 523.865L605.155 533.39C606.02 533.655 606.951 533.591 607.771 533.21C608.591 532.829 609.241 532.159 609.596 531.327Z" fill="#26264F"/>
<path d="M608.793 529.324L625.396 490.433C625.591 489.976 625.684 489.483 625.669 488.986C625.654 488.49 625.531 488.003 625.308 487.559C625.086 487.116 624.769 486.726 624.381 486.417C623.992 486.107 623.541 485.887 623.058 485.77L592.645 478.392C591.85 478.199 591.012 478.298 590.283 478.67C589.555 479.042 588.984 479.664 588.674 480.421L573.402 517.799C573.223 518.239 573.137 518.712 573.15 519.186C573.163 519.661 573.275 520.128 573.479 520.557C573.683 520.987 573.974 521.369 574.333 521.679C574.693 521.99 575.113 522.222 575.567 522.361L604.648 531.258C605.456 531.505 606.326 531.444 607.092 531.087C607.857 530.73 608.463 530.102 608.793 529.324Z" fill="url(#paint39_linear)"/>
<path d="M619.041 517.891L619.575 512.982L622.402 507.593C622.787 506.859 622.988 506.043 622.988 505.214V499.864L619.575 507.757C619.575 507.757 617.335 505.729 616.482 505.302C615.63 504.875 615.735 506.583 616.374 507.223C617.014 507.863 616.047 513.089 616.702 513.622L616.489 516.823L619.041 517.891Z" fill="url(#paint40_linear)"/>
<path d="M591.951 486.642C589.298 480.151 583.607 476.419 580.646 474.483C573.656 469.902 569.181 470.74 553.129 468.297C531.736 465.041 529.175 461.957 521.986 464.457C512.54 467.741 507.607 476.314 505.348 480.243C493.95 500.04 507.275 510.116 503.854 549.569C502.456 565.682 498.875 579.682 507.479 587.965C509.292 589.707 511.32 590.62 515.372 592.443C531.449 599.676 545.862 598.43 554.622 597.562C564.259 596.609 569.132 596.062 571.686 592.654C575.768 587.214 571.566 580.301 570.833 568.336C570.307 559.746 572.26 552.939 576.166 539.326C585.246 507.68 597.037 499.077 591.951 486.642Z" fill="url(#paint41_linear)"/>
<path d="M556.142 456.621C557.124 453.153 555.414 449.939 555.04 449.247C553.467 446.348 553.065 445.952 552.315 445.45L551.273 444.807L551.149 444.759C550.481 444.522 548.204 444.453 547.739 444.551C546.267 444.866 544.694 450.875 545.143 459.372C545.08 459.699 545.021 460.026 544.966 460.354C544.733 461.695 544.547 463.01 544.406 464.297C544.269 465.525 542.525 465.498 541.289 465.419C536.278 465.092 533.824 465.525 533.611 466.272C533.212 467.67 539.157 472.245 546.499 473.274C556.352 473.346 564.367 472.293 563.505 470.746C563.124 470.058 555.488 468.063 553.341 466.085C551.378 464.275 551.542 462.405 551.378 461.067C551.97 460.756 555.426 459.179 556.142 456.621Z" fill="url(#paint42_linear)"/>
<path d="M554.331 442.397C554.321 445.029 553.081 447.84 552.449 448.287C552.078 448.58 551.756 448.931 551.497 449.327C551.433 449.424 551.383 449.529 551.347 449.64C550.769 451.297 553.407 453.249 552.898 453.992C552.53 454.532 550.736 453.811 550.524 454.277C550.322 454.714 551.813 455.62 551.584 456.145C551.42 456.541 550.496 456.178 549.917 456.785C549.629 457.088 549.714 457.327 549.408 458.258C549.252 458.746 549.051 459.219 548.807 459.67C547.898 461.216 545.321 461.78 544.825 461.162C544.687 460.988 544.805 460.844 544.661 460.265C544.547 459.859 544.377 459.47 544.157 459.11C543.624 458.225 542.338 457.592 541.04 456.656C538.637 454.925 537.982 453.449 537.786 452.952C537.717 452.773 537.673 452.639 537.642 452.542C537.017 450.604 537.014 447.753 537.886 445.998C539.347 443.063 542.644 444.455 545.342 441.546C548.451 438.19 546.6 433.604 548.287 433.097C550.156 432.535 554.347 437.527 554.331 442.397Z" fill="#2F2E41"/>
<path d="M551.952 453.375C551.308 452.489 550.174 453.323 550.167 454.468C550.161 455.614 551.272 456.808 552.35 456.582C553.428 456.356 552.821 454.568 551.952 453.375Z" fill="url(#paint43_linear)"/>
<path d="M551.429 451.458L552.926 453.403C552.926 453.403 554.539 455.789 555.481 454.483C556.25 453.414 556.45 453.439 556.498 453.483C556.498 453.483 556.509 453.504 556.511 453.504C556.512 453.504 556.398 452.973 556.285 452.508C556.868 453.343 557.3 454.273 557.564 455.257C557.892 456.469 558.234 457.767 557.55 459.02C557.51 459.092 556.756 460.421 555.349 460.741C555.349 460.741 554.796 460.867 552.458 460.457C552.458 460.457 555.014 458.603 555.053 458.166C555.159 456.968 553.497 456.322 552.263 453.866C551.882 453.103 551.601 452.293 551.429 451.458Z" fill="#2F2E41"/>
<path style="mix-blend-mode:multiply" opacity="0.3" d="M546.302 586.258C549.138 580.612 542.191 573.107 546.73 564.497C550.584 557.187 557.587 558.825 560.801 552.124C564.69 544.032 556.232 537.985 556.535 525.674C556.897 510.949 569.561 496.223 577.013 497.517C581.835 498.353 582.454 505.546 585.849 513.421C582.846 520.005 579.338 528.251 576.161 539.326C572.255 552.939 570.302 559.746 570.829 568.336C571.562 580.301 575.763 587.214 571.681 592.654C569.127 596.059 564.254 596.605 554.617 597.562C545.857 598.43 531.444 599.676 515.367 592.443C513.332 591.528 511.809 590.843 510.567 590.165C535.689 593.937 544.054 590.736 546.302 586.258Z" fill="url(#paint44_linear)"/>
<path d="M619.997 516.932L615.304 514.905C612.66 517.61 609.288 520.239 606.451 519.385C602.223 518.112 603.28 510.333 598.133 496.667C592.298 481.182 585.682 477.196 582.347 475.763C580.485 474.96 579.199 474.425 577.655 474.803C570.544 476.54 568.194 495.07 570.189 508.933C571.313 516.744 573.517 532.06 586.081 539.33C587.864 540.362 597.698 546.038 607.412 541.57C615.722 537.744 620.854 527.929 619.997 516.932Z" fill="url(#paint45_linear)"/>
<path d="M626.06 533.781C626.265 535.164 626.958 536.427 628.013 537.339C629.068 538.251 630.414 538.751 631.805 538.747H632.564C666.757 534.127 692.31 524.889 710.694 510.107C719.718 502.852 727.363 494.018 733.26 484.03C738.53 475.037 742.718 465.446 745.738 455.46L756.653 457.03C757.7 457.175 758.766 457.032 759.738 456.617C760.711 456.202 761.553 455.531 762.177 454.674C762.801 453.817 763.183 452.807 763.283 451.75C763.382 450.693 763.196 449.628 762.743 448.669L744.359 410.306C743.962 409.498 743.387 408.792 742.678 408.24C741.97 407.687 741.146 407.304 740.269 407.118C739.398 406.94 738.498 406.964 737.638 407.188C736.778 407.412 735.98 407.831 735.305 408.412L703.134 436.359C702.316 437.079 701.711 438.012 701.386 439.055C701.062 440.098 701.03 441.211 701.295 442.271C701.561 443.334 702.12 444.3 702.909 445.056C703.699 445.812 704.685 446.328 705.753 446.544L715.428 448.6C712.886 462.108 707.271 474.843 699.02 485.809C685.945 503.154 668.09 513.525 655.359 519.091C649.644 521.626 643.763 523.764 637.757 525.489C635.459 526.136 633.713 526.551 632.61 526.806L631.277 527.106H630.978C630.219 527.219 629.489 527.481 628.831 527.878C628.172 528.275 627.598 528.798 627.142 529.418C626.685 530.038 626.354 530.743 626.169 531.491C625.983 532.24 625.946 533.018 626.06 533.781ZM648.052 529.161C651.062 528.076 654.417 526.852 658.002 525.189C671.399 519.253 690.311 508.305 704.283 489.781C713.888 477.049 720.204 462.122 722.666 446.336C722.798 445.467 722.595 444.581 722.1 443.856C721.605 443.131 720.855 442.622 720.001 442.433L708.994 440.123L738.867 414.278L755.78 450.078L743.785 448.346H743.302C742.585 448.336 741.884 448.554 741.298 448.969C740.712 449.384 740.271 449.974 740.039 450.656C737.1 461.097 732.845 471.117 727.377 480.473C721.901 489.773 714.792 497.997 706.397 504.748C692.058 516.273 672.916 524.334 648.052 529.254V529.161Z" fill="url(#paint46_linear)"/>
<path d="M728.712 443.904C719.532 501.104 664.45 525.399 638.057 530.397C717.925 522.093 745.543 472.35 749.368 448.517L765.165 450.142L749.368 407L713.794 438.137L728.712 443.904Z" fill="url(#paint47_linear)" stroke="#FFDB44" stroke-width="3" stroke-linecap="round" stroke-linejoin="round"/>
<defs>
<filter id="filter0_d" x="62.7219" y="171.149" width="809.363" height="683.17" filterUnits="userSpaceOnUse" color-interpolation-filters="sRGB">
<feFlood flood-opacity="0" result="BackgroundImageFix"/>
<feColorMatrix in="SourceAlpha" type="matrix" values="0 0 0 0 0 0 0 0 0 0 0 0 0 0 0 0 0 0 127 0"/>
<feOffset dy="4"/>
<feGaussianBlur stdDeviation="2"/>
<feColorMatrix type="matrix" values="0 0 0 0 0 0 0 0 0 0 0 0 0 0 0 0 0 0 0.25 0"/>
<feBlend mode="normal" in2="BackgroundImageFix" result="effect1_dropShadow"/>
<feBlend mode="normal" in="SourceGraphic" in2="effect1_dropShadow" result="shape"/>
</filter>
<filter id="filter1_d" x="739.041" y="372.481" width="203.663" height="249.701" filterUnits="userSpaceOnUse" color-interpolation-filters="sRGB">
<feFlood flood-opacity="0" result="BackgroundImageFix"/>
<feColorMatrix in="SourceAlpha" type="matrix" values="0 0 0 0 0 0 0 0 0 0 0 0 0 0 0 0 0 0 127 0"/>
<feOffset dy="4"/>
<feGaussianBlur stdDeviation="2"/>
<feColorMatrix type="matrix" values="0 0 0 0 0 0 0 0 0 0 0 0 0 0 0 0 0 0 0.25 0"/>
<feBlend mode="normal" in2="BackgroundImageFix" result="effect1_dropShadow"/>
<feBlend mode="normal" in="SourceGraphic" in2="effect1_dropShadow" result="shape"/>
</filter>
<filter id="filter2_d" x="800.958" y="367.763" width="137.907" height="238.269" filterUnits="userSpaceOnUse" color-interpolation-filters="sRGB">
<feFlood flood-opacity="0" result="BackgroundImageFix"/>
<feColorMatrix in="SourceAlpha" type="matrix" values="0 0 0 0 0 0 0 0 0 0 0 0 0 0 0 0 0 0 127 0"/>
<feOffset dy="4"/>
<feGaussianBlur stdDeviation="2"/>
<feColorMatrix type="matrix" values="0 0 0 0 0 0 0 0 0 0 0 0 0 0 0 0 0 0 0.25 0"/>
<feBlend mode="normal" in2="BackgroundImageFix" result="effect1_dropShadow"/>
<feBlend mode="normal" in="SourceGraphic" in2="effect1_dropShadow" result="shape"/>
</filter>
<linearGradient id="paint0_linear" x1="850.049" y1="293.556" x2="581.753" y2="409.602" gradientUnits="userSpaceOnUse">
<stop stop-color="#31EFB8"/>
<stop offset="1" stop-color="#FB6FBB"/>
</linearGradient>
<linearGradient id="paint1_linear" x1="-75936.6" y1="17896.6" x2="-163166" y2="47976.5" gradientUnits="userSpaceOnUse">
<stop stop-color="#5ECCAC"/>
<stop offset="1" stop-color="#FB6FBB"/>
</linearGradient>
<linearGradient id="paint2_linear" x1="-411033" y1="65493.3" x2="-490977" y2="199938" gradientUnits="userSpaceOnUse">
<stop stop-color="#31EFB8"/>
<stop offset="1" stop-color="#9571F6"/>
</linearGradient>
<linearGradient id="paint3_linear" x1="-85822.9" y1="43002.9" x2="-136776" y2="61148.9" gradientUnits="userSpaceOnUse">
<stop stop-color="#31EFB8"/>
<stop offset="1" stop-color="#9571F6"/>
</linearGradient>
<linearGradient id="paint4_linear" x1="798.996" y1="225.127" x2="944.831" y2="558.304" gradientUnits="userSpaceOnUse">
<stop stop-color="#FF9263"/>
<stop offset="0.0001" stop-color="#FF4D00"/>
<stop offset="0.8125" stop-color="#FFF510"/>
<stop offset="1" stop-color="#FFA950"/>
</linearGradient>
<linearGradient id="paint5_linear" x1="-398930" y1="623405" x2="-526853" y2="894622" gradientUnits="userSpaceOnUse">
<stop stop-color="#FCB148"/>
<stop offset="0.05" stop-color="#FDBA46"/>
<stop offset="0.14" stop-color="#FFC244"/>
<stop offset="0.32" stop-color="#FFC444"/>
<stop offset="0.48" stop-color="#FDB946"/>
<stop offset="0.78" stop-color="#F99C4D"/>
<stop offset="0.87" stop-color="#F8924F"/>
<stop offset="1" stop-color="#F8924F"/>
</linearGradient>
<linearGradient id="paint6_linear" x1="-74643.1" y1="350512" x2="-162655" y2="413136" gradientUnits="userSpaceOnUse">
<stop stop-color="#FCB148"/>
<stop offset="0.05" stop-color="#FDBA46"/>
<stop offset="0.14" stop-color="#FFC244"/>
<stop offset="0.32" stop-color="#FFC444"/>
<stop offset="0.48" stop-color="#FDB946"/>
<stop offset="0.78" stop-color="#F99C4D"/>
<stop offset="0.87" stop-color="#F8924F"/>
<stop offset="1" stop-color="#F8924F"/>
</linearGradient>
<linearGradient id="paint7_linear" x1="-49396" y1="188807" x2="-99153.1" y2="232626" gradientUnits="userSpaceOnUse">
<stop stop-color="#FCB148"/>
<stop offset="0.05" stop-color="#FDBA46"/>
<stop offset="0.14" stop-color="#FFC244"/>
<stop offset="0.32" stop-color="#FFC444"/>
<stop offset="0.48" stop-color="#FDB946"/>
<stop offset="0.78" stop-color="#F99C4D"/>
<stop offset="0.87" stop-color="#F8924F"/>
<stop offset="1" stop-color="#F8924F"/>
</linearGradient>
<linearGradient id="paint8_linear" x1="-234599" y1="79564.9" x2="-238841" y2="121261" gradientUnits="userSpaceOnUse">
<stop stop-color="#FCB148"/>
<stop offset="0.05" stop-color="#FDBA46"/>
<stop offset="0.14" stop-color="#FFC244"/>
<stop offset="0.32" stop-color="#FFC444"/>
<stop offset="0.48" stop-color="#FDB946"/>
<stop offset="0.78" stop-color="#F99C4D"/>
<stop offset="0.87" stop-color="#F8924F"/>
<stop offset="1" stop-color="#F8924F"/>
</linearGradient>
<linearGradient id="paint9_linear" x1="-31985.3" y1="70264" x2="-72547.7" y2="23400.1" gradientUnits="userSpaceOnUse">
<stop stop-color="#137753"/>
<stop offset="1" stop-color="#169E75"/>
</linearGradient>
<linearGradient id="paint10_linear" x1="-32008.4" y1="69786.4" x2="-72283.4" y2="22900.2" gradientUnits="userSpaceOnUse">
<stop stop-color="#137753"/>
<stop offset="1" stop-color="#169E75"/>
</linearGradient>
<linearGradient id="paint11_linear" x1="-32359.6" y1="70041.9" x2="-72739.4" y2="22612.8" gradientUnits="userSpaceOnUse">
<stop stop-color="#137753"/>
<stop offset="1" stop-color="#169E75"/>
</linearGradient>
<linearGradient id="paint12_linear" x1="-31885.8" y1="68974.1" x2="-71690" y2="22296.5" gradientUnits="userSpaceOnUse">
<stop stop-color="#137753"/>
<stop offset="1" stop-color="#169E75"/>
</linearGradient>
<linearGradient id="paint13_linear" x1="-79608" y1="234013" x2="-215144" y2="119618" gradientUnits="userSpaceOnUse">
<stop stop-color="#137753"/>
<stop offset="1" stop-color="#169E75"/>
</linearGradient>
<linearGradient id="paint14_linear" x1="-84463.1" y1="151574" x2="-168916" y2="34709.3" gradientUnits="userSpaceOnUse">
<stop stop-color="#137753"/>
<stop offset="1" stop-color="#169E75"/>
</linearGradient>
<linearGradient id="paint15_linear" x1="-148925" y1="170876" x2="-225548" y2="5768.94" gradientUnits="userSpaceOnUse">
<stop stop-color="#137753"/>
<stop offset="1" stop-color="#169E75"/>
</linearGradient>
<linearGradient id="paint16_linear" x1="-50445.1" y1="91545.4" x2="-101396" y2="21211.6" gradientUnits="userSpaceOnUse">
<stop stop-color="#137753"/>
<stop offset="1" stop-color="#169E75"/>
</linearGradient>
<linearGradient id="paint17_linear" x1="-29765.9" y1="64143.6" x2="-66954.4" y2="20824.4" gradientUnits="userSpaceOnUse">
<stop stop-color="#137753"/>
<stop offset="1" stop-color="#169E75"/>
</linearGradient>
<linearGradient id="paint18_linear" x1="-29757.9" y1="64554.5" x2="-67189.2" y2="21244.8" gradientUnits="userSpaceOnUse">
<stop stop-color="#137753"/>
<stop offset="1" stop-color="#169E75"/>
</linearGradient>
<linearGradient id="paint19_linear" x1="-29452.2" y1="64349.3" x2="-66798.5" y2="21521.6" gradientUnits="userSpaceOnUse">
<stop stop-color="#137753"/>
<stop offset="1" stop-color="#169E75"/>
</linearGradient>
<linearGradient id="paint20_linear" x1="-29851.7" y1="65282.7" x2="-67703" y2="21813.3" gradientUnits="userSpaceOnUse">
<stop stop-color="#137753"/>
<stop offset="1" stop-color="#169E75"/>
</linearGradient>
<linearGradient id="paint21_linear" x1="-74028.4" y1="215479" x2="-199127" y2="109124" gradientUnits="userSpaceOnUse">
<stop stop-color="#137753"/>
<stop offset="1" stop-color="#169E75"/>
</linearGradient>
<linearGradient id="paint22_linear" x1="-78819.9" y1="140067" x2="-156794" y2="31446.1" gradientUnits="userSpaceOnUse">
<stop stop-color="#137753"/>
<stop offset="1" stop-color="#169E75"/>
</linearGradient>
<linearGradient id="paint23_linear" x1="-137108" y1="156559" x2="-207259" y2="5036.79" gradientUnits="userSpaceOnUse">
<stop stop-color="#137753"/>
<stop offset="1" stop-color="#169E75"/>
</linearGradient>
<linearGradient id="paint24_linear" x1="-47073.1" y1="86994.6" x2="-95865.1" y2="21182.4" gradientUnits="userSpaceOnUse">
<stop stop-color="#137753"/>
<stop offset="1" stop-color="#169E75"/>
</linearGradient>
<linearGradient id="paint25_linear" x1="761.715" y1="492.915" x2="917.724" y2="542.983" gradientUnits="userSpaceOnUse">
<stop stop-color="#FCB148"/>
<stop offset="0.05" stop-color="#FDBA46"/>
<stop offset="0.14" stop-color="#FFC244"/>
<stop offset="0.32" stop-color="#FFC444"/>
<stop offset="0.48" stop-color="#FDB946"/>
<stop offset="0.78" stop-color="#F99C4D"/>
<stop offset="0.87" stop-color="#F8924F"/>
<stop offset="1" stop-color="#F8924F"/>
</linearGradient>
<linearGradient id="paint26_linear" x1="635.514" y1="337.625" x2="774.788" y2="644.89" gradientUnits="userSpaceOnUse">
<stop stop-color="#FFDB44"/>
<stop offset="1" stop-color="#FEEF06"/>
</linearGradient>
<linearGradient id="paint27_linear" x1="-545889" y1="746209" x2="-502472" y2="513268" gradientUnits="userSpaceOnUse">
<stop stop-color="#FCB148"/>
<stop offset="0.05" stop-color="#FDBA46"/>
<stop offset="0.14" stop-color="#FFC244"/>
<stop offset="0.32" stop-color="#FFC444"/>
<stop offset="0.48" stop-color="#FDB946"/>
<stop offset="0.78" stop-color="#F99C4D"/>
<stop offset="0.87" stop-color="#F8924F"/>
<stop offset="1" stop-color="#F8924F"/>
</linearGradient>
<linearGradient id="paint28_linear" x1="-441368" y1="356145" x2="-613240" y2="714486" gradientUnits="userSpaceOnUse">
<stop stop-color="#FCB148"/>
<stop offset="0.05" stop-color="#FDBA46"/>
<stop offset="0.14" stop-color="#FFC244"/>
<stop offset="0.32" stop-color="#FFC444"/>
<stop offset="0.48" stop-color="#FDB946"/>
<stop offset="0.78" stop-color="#F99C4D"/>
<stop offset="0.87" stop-color="#F8924F"/>
<stop offset="1" stop-color="#F8924F"/>
</linearGradient>
<linearGradient id="paint29_linear" x1="-233650" y1="378502" x2="-447787" y2="645507" gradientUnits="userSpaceOnUse">
<stop stop-color="#FCB148"/>
<stop offset="0.05" stop-color="#FDBA46"/>
<stop offset="0.14" stop-color="#FFC244"/>
<stop offset="0.32" stop-color="#FFC444"/>
<stop offset="0.48" stop-color="#FDB946"/>
<stop offset="0.78" stop-color="#F99C4D"/>
<stop offset="0.87" stop-color="#F8924F"/>
<stop offset="1" stop-color="#F8924F"/>
</linearGradient>
<linearGradient id="paint30_linear" x1="534.997" y1="704.977" x2="526.051" y2="710.923" gradientUnits="userSpaceOnUse">
<stop stop-color="#448C47"/>
<stop offset="1" stop-color="#448C47"/>
</linearGradient>
<linearGradient id="paint31_linear" x1="526.519" y1="710.876" x2="525.824" y2="696.911" gradientUnits="userSpaceOnUse">
<stop stop-color="#FFC444"/>
<stop offset="1" stop-color="#F36F56"/>
</linearGradient>
<linearGradient id="paint32_linear" x1="-30586.6" y1="15384.9" x2="-30775.5" y2="15638.5" gradientUnits="userSpaceOnUse">
<stop stop-color="#448C47"/>
<stop offset="1" stop-color="#26264F"/>
</linearGradient>
<linearGradient id="paint33_linear" x1="-37103.1" y1="18116" x2="-37368.6" y2="18433.1" gradientUnits="userSpaceOnUse">
<stop stop-color="#448C47"/>
<stop offset="1" stop-color="#26264F"/>
</linearGradient>
<linearGradient id="paint34_linear" x1="-22009.9" y1="35555" x2="-22178.6" y2="34695.1" gradientUnits="userSpaceOnUse">
<stop stop-color="#FFC444"/>
<stop offset="1" stop-color="#F36F56"/>
</linearGradient>
<linearGradient id="paint35_linear" x1="-29697.2" y1="13495.6" x2="-29888.7" y2="13745.9" gradientUnits="userSpaceOnUse">
<stop stop-color="#448C47"/>
<stop offset="1" stop-color="#26264F"/>
</linearGradient>
<linearGradient id="paint36_linear" x1="-22498.6" y1="316604" x2="-41497.2" y2="316388" gradientUnits="userSpaceOnUse">
<stop stop-color="#137753"/>
<stop offset="1" stop-color="#893976"/>
</linearGradient>
<linearGradient id="paint37_linear" x1="-86479.1" y1="359674" x2="-92151.8" y2="359674" gradientUnits="userSpaceOnUse">
<stop stop-color="#311944"/>
<stop offset="1" stop-color="#6B3976"/>
</linearGradient>
<linearGradient id="paint38_linear" x1="-34711.6" y1="339633" x2="-63806.5" y2="339160" gradientUnits="userSpaceOnUse">
<stop stop-color="#137753"/>
<stop offset="1" stop-color="#893976"/>
</linearGradient>
<linearGradient id="paint39_linear" x1="-35864.6" y1="127347" x2="-65893.8" y2="125997" gradientUnits="userSpaceOnUse">
<stop stop-color="#137753"/>
<stop offset="1" stop-color="#893976"/>
</linearGradient>
<linearGradient id="paint40_linear" x1="-16325.5" y1="34862.1" x2="-19753.2" y2="37036.5" gradientUnits="userSpaceOnUse">
<stop stop-color="#FFC444"/>
<stop offset="1" stop-color="#F36F56"/>
</linearGradient>
<linearGradient id="paint41_linear" x1="-294422" y1="372462" x2="-253850" y2="310516" gradientUnits="userSpaceOnUse">
<stop stop-color="#20A58D"/>
<stop offset="1" stop-color="#FF9A03"/>
</linearGradient>
<linearGradient id="paint42_linear" x1="-164888" y1="74306.5" x2="-168760" y2="83698.3" gradientUnits="userSpaceOnUse">
<stop stop-color="#FFC444"/>
<stop offset="1" stop-color="#F36F56"/>
</linearGradient>
<linearGradient id="paint43_linear" x1="-13936" y1="7906.77" x2="-14577.6" y2="8968.2" gradientUnits="userSpaceOnUse">
<stop stop-color="#FFC444"/>
<stop offset="1" stop-color="#F36F56"/>
</linearGradient>
<linearGradient id="paint44_linear" x1="-190992" y1="204012" x2="-224077" y2="227608" gradientUnits="userSpaceOnUse">
<stop stop-color="#FF9085"/>
<stop offset="1" stop-color="#FB6FBB"/>
</linearGradient>
<linearGradient id="paint45_linear" x1="-62267.2" y1="123398" x2="20428.6" y2="150657" gradientUnits="userSpaceOnUse">
<stop stop-color="#FF5304"/>
<stop offset="1" stop-color="#FF4404"/>
</linearGradient>
<linearGradient id="paint46_linear" x1="625.996" y1="472.873" x2="775.39" y2="474.829" gradientUnits="userSpaceOnUse">
<stop stop-color="#FC8800"/>
<stop offset="1" stop-color="#FF3D00"/>
</linearGradient>
<linearGradient id="paint47_linear" x1="638.057" y1="468.698" x2="780.384" y2="470.593" gradientUnits="userSpaceOnUse">
<stop stop-color="#FFDB44"/>
<stop offset="1" stop-color="#FFDB44"/>
</linearGradient>
</defs>
</svg>
