<svg width="472" height="453" viewBox="0 0 472 453" fill="none" xmlns="http://www.w3.org/2000/svg">
<path d="M427.999 321.618C332.572 429.853 109.092 431.591 47.2236 371.469C22.5317 347.479 16.0123 306.272 6.43006 245.746C1.81765 216.61 1.15686 193.123 0.764972 177.009C-0.586122 122.197 -1.25839 94.7875 8.69117 76.1407C37.197 22.7652 136.215 1.9913 200.215 1.02879C204.682 0.959 209.188 0.985171 213.733 1.1073C288.666 3.08757 373.237 30.7487 425.392 89.8586C430.843 96.0241 435.876 102.47 440.466 109.164C488.071 178.584 480.061 262.576 427.999 321.618Z" fill="#F4F7FA"/>
<g opacity="0.3">
<path opacity="0.3" d="M98.762 35.6439L101.058 45.7124C96.1678 47.4595 91.4602 49.5836 86.9891 52.0603L79.34 44.385C78.8408 43.8874 78.2354 43.4824 77.5587 43.1934C76.8821 42.9043 76.1476 42.7369 75.3976 42.7008C74.6477 42.6647 73.897 42.7607 73.1891 42.9831C72.4811 43.2055 71.8299 43.55 71.2728 43.9968L56.4469 55.7606C55.3053 56.659 54.6091 57.9202 54.5093 59.2707C54.4096 60.6213 54.9143 61.9523 55.914 62.975L63.6303 70.7565C60.3652 74.4481 57.4617 78.3803 54.9515 82.5101L43.8427 79.2402C40.847 78.3591 37.5922 79.8218 36.5707 82.5189L30.1759 99.3845C29.1511 102.087 30.7515 104.998 33.7537 105.887L44.9035 109.183C44.1146 113.845 43.7811 118.558 43.9066 123.271L32.2911 125.452C30.7819 125.746 29.4622 126.552 28.6144 127.698C27.7665 128.843 27.4578 130.237 27.7541 131.582L31.5943 149.135C31.7321 149.798 32.018 150.43 32.4353 150.994C32.8525 151.558 33.3926 152.042 34.0238 152.418C34.6551 152.794 35.3647 153.054 36.1109 153.183C36.8572 153.312 37.6251 153.308 38.3694 153.17L50.0193 150.989C51.9114 155.401 54.2337 159.658 56.9601 163.711L48.0468 170.835C46.8903 171.762 46.1868 173.052 46.0861 174.431C45.9854 175.81 46.4952 177.169 47.5073 178.22L60.7051 191.73C61.2045 192.244 61.8153 192.663 62.501 192.964C63.1868 193.264 63.9336 193.439 64.6972 193.479C65.4608 193.518 66.2256 193.422 66.9462 193.194C67.6667 192.967 68.3285 192.613 68.892 192.155L77.8037 185.004C81.9349 187.972 86.3516 190.613 91.0031 192.898L87.2318 203.097C86.2103 205.859 87.8483 208.838 90.8949 209.752L109.959 215.473C113.012 216.389 116.311 214.891 117.328 212.119L121.044 201.999C126.325 202.701 131.667 202.98 137.004 202.835L139.392 213.266C140.047 216.123 143.132 217.96 146.278 217.369L166.007 213.667C169.162 213.075 171.182 210.279 170.519 207.425L168.117 197.079C173.115 195.307 177.923 193.14 182.484 190.606L190.253 198.436C190.756 198.951 191.372 199.372 192.062 199.673C192.752 199.975 193.503 200.15 194.271 200.19C195.039 200.23 195.808 200.133 196.533 199.905C197.258 199.677 197.924 199.323 198.492 198.863L213.449 186.759C214.597 185.816 215.283 184.513 215.361 183.127C215.44 181.741 214.903 180.384 213.867 179.344L206.133 171.583C209.45 167.781 212.385 163.729 214.905 159.473L225.855 162.711C226.582 162.926 227.351 163.009 228.115 162.957C228.879 162.905 229.624 162.719 230.306 162.408C230.988 162.098 231.593 161.67 232.086 161.149C232.578 160.629 232.949 160.026 233.176 159.377L239.312 142.241C239.783 140.926 239.652 139.5 238.95 138.27C238.247 137.04 237.027 136.103 235.554 135.662L224.711 132.463C225.444 127.694 225.702 122.878 225.483 118.069L236.624 115.98C237.371 115.836 238.077 115.563 238.704 115.177C239.331 114.791 239.866 114.298 240.278 113.728C240.69 113.158 240.971 112.522 241.106 111.855C241.24 111.189 241.224 110.505 241.06 109.844L236.826 92.3635C236.51 91.0277 235.609 89.8575 234.322 89.1094C233.034 88.3613 231.465 88.0963 229.958 88.3724L218.849 90.4559C216.853 86.0194 214.419 81.748 211.575 77.6918L219.969 70.9571C221.103 70.0418 221.783 68.7655 221.859 67.4072C221.936 66.0488 221.403 64.7188 220.377 63.7078L207.055 50.538C206.551 50.0387 205.942 49.6323 205.261 49.3423C204.58 49.0523 203.841 48.8843 203.087 48.848C202.333 48.8116 201.578 48.9077 200.866 49.1306C200.154 49.3535 199.498 49.6989 198.936 50.1469L190.489 56.9048C186.304 53.9928 181.84 51.4118 177.147 49.1917L180.679 39.571C181.151 38.2869 181.03 36.8889 180.342 35.6839C179.654 34.4788 178.455 33.5651 177.007 33.1431L158.207 27.6908C156.762 27.2741 155.19 27.3823 153.835 27.9917C152.48 28.6011 151.453 29.662 150.979 30.9418L147.408 40.5902C142.182 39.9441 136.901 39.7115 131.628 39.8952L129.311 29.9125C129.161 29.2601 128.867 28.6406 128.446 28.0895C128.024 27.5385 127.484 27.0669 126.856 26.7019C126.228 26.337 125.525 26.0859 124.787 25.9631C124.049 25.8404 123.291 25.8485 122.557 25.9868L103.222 29.6173C101.733 29.8988 100.43 30.6896 99.5953 31.8179C98.7603 32.9462 98.4608 34.321 98.762 35.6439ZM65.8324 133.508C58.2177 99.5358 82.6751 66.4034 120.419 59.3227C158.163 52.242 195.231 73.833 203.259 107.727C211.336 141.828 186.987 175.428 148.821 182.586C110.656 189.744 73.4929 167.689 65.8324 133.508Z" fill="url(#paint0_linear)"/>
</g>
<path d="M300.928 99.7568L264.957 362.295C264.416 366.242 267.39 369.729 271.573 370.041L412.421 381.92C420.811 382.254 425.424 378.173 425.966 374.099L462.126 103.334C462.662 99.3076 458.624 95.4968 450.281 95.1915L309.51 92.8201C305.322 92.7343 301.462 95.853 300.928 99.7568Z" fill="url(#paint1_linear)"/>
<path d="M456.651 102.633L420.232 375.133C419.759 378.679 416.625 381.475 412.911 381.99C412.331 381.99 411.732 382.048 411.134 382.006L390.269 380.431L264.885 371.052C260.677 370.737 257.686 367.224 258.231 363.252L294.468 99.0812C295.007 95.1556 298.895 92.0107 303.105 92.1023L351.66 93.1099L449.522 95.1032C449.783 95.1032 450.032 95.1032 450.28 95.1032H450.293C454.339 95.615 457.158 98.8195 456.651 102.633Z" fill="url(#paint2_linear)"/>
<path d="M297.212 113.76L263.669 358.515C263.161 362.224 265.965 365.494 269.888 365.784L407.413 375.914C411.561 376.219 415.38 373.346 415.89 369.528L449.6 117.568C450.105 113.788 447.116 110.621 442.963 110.522L305.279 107.259C301.342 107.166 297.715 110.092 297.212 113.76Z" fill="#D8DEE8"/>
<path d="M371.482 101.589C371.293 102.972 372.359 104.119 373.861 104.154C375.363 104.189 376.735 103.094 376.922 101.711C377.109 100.328 376.042 99.1797 374.54 99.1463C373.038 99.1128 371.669 100.208 371.482 101.589Z" fill="url(#paint3_linear)"/>
<g style="mix-blend-mode:soft-light" opacity="0.5">
<path d="M389.611 379.989C389.829 380.135 390.042 380.28 390.267 380.415L264.883 371.045C260.675 370.729 257.684 367.219 258.229 363.249L294.466 99.0795C295.005 95.1539 298.893 92.009 303.103 92.1006L351.658 93.1096C351.73 93.255 351.8 93.4004 351.871 93.5356C353.945 97.6793 355.396 102.613 356.037 108.465C357.055 117.799 355.99 129.483 352.002 144.064C327.12 235.097 434.642 244.042 383.992 313.242C362.02 343.253 368.305 361.718 381.883 374.031C384.285 376.188 386.868 378.18 389.611 379.989Z" fill="white"/>
</g>
<path d="M209.736 363.144C209.77 366.731 206.932 369.746 203.052 370.036L187.967 371.306L62.2041 381.943C62.0402 381.943 61.8844 381.99 61.7237 381.99C53.6434 381.99 49.1949 378.12 48.6669 374.127L12.5006 103.305C11.9611 99.2804 16.0029 95.615 24.344 95.1018H24.3554L56.316 94.606L165.117 92.7958C169.306 92.7057 173.163 95.8491 173.702 99.7457L175.022 109.397L209.673 362.285C209.705 362.573 209.729 362.859 209.736 363.144Z" fill="url(#paint4_linear)"/>
<path d="M209.747 371.045L189.676 372.547L63.4959 382.006C62.8974 382.048 62.2989 381.99 61.7184 381.99C58.0046 381.475 54.8712 378.703 54.3973 375.156L17.98 102.648C17.4652 98.8339 20.2854 95.6148 24.3436 95.1016H24.3551C24.6043 95.1016 24.847 95.1016 25.1126 95.1016L56.0075 94.4793L171.529 92.0861C175.748 91.996 179.628 95.1394 180.167 99.0723L216.404 363.244C216.945 367.216 213.953 370.728 209.747 371.045Z" fill="url(#paint5_linear)"/>
<path d="M177.414 113.76L210.955 358.515C211.464 362.224 208.66 365.494 204.734 365.784L67.2098 375.914C63.0614 376.219 59.2442 373.346 58.7327 369.528L25.0307 117.568C24.5257 113.788 27.5165 110.621 31.6698 110.522L169.344 107.259C173.281 107.166 176.909 110.092 177.414 113.76Z" fill="#D8DEE8"/>
<path d="M103.137 101.589C103.324 102.972 102.258 104.119 100.756 104.154C99.2542 104.189 97.8818 103.094 97.6948 101.711C97.5079 100.328 98.5753 99.1797 100.077 99.1463C101.579 99.1128 102.955 100.208 103.137 101.589Z" fill="url(#paint6_linear)"/>
<g style="mix-blend-mode:soft-light" opacity="0.5">
<path d="M189.676 372.547L63.4962 382.006C62.8977 382.048 62.2992 381.99 61.7188 381.99C53.6385 381.99 49.19 378.119 48.662 374.127L12.5006 103.305C11.9611 99.2802 16.0029 95.6148 24.344 95.1015H24.3554C24.6047 95.1015 24.8474 95.1015 25.113 95.1015L56.0078 94.4792C56.1094 94.5272 56.216 94.5854 56.316 94.6392C63.811 98.2944 71.3814 103.133 77.4417 109.432C87.8749 120.259 93.8286 135.427 87.1928 156.408C68.5398 215.392 79.1978 224.848 138.733 251.64C198.268 278.432 192.172 295.425 175.168 335.158C169.51 348.389 174.302 359.041 183.224 367.362C184.72 368.753 186.303 370.07 187.964 371.306C188.527 371.727 189.096 372.137 189.676 372.547Z" fill="white"/>
</g>
<path d="M355.424 423.205C355.424 423.205 356.791 428.34 356.835 430.201C356.88 432.062 334.775 434.655 334.431 433.285C334.087 431.915 337.787 429.419 340.458 428.438C343.129 427.456 350.967 424.782 350.967 424.782L355.424 423.205Z" fill="url(#paint7_linear)"/>
<path d="M349.59 418.417L350.858 424.834C350.858 424.834 353.571 426.222 355.736 424.834L356.264 417.71L349.59 418.417Z" fill="url(#paint8_linear)"/>
<path d="M395.735 428.702C395.735 428.702 397.103 433.837 397.146 435.699C397.188 437.56 375.087 440.152 374.743 438.781C374.398 437.41 378.099 434.916 380.77 433.933C383.441 432.951 391.277 430.28 391.277 430.28L395.735 428.702Z" fill="url(#paint9_linear)"/>
<path d="M389.901 423.915L391.169 430.332C391.169 430.332 393.883 431.719 396.047 430.332L396.573 423.208L389.901 423.915Z" fill="url(#paint10_linear)"/>
<path d="M339.004 249.21L332.56 264.228C332.877 291.865 334.436 321.824 337.86 353.734C340.406 377.475 343.727 399.898 347.526 420.894L357.918 419.677C362.147 410.061 366.869 395.618 365.921 378.291C364.937 360.219 358.821 358.262 357.703 340.971C356.252 318.559 365.865 311.837 368.933 284.522C370.107 274.076 370.334 260.532 367.271 244.34L339.004 249.21Z" fill="url(#paint11_linear)"/>
<path style="mix-blend-mode:multiply" opacity="0.3" d="M367.271 244.34L352.005 246.971C344.056 262.547 342.823 278.231 345.032 284.971C348.163 294.499 354.499 297.157 355.007 306.926C355.512 316.586 349.596 319.539 346.694 331.185C344.684 339.247 346.019 346.424 348.773 360.448C354.32 388.698 362.497 396.856 357.087 406.654C355.549 409.439 352.638 412.835 346.609 415.71C346.914 417.446 347.216 419.186 347.526 420.902C350.991 420.497 354.455 420.092 357.918 419.685C362.147 410.067 366.869 395.625 365.921 378.298C364.937 360.226 358.821 358.269 357.703 340.977C356.252 318.566 365.865 311.845 368.933 284.529C370.107 274.076 370.333 260.528 367.271 244.34Z" fill="url(#paint12_linear)"/>
<path d="M353.55 256.857C360.467 280.813 366.97 306.521 372.675 333.872C379.561 366.898 384.418 398.154 387.781 427.259L399.259 426.709C411.912 398.036 411.215 379.286 407.995 367.282C406.754 362.657 403.689 353.635 401.984 339.938C400.794 330.388 400.823 323.053 400.889 314.232C401.033 294.895 402.856 290.533 401.907 275.823C401.01 262.011 400.467 255.032 395.866 251.277C383.741 241.381 355.676 255.743 353.55 256.857Z" fill="url(#paint13_linear)"/>
<path d="M242.509 201.199C242.509 201.199 234.106 200.531 232.891 199.269C231.676 198.007 229.829 195.986 229.646 194.829C229.462 193.672 227.842 195.4 229.318 197.91C230.794 200.419 226.604 199.89 225.948 199.828C224.451 199.682 218.734 199.537 218.898 199.861C219.062 200.185 218.219 201.638 222.279 203.342C225.832 204.832 230.062 203.862 232.373 203.964L234.683 204.067L240.809 204.503L242.509 201.199Z" fill="url(#paint14_linear)"/>
<path d="M237.577 197.564C237.209 200.157 236.839 202.752 236.467 205.347C242.032 209.647 254.34 217.89 271.456 219.127C301.626 221.308 331.562 200.618 337.133 177.348C339.893 165.823 337.638 149.653 329.907 147.054C327.761 146.327 324.537 146.434 317.89 150.571C300.149 161.609 298.64 176.106 288.84 185.913C281.788 192.971 267.924 200.12 237.577 197.564Z" fill="url(#paint15_linear)"/>
<path d="M318.036 214.118C320.719 221.99 322.98 226.962 324.719 230.891V230.9C328.199 234.836 328.545 237.713 329.268 241.388C329.63 243.178 330.004 245.153 329.979 247.539C329.929 251.81 329.347 255.292 328.8 258.282C327.981 262.789 327.52 266.162 330.017 269.375C333.111 273.371 338.627 274.287 351.262 275.011C383.48 276.86 399.6 277.783 404.167 270.008C406.057 266.78 404.886 264.253 402.634 254.227C400.279 243.782 396.659 227.678 396.987 217.006C397.231 209.044 399.703 203.311 402.773 198.541C408.851 189.08 417.284 183.429 415.284 171.753C412.324 154.504 390.264 145.423 389.205 145.001C381.965 142.131 372.609 142.369 353.902 142.846C338.768 143.242 331.093 143.502 325.754 146.946C315.404 153.62 313.189 166.002 311.995 173.293C309.506 188.532 313.579 201.065 318.036 214.118Z" fill="url(#paint16_linear)"/>
<path d="M334.859 146.696C334.846 145.641 339.017 145.187 342.302 143.788C346.452 142.017 348.255 134.085 347.196 130.623C346.137 127.161 353.37 125.381 353.37 125.381C353.958 125.236 356.395 129.795 356.688 130.285C357.92 132.341 359.113 134.434 360.658 136.325C361.992 137.976 363.622 139.421 365.485 140.603C366.828 141.432 368.248 142.158 369.73 142.773C370.406 143.064 371.088 143.397 371.778 143.657C372.134 143.793 372.259 144.458 372.221 144.458H372.244C372.244 144.458 372.234 144.261 372.218 144.284C372.154 144.575 371.863 144.805 371.398 145.175C369.212 147.615 362.565 153.812 348.703 158.128C340.393 153.282 334.698 149.537 334.861 146.738C334.856 146.732 334.859 146.702 334.859 146.696Z" fill="url(#paint17_linear)"/>
<path style="mix-blend-mode:multiply" opacity="0.5" d="M360.402 262.555C349.482 264.657 336.896 260.374 328.9 258.283C328.081 262.79 327.572 266.163 330.07 269.377C333.162 273.372 338.653 274.288 351.289 275.012C383.507 276.861 399.615 277.785 404.18 270.009C406.072 266.781 404.895 264.254 402.642 254.228C400.287 243.783 396.663 227.679 396.991 217.007C397.236 209.045 399.707 203.313 402.776 198.542C395.562 190.042 385.263 185.875 371.913 199.473C371.913 199.473 352.281 218.81 337.871 219.505C329.699 219.893 324.721 224.594 324.721 230.881V230.889C326.461 234.088 326.503 237.71 329.269 241.378C330.64 243.19 332.562 245.013 334.656 246.806C349.3 259.34 377.309 259.295 360.402 262.555Z" fill="url(#paint18_linear)"/>
<path d="M355.237 155.718C355.237 155.718 352.797 162.741 350.749 162.861C349.56 162.928 348.376 163.05 347.201 163.225L344.117 155.356C344.937 155.58 346.637 156.071 347.616 156.228C350.098 156.646 353.446 155.836 355.237 155.718Z" fill="url(#paint19_linear)"/>
<path d="M351.721 162.344C351.721 162.344 356.276 207.696 372.244 214.957C371.835 216.411 372.244 228.209 372.244 228.209C372.244 228.209 357.36 224.235 356.511 224.497C355.662 224.758 338.484 199.512 347.201 163.225L351.721 162.344Z" fill="url(#paint20_linear)"/>
<path d="M339.324 127.932C336.607 126.914 334.449 123.798 334.916 120.892C335.318 118.391 337.556 116.915 338.896 116.033C342.777 113.471 349.032 112.318 353.073 114.776C355.468 116.23 355.86 121.61 355.98 122.554C356.119 123.616 355.557 124.298 355.281 125.294C354.898 126.68 354.312 128.872 353.394 132.506C352.602 131.768 351.739 131.093 350.815 130.488C350.402 130.219 348.765 129.179 346.921 128.56C343.221 127.328 341.9 128.9 339.324 127.932Z" fill="url(#paint21_linear)"/>
<path d="M355.609 128.71C355.609 128.71 355.47 134.089 349.821 136.571C344.761 138.791 337.722 129.463 339.491 125.812C340.082 124.593 341.977 123.241 343.943 122.793C345.104 122.529 345.683 122.724 347.57 122.258C349.311 121.829 349.643 121.462 350.321 121.568C351.172 121.702 352.274 122.532 353.168 125.855C353.553 124.547 354.462 123.65 355.463 123.576C355.819 123.567 356.17 123.646 356.478 123.804C357.888 124.557 357.672 126.556 355.609 128.71Z" fill="url(#paint22_linear)"/>
<path d="M350.165 120.87C350.032 121.146 351.259 121.556 352.03 122.629C353.528 124.712 352.764 128.529 350.418 130.024C349.029 130.906 348.112 130.328 345.532 131.348C344.275 131.849 343.117 132.525 342.101 133.35C342.867 136.085 345.112 138.054 347.586 138.231C350.249 138.422 352.217 136.468 353.04 135.65C353.589 135.104 355.355 133.356 355.335 130.998C355.316 128.545 353.427 128.029 353.973 126.084C354.248 125.102 354.971 124.366 355.053 122.697C355.071 122.339 355.057 121.98 355.012 121.623C352.987 121.086 350.359 120.47 350.165 120.87Z" fill="url(#paint23_linear)"/>
<path d="M344.44 133.311C344.44 133.311 345.81 133.257 347.57 132.234C347.657 132.184 347.768 132.157 347.806 132.191C347.949 132.322 347.229 133.608 345.978 133.893C345.091 134.093 344.077 133.757 344.074 133.542C344.072 133.445 344.251 133.371 344.44 133.311Z" fill="url(#paint24_linear)"/>
<path d="M321.083 232.302C321.083 232.302 320.276 233.266 319.071 230.135C317.866 227.003 313.589 228.083 313.589 228.083L314.645 230.353C314.645 230.353 302.387 227.736 302.551 229.626C302.715 231.516 306.099 235.927 309.984 236.895C313.868 237.864 321.373 236.981 321.373 236.981L321.083 232.302Z" fill="url(#paint25_linear)"/>
<path d="M393.342 144.698C393.342 144.698 376.04 141.622 376.251 171.038C376.463 200.454 380.35 220.539 364.036 223.614C347.721 226.689 320.628 229.787 320.628 229.787L321.179 240.027C321.179 240.027 401.779 257.256 407.436 232.039C413.093 206.822 434.829 151.394 393.342 144.698Z" fill="#2E987A"/>
<path d="M106.779 436.839C106.779 436.839 105.395 442.034 105.35 443.916C105.306 445.797 127.661 448.423 128.011 447.033C128.36 445.643 124.615 443.125 121.914 442.132C119.214 441.139 111.286 438.434 111.286 438.434L106.779 436.839Z" fill="url(#paint26_linear)"/>
<path d="M112.678 431.998L111.396 438.488C111.396 438.488 108.653 439.89 106.462 438.488L105.924 431.28L112.678 431.998Z" fill="url(#paint27_linear)"/>
<path d="M66.0062 442.406C66.0062 442.406 64.6239 447.6 64.5797 449.483C64.5354 451.366 86.8907 453.99 87.2384 452.6C87.586 451.21 83.8442 448.692 81.142 447.697C78.4398 446.703 70.5153 444.001 70.5153 444.001L66.0062 442.406Z" fill="url(#paint28_linear)"/>
<path d="M71.9074 437.558L70.6251 444.048C70.6251 444.048 67.8803 445.45 65.6913 444.048L65.1584 436.839L71.9074 437.558Z" fill="url(#paint29_linear)"/>
<path d="M123.385 260.859L129.903 276.048C129.575 303.999 128.006 334.3 124.543 366.575C121.967 390.588 118.609 413.267 114.767 434.503L104.255 433.271C99.9789 423.546 95.2026 408.937 96.1618 391.413C97.1636 373.134 103.342 371.155 104.473 353.665C105.949 330.998 96.2175 324.2 93.1152 296.572C91.9281 286.006 91.6986 272.306 94.7959 255.932L123.385 260.859Z" fill="url(#paint30_linear)"/>
<path style="mix-blend-mode:multiply" opacity="0.3" d="M94.7957 255.932L110.237 258.594C118.271 274.347 119.529 290.216 117.287 297.027C114.119 306.664 107.711 309.351 107.197 319.226C106.688 328.996 112.667 331.983 115.606 343.761C117.64 351.916 116.289 359.173 113.503 373.359C107.892 401.932 99.6246 410.183 105.104 420.093C106.66 422.909 109.604 426.345 115.702 429.253C115.393 431.008 115.088 432.768 114.775 434.504L104.263 433.273C99.9869 423.546 95.2105 408.938 96.1698 391.414C97.1716 373.135 103.35 371.156 104.481 353.667C105.957 331 96.2255 324.201 93.1232 296.574C91.9279 286.008 91.6984 272.306 94.7957 255.932Z" fill="url(#paint31_linear)"/>
<path d="M108.674 268.591C101.677 292.823 95.1022 318.822 89.3305 346.488C82.3636 379.889 77.4527 411.502 74.0504 440.94L62.4448 440.383C49.6471 411.383 50.3521 392.417 53.6102 380.279C54.8645 375.6 57.9635 366.475 59.6901 352.62C60.892 342.963 60.8641 335.544 60.7969 326.622C60.651 307.063 58.8014 302.657 59.7672 287.775C60.6739 273.808 61.2232 266.748 65.8766 262.949C78.1365 252.938 106.523 267.466 108.674 268.591Z" fill="url(#paint32_linear)"/>
<path d="M220.989 212.299C220.989 212.299 229.487 211.624 230.717 210.348C231.946 209.071 233.814 207.027 233.996 205.858C234.178 204.689 235.823 206.44 234.334 208.972C232.845 211.505 237.069 210.973 237.728 210.912C239.243 210.766 245.025 210.621 244.857 210.945C244.69 211.27 245.544 212.741 241.439 214.465C237.844 215.973 233.568 214.992 231.23 215.095L228.893 215.198L222.697 215.634L220.989 212.299Z" fill="url(#paint33_linear)"/>
<path d="M225.97 208.62C226.345 211.245 226.719 213.87 227.093 216.493C221.464 220.842 209.019 229.181 191.706 230.431C161.181 232.637 130.913 211.71 125.272 188.175C122.485 176.519 124.761 160.165 132.582 157.535C134.751 156.808 138.013 156.908 144.737 161.093C162.683 172.265 164.21 186.919 174.122 196.836C181.256 203.977 195.287 211.207 225.97 208.62Z" fill="url(#paint34_linear)"/>
<path d="M144.396 225.364C141.682 233.327 139.178 238.357 137.439 242.33C134.54 246.311 133.766 249.222 133.035 252.944C132.604 254.995 132.396 257.078 132.415 259.164C132.466 263.485 133.105 267.006 133.658 270.029C134.491 274.592 134.969 278 132.449 281.249C129.321 285.291 123.759 286.219 110.969 286.95C78.3841 288.82 62.0857 289.755 57.4683 281.89C55.5548 278.625 56.742 276.075 59.0211 265.928C61.4019 255.365 65.065 239.078 64.7337 228.287C64.4878 220.235 61.9873 214.436 58.8834 209.618C52.7346 200.05 44.205 194.334 46.23 182.527C49.2224 165.079 71.5351 155.895 72.6075 155.465C79.9286 152.557 89.3929 152.802 108.311 153.284C123.618 153.684 131.382 153.948 136.781 157.432C147.249 164.179 149.392 176.704 150.599 184.078C153.121 199.487 148.902 212.162 144.396 225.364Z" fill="url(#paint35_linear)"/>
<path d="M87.8583 226.146C86.0957 230.69 80.8963 233.795 76.5068 244.84C75.5607 247.224 68.8135 264.206 75.2459 268.987C78.9614 271.749 82.8934 267.33 92.4839 267.428C109.1 267.595 115.861 281.045 126.96 278.332C128.885 277.86 131.47 276.745 134.197 273.942C134.456 276.669 134.169 279 132.425 281.252C129.298 285.29 123.744 286.219 110.961 286.951C78.3777 288.823 62.0842 289.759 57.4685 281.892C55.555 278.628 56.7422 276.076 59.0246 265.932C61.4021 255.367 65.0684 239.08 64.7356 228.289C63.9945 204.251 43.1935 200.286 46.24 182.528C47.0599 177.781 49.3193 173.668 52.1757 170.154C77.9612 182.122 93.4037 211.869 87.8583 226.146Z" fill="url(#paint36_linear)"/>
<path d="M127.578 157.173C127.591 156.106 123.372 155.648 120.05 154.229C115.852 152.437 114.029 144.414 115.1 140.913C116.171 137.412 108.856 135.612 108.856 135.612C108.856 135.612 107.975 142.094 105.375 146.808C103.024 151.063 92.4214 153.449 90.2374 154.275C89.8766 154.412 89.7455 155.258 89.7897 155.258H89.7651C89.7653 155.141 89.7746 155.025 89.793 154.909C89.857 155.2 90.1505 155.345 90.6276 155.723C92.8379 158.195 99.5606 164.416 113.583 168.782C121.988 163.881 127.748 160.07 127.584 157.24C127.581 157.232 127.578 157.179 127.578 157.173Z" fill="url(#paint37_linear)"/>
<path d="M118.646 133.967C122.039 131.336 122.506 131.035 122.934 130.071C124.652 126.202 121.798 120.518 117.553 118.854C117.333 118.769 114.483 117.691 113.265 118.777C112.23 119.705 113.506 121.186 112.676 123.061C111.899 124.815 110.202 124.826 106.873 126.956C104.132 128.709 102.428 129.8 101.913 131.473C100.849 134.923 104.991 140.342 109.061 140.509C110.523 140.569 110.979 139.906 118.646 133.967Z" fill="url(#paint38_linear)"/>
<path d="M109.41 141.079C109.41 141.079 112.45 144.835 117.643 144.058C122.293 143.359 121.967 133.58 118.765 131.783C117.697 131.184 115.67 131.076 114.09 131.637C113.157 131.972 112.872 132.364 111.335 132.889C109.919 133.367 109.492 133.254 109.089 133.636C108.584 134.112 108.292 135.197 109.504 137.956C108.52 137.199 107.418 136.973 106.693 137.375C106.445 137.531 106.25 137.745 106.129 137.992C105.596 139.16 106.833 140.48 109.41 141.079Z" fill="url(#paint39_linear)"/>
<path style="mix-blend-mode:multiply" opacity="0.4" d="M101.745 274.353C112.79 276.479 125.52 272.143 133.607 270.032C134.44 274.594 134.95 278.003 132.425 281.252C129.295 285.294 123.734 286.222 110.961 286.953C78.3777 288.823 62.0842 289.758 57.4669 281.892C55.5534 278.626 56.7438 276.076 59.023 265.929C61.4038 255.366 65.0684 239.079 64.7372 228.288C64.4913 220.236 61.9908 214.438 58.8869 209.619C66.1916 201.024 76.5954 196.809 90.1031 210.562C90.1031 210.562 109.761 230.121 124.336 230.822C132.602 231.215 137.439 235.972 137.439 242.329C136.28 245.571 135.832 249.228 133.035 252.942C131.649 254.774 129.805 256.622 127.688 258.431C112.875 271.104 84.6446 271.059 101.745 274.353Z" fill="url(#paint40_linear)"/>
<path d="M106.967 166.304C106.967 166.304 109.427 173.406 111.506 173.528C112.708 173.596 113.906 173.719 115.095 173.896L118.21 165.937C117.379 166.164 115.661 166.664 114.67 166.826C112.165 167.237 108.779 166.421 106.967 166.304Z" fill="url(#paint41_linear)"/>
<path d="M110.523 172.999C110.523 172.999 105.916 218.871 89.7651 226.213C90.18 227.682 89.7651 239.614 89.7651 239.614C89.7651 239.614 104.821 235.596 105.67 235.862C106.519 236.128 123.903 210.591 115.087 173.889L110.523 172.999Z" fill="url(#paint42_linear)"/>
<path d="M269.689 204.804C269.689 234.918 243.126 258.6 209.184 257.682C173.864 256.72 144.156 229.671 144.156 197.3C144.156 164.93 173.864 141.432 209.184 144.694C243.134 147.827 269.689 174.691 269.689 204.804Z" fill="url(#paint43_linear)"/>
<path d="M278.859 202.207C278.859 232.321 252.297 256.003 218.365 255.085C183.043 254.122 153.337 227.078 153.337 194.703C153.337 162.329 183.043 138.836 218.365 142.097C252.305 145.232 278.859 172.095 278.859 202.207Z" fill="url(#paint44_linear)"/>
<path d="M276.195 202.049C276.195 230.837 250.78 253.443 218.365 252.512C184.683 251.545 156.405 225.73 156.405 194.887C156.405 164.043 184.683 141.611 218.365 144.671C250.788 147.616 276.195 173.261 276.195 202.049Z" fill="url(#paint45_linear)"/>
<path d="M274.288 201.934C274.288 229.773 249.703 251.606 218.365 250.674C185.854 249.706 158.589 224.772 158.589 195.018C158.589 165.263 185.854 143.59 218.365 146.508C249.703 149.323 274.288 174.097 274.288 201.934Z" fill="url(#paint46_linear)"/>
<path d="M218.044 155.981C219.711 156.126 221.061 157.452 221.061 158.954V164.079C224.432 164.415 227.777 164.93 231.079 165.62C233.544 166.135 235.993 166.747 238.427 167.455C239.141 167.667 239.755 168.085 240.171 168.642C240.587 169.2 240.781 169.864 240.722 170.53L240.012 176.958C239.98 177.349 239.84 177.727 239.606 178.059C239.371 178.391 239.049 178.668 238.667 178.865C238.285 179.062 237.854 179.173 237.413 179.189C236.971 179.205 236.532 179.126 236.133 178.957C234.53 178.323 232.884 177.779 231.204 177.329C228.175 176.525 225.059 176.008 221.907 175.788L221.054 175.727V190.411C229.754 192.569 236.139 195.472 240.271 199.125C244.403 202.777 246.427 207.289 246.427 212.726C246.427 218.606 244.157 223.319 239.619 226.866C235.05 230.435 228.631 232.439 220.361 232.878V238.535C220.368 238.886 220.294 239.234 220.144 239.558C219.994 239.882 219.77 240.176 219.488 240.421C219.205 240.666 218.869 240.857 218.5 240.983C218.131 241.109 217.737 241.166 217.342 241.152H217.288C216.47 241.113 215.7 240.797 215.137 240.269C214.573 239.742 214.259 239.044 214.258 238.317V232.735L212.913 232.682C209.175 232.541 205.451 232.189 201.763 231.628C199.164 231.228 196.592 230.703 194.057 230.056C192.54 229.666 191.499 228.385 191.638 227.003L192.473 218.74C192.653 216.954 194.677 215.915 196.592 216.585C198.806 217.36 201.07 218.019 203.372 218.558C206.922 219.39 210.551 219.928 214.213 220.165L214.268 203.837C205.916 202.005 199.679 199.291 195.557 195.695C191.432 192.083 189.366 187.466 189.361 181.843C189.361 176.027 191.602 171.543 196.084 168.388C200.536 165.254 206.849 163.69 215.023 163.698V158.464C215.015 156.946 216.373 155.835 218.044 155.981ZM215.015 175.574C212.434 175.742 210.424 176.372 208.983 177.464C207.542 178.556 206.82 180.022 206.817 181.861C206.817 183.605 207.485 185.065 208.821 186.238C210.156 187.412 212.221 188.347 215.015 189.042V175.574ZM220.374 205.138V220.114C223.179 220.12 225.332 219.526 226.832 218.334C228.333 217.142 229.083 215.462 229.08 213.293C229.08 211.313 228.384 209.671 226.991 208.366C225.599 207.061 223.393 205.985 220.374 205.138Z" fill="url(#paint47_linear)"/>
<path style="mix-blend-mode:multiply" opacity="0.3" d="M208.24 208.759C210.129 192.211 227.28 185.205 225.042 169.985C223.661 160.604 215.643 152.698 206.697 146.524C179.565 149.048 158.584 168.969 158.584 195.025C158.584 224.78 185.849 249.713 218.36 250.681C221.446 250.772 224.535 250.638 227.596 250.282C214.69 238.881 206.622 222.968 208.24 208.759Z" fill="url(#paint48_linear)"/>
<path d="M153.147 236.607C153.147 236.607 154.131 237.455 154.767 234.156C155.403 230.857 159.87 231.33 159.87 231.33L159.214 233.746C159.214 233.746 170.983 229.397 171.16 231.306C171.338 233.215 168.757 238.102 165.051 239.616C161.345 241.129 153.696 241.327 153.696 241.327L153.147 236.607Z" fill="url(#paint49_linear)"/>
<path d="M65.1536 159.383C65.1536 159.383 81.8783 153.858 86.9794 183.261C92.0804 212.664 91.823 233.276 108.676 234.031C125.528 234.786 153.139 234.031 153.139 234.031L154.439 244.335C154.439 244.335 77.0659 272.988 66.854 248.608C56.6421 224.229 24.934 171.962 65.1536 159.383Z" fill="url(#paint50_linear)"/>
<path d="M165.281 388.338V399.824C165.281 403.536 191.427 406.544 223.679 406.544C255.932 406.544 282.078 403.536 282.078 399.824V388.338H165.281Z" fill="url(#paint51_linear)"/>
<path d="M282.07 388.338C282.07 392.048 255.924 395.058 223.671 395.058C191.419 395.058 165.281 392.048 165.281 388.338C165.281 384.627 191.427 381.618 223.679 381.618C255.932 381.618 282.07 384.626 282.07 388.338Z" fill="url(#paint52_linear)"/>
<path d="M223.671 395.52C195.106 395.52 165.238 393.101 165.238 388.435C165.238 388.179 165.341 387.729 165.63 387.729C165.918 387.729 165.794 388.08 165.794 388.338C165.794 391.297 189.569 394.59 223.674 394.59C257.78 394.59 281.555 391.292 281.555 388.338C281.555 388.08 281.604 387.84 281.893 387.84C282.181 387.84 282.112 388.182 282.112 388.44C282.104 393.105 252.234 395.52 223.671 395.52Z" fill="url(#paint53_linear)"/>
<path d="M218.152 388.711C218.726 388.359 219.334 388.013 219.987 387.67C220.779 387.275 221.621 386.964 222.496 386.743C223.756 386.425 225.044 386.2 226.346 386.068C228.26 385.875 230.186 385.783 232.112 385.792C234.37 385.782 236.485 385.846 238.469 385.982C240.224 386.092 241.969 386.298 243.695 386.597C245.196 386.869 246.419 387.205 247.365 387.606C248.31 388.008 248.869 388.467 249.042 388.985L255.617 389.043C256.04 389.041 256.463 389.076 256.878 389.147C257.245 389.213 257.424 389.293 257.424 389.399V389.879L248.97 389.808C248.672 390.395 247.917 390.932 246.704 391.42C245.49 391.908 243.945 392.331 242.068 392.689L238.989 392.31C238.758 392.281 238.531 392.232 238.31 392.164C238.132 392.108 238.046 392.045 238.046 391.977C238.046 391.885 238.284 391.779 238.76 391.661C239.235 391.544 239.773 391.397 240.371 391.225C240.973 391.05 241.562 390.844 242.136 390.607C242.709 390.369 243.093 390.085 243.293 389.755L223.34 389.579C222.775 389.944 222.187 390.28 221.579 390.587C220.76 390.977 219.891 391.276 218.99 391.48C217.671 391.783 216.329 391.998 214.974 392.122C212.963 392.305 210.942 392.393 208.921 392.385C207.092 392.385 205.313 392.332 203.569 392.201C202.007 392.095 200.455 391.901 198.922 391.619C197.771 391.418 196.652 391.093 195.59 390.652C194.724 390.267 194.239 389.826 194.139 389.326L188.728 389.277C188.299 389.279 187.871 389.246 187.449 389.178C187.077 389.114 186.887 389.033 186.885 388.922V388.442L194.287 388.505C194.614 387.999 195.283 387.558 196.31 387.183C197.527 386.755 198.783 386.42 200.065 386.18L202.544 386.482C203.297 386.575 203.67 386.686 203.672 386.812C203.672 386.879 203.52 386.958 203.208 387.065C202.896 387.173 202.524 387.286 202.096 387.426C201.674 387.566 201.263 387.731 200.865 387.919C200.514 388.07 200.206 388.289 199.963 388.56L218.152 388.711ZM199.893 389.366C200.04 389.681 200.371 389.947 200.876 390.18C201.474 390.437 202.106 390.626 202.757 390.742C203.593 390.9 204.44 391.008 205.292 391.067C206.233 391.135 207.217 391.167 208.243 391.163C209.291 391.165 210.338 391.119 211.38 391.026C212.17 390.954 212.954 390.836 213.727 390.673C214.331 390.545 214.921 390.372 215.492 390.156C215.96 389.975 216.41 389.762 216.84 389.518L199.893 389.366ZM243.329 388.929C243.18 388.61 242.818 388.33 242.254 388.09C241.562 387.814 240.836 387.611 240.091 387.486C239.079 387.305 238.055 387.183 237.025 387.121C235.863 387.04 234.578 387.003 233.171 387.01C232.093 387.006 231.015 387.055 229.943 387.156C229.152 387.231 228.367 387.358 227.597 387.534C227.014 387.664 226.449 387.849 225.911 388.086C225.464 388.286 225.032 388.512 224.617 388.761L243.329 388.929Z" fill="#FCB048"/>
<path d="M223.679 382.344C197.64 382.344 170.528 384.38 166.191 388.306C166.359 388.442 166.517 388.588 166.665 388.742C170.319 386.011 192.708 383.262 223.679 383.262C255.445 383.262 278.192 386.154 280.947 388.953C281.082 388.799 281.227 388.654 281.383 388.516C277.802 384.451 250.18 382.344 223.679 382.344Z" fill="url(#paint54_linear)"/>
<path d="M149.038 376.273V387.759C149.038 391.47 175.184 394.479 207.437 394.479C239.689 394.479 265.835 391.47 265.835 387.759V376.273H149.038Z" fill="url(#paint55_linear)"/>
<path d="M265.835 376.273C265.835 379.983 239.689 382.993 207.437 382.993C175.184 382.993 149.038 379.983 149.038 376.273C149.038 372.562 175.184 369.553 207.437 369.553C239.689 369.553 265.835 372.561 265.835 376.273Z" fill="url(#paint56_linear)"/>
<path d="M207.437 383.457C178.872 383.457 149.003 381.038 149.003 376.37C149.003 376.115 149.107 375.664 149.395 375.664C149.684 375.664 149.559 376.017 149.559 376.273C149.559 379.232 173.335 382.525 207.44 382.525C241.545 382.525 265.321 379.227 265.321 376.273C265.321 376.017 265.37 375.776 265.658 375.776C265.947 375.776 265.878 376.119 265.878 376.375C265.87 381.041 236 383.457 207.437 383.457Z" fill="url(#paint57_linear)"/>
<path d="M201.918 376.647C202.492 376.295 203.1 375.949 203.752 375.606C204.545 375.211 205.387 374.9 206.261 374.679C207.522 374.361 208.809 374.135 210.111 374.003C212.026 373.811 213.951 373.719 215.878 373.727C218.135 373.718 220.254 373.782 222.233 373.919C223.988 374.029 225.734 374.233 227.461 374.533C228.96 374.804 230.183 375.14 231.13 375.542C232.077 375.943 232.636 376.402 232.808 376.92L239.383 376.98C239.806 376.977 240.228 377.012 240.644 377.083C241.011 377.15 241.19 377.228 241.19 377.334V377.816L232.735 377.743C232.438 378.33 231.683 378.868 230.469 379.357C229.256 379.845 227.711 380.268 225.834 380.625L222.755 380.245C222.524 380.216 222.296 380.167 222.076 380.1C221.897 380.042 221.812 379.979 221.812 379.912C221.812 379.819 222.048 379.714 222.525 379.595C223.002 379.476 223.538 379.331 224.137 379.159C224.738 378.983 225.327 378.777 225.901 378.54C226.475 378.303 226.859 378.018 227.059 377.688L207.106 377.512C206.541 377.877 205.953 378.214 205.345 378.521C204.525 378.909 203.656 379.209 202.756 379.412C201.437 379.715 200.095 379.93 198.74 380.055C196.729 380.238 194.708 380.326 192.686 380.318C190.858 380.325 189.079 380.264 187.334 380.133C185.773 380.028 184.221 379.834 182.688 379.552C181.537 379.35 180.418 379.026 179.356 378.585C178.49 378.199 178.005 377.759 177.905 377.26L172.494 377.211C172.065 377.212 171.637 377.178 171.215 377.11C170.842 377.046 170.652 376.965 170.651 376.855V376.375L178.052 376.437C178.38 375.931 179.049 375.491 180.075 375.116C181.293 374.688 182.549 374.353 183.83 374.114L186.31 374.415C187.062 374.509 187.436 374.618 187.438 374.745C187.438 374.813 187.285 374.89 186.974 374.998C186.662 375.105 186.29 375.219 185.862 375.358C185.439 375.499 185.027 375.664 184.629 375.853C184.279 376.004 183.971 376.222 183.729 376.493L201.918 376.647ZM183.658 377.301C183.806 377.616 184.137 377.882 184.642 378.115C185.24 378.372 185.872 378.561 186.523 378.678C187.358 378.836 188.205 378.945 189.058 379.002C189.999 379.071 190.983 379.103 192.009 379.098C193.057 379.1 194.104 379.054 195.146 378.961C195.936 378.889 196.719 378.772 197.492 378.609C198.096 378.481 198.687 378.308 199.258 378.092C199.725 377.91 200.176 377.697 200.606 377.454L183.658 377.301ZM227.095 376.872C226.946 376.554 226.583 376.273 226.019 376.033C225.328 375.757 224.602 375.554 223.857 375.428C222.844 375.248 221.82 375.126 220.79 375.063C219.628 374.983 218.344 374.946 216.937 374.953C215.859 374.949 214.781 374.998 213.709 375.098C212.917 375.175 212.133 375.301 211.362 375.476C210.78 375.607 210.215 375.792 209.677 376.029C209.23 376.23 208.798 376.455 208.383 376.703L227.095 376.872Z" fill="#FCB048"/>
<path d="M207.445 370.28C181.405 370.28 154.293 372.315 149.956 376.241C150.125 376.377 150.283 376.523 150.43 376.677C154.085 373.947 176.473 371.197 207.445 371.197C239.21 371.197 261.956 374.089 264.712 376.888C264.847 376.735 264.993 376.589 265.148 376.452C261.567 372.387 233.945 370.28 207.445 370.28Z" fill="url(#paint58_linear)"/>
<path d="M163.046 364.243V375.729C163.046 379.441 189.192 382.449 221.445 382.449C253.697 382.449 279.843 379.441 279.843 375.729V364.243H163.046Z" fill="url(#paint59_linear)"/>
<path d="M279.843 364.243C279.843 367.955 253.697 370.963 221.445 370.963C189.192 370.963 163.046 367.955 163.046 364.243C163.046 360.531 189.192 357.523 221.445 357.523C253.697 357.523 279.843 360.533 279.843 364.243Z" fill="url(#paint60_linear)"/>
<path d="M221.444 371.427C192.88 371.427 163.011 369.008 163.011 364.342C163.011 364.086 163.115 363.635 163.403 363.635C163.692 363.635 163.567 363.987 163.567 364.243C163.567 367.203 187.342 370.495 221.448 370.495C255.553 370.495 279.328 367.199 279.328 364.243C279.328 363.987 279.378 363.747 279.666 363.747C279.955 363.747 279.886 364.089 279.886 364.345C279.878 369.012 250.008 371.427 221.444 371.427Z" fill="url(#paint61_linear)"/>
<path d="M215.925 364.621C216.499 364.27 217.109 363.923 217.762 363.58C218.554 363.185 219.396 362.873 220.271 362.653C221.531 362.335 222.818 362.109 224.12 361.978C226.034 361.785 227.959 361.693 229.886 361.702C232.143 361.691 234.262 361.755 236.243 361.892C237.997 362.003 239.742 362.208 241.468 362.506C242.969 362.779 244.195 363.115 245.138 363.524C246.081 363.932 246.635 364.384 246.815 364.902L253.392 364.96C253.815 364.959 254.237 364.993 254.653 365.063C255.02 365.13 255.197 365.209 255.197 365.316V365.796L246.743 365.723C246.448 366.312 245.693 366.85 244.477 367.337C243.262 367.825 241.716 368.247 239.842 368.605L236.762 368.226C236.531 368.198 236.304 368.149 236.084 368.08C235.906 368.024 235.82 367.961 235.82 367.893C235.82 367.796 236.057 367.691 236.533 367.577C237.008 367.464 237.546 367.318 238.146 367.141C238.747 366.965 239.336 366.759 239.911 366.523C240.483 366.285 240.866 366 241.058 365.67L221.107 365.495C220.54 365.859 219.952 366.196 219.344 366.503C218.528 366.888 217.663 367.184 216.767 367.384C215.449 367.688 214.107 367.903 212.753 368.028C210.741 368.211 208.72 368.298 206.697 368.29C204.869 368.298 203.09 368.236 201.345 368.106C199.785 368.001 198.233 367.807 196.7 367.525C195.549 367.324 194.429 366.998 193.367 366.557C192.503 366.173 192.017 365.731 191.916 365.232L186.505 365.183C186.076 365.184 185.648 365.151 185.226 365.084C184.852 365.018 184.662 364.938 184.662 364.828V364.347L192.063 364.411C192.391 363.905 193.06 363.463 194.087 363.087C195.305 362.66 196.561 362.325 197.843 362.086L200.321 362.388C201.075 362.481 201.449 362.592 201.449 362.717C201.449 362.785 201.296 362.869 200.985 362.971C200.673 363.073 200.301 363.192 199.875 363.332C199.451 363.471 199.04 363.636 198.642 363.825C198.291 363.976 197.983 364.194 197.74 364.464L215.925 364.621ZM197.666 365.276C197.813 365.591 198.146 365.857 198.65 366.09C199.248 366.349 199.881 366.539 200.534 366.657C201.37 366.814 202.217 366.922 203.069 366.98C204.012 367.049 204.996 367.082 206.02 367.077C207.068 367.076 208.115 367.028 209.157 366.932C209.947 366.86 210.731 366.743 211.503 366.58C212.107 366.453 212.698 366.28 213.269 366.064C213.736 365.882 214.187 365.668 214.617 365.424L197.666 365.276ZM241.103 364.847C240.953 364.527 240.591 364.248 240.029 364.008C239.337 363.732 238.611 363.529 237.866 363.403C236.853 363.222 235.829 363.1 234.798 363.038C233.637 362.958 232.353 362.921 230.945 362.928C229.866 362.923 228.789 362.971 227.716 363.073C226.925 363.148 226.141 363.274 225.37 363.449C224.788 363.581 224.223 363.767 223.684 364.003C223.237 364.204 222.805 364.429 222.391 364.678L241.103 364.847Z" fill="#FCB048"/>
<path d="M221.453 358.251C195.413 358.251 168.301 360.287 163.964 364.213C164.133 364.351 164.291 364.499 164.438 364.656C168.094 361.924 190.481 359.175 221.453 359.175C253.218 359.175 275.965 362.068 278.72 364.865C278.856 364.713 279.001 364.567 279.156 364.429C275.575 360.358 247.953 358.251 221.453 358.251Z" fill="url(#paint62_linear)"/>
<path d="M171.546 352.18V363.666C171.546 367.378 197.692 370.386 229.944 370.386C262.197 370.386 288.343 367.378 288.343 363.666V352.18H171.546Z" fill="url(#paint63_linear)"/>
<path d="M288.343 352.18C288.343 355.89 262.197 358.9 229.944 358.9C197.692 358.9 171.546 355.89 171.546 352.18C171.546 348.469 197.692 345.46 229.944 345.46C262.197 345.46 288.343 348.468 288.343 352.18Z" fill="url(#paint64_linear)"/>
<path d="M229.945 359.362C201.381 359.362 171.511 356.943 171.511 352.277C171.511 352.021 171.615 351.57 171.905 351.57C172.195 351.57 172.069 351.922 172.069 352.18C172.069 355.138 195.844 358.431 229.95 358.431C264.055 358.431 287.83 355.134 287.83 352.18C287.83 351.922 287.879 351.682 288.168 351.682C288.457 351.682 288.388 352.024 288.388 352.281C288.378 356.947 258.509 359.362 229.945 359.362Z" fill="url(#paint65_linear)"/>
<path d="M224.427 352.553C224.999 352.202 225.61 351.855 226.262 351.512C227.054 351.117 227.896 350.806 228.77 350.585C230.031 350.267 231.319 350.042 232.62 349.91C234.535 349.717 236.46 349.625 238.387 349.634C240.643 349.623 242.762 349.687 244.743 349.824C246.498 349.935 248.243 350.14 249.97 350.439C251.471 350.711 252.694 351.047 253.639 351.448C254.585 351.85 255.144 352.309 255.317 352.827L261.892 352.886C262.315 352.884 262.738 352.918 263.153 352.99C263.52 353.055 263.697 353.135 263.699 353.241V353.721L255.246 353.65C254.95 354.237 254.194 354.775 252.979 355.264C251.763 355.752 250.218 356.175 248.343 356.531L245.266 356.152C245.034 356.123 244.806 356.074 244.585 356.007C244.408 355.95 244.321 355.887 244.321 355.819C244.321 355.727 244.559 355.621 245.036 355.504C245.513 355.386 246.049 355.239 246.648 355.067C247.249 354.89 247.838 354.682 248.412 354.444C248.986 354.205 249.37 353.922 249.57 353.592L229.618 353.426C229.052 353.79 228.463 354.126 227.856 354.433C227.037 354.823 226.168 355.123 225.268 355.326C223.95 355.629 222.607 355.844 221.253 355.969C219.241 356.151 217.221 356.239 215.199 356.232C213.369 356.239 211.592 356.178 209.845 356.047C208.285 355.942 206.733 355.747 205.2 355.466C204.049 355.265 202.929 354.94 201.867 354.499C201.003 354.114 200.517 353.673 200.416 353.173L195.005 353.123C194.576 353.125 194.148 353.092 193.726 353.025C193.352 352.961 193.162 352.879 193.162 352.769V352.289L200.563 352.351C200.891 351.845 201.562 351.405 202.586 351.03C203.804 350.601 205.061 350.266 206.343 350.027L208.822 350.329C209.575 350.423 209.949 350.533 209.949 350.659C209.949 350.727 209.796 350.804 209.486 350.912C209.176 351.02 208.802 351.133 208.375 351.273C207.952 351.413 207.54 351.577 207.142 351.765C206.791 351.917 206.483 352.136 206.24 352.407L224.427 352.553ZM206.166 353.208C206.315 353.523 206.646 353.789 207.15 354.022C207.747 354.28 208.379 354.469 209.03 354.585C209.866 354.742 210.712 354.85 211.564 354.909C212.507 354.978 213.491 355.01 214.515 355.005C215.563 355.007 216.61 354.961 217.652 354.868C218.442 354.796 219.227 354.678 220 354.515C220.603 354.388 221.194 354.215 221.764 353.999C222.232 353.817 222.682 353.604 223.112 353.36L206.166 353.208ZM249.603 352.779C249.455 352.46 249.093 352.18 248.529 351.94C247.837 351.664 247.111 351.461 246.366 351.335C245.354 351.154 244.33 351.032 243.3 350.97C242.138 350.89 240.853 350.853 239.445 350.86C238.366 350.856 237.289 350.905 236.216 351.005C235.425 351.081 234.641 351.207 233.87 351.383C233.288 351.514 232.722 351.699 232.184 351.936C231.738 352.136 231.306 352.361 230.892 352.61L249.603 352.779Z" fill="#FCB048"/>
<path d="M229.953 346.186C203.913 346.186 176.801 348.222 172.464 352.147C172.633 352.286 172.792 352.434 172.939 352.591C176.594 349.86 198.981 347.111 229.953 347.111C261.72 347.111 284.465 350.003 287.22 352.801C287.355 352.648 287.502 352.502 287.658 352.365C284.075 348.293 256.455 346.186 229.953 346.186Z" fill="url(#paint66_linear)"/>
<path d="M165.281 339.163V350.649C165.281 354.361 191.427 357.369 223.679 357.369C255.932 357.369 282.078 354.361 282.078 350.649V339.163H165.281Z" fill="url(#paint67_linear)"/>
<path d="M223.671 345.883C255.924 345.883 282.07 342.874 282.07 339.163C282.07 335.451 255.924 332.443 223.671 332.443C191.418 332.443 165.272 335.451 165.272 339.163C165.272 342.874 191.418 345.883 223.671 345.883Z" fill="url(#paint68_linear)"/>
<path d="M223.671 346.346C195.106 346.346 165.238 343.927 165.238 339.261C165.238 339.004 165.341 338.555 165.63 338.555C165.918 338.555 165.794 338.907 165.794 339.162C165.794 342.123 189.569 345.414 223.674 345.414C257.78 345.414 281.555 342.118 281.555 339.162C281.555 338.907 281.604 338.667 281.893 338.667C282.181 338.667 282.112 339.008 282.112 339.264C282.104 343.931 252.234 346.346 223.671 346.346Z" fill="url(#paint69_linear)"/>
<path d="M218.152 339.538C218.726 339.186 219.334 338.84 219.987 338.497C220.779 338.101 221.621 337.79 222.496 337.569C223.756 337.252 225.044 337.026 226.346 336.895C228.26 336.702 230.186 336.609 232.112 336.618C234.37 336.608 236.485 336.672 238.469 336.809C240.224 336.919 241.969 337.124 243.695 337.422C245.196 337.696 246.419 338.032 247.365 338.431C248.31 338.831 248.869 339.291 249.042 339.811L255.617 339.869C256.04 339.868 256.462 339.902 256.878 339.972C257.245 340.039 257.424 340.118 257.424 340.225V340.705L248.97 340.633C248.672 341.221 247.917 341.759 246.704 342.246C245.49 342.734 243.945 343.157 242.068 343.514L238.989 343.135C238.758 343.107 238.53 343.058 238.31 342.989C238.132 342.933 238.046 342.87 238.046 342.802C238.046 342.709 238.284 342.604 238.76 342.486C239.235 342.369 239.773 342.22 240.371 342.05C240.973 341.875 241.562 341.668 242.136 341.431C242.709 341.194 243.093 340.91 243.293 340.579L223.34 340.404C222.775 340.769 222.187 341.105 221.579 341.412C220.76 341.801 219.891 342.1 218.99 342.303C217.672 342.607 216.329 342.822 214.974 342.947C212.963 343.13 210.942 343.217 208.921 343.209C207.092 343.218 205.313 343.155 203.569 343.026C202.007 342.92 200.455 342.726 198.922 342.444C197.771 342.242 196.652 341.917 195.59 341.476C194.724 341.092 194.239 340.65 194.139 340.151L188.728 340.102C188.299 340.103 187.871 340.069 187.449 340.002C187.077 339.938 186.887 339.856 186.885 339.747V339.266L194.287 339.328C194.614 338.824 195.283 338.382 196.31 338.007C197.527 337.58 198.783 337.244 200.065 337.005L202.544 337.307C203.297 337.4 203.67 337.511 203.672 337.636C203.672 337.704 203.52 337.789 203.208 337.889C202.896 337.989 202.524 338.111 202.096 338.251C201.673 338.389 201.26 338.553 200.862 338.741C200.511 338.892 200.203 339.11 199.96 339.381L218.152 339.538ZM199.893 340.192C200.04 340.506 200.371 340.774 200.876 341.006C201.474 341.263 202.106 341.452 202.757 341.569C203.593 341.726 204.44 341.834 205.292 341.892C206.233 341.961 207.217 341.994 208.243 341.989C209.291 341.988 210.338 341.94 211.38 341.844C212.17 341.772 212.954 341.655 213.727 341.492C214.331 341.364 214.921 341.192 215.492 340.976C215.96 340.794 216.41 340.58 216.84 340.336L199.893 340.192ZM243.329 339.759C243.18 339.439 242.818 339.16 242.254 338.92C241.562 338.644 240.836 338.44 240.091 338.314C239.079 338.134 238.055 338.012 237.025 337.949C235.863 337.87 234.578 337.833 233.171 337.838C232.093 337.835 231.015 337.883 229.943 337.984C229.152 338.06 228.368 338.186 227.597 338.362C227.015 338.493 226.45 338.678 225.911 338.914C225.464 339.115 225.032 339.341 224.617 339.59L243.329 339.759Z" fill="#FCB048"/>
<path d="M223.679 333.171C197.64 333.171 170.528 335.206 166.191 339.132C166.359 339.268 166.517 339.414 166.665 339.568C170.319 336.838 192.708 334.088 223.679 334.088C255.445 334.088 278.192 336.982 280.947 339.779C281.082 339.626 281.228 339.48 281.383 339.343C277.802 335.278 250.18 333.171 223.679 333.171Z" fill="url(#paint70_linear)"/>
<path d="M149.038 327.099V338.585C149.038 342.297 175.184 345.305 207.437 345.305C239.689 345.305 265.835 342.297 265.835 338.585V327.099H149.038Z" fill="url(#paint71_linear)"/>
<path d="M265.835 327.098C265.835 330.809 239.689 333.819 207.437 333.819C175.184 333.819 149.038 330.809 149.038 327.098C149.038 323.386 175.184 320.379 207.437 320.379C239.689 320.379 265.835 323.387 265.835 327.098Z" fill="url(#paint72_linear)"/>
<path d="M207.437 334.281C178.872 334.281 149.003 331.862 149.003 327.196C149.003 326.94 149.107 326.49 149.395 326.49C149.684 326.49 149.559 326.842 149.559 327.099C149.559 330.058 173.335 333.351 207.44 333.351C241.545 333.351 265.321 330.053 265.321 327.099C265.321 326.842 265.37 326.602 265.658 326.602C265.947 326.602 265.878 326.943 265.878 327.201C265.87 331.866 236 334.281 207.437 334.281Z" fill="url(#paint73_linear)"/>
<path d="M201.918 327.473C202.492 327.121 203.1 326.775 203.752 326.432C204.545 326.037 205.387 325.725 206.261 325.504C207.522 325.187 208.809 324.961 210.111 324.83C212.026 324.637 213.951 324.544 215.878 324.553C218.135 324.543 220.254 324.606 222.233 324.744C223.988 324.854 225.734 325.059 227.461 325.357C228.96 325.631 230.183 325.97 231.13 326.375C232.077 326.78 232.636 327.24 232.808 327.754L239.383 327.812C239.806 327.81 240.228 327.845 240.644 327.916C241.011 327.982 241.19 328.062 241.19 328.168V328.648L232.735 328.576C232.438 329.164 231.683 329.701 230.469 330.189C229.256 330.676 227.711 331.1 225.834 331.458L222.755 331.077C222.523 331.049 222.296 331 222.076 330.932C221.897 330.875 221.812 330.813 221.812 330.744C221.812 330.653 222.048 330.547 222.525 330.429C223.002 330.311 223.538 330.163 224.137 329.993C224.738 329.817 225.327 329.611 225.901 329.375C226.475 329.136 226.859 328.853 227.059 328.523L207.106 328.347C206.54 328.711 205.952 329.048 205.345 329.354C204.525 329.743 203.656 330.043 202.756 330.247C201.437 330.55 200.095 330.764 198.74 330.89C196.729 331.073 194.708 331.16 192.686 331.151C190.858 331.16 189.079 331.099 187.334 330.968C185.773 330.862 184.221 330.668 182.688 330.387C181.537 330.185 180.418 329.861 179.356 329.42C178.49 329.034 178.005 328.594 177.905 328.094L172.494 328.044C172.065 328.046 171.637 328.013 171.215 327.945C170.842 327.881 170.652 327.8 170.651 327.69V327.21L178.052 327.272C178.38 326.766 179.049 326.324 180.075 325.949C181.293 325.522 182.549 325.187 183.83 324.947L186.31 325.25C187.062 325.343 187.436 325.453 187.438 325.58C187.438 325.647 187.285 325.725 186.974 325.833C186.662 325.94 186.29 326.054 185.862 326.193C185.44 326.329 185.028 326.49 184.629 326.673C184.279 326.825 183.971 327.044 183.729 327.314L201.918 327.473ZM183.658 328.127C183.806 328.443 184.137 328.709 184.642 328.941C185.24 329.199 185.872 329.388 186.523 329.504C187.359 329.661 188.206 329.77 189.058 329.828C189.999 329.897 190.983 329.929 192.009 329.924C193.057 329.926 194.103 329.88 195.146 329.788C195.936 329.715 196.72 329.597 197.492 329.434C198.096 329.307 198.687 329.134 199.258 328.918C199.725 328.736 200.176 328.523 200.606 328.28L183.658 328.127ZM227.095 327.698C226.946 327.378 226.583 327.099 226.019 326.859C225.328 326.583 224.602 326.38 223.857 326.255C222.845 326.073 221.82 325.952 220.79 325.89C219.628 325.809 218.344 325.772 216.937 325.779C215.859 325.775 214.781 325.824 213.709 325.924C212.917 326 212.133 326.127 211.362 326.302C210.78 326.433 210.215 326.618 209.677 326.855C209.23 327.055 208.798 327.281 208.383 327.53L227.095 327.698Z" fill="#FCB048"/>
<path d="M207.445 321.106C181.405 321.106 154.293 323.141 149.956 327.067C150.124 327.206 150.283 327.354 150.43 327.511C154.085 324.78 176.473 322.031 207.445 322.031C239.21 322.031 261.956 324.923 264.712 327.721C264.847 327.568 264.993 327.422 265.148 327.285C261.567 323.213 233.945 321.106 207.445 321.106Z" fill="url(#paint74_linear)"/>
<path d="M163.046 315.07V326.556C163.046 330.268 189.192 333.276 221.445 333.276C253.697 333.276 279.843 330.268 279.843 326.556V315.07H163.046Z" fill="url(#paint75_linear)"/>
<path d="M221.445 321.789C253.697 321.789 279.843 318.781 279.843 315.069C279.843 311.358 253.697 308.349 221.445 308.349C189.192 308.349 163.046 311.358 163.046 315.069C163.046 318.781 189.192 321.789 221.445 321.789Z" fill="url(#paint76_linear)"/>
<path d="M221.444 322.253C192.88 322.253 163.011 319.834 163.011 315.168C163.011 314.911 163.115 314.461 163.403 314.461C163.692 314.461 163.567 314.813 163.567 315.069C163.567 318.028 187.342 321.321 221.448 321.321C255.553 321.321 279.328 318.024 279.328 315.069C279.328 314.813 279.378 314.573 279.666 314.573C279.955 314.573 279.886 314.915 279.886 315.171C279.878 319.84 250.008 322.253 221.444 322.253Z" fill="url(#paint77_linear)"/>
<path d="M215.925 315.445C216.499 315.093 217.109 314.745 217.762 314.404C218.553 314.007 219.396 313.696 220.27 313.476C221.53 313.157 222.818 312.932 224.12 312.801C226.034 312.608 227.959 312.516 229.885 312.525C232.143 312.514 234.262 312.578 236.242 312.716C237.997 312.826 239.742 313.031 241.468 313.329C242.968 313.601 244.195 313.938 245.138 314.338C246.08 314.738 246.635 315.199 246.815 315.716L253.392 315.776C253.815 315.774 254.237 315.808 254.653 315.879C255.02 315.946 255.197 316.025 255.197 316.132V316.612L246.743 316.539C246.448 317.128 245.692 317.666 244.477 318.153C243.261 318.641 241.716 319.064 239.841 319.421L236.762 319.042C236.531 319.013 236.304 318.964 236.083 318.896C235.906 318.838 235.819 318.777 235.819 318.709C235.819 318.612 236.057 318.507 236.533 318.393C237.008 318.28 237.546 318.134 238.146 317.957C238.747 317.781 239.336 317.574 239.91 317.338C240.483 317.1 240.866 316.816 241.058 316.486L221.106 316.31C220.541 316.675 219.952 317.012 219.344 317.319C218.525 317.708 217.655 318.007 216.755 318.21C215.437 318.514 214.095 318.729 212.741 318.853C210.729 319.037 208.708 319.125 206.686 319.116C204.857 319.116 203.078 319.062 201.334 318.933C199.773 318.826 198.221 318.632 196.688 318.351C195.537 318.149 194.418 317.824 193.355 317.383C192.491 316.999 192.005 316.557 191.904 316.058L186.493 316.009C186.064 316.01 185.636 315.976 185.214 315.908C184.84 315.844 184.65 315.763 184.65 315.653V315.173L192.051 315.235C192.379 314.729 193.048 314.289 194.075 313.914C195.293 313.486 196.549 313.151 197.831 312.912L200.309 313.213C201.063 313.307 201.437 313.416 201.437 313.543C201.437 313.611 201.284 313.696 200.973 313.796C200.661 313.896 200.289 314.017 199.863 314.158C199.44 314.297 199.028 314.462 198.63 314.651C198.279 314.801 197.971 315.02 197.728 315.29L215.925 315.445ZM197.666 316.099C197.813 316.413 198.146 316.68 198.649 316.912C199.247 317.17 199.879 317.36 200.53 317.476C201.366 317.633 202.213 317.741 203.065 317.799C204.008 317.866 204.992 317.899 206.017 317.896C207.064 317.894 208.111 317.846 209.153 317.751C209.943 317.679 210.727 317.562 211.5 317.399C212.104 317.271 212.695 317.098 213.266 316.881C213.733 316.7 214.184 316.486 214.613 316.243L197.666 316.099ZM241.102 315.663C240.953 315.344 240.591 315.065 240.028 314.824C239.336 314.548 238.611 314.345 237.866 314.219C236.853 314.039 235.828 313.917 234.798 313.854C233.637 313.775 232.352 313.738 230.945 313.744C229.866 313.74 228.788 313.789 227.716 313.889C226.925 313.965 226.141 314.092 225.37 314.267C224.788 314.399 224.223 314.584 223.684 314.819C223.237 315.021 222.805 315.247 222.39 315.496L241.102 315.663Z" fill="#FCB048"/>
<path d="M221.453 309.08C195.413 309.08 168.301 311.116 163.964 315.041C164.133 315.177 164.291 315.323 164.438 315.478C168.094 312.747 190.481 309.998 221.453 309.998C253.218 309.998 275.965 312.891 278.72 315.688C278.856 315.536 279.001 315.39 279.156 315.252C275.575 311.183 247.953 309.08 221.453 309.08Z" fill="url(#paint78_linear)"/>
<path d="M155.759 303.005V314.491C155.759 318.203 181.905 321.211 214.158 321.211C246.41 321.211 272.556 318.203 272.556 314.491V303.005H155.759Z" fill="url(#paint79_linear)"/>
<path d="M214.158 309.725C246.41 309.725 272.556 306.716 272.556 303.005C272.556 299.293 246.41 296.284 214.158 296.284C181.905 296.284 155.759 299.293 155.759 303.005C155.759 306.716 181.905 309.725 214.158 309.725Z" fill="url(#paint80_linear)"/>
<path d="M214.158 310.188C185.594 310.188 155.726 307.769 155.726 303.103C155.726 302.847 155.828 302.397 156.118 302.397C156.408 302.397 156.282 302.749 156.282 303.004C156.282 305.965 180.057 309.256 214.163 309.256C248.268 309.256 272.043 305.96 272.043 303.004C272.043 302.749 272.092 302.509 272.381 302.509C272.67 302.509 272.601 302.85 272.601 303.106C272.591 307.772 242.722 310.188 214.158 310.188Z" fill="url(#paint81_linear)"/>
<path d="M208.64 303.38C209.213 303.028 209.824 302.681 210.475 302.339C211.267 301.943 212.109 301.632 212.984 301.411C214.244 301.093 215.532 300.868 216.834 300.736C218.748 300.543 220.674 300.451 222.6 300.46C224.856 300.449 226.975 300.513 228.956 300.651C230.71 300.761 232.456 300.966 234.183 301.264C235.683 301.537 236.906 301.873 237.853 302.273C238.79 302.676 239.35 303.134 239.53 303.653L246.105 303.711C246.528 303.71 246.95 303.744 247.366 303.814C247.733 303.881 247.91 303.96 247.912 304.067V304.547L239.459 304.474C239.162 305.063 238.407 305.601 237.193 306.088C235.98 306.576 234.434 306.999 232.556 307.356L229.479 306.977C229.247 306.948 229.019 306.9 228.798 306.831C228.621 306.775 228.534 306.712 228.534 306.644C228.534 306.552 228.772 306.446 229.249 306.328C229.726 306.21 230.262 306.062 230.861 305.892C231.462 305.716 232.051 305.51 232.625 305.274C233.199 305.036 233.583 304.752 233.783 304.421L213.83 304.246C213.264 304.611 212.675 304.947 212.067 305.254C211.248 305.643 210.38 305.942 209.48 306.145C208.161 306.449 206.819 306.664 205.464 306.789C203.453 306.972 201.432 307.059 199.41 307.051C197.58 307.06 195.803 306.997 194.057 306.868C192.496 306.762 190.944 306.568 189.412 306.286C188.26 306.084 187.141 305.759 186.078 305.318C185.214 304.934 184.729 304.492 184.627 303.993L179.216 303.944C178.787 303.945 178.359 303.912 177.937 303.843C177.563 303.779 177.373 303.698 177.373 303.589V303.108L184.775 303.17C185.102 302.666 185.773 302.224 186.798 301.849C188.016 301.421 189.273 301.086 190.554 300.847L193.034 301.149C193.786 301.242 194.16 301.353 194.16 301.478C194.16 301.546 194.009 301.631 193.698 301.731C193.386 301.831 193.014 301.953 192.586 302.093C192.163 302.232 191.751 302.397 191.353 302.586C191.002 302.737 190.694 302.956 190.451 303.226L208.64 303.38ZM190.379 304.034C190.528 304.348 190.859 304.615 191.363 304.848C191.96 305.106 192.592 305.295 193.243 305.411C194.079 305.569 194.926 305.678 195.778 305.736C196.722 305.806 197.706 305.839 198.73 305.834C199.778 305.833 200.826 305.784 201.868 305.689C202.658 305.617 203.442 305.499 204.215 305.337C204.818 305.209 205.408 305.037 205.979 304.821C206.446 304.639 206.897 304.425 207.327 304.181L190.379 304.034ZM233.816 303.605C233.668 303.285 233.306 303.006 232.742 302.766C232.05 302.49 231.324 302.287 230.579 302.16C229.567 301.98 228.543 301.858 227.513 301.795C226.351 301.716 225.066 301.679 223.658 301.684C222.579 301.68 221.502 301.729 220.429 301.83C219.638 301.905 218.854 302.031 218.083 302.206C217.501 302.338 216.936 302.523 216.397 302.759C215.951 302.96 215.52 303.186 215.105 303.435L233.816 303.605Z" fill="#FCB048"/>
<path d="M214.166 297.013C188.128 297.013 161.014 299.048 156.677 302.974C156.846 303.113 157.005 303.261 157.153 303.418C160.807 300.686 183.194 297.936 214.166 297.936C245.933 297.936 268.678 300.83 271.433 303.627C271.569 303.474 271.715 303.328 271.871 303.191C268.288 299.12 240.668 297.013 214.166 297.013Z" fill="url(#paint82_linear)"/>
<path d="M289.168 311.101L278.613 317.759C275.203 319.911 287.592 340.546 306.286 363.849C324.98 387.151 342.902 404.303 346.312 402.151L356.867 395.494L289.168 311.101Z" fill="url(#paint83_linear)"/>
<path d="M356.867 395.497C353.456 397.649 335.536 380.499 316.842 357.194C298.148 333.889 285.757 313.253 289.168 311.104C292.578 308.956 310.498 326.102 329.192 349.407C347.886 372.712 360.277 393.345 356.867 395.497Z" fill="url(#paint84_linear)"/>
<path d="M316.416 357.463C299.855 336.817 284.77 313.845 289.058 311.135C289.294 310.99 289.768 310.799 289.935 311.009C290.103 311.218 289.707 311.331 289.471 311.48C286.751 313.195 297.506 332.281 317.269 356.925C337.032 381.57 353.845 396.835 356.564 395.119C356.8 394.973 357.056 394.867 357.22 395.075C357.384 395.283 357.033 395.433 356.797 395.581C352.505 398.286 332.972 378.102 316.416 357.463Z" fill="url(#paint85_linear)"/>
<path d="M319.474 349.53C320.13 349.739 320.802 349.979 321.496 350.257C322.318 350.6 323.092 351.028 323.801 351.532C324.824 352.258 325.777 353.057 326.653 353.922C327.94 355.193 329.141 356.531 330.25 357.929C331.562 359.554 332.731 361.122 333.759 362.632C334.673 363.964 335.495 365.344 336.218 366.765C336.838 368.006 337.238 369.085 337.419 370.001C337.599 370.917 337.501 371.587 337.124 372.012L340.88 376.798C341.129 377.102 341.342 377.427 341.516 377.769C341.669 378.073 341.695 378.249 341.602 378.309L341.162 378.589L336.328 372.439C335.615 372.566 334.682 372.332 333.531 371.737C332.38 371.142 331.096 370.269 329.679 369.12L328.243 366.674C328.135 366.492 328.047 366.3 327.981 366.102C327.93 365.94 327.938 365.841 328 365.802C328.063 365.763 328.32 365.859 328.704 366.135C329.088 366.411 329.535 366.717 330.043 367.044C330.553 367.376 331.084 367.683 331.634 367.961C332.185 368.237 332.669 368.349 333.088 368.303L321.684 353.784C321.021 353.586 320.371 353.356 319.736 353.095C318.904 352.728 318.125 352.274 317.416 351.741C316.373 350.965 315.398 350.119 314.499 349.213C313.165 347.868 311.912 346.46 310.748 344.996C309.68 343.679 308.702 342.354 307.814 341.021C307.008 339.831 306.289 338.597 305.661 337.325C305.18 336.376 304.83 335.38 304.619 334.356C304.471 333.509 304.596 332.902 304.996 332.539L301.903 328.599C301.651 328.29 301.432 327.961 301.247 327.617C301.083 327.31 301.057 327.123 301.156 327.062L301.595 326.781L305.827 332.161C306.483 332.104 307.275 332.334 308.214 332.857C309.313 333.49 310.35 334.203 311.313 334.99L312.473 336.956C312.822 337.555 312.938 337.888 312.824 337.962C312.76 338.001 312.594 337.94 312.322 337.773C312.05 337.606 311.722 337.408 311.346 337.18C310.972 336.956 310.581 336.754 310.177 336.575C309.835 336.41 309.456 336.314 309.067 336.294L319.474 349.53ZM308.29 336.715C308.087 337.005 308.029 337.401 308.111 337.897C308.221 338.477 308.414 339.044 308.683 339.582C309.023 340.277 309.414 340.951 309.856 341.6C310.34 342.321 310.881 343.051 311.479 343.791C312.085 344.549 312.734 345.279 313.424 345.979C313.947 346.508 314.51 347.006 315.108 347.469C315.575 347.832 316.077 348.159 316.606 348.446C317.044 348.678 317.501 348.88 317.974 349.05L308.29 336.715ZM333.869 367.852C334.077 367.561 334.123 367.135 334.018 366.589C333.869 365.929 333.635 365.287 333.32 364.675C332.898 363.84 332.417 363.029 331.878 362.249C331.276 361.362 330.565 360.412 329.747 359.4C329.125 358.619 328.455 357.869 327.74 357.153C327.211 356.625 326.641 356.131 326.033 355.675C325.574 355.332 325.076 355.031 324.547 354.778C324.104 354.573 323.647 354.391 323.178 354.236L333.869 367.852Z" fill="#FCB048"/>
<path d="M328.53 349.831C313.445 331.016 295.855 312.603 289.726 311.75C289.697 311.952 289.653 312.152 289.594 312.349C294.223 313.407 309.726 327.99 327.678 350.369C346.09 373.323 356.616 391.434 355.642 395.047C355.862 395.056 356.081 395.076 356.298 395.108C357.964 390.161 343.891 368.983 328.53 349.831Z" fill="url(#paint86_linear)"/>
<path d="M277.502 24.5171C232.552 2.28641 175.376 14.863 150.045 52.5462C146.95 57.1406 144.409 62.0109 142.463 67.0768C139.551 74.6743 138.026 82.6356 137.947 90.6597L151.229 76.6917C152.989 69.9115 155.936 63.4175 159.963 57.4459C182.21 24.3427 232.437 13.3029 271.919 32.8307C288.316 40.9365 300.736 53.1525 307.675 67.7994C309.039 70.6644 310.184 73.6076 311.102 76.6088C311.894 79.1983 315 80.7918 318.043 80.1695C321.086 79.5473 322.903 76.9462 322.111 74.3538C321.433 72.1583 320.661 70.0026 319.794 67.8867C312.273 49.6383 297.48 34.401 277.502 24.5171Z" fill="url(#paint87_linear)"/>
<g filter="url(#filter0_d)">
<path d="M407.633 410.916C427.758 408.624 453.273 402.599 463.521 385.617C465.96 381.575 468.406 373.726 462.254 370.77C456.628 368.067 449.355 370.915 445.173 374.438C442.101 377.023 439.702 382.794 436.247 384.616C431.193 387.286 428.472 379.999 428.578 376.991C428.816 370.268 438.144 367.514 444.344 366.055C454.633 363.631 466.614 361.547 465.969 351.271C465.325 340.994 454.018 334.815 445.321 339.322C438.154 343.03 439.162 350.941 434.266 355.688C429.916 359.904 428.403 353.061 428.691 349.705C429.323 342.415 436.55 337.143 441.868 332.258C447.88 326.733 454.524 315.623 448.115 308.322C444.427 304.12 435.057 303.135 429.519 303.845C402.414 307.315 420.388 338.421 415.459 341.89C410.53 345.359 405.867 339.286 405.88 330.049C405.893 320.812 404.298 313.999 393.427 316.955C382.556 319.911 380.485 344.039 392.899 353.312C405.313 362.585 392.12 372.702 388.787 366.056C386.381 361.258 384.266 348.693 377.309 347.315C365.723 345.022 365.895 365.999 369.23 370.882C373.903 377.727 384.479 379.213 390.382 385.119C392.097 386.833 395.968 391.08 394.463 393.589C392.366 397.086 386.516 393.345 384.364 391.724C379.532 388.08 372.842 375.699 366.033 383.922C357.624 394.072 371.685 409.125 407.633 410.916Z" fill="#34D2A5"/>
</g>
<g style="mix-blend-mode:soft-light" opacity="0.8">
<g style="mix-blend-mode:soft-light" opacity="0.8">
<path d="M410.532 409.238C410.06 409.238 409.671 408.843 409.663 408.421C409.663 408.056 409.096 371.446 427.111 327.941C427.189 327.747 427.35 327.589 427.559 327.5C427.768 327.411 428.009 327.4 428.228 327.467C428.335 327.501 428.433 327.554 428.517 327.622C428.601 327.69 428.669 327.772 428.717 327.863C428.765 327.954 428.792 328.053 428.797 328.154C428.801 328.255 428.783 328.355 428.744 328.45C410.839 371.687 411.396 408.034 411.396 408.396C411.406 408.822 411.024 409.238 410.544 409.238H410.532Z" fill="white"/>
</g>
</g>
<path d="M417.934 395.267C414.671 392.806 407.74 396.654 404.864 398.118C403.195 398.969 400.912 400.271 398.904 399.515C396.797 398.72 396.944 396.753 398.22 395.367C400.502 392.877 404.882 392.193 408.066 390.979C411.485 389.671 414.625 387.901 416.31 384.841C417.655 382.401 417.963 378.794 416.45 376.391C412.26 369.74 406.162 374.937 402.754 378.897C401.099 380.822 397.393 384.131 394.585 381.868C391.597 379.454 394.162 375.149 396.479 373.25C399.509 370.77 403.177 369.045 406.481 366.888C409.455 364.944 412.51 362.158 410.529 358.711C408.999 356.047 405.149 354.573 401.86 354.8C394.258 355.322 393.073 365.163 388.067 368.942C386.298 370.278 382.272 371.341 380.162 370.03C378.012 368.692 379.409 365.634 380.182 363.965C382.477 359.022 398.92 342.438 385.291 340.356C381.861 339.831 377.132 340.792 374.436 342.723C369.353 346.373 366.653 353.599 365.313 359.081C363.206 367.708 363.326 377.289 365.677 385.867C370.877 404.827 383.092 410.916 383.092 410.916C388.377 412.458 394.983 413.219 400.461 412.191C406.9 410.983 414.6 406.756 417.784 401.483C418.809 399.777 419.954 396.791 417.934 395.267Z" fill="url(#paint88_linear)"/>
<path d="M293.339 59.2851L315.892 72.6832L331.234 53.8125L334.294 67.5028L318.949 86.3647L296.399 72.9769L293.339 59.2851Z" fill="url(#paint89_linear)"/>
<defs>
<filter id="filter0_d" x="359.669" y="303.634" width="110.455" height="115.282" filterUnits="userSpaceOnUse" color-interpolation-filters="sRGB">
<feFlood flood-opacity="0" result="BackgroundImageFix"/>
<feColorMatrix in="SourceAlpha" type="matrix" values="0 0 0 0 0 0 0 0 0 0 0 0 0 0 0 0 0 0 127 0"/>
<feOffset dy="4"/>
<feGaussianBlur stdDeviation="2"/>
<feColorMatrix type="matrix" values="0 0 0 0 0 0 0 0 0 0 0 0 0 0 0 0 0 0 0.25 0"/>
<feBlend mode="normal" in2="BackgroundImageFix" result="effect1_dropShadow"/>
<feBlend mode="normal" in="SourceGraphic" in2="effect1_dropShadow" result="shape"/>
</filter>
<linearGradient id="paint0_linear" x1="27.6394" y1="121.681" x2="241.193" y2="121.681" gradientUnits="userSpaceOnUse">
<stop stop-color="#E38DDD"/>
<stop offset="1" stop-color="#9571F6"/>
</linearGradient>
<linearGradient id="paint1_linear" x1="292.634" y1="202.544" x2="398.572" y2="260.722" gradientUnits="userSpaceOnUse">
<stop stop-color="#444B8C"/>
<stop offset="1" stop-color="#26264F"/>
</linearGradient>
<linearGradient id="paint2_linear" x1="396382" y1="464647" x2="517837" y2="468806" gradientUnits="userSpaceOnUse">
<stop stop-color="#444B8C"/>
<stop offset="1" stop-color="#26264F"/>
</linearGradient>
<linearGradient id="paint3_linear" x1="370.016" y1="91.5945" x2="505.901" y2="506.634" gradientUnits="userSpaceOnUse">
<stop stop-color="#FFC444"/>
<stop offset="1" stop-color="#F36F56"/>
</linearGradient>
<linearGradient id="paint4_linear" x1="218987" y1="401008" x2="69563.3" y2="450646" gradientUnits="userSpaceOnUse">
<stop stop-color="#444B8C"/>
<stop offset="1" stop-color="#26264F"/>
</linearGradient>
<linearGradient id="paint5_linear" x1="99244.2" y1="467723" x2="240263" y2="472550" gradientUnits="userSpaceOnUse">
<stop stop-color="#444B8C"/>
<stop offset="1" stop-color="#26264F"/>
</linearGradient>
<linearGradient id="paint6_linear" x1="111.352" y1="3220.51" x2="-4682" y2="17435.3" gradientUnits="userSpaceOnUse">
<stop stop-color="#FFC444"/>
<stop offset="1" stop-color="#F36F56"/>
</linearGradient>
<linearGradient id="paint7_linear" x1="326.298" y1="368.63" x2="350.27" y2="466.191" gradientUnits="userSpaceOnUse">
<stop stop-color="#311944"/>
<stop offset="1" stop-color="#D0E8B3"/>
</linearGradient>
<linearGradient id="paint8_linear" x1="20453.5" y1="23611.6" x2="20477.3" y2="21890" gradientUnits="userSpaceOnUse">
<stop stop-color="#FFC444"/>
<stop offset="1" stop-color="#F36F56"/>
</linearGradient>
<linearGradient id="paint9_linear" x1="366.61" y1="374.131" x2="390.581" y2="471.686" gradientUnits="userSpaceOnUse">
<stop stop-color="#311944"/>
<stop offset="1" stop-color="#D0E8B3"/>
</linearGradient>
<linearGradient id="paint10_linear" x1="22131.9" y1="23640.8" x2="22155.7" y2="21919.2" gradientUnits="userSpaceOnUse">
<stop stop-color="#FFC444"/>
<stop offset="1" stop-color="#F36F56"/>
</linearGradient>
<linearGradient id="paint11_linear" x1="26162.3" y1="421984" x2="47459.5" y2="421780" gradientUnits="userSpaceOnUse">
<stop stop-color="#137753"/>
<stop offset="1" stop-color="#893976"/>
</linearGradient>
<linearGradient id="paint12_linear" x1="75112.7" y1="402961" x2="80935.2" y2="402961" gradientUnits="userSpaceOnUse">
<stop stop-color="#311944"/>
<stop offset="1" stop-color="#893976"/>
</linearGradient>
<linearGradient id="paint13_linear" x1="39564.1" y1="428884" x2="71890.5" y2="428422" gradientUnits="userSpaceOnUse">
<stop stop-color="#137753"/>
<stop offset="1" stop-color="#893976"/>
</linearGradient>
<linearGradient id="paint14_linear" x1="52875.2" y1="13462.6" x2="54409.5" y2="17135.4" gradientUnits="userSpaceOnUse">
<stop stop-color="#FFC444"/>
<stop offset="1" stop-color="#F36F56"/>
</linearGradient>
<linearGradient id="paint15_linear" x1="-70806.1" y1="94581.7" x2="-122810" y2="185762" gradientUnits="userSpaceOnUse">
<stop stop-color="#137753"/>
<stop offset="1" stop-color="#6165D7"/>
</linearGradient>
<linearGradient id="paint16_linear" x1="328.849" y1="142.603" x2="340.141" y2="330.807" gradientUnits="userSpaceOnUse">
<stop stop-color="#FF9263"/>
<stop offset="0.0001" stop-color="#FF4D00"/>
<stop offset="0.8125" stop-color="#FFF510"/>
<stop offset="1" stop-color="#FFA950"/>
</linearGradient>
<linearGradient id="paint17_linear" x1="79450.1" y1="28302.6" x2="82190" y2="38886.2" gradientUnits="userSpaceOnUse">
<stop stop-color="#FFC444"/>
<stop offset="1" stop-color="#F36F56"/>
</linearGradient>
<linearGradient id="paint18_linear" x1="-60804.4" y1="193264" x2="-13437.4" y2="129401" gradientUnits="userSpaceOnUse">
<stop stop-color="#D1C341"/>
<stop offset="1" stop-color="#D7A861"/>
</linearGradient>
<linearGradient id="paint19_linear" x1="340.095" y1="114.317" x2="365.549" y2="182.625" gradientUnits="userSpaceOnUse">
<stop stop-color="#311944"/>
<stop offset="1" stop-color="#D0E8B3"/>
</linearGradient>
<linearGradient id="paint20_linear" x1="334.794" y1="-181.168" x2="651.802" y2="70.1951" gradientUnits="userSpaceOnUse">
<stop stop-color="#311944"/>
<stop offset="1" stop-color="#D0E8B3"/>
</linearGradient>
<linearGradient id="paint21_linear" x1="43566.7" y1="14814.6" x2="45213.3" y2="17131.8" gradientUnits="userSpaceOnUse">
<stop stop-color="#1A3113"/>
<stop offset="1" stop-color="#26264F"/>
</linearGradient>
<linearGradient id="paint22_linear" x1="15215.4" y1="14334.3" x2="17278.6" y2="18954.2" gradientUnits="userSpaceOnUse">
<stop stop-color="#FFC444"/>
<stop offset="1" stop-color="#F36F56"/>
</linearGradient>
<linearGradient id="paint23_linear" x1="27394.5" y1="13600.3" x2="28991.9" y2="15134.5" gradientUnits="userSpaceOnUse">
<stop stop-color="#1A3113"/>
<stop offset="1" stop-color="#26264F"/>
</linearGradient>
<linearGradient id="paint24_linear" x1="344.717" y1="131.412" x2="348.056" y2="136.549" gradientUnits="userSpaceOnUse">
<stop stop-color="#FFC444"/>
<stop offset="1" stop-color="#F36F56"/>
</linearGradient>
<linearGradient id="paint25_linear" x1="-27491.5" y1="18908" x2="-28038.9" y2="20373.5" gradientUnits="userSpaceOnUse">
<stop stop-color="#FFC444"/>
<stop offset="1" stop-color="#F36F56"/>
</linearGradient>
<linearGradient id="paint26_linear" x1="-59607.2" y1="28146.3" x2="-60575.8" y2="35637.7" gradientUnits="userSpaceOnUse">
<stop stop-color="#244419"/>
<stop offset="1" stop-color="#893976"/>
</linearGradient>
<linearGradient id="paint27_linear" x1="-18520.7" y1="24639.9" x2="-18545.1" y2="22878.2" gradientUnits="userSpaceOnUse">
<stop stop-color="#FFC444"/>
<stop offset="1" stop-color="#F36F56"/>
</linearGradient>
<linearGradient id="paint28_linear" x1="-59643.1" y1="28152.1" x2="-60611.8" y2="35643.5" gradientUnits="userSpaceOnUse">
<stop stop-color="#244419"/>
<stop offset="1" stop-color="#893976"/>
</linearGradient>
<linearGradient id="paint29_linear" x1="-20147.1" y1="24669.9" x2="-20171.5" y2="22908.1" gradientUnits="userSpaceOnUse">
<stop stop-color="#FFC444"/>
<stop offset="1" stop-color="#F36F56"/>
</linearGradient>
<linearGradient id="paint30_linear" x1="26216.7" y1="426813" x2="47756.9" y2="426607" gradientUnits="userSpaceOnUse">
<stop stop-color="#137753"/>
<stop offset="1" stop-color="#893976"/>
</linearGradient>
<linearGradient id="paint31_linear" x1="-69308.7" y1="423036" x2="-75264.7" y2="423036" gradientUnits="userSpaceOnUse">
<stop stop-color="#444B8C"/>
<stop offset="1" stop-color="#26264F"/>
</linearGradient>
<linearGradient id="paint32_linear" x1="39708" y1="433792" x2="72401.9" y2="433325" gradientUnits="userSpaceOnUse">
<stop stop-color="#137753"/>
<stop offset="1" stop-color="#893976"/>
</linearGradient>
<linearGradient id="paint33_linear" x1="-47482.3" y1="14380.5" x2="-49050" y2="18134.7" gradientUnits="userSpaceOnUse">
<stop stop-color="#FFC444"/>
<stop offset="1" stop-color="#F36F56"/>
</linearGradient>
<linearGradient id="paint34_linear" x1="25428" y1="91000.2" x2="96939.1" y2="181758" gradientUnits="userSpaceOnUse">
<stop stop-color="#FFB185"/>
<stop offset="1" stop-color="#FB6FBB"/>
</linearGradient>
<linearGradient id="paint35_linear" x1="336157" y1="373717" x2="297668" y2="307045" gradientUnits="userSpaceOnUse">
<stop stop-color="#20A58D"/>
<stop offset="1" stop-color="#FF9A03"/>
</linearGradient>
<linearGradient id="paint36_linear" x1="312794" y1="288449" x2="210835" y2="178946" gradientUnits="userSpaceOnUse">
<stop stop-color="#FF9B85"/>
<stop offset="1" stop-color="#FF984E"/>
</linearGradient>
<linearGradient id="paint37_linear" x1="9385.04" y1="41188" x2="42607.3" y2="75462.2" gradientUnits="userSpaceOnUse">
<stop stop-color="#FFB185"/>
<stop offset="1" stop-color="#FB6FBB"/>
</linearGradient>
<linearGradient id="paint38_linear" x1="100.869" y1="156.764" x2="113.671" y2="120.097" gradientUnits="userSpaceOnUse">
<stop/>
<stop offset="1" stop-color="#05083A"/>
</linearGradient>
<linearGradient id="paint39_linear" x1="3828.96" y1="16089.6" x2="16725.7" y2="29798.2" gradientUnits="userSpaceOnUse">
<stop stop-color="#FFB185"/>
<stop offset="1" stop-color="#FB6FBB"/>
</linearGradient>
<linearGradient id="paint40_linear" x1="79653" y1="202974" x2="31137.3" y2="137873" gradientUnits="userSpaceOnUse">
<stop stop-color="#F03A01"/>
<stop offset="1" stop-color="#FF5A13"/>
</linearGradient>
<linearGradient id="paint41_linear" x1="39858.9" y1="11998.4" x2="39858.9" y2="7588.84" gradientUnits="userSpaceOnUse">
<stop stop-color="#137753"/>
<stop offset="1" stop-color="#142D24"/>
</linearGradient>
<linearGradient id="paint42_linear" x1="98413.2" y1="99210.3" x2="98413.2" y2="62302.2" gradientUnits="userSpaceOnUse">
<stop stop-color="#137753"/>
<stop offset="1" stop-color="#142D24"/>
</linearGradient>
<linearGradient id="paint43_linear" x1="185.416" y1="207.159" x2="114.023" y2="232.998" gradientUnits="userSpaceOnUse">
<stop stop-color="#FCB148"/>
<stop offset="0.05" stop-color="#FDBA46"/>
<stop offset="0.14" stop-color="#FFC244"/>
<stop offset="0.32" stop-color="#FFC444"/>
<stop offset="0.48" stop-color="#FDB946"/>
<stop offset="0.78" stop-color="#F99C4D"/>
<stop offset="0.87" stop-color="#F8924F"/>
<stop offset="1" stop-color="#F8924F"/>
</linearGradient>
<linearGradient id="paint44_linear" x1="244.633" y1="142.546" x2="191.305" y2="275.226" gradientUnits="userSpaceOnUse">
<stop stop-color="#FFDB44"/>
<stop offset="1" stop-color="#FEEF06"/>
</linearGradient>
<linearGradient id="paint45_linear" x1="170094" y1="205849" x2="162540" y2="160139" gradientUnits="userSpaceOnUse">
<stop stop-color="#FCB148"/>
<stop offset="0.05" stop-color="#FDBA46"/>
<stop offset="0.14" stop-color="#FFC244"/>
<stop offset="0.32" stop-color="#FFC444"/>
<stop offset="0.48" stop-color="#FDB946"/>
<stop offset="0.78" stop-color="#F99C4D"/>
<stop offset="0.87" stop-color="#F8924F"/>
<stop offset="1" stop-color="#F8924F"/>
</linearGradient>
<linearGradient id="paint46_linear" x1="145428" y1="127798" x2="176356" y2="200518" gradientUnits="userSpaceOnUse">
<stop stop-color="#FCB148"/>
<stop offset="0.05" stop-color="#FDBA46"/>
<stop offset="0.14" stop-color="#FFC244"/>
<stop offset="0.32" stop-color="#FFC444"/>
<stop offset="0.48" stop-color="#FDB946"/>
<stop offset="0.78" stop-color="#F99C4D"/>
<stop offset="0.87" stop-color="#F8924F"/>
<stop offset="1" stop-color="#F8924F"/>
</linearGradient>
<linearGradient id="paint47_linear" x1="71119.2" y1="91925" x2="89855.6" y2="138963" gradientUnits="userSpaceOnUse">
<stop stop-color="#FFDB44"/>
<stop offset="1" stop-color="#FEEF06"/>
</linearGradient>
<linearGradient id="paint48_linear" x1="80374.4" y1="132000" x2="120744" y2="188767" gradientUnits="userSpaceOnUse">
<stop stop-color="#FCB148"/>
<stop offset="0.05" stop-color="#FDBA46"/>
<stop offset="0.14" stop-color="#FFC244"/>
<stop offset="0.32" stop-color="#FFC444"/>
<stop offset="0.48" stop-color="#FDB946"/>
<stop offset="0.78" stop-color="#F99C4D"/>
<stop offset="0.87" stop-color="#F8924F"/>
<stop offset="1" stop-color="#F8924F"/>
</linearGradient>
<linearGradient id="paint49_linear" x1="13867.8" y1="15045.2" x2="17027.3" y2="19949.5" gradientUnits="userSpaceOnUse">
<stop stop-color="#FFC444"/>
<stop offset="1" stop-color="#F36F56"/>
</linearGradient>
<linearGradient id="paint50_linear" x1="26863" y1="123261" x2="126531" y2="222191" gradientUnits="userSpaceOnUse">
<stop stop-color="#FFB185"/>
<stop offset="1" stop-color="#FB6FBB"/>
</linearGradient>
<linearGradient id="paint51_linear" x1="155.287" y1="397.44" x2="289.655" y2="397.44" gradientUnits="userSpaceOnUse">
<stop stop-color="#F68252"/>
<stop offset="0.04" stop-color="#F99A4D"/>
<stop offset="0.08" stop-color="#FCAD49"/>
<stop offset="0.13" stop-color="#FEBA46"/>
<stop offset="0.2" stop-color="#FFC244"/>
<stop offset="0.32" stop-color="#FFC444"/>
<stop offset="0.45" stop-color="#FDB946"/>
<stop offset="0.69" stop-color="#F99C4C"/>
<stop offset="1" stop-color="#F36F56"/>
</linearGradient>
<linearGradient id="paint52_linear" x1="159064" y1="35788.8" x2="159132" y2="40718.2" gradientUnits="userSpaceOnUse">
<stop stop-color="#FFDB44"/>
<stop offset="1" stop-color="#FEEF06"/>
</linearGradient>
<linearGradient id="paint53_linear" x1="158970" y1="20788.6" x2="158977" y2="21666.4" gradientUnits="userSpaceOnUse">
<stop stop-color="#FFDB44"/>
<stop offset="1" stop-color="#FEEF06"/>
</linearGradient>
<linearGradient id="paint54_linear" x1="224.826" y1="396.129" x2="223.116" y2="379.989" gradientUnits="userSpaceOnUse">
<stop stop-color="#F36F56"/>
<stop offset="0.31" stop-color="#F99C4C"/>
<stop offset="0.55" stop-color="#FDB946"/>
<stop offset="0.68" stop-color="#FFC444"/>
<stop offset="0.8" stop-color="#FFC244"/>
<stop offset="0.87" stop-color="#FEBA46"/>
<stop offset="0.92" stop-color="#FCAD49"/>
<stop offset="0.96" stop-color="#F99A4D"/>
<stop offset="1" stop-color="#F57E53"/>
</linearGradient>
<linearGradient id="paint55_linear" x1="99198" y1="48509" x2="194911" y2="48509" gradientUnits="userSpaceOnUse">
<stop stop-color="#F68252"/>
<stop offset="0.04" stop-color="#F99A4D"/>
<stop offset="0.08" stop-color="#FCAD49"/>
<stop offset="0.13" stop-color="#FEBA46"/>
<stop offset="0.2" stop-color="#FFC244"/>
<stop offset="0.32" stop-color="#FFC444"/>
<stop offset="0.45" stop-color="#FDB946"/>
<stop offset="0.69" stop-color="#F99C4C"/>
<stop offset="1" stop-color="#F36F56"/>
</linearGradient>
<linearGradient id="paint56_linear" x1="147495" y1="34661.4" x2="147563" y2="39590.7" gradientUnits="userSpaceOnUse">
<stop stop-color="#FFDB44"/>
<stop offset="1" stop-color="#FEEF06"/>
</linearGradient>
<linearGradient id="paint57_linear" x1="147381" y1="20133.7" x2="147388" y2="21011.6" gradientUnits="userSpaceOnUse">
<stop stop-color="#FFDB44"/>
<stop offset="1" stop-color="#FEEF06"/>
</linearGradient>
<linearGradient id="paint58_linear" x1="-49875.7" y1="4223.51" x2="-49870.6" y2="4965.31" gradientUnits="userSpaceOnUse">
<stop stop-color="#F36F56"/>
<stop offset="0.31" stop-color="#F99C4C"/>
<stop offset="0.55" stop-color="#FDB946"/>
<stop offset="0.68" stop-color="#FFC444"/>
<stop offset="0.8" stop-color="#FFC244"/>
<stop offset="0.87" stop-color="#FEBA46"/>
<stop offset="0.92" stop-color="#FCAD49"/>
<stop offset="0.96" stop-color="#F99A4D"/>
<stop offset="1" stop-color="#F57E53"/>
</linearGradient>
<linearGradient id="paint59_linear" x1="109191" y1="46990.6" x2="204904" y2="46990.6" gradientUnits="userSpaceOnUse">
<stop stop-color="#F68252"/>
<stop offset="0.04" stop-color="#F99A4D"/>
<stop offset="0.08" stop-color="#FCAD49"/>
<stop offset="0.13" stop-color="#FEBA46"/>
<stop offset="0.2" stop-color="#FFC244"/>
<stop offset="0.32" stop-color="#FFC444"/>
<stop offset="0.45" stop-color="#FDB946"/>
<stop offset="0.69" stop-color="#F99C4C"/>
<stop offset="1" stop-color="#F36F56"/>
</linearGradient>
<linearGradient id="paint60_linear" x1="157487" y1="33537.4" x2="157555" y2="38466.7" gradientUnits="userSpaceOnUse">
<stop stop-color="#FFDB44"/>
<stop offset="1" stop-color="#FEEF06"/>
</linearGradient>
<linearGradient id="paint61_linear" x1="157381" y1="19473.3" x2="157388" y2="20351.1" gradientUnits="userSpaceOnUse">
<stop stop-color="#FFDB44"/>
<stop offset="1" stop-color="#FEEF06"/>
</linearGradient>
<linearGradient id="paint62_linear" x1="-59703.8" y1="4762.09" x2="-59698.7" y2="5504.55" gradientUnits="userSpaceOnUse">
<stop stop-color="#F36F56"/>
<stop offset="0.31" stop-color="#F99C4C"/>
<stop offset="0.55" stop-color="#FDB946"/>
<stop offset="0.68" stop-color="#FFC444"/>
<stop offset="0.8" stop-color="#FFC244"/>
<stop offset="0.87" stop-color="#FEBA46"/>
<stop offset="0.92" stop-color="#FCAD49"/>
<stop offset="0.96" stop-color="#F99A4D"/>
<stop offset="1" stop-color="#F57E53"/>
</linearGradient>
<linearGradient id="paint63_linear" x1="115254" y1="45467.7" x2="210968" y2="45467.7" gradientUnits="userSpaceOnUse">
<stop stop-color="#F68252"/>
<stop offset="0.04" stop-color="#F99A4D"/>
<stop offset="0.08" stop-color="#FCAD49"/>
<stop offset="0.13" stop-color="#FEBA46"/>
<stop offset="0.2" stop-color="#FFC244"/>
<stop offset="0.32" stop-color="#FFC444"/>
<stop offset="0.45" stop-color="#FDB946"/>
<stop offset="0.69" stop-color="#F99C4C"/>
<stop offset="1" stop-color="#F36F56"/>
</linearGradient>
<linearGradient id="paint64_linear" x1="163550" y1="32410" x2="163618" y2="37339.4" gradientUnits="userSpaceOnUse">
<stop stop-color="#FFDB44"/>
<stop offset="1" stop-color="#FEEF06"/>
</linearGradient>
<linearGradient id="paint65_linear" x1="163452" y1="18814.7" x2="163459" y2="19692.4" gradientUnits="userSpaceOnUse">
<stop stop-color="#FFDB44"/>
<stop offset="1" stop-color="#FEEF06"/>
</linearGradient>
<linearGradient id="paint66_linear" x1="-65667.8" y1="5299.97" x2="-65662.7" y2="6042.51" gradientUnits="userSpaceOnUse">
<stop stop-color="#F36F56"/>
<stop offset="0.31" stop-color="#F99C4C"/>
<stop offset="0.55" stop-color="#FDB946"/>
<stop offset="0.68" stop-color="#FFC444"/>
<stop offset="0.8" stop-color="#FFC244"/>
<stop offset="0.87" stop-color="#FEBA46"/>
<stop offset="0.92" stop-color="#FCAD49"/>
<stop offset="0.96" stop-color="#F99A4D"/>
<stop offset="1" stop-color="#F57E53"/>
</linearGradient>
<linearGradient id="paint67_linear" x1="110778" y1="43824.9" x2="206492" y2="43824.9" gradientUnits="userSpaceOnUse">
<stop stop-color="#F68252"/>
<stop offset="0.04" stop-color="#F99A4D"/>
<stop offset="0.08" stop-color="#FCAD49"/>
<stop offset="0.13" stop-color="#FEBA46"/>
<stop offset="0.2" stop-color="#FFC244"/>
<stop offset="0.32" stop-color="#FFC444"/>
<stop offset="0.45" stop-color="#FDB946"/>
<stop offset="0.69" stop-color="#F99C4C"/>
<stop offset="1" stop-color="#F36F56"/>
</linearGradient>
<linearGradient id="paint68_linear" x1="159075" y1="31193.8" x2="159143" y2="36123.2" gradientUnits="userSpaceOnUse">
<stop stop-color="#FFDB44"/>
<stop offset="1" stop-color="#FEEF06"/>
</linearGradient>
<linearGradient id="paint69_linear" x1="158970" y1="18104.1" x2="158977" y2="18981.9" gradientUnits="userSpaceOnUse">
<stop stop-color="#FFDB44"/>
<stop offset="1" stop-color="#FEEF06"/>
</linearGradient>
<linearGradient id="paint70_linear" x1="-61264.7" y1="5873.05" x2="-61259.6" y2="6614.84" gradientUnits="userSpaceOnUse">
<stop stop-color="#F36F56"/>
<stop offset="0.31" stop-color="#F99C4C"/>
<stop offset="0.55" stop-color="#FDB946"/>
<stop offset="0.68" stop-color="#FFC444"/>
<stop offset="0.8" stop-color="#FFC244"/>
<stop offset="0.87" stop-color="#FEBA46"/>
<stop offset="0.92" stop-color="#FCAD49"/>
<stop offset="0.96" stop-color="#F99A4D"/>
<stop offset="1" stop-color="#F57E53"/>
</linearGradient>
<linearGradient id="paint71_linear" x1="99198" y1="42302.1" x2="194911" y2="42302.1" gradientUnits="userSpaceOnUse">
<stop stop-color="#F68252"/>
<stop offset="0.04" stop-color="#F99A4D"/>
<stop offset="0.08" stop-color="#FCAD49"/>
<stop offset="0.13" stop-color="#FEBA46"/>
<stop offset="0.2" stop-color="#FFC244"/>
<stop offset="0.32" stop-color="#FFC444"/>
<stop offset="0.45" stop-color="#FDB946"/>
<stop offset="0.69" stop-color="#F99C4C"/>
<stop offset="1" stop-color="#F36F56"/>
</linearGradient>
<linearGradient id="paint72_linear" x1="147495" y1="30066.5" x2="147563" y2="34995.9" gradientUnits="userSpaceOnUse">
<stop stop-color="#FFDB44"/>
<stop offset="1" stop-color="#FEEF06"/>
</linearGradient>
<linearGradient id="paint73_linear" x1="147381" y1="17445.5" x2="147388" y2="18323.3" gradientUnits="userSpaceOnUse">
<stop stop-color="#FFDB44"/>
<stop offset="1" stop-color="#FEEF06"/>
</linearGradient>
<linearGradient id="paint74_linear" x1="-49875.7" y1="6416.02" x2="-49870.6" y2="7158.63" gradientUnits="userSpaceOnUse">
<stop stop-color="#F36F56"/>
<stop offset="0.31" stop-color="#F99C4C"/>
<stop offset="0.55" stop-color="#FDB946"/>
<stop offset="0.68" stop-color="#FFC444"/>
<stop offset="0.8" stop-color="#FFC244"/>
<stop offset="0.87" stop-color="#FEBA46"/>
<stop offset="0.92" stop-color="#FCAD49"/>
<stop offset="0.96" stop-color="#F99A4D"/>
<stop offset="1" stop-color="#F57E53"/>
</linearGradient>
<linearGradient id="paint75_linear" x1="109191" y1="40783.8" x2="204904" y2="40783.8" gradientUnits="userSpaceOnUse">
<stop stop-color="#F68252"/>
<stop offset="0.04" stop-color="#F99A4D"/>
<stop offset="0.08" stop-color="#FCAD49"/>
<stop offset="0.13" stop-color="#FEBA46"/>
<stop offset="0.2" stop-color="#FFC244"/>
<stop offset="0.32" stop-color="#FFC444"/>
<stop offset="0.45" stop-color="#FDB946"/>
<stop offset="0.69" stop-color="#F99C4C"/>
<stop offset="1" stop-color="#F36F56"/>
</linearGradient>
<linearGradient id="paint76_linear" x1="157487" y1="28942.6" x2="157555" y2="33871.8" gradientUnits="userSpaceOnUse">
<stop stop-color="#FFDB44"/>
<stop offset="1" stop-color="#FEEF06"/>
</linearGradient>
<linearGradient id="paint77_linear" x1="157381" y1="16788.9" x2="157388" y2="17666.6" gradientUnits="userSpaceOnUse">
<stop stop-color="#FFDB44"/>
<stop offset="1" stop-color="#FEEF06"/>
</linearGradient>
<linearGradient id="paint78_linear" x1="-59703.8" y1="6944" x2="-59698.7" y2="7685.81" gradientUnits="userSpaceOnUse">
<stop stop-color="#F36F56"/>
<stop offset="0.31" stop-color="#F99C4C"/>
<stop offset="0.55" stop-color="#FDB946"/>
<stop offset="0.68" stop-color="#FFC444"/>
<stop offset="0.8" stop-color="#FFC244"/>
<stop offset="0.87" stop-color="#FEBA46"/>
<stop offset="0.92" stop-color="#FCAD49"/>
<stop offset="0.96" stop-color="#F99A4D"/>
<stop offset="1" stop-color="#F57E53"/>
</linearGradient>
<linearGradient id="paint79_linear" x1="103993" y1="39261" x2="199707" y2="39261" gradientUnits="userSpaceOnUse">
<stop stop-color="#F68252"/>
<stop offset="0.04" stop-color="#F99A4D"/>
<stop offset="0.08" stop-color="#FCAD49"/>
<stop offset="0.13" stop-color="#FEBA46"/>
<stop offset="0.2" stop-color="#FFC244"/>
<stop offset="0.32" stop-color="#FFC444"/>
<stop offset="0.45" stop-color="#FDB946"/>
<stop offset="0.69" stop-color="#F99C4C"/>
<stop offset="1" stop-color="#F36F56"/>
</linearGradient>
<linearGradient id="paint80_linear" x1="152289" y1="27815.2" x2="152357" y2="32744.6" gradientUnits="userSpaceOnUse">
<stop stop-color="#FFDB44"/>
<stop offset="1" stop-color="#FEEF06"/>
</linearGradient>
<linearGradient id="paint81_linear" x1="152180" y1="16130.3" x2="152187" y2="17008" gradientUnits="userSpaceOnUse">
<stop stop-color="#FFDB44"/>
<stop offset="1" stop-color="#FEEF06"/>
</linearGradient>
<linearGradient id="paint82_linear" x1="-54592.7" y1="7486.59" x2="-54587.6" y2="8229.03" gradientUnits="userSpaceOnUse">
<stop stop-color="#F36F56"/>
<stop offset="0.31" stop-color="#F99C4C"/>
<stop offset="0.55" stop-color="#FDB946"/>
<stop offset="0.68" stop-color="#FFC444"/>
<stop offset="0.8" stop-color="#FFC244"/>
<stop offset="0.87" stop-color="#FEBA46"/>
<stop offset="0.92" stop-color="#FCAD49"/>
<stop offset="0.96" stop-color="#F99A4D"/>
<stop offset="1" stop-color="#F57E53"/>
</linearGradient>
<linearGradient id="paint83_linear" x1="-23390.5" y1="169432" x2="8365.59" y2="219447" gradientUnits="userSpaceOnUse">
<stop stop-color="#F68252"/>
<stop offset="0.04" stop-color="#F99A4D"/>
<stop offset="0.08" stop-color="#FCAD49"/>
<stop offset="0.13" stop-color="#FEBA46"/>
<stop offset="0.2" stop-color="#FFC244"/>
<stop offset="0.32" stop-color="#FFC444"/>
<stop offset="0.45" stop-color="#FDB946"/>
<stop offset="0.69" stop-color="#F99C4C"/>
<stop offset="1" stop-color="#F36F56"/>
</linearGradient>
<linearGradient id="paint84_linear" x1="-2647.85" y1="167662" x2="-24085.4" y2="191859" gradientUnits="userSpaceOnUse">
<stop stop-color="#FFDB44"/>
<stop offset="1" stop-color="#FEEF06"/>
</linearGradient>
<linearGradient id="paint85_linear" x1="-1491.96" y1="167061" x2="-8087.53" y2="174504" gradientUnits="userSpaceOnUse">
<stop stop-color="#FFDB44"/>
<stop offset="1" stop-color="#FEEF06"/>
</linearGradient>
<linearGradient id="paint86_linear" x1="202740" y1="-28128.9" x2="209174" y2="-35420.2" gradientUnits="userSpaceOnUse">
<stop stop-color="#F36F56"/>
<stop offset="0.31" stop-color="#F99C4C"/>
<stop offset="0.55" stop-color="#FDB946"/>
<stop offset="0.68" stop-color="#FFC444"/>
<stop offset="0.8" stop-color="#FFC244"/>
<stop offset="0.87" stop-color="#FEBA46"/>
<stop offset="0.92" stop-color="#FCAD49"/>
<stop offset="0.96" stop-color="#F99A4D"/>
<stop offset="1" stop-color="#F57E53"/>
</linearGradient>
<linearGradient id="paint87_linear" x1="189.189" y1="92.8422" x2="231.876" y2="-3.82228" gradientUnits="userSpaceOnUse">
<stop stop-color="#51FFEA"/>
<stop offset="1" stop-color="#0A7E2C"/>
</linearGradient>
<linearGradient id="paint88_linear" x1="373.14" y1="340.24" x2="379.399" y2="442.176" gradientUnits="userSpaceOnUse">
<stop stop-color="#FF9263"/>
<stop offset="0.0001" stop-color="#FF4D00"/>
<stop offset="0.8125" stop-color="#FFF510"/>
<stop offset="1" stop-color="#FFA950"/>
</linearGradient>
<linearGradient id="paint89_linear" x1="320" y1="93.9907" x2="318.427" y2="60.781" gradientUnits="userSpaceOnUse">
<stop stop-color="#51FFEA"/>
<stop offset="1" stop-color="#0A7E2C"/>
</linearGradient>
</defs>
</svg>
