<svg width="407" height="403" viewBox="0 0 407 403" fill="none" xmlns="http://www.w3.org/2000/svg">
<g clip-path="url(#clip0)">
<path d="M357.205 345.236C348.907 353.88 341.058 359.455 334.855 363.859C261.95 415.632 175.681 400.541 157.347 396.855C130.273 391.409 77.9399 380.893 40.1037 336.857C-17.1392 270.234 -8.22553 165.27 36.1754 95.983C44.298 83.3096 87.1983 12.9658 174.395 1.68115C227.169 -5.14069 288.682 8.62766 333.226 45.5645C426.729 123.098 420.075 279.728 357.205 345.236Z" fill="url(#paint0_linear)"/>
<path d="M166.564 370.119C164.014 324.077 146.966 282.077 86.463 252.197C86.463 252.197 77.0716 365.14 166.564 370.119Z" fill="url(#paint1_linear)"/>
<path opacity="0.51" d="M149.949 350.131C149.821 350.129 149.699 350.078 149.608 349.988C115.384 316.523 94.0019 267.429 93.7887 266.937C93.7375 266.819 93.7355 266.684 93.7831 266.564C93.8307 266.444 93.9241 266.347 94.0426 266.296C94.1612 266.245 94.2952 266.243 94.4153 266.29C94.5354 266.338 94.6316 266.432 94.6828 266.55C94.8945 267.041 116.205 315.963 150.289 349.288C150.359 349.356 150.407 349.443 150.426 349.538C150.446 349.633 150.437 349.732 150.401 349.822C150.364 349.912 150.302 349.989 150.221 350.043C150.14 350.097 150.046 350.126 149.949 350.125V350.131Z" fill="white"/>
<path d="M272.051 367.244C313.376 371.065 353.019 361.401 387.638 311.294C387.641 311.294 288.337 287.94 272.051 367.244Z" fill="#83E1C6"/>
<path opacity="0.51" d="M295.498 353.718C295.383 353.719 295.271 353.678 295.184 353.603C295.135 353.562 295.094 353.511 295.065 353.454C295.036 353.397 295.018 353.335 295.012 353.271C295.007 353.207 295.014 353.143 295.034 353.082C295.054 353.021 295.085 352.964 295.126 352.915C307.48 338.326 327.708 329.056 342.501 323.848C358.509 318.214 371.783 315.987 371.915 315.966C372.039 315.952 372.164 315.986 372.263 316.062C372.363 316.137 372.43 316.248 372.451 316.372C372.471 316.495 372.443 316.622 372.373 316.726C372.303 316.829 372.195 316.902 372.073 316.929C371.548 317.015 319.258 325.926 295.869 353.546C295.823 353.6 295.767 353.644 295.703 353.673C295.639 353.703 295.569 353.718 295.498 353.718V353.718Z" fill="white"/>
<path d="M171.357 279.989L162.667 358.062H263.477L250.348 279.989H171.357Z" fill="#2F2E41"/>
<path d="M2.0127 87.6363V266.442C2.01185 273.515 4.76899 280.308 9.69628 285.374C14.6236 290.439 21.3311 293.376 28.3889 293.558C93.5784 295.242 321.578 299.327 383.634 298.41C388.767 298.332 393.672 296.272 397.326 292.66C400.98 289.047 403.101 284.16 403.246 279.019C404.444 237.48 406.393 137.593 399.195 91.2192C398.463 86.4871 396.104 82.1599 392.526 78.9856C388.947 75.8112 384.374 73.9894 379.597 73.835C324.977 72.0837 83.2828 66.5259 21.2562 67.9218C16.1131 68.036 11.219 70.1634 7.62219 73.8482C4.02538 77.5331 2.01181 82.4824 2.0127 87.6363V87.6363Z" fill="#2F2E41"/>
<path d="M13.2112 86.7663V256.643C13.2111 260.77 14.8314 264.731 17.7221 267.672C20.6128 270.612 24.542 272.295 28.661 272.358L374.707 276.64C376.726 276.67 378.73 276.299 380.605 275.548C382.479 274.796 384.186 273.68 385.627 272.264C387.068 270.847 388.215 269.158 389 267.295C389.785 265.432 390.193 263.431 390.201 261.408L390.774 93.0478C390.786 90.1208 389.652 87.3056 387.615 85.2071C385.578 83.1086 382.801 81.8942 379.88 81.8248L25.6068 74.6489C23.9934 74.6092 22.3884 74.8932 20.8863 75.4843C19.3842 76.0754 18.0153 76.9616 16.8602 78.0907C15.7051 79.2199 14.7872 80.5691 14.1605 82.0591C13.5339 83.549 13.2111 85.1495 13.2112 86.7663Z" fill="#DCE3EA"/>
<path opacity="0.65" d="M392.806 283.609H392.798L13.2039 277.13C13.0748 277.128 12.9518 277.074 12.862 276.981C12.7721 276.888 12.7227 276.764 12.7247 276.634C12.7308 276.506 12.7854 276.385 12.8774 276.296C12.9693 276.207 13.0917 276.156 13.2196 276.154L392.813 282.635C392.942 282.636 393.066 282.688 393.156 282.78C393.247 282.872 393.297 282.996 393.296 283.126C393.295 283.255 393.243 283.378 393.151 283.469C393.059 283.56 392.935 283.61 392.806 283.609V283.609Z" fill="white"/>
<path opacity="0.65" d="M206.754 291.523C205.877 291.523 205.019 291.263 204.29 290.775C203.561 290.286 202.992 289.592 202.657 288.781C202.321 287.969 202.233 287.076 202.404 286.214C202.575 285.352 202.998 284.56 203.618 283.939C204.238 283.318 205.028 282.894 205.889 282.723C206.749 282.552 207.64 282.64 208.451 282.976C209.261 283.312 209.954 283.882 210.441 284.612C210.928 285.343 211.188 286.202 211.188 287.08C211.187 288.258 210.719 289.387 209.887 290.22C209.056 291.053 207.929 291.521 206.754 291.523V291.523ZM206.754 283.609C206.069 283.609 205.399 283.812 204.829 284.193C204.26 284.574 203.815 285.116 203.553 285.75C203.291 286.384 203.222 287.082 203.355 287.755C203.489 288.428 203.819 289.047 204.303 289.532C204.787 290.017 205.404 290.348 206.076 290.482C206.748 290.616 207.444 290.547 208.077 290.285C208.71 290.022 209.251 289.577 209.632 289.007C210.012 288.436 210.216 287.765 210.216 287.079C210.214 286.159 209.849 285.278 209.2 284.627C208.552 283.977 207.672 283.611 206.754 283.609V283.609Z" fill="white"/>
<path d="M265.971 369.411C310.299 347.365 344.497 312.685 348.311 240.119C348.311 240.119 232.936 278.709 265.971 369.411Z" fill="#98E6D0"/>
<path opacity="0.51" d="M273.141 353.03C273.063 353.03 272.986 353.012 272.917 352.976C272.847 352.941 272.787 352.889 272.742 352.825C272.697 352.762 272.668 352.688 272.657 352.611C272.646 352.533 272.654 352.455 272.68 352.381C283.266 322.16 298.988 298.86 310.317 284.634C322.596 269.216 332.512 260.828 332.611 260.745C332.66 260.704 332.716 260.672 332.777 260.653C332.838 260.634 332.903 260.627 332.966 260.633C333.03 260.638 333.092 260.657 333.149 260.686C333.205 260.716 333.256 260.756 333.297 260.806C333.338 260.855 333.369 260.911 333.388 260.973C333.407 261.034 333.414 261.098 333.408 261.162C333.403 261.226 333.385 261.288 333.355 261.344C333.325 261.401 333.285 261.452 333.236 261.493C332.844 261.822 293.753 295.132 273.6 352.705C273.566 352.8 273.504 352.882 273.422 352.94C273.339 352.998 273.241 353.03 273.141 353.03Z" fill="white"/>
<path d="M285.193 374.034H137.649C133.643 374.034 130.631 371.177 131.406 368.106L133.299 360.604C133.871 358.349 136.346 356.692 139.288 356.6L281.525 352.157C284.599 352.061 287.32 353.695 287.99 356.04L291.403 367.988C292.29 371.088 289.266 374.034 285.193 374.034Z" fill="#2F2E41"/>
<path d="M217.075 358.638C216.946 358.638 216.823 358.587 216.731 358.495C216.64 358.404 216.589 358.28 216.589 358.151C216.589 358.022 216.64 357.898 216.731 357.806C216.823 357.715 216.946 357.664 217.075 357.664L223.169 357.573C223.294 357.58 223.411 357.634 223.497 357.725C223.583 357.816 223.631 357.936 223.631 358.061C223.631 358.186 223.583 358.307 223.497 358.397C223.411 358.488 223.294 358.542 223.169 358.549L217.075 358.638V358.638Z" fill="white"/>
<path d="M136.868 369.905C136.798 369.905 136.729 369.889 136.665 369.859C136.602 369.829 136.545 369.786 136.5 369.732C136.454 369.679 136.421 369.616 136.401 369.549C136.382 369.481 136.377 369.41 136.387 369.341L137.257 363.885C137.481 362.466 138.199 361.171 139.283 360.231C140.367 359.29 141.748 358.764 143.182 358.745L207.83 357.798C207.954 357.804 208.072 357.857 208.159 357.947C208.245 358.038 208.294 358.158 208.295 358.283C208.296 358.408 208.249 358.528 208.164 358.62C208.078 358.711 207.961 358.766 207.837 358.774L143.197 359.723C141.992 359.739 140.832 360.181 139.921 360.971C139.01 361.762 138.407 362.849 138.218 364.041L137.349 369.497C137.33 369.611 137.271 369.715 137.183 369.789C137.095 369.864 136.983 369.905 136.868 369.905V369.905Z" fill="white"/>
<path d="M321.776 14.3703C323.982 14.4749 326.211 14.677 328.392 14.9708C328.932 15.0434 329.479 14.8982 329.912 14.567C330.345 14.2359 330.629 13.746 330.701 13.2052C330.774 12.6643 330.629 12.1167 330.298 11.6829C329.968 11.2491 329.479 10.9646 328.939 10.892C326.638 10.5825 324.294 10.3704 321.971 10.26C321.698 10.2407 321.424 10.2761 321.165 10.3643C320.906 10.4525 320.668 10.5917 320.463 10.7736C320.259 10.9555 320.093 11.1765 319.975 11.4236C319.857 11.6707 319.79 11.939 319.777 12.2126C319.764 12.4861 319.806 12.7596 319.9 13.0168C319.994 13.274 320.138 13.5097 320.324 13.7102C320.51 13.9107 320.735 14.0719 320.984 14.1843C321.234 14.2966 321.503 14.3579 321.776 14.3646V14.3703Z" fill="url(#paint2_linear)"/>
<path d="M264.317 33.0086C263.94 32.6152 263.423 32.3878 262.879 32.3762C262.335 32.3646 261.809 32.5699 261.416 32.9469C259.739 34.5578 258.113 36.259 256.579 38.006C256.232 38.4168 256.059 38.9478 256.098 39.4849C256.138 40.022 256.386 40.5222 256.789 40.8779C257.193 41.2336 257.72 41.4164 258.256 41.3869C258.793 41.3574 259.297 41.1181 259.659 40.7204C261.116 39.0608 262.663 37.4442 264.256 35.9136C264.648 35.5363 264.875 35.0184 264.886 34.4738C264.898 33.9292 264.693 33.4022 264.317 33.0086V33.0086Z" fill="url(#paint3_linear)"/>
<path d="M239.166 79.4444C238.627 79.3718 238.081 79.5163 237.648 79.8462C237.215 80.1761 236.931 80.6645 236.857 81.2043C236.543 83.5102 236.327 85.8578 236.213 88.1809C236.188 88.7246 236.379 89.2562 236.744 89.6591C237.109 90.0621 237.619 90.3035 238.161 90.3306C238.395 90.3424 238.63 90.3133 238.854 90.2447C239.259 90.1227 239.616 89.8781 239.877 89.5445C240.138 89.211 240.289 88.8047 240.31 88.3815C240.419 86.1745 240.625 83.9388 240.922 81.7561C240.995 81.2162 240.85 80.6697 240.521 80.2363C240.192 79.8029 239.704 79.5181 239.166 79.4444V79.4444Z" fill="url(#paint4_linear)"/>
<path d="M252.527 46.4631C252.302 46.3143 252.05 46.2114 251.785 46.1602C251.521 46.1091 251.249 46.1107 250.985 46.165C250.721 46.2193 250.47 46.3253 250.248 46.4768C250.025 46.6282 249.834 46.8223 249.686 47.0478C248.398 48.9926 247.194 51.0134 246.085 53.0513C245.948 53.2888 245.86 53.5514 245.825 53.8236C245.791 54.0958 245.812 54.3721 245.886 54.6362C245.96 54.9003 246.086 55.1469 246.257 55.3614C246.427 55.5759 246.639 55.754 246.88 55.8852C247.12 56.0164 247.385 56.098 247.657 56.1253C247.929 56.1525 248.205 56.1248 248.466 56.0438C248.728 55.9628 248.971 55.8302 249.18 55.6537C249.39 55.4772 249.562 55.2604 249.687 55.0162C250.741 53.0786 251.891 51.1581 253.109 49.3094C253.257 49.0842 253.36 48.832 253.411 48.567C253.462 48.3021 253.46 48.0297 253.406 47.7654C253.352 47.501 253.247 47.25 253.096 47.0265C252.945 46.8031 252.751 46.6116 252.527 46.4631Z" fill="url(#paint5_linear)"/>
<path d="M304.403 15.5082C306.578 15.1184 308.794 14.8174 310.984 14.6139C311.121 14.6012 311.257 14.5743 311.389 14.5336C311.875 14.3856 312.288 14.0622 312.55 13.6261C312.812 13.1899 312.903 12.672 312.805 12.1726C312.707 11.6732 312.428 11.2279 312.022 10.9227C311.615 10.6176 311.11 10.4744 310.605 10.5208C308.294 10.7358 305.963 11.0525 303.675 11.4624C303.407 11.5072 303.151 11.6048 302.922 11.7494C302.692 11.8941 302.493 12.083 302.337 12.3052C302.18 12.5274 302.07 12.7785 302.011 13.0438C301.952 13.3092 301.946 13.5837 301.994 13.8513C302.042 14.1189 302.142 14.3744 302.289 14.6029C302.436 14.8314 302.627 15.0284 302.85 15.1825C303.074 15.3366 303.326 15.4447 303.591 15.5006C303.857 15.5565 304.131 15.5591 304.398 15.5082H304.403Z" fill="url(#paint6_linear)"/>
<path d="M243.999 62.1992C243.49 62.0072 242.926 62.0255 242.43 62.2502C241.934 62.4749 241.548 62.8875 241.356 63.3974C240.537 65.5743 239.802 67.8143 239.171 70.0544C239.024 70.5789 239.091 71.1405 239.357 71.6158C239.622 72.0911 240.066 72.4414 240.589 72.5896C241.112 72.7371 241.673 72.6705 242.148 72.4046C242.622 72.1386 242.972 71.6949 243.121 71.1708C243.719 69.0411 244.417 66.9143 245.195 64.8463C245.387 64.3364 245.369 63.7711 245.144 63.2747C244.92 62.7783 244.508 62.3915 243.999 62.1992V62.1992Z" fill="url(#paint7_linear)"/>
<path d="M238.306 97.3274C238.038 97.3515 237.777 97.4284 237.538 97.5536C237.299 97.6788 237.087 97.8499 236.915 98.0571C236.742 98.2643 236.612 98.5036 236.531 98.7613C236.451 99.0189 236.422 99.2899 236.446 99.5588C236.655 101.869 236.967 104.205 237.372 106.5C237.419 106.766 237.518 107.021 237.663 107.249C237.809 107.477 237.998 107.674 238.219 107.829C238.441 107.984 238.691 108.093 238.955 108.151C239.219 108.208 239.492 108.213 239.758 108.165C239.838 108.151 239.917 108.132 239.995 108.109C240.477 107.964 240.888 107.648 241.152 107.219C241.416 106.791 241.513 106.28 241.426 105.784C241.04 103.603 240.744 101.385 240.546 99.1919C240.522 98.9217 240.445 98.6589 240.32 98.4187C240.194 98.1785 240.022 97.9656 239.814 97.7922C239.605 97.6189 239.365 97.4886 239.106 97.4088C238.847 97.329 238.575 97.3013 238.306 97.3274Z" fill="url(#paint8_linear)"/>
<path d="M271.93 29.3023C272.148 29.2357 272.353 29.1341 272.538 29.0013C274.325 27.7115 276.192 26.4775 278.083 25.3439C278.314 25.2054 278.516 25.0226 278.676 24.8061C278.837 24.5895 278.953 24.3434 279.019 24.0817C279.085 23.8201 279.098 23.5481 279.059 23.2812C279.02 23.0143 278.928 22.7578 278.79 22.5263C278.652 22.2948 278.469 22.0929 278.253 21.932C278.037 21.7712 277.791 21.6545 277.53 21.5888C277.269 21.523 276.997 21.5095 276.731 21.5489C276.465 21.5883 276.209 21.6798 275.977 21.8183C273.986 23.0122 272.021 24.3077 270.138 25.6678C269.744 25.9522 269.464 26.3672 269.347 26.8391C269.23 27.311 269.284 27.8092 269.499 28.2451C269.714 28.6811 270.076 29.0265 270.521 29.2201C270.966 29.4137 271.466 29.4428 271.93 29.3023V29.3023Z" fill="url(#paint9_linear)"/>
<path d="M287.497 20.5343C287.568 20.5136 287.637 20.4887 287.705 20.4598C289.736 19.5999 291.829 18.8203 293.929 18.1367C294.186 18.0561 294.425 17.9256 294.631 17.7527C294.838 17.5797 295.009 17.3677 295.134 17.1287C295.258 16.8897 295.335 16.6284 295.359 16.3597C295.383 16.091 295.354 15.8202 295.274 15.5627C295.193 15.3052 295.063 15.0662 294.891 14.8591C294.718 14.6521 294.506 14.4811 294.268 14.356C294.029 14.2309 293.768 14.1542 293.5 14.13C293.232 14.1059 292.962 14.135 292.705 14.2155L292.663 14.2284C290.451 14.945 288.247 15.7705 286.111 16.6734C285.63 16.8796 285.246 17.2621 285.038 17.7426C284.829 18.223 284.811 18.7652 284.988 19.2583C285.165 19.7514 285.524 20.1581 285.99 20.3953C286.456 20.6324 286.996 20.6822 287.497 20.5343V20.5343Z" fill="url(#paint10_linear)"/>
<path d="M244.006 116.251C243.841 115.736 243.483 115.305 243.006 115.051C242.53 114.796 241.973 114.738 241.454 114.888L241.417 114.899C240.33 115.226 239.758 116.433 240.102 117.519C240.818 119.739 241.653 122.012 242.55 124.152C242.746 124.618 243.108 124.994 243.566 125.207C244.023 125.421 244.544 125.457 245.026 125.308C245.093 125.287 245.152 125.229 245.219 125.201C245.468 125.097 245.693 124.946 245.883 124.755C246.072 124.564 246.223 124.337 246.325 124.088C246.427 123.839 246.479 123.572 246.478 123.302C246.476 123.033 246.422 122.766 246.318 122.518C245.467 120.478 244.686 118.36 244.006 116.251Z" fill="url(#paint11_linear)"/>
<path d="M344.659 16.778C344.827 16.2597 344.783 15.6958 344.536 15.2101C344.289 14.7245 343.86 14.3569 343.343 14.1883C342.285 13.8429 341.197 13.5147 340.125 13.2109C339.864 13.1297 339.588 13.1018 339.316 13.129C339.043 13.1561 338.779 13.2376 338.538 13.3687C338.298 13.4999 338.086 13.6779 337.915 13.8925C337.744 14.107 337.618 14.3536 337.544 14.6178C337.469 14.882 337.449 15.1583 337.483 15.4306C337.517 15.7029 337.606 15.9655 337.743 16.2031C337.88 16.4406 338.063 16.6482 338.282 16.8137C338.5 16.9791 338.75 17.0991 339.015 17.1664C340.039 17.453 341.068 17.7683 342.074 18.0965C342.591 18.2642 343.154 18.2196 343.638 17.9724C344.123 17.7253 344.49 17.2958 344.659 16.778V16.778Z" fill="url(#paint12_linear)"/>
<path d="M310.442 169.867C308.282 169.655 306.103 169.348 303.97 168.954C303.705 168.905 303.433 168.909 303.17 168.965C302.907 169.021 302.657 169.129 302.435 169.282C302.213 169.435 302.024 169.63 301.877 169.856C301.731 170.083 301.63 170.336 301.582 170.601C301.533 170.866 301.537 171.139 301.593 171.403C301.649 171.666 301.756 171.916 301.909 172.139C302.062 172.361 302.257 172.551 302.483 172.697C302.709 172.844 302.961 172.945 303.226 172.994C305.473 173.409 307.767 173.733 310.041 173.957C310.578 174.002 311.111 173.833 311.525 173.488C311.939 173.142 312.201 172.647 312.254 172.11C312.306 171.572 312.146 171.036 311.807 170.616C311.467 170.196 310.977 169.927 310.442 169.867V169.867Z" fill="url(#paint13_linear)"/>
<path d="M395.064 61.7533C395.276 62.1917 395.638 62.5401 396.083 62.7362C396.529 62.9323 397.029 62.9634 397.495 62.8239C397.6 62.7922 397.703 62.7525 397.802 62.7049C398.291 62.4666 398.666 62.0437 398.844 61.5288C399.022 61.014 398.989 60.4494 398.752 59.959C398.265 58.9558 397.75 57.9454 397.219 56.9565C396.951 56.4972 396.515 56.1601 396.004 56.0162C395.492 55.8723 394.945 55.9329 394.477 56.185C394.009 56.4372 393.657 56.8614 393.495 57.3683C393.333 57.8752 393.374 58.4253 393.609 58.9027C394.112 59.84 394.602 60.8002 395.064 61.7533Z" fill="url(#paint14_linear)"/>
<path d="M404.383 86.1786C404.115 86.2048 403.854 86.2837 403.616 86.4109C403.379 86.538 403.168 86.7109 402.997 86.9196C402.826 87.1283 402.697 87.3687 402.619 87.6272C402.541 87.8856 402.514 88.157 402.541 88.4258C402.751 90.5927 402.871 92.7912 402.898 94.9624C402.905 95.5073 403.128 96.0269 403.518 96.4072C403.907 96.7875 404.432 96.9972 404.975 96.9904C405.169 96.9896 405.362 96.9606 405.548 96.9044C405.973 96.7752 406.346 96.5109 406.609 96.1514C406.872 95.7919 407.011 95.3565 407.005 94.9108C406.977 92.6178 406.851 90.309 406.629 88.0317C406.604 87.762 406.526 87.4999 406.399 87.2606C406.272 87.0213 406.099 86.8094 405.891 86.6372C405.682 86.465 405.441 86.3358 405.183 86.2571C404.924 86.1784 404.652 86.1517 404.383 86.1786V86.1786Z" fill="url(#paint15_linear)"/>
<path d="M404.592 103.801C404.325 103.767 404.054 103.787 403.794 103.858C403.535 103.93 403.292 104.052 403.079 104.217C402.867 104.383 402.689 104.589 402.556 104.823C402.422 105.058 402.337 105.316 402.303 105.584C402.033 107.733 401.665 109.912 401.213 112.041C401.132 112.56 401.252 113.091 401.549 113.524C401.846 113.957 402.297 114.259 402.81 114.369C403.323 114.479 403.858 114.389 404.306 114.116C404.754 113.843 405.081 113.408 405.219 112.901C405.695 110.66 406.077 108.373 406.363 106.101C406.432 105.561 406.285 105.015 405.953 104.584C405.621 104.152 405.131 103.871 404.592 103.801V103.801Z" fill="url(#paint16_linear)"/>
<path d="M390.746 137.679C389.582 139.512 388.326 141.322 387.013 143.055C386.85 143.27 386.731 143.515 386.662 143.776C386.594 144.037 386.577 144.309 386.614 144.576C386.65 144.843 386.739 145.101 386.875 145.334C387.011 145.567 387.191 145.77 387.405 145.934C387.62 146.097 387.864 146.216 388.125 146.285C388.385 146.353 388.656 146.37 388.923 146.333C389.19 146.297 389.447 146.208 389.68 146.072C389.912 145.936 390.116 145.755 390.278 145.54C391.662 143.717 392.984 141.814 394.208 139.884C394.486 139.424 394.574 138.873 394.452 138.35C394.33 137.826 394.008 137.371 393.555 137.083C393.102 136.795 392.554 136.696 392.029 136.807C391.504 136.919 391.044 137.232 390.746 137.679V137.679Z" fill="url(#paint17_linear)"/>
<path d="M366.666 161.775C364.829 162.939 362.922 164.035 361 165.035C360.545 165.27 360.194 165.667 360.016 166.148C359.838 166.628 359.846 167.158 360.039 167.633C360.231 168.108 360.594 168.494 361.056 168.715C361.517 168.936 362.045 168.975 362.535 168.826C362.657 168.79 362.776 168.742 362.889 168.683C364.915 167.628 366.923 166.474 368.858 165.243C369.307 164.947 369.622 164.487 369.736 163.96C369.849 163.433 369.752 162.883 369.465 162.428C369.178 161.973 368.723 161.648 368.2 161.525C367.676 161.402 367.126 161.49 366.666 161.769V161.775Z" fill="url(#paint18_linear)"/>
<path d="M380.032 151.065C378.494 152.606 376.876 154.095 375.221 155.493C375.01 155.666 374.836 155.879 374.709 156.119C374.581 156.36 374.503 156.624 374.478 156.895C374.453 157.166 374.482 157.44 374.563 157.7C374.645 157.959 374.777 158.2 374.952 158.409C375.128 158.617 375.343 158.788 375.585 158.912C375.827 159.037 376.091 159.112 376.362 159.133C376.633 159.154 376.906 159.12 377.164 159.035C377.422 158.95 377.661 158.814 377.866 158.635C379.608 157.162 381.313 155.592 382.931 153.971C383.129 153.782 383.286 153.555 383.395 153.304C383.504 153.053 383.561 152.783 383.564 152.509C383.568 152.236 383.516 151.964 383.413 151.711C383.31 151.457 383.157 151.227 382.964 151.034C382.771 150.84 382.541 150.687 382.288 150.584C382.035 150.48 381.764 150.429 381.491 150.432C381.218 150.434 380.948 150.492 380.698 150.601C380.447 150.71 380.221 150.867 380.032 151.065V151.065Z" fill="url(#paint19_linear)"/>
<path d="M400.922 121.036C400.669 120.944 400.4 120.903 400.131 120.916C399.862 120.928 399.598 120.993 399.354 121.108C399.11 121.223 398.891 121.384 398.71 121.584C398.529 121.783 398.388 122.016 398.297 122.27C397.56 124.314 396.723 126.353 395.82 128.334C395.594 128.829 395.573 129.394 395.762 129.905C395.951 130.416 396.335 130.83 396.83 131.057C397.324 131.284 397.888 131.305 398.398 131.116C398.908 130.926 399.322 130.541 399.548 130.046C400.503 127.964 401.38 125.817 402.155 123.667C402.246 123.413 402.287 123.144 402.275 122.874C402.262 122.605 402.197 122.34 402.082 122.096C401.968 121.851 401.806 121.632 401.607 121.45C401.408 121.268 401.175 121.128 400.922 121.036V121.036Z" fill="url(#paint20_linear)"/>
<path d="M334.592 173.242C332.433 173.51 330.242 173.69 328.075 173.778C327.806 173.789 327.541 173.852 327.297 173.965C327.052 174.078 326.833 174.239 326.65 174.437C326.467 174.635 326.325 174.867 326.232 175.12C326.139 175.373 326.097 175.642 326.108 175.912C326.118 176.181 326.182 176.446 326.295 176.691C326.408 176.936 326.567 177.156 326.765 177.339C326.963 177.522 327.195 177.664 327.447 177.757C327.7 177.851 327.969 177.893 328.238 177.882C330.518 177.792 332.827 177.596 335.097 177.321C335.213 177.306 335.327 177.281 335.439 177.247C335.94 177.106 336.37 176.78 336.639 176.333C336.909 175.887 336.999 175.354 336.892 174.844C336.784 174.333 336.486 173.883 336.059 173.584C335.632 173.285 335.108 173.16 334.592 173.235V173.242Z" fill="url(#paint21_linear)"/>
<path d="M351.267 169.279C349.235 170.004 347.141 170.652 345.019 171.217C344.499 171.362 344.057 171.706 343.789 172.175C343.521 172.644 343.448 173.201 343.586 173.723C343.725 174.246 344.063 174.693 344.528 174.967C344.993 175.242 345.547 175.322 346.071 175.189C346.99 174.944 347.902 174.685 348.806 174.413C350.094 174.024 351.381 173.599 352.643 173.151C353.137 172.955 353.536 172.575 353.756 172.089C353.975 171.604 353.998 171.053 353.82 170.551C353.641 170.049 353.275 169.636 352.799 169.4C352.323 169.163 351.773 169.121 351.267 169.282V169.279Z" fill="url(#paint22_linear)"/>
<path d="M402.934 70.3467C402.853 70.0884 402.722 69.849 402.547 69.6423C402.373 69.4357 402.159 69.2661 401.918 69.1434C401.678 69.0207 401.415 68.9475 401.145 68.9279C400.876 68.9084 400.605 68.9429 400.349 69.0296C400.093 69.1131 399.856 69.2463 399.651 69.4216C399.447 69.597 399.278 69.811 399.156 70.0515C399.034 70.292 398.961 70.5543 398.94 70.8233C398.919 71.0923 398.951 71.3628 399.035 71.6193C399.212 72.1668 399.385 72.7176 399.552 73.2717C400.013 74.8023 400.432 76.3688 400.8 77.9281C400.925 78.4582 401.256 78.9168 401.718 79.203C402.181 79.4892 402.738 79.5796 403.268 79.4544C403.309 79.4443 403.351 79.4343 403.391 79.4214C403.89 79.2698 404.312 78.9336 404.573 78.4811C404.833 78.0285 404.912 77.4936 404.793 76.985C404.405 75.3455 403.964 73.6988 403.479 72.0879C403.304 71.5032 403.122 70.9228 402.934 70.3467Z" fill="url(#paint23_linear)"/>
<path d="M293.636 166.295C292.634 165.963 291.622 165.603 290.625 165.226C290.371 165.125 290.101 165.075 289.828 165.08C289.556 165.085 289.287 165.145 289.037 165.255C288.788 165.365 288.563 165.524 288.376 165.722C288.188 165.921 288.042 166.154 287.946 166.41C287.85 166.665 287.805 166.938 287.815 167.21C287.825 167.483 287.889 167.751 288.004 167.999C288.119 168.247 288.281 168.469 288.483 168.653C288.684 168.838 288.92 168.98 289.177 169.071C290.225 169.468 291.293 169.847 292.347 170.196C292.859 170.35 293.41 170.298 293.884 170.051C294.358 169.804 294.717 169.381 294.885 168.873C295.053 168.365 295.016 167.811 294.782 167.33C294.549 166.848 294.137 166.477 293.634 166.295H293.636Z" fill="url(#paint24_linear)"/>
<path d="M385.243 75.2021L373.699 73.5726C371.519 68.7184 368.592 64.2369 365.025 60.2915L350.124 63.1578L338.736 75.5274L348.79 97.3358L323.345 96.4845L308.468 107.579L310.486 127.157L294.846 124.119L289.526 129.414L286.522 140.67C286.47 140.863 286.48 141.067 286.55 141.254C286.62 141.441 286.746 141.602 286.911 141.714L298.513 149.554C298.678 149.666 298.875 149.723 299.074 149.717C299.273 149.712 299.466 149.644 299.626 149.524L308.947 142.502C314.11 144.472 319.56 145.585 325.081 145.798L330.914 155.91C331.014 156.083 331.165 156.221 331.347 156.304C331.528 156.387 331.731 156.411 331.927 156.373L345.66 153.698C345.856 153.66 346.035 153.561 346.173 153.416C346.31 153.272 346.399 153.087 346.427 152.889L348.059 141.309C353.101 139.041 357.74 135.965 361.792 132.2L373.064 135.22C373.256 135.272 373.46 135.262 373.647 135.191C373.834 135.121 373.994 134.994 374.105 134.829L381.93 123.206C382.042 123.04 382.099 122.844 382.094 122.644C382.089 122.444 382.022 122.25 381.901 122.091L374.892 112.754C376.859 107.581 377.97 102.121 378.182 96.5891L388.277 90.7447C388.45 90.6449 388.588 90.4934 388.67 90.3115C388.753 90.1295 388.777 89.9262 388.738 89.73L386.069 75.9717C386.03 75.7725 385.929 75.5907 385.781 75.4524C385.633 75.3142 385.444 75.2265 385.243 75.2021Z" fill="#83E1C6"/>
<path d="M331.658 104.377C329.297 105.484 326.616 105.698 324.11 104.978C321.604 104.259 319.442 102.655 318.025 100.463L315.393 102.431C316.948 104.764 319.164 106.579 321.756 107.642C324.348 108.704 327.197 108.967 329.939 108.395C332.681 107.823 335.19 106.444 337.144 104.434C339.097 102.423 340.407 99.8736 340.903 97.1124L337.573 96.9934C337.213 98.5941 336.493 100.091 335.468 101.371C334.443 102.651 333.14 103.679 331.658 104.377V104.377Z" fill="url(#paint25_linear)"/>
<path d="M360.316 84.2697C358.12 76.9642 353.559 70.5989 347.352 66.1775L346.231 67.3957C352.226 71.6108 356.633 77.7215 358.745 84.7469C359.072 85.8313 359.343 86.9314 359.559 88.0432C360.761 94.196 360.178 100.565 357.88 106.396C353.886 116.546 344.965 124.514 333.503 126.747C331.202 127.196 328.859 127.4 326.514 127.353C326.296 127.349 326.086 127.431 325.93 127.582C325.773 127.733 325.682 127.94 325.677 128.157C325.675 128.244 325.687 128.33 325.711 128.412C325.761 128.579 325.863 128.725 326.001 128.83C326.14 128.934 326.308 128.993 326.481 128.996C326.624 128.996 326.758 128.924 326.897 128.925C326.967 128.925 327.04 128.85 327.11 128.85H327.186C329.027 128.85 330.878 128.776 332.707 128.481C333.079 128.421 333.449 128.394 333.817 128.322C334.988 128.093 336.14 127.826 337.267 127.487C345.456 124.998 352.433 119.555 356.848 112.211C361.264 104.867 362.803 96.1435 361.17 87.7279C360.943 86.5616 360.658 85.4074 360.316 84.2697V84.2697Z" fill="url(#paint26_linear)"/>
<path d="M298.571 118.263L296.647 99.6046L311.525 88.5106L336.316 89.3403C336.384 89.3425 336.453 89.3271 336.514 89.2954C336.575 89.2638 336.627 89.217 336.665 89.1596C336.703 89.1022 336.726 89.0359 336.731 88.9672C336.736 88.8985 336.724 88.8296 336.695 88.7671L326.916 67.5563L338.306 55.1853L353.208 52.319C353.064 52.1628 352.93 52.0008 352.787 51.846L355.798 40.5585C355.849 40.3655 355.839 40.1613 355.769 39.9744C355.699 39.7874 355.573 39.6269 355.408 39.5151L343.806 31.6729C343.64 31.5612 343.444 31.504 343.245 31.5094C343.045 31.5148 342.852 31.5825 342.693 31.703L333.372 38.7326C328.208 36.7627 322.759 35.6494 317.238 35.4364L311.403 25.324C311.303 25.1508 311.152 25.0131 310.971 24.9301C310.789 24.8471 310.586 24.823 310.39 24.8611L296.657 27.5368C296.461 27.5748 296.282 27.6731 296.145 27.818C296.007 27.9629 295.918 28.1472 295.89 28.3451L294.261 39.9107C289.22 42.177 284.581 45.2518 280.528 49.0141L269.261 46.0045C269.068 45.9529 268.864 45.9628 268.678 46.033C268.491 46.1031 268.331 46.2299 268.219 46.3957L260.393 58.0187C260.282 58.1844 260.225 58.3807 260.23 58.5802C260.236 58.7798 260.303 58.9728 260.423 59.1322L267.433 68.4707C265.466 73.6433 264.354 79.1027 264.142 84.6338L254.063 90.4754C253.89 90.5753 253.753 90.7268 253.67 90.9087C253.587 91.0906 253.563 91.2938 253.601 91.4901L256.272 105.248C256.31 105.445 256.408 105.624 256.553 105.762C256.698 105.899 256.882 105.988 257.08 106.017L268.624 107.646C270.889 112.697 273.96 117.344 277.717 121.404L277.708 121.44L283.033 116.15L297.767 119.017C297.872 119.035 297.98 119.029 298.083 118.999C298.185 118.968 298.279 118.914 298.357 118.841C298.435 118.768 298.495 118.678 298.532 118.577C298.569 118.477 298.583 118.369 298.571 118.263Z" fill="#83E1C6"/>
<path d="M306.202 92.489C305.934 92.0826 305.695 91.6584 305.486 91.2192C304.752 89.6616 304.4 87.9506 304.46 86.229C304.52 84.5074 304.989 82.8251 305.83 81.3224C306.671 79.8197 307.858 78.5401 309.292 77.5905C310.727 76.6408 312.368 76.0485 314.077 75.863C315.786 75.6776 317.515 75.9043 319.12 76.5243C320.724 77.1442 322.157 78.1395 323.299 79.4271C324.442 80.7147 325.26 82.2572 325.686 83.9261C326.113 85.5949 326.134 87.3417 325.75 89.0207L329.079 89.1382C329.505 86.8597 329.364 84.5112 328.668 82.3002C327.973 80.0892 326.745 78.0838 325.093 76.4612C323.44 74.8385 321.414 73.6487 319.194 72.9967C316.973 72.3447 314.627 72.2507 312.361 72.723C310.096 73.1953 307.982 74.2193 306.205 75.7046C304.429 77.1898 303.045 79.0906 302.175 81.2389C301.306 83.3873 300.978 85.717 301.221 88.0223C301.464 90.3276 302.27 92.5375 303.568 94.4567L306.202 92.489Z" fill="url(#paint27_linear)"/>
<path d="M334.734 57.6373C330.974 55.0811 326.745 53.2975 322.292 52.3898C317.839 51.482 313.251 51.4681 308.792 52.349C290.077 55.9949 277.8 74.2204 281.439 92.9776C281.665 94.1327 281.947 95.2716 282.285 96.3942C283.745 101.253 286.257 105.73 289.642 109.506C289.766 109.645 289.934 109.737 290.118 109.768C290.302 109.798 290.491 109.765 290.653 109.673C290.816 109.582 290.942 109.438 291.012 109.265C291.082 109.091 291.09 108.9 291.037 108.721C291.002 108.605 290.943 108.498 290.862 108.408C286.886 103.964 284.186 98.5218 283.051 92.6623C279.584 74.798 291.265 57.4395 309.106 53.967C313.352 53.1277 317.723 53.1408 321.965 54.0055C326.207 54.8702 330.235 56.5694 333.817 59.0045C334.017 59.1393 334.21 59.2826 334.408 59.4216L335.529 58.2034C335.266 58.0099 335.004 57.8193 334.734 57.6373Z" fill="url(#paint28_linear)"/>
<path d="M92.2491 85.4299C108.004 69.6462 108.004 44.0559 92.2491 28.2723C76.4943 12.4887 50.9509 12.4887 35.1961 28.2723C19.4414 44.0559 19.4414 69.6462 35.1961 85.4299C50.9509 101.213 76.4943 101.213 92.2491 85.4299Z" fill="white"/>
<path d="M91.3003 84.4793C106.531 69.2207 106.531 44.4815 91.3003 29.2228C76.0696 13.9642 51.3757 13.9642 36.145 29.2228C20.9143 44.4815 20.9143 69.2207 36.145 84.4793C51.3757 99.738 76.0696 99.738 91.3003 84.4793Z" fill="url(#paint29_linear)"/>
<path opacity="0.7" d="M95.8832 41.0329C95.9536 41.0329 96.0228 41.0149 96.0843 40.9804C96.1457 40.946 96.1973 40.8964 96.2342 40.8363C96.2711 40.7763 96.292 40.7077 96.2949 40.6373C96.2978 40.5668 96.2827 40.4968 96.2509 40.4339C90.0152 28.0585 77.5524 20.3696 63.7234 20.3696C61.5204 20.3693 59.3218 20.5679 57.1544 20.963C57.0983 20.9691 57.0441 20.9867 56.9952 21.0147C56.9462 21.0427 56.9035 21.0805 56.8697 21.1257C56.8359 21.1709 56.8117 21.2225 56.7986 21.2775C56.7855 21.3324 56.7838 21.3894 56.7936 21.445C56.8034 21.5007 56.8245 21.5537 56.8556 21.6008C56.8867 21.6479 56.9271 21.6881 56.9743 21.719C57.0215 21.7498 57.0746 21.7706 57.1302 21.7801C57.1857 21.7896 57.2427 21.7876 57.2974 21.7741C59.416 21.3906 61.5648 21.1988 63.7177 21.2009C70.3138 21.1804 76.7847 23.0045 82.4023 26.4679C88.02 29.9313 92.5614 34.8966 95.5156 40.805C95.5498 40.8734 95.6023 40.9309 95.6672 40.9712C95.7321 41.0114 95.8069 41.0328 95.8832 41.0329V41.0329Z" fill="white"/>
<path d="M86.2143 81.0868C99.1054 68.1721 99.1054 47.2332 86.2143 34.3185C73.3233 21.4038 52.4228 21.4038 39.5317 34.3185C26.6407 47.2332 26.6407 68.1721 39.5317 81.0868C52.4228 94.0015 73.3233 94.0015 86.2143 81.0868Z" fill="white"/>
<path d="M64.9179 64.1325L61.1813 64.0436C60.1399 64.0178 59.2787 63.1264 59.2243 62.0759L57.8567 35.7058C57.8407 35.4532 57.8807 35.2003 57.9739 34.9651C58.0672 34.7299 58.2114 34.5184 58.396 34.3457C58.768 33.9788 59.283 33.8599 59.8266 33.8986L66.264 34.3471C66.526 34.3533 66.7842 34.4118 67.0234 34.5191C67.2627 34.6264 67.4782 34.7803 67.6573 34.972C68.013 35.3622 68.2006 35.8772 68.1795 36.4052L66.8491 62.2923C66.8319 62.7913 66.62 63.2637 66.2588 63.6078C65.8977 63.9519 65.4162 64.1403 64.9179 64.1325V64.1325Z" fill="url(#paint30_linear)"/>
<path d="M59.1526 70.573C60.0853 69.6797 61.3962 69.2473 63.0852 69.276C64.8247 69.3027 66.1451 69.7614 67.0463 70.6518C67.9475 71.5423 68.3972 72.8388 68.3953 74.5414C68.3953 76.1867 67.9356 77.4608 67.0163 78.3637C66.0969 79.2665 64.787 79.7194 63.0866 79.7223C61.4186 79.7223 60.1125 79.2537 59.1684 78.3164C58.2242 77.3791 57.7512 76.0926 57.7493 74.4569C57.7483 72.7629 58.2161 71.4682 59.1526 70.573Z" fill="url(#paint31_linear)"/>
<path d="M210.989 39.2443L106.848 214.544C104.559 218.393 107.55 223.103 112.304 223.143L318.742 224.844C323.514 224.884 326.591 220.194 324.345 216.307L222.048 39.303C219.696 35.2343 213.391 35.2013 210.989 39.2443Z" fill="url(#paint32_linear)"/>
<path d="M211.516 49.7178L116.935 208.926C114.859 212.42 117.573 216.697 121.89 216.732L309.376 218.279C313.709 218.315 316.504 214.055 314.464 210.524L221.558 49.7708C219.422 46.0747 213.697 46.0446 211.516 49.7178Z" fill="url(#paint33_linear)"/>
<path d="M195.258 158.811L190.637 158.871V167.138L182.664 167.271V158.975L166.008 159.192V153.262L183.108 127.244L190.632 127.253V152.325L195.252 152.277L195.258 158.811ZM182.669 152.405V145.609C182.669 144.477 182.714 142.834 182.802 140.68C182.891 138.527 182.962 137.276 183.014 136.928H182.802C182.133 138.453 181.344 139.922 180.442 141.321L173.304 152.492L182.669 152.405Z" fill="white"/>
<path d="M225.739 146.92C225.739 153.777 224.67 158.869 222.534 162.195C220.398 165.521 217.09 167.226 212.609 167.311C208.25 167.385 204.955 165.722 202.724 162.322C200.493 158.923 199.377 153.859 199.375 147.131C199.375 140.12 200.461 134.952 202.633 131.626C204.804 128.3 208.13 126.644 212.609 126.66C216.95 126.666 220.225 128.391 222.433 131.836C224.64 135.282 225.742 140.31 225.739 146.92ZM207.361 147.064C207.361 151.919 207.762 155.394 208.565 157.487C209.368 159.58 210.716 160.612 212.609 160.583C214.465 160.557 215.804 159.478 216.626 157.345C217.448 155.213 217.859 151.758 217.859 146.98C217.859 142.148 217.444 138.677 216.613 136.569C215.783 134.46 214.447 133.406 212.608 133.407C210.731 133.407 209.387 134.47 208.576 136.594C207.766 138.719 207.359 142.21 207.355 147.065L207.361 147.064Z" fill="white"/>
<path d="M257.42 158.001L253.054 158.059V166.094L245.518 166.221V158.156L229.782 158.361V152.598L245.948 127.312L253.057 127.32V151.694L257.423 151.65L257.42 158.001ZM245.518 151.77V145.169C245.518 144.07 245.56 142.473 245.644 140.378C245.728 138.283 245.795 137.067 245.845 136.732H245.644C245.014 138.212 244.269 139.639 243.414 141.001L236.671 151.859L245.518 151.77Z" fill="white"/>
<path d="M177.268 202.104L164.965 202.5V180.483L177.268 180.208V184.018L169.511 184.205V189.029L176.73 188.84V192.645L169.511 192.846V198.513L177.268 198.276V202.104Z" fill="white"/>
<path d="M186.907 193.429V201.789L182.43 201.932V180.092L188.582 179.949C191.435 179.884 193.544 180.374 194.908 181.419C196.271 182.464 196.952 184.08 196.95 186.265C196.968 187.488 196.614 188.687 195.936 189.704C195.259 190.717 194.301 191.524 193.061 192.124C196.208 196.918 198.255 200.01 199.203 201.4L194.292 201.558L189.286 193.362L186.907 193.429ZM186.907 189.671L188.346 189.633C189.755 189.595 190.794 189.325 191.463 188.82C192.131 188.316 192.465 187.543 192.464 186.503C192.464 185.471 192.122 184.745 191.438 184.326C190.755 183.906 189.694 183.715 188.257 183.752L186.904 183.785L186.907 189.671Z" fill="white"/>
<path d="M206.94 192.86V201.151L202.545 201.294V179.642L208.581 179.499C211.384 179.436 213.454 179.922 214.793 180.958C216.132 181.994 216.8 183.594 216.796 185.76C216.811 186.97 216.462 188.156 215.795 189.164C215.127 190.168 214.185 190.967 212.97 191.562C216.061 196.312 218.073 199.377 219.004 200.757L214.18 200.912L209.262 192.787L206.94 192.86ZM206.94 189.134L208.353 189.097C209.738 189.059 210.759 188.791 211.416 188.291C212.073 187.792 212.402 187.027 212.403 185.998C212.403 184.977 212.069 184.26 211.402 183.848C210.734 183.437 209.692 183.246 208.276 183.275L206.947 183.307L206.94 189.134Z" fill="white"/>
<path d="M240.666 189.399C240.666 192.922 239.842 195.655 238.193 197.598C236.544 199.542 234.171 200.565 231.073 200.669C227.967 200.77 225.577 199.893 223.905 198.04C222.232 196.186 221.395 193.471 221.394 189.893C221.394 186.32 222.233 183.571 223.912 181.647C225.59 179.723 227.986 178.729 231.1 178.665C234.206 178.595 236.578 179.484 238.214 181.333C239.851 183.182 240.668 185.871 240.666 189.399ZM225.932 189.8C225.932 192.194 226.361 193.983 227.219 195.169C228.077 196.355 229.365 196.921 231.082 196.867C234.5 196.764 236.208 194.315 236.206 189.521C236.204 184.726 234.502 182.367 231.1 182.441C229.39 182.482 228.103 183.121 227.238 184.357C226.373 185.594 225.935 187.408 225.925 189.8H225.932Z" fill="white"/>
<path d="M249.744 191.645V199.782L245.517 199.926V178.679L251.322 178.549C254.019 178.489 256.011 178.966 257.299 179.982C258.586 180.998 259.23 182.568 259.23 184.693C259.247 185.876 258.913 187.037 258.271 188.031C257.596 189.048 256.656 189.86 255.553 190.381C258.529 195.044 260.464 198.054 261.36 199.41L256.718 199.553L251.987 191.58L249.744 191.645ZM249.744 187.992L251.104 187.956C252.44 187.921 253.421 187.658 254.05 187.168C254.678 186.678 254.995 185.927 254.998 184.916C254.998 183.913 254.676 183.207 254.03 182.8C253.384 182.392 252.383 182.203 251.026 182.235L249.747 182.266L249.744 187.992Z" fill="white"/>
<path d="M87.7403 385.597C87.7403 385.597 86.7046 391.473 86.1968 397.293C86.1518 397.833 86.2162 398.376 86.3861 398.89C86.556 399.403 86.828 399.878 87.1857 400.283C87.5433 400.689 87.9792 401.018 88.4672 401.251C88.9551 401.484 89.485 401.615 90.0249 401.637C97.7598 401.96 114.304 402.587 120.241 402.322C120.448 402.312 120.649 402.252 120.829 402.148C121.008 402.044 121.16 401.899 121.272 401.724C121.384 401.549 121.453 401.35 121.472 401.143C121.492 400.936 121.462 400.728 121.385 400.535V400.535C121.108 399.838 120.575 399.273 119.894 398.959L92.5713 386.375L87.7403 385.597Z" fill="url(#paint34_linear)"/>
<path d="M86.8921 382.143L87.7247 389.174C87.7247 389.174 92.5127 391.407 95.7814 388.888L93.7987 381.053L86.8921 382.143Z" fill="url(#paint35_linear)"/>
<path d="M87.5171 249.957C87.1581 251.793 85.5873 341.584 95.1676 381.822C95.2456 382.139 95.2078 382.473 95.0612 382.765C94.9145 383.056 94.6686 383.285 94.368 383.41C92.8988 384.012 90.0177 384.882 86.5658 385C86.0456 385.017 85.5344 384.86 85.1126 384.555C84.6908 384.249 84.3823 383.812 84.2355 383.311C81.4974 373.974 68.3794 327.199 66.6628 282.516C64.7502 232.588 66.6628 280.816 66.6628 280.816L67.7843 249.953L87.5171 249.957Z" fill="url(#paint36_linear)"/>
<path d="M56.3045 388.663C56.3045 388.663 54.6537 391.631 53.0572 399.516C52.9878 399.851 52.9894 400.198 53.0622 400.532C53.1349 400.867 53.277 401.183 53.4793 401.459C53.6816 401.735 53.9396 401.966 54.2366 402.136C54.5335 402.306 54.8628 402.411 55.203 402.445C57.758 402.698 61.6891 403.019 64.8391 402.998C65.1822 402.998 65.5214 402.924 65.8342 402.783C66.147 402.642 66.4264 402.436 66.654 402.179C66.8817 401.922 67.0525 401.619 67.1551 401.291C67.2577 400.963 67.2899 400.617 67.2496 400.275C66.9005 397.398 65.819 392.68 62.4558 388.994L56.3045 388.663Z" fill="url(#paint37_linear)"/>
<path d="M54.8552 379.619L56.8008 390.252C56.8008 390.252 58.7248 391.685 62.53 390.648L61.6016 379.214L54.8552 379.619Z" fill="url(#paint38_linear)"/>
<path d="M49.598 252.712C41.7629 300.086 51.2975 369.801 54.5133 383.446C54.6085 383.855 54.8222 384.227 55.1276 384.514C55.4331 384.802 55.8166 384.993 56.23 385.063C57.6605 385.301 60.0295 385.493 62.3584 384.818C62.7501 384.703 63.0961 384.468 63.3473 384.146C63.5986 383.824 63.7426 383.43 63.7589 383.022C64.188 371.987 63.4127 304.267 70.7141 277.503C71.0844 276.148 71.9113 274.963 73.0545 274.149L87.2254 264.057L88.3111 247.743L49.598 252.712Z" fill="url(#paint39_linear)"/>
<path d="M119.358 185.181C118.168 193.669 116.91 195.619 115.933 195.669C112.823 195.83 113.45 176.696 102.077 167.018C94.8945 160.904 85.0824 160.401 77.3833 161.113L88.1595 199.83C89.7331 203.686 96.5668 219.281 112.039 224.014C115.187 224.977 119.879 226.412 124.239 224.535C132.847 220.828 136.884 205.64 133.034 186.62C131.226 185.947 128.721 185.23 119.358 185.181Z" fill="#2E987A"/>
<path d="M116.617 152.087L118.041 160.153C120.329 170.017 120.545 178.239 119.358 185.181C121.324 185.263 123.388 185.402 125.537 185.611C128.189 185.874 130.687 186.219 133.034 186.615C131.798 176.582 125.133 159.922 125.133 159.922C121.115 154.116 120.636 157.898 116.617 152.087Z" fill="url(#paint40_linear)"/>
<path d="M132.897 135.091C132.1 135.071 131.31 135.23 130.583 135.556C129.856 135.883 129.212 136.369 128.698 136.979L118.541 149.036C118.541 149.036 116.693 148.657 116.52 145.112C116.347 141.566 112.583 141.138 112.583 141.138C112.583 141.138 113.125 146.083 114.157 153.404C114.746 157.59 117.217 160.647 119.224 162.497L125.1 160.471C130.49 152.752 133.836 144.245 135.696 135.166L132.897 135.091Z" fill="url(#paint41_linear)"/>
<path d="M37.1667 167.895C37.8448 167.717 42.4712 162.929 43.1664 162.795C54.5678 160.618 81.4513 151.422 100.5 165.5C101.357 166.133 103.5 168 104 168.5C104.5 169 105.484 169.812 106 170.5C107.5 172.5 107.5 173.5 108.5 175.5C109.5 177.5 108.391 180.607 108.064 181.307C103.486 191.13 86.1354 230.359 89.181 254.348C89.2622 254.941 89.1059 255.543 88.7462 256.021C88.3865 256.499 87.8527 256.814 87.2612 256.899C80.5262 257.832 60.4673 260.108 50.1045 255.822C49.8102 255.7 49.5594 255.492 49.3846 255.225C49.2099 254.958 49.1193 254.645 49.1246 254.325C49.1932 249.513 48.9901 228.623 41.3453 203.448C41.062 202.51 40.8276 201.558 40.6429 200.595C40.5485 200.788 40.4598 200.98 40.3683 201.168L37.1667 167.895Z" fill="#DAD6D4"/>
<path d="M54.0002 160.5C32.7368 162.058 28.8611 174.35 14.1624 166.906L16.7645 189.703C22.2134 195.732 30.4418 199.838 40.8089 201.377L54.0002 160.5Z" fill="#2E987A"/>
<path d="M69.0949 140C65.4514 147.277 63.9307 154.688 63.4744 161.587C64.2583 161.874 74.7155 169.147 81.7151 162.113C80.2188 157.285 80.4662 150.016 80.8468 142.561L69.0949 140Z" fill="url(#paint42_linear)"/>
<path d="M88.0696 120.871C88.2698 121.195 93.4956 145.887 93.4956 145.887L79.359 148.577L70.936 125.912C70.936 125.912 84.715 115.434 88.0696 120.871Z" fill="url(#paint43_linear)"/>
<path d="M76.3317 127.927C76.1453 128.182 76.0195 128.477 75.964 128.788C75.9084 129.1 75.9246 129.42 76.0113 129.724L79.4632 141.825C79.5137 142.008 79.5903 142.183 79.6906 142.344C80.2485 143.237 82.2513 145.936 84.9507 143.72C87.2524 141.831 89.3939 140.127 91.3123 139.707C91.5785 139.65 91.8535 139.646 92.1213 139.696C92.3891 139.745 92.6444 139.848 92.8726 139.996C93.1008 140.145 93.2973 140.338 93.4508 140.563C93.6043 140.789 93.7118 141.042 93.7671 141.31C94.2492 143.627 95.1275 148.332 95.3221 152.609C95.343 153.127 95.1683 153.634 94.8326 154.029C94.497 154.424 94.0251 154.678 93.511 154.74C90.7014 155.088 85.1953 155.6 80.5861 155.026C80.2151 154.98 79.8635 154.833 79.569 154.602C79.2746 154.371 79.0481 154.065 78.9138 153.715C77.705 150.576 74.2789 141.794 72.9299 139.464C71.6782 137.3 68.3522 137.095 66.8215 137.122C66.5349 137.128 66.2501 137.074 65.9852 136.965C65.7202 136.855 65.4809 136.691 65.2823 136.484C64.0735 135.227 62.1351 132.384 65.4253 129.334C65.8149 128.962 66.0444 128.453 66.0649 127.914C66.0855 127.375 65.8956 126.85 65.5355 126.449C64.2094 124.954 62.9963 122.494 65.524 119.713C68.0833 116.901 71.1704 117.42 73.1516 118.218C74.0286 118.572 75.0772 118.345 75.6522 117.592C75.7952 117.401 75.9856 117.251 76.2045 117.157C76.4233 117.063 76.663 117.027 76.8996 117.055C78.0312 117.125 78.9997 116.338 79.0783 115.192C79.2114 113.247 80.1255 110.919 83.5044 110.09C89.7015 108.566 93.1333 114.676 93.2406 119.098C93.3479 123.521 86.5357 124.781 82.6089 124.243C79.7207 123.858 77.3746 126.498 76.3317 127.927Z" fill="#2F2E41"/>
<path d="M75.0489 144.057C75.0489 144.057 73.7342 136.24 70.5913 135.673C67.4484 135.105 64.2069 137.522 67.0937 141.995C70.6829 147.557 75.0489 144.057 75.0489 144.057Z" fill="url(#paint44_linear)"/>
<path d="M69.8657 115.934C70.4717 115.915 71.0777 115.972 71.6696 116.103C73.1646 116.42 75.1544 117.189 74.6366 118.63C73.8584 120.792 69.8185 118.773 67.6684 122.257C65.773 125.33 67.3237 128.666 66.7443 131.975C66.4582 133.586 65.4282 135.978 63.992 136.918C63.3511 137.338 58.2784 138.144 58.0009 137.242L56.5918 132.656C55.3244 128.533 60.1953 121.664 62.7088 118.886C64.6443 116.744 67.275 116.04 69.8657 115.934Z" fill="url(#paint45_linear)"/>
<path d="M65.058 132.478L60.2071 136.524C50.9086 140.488 44.1465 145.159 39.2483 150.212C37.083 146.082 33.9111 142.566 30.0271 139.992C39.4042 135.365 46.3838 133.443 46.3838 133.443C65.3084 125.818 65.058 132.478 65.058 132.478Z" fill="url(#paint46_linear)"/>
<path d="M39.2482 150.212C23.9544 165.991 28.4234 157.973 28.3018 171.423C28.256 176.439 23.9129 195.583 23.9129 195.583C-22.8584 175.341 16.1737 147.716 30.027 139.994C33.9108 142.568 37.0827 146.082 39.2482 150.212Z" fill="#2E987A"/>
</g>
<defs>
<linearGradient id="paint0_linear" x1="454.738" y1="521.941" x2="95.3844" y2="76.4618" gradientUnits="userSpaceOnUse">
<stop stop-color="#DAE3FE"/>
<stop offset="1" stop-color="#E9EFFD"/>
</linearGradient>
<linearGradient id="paint1_linear" x1="108.524" y1="373.456" x2="189.012" y2="321.472" gradientUnits="userSpaceOnUse">
<stop stop-color="#51FFEA"/>
<stop offset="1" stop-color="#0A7E2C"/>
</linearGradient>
<linearGradient id="paint2_linear" x1="319.774" y1="12.622" x2="331.674" y2="12.9675" gradientUnits="userSpaceOnUse">
<stop stop-color="#FC8800"/>
<stop offset="1" stop-color="#FF3D00"/>
</linearGradient>
<linearGradient id="paint3_linear" x1="256.093" y1="36.8829" x2="265.66" y2="37.0001" gradientUnits="userSpaceOnUse">
<stop stop-color="#FC8800"/>
<stop offset="1" stop-color="#FF3D00"/>
</linearGradient>
<linearGradient id="paint4_linear" x1="-58.8397" y1="-7468.44" x2="-11318.6" y2="4699.71" gradientUnits="userSpaceOnUse">
<stop stop-color="#4042E2"/>
<stop offset="1" stop-color="#4F52FF"/>
</linearGradient>
<linearGradient id="paint5_linear" x1="245.809" y1="51.1292" x2="254.121" y2="51.2089" gradientUnits="userSpaceOnUse">
<stop stop-color="#FC8800"/>
<stop offset="1" stop-color="#FF3D00"/>
</linearGradient>
<linearGradient id="paint6_linear" x1="301.962" y1="13.0284" x2="313.794" y2="13.3497" gradientUnits="userSpaceOnUse">
<stop stop-color="#FC8800"/>
<stop offset="1" stop-color="#FF3D00"/>
</linearGradient>
<linearGradient id="paint7_linear" x1="239.095" y1="67.3669" x2="245.876" y2="67.417" gradientUnits="userSpaceOnUse">
<stop stop-color="#FC8800"/>
<stop offset="1" stop-color="#FF3D00"/>
</linearGradient>
<linearGradient id="paint8_linear" x1="-12.3559" y1="-7375.83" x2="-11169.3" y2="5450.23" gradientUnits="userSpaceOnUse">
<stop stop-color="#4042E2"/>
<stop offset="1" stop-color="#4F52FF"/>
</linearGradient>
<linearGradient id="paint9_linear" x1="269.286" y1="25.4584" x2="279.942" y2="25.6251" gradientUnits="userSpaceOnUse">
<stop stop-color="#FC8800"/>
<stop offset="1" stop-color="#FF3D00"/>
</linearGradient>
<linearGradient id="paint10_linear" x1="284.867" y1="17.3698" x2="296.288" y2="17.6017" gradientUnits="userSpaceOnUse">
<stop stop-color="#FC8800"/>
<stop offset="1" stop-color="#FF3D00"/>
</linearGradient>
<linearGradient id="paint11_linear" x1="163.204" y1="-7000.58" x2="-9899.69" y2="8329.83" gradientUnits="userSpaceOnUse">
<stop stop-color="#4042E2"/>
<stop offset="1" stop-color="#4F52FF"/>
</linearGradient>
<linearGradient id="paint12_linear" x1="337.467" y1="15.6577" x2="345.399" y2="15.8008" gradientUnits="userSpaceOnUse">
<stop stop-color="#FC8800"/>
<stop offset="1" stop-color="#FF3D00"/>
</linearGradient>
<linearGradient id="paint13_linear" x1="301.548" y1="171.442" x2="313.2" y2="171.753" gradientUnits="userSpaceOnUse">
<stop stop-color="#FC8800"/>
<stop offset="1" stop-color="#FF3D00"/>
</linearGradient>
<linearGradient id="paint14_linear" x1="393.398" y1="59.4248" x2="399.446" y2="59.4853" gradientUnits="userSpaceOnUse">
<stop stop-color="#FC8800"/>
<stop offset="1" stop-color="#FF3D00"/>
</linearGradient>
<linearGradient id="paint15_linear" x1="402.531" y1="91.5795" x2="407.4" y2="91.6048" gradientUnits="userSpaceOnUse">
<stop stop-color="#FC8800"/>
<stop offset="1" stop-color="#FF3D00"/>
</linearGradient>
<linearGradient id="paint16_linear" x1="401.188" y1="109.1" x2="406.837" y2="109.135" gradientUnits="userSpaceOnUse">
<stop stop-color="#FC8800"/>
<stop offset="1" stop-color="#FF3D00"/>
</linearGradient>
<linearGradient id="paint17_linear" x1="386.595" y1="141.557" x2="395.202" y2="141.646" gradientUnits="userSpaceOnUse">
<stop stop-color="#FC8800"/>
<stop offset="1" stop-color="#FF3D00"/>
</linearGradient>
<linearGradient id="paint18_linear" x1="359.888" y1="165.193" x2="370.651" y2="165.373" gradientUnits="userSpaceOnUse">
<stop stop-color="#FC8800"/>
<stop offset="1" stop-color="#FF3D00"/>
</linearGradient>
<linearGradient id="paint19_linear" x1="374.469" y1="154.785" x2="384.365" y2="154.915" gradientUnits="userSpaceOnUse">
<stop stop-color="#FC8800"/>
<stop offset="1" stop-color="#FF3D00"/>
</linearGradient>
<linearGradient id="paint20_linear" x1="395.634" y1="126.079" x2="402.862" y2="126.137" gradientUnits="userSpaceOnUse">
<stop stop-color="#FC8800"/>
<stop offset="1" stop-color="#FF3D00"/>
</linearGradient>
<linearGradient id="paint21_linear" x1="326.106" y1="175.549" x2="337.881" y2="175.892" gradientUnits="userSpaceOnUse">
<stop stop-color="#FC8800"/>
<stop offset="1" stop-color="#FF3D00"/>
</linearGradient>
<linearGradient id="paint22_linear" x1="343.518" y1="172.219" x2="354.852" y2="172.463" gradientUnits="userSpaceOnUse">
<stop stop-color="#FC8800"/>
<stop offset="1" stop-color="#FF3D00"/>
</linearGradient>
<linearGradient id="paint23_linear" x1="398.934" y1="74.216" x2="405.368" y2="74.2612" gradientUnits="userSpaceOnUse">
<stop stop-color="#FC8800"/>
<stop offset="1" stop-color="#FF3D00"/>
</linearGradient>
<linearGradient id="paint24_linear" x1="2633.56" y1="-2622.69" x2="-257.153" y2="7311.17" gradientUnits="userSpaceOnUse">
<stop stop-color="#4042E2"/>
<stop offset="1" stop-color="#4F52FF"/>
</linearGradient>
<linearGradient id="paint25_linear" x1="315.393" y1="102.842" x2="343.132" y2="103.602" gradientUnits="userSpaceOnUse">
<stop stop-color="#FC8800"/>
<stop offset="1" stop-color="#FF3D00"/>
</linearGradient>
<linearGradient id="paint26_linear" x1="325.677" y1="97.5866" x2="364.989" y2="97.8706" gradientUnits="userSpaceOnUse">
<stop stop-color="#FC8800"/>
<stop offset="1" stop-color="#FF3D00"/>
</linearGradient>
<linearGradient id="paint27_linear" x1="301.144" y1="83.4418" x2="331.796" y2="83.9343" gradientUnits="userSpaceOnUse">
<stop stop-color="#FC8800"/>
<stop offset="1" stop-color="#FF3D00"/>
</linearGradient>
<linearGradient id="paint28_linear" x1="280.8" y1="80.7386" x2="340.346" y2="81.4433" gradientUnits="userSpaceOnUse">
<stop stop-color="#FC8800"/>
<stop offset="1" stop-color="#FF3D00"/>
</linearGradient>
<linearGradient id="paint29_linear" x1="36.145" y1="84.4793" x2="97.0158" y2="25.2273" gradientUnits="userSpaceOnUse">
<stop stop-color="#FC8800"/>
<stop offset="1" stop-color="#FF3D00"/>
</linearGradient>
<linearGradient id="paint30_linear" x1="57.8533" y1="49.0122" x2="69.0914" y2="49.0604" gradientUnits="userSpaceOnUse">
<stop stop-color="#FC8800"/>
<stop offset="1" stop-color="#FF3D00"/>
</linearGradient>
<linearGradient id="paint31_linear" x1="57.7493" y1="74.4985" x2="69.332" y2="74.6467" gradientUnits="userSpaceOnUse">
<stop stop-color="#FC8800"/>
<stop offset="1" stop-color="#FF3D00"/>
</linearGradient>
<linearGradient id="paint32_linear" x1="282544" y1="55041.3" x2="323050" y2="321226" gradientUnits="userSpaceOnUse">
<stop stop-color="#09005D"/>
<stop offset="1" stop-color="#1A0F91"/>
</linearGradient>
<linearGradient id="paint33_linear" x1="116.223" y1="132.63" x2="332.636" y2="135.786" gradientUnits="userSpaceOnUse">
<stop stop-color="#FC8800"/>
<stop offset="1" stop-color="#FF3D00"/>
</linearGradient>
<linearGradient id="paint34_linear" x1="113907" y1="44604.4" x2="105253" y2="64393.3" gradientUnits="userSpaceOnUse">
<stop stop-color="#09005D"/>
<stop offset="1" stop-color="#1A0F91"/>
</linearGradient>
<linearGradient id="paint35_linear" x1="86.8921" y1="385.573" x2="95.7814" y2="385.573" gradientUnits="userSpaceOnUse">
<stop stop-color="#FEBBBA"/>
<stop offset="1" stop-color="#FF928E"/>
</linearGradient>
<linearGradient id="paint36_linear" x1="20488.1" y1="322842" x2="37326.7" y2="322675" gradientUnits="userSpaceOnUse">
<stop stop-color="#137753"/>
<stop offset="1" stop-color="#893976"/>
</linearGradient>
<linearGradient id="paint37_linear" x1="43596.3" y1="36081.1" x2="33562.2" y2="46937.1" gradientUnits="userSpaceOnUse">
<stop stop-color="#09005D"/>
<stop offset="1" stop-color="#1A0F91"/>
</linearGradient>
<linearGradient id="paint38_linear" x1="21417.7" y1="32116.6" x2="21829.4" y2="32116.6" gradientUnits="userSpaceOnUse">
<stop stop-color="#FEBBBA"/>
<stop offset="1" stop-color="#FF928E"/>
</linearGradient>
<linearGradient id="paint39_linear" x1="29038.7" y1="328792" x2="52940.9" y2="328462" gradientUnits="userSpaceOnUse">
<stop stop-color="#137753"/>
<stop offset="1" stop-color="#893976"/>
</linearGradient>
<linearGradient id="paint40_linear" x1="36623" y1="183330" x2="42482.2" y2="208463" gradientUnits="userSpaceOnUse">
<stop stop-color="#FEBBBA"/>
<stop offset="1" stop-color="#FF928E"/>
</linearGradient>
<linearGradient id="paint41_linear" x1="229.482" y1="239460" x2="14238.2" y2="264721" gradientUnits="userSpaceOnUse">
<stop stop-color="#FEBBBA"/>
<stop offset="1" stop-color="#FF928E"/>
</linearGradient>
<linearGradient id="paint42_linear" x1="-109952" y1="16509.4" x2="-117027" y2="27510.7" gradientUnits="userSpaceOnUse">
<stop stop-color="#FEBBBA"/>
<stop offset="1" stop-color="#FF928E"/>
</linearGradient>
<linearGradient id="paint43_linear" x1="51190.8" y1="29415.1" x2="62688.5" y2="29698.1" gradientUnits="userSpaceOnUse">
<stop stop-color="#FEBBBA"/>
<stop offset="1" stop-color="#FF928E"/>
</linearGradient>
<linearGradient id="paint44_linear" x1="19266.9" y1="9245.13" x2="23730.5" y2="9687.43" gradientUnits="userSpaceOnUse">
<stop stop-color="#FEBBBA"/>
<stop offset="1" stop-color="#FF928E"/>
</linearGradient>
<linearGradient id="paint45_linear" x1="35055.2" y1="40765" x2="27176.1" y2="45271.4" gradientUnits="userSpaceOnUse">
<stop stop-color="#FEBBBA"/>
<stop offset="1" stop-color="#FF928E"/>
</linearGradient>
<linearGradient id="paint46_linear" x1="67354.8" y1="38533.6" x2="58593.2" y2="48743.1" gradientUnits="userSpaceOnUse">
<stop stop-color="#FEBBBA"/>
<stop offset="1" stop-color="#FF928E"/>
</linearGradient>
<clipPath id="clip0">
<rect width="407" height="403" fill="white"/>
</clipPath>
</defs>
</svg>
