<svg width="1155" height="1137" viewBox="0 0 1155 1137" fill="none" xmlns="http://www.w3.org/2000/svg">
<path opacity="0.2" d="M323.937 285.963C288.596 372.216 346.607 440.216 297.792 501.344C255.256 554.601 191.098 528.154 166.177 570.315C128.218 634.546 221.897 789.296 345.377 868.8C472.871 950.906 702.588 998.146 858.207 857.541C1032.92 699.679 993.965 413.701 858.559 266.796C843.916 250.91 719.184 119.878 547.476 143.219C538.891 144.39 371.714 169.364 323.937 285.963Z" fill="#28B88F" fill-opacity="0.42"/>
<g opacity="0.5" filter="url(#filter0_d)">
<path d="M333.654 315.135C292.92 392.907 336.669 450.127 286.802 506.378C243.352 555.387 189.591 535.116 162.925 573.496C122.307 631.967 109.797 817.304 267.851 846.629C425.904 875.954 546.875 739.189 725.45 834.216C904.025 929.244 911.48 395.871 808.062 272.736C796.879 259.42 701.14 149.778 546.875 178.556C539.162 179.998 388.721 209.999 333.654 315.135Z" fill="#34D2A5"/>
</g>
<path d="M1007 599.618C911.573 707.853 688.093 709.591 626.224 649.469C601.532 625.479 595.013 584.272 585.431 523.746C580.818 494.61 580.158 471.123 579.766 455.009C578.415 400.197 577.742 372.787 587.692 354.141C616.198 300.765 715.216 279.991 779.216 279.029C783.683 278.959 788.188 278.985 792.734 279.107C867.667 281.088 952.238 308.749 1004.39 367.859C1009.84 374.024 1014.88 380.47 1019.47 387.164C1067.07 456.584 1059.06 540.576 1007 599.618Z" fill="#F4F7FA"/>
<g opacity="0.3">
<path opacity="0.3" d="M677.763 313.644L680.058 323.712C675.168 325.459 670.461 327.584 665.99 330.06L658.341 322.385C657.842 321.887 657.236 321.482 656.559 321.193C655.883 320.904 655.148 320.737 654.398 320.701C653.648 320.665 652.898 320.761 652.19 320.983C651.482 321.206 650.831 321.55 650.274 321.997L635.448 333.761C634.306 334.659 633.61 335.92 633.51 337.271C633.41 338.621 633.915 339.952 634.915 340.975L642.631 348.756C639.366 352.448 636.462 356.38 633.952 360.51L622.843 357.24C619.848 356.359 616.593 357.822 615.571 360.519L609.177 377.385C608.152 380.087 609.752 382.998 612.754 383.887L623.904 387.183C623.115 391.845 622.782 396.558 622.907 401.271L611.292 403.452C609.783 403.746 608.463 404.552 607.615 405.698C606.767 406.843 606.459 408.237 606.755 409.582L610.595 427.135C610.733 427.798 611.019 428.43 611.436 428.994C611.853 429.558 612.393 430.042 613.025 430.418C613.656 430.794 614.365 431.054 615.112 431.183C615.858 431.312 616.626 431.308 617.37 431.17L629.02 428.989C630.912 433.401 633.234 437.658 635.961 441.711L627.048 448.835C625.891 449.762 625.188 451.052 625.087 452.431C624.986 453.81 625.496 455.169 626.508 456.22L639.706 469.73C640.205 470.244 640.816 470.663 641.502 470.964C642.188 471.264 642.934 471.439 643.698 471.479C644.462 471.518 645.226 471.422 645.947 471.194C646.667 470.967 647.329 470.613 647.893 470.155L656.804 463.004C660.936 465.972 665.352 468.613 670.004 470.898L666.233 481.097C665.211 483.859 666.849 486.838 669.896 487.752L688.96 493.473C692.013 494.389 695.312 492.891 696.329 490.119L700.044 479.999C705.326 480.701 710.667 480.98 716.005 480.835L718.392 491.266C719.048 494.123 722.132 495.96 725.279 495.369L745.008 491.667C748.162 491.075 750.182 488.279 749.52 485.425L747.118 475.079C752.115 473.307 756.924 471.14 761.485 468.606L769.253 476.436C769.757 476.951 770.372 477.372 771.062 477.673C771.752 477.975 772.504 478.15 773.271 478.19C774.039 478.23 774.809 478.133 775.534 477.905C776.259 477.677 776.925 477.323 777.493 476.863L792.45 464.759C793.598 463.816 794.284 462.513 794.362 461.127C794.44 459.741 793.904 458.384 792.868 457.344L785.134 449.583C788.45 445.781 791.386 441.729 793.906 437.473L804.856 440.711C805.583 440.926 806.351 441.009 807.116 440.957C807.88 440.905 808.625 440.719 809.307 440.408C809.988 440.098 810.593 439.67 811.086 439.149C811.579 438.629 811.95 438.026 812.177 437.377L818.313 420.241C818.783 418.926 818.653 417.5 817.95 416.27C817.248 415.04 816.028 414.103 814.554 413.662L803.711 410.463C804.445 405.694 804.703 400.878 804.484 396.069L815.625 393.98C816.371 393.836 817.078 393.563 817.705 393.177C818.332 392.791 818.867 392.298 819.279 391.728C819.691 391.158 819.972 390.522 820.106 389.855C820.24 389.189 820.225 388.505 820.061 387.844L815.827 370.363C815.511 369.028 814.61 367.857 813.323 367.109C812.035 366.361 810.466 366.096 808.958 366.372L797.849 368.456C795.854 364.019 793.42 359.748 790.576 355.692L798.969 348.957C800.104 348.042 800.783 346.765 800.86 345.407C800.936 344.049 800.404 342.719 799.378 341.708L786.055 328.538C785.552 328.039 784.942 327.632 784.262 327.342C783.581 327.052 782.842 326.884 782.088 326.848C781.334 326.812 780.579 326.908 779.867 327.131C779.154 327.353 778.499 327.699 777.937 328.147L769.49 334.905C765.305 331.993 760.841 329.412 756.148 327.192L759.679 317.571C760.152 316.287 760.031 314.889 759.343 313.684C758.655 312.479 757.455 311.565 756.008 311.143L737.208 305.691C735.763 305.274 734.191 305.382 732.836 305.992C731.481 306.601 730.454 307.662 729.98 308.942L726.409 318.59C721.182 317.944 715.901 317.712 710.628 317.895L708.312 307.912C708.162 307.26 707.868 306.641 707.446 306.09C707.025 305.539 706.485 305.067 705.857 304.702C705.229 304.337 704.526 304.086 703.788 303.963C703.05 303.84 702.292 303.848 701.558 303.987L682.223 307.617C680.734 307.899 679.431 308.69 678.596 309.818C677.761 310.946 677.462 312.321 677.763 313.644ZM644.833 411.508C637.218 377.536 661.676 344.403 699.42 337.323C737.163 330.242 774.232 351.833 782.259 385.727C790.336 419.828 765.987 453.428 727.822 460.586C689.657 467.744 652.494 445.689 644.833 411.508Z" fill="url(#paint0_linear)"/>
</g>
<path d="M879.929 377.757L843.957 640.295C843.416 644.242 846.391 647.729 850.573 648.041L991.422 659.92C999.812 660.254 1004.42 656.173 1004.97 652.099L1041.13 381.334C1041.66 377.308 1037.62 373.497 1029.28 373.191L888.511 370.82C884.323 370.734 880.463 373.853 879.929 377.757Z" fill="url(#paint1_linear)"/>
<path d="M1035.65 380.633L999.233 653.133C998.759 656.679 995.626 659.475 991.912 659.99C991.332 659.99 990.733 660.048 990.135 660.006L969.27 658.431L843.885 649.052C839.678 648.737 836.687 645.224 837.231 641.252L873.468 377.081C874.008 373.156 877.895 370.011 882.106 370.102L930.66 371.11L1028.52 373.103C1028.78 373.103 1029.03 373.103 1029.28 373.103H1029.29C1033.34 373.615 1036.16 376.819 1035.65 380.633Z" fill="url(#paint2_linear)"/>
<path d="M876.213 391.76L842.67 636.515C842.162 640.224 844.965 643.494 848.889 643.784L986.414 653.914C990.562 654.219 994.381 651.346 994.891 647.528L1028.6 395.568C1029.11 391.788 1026.12 388.621 1021.96 388.522L884.28 385.259C880.343 385.166 876.716 388.092 876.213 391.76Z" fill="#D8DEE8"/>
<path d="M950.482 379.589C950.294 380.972 951.36 382.119 952.861 382.154C954.363 382.189 955.736 381.094 955.923 379.711C956.11 378.328 955.042 377.18 953.54 377.146C952.038 377.113 950.669 378.208 950.482 379.589Z" fill="url(#paint3_linear)"/>
<g style="mix-blend-mode:soft-light" opacity="0.5">
<path d="M968.612 657.989C968.83 658.135 969.043 658.28 969.268 658.415L843.883 649.045C839.676 648.729 836.685 645.219 837.229 641.249L873.466 377.079C874.006 373.154 877.894 370.009 882.104 370.101L930.658 371.11C930.73 371.255 930.801 371.4 930.871 371.536C932.946 375.679 934.397 380.613 935.038 386.465C936.056 395.799 934.99 407.483 931.003 422.064C906.121 513.097 1013.64 522.042 962.993 591.242C941.021 621.253 947.306 639.718 960.884 652.031C963.286 654.188 965.869 656.18 968.612 657.989Z" fill="white"/>
</g>
<path d="M788.736 641.144C788.771 644.731 785.933 647.746 782.053 648.036L766.968 649.306L641.205 659.943C641.041 659.943 640.885 659.99 640.724 659.99C632.644 659.99 628.196 656.12 627.668 652.127L591.501 381.305C590.962 377.28 595.004 373.615 603.345 373.102H603.356L635.317 372.606L744.118 370.796C748.307 370.706 752.163 373.849 752.703 377.746L754.023 387.397L788.674 640.285C788.705 640.573 788.73 640.859 788.736 641.144Z" fill="url(#paint4_linear)"/>
<path d="M788.748 649.045L768.676 650.547L642.497 660.006C641.898 660.048 641.3 659.99 640.719 659.99C637.005 659.475 633.872 656.703 633.398 653.156L596.981 380.648C596.466 376.834 599.286 373.615 603.344 373.102H603.356C603.605 373.102 603.848 373.102 604.113 373.102L635.008 372.479L750.53 370.086C754.749 369.996 758.628 373.139 759.168 377.072L795.405 641.244C795.946 645.216 792.953 648.728 788.748 649.045Z" fill="url(#paint5_linear)"/>
<path d="M756.415 391.76L789.956 636.515C790.464 640.224 787.661 643.494 783.735 643.784L646.211 653.914C642.062 654.219 638.245 651.346 637.733 647.528L604.031 395.568C603.526 391.788 606.517 388.621 610.671 388.522L748.344 385.259C752.281 385.166 755.91 388.092 756.415 391.76Z" fill="#D8DEE8"/>
<path d="M682.138 379.589C682.325 380.972 681.259 382.119 679.757 382.154C678.255 382.189 676.882 381.094 676.696 379.711C676.509 378.328 677.576 377.18 679.078 377.146C680.58 377.113 681.956 378.208 682.138 379.589Z" fill="url(#paint6_linear)"/>
<g style="mix-blend-mode:soft-light" opacity="0.5">
<path d="M768.677 650.547L642.497 660.006C641.898 660.048 641.3 659.99 640.72 659.99C632.639 659.99 628.191 656.119 627.663 652.127L591.501 381.305C590.962 377.28 595.004 373.615 603.345 373.102H603.356C603.605 373.102 603.848 373.102 604.114 373.102L635.009 372.479C635.11 372.527 635.217 372.585 635.317 372.639C642.812 376.294 650.382 381.133 656.442 387.432C666.876 398.259 672.829 413.427 666.194 434.408C647.541 493.392 658.198 502.848 717.734 529.64C777.269 556.432 771.172 573.425 754.169 613.158C748.51 626.389 753.303 637.041 762.225 645.362C763.721 646.753 765.304 648.07 766.965 649.306C767.527 649.727 768.096 650.137 768.677 650.547Z" fill="white"/>
</g>
<path d="M934.424 701.205C934.424 701.205 935.792 706.34 935.836 708.201C935.88 710.062 913.776 712.655 913.432 711.285C913.087 709.915 916.788 707.419 919.459 706.438C922.13 705.456 929.968 702.782 929.968 702.782L934.424 701.205Z" fill="url(#paint7_linear)"/>
<path d="M928.591 696.417L929.858 702.834C929.858 702.834 932.572 704.222 934.736 702.834L935.264 695.71L928.591 696.417Z" fill="url(#paint8_linear)"/>
<path d="M974.736 706.702C974.736 706.702 976.104 711.837 976.146 713.699C976.189 715.56 954.088 718.152 953.743 716.781C953.399 715.41 957.1 712.916 959.771 711.933C962.442 710.951 970.278 708.28 970.278 708.28L974.736 706.702Z" fill="url(#paint9_linear)"/>
<path d="M968.902 701.915L970.17 708.332C970.17 708.332 972.883 709.719 975.048 708.332L975.574 701.208L968.902 701.915Z" fill="url(#paint10_linear)"/>
<path d="M918.005 527.21L911.561 542.228C911.877 569.865 913.437 599.824 916.86 631.734C919.407 655.475 922.727 677.898 926.526 698.894L936.919 697.677C941.147 688.061 945.87 673.618 944.922 656.291C943.938 638.219 937.822 636.262 936.704 618.971C935.253 596.559 944.866 589.837 947.934 562.522C949.108 552.076 949.334 538.532 946.271 522.34L918.005 527.21Z" fill="url(#paint11_linear)"/>
<path style="mix-blend-mode:multiply" opacity="0.3" d="M946.271 522.34L931.006 524.971C923.057 540.547 921.824 556.231 924.032 562.971C927.164 572.499 933.5 575.157 934.008 584.926C934.513 594.586 928.597 597.539 925.695 609.185C923.685 617.247 925.019 624.424 927.774 638.448C933.321 666.698 941.498 674.856 936.087 684.654C934.549 687.439 931.639 690.835 925.61 693.71C925.915 695.446 926.216 697.186 926.526 698.902C929.991 698.497 933.456 698.092 936.919 697.685C941.147 688.067 945.87 673.625 944.922 656.298C943.938 638.226 937.822 636.269 936.704 618.977C935.253 596.566 944.866 589.845 947.934 562.529C949.108 552.076 949.334 538.528 946.271 522.34Z" fill="url(#paint12_linear)"/>
<path d="M932.55 534.857C939.468 558.813 945.971 584.521 951.676 611.872C958.562 644.898 963.419 676.154 966.782 705.259L978.26 704.709C990.913 676.036 990.216 657.286 986.996 645.282C985.755 640.657 982.69 631.635 980.985 617.938C979.794 608.388 979.824 601.053 979.889 592.232C980.034 572.895 981.857 568.533 980.908 553.823C980.011 540.011 979.468 533.032 974.867 529.277C962.742 519.381 934.677 533.743 932.55 534.857Z" fill="url(#paint13_linear)"/>
<path d="M821.51 479.199C821.51 479.199 813.106 478.531 811.891 477.269C810.676 476.007 808.83 473.986 808.647 472.829C808.463 471.672 806.843 473.4 808.319 475.91C809.794 478.419 805.605 477.89 804.949 477.828C803.452 477.682 797.735 477.537 797.898 477.861C798.062 478.185 797.22 479.638 801.279 481.342C804.833 482.832 809.063 481.862 811.373 481.964L813.684 482.067L819.81 482.503L821.51 479.199Z" fill="url(#paint14_linear)"/>
<path d="M816.578 475.564C816.209 478.157 815.839 480.752 815.468 483.347C821.033 487.647 833.34 495.89 850.457 497.127C880.627 499.308 910.563 478.618 916.134 455.348C918.894 443.823 916.639 427.653 908.908 425.054C906.762 424.327 903.538 424.434 896.891 428.571C879.15 439.609 877.641 454.106 867.841 463.913C860.788 470.971 846.925 478.12 816.578 475.564Z" fill="url(#paint15_linear)"/>
<path d="M897.037 492.118C899.719 499.99 901.98 504.962 903.72 508.891V508.9C907.199 512.836 907.545 515.713 908.269 519.388C908.631 521.178 909.005 523.153 908.98 525.539C908.929 529.81 908.347 533.292 907.801 536.282C906.981 540.789 906.521 544.162 909.018 547.375C912.112 551.371 917.628 552.287 930.263 553.011C962.481 554.86 978.601 555.783 983.167 548.008C985.058 544.78 983.887 542.253 981.634 532.227C979.28 521.782 975.659 505.678 975.987 495.006C976.232 487.044 978.704 481.311 981.774 476.541C987.852 467.08 996.285 461.429 994.284 449.753C991.325 432.504 969.265 423.423 968.205 423.001C960.966 420.131 951.61 420.369 932.903 420.846C917.769 421.242 910.093 421.502 904.755 424.946C894.405 431.62 892.19 444.002 890.996 451.293C888.507 466.532 892.58 479.065 897.037 492.118Z" fill="url(#paint16_linear)"/>
<path d="M913.86 424.696C913.847 423.641 918.018 423.187 921.302 421.788C925.452 420.017 927.256 412.085 926.197 408.623C925.138 405.161 932.37 403.381 932.37 403.381C932.959 403.236 935.395 407.795 935.689 408.285C936.92 410.341 938.114 412.434 939.659 414.325C940.992 415.976 942.623 417.421 944.486 418.603C945.829 419.432 947.249 420.158 948.731 420.773C949.406 421.064 950.089 421.397 950.779 421.657C951.135 421.793 951.259 422.458 951.222 422.458H951.245C951.245 422.458 951.235 422.261 951.218 422.284C951.154 422.575 950.864 422.805 950.398 423.175C948.213 425.615 941.566 431.812 927.704 436.128C919.394 431.282 913.699 427.537 913.862 424.738C913.857 424.732 913.86 424.702 913.86 424.696Z" fill="url(#paint17_linear)"/>
<path style="mix-blend-mode:multiply" opacity="0.5" d="M939.403 540.555C928.482 542.657 915.896 538.374 907.901 536.283C907.081 540.79 906.573 544.163 909.07 547.377C912.163 551.372 917.654 552.288 930.289 553.012C962.507 554.861 978.616 555.785 983.18 548.009C985.073 544.781 983.895 542.254 981.642 532.228C979.288 521.783 975.664 505.679 975.992 495.007C976.236 487.045 978.707 481.313 981.777 476.542C974.562 468.042 964.264 463.875 950.913 477.473C950.913 477.473 931.281 496.81 916.872 497.505C908.7 497.893 903.722 502.594 903.722 508.881V508.889C905.461 512.088 905.504 515.71 908.27 519.378C909.641 521.19 911.563 523.013 913.656 524.806C928.3 537.34 956.309 537.295 939.403 540.555Z" fill="url(#paint18_linear)"/>
<path d="M934.238 433.718C934.238 433.718 931.798 440.741 929.75 440.861C928.561 440.928 927.377 441.05 926.202 441.225L923.117 433.356C923.937 433.58 925.638 434.071 926.617 434.228C929.099 434.646 932.447 433.836 934.238 433.718Z" fill="url(#paint19_linear)"/>
<path d="M930.722 440.344C930.722 440.344 935.277 485.696 951.244 492.957C950.836 494.411 951.244 506.209 951.244 506.209C951.244 506.209 936.361 502.235 935.512 502.497C934.662 502.758 917.485 477.512 926.202 441.225L930.722 440.344Z" fill="url(#paint20_linear)"/>
<path d="M918.325 405.932C915.608 404.914 913.45 401.798 913.917 398.892C914.319 396.391 916.557 394.915 917.897 394.033C921.778 391.471 928.033 390.318 932.073 392.776C934.469 394.23 934.861 399.61 934.981 400.554C935.12 401.616 934.557 402.298 934.282 403.294C933.898 404.68 933.313 406.872 932.395 410.506C931.602 409.768 930.739 409.093 929.816 408.488C929.402 408.219 927.766 407.179 925.921 406.56C922.222 405.328 920.901 406.9 918.325 405.932Z" fill="url(#paint21_linear)"/>
<path d="M934.61 406.71C934.61 406.71 934.471 412.089 928.822 414.571C923.762 416.791 916.723 407.463 918.492 403.812C919.082 402.593 920.978 401.241 922.944 400.793C924.105 400.529 924.683 400.724 926.571 400.258C928.312 399.829 928.643 399.462 929.322 399.568C930.173 399.702 931.275 400.532 932.169 403.855C932.554 402.547 933.462 401.65 934.464 401.576C934.82 401.567 935.171 401.646 935.479 401.804C936.889 402.557 936.673 404.556 934.61 406.71Z" fill="url(#paint22_linear)"/>
<path d="M929.166 398.87C929.033 399.146 930.26 399.556 931.03 400.629C932.529 402.712 931.765 406.529 929.419 408.024C928.03 408.906 927.113 408.328 924.532 409.348C923.275 409.849 922.117 410.525 921.102 411.35C921.868 414.085 924.113 416.054 926.587 416.231C929.25 416.422 931.217 414.468 932.04 413.65C932.59 413.104 934.356 411.356 934.336 408.998C934.316 406.545 932.427 406.029 932.973 404.084C933.249 403.102 933.972 402.366 934.054 400.697C934.072 400.339 934.058 399.98 934.013 399.623C931.988 399.086 929.36 398.47 929.166 398.87Z" fill="url(#paint23_linear)"/>
<path d="M923.44 411.311C923.44 411.311 924.811 411.257 926.571 410.234C926.657 410.184 926.769 410.157 926.807 410.191C926.949 410.322 926.229 411.608 924.978 411.893C924.091 412.093 923.078 411.757 923.075 411.542C923.073 411.445 923.252 411.371 923.44 411.311Z" fill="url(#paint24_linear)"/>
<path d="M900.084 510.302C900.084 510.302 899.277 511.266 898.072 508.135C896.867 505.003 892.59 506.083 892.59 506.083L893.646 508.353C893.646 508.353 881.388 505.736 881.552 507.626C881.716 509.516 885.1 513.927 888.985 514.895C892.869 515.864 900.374 514.981 900.374 514.981L900.084 510.302Z" fill="url(#paint25_linear)"/>
<path d="M972.342 422.698C972.342 422.698 955.04 419.622 955.252 449.038C955.463 478.454 959.351 498.539 943.036 501.614C926.722 504.689 899.629 507.787 899.629 507.787L900.18 518.027C900.18 518.027 980.78 535.256 986.437 510.039C992.094 484.822 1013.83 429.394 972.342 422.698Z" fill="#2E987A"/>
<path d="M685.779 714.839C685.779 714.839 684.395 720.034 684.351 721.916C684.307 723.797 706.662 726.423 707.011 725.033C707.361 723.643 703.616 721.125 700.915 720.132C698.215 719.139 690.287 716.434 690.287 716.434L685.779 714.839Z" fill="url(#paint26_linear)"/>
<path d="M691.679 709.998L690.397 716.488C690.397 716.488 687.653 717.89 685.463 716.488L684.925 709.28L691.679 709.998Z" fill="url(#paint27_linear)"/>
<path d="M645.007 720.406C645.007 720.406 643.625 725.6 643.58 727.483C643.536 729.366 665.891 731.99 666.239 730.6C666.587 729.21 662.845 726.692 660.143 725.697C657.441 724.703 649.516 722.001 649.516 722.001L645.007 720.406Z" fill="url(#paint28_linear)"/>
<path d="M650.908 715.558L649.626 722.048C649.626 722.048 646.881 723.45 644.692 722.048L644.159 714.839L650.908 715.558Z" fill="url(#paint29_linear)"/>
<path d="M702.386 538.859L708.904 554.048C708.576 581.999 707.007 612.3 703.544 644.575C700.968 668.588 697.61 691.267 693.768 712.503L683.256 711.271C678.98 701.546 674.203 686.937 675.162 669.413C676.164 651.134 682.343 649.155 683.474 631.665C684.95 608.998 675.218 602.2 672.116 574.572C670.929 564.006 670.699 550.306 673.797 533.932L702.386 538.859Z" fill="url(#paint30_linear)"/>
<path style="mix-blend-mode:multiply" opacity="0.3" d="M673.796 533.932L689.237 536.594C697.272 552.347 698.529 568.216 696.288 575.027C693.12 584.664 686.712 587.351 686.197 597.226C685.689 606.996 691.667 609.983 694.607 621.761C696.64 629.916 695.289 637.173 692.504 651.359C686.893 679.932 678.625 688.183 684.105 698.093C685.661 700.909 688.604 704.345 694.702 707.253C694.394 709.008 694.089 710.768 693.776 712.504L683.264 711.273C678.988 701.546 674.211 686.938 675.17 669.414C676.172 651.135 682.351 649.156 683.482 631.667C684.958 609 675.226 602.201 672.124 574.574C670.929 564.008 670.699 550.306 673.796 533.932Z" fill="url(#paint31_linear)"/>
<path d="M687.675 546.591C680.678 570.823 674.103 596.822 668.331 624.488C661.364 657.889 656.453 689.502 653.051 718.94L641.445 718.383C628.648 689.383 629.353 670.417 632.611 658.279C633.865 653.6 636.964 644.475 638.691 630.62C639.893 620.963 639.865 613.544 639.798 604.622C639.652 585.063 637.802 580.657 638.768 565.775C639.675 551.808 640.224 544.748 644.877 540.949C657.137 530.938 685.523 545.466 687.675 546.591Z" fill="url(#paint32_linear)"/>
<path d="M799.989 490.299C799.989 490.299 808.488 489.624 809.717 488.348C810.947 487.071 812.815 485.027 812.997 483.858C813.179 482.689 814.823 484.44 813.335 486.972C811.846 489.505 816.07 488.973 816.729 488.912C818.244 488.766 824.025 488.621 823.858 488.945C823.691 489.27 824.545 490.741 820.439 492.465C816.845 493.973 812.569 492.992 810.231 493.095L807.894 493.198L801.698 493.634L799.989 490.299Z" fill="url(#paint33_linear)"/>
<path d="M804.971 486.62C805.346 489.245 805.72 491.87 806.094 494.493C800.465 498.842 788.02 507.181 770.706 508.431C740.182 510.637 709.914 489.71 704.273 466.175C701.486 454.519 703.762 438.165 711.583 435.535C713.752 434.808 717.013 434.908 723.738 439.093C741.684 450.265 743.211 464.919 753.122 474.836C760.257 481.977 774.287 489.207 804.971 486.62Z" fill="url(#paint34_linear)"/>
<path d="M723.397 503.364C720.683 511.327 718.179 516.357 716.439 520.33C713.54 524.311 712.767 527.222 712.035 530.944C711.605 532.995 711.397 535.078 711.415 537.164C711.466 541.485 712.106 545.006 712.658 548.029C713.491 552.592 713.97 556 711.45 559.249C708.321 563.291 702.76 564.219 689.97 564.95C657.385 566.82 641.086 567.755 636.469 559.89C634.556 556.625 635.743 554.075 638.022 543.928C640.403 533.365 644.066 517.078 643.734 506.287C643.489 498.235 640.988 492.436 637.884 487.618C631.735 478.05 623.206 472.334 625.231 460.527C628.223 443.079 650.536 433.895 651.608 433.465C658.929 430.557 668.394 430.802 687.312 431.284C702.619 431.684 710.382 431.948 715.782 435.432C726.25 442.179 728.393 454.704 729.599 462.078C732.121 477.487 727.902 490.162 723.397 503.364Z" fill="url(#paint35_linear)"/>
<path d="M666.859 504.146C665.096 508.69 659.897 511.795 655.508 522.84C654.561 525.224 647.814 542.206 654.247 546.987C657.962 549.749 661.894 545.33 671.485 545.428C688.101 545.595 694.861 559.045 705.96 556.332C707.885 555.86 710.471 554.745 713.198 551.942C713.457 554.669 713.17 557 711.425 559.252C708.299 563.29 702.745 564.219 689.962 564.951C657.378 566.823 641.085 567.759 636.469 559.892C634.556 556.628 635.743 554.076 638.025 543.932C640.403 533.367 644.069 517.08 643.736 506.289C642.995 482.251 622.194 478.286 625.241 460.528C626.061 455.781 628.32 451.668 631.176 448.154C656.962 460.122 672.404 489.869 666.859 504.146Z" fill="url(#paint36_linear)"/>
<path d="M706.578 435.173C706.592 434.106 702.373 433.648 699.051 432.229C694.853 430.437 693.03 422.414 694.101 418.913C695.171 415.412 687.857 413.612 687.857 413.612C687.857 413.612 686.976 420.094 684.376 424.808C682.024 429.063 671.422 431.449 669.238 432.275C668.877 432.412 668.746 433.258 668.79 433.258H668.766C668.766 433.141 668.775 433.025 668.794 432.909C668.858 433.2 669.151 433.345 669.628 433.723C671.839 436.195 678.561 442.416 692.584 446.782C700.989 441.881 706.749 438.07 706.585 435.24C706.582 435.232 706.578 435.179 706.578 435.173Z" fill="url(#paint37_linear)"/>
<path d="M697.647 411.967C701.04 409.336 701.507 409.035 701.935 408.071C703.653 404.202 700.799 398.518 696.553 396.854C696.334 396.769 693.484 395.691 692.266 396.777C691.231 397.705 692.507 399.186 691.677 401.061C690.9 402.815 689.203 402.826 685.874 404.956C683.133 406.709 681.429 407.8 680.914 409.473C679.85 412.923 683.992 418.342 688.061 418.509C689.524 418.569 689.98 417.906 697.647 411.967Z" fill="url(#paint38_linear)"/>
<path d="M688.411 419.079C688.411 419.079 691.451 422.835 696.644 422.058C701.294 421.359 700.968 411.58 697.765 409.783C696.698 409.184 694.671 409.076 693.091 409.637C692.158 409.972 691.872 410.364 690.336 410.889C688.919 411.367 688.493 411.254 688.09 411.636C687.585 412.112 687.293 413.197 688.504 415.956C687.521 415.199 686.419 414.973 685.694 415.375C685.446 415.531 685.251 415.745 685.13 415.992C684.597 417.16 685.833 418.48 688.411 419.079Z" fill="url(#paint39_linear)"/>
<path style="mix-blend-mode:multiply" opacity="0.4" d="M680.745 552.353C691.79 554.479 704.521 550.143 712.608 548.032C713.441 552.594 713.951 556.003 711.425 559.252C708.295 563.294 702.735 564.222 689.962 564.953C657.378 566.823 641.085 567.758 636.468 559.892C634.554 556.626 635.745 554.076 638.024 543.929C640.405 533.366 644.069 517.079 643.738 506.288C643.492 498.236 640.992 492.438 637.888 487.619C645.192 479.024 655.596 474.809 669.104 488.562C669.104 488.562 688.762 508.121 703.337 508.822C711.603 509.215 716.44 513.972 716.44 520.329C715.28 523.571 714.833 527.228 712.035 530.942C710.65 532.774 708.805 534.622 706.688 536.431C691.876 549.104 663.645 549.059 680.745 552.353Z" fill="url(#paint40_linear)"/>
<path d="M685.968 444.304C685.968 444.304 688.427 451.406 690.506 451.528C691.709 451.596 692.907 451.719 694.096 451.896L697.211 443.937C696.38 444.164 694.661 444.664 693.671 444.826C691.166 445.237 687.78 444.421 685.968 444.304Z" fill="url(#paint41_linear)"/>
<path d="M689.524 450.999C689.524 450.999 684.917 496.871 668.766 504.213C669.181 505.682 668.766 517.614 668.766 517.614C668.766 517.614 683.821 513.596 684.671 513.862C685.52 514.128 702.904 488.591 694.087 451.889L689.524 450.999Z" fill="url(#paint42_linear)"/>
<path d="M848.689 482.804C848.689 512.918 822.127 536.6 788.185 535.682C752.865 534.72 723.157 507.671 723.157 475.3C723.157 442.93 752.865 419.432 788.185 422.694C822.135 425.827 848.689 452.691 848.689 482.804Z" fill="url(#paint43_linear)"/>
<path d="M857.86 480.207C857.86 510.321 831.297 534.003 797.366 533.085C762.044 532.122 732.338 505.078 732.338 472.703C732.338 440.329 762.044 416.836 797.366 420.097C831.306 423.232 857.86 450.095 857.86 480.207Z" fill="url(#paint44_linear)"/>
<path d="M855.196 480.049C855.196 508.837 829.781 531.443 797.366 530.512C763.684 529.545 735.406 503.73 735.406 472.887C735.406 442.043 763.684 419.611 797.366 422.671C829.789 425.616 855.196 451.261 855.196 480.049Z" fill="url(#paint45_linear)"/>
<path d="M853.289 479.934C853.289 507.773 828.703 529.606 797.366 528.674C764.854 527.706 737.59 502.772 737.59 473.018C737.59 443.263 764.854 421.59 797.366 424.508C828.703 427.323 853.289 452.097 853.289 479.934Z" fill="url(#paint46_linear)"/>
<path d="M797.044 433.981C798.712 434.126 800.061 435.452 800.061 436.954V442.079C803.433 442.415 806.778 442.93 810.08 443.62C812.545 444.135 814.994 444.747 817.427 445.455C818.142 445.667 818.756 446.085 819.172 446.642C819.588 447.2 819.782 447.864 819.723 448.53L819.013 454.958C818.98 455.349 818.841 455.727 818.606 456.059C818.372 456.391 818.05 456.668 817.668 456.865C817.285 457.062 816.855 457.173 816.413 457.189C815.972 457.205 815.532 457.126 815.133 456.957C813.531 456.323 811.884 455.779 810.204 455.329C807.176 454.525 804.059 454.008 800.908 453.788L800.055 453.727V468.411C808.755 470.569 815.14 473.472 819.272 477.125C823.404 480.777 825.427 485.289 825.427 490.726C825.427 496.606 823.158 501.319 818.619 504.866C814.051 508.435 807.632 510.439 799.361 510.878V516.535C799.368 516.886 799.295 517.234 799.144 517.558C798.994 517.882 798.771 518.176 798.488 518.421C798.206 518.666 797.87 518.857 797.501 518.983C797.132 519.109 796.738 519.166 796.343 519.152H796.289C795.471 519.113 794.701 518.797 794.137 518.269C793.574 517.742 793.259 517.044 793.258 516.317V510.735L791.914 510.682C788.176 510.541 784.452 510.189 780.764 509.628C778.165 509.228 775.592 508.703 773.058 508.056C771.541 507.666 770.5 506.385 770.639 505.003L771.474 496.74C771.654 494.954 773.677 493.915 775.593 494.585C777.807 495.36 780.071 496.019 782.373 496.558C785.923 497.39 789.552 497.928 793.214 498.165L793.268 481.837C784.917 480.005 778.68 477.291 774.558 473.695C770.432 470.083 768.367 465.466 768.362 459.843C768.362 454.027 770.602 449.543 775.084 446.388C779.537 443.254 785.85 441.69 794.024 441.698V436.464C794.016 434.946 795.374 433.835 797.044 433.981ZM794.016 453.574C791.435 453.742 789.424 454.372 787.984 455.464C786.543 456.556 785.821 458.022 785.818 459.861C785.818 461.605 786.485 463.065 787.821 464.238C789.157 465.412 791.222 466.347 794.016 467.042V453.574ZM799.374 483.138V498.114C802.179 498.12 804.332 497.526 805.833 496.334C807.334 495.142 808.083 493.462 808.081 491.293C808.081 489.313 807.385 487.671 805.992 486.366C804.6 485.061 802.394 483.985 799.374 483.138Z" fill="url(#paint47_linear)"/>
<path style="mix-blend-mode:multiply" opacity="0.3" d="M787.241 486.759C789.13 470.211 806.281 463.205 804.042 447.985C802.662 438.604 794.644 430.698 785.698 424.524C758.566 427.048 737.585 446.969 737.585 473.025C737.585 502.78 764.849 527.713 797.361 528.681C800.447 528.772 803.536 528.638 806.597 528.282C793.691 516.881 785.622 500.968 787.241 486.759Z" fill="url(#paint48_linear)"/>
<path d="M732.148 514.607C732.148 514.607 733.132 515.455 733.768 512.156C734.404 508.857 738.87 509.33 738.87 509.33L738.215 511.746C738.215 511.746 749.984 507.397 750.161 509.306C750.338 511.215 747.757 516.102 744.052 517.616C740.346 519.129 732.697 519.327 732.697 519.327L732.148 514.607Z" fill="url(#paint49_linear)"/>
<path d="M644.154 437.383C644.154 437.383 660.879 431.858 665.98 461.261C671.081 490.664 670.824 511.276 687.676 512.031C704.529 512.786 732.139 512.031 732.139 512.031L733.44 522.335C733.44 522.335 656.067 550.988 645.855 526.608C635.643 502.229 603.935 449.962 644.154 437.383Z" fill="url(#paint50_linear)"/>
<path d="M744.281 666.338V677.824C744.281 681.536 770.428 684.544 802.68 684.544C834.932 684.544 861.079 681.536 861.079 677.824V666.338H744.281Z" fill="url(#paint51_linear)"/>
<path d="M861.071 666.338C861.071 670.048 834.924 673.058 802.672 673.058C770.419 673.058 744.281 670.048 744.281 666.338C744.281 662.627 770.428 659.618 802.68 659.618C834.932 659.618 861.071 662.626 861.071 666.338Z" fill="url(#paint52_linear)"/>
<path d="M802.672 673.52C774.107 673.52 744.239 671.101 744.239 666.435C744.239 666.179 744.342 665.729 744.63 665.729C744.919 665.729 744.794 666.08 744.794 666.338C744.794 669.297 768.57 672.59 802.675 672.59C836.78 672.59 860.556 669.292 860.556 666.338C860.556 666.08 860.605 665.84 860.893 665.84C861.182 665.84 861.113 666.182 861.113 666.44C861.105 671.105 831.235 673.52 802.672 673.52Z" fill="url(#paint53_linear)"/>
<path d="M797.153 666.711C797.727 666.359 798.335 666.013 798.988 665.67C799.78 665.275 800.622 664.964 801.496 664.743C802.757 664.425 804.044 664.2 805.346 664.068C807.261 663.875 809.186 663.783 811.113 663.792C813.371 663.782 815.486 663.846 817.47 663.982C819.224 664.092 820.97 664.298 822.696 664.597C824.197 664.869 825.42 665.205 826.365 665.606C827.311 666.008 827.87 666.467 828.043 666.985L834.618 667.043C835.041 667.041 835.463 667.076 835.879 667.147C836.246 667.213 836.425 667.293 836.425 667.399V667.879L827.971 667.808C827.673 668.395 826.918 668.932 825.704 669.42C824.491 669.908 822.946 670.331 821.069 670.689L817.99 670.31C817.759 670.281 817.531 670.232 817.311 670.164C817.132 670.108 817.047 670.045 817.047 669.977C817.047 669.885 817.285 669.779 817.76 669.661C818.236 669.544 818.774 669.397 819.372 669.225C819.973 669.05 820.562 668.844 821.136 668.607C821.71 668.369 822.094 668.085 822.294 667.755L802.341 667.579C801.775 667.944 801.187 668.28 800.58 668.587C799.761 668.977 798.891 669.276 797.991 669.48C796.672 669.783 795.33 669.998 793.975 670.122C791.964 670.305 789.943 670.393 787.921 670.385C786.093 670.385 784.314 670.332 782.569 670.201C781.008 670.095 779.456 669.901 777.923 669.619C776.772 669.418 775.653 669.093 774.591 668.652C773.725 668.267 773.24 667.826 773.14 667.326L767.729 667.277C767.3 667.279 766.872 667.246 766.45 667.178C766.078 667.114 765.887 667.033 765.886 666.922V666.442L773.287 666.505C773.615 665.999 774.284 665.558 775.311 665.183C776.528 664.755 777.784 664.42 779.065 664.18L781.545 664.482C782.297 664.575 782.671 664.686 782.673 664.812C782.673 664.879 782.52 664.958 782.209 665.065C781.897 665.173 781.525 665.286 781.097 665.426C780.675 665.566 780.263 665.731 779.866 665.919C779.515 666.07 779.206 666.289 778.964 666.56L797.153 666.711ZM778.893 667.366C779.041 667.681 779.372 667.947 779.877 668.18C780.475 668.437 781.107 668.626 781.758 668.742C782.594 668.9 783.441 669.008 784.293 669.067C785.234 669.135 786.218 669.167 787.244 669.163C788.292 669.165 789.339 669.119 790.381 669.026C791.171 668.954 791.955 668.836 792.727 668.673C793.331 668.545 793.922 668.372 794.493 668.156C794.96 667.975 795.411 667.762 795.841 667.518L778.893 667.366ZM822.33 666.929C822.181 666.61 821.818 666.33 821.254 666.09C820.563 665.814 819.837 665.611 819.092 665.486C818.08 665.305 817.055 665.183 816.025 665.121C814.863 665.04 813.579 665.003 812.172 665.01C811.094 665.006 810.016 665.055 808.944 665.156C808.152 665.231 807.368 665.358 806.597 665.534C806.015 665.664 805.45 665.849 804.912 666.086C804.465 666.286 804.033 666.512 803.618 666.761L822.33 666.929Z" fill="#FCB048"/>
<path d="M802.68 660.344C776.64 660.344 749.528 662.38 745.191 666.306C745.359 666.442 745.518 666.588 745.665 666.742C749.32 664.011 771.708 661.262 802.68 661.262C834.446 661.262 857.193 664.154 859.948 666.953C860.082 666.799 860.228 666.654 860.384 666.516C856.803 662.451 829.181 660.344 802.68 660.344Z" fill="url(#paint54_linear)"/>
<path d="M728.039 654.273V665.759C728.039 669.47 754.185 672.479 786.437 672.479C818.69 672.479 844.836 669.47 844.836 665.759V654.273H728.039Z" fill="url(#paint55_linear)"/>
<path d="M844.836 654.273C844.836 657.983 818.69 660.993 786.437 660.993C754.185 660.993 728.039 657.983 728.039 654.273C728.039 650.562 754.185 647.553 786.437 647.553C818.69 647.553 844.836 650.561 844.836 654.273Z" fill="url(#paint56_linear)"/>
<path d="M786.437 661.457C757.873 661.457 728.004 659.038 728.004 654.37C728.004 654.115 728.107 653.664 728.396 653.664C728.685 653.664 728.56 654.017 728.56 654.273C728.56 657.232 752.335 660.525 786.441 660.525C820.546 660.525 844.321 657.227 844.321 654.273C844.321 654.017 844.37 653.776 844.659 653.776C844.948 653.776 844.879 654.119 844.879 654.375C844.871 659.041 815.001 661.457 786.437 661.457Z" fill="url(#paint57_linear)"/>
<path d="M780.918 654.647C781.492 654.295 782.101 653.949 782.753 653.606C783.546 653.211 784.388 652.9 785.262 652.679C786.522 652.361 787.81 652.135 789.112 652.003C791.026 651.811 792.952 651.719 794.879 651.727C797.136 651.718 799.254 651.782 801.234 651.919C802.989 652.029 804.735 652.233 806.461 652.533C807.961 652.804 809.184 653.14 810.131 653.542C811.078 653.943 811.637 654.402 811.808 654.92L818.383 654.98C818.806 654.977 819.229 655.012 819.644 655.083C820.012 655.15 820.19 655.228 820.19 655.334V655.816L811.736 655.743C811.439 656.33 810.683 656.868 809.47 657.357C808.257 657.845 806.712 658.268 804.835 658.625L801.755 658.245C801.524 658.216 801.297 658.167 801.077 658.1C800.898 658.042 800.813 657.979 800.813 657.912C800.813 657.819 801.049 657.714 801.526 657.595C802.003 657.476 802.539 657.331 803.138 657.159C803.739 656.983 804.328 656.777 804.902 656.54C805.476 656.303 805.86 656.018 806.06 655.688L786.106 655.512C785.541 655.877 784.953 656.214 784.345 656.521C783.526 656.909 782.657 657.209 781.756 657.412C780.438 657.715 779.096 657.93 777.741 658.055C775.73 658.238 773.709 658.326 771.687 658.318C769.859 658.325 768.08 658.264 766.335 658.133C764.774 658.028 763.221 657.834 761.688 657.552C760.537 657.35 759.419 657.026 758.356 656.585C757.491 656.199 757.005 655.759 756.905 655.26L751.494 655.211C751.066 655.212 750.637 655.178 750.215 655.11C749.843 655.046 749.653 654.965 749.651 654.855V654.375L757.053 654.437C757.381 653.931 758.05 653.491 759.076 653.116C760.293 652.688 761.55 652.353 762.831 652.114L765.31 652.415C766.063 652.509 766.437 652.618 766.438 652.745C766.438 652.813 766.286 652.89 765.974 652.998C765.663 653.105 765.291 653.219 764.863 653.358C764.44 653.499 764.028 653.664 763.63 653.853C763.28 654.004 762.972 654.222 762.729 654.493L780.918 654.647ZM762.659 655.301C762.806 655.616 763.138 655.882 763.643 656.115C764.24 656.372 764.872 656.561 765.523 656.678C766.359 656.836 767.206 656.945 768.058 657.002C769 657.071 769.983 657.103 771.01 657.098C772.057 657.1 773.104 657.054 774.147 656.961C774.936 656.889 775.72 656.772 776.493 656.609C777.097 656.481 777.687 656.308 778.259 656.092C778.726 655.91 779.177 655.697 779.607 655.454L762.659 655.301ZM806.096 654.872C805.946 654.554 805.584 654.273 805.02 654.033C804.328 653.757 803.602 653.554 802.857 653.428C801.845 653.248 800.821 653.126 799.791 653.063C798.629 652.983 797.345 652.946 795.938 652.953C794.859 652.949 793.782 652.998 792.709 653.098C791.918 653.175 791.134 653.301 790.363 653.476C789.781 653.607 789.216 653.792 788.677 654.029C788.231 654.23 787.799 654.455 787.384 654.703L806.096 654.872Z" fill="#FCB048"/>
<path d="M786.446 648.28C760.406 648.28 733.294 650.315 728.957 654.241C729.125 654.377 729.284 654.523 729.431 654.677C733.085 651.947 755.474 649.197 786.446 649.197C818.211 649.197 840.957 652.089 843.713 654.888C843.848 654.735 843.993 654.589 844.149 654.452C840.568 650.387 812.946 648.28 786.446 648.28Z" fill="url(#paint58_linear)"/>
<path d="M742.047 642.243V653.729C742.047 657.441 768.193 660.449 800.445 660.449C832.698 660.449 858.844 657.441 858.844 653.729V642.243H742.047Z" fill="url(#paint59_linear)"/>
<path d="M858.844 642.243C858.844 645.955 832.698 648.963 800.445 648.963C768.193 648.963 742.047 645.955 742.047 642.243C742.047 638.531 768.193 635.523 800.445 635.523C832.698 635.523 858.844 638.533 858.844 642.243Z" fill="url(#paint60_linear)"/>
<path d="M800.445 649.427C771.88 649.427 742.012 647.008 742.012 642.342C742.012 642.086 742.115 641.635 742.404 641.635C742.692 641.635 742.568 641.987 742.568 642.243C742.568 645.203 766.343 648.495 800.448 648.495C834.554 648.495 858.329 645.199 858.329 642.243C858.329 641.987 858.378 641.747 858.667 641.747C858.955 641.747 858.887 642.089 858.887 642.345C858.878 647.012 829.008 649.427 800.445 649.427Z" fill="url(#paint61_linear)"/>
<path d="M794.926 642.621C795.5 642.27 796.11 641.923 796.763 641.58C797.555 641.185 798.397 640.873 799.271 640.653C800.532 640.335 801.819 640.109 803.121 639.978C805.035 639.785 806.96 639.693 808.886 639.702C811.144 639.691 813.263 639.755 815.243 639.892C816.998 640.003 818.743 640.208 820.469 640.506C821.969 640.779 823.196 641.115 824.139 641.524C825.081 641.932 825.636 642.384 825.816 642.902L832.393 642.96C832.816 642.959 833.238 642.993 833.654 643.063C834.021 643.13 834.198 643.209 834.198 643.316V643.796L825.744 643.723C825.449 644.312 824.693 644.85 823.478 645.337C822.262 645.825 820.717 646.247 818.842 646.605L815.763 646.226C815.532 646.198 815.305 646.149 815.084 646.08C814.907 646.024 814.82 645.961 814.82 645.893C814.82 645.796 815.058 645.691 815.534 645.577C816.009 645.464 816.547 645.318 817.147 645.141C817.748 644.965 818.337 644.759 818.911 644.523C819.484 644.285 819.867 644 820.059 643.67L800.107 643.495C799.541 643.859 798.953 644.196 798.345 644.503C797.529 644.888 796.663 645.184 795.767 645.384C794.449 645.688 793.108 645.903 791.753 646.028C789.742 646.211 787.72 646.298 785.698 646.29C783.87 646.298 782.091 646.236 780.346 646.106C778.785 646.001 777.234 645.807 775.701 645.525C774.549 645.324 773.43 644.998 772.367 644.557C771.503 644.173 771.018 643.731 770.916 643.232L765.505 643.183C765.077 643.184 764.648 643.151 764.226 643.084C763.853 643.018 763.662 642.938 763.662 642.828V642.347L771.064 642.411C771.392 641.905 772.061 641.463 773.087 641.087C774.305 640.66 775.562 640.325 776.844 640.086L779.321 640.388C780.076 640.481 780.449 640.592 780.449 640.717C780.449 640.785 780.297 640.869 779.985 640.971C779.674 641.073 779.302 641.192 778.875 641.332C778.452 641.471 778.04 641.636 777.642 641.825C777.292 641.976 776.984 642.194 776.74 642.464L794.926 642.621ZM776.667 643.276C776.814 643.591 777.147 643.857 777.65 644.09C778.249 644.349 778.882 644.539 779.534 644.657C780.37 644.814 781.217 644.922 782.069 644.98C783.013 645.049 783.997 645.082 785.021 645.077C786.068 645.076 787.115 645.028 788.157 644.932C788.948 644.86 789.731 644.743 790.504 644.58C791.108 644.453 791.699 644.28 792.27 644.064C792.737 643.882 793.188 643.668 793.618 643.424L776.667 643.276ZM820.103 642.847C819.954 642.527 819.592 642.248 819.029 642.008C818.338 641.732 817.612 641.529 816.867 641.403C815.854 641.222 814.829 641.1 813.799 641.038C812.638 640.958 811.353 640.921 809.946 640.928C808.867 640.923 807.789 640.971 806.717 641.073C805.926 641.148 805.142 641.274 804.371 641.449C803.788 641.581 803.223 641.767 802.685 642.003C802.238 642.204 801.806 642.429 801.391 642.678L820.103 642.847Z" fill="#FCB048"/>
<path d="M800.453 636.251C774.414 636.251 747.302 638.287 742.965 642.213C743.134 642.351 743.292 642.499 743.438 642.656C747.095 639.924 769.481 637.175 800.453 637.175C832.219 637.175 854.966 640.068 857.721 642.865C857.856 642.713 858.002 642.567 858.157 642.429C854.576 638.358 826.954 636.251 800.453 636.251Z" fill="url(#paint62_linear)"/>
<path d="M750.546 630.18V641.666C750.546 645.378 776.693 648.386 808.945 648.386C841.198 648.386 867.344 645.378 867.344 641.666V630.18H750.546Z" fill="url(#paint63_linear)"/>
<path d="M867.344 630.18C867.344 633.89 841.198 636.9 808.945 636.9C776.693 636.9 750.546 633.89 750.546 630.18C750.546 626.469 776.693 623.46 808.945 623.46C841.198 623.46 867.344 626.468 867.344 630.18Z" fill="url(#paint64_linear)"/>
<path d="M808.945 637.362C780.382 637.362 750.512 634.943 750.512 630.277C750.512 630.021 750.616 629.57 750.906 629.57C751.196 629.57 751.07 629.922 751.07 630.18C751.07 633.138 774.845 636.431 808.95 636.431C843.056 636.431 866.831 633.134 866.831 630.18C866.831 629.922 866.88 629.682 867.169 629.682C867.457 629.682 867.388 630.024 867.388 630.281C867.379 634.947 837.51 637.362 808.945 637.362Z" fill="url(#paint65_linear)"/>
<path d="M803.428 630.553C803.999 630.202 804.611 629.855 805.263 629.512C806.055 629.117 806.897 628.806 807.771 628.585C809.032 628.267 810.319 628.042 811.621 627.91C813.536 627.717 815.461 627.625 817.388 627.634C819.644 627.623 821.763 627.687 823.743 627.824C825.498 627.935 827.244 628.14 828.971 628.439C830.471 628.711 831.695 629.047 832.64 629.448C833.586 629.85 834.145 630.309 834.318 630.827L840.893 630.886C841.316 630.884 841.738 630.918 842.154 630.99C842.521 631.055 842.698 631.135 842.7 631.241V631.721L834.247 631.65C833.951 632.237 833.195 632.775 831.979 633.264C830.764 633.752 829.219 634.175 827.344 634.531L824.266 634.152C824.035 634.123 823.807 634.074 823.586 634.007C823.409 633.95 823.322 633.887 823.322 633.819C823.322 633.727 823.56 633.621 824.037 633.504C824.514 633.386 825.05 633.239 825.649 633.067C826.25 632.89 826.839 632.682 827.413 632.444C827.987 632.205 828.371 631.922 828.571 631.592L808.619 631.426C808.053 631.79 807.464 632.126 806.856 632.433C806.038 632.823 805.169 633.123 804.269 633.326C802.95 633.629 801.608 633.844 800.253 633.969C798.242 634.151 796.221 634.239 794.2 634.232C792.37 634.239 790.592 634.178 788.846 634.047C787.285 633.942 785.734 633.747 784.201 633.466C783.05 633.265 781.93 632.94 780.867 632.499C780.003 632.114 779.518 631.673 779.416 631.173L774.005 631.123C773.577 631.125 773.148 631.092 772.726 631.025C772.353 630.961 772.162 630.879 772.162 630.769V630.289L779.564 630.351C779.892 629.845 780.562 629.405 781.587 629.03C782.805 628.601 784.062 628.266 785.344 628.027L787.823 628.329C788.576 628.423 788.949 628.533 788.949 628.659C788.949 628.727 788.797 628.804 788.487 628.912C788.177 629.02 787.803 629.133 787.375 629.273C786.952 629.413 786.541 629.577 786.142 629.765C785.792 629.917 785.484 630.136 785.24 630.407L803.428 630.553ZM785.167 631.208C785.316 631.523 785.647 631.789 786.15 632.022C786.748 632.28 787.38 632.469 788.031 632.585C788.867 632.742 789.713 632.85 790.564 632.909C791.508 632.978 792.492 633.01 793.516 633.005C794.563 633.007 795.61 632.961 796.653 632.868C797.443 632.796 798.228 632.678 799.001 632.515C799.604 632.388 800.194 632.215 800.765 631.999C801.232 631.817 801.683 631.604 802.113 631.36L785.167 631.208ZM828.603 630.779C828.456 630.46 828.093 630.18 827.529 629.94C826.838 629.664 826.112 629.461 825.367 629.335C824.355 629.154 823.33 629.032 822.3 628.97C821.138 628.89 819.853 628.853 818.446 628.86C817.367 628.856 816.289 628.905 815.217 629.005C814.426 629.081 813.641 629.207 812.871 629.383C812.288 629.514 811.723 629.699 811.185 629.936C810.739 630.136 810.307 630.361 809.893 630.61L828.603 630.779Z" fill="#FCB048"/>
<path d="M808.953 624.186C782.914 624.186 755.802 626.222 751.465 630.147C751.633 630.286 751.792 630.434 751.94 630.591C755.595 627.86 777.981 625.111 808.953 625.111C840.72 625.111 863.466 628.003 866.221 630.801C866.356 630.648 866.502 630.502 866.659 630.365C863.076 626.293 835.455 624.186 808.953 624.186Z" fill="url(#paint66_linear)"/>
<path d="M744.281 617.163V628.649C744.281 632.361 770.428 635.369 802.68 635.369C834.932 635.369 861.079 632.361 861.079 628.649V617.163H744.281Z" fill="url(#paint67_linear)"/>
<path d="M802.672 623.883C834.925 623.883 861.071 620.874 861.071 617.163C861.071 613.451 834.925 610.443 802.672 610.443C770.419 610.443 744.273 613.451 744.273 617.163C744.273 620.874 770.419 623.883 802.672 623.883Z" fill="url(#paint68_linear)"/>
<path d="M802.672 624.346C774.107 624.346 744.239 621.927 744.239 617.261C744.239 617.004 744.342 616.555 744.63 616.555C744.919 616.555 744.794 616.907 744.794 617.162C744.794 620.123 768.57 623.414 802.675 623.414C836.78 623.414 860.556 620.118 860.556 617.162C860.556 616.907 860.605 616.667 860.893 616.667C861.182 616.667 861.113 617.008 861.113 617.264C861.105 621.931 831.235 624.346 802.672 624.346Z" fill="url(#paint69_linear)"/>
<path d="M797.153 617.538C797.727 617.186 798.335 616.84 798.988 616.497C799.78 616.101 800.622 615.79 801.496 615.569C802.757 615.252 804.044 615.026 805.346 614.895C807.261 614.702 809.186 614.609 811.113 614.618C813.371 614.608 815.486 614.672 817.47 614.809C819.224 614.919 820.969 615.124 822.696 615.422C824.197 615.696 825.42 616.032 826.365 616.431C827.311 616.831 827.87 617.291 828.043 617.811L834.618 617.869C835.041 617.868 835.463 617.902 835.879 617.972C836.246 618.039 836.425 618.118 836.425 618.225V618.705L827.971 618.633C827.673 619.221 826.918 619.759 825.704 620.246C824.491 620.734 822.946 621.157 821.069 621.514L817.99 621.135C817.759 621.107 817.531 621.058 817.311 620.989C817.132 620.933 817.047 620.87 817.047 620.802C817.047 620.709 817.285 620.604 817.76 620.486C818.236 620.369 818.774 620.22 819.372 620.05C819.973 619.875 820.562 619.668 821.136 619.431C821.71 619.194 822.094 618.91 822.294 618.579L802.341 618.404C801.775 618.769 801.187 619.105 800.58 619.412C799.761 619.801 798.891 620.1 797.991 620.303C796.672 620.607 795.33 620.822 793.975 620.947C791.964 621.13 789.943 621.217 787.921 621.209C786.093 621.218 784.314 621.155 782.569 621.026C781.008 620.92 779.456 620.726 777.923 620.444C776.772 620.242 775.653 619.917 774.591 619.476C773.725 619.092 773.24 618.65 773.14 618.151L767.729 618.102C767.3 618.103 766.872 618.069 766.45 618.002C766.078 617.938 765.887 617.856 765.886 617.747V617.266L773.287 617.328C773.615 616.824 774.284 616.382 775.311 616.007C776.528 615.58 777.784 615.244 779.065 615.005L781.545 615.307C782.297 615.4 782.671 615.511 782.673 615.636C782.673 615.704 782.52 615.789 782.209 615.889C781.897 615.989 781.525 616.111 781.097 616.251C780.673 616.389 780.261 616.553 779.862 616.741C779.512 616.892 779.203 617.11 778.961 617.381L797.153 617.538ZM778.893 618.192C779.041 618.506 779.372 618.774 779.877 619.006C780.475 619.263 781.107 619.452 781.758 619.569C782.594 619.726 783.441 619.834 784.293 619.892C785.234 619.961 786.218 619.994 787.244 619.989C788.292 619.988 789.339 619.94 790.381 619.844C791.171 619.772 791.955 619.655 792.727 619.492C793.331 619.364 793.922 619.192 794.493 618.976C794.96 618.794 795.411 618.58 795.841 618.336L778.893 618.192ZM822.33 617.759C822.181 617.439 821.818 617.16 821.254 616.92C820.563 616.644 819.837 616.44 819.092 616.314C818.079 616.134 817.055 616.012 816.025 615.949C814.863 615.87 813.579 615.833 812.172 615.838C811.094 615.835 810.016 615.883 808.944 615.984C808.152 616.06 807.368 616.186 806.597 616.362C806.015 616.493 805.45 616.678 804.912 616.914C804.465 617.115 804.033 617.341 803.618 617.59L822.33 617.759Z" fill="#FCB048"/>
<path d="M802.68 611.171C776.64 611.171 749.528 613.206 745.191 617.132C745.36 617.268 745.518 617.414 745.665 617.568C749.32 614.838 771.708 612.088 802.68 612.088C834.446 612.088 857.193 614.982 859.948 617.779C860.083 617.626 860.228 617.48 860.384 617.343C856.803 613.278 829.181 611.171 802.68 611.171Z" fill="url(#paint70_linear)"/>
<path d="M728.039 605.099V616.585C728.039 620.297 754.185 623.305 786.437 623.305C818.69 623.305 844.836 620.297 844.836 616.585V605.099H728.039Z" fill="url(#paint71_linear)"/>
<path d="M844.836 605.098C844.836 608.809 818.69 611.819 786.437 611.819C754.185 611.819 728.039 608.809 728.039 605.098C728.039 601.386 754.185 598.379 786.437 598.379C818.69 598.379 844.836 601.387 844.836 605.098Z" fill="url(#paint72_linear)"/>
<path d="M786.437 612.281C757.873 612.281 728.004 609.862 728.004 605.196C728.004 604.94 728.107 604.49 728.396 604.49C728.685 604.49 728.56 604.842 728.56 605.099C728.56 608.058 752.335 611.351 786.441 611.351C820.546 611.351 844.321 608.053 844.321 605.099C844.321 604.842 844.37 604.602 844.659 604.602C844.948 604.602 844.879 604.943 844.879 605.201C844.871 609.866 815.001 612.281 786.437 612.281Z" fill="url(#paint73_linear)"/>
<path d="M780.918 605.473C781.492 605.121 782.101 604.775 782.753 604.432C783.546 604.037 784.388 603.725 785.262 603.504C786.522 603.187 787.81 602.961 789.112 602.83C791.026 602.637 792.952 602.544 794.879 602.553C797.136 602.543 799.254 602.606 801.234 602.744C802.989 602.854 804.734 603.059 806.461 603.357C807.961 603.631 809.184 603.97 810.131 604.375C811.078 604.78 811.637 605.24 811.808 605.754L818.383 605.812C818.807 605.81 819.229 605.845 819.644 605.916C820.012 605.982 820.19 606.062 820.19 606.168V606.648L811.736 606.576C811.439 607.164 810.683 607.701 809.47 608.189C808.257 608.676 806.712 609.1 804.835 609.458L801.755 609.077C801.524 609.049 801.297 609 801.077 608.932C800.898 608.875 800.813 608.813 800.813 608.744C800.813 608.653 801.049 608.547 801.526 608.429C802.003 608.311 802.539 608.163 803.138 607.993C803.739 607.817 804.328 607.611 804.902 607.375C805.476 607.136 805.86 606.853 806.06 606.523L786.106 606.347C785.541 606.711 784.953 607.048 784.345 607.354C783.526 607.743 782.657 608.043 781.756 608.247C780.438 608.55 779.095 608.764 777.741 608.89C775.729 609.073 773.709 609.16 771.687 609.151C769.859 609.16 768.08 609.099 766.335 608.968C764.774 608.862 763.222 608.668 761.688 608.387C760.537 608.185 759.419 607.861 758.356 607.42C757.491 607.034 757.005 606.594 756.905 606.094L751.494 606.044C751.066 606.046 750.637 606.013 750.215 605.945C749.843 605.881 749.653 605.8 749.651 605.69V605.21L757.053 605.272C757.381 604.766 758.05 604.324 759.076 603.949C760.294 603.522 761.55 603.187 762.831 602.947L765.31 603.25C766.063 603.343 766.437 603.453 766.438 603.58C766.438 603.647 766.286 603.725 765.974 603.833C765.663 603.94 765.291 604.054 764.863 604.193C764.44 604.329 764.028 604.49 763.63 604.673C763.28 604.825 762.972 605.044 762.729 605.314L780.918 605.473ZM762.659 606.127C762.806 606.443 763.138 606.709 763.643 606.941C764.24 607.199 764.872 607.388 765.523 607.504C766.36 607.661 767.206 607.77 768.058 607.828C769 607.897 769.983 607.929 771.01 607.924C772.057 607.926 773.104 607.88 774.147 607.788C774.936 607.715 775.72 607.597 776.493 607.434C777.097 607.307 777.688 607.134 778.259 606.918C778.726 606.736 779.176 606.523 779.607 606.28L762.659 606.127ZM806.096 605.698C805.946 605.378 805.584 605.099 805.02 604.859C804.328 604.583 803.602 604.38 802.857 604.255C801.845 604.073 800.821 603.952 799.791 603.89C798.629 603.809 797.345 603.772 795.938 603.779C794.859 603.775 793.782 603.824 792.709 603.924C791.918 604 791.134 604.127 790.363 604.302C789.78 604.433 789.215 604.618 788.677 604.855C788.23 605.055 787.798 605.281 787.384 605.53L806.096 605.698Z" fill="#FCB048"/>
<path d="M786.446 599.106C760.406 599.106 733.294 601.141 728.957 605.067C729.125 605.206 729.283 605.354 729.431 605.511C733.085 602.78 755.474 600.031 786.446 600.031C818.211 600.031 840.957 602.923 843.713 605.721C843.848 605.568 843.993 605.422 844.149 605.285C840.568 601.213 812.946 599.106 786.446 599.106Z" fill="url(#paint74_linear)"/>
<path d="M742.047 593.07V604.556C742.047 608.268 768.193 611.276 800.445 611.276C832.698 611.276 858.844 608.268 858.844 604.556V593.07H742.047Z" fill="url(#paint75_linear)"/>
<path d="M800.445 599.789C832.698 599.789 858.844 596.781 858.844 593.069C858.844 589.358 832.698 586.349 800.445 586.349C768.193 586.349 742.047 589.358 742.047 593.069C742.047 596.781 768.193 599.789 800.445 599.789Z" fill="url(#paint76_linear)"/>
<path d="M800.445 600.253C771.88 600.253 742.012 597.834 742.012 593.168C742.012 592.911 742.115 592.461 742.404 592.461C742.692 592.461 742.568 592.813 742.568 593.069C742.568 596.028 766.343 599.321 800.448 599.321C834.554 599.321 858.329 596.024 858.329 593.069C858.329 592.813 858.378 592.573 858.667 592.573C858.955 592.573 858.887 592.915 858.887 593.171C858.878 597.84 829.008 600.253 800.445 600.253Z" fill="url(#paint77_linear)"/>
<path d="M794.926 593.445C795.5 593.093 796.11 592.745 796.762 592.404C797.554 592.007 798.396 591.696 799.271 591.476C800.531 591.157 801.819 590.932 803.121 590.801C805.035 590.608 806.96 590.516 808.886 590.525C811.143 590.514 813.262 590.578 815.243 590.716C816.997 590.826 818.743 591.031 820.469 591.329C821.969 591.601 823.196 591.938 824.138 592.338C825.081 592.738 825.635 593.199 825.816 593.716L832.392 593.776C832.816 593.774 833.238 593.808 833.653 593.879C834.021 593.946 834.198 594.025 834.198 594.132V594.612L825.744 594.539C825.448 595.128 824.693 595.666 823.478 596.153C822.262 596.641 820.717 597.064 818.842 597.421L815.763 597.042C815.532 597.013 815.304 596.964 815.084 596.896C814.907 596.838 814.82 596.777 814.82 596.709C814.82 596.612 815.058 596.507 815.533 596.393C816.009 596.28 816.547 596.134 817.147 595.957C817.748 595.781 818.337 595.574 818.911 595.338C819.484 595.1 819.866 594.816 820.059 594.486L800.107 594.31C799.541 594.675 798.953 595.012 798.345 595.319C797.526 595.708 796.656 596.007 795.756 596.21C794.438 596.514 793.096 596.729 791.742 596.853C789.73 597.037 787.709 597.125 785.686 597.116C783.858 597.116 782.079 597.062 780.334 596.933C778.774 596.826 777.222 596.632 775.689 596.351C774.538 596.149 773.419 595.824 772.356 595.383C771.492 594.999 771.006 594.557 770.905 594.058L765.494 594.009C765.065 594.01 764.637 593.976 764.215 593.908C763.841 593.844 763.651 593.763 763.651 593.653V593.173L771.052 593.235C771.38 592.729 772.049 592.289 773.075 591.914C774.293 591.486 775.55 591.151 776.832 590.912L779.31 591.213C780.064 591.307 780.438 591.416 780.438 591.543C780.438 591.611 780.285 591.696 779.974 591.796C779.662 591.896 779.29 592.017 778.864 592.158C778.441 592.297 778.029 592.462 777.631 592.651C777.28 592.801 776.972 593.02 776.729 593.29L794.926 593.445ZM776.666 594.099C776.814 594.413 777.147 594.68 777.65 594.912C778.247 595.17 778.879 595.36 779.531 595.476C780.367 595.633 781.214 595.741 782.066 595.799C783.009 595.866 783.993 595.899 785.017 595.896C786.065 595.894 787.112 595.846 788.154 595.751C788.944 595.679 789.728 595.562 790.5 595.399C791.105 595.271 791.695 595.098 792.266 594.881C792.734 594.7 793.184 594.486 793.614 594.243L776.666 594.099ZM820.103 593.663C819.954 593.344 819.592 593.065 819.029 592.824C818.337 592.548 817.611 592.345 816.866 592.219C815.854 592.039 814.829 591.917 813.799 591.854C812.638 591.775 811.353 591.738 809.945 591.744C808.867 591.74 807.789 591.789 806.717 591.889C805.926 591.965 805.141 592.092 804.37 592.267C803.788 592.399 803.223 592.584 802.685 592.819C802.238 593.021 801.806 593.247 801.391 593.496L820.103 593.663Z" fill="#FCB048"/>
<path d="M800.453 587.08C774.414 587.08 747.302 589.116 742.965 593.041C743.134 593.177 743.292 593.323 743.438 593.478C747.095 590.747 769.481 587.998 800.453 587.998C832.219 587.998 854.966 590.891 857.721 593.688C857.856 593.536 858.002 593.39 858.157 593.252C854.576 589.183 826.954 587.08 800.453 587.08Z" fill="url(#paint78_linear)"/>
<path d="M734.76 581.005V592.491C734.76 596.203 760.906 599.211 793.158 599.211C825.411 599.211 851.557 596.203 851.557 592.491V581.005H734.76Z" fill="url(#paint79_linear)"/>
<path d="M793.158 587.725C825.411 587.725 851.557 584.716 851.557 581.005C851.557 577.293 825.411 574.284 793.158 574.284C760.906 574.284 734.76 577.293 734.76 581.005C734.76 584.716 760.906 587.725 793.158 587.725Z" fill="url(#paint80_linear)"/>
<path d="M793.158 588.188C764.595 588.188 734.727 585.769 734.727 581.103C734.727 580.847 734.828 580.397 735.119 580.397C735.409 580.397 735.283 580.749 735.283 581.004C735.283 583.965 759.058 587.256 793.163 587.256C827.269 587.256 851.044 583.96 851.044 581.004C851.044 580.749 851.093 580.509 851.382 580.509C851.67 580.509 851.601 580.85 851.601 581.106C851.592 585.772 821.723 588.188 793.158 588.188Z" fill="url(#paint81_linear)"/>
<path d="M787.641 581.38C788.214 581.028 788.825 580.681 789.476 580.339C790.268 579.943 791.11 579.632 791.984 579.411C793.245 579.093 794.532 578.868 795.834 578.736C797.749 578.543 799.674 578.451 801.601 578.46C803.857 578.449 805.976 578.513 807.956 578.651C809.711 578.761 811.457 578.966 813.184 579.264C814.683 579.537 815.907 579.873 816.853 580.273C817.791 580.676 818.35 581.134 818.531 581.653L825.106 581.711C825.529 581.71 825.951 581.744 826.367 581.814C826.734 581.881 826.911 581.96 826.913 582.067V582.547L818.46 582.474C818.163 583.063 817.407 583.601 816.194 584.088C814.981 584.576 813.435 584.999 811.557 585.356L808.479 584.977C808.248 584.948 808.02 584.9 807.799 584.831C807.622 584.775 807.535 584.712 807.535 584.644C807.535 584.552 807.773 584.446 808.25 584.328C808.727 584.21 809.263 584.062 809.862 583.892C810.463 583.716 811.052 583.51 811.626 583.274C812.2 583.036 812.584 582.752 812.784 582.421L792.83 582.246C792.264 582.611 791.676 582.947 791.068 583.254C790.249 583.643 789.38 583.942 788.48 584.145C787.162 584.449 785.82 584.664 784.465 584.789C782.454 584.972 780.433 585.059 778.411 585.051C776.581 585.06 774.804 584.997 773.057 584.868C771.497 584.762 769.945 584.568 768.412 584.286C767.261 584.084 766.142 583.759 765.079 583.318C764.215 582.934 763.729 582.492 763.628 581.993L758.217 581.944C757.788 581.945 757.36 581.912 756.938 581.843C756.564 581.779 756.374 581.698 756.374 581.589V581.108L763.775 581.17C764.103 580.666 764.774 580.224 765.799 579.849C767.017 579.421 768.273 579.086 769.555 578.847L772.034 579.149C772.787 579.242 773.161 579.353 773.161 579.478C773.161 579.546 773.01 579.631 772.698 579.731C772.387 579.831 772.015 579.953 771.587 580.093C771.164 580.232 770.752 580.397 770.354 580.586C770.003 580.737 769.695 580.956 769.452 581.226L787.641 581.38ZM769.38 582.034C769.529 582.348 769.86 582.615 770.363 582.848C770.961 583.106 771.593 583.295 772.244 583.411C773.08 583.569 773.927 583.678 774.779 583.736C775.723 583.806 776.706 583.839 777.731 583.834C778.779 583.833 779.826 583.784 780.869 583.689C781.659 583.617 782.443 583.499 783.215 583.337C783.819 583.209 784.409 583.037 784.98 582.821C785.447 582.639 785.898 582.425 786.327 582.181L769.38 582.034ZM812.816 581.605C812.669 581.285 812.306 581.006 811.742 580.766C811.051 580.49 810.325 580.287 809.58 580.16C808.567 579.98 807.543 579.858 806.513 579.795C805.351 579.716 804.067 579.679 802.659 579.684C801.58 579.68 800.502 579.729 799.43 579.83C798.639 579.905 797.855 580.031 797.084 580.206C796.502 580.338 795.937 580.523 795.398 580.759C794.952 580.96 794.52 581.186 794.106 581.435L812.816 581.605Z" fill="#FCB048"/>
<path d="M793.166 575.013C767.128 575.013 740.015 577.048 735.678 580.974C735.847 581.113 736.006 581.261 736.153 581.418C739.808 578.686 762.195 575.936 793.166 575.936C824.934 575.936 847.679 578.83 850.434 581.627C850.57 581.474 850.716 581.328 850.872 581.191C847.289 577.12 819.669 575.013 793.166 575.013Z" fill="url(#paint82_linear)"/>
<path d="M868.169 589.101L857.614 595.759C854.203 597.911 866.593 618.546 885.287 641.849C903.981 665.151 921.903 682.303 925.313 680.151L935.868 673.494L868.169 589.101Z" fill="url(#paint83_linear)"/>
<path d="M935.868 673.497C932.457 675.649 914.537 658.499 895.843 635.194C877.149 611.889 864.758 591.253 868.169 589.104C871.579 586.956 889.499 604.102 908.193 627.407C926.887 650.712 939.278 671.345 935.868 673.497Z" fill="url(#paint84_linear)"/>
<path d="M895.417 635.463C878.856 614.817 863.771 591.845 868.059 589.135C868.295 588.99 868.769 588.799 868.936 589.009C869.103 589.218 868.708 589.331 868.472 589.48C865.752 591.195 876.506 610.281 896.27 634.925C916.033 659.57 932.846 674.835 935.564 673.119C935.801 672.973 936.056 672.867 936.22 673.075C936.384 673.283 936.033 673.433 935.797 673.581C931.506 676.286 911.973 656.102 895.417 635.463Z" fill="url(#paint85_linear)"/>
<path d="M898.475 627.53C899.131 627.739 899.803 627.979 900.497 628.257C901.319 628.6 902.093 629.028 902.802 629.532C903.825 630.258 904.778 631.057 905.653 631.922C906.941 633.193 908.142 634.531 909.251 635.929C910.563 637.554 911.732 639.122 912.76 640.632C913.674 641.964 914.496 643.344 915.219 644.765C915.839 646.006 916.239 647.085 916.419 648.001C916.6 648.917 916.501 649.587 916.124 650.012L919.881 654.798C920.129 655.102 920.342 655.427 920.517 655.769C920.669 656.073 920.696 656.249 920.602 656.309L920.163 656.589L915.329 650.439C914.615 650.566 913.683 650.332 912.532 649.737C911.381 649.142 910.097 648.269 908.68 647.12L907.244 644.674C907.135 644.492 907.048 644.3 906.981 644.102C906.931 643.94 906.939 643.841 907.001 643.802C907.063 643.763 907.321 643.859 907.705 644.135C908.088 644.411 908.536 644.717 909.044 645.044C909.554 645.376 910.085 645.683 910.635 645.961C911.186 646.237 911.669 646.349 912.089 646.303L900.685 631.784C900.022 631.586 899.371 631.356 898.737 631.095C897.905 630.728 897.126 630.274 896.417 629.741C895.374 628.965 894.399 628.119 893.5 627.213C892.165 625.868 890.913 624.46 889.748 622.996C888.68 621.679 887.703 620.354 886.815 619.021C886.009 617.831 885.29 616.597 884.662 615.325C884.181 614.376 883.831 613.38 883.619 612.356C883.472 611.509 883.596 610.902 883.996 610.539L880.904 606.599C880.652 606.29 880.433 605.961 880.248 605.617C880.084 605.31 880.058 605.123 880.156 605.062L880.596 604.781L884.828 610.161C885.484 610.104 886.276 610.334 887.215 610.857C888.314 611.49 889.351 612.203 890.314 612.99L891.473 614.956C891.823 615.555 891.939 615.888 891.824 615.962C891.76 616.001 891.595 615.94 891.323 615.773C891.05 615.606 890.722 615.408 890.347 615.18C889.972 614.956 889.582 614.754 889.178 614.575C888.836 614.41 888.457 614.314 888.068 614.294L898.475 627.53ZM887.291 614.715C887.087 615.005 887.03 615.401 887.112 615.897C887.222 616.477 887.414 617.044 887.684 617.582C888.023 618.277 888.415 618.951 888.856 619.6C889.341 620.321 889.882 621.051 890.48 621.791C891.086 622.549 891.735 623.279 892.424 623.979C892.948 624.508 893.511 625.006 894.108 625.469C894.576 625.832 895.077 626.159 895.607 626.446C896.045 626.678 896.502 626.88 896.975 627.05L887.291 614.715ZM912.87 645.852C913.078 645.561 913.124 645.135 913.019 644.589C912.87 643.929 912.636 643.287 912.32 642.675C911.899 641.84 911.418 641.029 910.879 640.249C910.277 639.362 909.566 638.412 908.747 637.4C908.125 636.619 907.455 635.869 906.74 635.153C906.212 634.625 905.641 634.131 905.034 633.675C904.575 633.332 904.077 633.031 903.548 632.778C903.105 632.573 902.647 632.391 902.179 632.236L912.87 645.852Z" fill="#FCB048"/>
<path d="M907.531 627.831C892.446 609.016 874.855 590.603 868.726 589.75C868.698 589.952 868.654 590.152 868.595 590.349C873.224 591.407 888.727 605.99 906.678 628.369C925.09 651.323 935.617 669.434 934.643 673.047C934.863 673.056 935.082 673.076 935.299 673.108C936.965 668.161 922.892 646.983 907.531 627.831Z" fill="url(#paint86_linear)"/>
<path d="M856.503 302.517C811.552 280.286 754.377 292.863 729.046 330.546C725.951 335.141 723.409 340.011 721.464 345.077C718.551 352.674 717.027 360.636 716.948 368.66L730.229 354.692C731.99 347.911 734.937 341.418 738.964 335.446C761.211 302.343 811.438 291.303 850.919 310.831C867.316 318.936 879.737 331.152 886.676 345.799C888.04 348.664 889.185 351.608 890.103 354.609C890.895 357.198 894 358.792 897.044 358.17C900.087 357.547 901.904 354.946 901.112 352.354C900.434 350.158 899.662 348.003 898.795 345.887C891.274 327.638 876.48 312.401 856.503 302.517Z" fill="url(#paint87_linear)"/>
<g filter="url(#filter1_d)">
<path d="M986.634 688.916C1006.76 686.624 1032.27 680.599 1042.52 663.617C1044.96 659.575 1047.41 651.726 1041.25 648.77C1035.63 646.067 1028.36 648.915 1024.17 652.438C1021.1 655.023 1018.7 660.794 1015.25 662.616C1010.19 665.286 1007.47 657.999 1007.58 654.991C1007.82 648.268 1017.14 645.514 1023.34 644.055C1033.63 641.631 1045.61 639.547 1044.97 629.271C1044.33 618.994 1033.02 612.815 1024.32 617.322C1017.15 621.03 1018.16 628.941 1013.27 633.688C1008.92 637.904 1007.4 631.061 1007.69 627.705C1008.32 620.415 1015.55 615.143 1020.87 610.258C1026.88 604.733 1033.53 593.623 1027.12 586.322C1023.43 582.12 1014.06 581.135 1008.52 581.845C981.415 585.315 999.389 616.421 994.46 619.89C989.531 623.359 984.868 617.286 984.881 608.049C984.894 598.812 983.299 591.999 972.427 594.955C961.556 597.911 959.486 622.039 971.9 631.312C984.314 640.585 971.121 650.702 967.787 644.056C965.382 639.258 963.267 626.693 956.309 625.315C944.724 623.022 944.896 643.999 948.231 648.882C952.904 655.727 963.48 657.213 969.383 663.119C971.098 664.833 974.969 669.08 973.464 671.589C971.367 675.086 965.516 671.345 963.365 669.724C958.533 666.08 951.843 653.699 945.033 661.922C936.625 672.072 950.685 687.125 986.634 688.916Z" fill="#34D2A5"/>
</g>
<g style="mix-blend-mode:soft-light" opacity="0.8">
<g style="mix-blend-mode:soft-light" opacity="0.8">
<path d="M989.533 687.238C989.061 687.238 988.672 686.843 988.664 686.421C988.664 686.056 988.097 649.446 1006.11 605.941C1006.19 605.747 1006.35 605.589 1006.56 605.5C1006.77 605.411 1007.01 605.4 1007.23 605.467C1007.34 605.501 1007.43 605.554 1007.52 605.622C1007.6 605.69 1007.67 605.772 1007.72 605.863C1007.77 605.954 1007.79 606.053 1007.8 606.154C1007.8 606.255 1007.78 606.355 1007.74 606.45C989.84 649.687 990.397 686.034 990.397 686.396C990.407 686.822 990.025 687.238 989.544 687.238H989.533Z" fill="white"/>
</g>
</g>
<path d="M996.934 673.267C993.671 670.806 986.741 674.654 983.865 676.118C982.195 676.969 979.913 678.271 977.904 677.515C975.797 676.72 975.945 674.753 977.221 673.367C979.503 670.877 983.883 670.193 987.067 668.979C990.486 667.671 993.626 665.901 995.311 662.841C996.656 660.401 996.964 656.794 995.451 654.391C991.261 647.74 985.163 652.937 981.754 656.897C980.1 658.822 976.394 662.131 973.585 659.868C970.598 657.454 973.162 653.149 975.479 651.25C978.509 648.77 982.177 647.045 985.481 644.888C988.456 642.944 991.51 640.158 989.53 636.711C988 634.047 984.15 632.573 980.861 632.8C973.259 633.322 972.074 643.163 967.068 646.942C965.298 648.278 961.273 649.341 959.163 648.03C957.013 646.692 958.41 643.634 959.182 641.965C961.478 637.022 977.921 620.438 964.292 618.356C960.862 617.831 956.133 618.792 953.437 620.723C948.354 624.373 945.653 631.599 944.314 637.081C942.207 645.708 942.327 655.289 944.678 663.867C949.877 682.827 962.093 688.916 962.093 688.916C967.378 690.458 973.984 691.219 979.462 690.191C985.901 688.983 993.601 684.756 996.785 679.483C997.81 677.777 998.955 674.791 996.934 673.267Z" fill="url(#paint88_linear)"/>
<path d="M872.34 337.285L894.892 350.683L910.235 331.812L913.294 345.503L897.95 364.365L875.4 350.977L872.34 337.285Z" fill="url(#paint89_linear)"/>
<defs>
<filter id="filter0_d" x="0" y="50.4282" width="1089.97" height="1086.57" filterUnits="userSpaceOnUse" color-interpolation-filters="sRGB">
<feFlood flood-opacity="0" result="BackgroundImageFix"/>
<feColorMatrix in="SourceAlpha" type="matrix" values="0 0 0 0 0 0 0 0 0 0 0 0 0 0 0 0 0 0 127 0"/>
<feOffset dy="4"/>
<feGaussianBlur stdDeviation="2"/>
<feColorMatrix type="matrix" values="0 0 0 0 0 0 0 0 0 0 0 0 0 0 0 0 0 0 0.25 0"/>
<feBlend mode="normal" in2="BackgroundImageFix" result="effect1_dropShadow"/>
<feBlend mode="normal" in="SourceGraphic" in2="effect1_dropShadow" result="shape"/>
</filter>
<filter id="filter1_d" x="938.67" y="581.634" width="110.455" height="115.282" filterUnits="userSpaceOnUse" color-interpolation-filters="sRGB">
<feFlood flood-opacity="0" result="BackgroundImageFix"/>
<feColorMatrix in="SourceAlpha" type="matrix" values="0 0 0 0 0 0 0 0 0 0 0 0 0 0 0 0 0 0 127 0"/>
<feOffset dy="4"/>
<feGaussianBlur stdDeviation="2"/>
<feColorMatrix type="matrix" values="0 0 0 0 0 0 0 0 0 0 0 0 0 0 0 0 0 0 0.25 0"/>
<feBlend mode="normal" in2="BackgroundImageFix" result="effect1_dropShadow"/>
<feBlend mode="normal" in="SourceGraphic" in2="effect1_dropShadow" result="shape"/>
</filter>
<linearGradient id="paint0_linear" x1="606.64" y1="399.681" x2="820.193" y2="399.681" gradientUnits="userSpaceOnUse">
<stop stop-color="#E38DDD"/>
<stop offset="1" stop-color="#9571F6"/>
</linearGradient>
<linearGradient id="paint1_linear" x1="871.635" y1="480.544" x2="977.573" y2="538.722" gradientUnits="userSpaceOnUse">
<stop stop-color="#444B8C"/>
<stop offset="1" stop-color="#26264F"/>
</linearGradient>
<linearGradient id="paint2_linear" x1="396961" y1="464925" x2="518416" y2="469084" gradientUnits="userSpaceOnUse">
<stop stop-color="#444B8C"/>
<stop offset="1" stop-color="#26264F"/>
</linearGradient>
<linearGradient id="paint3_linear" x1="949.016" y1="369.594" x2="1084.9" y2="784.634" gradientUnits="userSpaceOnUse">
<stop stop-color="#FFC444"/>
<stop offset="1" stop-color="#F36F56"/>
</linearGradient>
<linearGradient id="paint4_linear" x1="219566" y1="401286" x2="70142.3" y2="450924" gradientUnits="userSpaceOnUse">
<stop stop-color="#444B8C"/>
<stop offset="1" stop-color="#26264F"/>
</linearGradient>
<linearGradient id="paint5_linear" x1="99823.2" y1="468001" x2="240842" y2="472828" gradientUnits="userSpaceOnUse">
<stop stop-color="#444B8C"/>
<stop offset="1" stop-color="#26264F"/>
</linearGradient>
<linearGradient id="paint6_linear" x1="690.352" y1="3498.51" x2="-4103" y2="17713.3" gradientUnits="userSpaceOnUse">
<stop stop-color="#FFC444"/>
<stop offset="1" stop-color="#F36F56"/>
</linearGradient>
<linearGradient id="paint7_linear" x1="905.299" y1="646.63" x2="929.271" y2="744.191" gradientUnits="userSpaceOnUse">
<stop stop-color="#311944"/>
<stop offset="1" stop-color="#D0E8B3"/>
</linearGradient>
<linearGradient id="paint8_linear" x1="21032.5" y1="23889.6" x2="21056.3" y2="22168" gradientUnits="userSpaceOnUse">
<stop stop-color="#FFC444"/>
<stop offset="1" stop-color="#F36F56"/>
</linearGradient>
<linearGradient id="paint9_linear" x1="945.611" y1="652.131" x2="969.582" y2="749.686" gradientUnits="userSpaceOnUse">
<stop stop-color="#311944"/>
<stop offset="1" stop-color="#D0E8B3"/>
</linearGradient>
<linearGradient id="paint10_linear" x1="22710.9" y1="23918.8" x2="22734.7" y2="22197.2" gradientUnits="userSpaceOnUse">
<stop stop-color="#FFC444"/>
<stop offset="1" stop-color="#F36F56"/>
</linearGradient>
<linearGradient id="paint11_linear" x1="26741.3" y1="422262" x2="48038.5" y2="422058" gradientUnits="userSpaceOnUse">
<stop stop-color="#137753"/>
<stop offset="1" stop-color="#893976"/>
</linearGradient>
<linearGradient id="paint12_linear" x1="75691.7" y1="403239" x2="81514.2" y2="403239" gradientUnits="userSpaceOnUse">
<stop stop-color="#311944"/>
<stop offset="1" stop-color="#893976"/>
</linearGradient>
<linearGradient id="paint13_linear" x1="40143.2" y1="429162" x2="72469.5" y2="428700" gradientUnits="userSpaceOnUse">
<stop stop-color="#137753"/>
<stop offset="1" stop-color="#893976"/>
</linearGradient>
<linearGradient id="paint14_linear" x1="53454.2" y1="13740.6" x2="54988.5" y2="17413.4" gradientUnits="userSpaceOnUse">
<stop stop-color="#FFC444"/>
<stop offset="1" stop-color="#F36F56"/>
</linearGradient>
<linearGradient id="paint15_linear" x1="-70227.1" y1="94859.7" x2="-122231" y2="186040" gradientUnits="userSpaceOnUse">
<stop stop-color="#137753"/>
<stop offset="1" stop-color="#6165D7"/>
</linearGradient>
<linearGradient id="paint16_linear" x1="907.849" y1="420.603" x2="919.141" y2="608.807" gradientUnits="userSpaceOnUse">
<stop stop-color="#FF9263"/>
<stop offset="0.0001" stop-color="#FF4D00"/>
<stop offset="0.8125" stop-color="#FFF510"/>
<stop offset="1" stop-color="#FFA950"/>
</linearGradient>
<linearGradient id="paint17_linear" x1="80029.1" y1="28580.6" x2="82769" y2="39164.2" gradientUnits="userSpaceOnUse">
<stop stop-color="#FFC444"/>
<stop offset="1" stop-color="#F36F56"/>
</linearGradient>
<linearGradient id="paint18_linear" x1="-60225.4" y1="193542" x2="-12858.4" y2="129679" gradientUnits="userSpaceOnUse">
<stop stop-color="#D1C341"/>
<stop offset="1" stop-color="#D7A861"/>
</linearGradient>
<linearGradient id="paint19_linear" x1="919.096" y1="392.317" x2="944.55" y2="460.625" gradientUnits="userSpaceOnUse">
<stop stop-color="#311944"/>
<stop offset="1" stop-color="#D0E8B3"/>
</linearGradient>
<linearGradient id="paint20_linear" x1="913.795" y1="96.8322" x2="1230.8" y2="348.195" gradientUnits="userSpaceOnUse">
<stop stop-color="#311944"/>
<stop offset="1" stop-color="#D0E8B3"/>
</linearGradient>
<linearGradient id="paint21_linear" x1="44145.7" y1="15092.6" x2="45792.3" y2="17409.8" gradientUnits="userSpaceOnUse">
<stop stop-color="#1A3113"/>
<stop offset="1" stop-color="#26264F"/>
</linearGradient>
<linearGradient id="paint22_linear" x1="15794.4" y1="14612.3" x2="17857.6" y2="19232.2" gradientUnits="userSpaceOnUse">
<stop stop-color="#FFC444"/>
<stop offset="1" stop-color="#F36F56"/>
</linearGradient>
<linearGradient id="paint23_linear" x1="27973.5" y1="13878.3" x2="29570.9" y2="15412.5" gradientUnits="userSpaceOnUse">
<stop stop-color="#1A3113"/>
<stop offset="1" stop-color="#26264F"/>
</linearGradient>
<linearGradient id="paint24_linear" x1="923.718" y1="409.412" x2="927.057" y2="414.549" gradientUnits="userSpaceOnUse">
<stop stop-color="#FFC444"/>
<stop offset="1" stop-color="#F36F56"/>
</linearGradient>
<linearGradient id="paint25_linear" x1="-26912.5" y1="19186" x2="-27459.9" y2="20651.5" gradientUnits="userSpaceOnUse">
<stop stop-color="#FFC444"/>
<stop offset="1" stop-color="#F36F56"/>
</linearGradient>
<linearGradient id="paint26_linear" x1="-59028.2" y1="28424.3" x2="-59996.8" y2="35915.7" gradientUnits="userSpaceOnUse">
<stop stop-color="#244419"/>
<stop offset="1" stop-color="#893976"/>
</linearGradient>
<linearGradient id="paint27_linear" x1="-17941.7" y1="24917.9" x2="-17966.1" y2="23156.2" gradientUnits="userSpaceOnUse">
<stop stop-color="#FFC444"/>
<stop offset="1" stop-color="#F36F56"/>
</linearGradient>
<linearGradient id="paint28_linear" x1="-59064.1" y1="28430.1" x2="-60032.8" y2="35921.5" gradientUnits="userSpaceOnUse">
<stop stop-color="#244419"/>
<stop offset="1" stop-color="#893976"/>
</linearGradient>
<linearGradient id="paint29_linear" x1="-19568.1" y1="24947.9" x2="-19592.5" y2="23186.1" gradientUnits="userSpaceOnUse">
<stop stop-color="#FFC444"/>
<stop offset="1" stop-color="#F36F56"/>
</linearGradient>
<linearGradient id="paint30_linear" x1="26795.7" y1="427091" x2="48335.9" y2="426885" gradientUnits="userSpaceOnUse">
<stop stop-color="#137753"/>
<stop offset="1" stop-color="#893976"/>
</linearGradient>
<linearGradient id="paint31_linear" x1="-68729.7" y1="423314" x2="-74685.7" y2="423314" gradientUnits="userSpaceOnUse">
<stop stop-color="#444B8C"/>
<stop offset="1" stop-color="#26264F"/>
</linearGradient>
<linearGradient id="paint32_linear" x1="40287" y1="434070" x2="72980.9" y2="433603" gradientUnits="userSpaceOnUse">
<stop stop-color="#137753"/>
<stop offset="1" stop-color="#893976"/>
</linearGradient>
<linearGradient id="paint33_linear" x1="-46903.3" y1="14658.5" x2="-48471" y2="18412.7" gradientUnits="userSpaceOnUse">
<stop stop-color="#FFC444"/>
<stop offset="1" stop-color="#F36F56"/>
</linearGradient>
<linearGradient id="paint34_linear" x1="26007" y1="91278.2" x2="97518.1" y2="182036" gradientUnits="userSpaceOnUse">
<stop stop-color="#FFB185"/>
<stop offset="1" stop-color="#FB6FBB"/>
</linearGradient>
<linearGradient id="paint35_linear" x1="336736" y1="373995" x2="298247" y2="307323" gradientUnits="userSpaceOnUse">
<stop stop-color="#20A58D"/>
<stop offset="1" stop-color="#FF9A03"/>
</linearGradient>
<linearGradient id="paint36_linear" x1="313373" y1="288727" x2="211414" y2="179224" gradientUnits="userSpaceOnUse">
<stop stop-color="#FF9B85"/>
<stop offset="1" stop-color="#FF984E"/>
</linearGradient>
<linearGradient id="paint37_linear" x1="9964.04" y1="41466" x2="43186.3" y2="75740.2" gradientUnits="userSpaceOnUse">
<stop stop-color="#FFB185"/>
<stop offset="1" stop-color="#FB6FBB"/>
</linearGradient>
<linearGradient id="paint38_linear" x1="679.87" y1="434.764" x2="692.672" y2="398.097" gradientUnits="userSpaceOnUse">
<stop/>
<stop offset="1" stop-color="#05083A"/>
</linearGradient>
<linearGradient id="paint39_linear" x1="4407.96" y1="16367.6" x2="17304.7" y2="30076.2" gradientUnits="userSpaceOnUse">
<stop stop-color="#FFB185"/>
<stop offset="1" stop-color="#FB6FBB"/>
</linearGradient>
<linearGradient id="paint40_linear" x1="80232" y1="203252" x2="31716.3" y2="138151" gradientUnits="userSpaceOnUse">
<stop stop-color="#F03A01"/>
<stop offset="1" stop-color="#FF5A13"/>
</linearGradient>
<linearGradient id="paint41_linear" x1="40437.9" y1="12276.4" x2="40437.9" y2="7866.84" gradientUnits="userSpaceOnUse">
<stop stop-color="#137753"/>
<stop offset="1" stop-color="#142D24"/>
</linearGradient>
<linearGradient id="paint42_linear" x1="98992.2" y1="99488.3" x2="98992.2" y2="62580.2" gradientUnits="userSpaceOnUse">
<stop stop-color="#137753"/>
<stop offset="1" stop-color="#142D24"/>
</linearGradient>
<linearGradient id="paint43_linear" x1="764.416" y1="485.159" x2="693.023" y2="510.998" gradientUnits="userSpaceOnUse">
<stop stop-color="#FCB148"/>
<stop offset="0.05" stop-color="#FDBA46"/>
<stop offset="0.14" stop-color="#FFC244"/>
<stop offset="0.32" stop-color="#FFC444"/>
<stop offset="0.48" stop-color="#FDB946"/>
<stop offset="0.78" stop-color="#F99C4D"/>
<stop offset="0.87" stop-color="#F8924F"/>
<stop offset="1" stop-color="#F8924F"/>
</linearGradient>
<linearGradient id="paint44_linear" x1="823.634" y1="420.546" x2="770.306" y2="553.226" gradientUnits="userSpaceOnUse">
<stop stop-color="#FFDB44"/>
<stop offset="1" stop-color="#FEEF06"/>
</linearGradient>
<linearGradient id="paint45_linear" x1="170673" y1="206127" x2="163119" y2="160417" gradientUnits="userSpaceOnUse">
<stop stop-color="#FCB148"/>
<stop offset="0.05" stop-color="#FDBA46"/>
<stop offset="0.14" stop-color="#FFC244"/>
<stop offset="0.32" stop-color="#FFC444"/>
<stop offset="0.48" stop-color="#FDB946"/>
<stop offset="0.78" stop-color="#F99C4D"/>
<stop offset="0.87" stop-color="#F8924F"/>
<stop offset="1" stop-color="#F8924F"/>
</linearGradient>
<linearGradient id="paint46_linear" x1="146007" y1="128076" x2="176935" y2="200796" gradientUnits="userSpaceOnUse">
<stop stop-color="#FCB148"/>
<stop offset="0.05" stop-color="#FDBA46"/>
<stop offset="0.14" stop-color="#FFC244"/>
<stop offset="0.32" stop-color="#FFC444"/>
<stop offset="0.48" stop-color="#FDB946"/>
<stop offset="0.78" stop-color="#F99C4D"/>
<stop offset="0.87" stop-color="#F8924F"/>
<stop offset="1" stop-color="#F8924F"/>
</linearGradient>
<linearGradient id="paint47_linear" x1="71698.2" y1="92203" x2="90434.6" y2="139241" gradientUnits="userSpaceOnUse">
<stop stop-color="#FFDB44"/>
<stop offset="1" stop-color="#FEEF06"/>
</linearGradient>
<linearGradient id="paint48_linear" x1="80953.4" y1="132278" x2="121323" y2="189045" gradientUnits="userSpaceOnUse">
<stop stop-color="#FCB148"/>
<stop offset="0.05" stop-color="#FDBA46"/>
<stop offset="0.14" stop-color="#FFC244"/>
<stop offset="0.32" stop-color="#FFC444"/>
<stop offset="0.48" stop-color="#FDB946"/>
<stop offset="0.78" stop-color="#F99C4D"/>
<stop offset="0.87" stop-color="#F8924F"/>
<stop offset="1" stop-color="#F8924F"/>
</linearGradient>
<linearGradient id="paint49_linear" x1="14446.8" y1="15323.2" x2="17606.3" y2="20227.5" gradientUnits="userSpaceOnUse">
<stop stop-color="#FFC444"/>
<stop offset="1" stop-color="#F36F56"/>
</linearGradient>
<linearGradient id="paint50_linear" x1="27442" y1="123539" x2="127110" y2="222469" gradientUnits="userSpaceOnUse">
<stop stop-color="#FFB185"/>
<stop offset="1" stop-color="#FB6FBB"/>
</linearGradient>
<linearGradient id="paint51_linear" x1="734.287" y1="675.44" x2="868.656" y2="675.44" gradientUnits="userSpaceOnUse">
<stop stop-color="#F68252"/>
<stop offset="0.04" stop-color="#F99A4D"/>
<stop offset="0.08" stop-color="#FCAD49"/>
<stop offset="0.13" stop-color="#FEBA46"/>
<stop offset="0.2" stop-color="#FFC244"/>
<stop offset="0.32" stop-color="#FFC444"/>
<stop offset="0.45" stop-color="#FDB946"/>
<stop offset="0.69" stop-color="#F99C4C"/>
<stop offset="1" stop-color="#F36F56"/>
</linearGradient>
<linearGradient id="paint52_linear" x1="159643" y1="36066.8" x2="159711" y2="40996.2" gradientUnits="userSpaceOnUse">
<stop stop-color="#FFDB44"/>
<stop offset="1" stop-color="#FEEF06"/>
</linearGradient>
<linearGradient id="paint53_linear" x1="159549" y1="21066.6" x2="159556" y2="21944.4" gradientUnits="userSpaceOnUse">
<stop stop-color="#FFDB44"/>
<stop offset="1" stop-color="#FEEF06"/>
</linearGradient>
<linearGradient id="paint54_linear" x1="803.826" y1="674.129" x2="802.117" y2="657.989" gradientUnits="userSpaceOnUse">
<stop stop-color="#F36F56"/>
<stop offset="0.31" stop-color="#F99C4C"/>
<stop offset="0.55" stop-color="#FDB946"/>
<stop offset="0.68" stop-color="#FFC444"/>
<stop offset="0.8" stop-color="#FFC244"/>
<stop offset="0.87" stop-color="#FEBA46"/>
<stop offset="0.92" stop-color="#FCAD49"/>
<stop offset="0.96" stop-color="#F99A4D"/>
<stop offset="1" stop-color="#F57E53"/>
</linearGradient>
<linearGradient id="paint55_linear" x1="99777" y1="48787" x2="195490" y2="48787" gradientUnits="userSpaceOnUse">
<stop stop-color="#F68252"/>
<stop offset="0.04" stop-color="#F99A4D"/>
<stop offset="0.08" stop-color="#FCAD49"/>
<stop offset="0.13" stop-color="#FEBA46"/>
<stop offset="0.2" stop-color="#FFC244"/>
<stop offset="0.32" stop-color="#FFC444"/>
<stop offset="0.45" stop-color="#FDB946"/>
<stop offset="0.69" stop-color="#F99C4C"/>
<stop offset="1" stop-color="#F36F56"/>
</linearGradient>
<linearGradient id="paint56_linear" x1="148074" y1="34939.4" x2="148142" y2="39868.7" gradientUnits="userSpaceOnUse">
<stop stop-color="#FFDB44"/>
<stop offset="1" stop-color="#FEEF06"/>
</linearGradient>
<linearGradient id="paint57_linear" x1="147960" y1="20411.7" x2="147967" y2="21289.6" gradientUnits="userSpaceOnUse">
<stop stop-color="#FFDB44"/>
<stop offset="1" stop-color="#FEEF06"/>
</linearGradient>
<linearGradient id="paint58_linear" x1="-49296.7" y1="4501.51" x2="-49291.6" y2="5243.31" gradientUnits="userSpaceOnUse">
<stop stop-color="#F36F56"/>
<stop offset="0.31" stop-color="#F99C4C"/>
<stop offset="0.55" stop-color="#FDB946"/>
<stop offset="0.68" stop-color="#FFC444"/>
<stop offset="0.8" stop-color="#FFC244"/>
<stop offset="0.87" stop-color="#FEBA46"/>
<stop offset="0.92" stop-color="#FCAD49"/>
<stop offset="0.96" stop-color="#F99A4D"/>
<stop offset="1" stop-color="#F57E53"/>
</linearGradient>
<linearGradient id="paint59_linear" x1="109770" y1="47268.6" x2="205483" y2="47268.6" gradientUnits="userSpaceOnUse">
<stop stop-color="#F68252"/>
<stop offset="0.04" stop-color="#F99A4D"/>
<stop offset="0.08" stop-color="#FCAD49"/>
<stop offset="0.13" stop-color="#FEBA46"/>
<stop offset="0.2" stop-color="#FFC244"/>
<stop offset="0.32" stop-color="#FFC444"/>
<stop offset="0.45" stop-color="#FDB946"/>
<stop offset="0.69" stop-color="#F99C4C"/>
<stop offset="1" stop-color="#F36F56"/>
</linearGradient>
<linearGradient id="paint60_linear" x1="158066" y1="33815.4" x2="158134" y2="38744.7" gradientUnits="userSpaceOnUse">
<stop stop-color="#FFDB44"/>
<stop offset="1" stop-color="#FEEF06"/>
</linearGradient>
<linearGradient id="paint61_linear" x1="157960" y1="19751.3" x2="157967" y2="20629.1" gradientUnits="userSpaceOnUse">
<stop stop-color="#FFDB44"/>
<stop offset="1" stop-color="#FEEF06"/>
</linearGradient>
<linearGradient id="paint62_linear" x1="-59124.8" y1="5040.09" x2="-59119.7" y2="5782.55" gradientUnits="userSpaceOnUse">
<stop stop-color="#F36F56"/>
<stop offset="0.31" stop-color="#F99C4C"/>
<stop offset="0.55" stop-color="#FDB946"/>
<stop offset="0.68" stop-color="#FFC444"/>
<stop offset="0.8" stop-color="#FFC244"/>
<stop offset="0.87" stop-color="#FEBA46"/>
<stop offset="0.92" stop-color="#FCAD49"/>
<stop offset="0.96" stop-color="#F99A4D"/>
<stop offset="1" stop-color="#F57E53"/>
</linearGradient>
<linearGradient id="paint63_linear" x1="115833" y1="45745.7" x2="211547" y2="45745.7" gradientUnits="userSpaceOnUse">
<stop stop-color="#F68252"/>
<stop offset="0.04" stop-color="#F99A4D"/>
<stop offset="0.08" stop-color="#FCAD49"/>
<stop offset="0.13" stop-color="#FEBA46"/>
<stop offset="0.2" stop-color="#FFC244"/>
<stop offset="0.32" stop-color="#FFC444"/>
<stop offset="0.45" stop-color="#FDB946"/>
<stop offset="0.69" stop-color="#F99C4C"/>
<stop offset="1" stop-color="#F36F56"/>
</linearGradient>
<linearGradient id="paint64_linear" x1="164129" y1="32688" x2="164197" y2="37617.4" gradientUnits="userSpaceOnUse">
<stop stop-color="#FFDB44"/>
<stop offset="1" stop-color="#FEEF06"/>
</linearGradient>
<linearGradient id="paint65_linear" x1="164031" y1="19092.7" x2="164038" y2="19970.4" gradientUnits="userSpaceOnUse">
<stop stop-color="#FFDB44"/>
<stop offset="1" stop-color="#FEEF06"/>
</linearGradient>
<linearGradient id="paint66_linear" x1="-65088.8" y1="5577.97" x2="-65083.7" y2="6320.51" gradientUnits="userSpaceOnUse">
<stop stop-color="#F36F56"/>
<stop offset="0.31" stop-color="#F99C4C"/>
<stop offset="0.55" stop-color="#FDB946"/>
<stop offset="0.68" stop-color="#FFC444"/>
<stop offset="0.8" stop-color="#FFC244"/>
<stop offset="0.87" stop-color="#FEBA46"/>
<stop offset="0.92" stop-color="#FCAD49"/>
<stop offset="0.96" stop-color="#F99A4D"/>
<stop offset="1" stop-color="#F57E53"/>
</linearGradient>
<linearGradient id="paint67_linear" x1="111357" y1="44102.9" x2="207071" y2="44102.9" gradientUnits="userSpaceOnUse">
<stop stop-color="#F68252"/>
<stop offset="0.04" stop-color="#F99A4D"/>
<stop offset="0.08" stop-color="#FCAD49"/>
<stop offset="0.13" stop-color="#FEBA46"/>
<stop offset="0.2" stop-color="#FFC244"/>
<stop offset="0.32" stop-color="#FFC444"/>
<stop offset="0.45" stop-color="#FDB946"/>
<stop offset="0.69" stop-color="#F99C4C"/>
<stop offset="1" stop-color="#F36F56"/>
</linearGradient>
<linearGradient id="paint68_linear" x1="159654" y1="31471.8" x2="159722" y2="36401.2" gradientUnits="userSpaceOnUse">
<stop stop-color="#FFDB44"/>
<stop offset="1" stop-color="#FEEF06"/>
</linearGradient>
<linearGradient id="paint69_linear" x1="159549" y1="18382.1" x2="159556" y2="19259.9" gradientUnits="userSpaceOnUse">
<stop stop-color="#FFDB44"/>
<stop offset="1" stop-color="#FEEF06"/>
</linearGradient>
<linearGradient id="paint70_linear" x1="-60685.7" y1="6151.05" x2="-60680.6" y2="6892.84" gradientUnits="userSpaceOnUse">
<stop stop-color="#F36F56"/>
<stop offset="0.31" stop-color="#F99C4C"/>
<stop offset="0.55" stop-color="#FDB946"/>
<stop offset="0.68" stop-color="#FFC444"/>
<stop offset="0.8" stop-color="#FFC244"/>
<stop offset="0.87" stop-color="#FEBA46"/>
<stop offset="0.92" stop-color="#FCAD49"/>
<stop offset="0.96" stop-color="#F99A4D"/>
<stop offset="1" stop-color="#F57E53"/>
</linearGradient>
<linearGradient id="paint71_linear" x1="99777" y1="42580.1" x2="195490" y2="42580.1" gradientUnits="userSpaceOnUse">
<stop stop-color="#F68252"/>
<stop offset="0.04" stop-color="#F99A4D"/>
<stop offset="0.08" stop-color="#FCAD49"/>
<stop offset="0.13" stop-color="#FEBA46"/>
<stop offset="0.2" stop-color="#FFC244"/>
<stop offset="0.32" stop-color="#FFC444"/>
<stop offset="0.45" stop-color="#FDB946"/>
<stop offset="0.69" stop-color="#F99C4C"/>
<stop offset="1" stop-color="#F36F56"/>
</linearGradient>
<linearGradient id="paint72_linear" x1="148074" y1="30344.5" x2="148142" y2="35273.9" gradientUnits="userSpaceOnUse">
<stop stop-color="#FFDB44"/>
<stop offset="1" stop-color="#FEEF06"/>
</linearGradient>
<linearGradient id="paint73_linear" x1="147960" y1="17723.5" x2="147967" y2="18601.3" gradientUnits="userSpaceOnUse">
<stop stop-color="#FFDB44"/>
<stop offset="1" stop-color="#FEEF06"/>
</linearGradient>
<linearGradient id="paint74_linear" x1="-49296.7" y1="6694.02" x2="-49291.6" y2="7436.63" gradientUnits="userSpaceOnUse">
<stop stop-color="#F36F56"/>
<stop offset="0.31" stop-color="#F99C4C"/>
<stop offset="0.55" stop-color="#FDB946"/>
<stop offset="0.68" stop-color="#FFC444"/>
<stop offset="0.8" stop-color="#FFC244"/>
<stop offset="0.87" stop-color="#FEBA46"/>
<stop offset="0.92" stop-color="#FCAD49"/>
<stop offset="0.96" stop-color="#F99A4D"/>
<stop offset="1" stop-color="#F57E53"/>
</linearGradient>
<linearGradient id="paint75_linear" x1="109770" y1="41061.8" x2="205483" y2="41061.8" gradientUnits="userSpaceOnUse">
<stop stop-color="#F68252"/>
<stop offset="0.04" stop-color="#F99A4D"/>
<stop offset="0.08" stop-color="#FCAD49"/>
<stop offset="0.13" stop-color="#FEBA46"/>
<stop offset="0.2" stop-color="#FFC244"/>
<stop offset="0.32" stop-color="#FFC444"/>
<stop offset="0.45" stop-color="#FDB946"/>
<stop offset="0.69" stop-color="#F99C4C"/>
<stop offset="1" stop-color="#F36F56"/>
</linearGradient>
<linearGradient id="paint76_linear" x1="158066" y1="29220.6" x2="158134" y2="34149.8" gradientUnits="userSpaceOnUse">
<stop stop-color="#FFDB44"/>
<stop offset="1" stop-color="#FEEF06"/>
</linearGradient>
<linearGradient id="paint77_linear" x1="157960" y1="17066.9" x2="157967" y2="17944.6" gradientUnits="userSpaceOnUse">
<stop stop-color="#FFDB44"/>
<stop offset="1" stop-color="#FEEF06"/>
</linearGradient>
<linearGradient id="paint78_linear" x1="-59124.8" y1="7222" x2="-59119.7" y2="7963.81" gradientUnits="userSpaceOnUse">
<stop stop-color="#F36F56"/>
<stop offset="0.31" stop-color="#F99C4C"/>
<stop offset="0.55" stop-color="#FDB946"/>
<stop offset="0.68" stop-color="#FFC444"/>
<stop offset="0.8" stop-color="#FFC244"/>
<stop offset="0.87" stop-color="#FEBA46"/>
<stop offset="0.92" stop-color="#FCAD49"/>
<stop offset="0.96" stop-color="#F99A4D"/>
<stop offset="1" stop-color="#F57E53"/>
</linearGradient>
<linearGradient id="paint79_linear" x1="104572" y1="39539" x2="200286" y2="39539" gradientUnits="userSpaceOnUse">
<stop stop-color="#F68252"/>
<stop offset="0.04" stop-color="#F99A4D"/>
<stop offset="0.08" stop-color="#FCAD49"/>
<stop offset="0.13" stop-color="#FEBA46"/>
<stop offset="0.2" stop-color="#FFC244"/>
<stop offset="0.32" stop-color="#FFC444"/>
<stop offset="0.45" stop-color="#FDB946"/>
<stop offset="0.69" stop-color="#F99C4C"/>
<stop offset="1" stop-color="#F36F56"/>
</linearGradient>
<linearGradient id="paint80_linear" x1="152868" y1="28093.2" x2="152936" y2="33022.6" gradientUnits="userSpaceOnUse">
<stop stop-color="#FFDB44"/>
<stop offset="1" stop-color="#FEEF06"/>
</linearGradient>
<linearGradient id="paint81_linear" x1="152759" y1="16408.3" x2="152766" y2="17286" gradientUnits="userSpaceOnUse">
<stop stop-color="#FFDB44"/>
<stop offset="1" stop-color="#FEEF06"/>
</linearGradient>
<linearGradient id="paint82_linear" x1="-54013.7" y1="7764.59" x2="-54008.6" y2="8507.03" gradientUnits="userSpaceOnUse">
<stop stop-color="#F36F56"/>
<stop offset="0.31" stop-color="#F99C4C"/>
<stop offset="0.55" stop-color="#FDB946"/>
<stop offset="0.68" stop-color="#FFC444"/>
<stop offset="0.8" stop-color="#FFC244"/>
<stop offset="0.87" stop-color="#FEBA46"/>
<stop offset="0.92" stop-color="#FCAD49"/>
<stop offset="0.96" stop-color="#F99A4D"/>
<stop offset="1" stop-color="#F57E53"/>
</linearGradient>
<linearGradient id="paint83_linear" x1="-22811.5" y1="169710" x2="8944.59" y2="219725" gradientUnits="userSpaceOnUse">
<stop stop-color="#F68252"/>
<stop offset="0.04" stop-color="#F99A4D"/>
<stop offset="0.08" stop-color="#FCAD49"/>
<stop offset="0.13" stop-color="#FEBA46"/>
<stop offset="0.2" stop-color="#FFC244"/>
<stop offset="0.32" stop-color="#FFC444"/>
<stop offset="0.45" stop-color="#FDB946"/>
<stop offset="0.69" stop-color="#F99C4C"/>
<stop offset="1" stop-color="#F36F56"/>
</linearGradient>
<linearGradient id="paint84_linear" x1="-2068.85" y1="167940" x2="-23506.4" y2="192137" gradientUnits="userSpaceOnUse">
<stop stop-color="#FFDB44"/>
<stop offset="1" stop-color="#FEEF06"/>
</linearGradient>
<linearGradient id="paint85_linear" x1="-912.959" y1="167339" x2="-7508.53" y2="174782" gradientUnits="userSpaceOnUse">
<stop stop-color="#FFDB44"/>
<stop offset="1" stop-color="#FEEF06"/>
</linearGradient>
<linearGradient id="paint86_linear" x1="203319" y1="-27850.9" x2="209753" y2="-35142.2" gradientUnits="userSpaceOnUse">
<stop stop-color="#F36F56"/>
<stop offset="0.31" stop-color="#F99C4C"/>
<stop offset="0.55" stop-color="#FDB946"/>
<stop offset="0.68" stop-color="#FFC444"/>
<stop offset="0.8" stop-color="#FFC244"/>
<stop offset="0.87" stop-color="#FEBA46"/>
<stop offset="0.92" stop-color="#FCAD49"/>
<stop offset="0.96" stop-color="#F99A4D"/>
<stop offset="1" stop-color="#F57E53"/>
</linearGradient>
<linearGradient id="paint87_linear" x1="768.19" y1="370.842" x2="810.876" y2="274.178" gradientUnits="userSpaceOnUse">
<stop stop-color="#51FFEA"/>
<stop offset="1" stop-color="#0A7E2C"/>
</linearGradient>
<linearGradient id="paint88_linear" x1="952.14" y1="618.24" x2="958.4" y2="720.176" gradientUnits="userSpaceOnUse">
<stop stop-color="#FF9263"/>
<stop offset="0.0001" stop-color="#FF4D00"/>
<stop offset="0.8125" stop-color="#FFF510"/>
<stop offset="1" stop-color="#FFA950"/>
</linearGradient>
<linearGradient id="paint89_linear" x1="899.001" y1="371.991" x2="897.428" y2="338.781" gradientUnits="userSpaceOnUse">
<stop stop-color="#51FFEA"/>
<stop offset="1" stop-color="#0A7E2C"/>
</linearGradient>
</defs>
</svg>
