<svg width="190" height="181" viewBox="0 0 190 181" fill="none" xmlns="http://www.w3.org/2000/svg">
<path d="M74.1976 50.5556L74.2493 55.4351L78.1345 55.397L78.0828 50.5175L74.1976 50.5556Z" fill="url(#paint0_linear)"/>
<path d="M89.2159 56.2804L89.26 60.4458L93.1452 60.4077L93.1011 56.2423L89.2159 56.2804Z" fill="url(#paint1_linear)"/>
<path d="M81.3997 49.1156L81.5378 62.1636L85.4231 62.1255L85.2849 49.0776L81.3997 49.1156Z" fill="url(#paint2_linear)"/>
<path d="M81.3456 43.9508L81.3694 46.2012L85.2546 46.1631L85.2308 43.9127L81.3456 43.9508Z" fill="url(#paint3_linear)"/>
<path d="M0.00010101 87.1621L0.0517578 92.0415L3.93698 92.0034L3.88532 87.124L0.00010101 87.1621Z" fill="url(#paint4_linear)"/>
<path d="M14.9095 81.8634L14.9529 86.0288L18.8381 85.9914L18.7948 81.826L14.9095 81.8634Z" fill="url(#paint5_linear)"/>
<path d="M7.13579 80.2924L7.27393 93.3403L11.1591 93.3023L11.021 80.2543L7.13579 80.2924Z" fill="url(#paint6_linear)"/>
<path d="M7.30368 96.2648L7.32861 98.5151L11.2139 98.48L11.1889 96.2296L7.30368 96.2648Z" fill="url(#paint7_linear)"/>
<path d="M44.9015 80.6274V99.6075H40.2781V88.2249L36.0333 99.6075H32.3022L28.0303 88.1978V99.6075H23.407V80.6274H28.8685L34.1948 93.7675L39.467 80.6274H44.9015Z" fill="#22A781"/>
<path d="M52.7684 80.6274V91.983C52.7684 93.1186 53.0478 93.9928 53.6065 94.6056C54.1653 95.2184 54.9854 95.5249 56.0669 95.5249C57.1484 95.5249 57.9775 95.2184 58.5543 94.6056C59.1311 93.9928 59.4195 93.1186 59.4195 91.983V80.6274H64.0429V91.956C64.0429 93.6503 63.6824 95.0833 62.9614 96.2549C62.2404 97.4265 61.2671 98.3097 60.0414 98.9045C58.8337 99.4993 57.4819 99.7967 55.9858 99.7967C54.4898 99.7967 53.1469 99.5083 51.9573 98.9315C50.7857 98.3367 49.8574 97.4535 49.1725 96.2819C48.4875 95.0923 48.1451 93.6503 48.1451 91.956V80.6274H52.7684Z" fill="#22A781"/>
<path d="M71.9128 96.0386H77.9691V99.6075H67.2894V80.6274H71.9128V96.0386Z" fill="#22A781"/>
<path d="M96.2567 80.6274V99.6075H91.6333V80.6274H96.2567Z" fill="#22A781"/>
<path d="M96.9109 89.9882C96.9109 88.1137 97.3164 86.4464 98.1276 84.9864C98.9387 83.5083 100.065 82.3638 101.507 81.5527C102.967 80.7235 104.616 80.309 106.455 80.309C108.708 80.309 110.637 80.9038 112.241 82.0934C113.845 83.283 114.918 84.9053 115.458 86.9601H110.375C109.997 86.167 109.456 85.5632 108.753 85.1486C108.068 84.734 107.284 84.5267 106.401 84.5267C104.977 84.5267 103.823 85.0224 102.94 86.0138C102.057 87.0051 101.615 88.33 101.615 89.9882C101.615 91.6465 102.057 92.9713 102.94 93.9627C103.823 94.954 104.977 95.4497 106.401 95.4497C107.284 95.4497 108.068 95.2424 108.753 94.8279C109.456 94.4133 109.997 93.8095 110.375 93.0164H115.458C114.918 95.0712 113.845 96.6934 112.241 97.8831C110.637 99.0547 108.708 99.6405 106.455 99.6405C104.616 99.6405 102.967 99.2349 101.507 98.4238C100.065 97.5947 98.9387 96.4501 98.1276 94.9901C97.3164 93.5301 96.9109 91.8628 96.9109 89.9882Z" fill="url(#paint8_linear)"/>
<path d="M130.105 96.1527H123.021L121.886 99.5053H117.046L123.913 80.5253H129.267L136.134 99.5053H131.24L130.105 96.1527ZM128.915 92.5838L126.563 85.6353L124.238 92.5838H128.915Z" fill="url(#paint9_linear)"/>
<path d="M145.092 99.6945C143.704 99.6945 142.46 99.4692 141.36 99.0186C140.261 98.568 139.378 97.9011 138.711 97.0179C138.062 96.1347 137.719 95.0712 137.683 93.8275H142.604C142.676 94.5305 142.92 95.0712 143.334 95.4497C143.749 95.8102 144.289 95.9905 144.956 95.9905C145.641 95.9905 146.182 95.8372 146.579 95.5308C146.975 95.2064 147.173 94.7648 147.173 94.206C147.173 93.7374 147.011 93.3498 146.687 93.0434C146.38 92.737 145.993 92.4847 145.524 92.2864C145.074 92.0881 144.425 91.8628 143.578 91.6105C142.352 91.2319 141.351 90.8534 140.576 90.4749C139.801 90.0964 139.134 89.5376 138.576 88.7986C138.017 88.0596 137.737 87.0953 137.737 85.9056C137.737 84.1392 138.377 82.7603 139.657 81.769C140.937 80.7596 142.604 80.2549 144.659 80.2549C146.75 80.2549 148.435 80.7596 149.715 81.769C150.995 82.7603 151.68 84.1482 151.77 85.9327H146.768C146.732 85.3198 146.507 84.8422 146.092 84.4997C145.677 84.1392 145.146 83.959 144.497 83.959C143.938 83.959 143.487 84.1122 143.145 84.4186C142.802 84.707 142.631 85.1306 142.631 85.6893C142.631 86.3022 142.92 86.7798 143.496 87.1223C144.073 87.4648 144.974 87.8343 146.2 88.2308C147.426 88.6454 148.417 89.0419 149.174 89.4204C149.949 89.799 150.616 90.3487 151.175 91.0697C151.734 91.7907 152.013 92.719 152.013 93.8545C152.013 94.936 151.734 95.9184 151.175 96.8016C150.634 97.6848 149.841 98.3877 148.796 98.9105C147.75 99.4332 146.516 99.6945 145.092 99.6945Z" fill="url(#paint10_linear)"/>
<path d="M161.726 99.6945C160.338 99.6945 159.094 99.4692 157.995 99.0186C156.895 98.568 156.012 97.9011 155.345 97.0179C154.696 96.1347 154.354 95.0712 154.318 93.8275H159.238C159.31 94.5305 159.554 95.0712 159.968 95.4497C160.383 95.8102 160.924 95.9905 161.591 95.9905C162.275 95.9905 162.816 95.8372 163.213 95.5308C163.609 95.2064 163.808 94.7648 163.808 94.206C163.808 93.7374 163.645 93.3498 163.321 93.0434C163.014 92.737 162.627 92.4847 162.158 92.2864C161.708 92.0881 161.059 91.8628 160.212 91.6105C158.986 91.2319 157.986 90.8534 157.211 90.4749C156.435 90.0964 155.769 89.5376 155.21 88.7986C154.651 88.0596 154.372 87.0953 154.372 85.9056C154.372 84.1392 155.012 82.7603 156.291 81.769C157.571 80.7596 159.238 80.2549 161.293 80.2549C163.384 80.2549 165.069 80.7596 166.349 81.769C167.629 82.7603 168.314 84.1482 168.404 85.9327H163.402C163.366 85.3198 163.141 84.8422 162.726 84.4997C162.312 84.1392 161.78 83.959 161.131 83.959C160.572 83.959 160.122 84.1122 159.779 84.4186C159.437 84.707 159.265 85.1306 159.265 85.6893C159.265 86.3022 159.554 86.7798 160.131 87.1223C160.707 87.4648 161.609 87.8343 162.834 88.2308C164.06 88.6454 165.051 89.0419 165.808 89.4204C166.583 89.799 167.25 90.3487 167.809 91.0697C168.368 91.7907 168.647 92.719 168.647 93.8545C168.647 94.936 168.368 95.9184 167.809 96.8016C167.268 97.6848 166.475 98.3877 165.43 98.9105C164.384 99.4332 163.15 99.6945 161.726 99.6945Z" fill="url(#paint11_linear)"/>
<path d="M183.308 96.1527H176.224L175.088 99.5053H170.249L177.116 80.5253H182.469L189.337 99.5053H184.443L183.308 96.1527ZM182.118 92.5838L179.766 85.6353L177.441 92.5838H182.118Z" fill="url(#paint12_linear)"/>
<path d="M100.883 74.5298V99.6076H96.1809V74.5298H100.883Z" fill="white"/>
<path d="M96.1809 74.5298V99.6076H91.4788V74.5298H96.1809Z" fill="#22A781"/>
<path d="M96.1808 61.207V68.7011H85.98V99.6075H76.6017V68.7011H66.4009V61.207H96.1808Z" fill="#22A781"/>
<path d="M100.883 61.207V68.7011H90.6824V99.6075H81.3041V68.7011H71.1033V61.207H100.883Z" fill="#FDFDFD"/>
<path d="M57.081 114.707H56.2347L53.7034 111.87V114.707H52.998V109.112H53.7034V111.823L56.172 109.112H56.9713L54.5419 111.831L57.081 114.707Z" fill="#2F2E41"/>
<path d="M61.3612 109.112C62.0927 109.112 62.6256 109.255 62.9599 109.543C63.2943 109.83 63.4615 110.235 63.4615 110.757C63.4615 111.066 63.391 111.356 63.2499 111.627C63.1141 111.894 62.8816 112.11 62.5524 112.278C62.2285 112.445 61.787 112.528 61.228 112.528H60.5854V114.707H59.8801V109.112H61.3612ZM61.2985 109.715H60.5854V111.925H61.1496C61.6825 111.925 62.0796 111.839 62.3408 111.666C62.6021 111.494 62.7327 111.201 62.7327 110.789C62.7327 110.428 62.6177 110.159 62.3879 109.981C62.158 109.804 61.7949 109.715 61.2985 109.715Z" fill="#2F2E41"/>
<path d="M66.6704 109.112H67.3287V112.184C67.3287 112.356 67.3261 112.549 67.3209 112.764C67.3157 112.978 67.3078 113.174 67.2974 113.351C67.2922 113.529 67.2843 113.66 67.2739 113.743H67.3052L70.3851 109.112H71.1688V114.707H70.5105V111.666C70.5105 111.473 70.5131 111.267 70.5183 111.047C70.5288 110.828 70.5392 110.627 70.5497 110.444C70.5601 110.261 70.568 110.13 70.5732 110.052H70.5418L67.4541 114.707H66.6704V109.112Z" fill="#2F2E41"/>
<path d="M74.7156 114.707V109.112H78.9161V114.707H78.2186V109.731H75.4209V114.707H74.7156Z" fill="#2F2E41"/>
<path d="M84.2565 114.707H83.5512V109.731H81.8035V109.112H85.9963V109.731H84.2565V114.707Z" fill="#2F2E41"/>
<path d="M93.6069 111.902C93.6069 112.481 93.5076 112.988 93.3091 113.422C93.1157 113.85 92.8284 114.185 92.447 114.425C92.0656 114.665 91.5928 114.785 91.0285 114.785C90.4486 114.785 89.9653 114.665 89.5787 114.425C89.1973 114.185 88.9126 113.848 88.7245 113.414C88.5364 112.98 88.4424 112.474 88.4424 111.894C88.4424 111.319 88.5364 110.817 88.7245 110.389C88.9126 109.961 89.1973 109.626 89.5787 109.386C89.9653 109.146 90.4512 109.025 91.0364 109.025C91.5954 109.025 92.0656 109.146 92.447 109.386C92.8284 109.621 93.1157 109.955 93.3091 110.389C93.5076 110.817 93.6069 111.322 93.6069 111.902ZM89.1869 111.902C89.1869 112.607 89.3358 113.163 89.6336 113.571C89.9314 113.973 90.3964 114.174 91.0285 114.174C91.6659 114.174 92.1309 113.973 92.4235 113.571C92.7161 113.163 92.8624 112.607 92.8624 111.902C92.8624 111.196 92.7161 110.645 92.4235 110.248C92.1309 109.846 91.6685 109.645 91.0364 109.645C90.4042 109.645 89.9366 109.846 89.6336 110.248C89.3358 110.645 89.1869 111.196 89.1869 111.902Z" fill="#2F2E41"/>
<path d="M98.4833 109.112C99.1834 109.112 99.7111 109.216 100.066 109.425C100.427 109.629 100.607 109.987 100.607 110.499C100.607 110.828 100.516 111.102 100.333 111.322C100.15 111.536 99.8861 111.674 99.5413 111.737V111.776C99.7764 111.813 99.988 111.881 100.176 111.98C100.369 112.079 100.521 112.22 100.631 112.403C100.74 112.586 100.795 112.824 100.795 113.116C100.795 113.623 100.62 114.015 100.27 114.292C99.9253 114.569 99.4525 114.707 98.8517 114.707H96.8846V109.112H98.4833ZM98.6244 111.494C99.105 111.494 99.4342 111.418 99.6118 111.267C99.7895 111.11 99.8783 110.88 99.8783 110.577C99.8783 110.269 99.7686 110.049 99.5491 109.919C99.3349 109.783 98.9901 109.715 98.5147 109.715H97.5899V111.494H98.6244ZM97.5899 112.082V114.111H98.7184C99.2148 114.111 99.5596 114.015 99.7529 113.822C99.9462 113.628 100.043 113.375 100.043 113.061C100.043 112.769 99.941 112.534 99.7372 112.356C99.5387 112.173 99.1808 112.082 98.6636 112.082H97.5899Z" fill="#2F2E41"/>
<path d="M107.53 114.707L106.856 112.975H104.638L103.972 114.707H103.259L105.445 109.088H106.08L108.259 114.707H107.53ZM106.018 110.655C106.002 110.614 105.976 110.538 105.939 110.428C105.903 110.318 105.866 110.206 105.829 110.091C105.798 109.971 105.772 109.88 105.751 109.817C105.715 109.979 105.673 110.138 105.626 110.295C105.579 110.446 105.54 110.567 105.508 110.655L104.873 112.348H106.645L106.018 110.655Z" fill="#2F2E41"/>
<path d="M115.09 114.707H114.385V109.731H112.614C112.567 110.117 112.514 110.525 112.457 110.953C112.399 111.376 112.342 111.781 112.284 112.168C112.227 112.555 112.17 112.884 112.112 113.155C112.044 113.505 111.961 113.803 111.861 114.049C111.762 114.294 111.629 114.48 111.462 114.605C111.3 114.731 111.085 114.793 110.819 114.793C110.73 114.793 110.639 114.783 110.545 114.762C110.456 114.746 110.378 114.725 110.31 114.699V114.111C110.367 114.138 110.432 114.161 110.506 114.182C110.579 114.198 110.657 114.206 110.741 114.206C110.897 114.206 111.02 114.143 111.109 114.017C111.203 113.887 111.276 113.727 111.328 113.539C111.381 113.346 111.425 113.155 111.462 112.967C111.503 112.769 111.553 112.479 111.611 112.097C111.673 111.711 111.739 111.261 111.806 110.749C111.88 110.237 111.953 109.692 112.026 109.112H115.09V114.707Z" fill="#2F2E41"/>
<path d="M125.646 111.902C125.646 112.481 125.552 112.988 125.364 113.422C125.181 113.85 124.907 114.185 124.541 114.425C124.176 114.665 123.721 114.785 123.178 114.785C122.645 114.785 122.196 114.676 121.83 114.456C121.469 114.237 121.192 113.926 120.999 113.524C120.806 113.121 120.699 112.646 120.678 112.097H119.353V114.707H118.648V109.112H119.353V111.478H120.693C120.73 110.982 120.845 110.551 121.038 110.185C121.232 109.814 121.506 109.53 121.861 109.331C122.216 109.127 122.65 109.025 123.162 109.025C123.7 109.025 124.152 109.146 124.518 109.386C124.889 109.621 125.168 109.955 125.356 110.389C125.55 110.817 125.646 111.322 125.646 111.902ZM121.414 111.902C121.414 112.607 121.553 113.163 121.83 113.571C122.112 113.973 122.553 114.174 123.154 114.174C123.766 114.174 124.21 113.973 124.486 113.571C124.769 113.163 124.91 112.607 124.91 111.902C124.91 111.196 124.771 110.645 124.494 110.248C124.217 109.846 123.776 109.645 123.17 109.645C122.564 109.645 122.12 109.846 121.838 110.248C121.556 110.65 121.414 111.201 121.414 111.902Z" fill="#2F2E41"/>
<path d="M130.462 114.707H129.757V109.731H128.009V109.112H132.202V109.731H130.462V114.707Z" fill="#2F2E41"/>
<path d="M138.043 114.707L137.369 112.975H135.151L134.485 114.707H133.772L135.958 109.088H136.593L138.772 114.707H138.043ZM136.53 110.655C136.515 110.614 136.489 110.538 136.452 110.428C136.415 110.318 136.379 110.206 136.342 110.091C136.311 109.971 136.285 109.88 136.264 109.817C136.227 109.979 136.186 110.138 136.139 110.295C136.092 110.446 136.052 110.567 136.021 110.655L135.386 112.348H137.157L136.53 110.655Z" fill="#2F2E41"/>
<path fill-rule="evenodd" clip-rule="evenodd" d="M135.926 140.282C146.626 131.234 154.012 118.872 156.904 105.174L157.608 105.318C154.683 119.175 147.211 131.679 136.388 140.832C125.565 149.984 112.016 155.255 97.9069 155.802C83.7982 156.349 69.9454 152.14 58.564 143.849C47.1826 135.557 38.9301 123.663 35.1264 110.067L35.8193 109.868C39.5796 123.309 47.738 135.068 58.9896 143.264C70.2412 151.461 83.936 155.622 97.8838 155.081C111.832 154.54 125.227 149.33 135.926 140.282Z" fill="white"/>
<path fill-rule="evenodd" clip-rule="evenodd" d="M154.502 66.6806C149.535 54.4353 140.904 44.018 129.79 36.8565C118.677 29.695 105.626 26.1399 92.426 26.6783C79.2259 27.2167 66.5228 31.8223 56.0578 39.8639C45.5928 47.9055 37.8781 58.9895 33.971 71.5968L33.2652 71.3771C37.2174 58.6244 45.0211 47.4126 55.6068 39.2782C66.1925 31.1438 79.0422 26.4851 92.3945 25.9405C105.747 25.3959 118.948 28.9921 130.19 36.2361C141.431 43.4802 150.163 54.0177 155.187 66.4043L154.502 66.6806Z" fill="white"/>
<defs>
<linearGradient id="paint0_linear" x1="76.1919" y1="55.416" x2="76.2236" y2="50.1069" gradientUnits="userSpaceOnUse">
<stop stop-color="#FC8800"/>
<stop offset="1" stop-color="#FF3D00"/>
</linearGradient>
<linearGradient id="paint1_linear" x1="89.953" y1="60.0768" x2="93.3292" y2="56.8625" gradientUnits="userSpaceOnUse">
<stop stop-color="#28B377"/>
<stop offset="1" stop-color="#16889D"/>
</linearGradient>
<linearGradient id="paint2_linear" x1="82.2226" y1="61.0221" x2="88.0605" y2="59.2168" gradientUnits="userSpaceOnUse">
<stop stop-color="#28B377"/>
<stop offset="1" stop-color="#16889D"/>
</linearGradient>
<linearGradient id="paint3_linear" x1="82.0641" y1="45.9987" x2="83.6379" y2="43.2179" gradientUnits="userSpaceOnUse">
<stop stop-color="#28B377"/>
<stop offset="1" stop-color="#16889D"/>
</linearGradient>
<linearGradient id="paint4_linear" x1="0.744071" y1="91.6104" x2="4.61323" y2="88.4641" gradientUnits="userSpaceOnUse">
<stop stop-color="#28B377"/>
<stop offset="1" stop-color="#16889D"/>
</linearGradient>
<linearGradient id="paint5_linear" x1="15.6459" y1="85.6599" x2="19.0227" y2="82.4462" gradientUnits="userSpaceOnUse">
<stop stop-color="#28B377"/>
<stop offset="1" stop-color="#16889D"/>
</linearGradient>
<linearGradient id="paint6_linear" x1="9.21653" y1="93.3213" x2="9.67547" y2="79.1427" gradientUnits="userSpaceOnUse">
<stop stop-color="#FC8800"/>
<stop offset="1" stop-color="#FF3D00"/>
</linearGradient>
<linearGradient id="paint7_linear" x1="8.02326" y1="98.3131" x2="9.5974" y2="95.5346" gradientUnits="userSpaceOnUse">
<stop stop-color="#28B377"/>
<stop offset="1" stop-color="#16889D"/>
</linearGradient>
<linearGradient id="paint8_linear" x1="96.9109" y1="89.9747" x2="197.128" y2="95.9595" gradientUnits="userSpaceOnUse">
<stop stop-color="#FC8800"/>
<stop offset="1" stop-color="#FF3D00"/>
</linearGradient>
<linearGradient id="paint9_linear" x1="96.9109" y1="89.9747" x2="197.128" y2="95.9595" gradientUnits="userSpaceOnUse">
<stop stop-color="#FC8800"/>
<stop offset="1" stop-color="#FF3D00"/>
</linearGradient>
<linearGradient id="paint10_linear" x1="96.9109" y1="89.9747" x2="197.128" y2="95.9595" gradientUnits="userSpaceOnUse">
<stop stop-color="#FC8800"/>
<stop offset="1" stop-color="#FF3D00"/>
</linearGradient>
<linearGradient id="paint11_linear" x1="96.9109" y1="89.9747" x2="197.128" y2="95.9595" gradientUnits="userSpaceOnUse">
<stop stop-color="#FC8800"/>
<stop offset="1" stop-color="#FF3D00"/>
</linearGradient>
<linearGradient id="paint12_linear" x1="96.9109" y1="89.9747" x2="197.128" y2="95.9595" gradientUnits="userSpaceOnUse">
<stop stop-color="#FC8800"/>
<stop offset="1" stop-color="#FF3D00"/>
</linearGradient>
</defs>
</svg>
