<svg width="126" height="120" viewBox="0 0 126 120" fill="none" xmlns="http://www.w3.org/2000/svg">
<path d="M49.0001 33.387L49.0342 36.6093L51.6 36.5842L51.5659 33.3618L49.0001 33.387Z" fill="url(#paint0_linear)"/>
<path d="M58.9181 37.1676L58.9473 39.9184L61.5131 39.8933L61.4839 37.1425L58.9181 37.1676Z" fill="url(#paint1_linear)"/>
<path d="M53.7564 32.436L53.8477 41.0528L56.4135 41.0277L56.3222 32.4108L53.7564 32.436Z" fill="url(#paint2_linear)"/>
<path d="M53.7206 29.0251L53.7363 30.5113L56.3021 30.4861L56.2864 29L53.7206 29.0251Z" fill="url(#paint3_linear)"/>
<path d="M6.55633e-05 57.562L0.0341797 60.7844L2.59998 60.7592L2.56586 57.5368L6.55633e-05 57.562Z" fill="url(#paint4_linear)"/>
<path d="M9.84638 54.0627L9.875 56.8135L12.4408 56.7888L12.4122 54.0379L9.84638 54.0627Z" fill="url(#paint5_linear)"/>
<path d="M4.71249 53.0251L4.80371 61.642L7.36951 61.6168L7.27828 53L4.71249 53.0251Z" fill="url(#paint6_linear)"/>
<path d="M4.82338 63.5736L4.83984 65.0598L7.40566 65.0365L7.38919 63.5504L4.82338 63.5736Z" fill="url(#paint7_linear)"/>
<path d="M29.6529 53.2463V65.7807H26.5997V58.2636L23.7964 65.7807H21.3324L18.5113 58.2458V65.7807H15.458V53.2463H19.0648L22.5823 61.924L26.064 53.2463H29.6529Z" fill="#22A781"/>
<path d="M34.8483 53.2463V60.7455C34.8483 61.4954 35.0328 62.0728 35.4018 62.4775C35.7708 62.8822 36.3124 63.0846 37.0266 63.0846C37.7408 63.0846 38.2884 62.8822 38.6693 62.4775C39.0502 62.0728 39.2407 61.4954 39.2407 60.7455V53.2463H42.2939V60.7277C42.2939 61.8466 42.0558 62.7929 41.5797 63.5667C41.1036 64.3404 40.4608 64.9237 39.6513 65.3165C38.8538 65.7093 37.961 65.9057 36.973 65.9057C35.9851 65.9057 35.0982 65.7152 34.3126 65.3343C33.5389 64.9415 32.9259 64.3582 32.4735 63.5845C32.0212 62.7989 31.795 61.8466 31.795 60.7277V53.2463H34.8483Z" fill="#22A781"/>
<path d="M47.4912 63.4238H51.4908V65.7807H44.4379V53.2463H47.4912V63.4238Z" fill="#22A781"/>
<path d="M63.5679 53.2463V65.7807H60.5147V53.2463H63.5679Z" fill="#22A781"/>
<path d="M64 59.4279C64 58.1899 64.2678 57.0889 64.8035 56.1247C65.3391 55.1486 66.0831 54.3927 67.0354 53.8571C67.9996 53.3095 69.0888 53.0357 70.3029 53.0357C71.7908 53.0357 73.0645 53.4285 74.1239 54.2142C75.1833 54.9998 75.8916 56.0711 76.2487 57.4281H72.8919C72.6419 56.9044 72.2848 56.5056 71.8206 56.2318C71.3683 55.958 70.8505 55.8211 70.2672 55.8211C69.3268 55.8211 68.565 56.1485 67.9817 56.8032C67.3985 57.4579 67.1068 58.3328 67.1068 59.4279C67.1068 60.523 67.3985 61.3979 67.9817 62.0526C68.565 62.7073 69.3268 63.0347 70.2672 63.0347C70.8505 63.0347 71.3683 62.8978 71.8206 62.624C72.2848 62.3502 72.6419 61.9514 72.8919 61.4277H76.2487C75.8916 62.7847 75.1833 63.856 74.1239 64.6416C73.0645 65.4154 71.7908 65.8022 70.3029 65.8022C69.0888 65.8022 67.9996 65.5344 67.0354 64.9987C66.0831 64.4512 65.3391 63.6953 64.8035 62.7311C64.2678 61.7669 64 60.6659 64 59.4279Z" fill="url(#paint8_linear)"/>
<path d="M85.9212 63.4989H81.2432L80.4932 65.7129H77.2972L81.8324 53.1786H85.3677L89.903 65.7129H86.6712L85.9212 63.4989ZM85.1356 61.142L83.5822 56.5532L82.0467 61.142H85.1356Z" fill="url(#paint9_linear)"/>
<path d="M95.8185 65.8379C94.9019 65.8379 94.0806 65.6891 93.3545 65.3916C92.6284 65.094 92.0451 64.6535 91.6047 64.0703C91.1761 63.487 90.95 62.7847 90.9262 61.9633H94.1758C94.2234 62.4276 94.3841 62.7847 94.6579 63.0347C94.9317 63.2727 95.2888 63.3918 95.7292 63.3918C96.1816 63.3918 96.5387 63.2906 96.8005 63.0882C97.0624 62.874 97.1934 62.5823 97.1934 62.2133C97.1934 61.9038 97.0862 61.6479 96.872 61.4455C96.6696 61.2432 96.4137 61.0765 96.1042 60.9456C95.8066 60.8147 95.3781 60.6659 94.8186 60.4992C94.0092 60.2492 93.3485 59.9993 92.8367 59.7493C92.3248 59.4993 91.8844 59.1303 91.5154 58.6423C91.1464 58.1542 90.9619 57.5174 90.9619 56.7318C90.9619 55.5652 91.3844 54.6546 92.2296 53.9999C93.0747 53.3333 94.1758 53 95.5328 53C96.9136 53 98.0266 53.3333 98.8718 53.9999C99.7169 54.6546 100.169 55.5712 100.229 56.7496H96.9255C96.9017 56.3449 96.7529 56.0294 96.4791 55.8033C96.2054 55.5652 95.8542 55.4462 95.4257 55.4462C95.0567 55.4462 94.7591 55.5474 94.5329 55.7497C94.3068 55.9402 94.1937 56.2199 94.1937 56.5889C94.1937 56.9936 94.3841 57.3091 94.765 57.5352C95.146 57.7614 95.7411 58.0054 96.5506 58.2673C97.36 58.5411 98.0147 58.803 98.5147 59.0529C99.0265 59.3029 99.4669 59.666 99.8359 60.1421C100.205 60.6182 100.389 61.2313 100.389 61.9812C100.389 62.6954 100.205 63.3442 99.8359 63.9274C99.4788 64.5107 98.9551 64.9749 98.2647 65.3201C97.5743 65.6653 96.7589 65.8379 95.8185 65.8379Z" fill="url(#paint10_linear)"/>
<path d="M106.804 65.8379C105.887 65.8379 105.066 65.6891 104.34 65.3916C103.614 65.094 103.03 64.6535 102.59 64.0703C102.161 63.487 101.935 62.7847 101.911 61.9633H105.161C105.209 62.4276 105.369 62.7847 105.643 63.0347C105.917 63.2727 106.274 63.3918 106.714 63.3918C107.167 63.3918 107.524 63.2906 107.786 63.0882C108.048 62.874 108.179 62.5823 108.179 62.2133C108.179 61.9038 108.071 61.6479 107.857 61.4455C107.655 61.2432 107.399 61.0765 107.089 60.9456C106.792 60.8147 106.363 60.6659 105.804 60.4992C104.994 60.2492 104.334 59.9993 103.822 59.7493C103.31 59.4993 102.87 59.1303 102.501 58.6423C102.132 58.1542 101.947 57.5174 101.947 56.7318C101.947 55.5652 102.37 54.6546 103.215 53.9999C104.06 53.3333 105.161 53 106.518 53C107.899 53 109.012 53.3333 109.857 53.9999C110.702 54.6546 111.154 55.5712 111.214 56.7496H107.911C107.887 56.3449 107.738 56.0294 107.464 55.8033C107.191 55.5652 106.839 55.4462 106.411 55.4462C106.042 55.4462 105.744 55.5474 105.518 55.7497C105.292 55.9402 105.179 56.2199 105.179 56.5889C105.179 56.9936 105.369 57.3091 105.75 57.5352C106.131 57.7614 106.726 58.0054 107.536 58.2673C108.345 58.5411 109 58.803 109.5 59.0529C110.012 59.3029 110.452 59.666 110.821 60.1421C111.19 60.6182 111.375 61.2313 111.375 61.9812C111.375 62.6954 111.19 63.3442 110.821 63.9274C110.464 64.5107 109.94 64.9749 109.25 65.3201C108.559 65.6653 107.744 65.8379 106.804 65.8379Z" fill="url(#paint11_linear)"/>
<path d="M121.056 63.4989H116.378L115.628 65.7129H112.432L116.968 53.1786H120.503L125.038 65.7129H121.806L121.056 63.4989ZM120.271 61.142L118.717 56.5532L117.182 61.142H120.271Z" fill="url(#paint12_linear)"/>
<path d="M66.6231 49.2193V65.7807H63.5178V49.2193H66.6231Z" fill="#9ECEC0"/>
<path d="M63.5179 49.2193V65.7807H60.4126V49.2193H63.5179Z" fill="#22A781"/>
<path d="M63.5177 40.4211V45.3702H56.7811V65.7807H50.5877V45.3702H43.8511V40.4211H63.5177Z" fill="#22A781"/>
<path d="M66.6232 40.4211V45.3702H59.8866V65.7807H53.6932V45.3702H46.9565V40.4211H66.6232Z" fill="#9ECEC0"/>
<path d="M37.6964 75.7522H37.1375L35.4658 73.8787V75.7522H35V72.0569H35.4658V73.8476L37.0961 72.0569H37.6239L36.0196 73.8528L37.6964 75.7522Z" fill="#2F2E41"/>
<path d="M40.523 72.0569C41.0061 72.0569 41.358 72.1518 41.5788 72.3416C41.7997 72.5313 41.9101 72.7987 41.9101 73.1438C41.9101 73.3473 41.8635 73.5388 41.7703 73.7182C41.6806 73.8942 41.5271 74.0374 41.3097 74.1478C41.0958 74.2582 40.8042 74.3134 40.4351 74.3134H40.0107V75.7522H39.5449V72.0569H40.523ZM40.4816 72.4554H40.0107V73.9149H40.3833C40.7352 73.9149 40.9975 73.858 41.17 73.7441C41.3425 73.6303 41.4287 73.437 41.4287 73.1645C41.4287 72.9264 41.3528 72.7487 41.201 72.6314C41.0492 72.5141 40.8094 72.4554 40.4816 72.4554Z" fill="#2F2E41"/>
<path d="M44.0292 72.0569H44.464V74.0857C44.464 74.1996 44.4623 74.3272 44.4588 74.4687C44.4554 74.6101 44.4502 74.7395 44.4433 74.8568C44.4398 74.9742 44.4347 75.0604 44.4278 75.1156H44.4485L46.4824 72.0569H46.9999V75.7522H46.5652V73.7441C46.5652 73.6165 46.5669 73.4802 46.5704 73.3353C46.5773 73.1904 46.5842 73.0575 46.5911 72.9368C46.598 72.816 46.6032 72.7297 46.6066 72.678H46.5859L44.5468 75.7522H44.0292V72.0569Z" fill="#2F2E41"/>
<path d="M49.3422 75.7522V72.0569H52.1163V75.7522H51.6557V72.4658H49.808V75.7522H49.3422Z" fill="#2F2E41"/>
<path d="M55.643 75.7522H55.1773V72.4658H54.0231V72.0569H56.792V72.4658H55.643V75.7522Z" fill="#2F2E41"/>
<path d="M61.818 73.8994C61.818 74.2824 61.7525 74.617 61.6214 74.9034C61.4937 75.1863 61.3039 75.4072 61.0521 75.5659C60.8002 75.7246 60.4879 75.8039 60.1153 75.8039C59.7323 75.8039 59.4132 75.7246 59.1579 75.5659C58.906 75.4072 58.7179 75.1846 58.5937 74.8982C58.4695 74.6119 58.4074 74.2772 58.4074 73.8942C58.4074 73.5147 58.4695 73.1835 58.5937 72.9005C58.7179 72.6176 58.906 72.3968 59.1579 72.2381C59.4132 72.0794 59.7341 72 60.1205 72C60.4897 72 60.8002 72.0794 61.0521 72.2381C61.3039 72.3933 61.4937 72.6142 61.6214 72.9005C61.7525 73.1835 61.818 73.5164 61.818 73.8994ZM58.8991 73.8994C58.8991 74.3652 58.9974 74.7326 59.1941 75.0018C59.3908 75.2674 59.6978 75.4003 60.1153 75.4003C60.5363 75.4003 60.8433 75.2674 61.0365 75.0018C61.2298 74.7326 61.3264 74.3652 61.3264 73.8994C61.3264 73.4336 61.2298 73.0696 61.0365 72.8074C60.8433 72.5417 60.538 72.4089 60.1205 72.4089C59.703 72.4089 59.3942 72.5417 59.1941 72.8074C58.9974 73.0696 58.8991 73.4336 58.8991 73.8994Z" fill="#2F2E41"/>
<path d="M65.0385 72.0569C65.5008 72.0569 65.8493 72.1259 66.0839 72.2639C66.322 72.3985 66.441 72.6349 66.441 72.973C66.441 73.1904 66.3806 73.3715 66.2599 73.5164C66.1391 73.6579 65.9649 73.7493 65.7371 73.7907V73.8166C65.8924 73.8407 66.0321 73.8856 66.1563 73.9511C66.284 74.0167 66.3841 74.1099 66.4565 74.2306C66.529 74.3514 66.5652 74.5084 66.5652 74.7016C66.5652 75.0363 66.4496 75.295 66.2185 75.4779C65.9907 75.6608 65.6785 75.7522 65.2817 75.7522H63.9827V72.0569H65.0385ZM65.1316 73.6303C65.449 73.6303 65.6664 73.5802 65.7837 73.4802C65.901 73.3767 65.9597 73.2249 65.9597 73.0247C65.9597 72.8212 65.8872 72.6763 65.7423 72.59C65.6009 72.5003 65.3731 72.4554 65.0592 72.4554H64.4485V73.6303H65.1316ZM64.4485 74.0184V75.3589H65.1937C65.5215 75.3589 65.7492 75.295 65.8769 75.1674C66.0045 75.0397 66.0684 74.8724 66.0684 74.6654C66.0684 74.4721 66.0011 74.3169 65.8665 74.1996C65.7354 74.0788 65.4991 74.0184 65.1575 74.0184H64.4485Z" fill="#2F2E41"/>
<path d="M71.0129 75.7522L70.5678 74.6084H69.1032L68.6633 75.7522H68.1923L69.6363 72.0414H70.0555L71.4942 75.7522H71.0129ZM70.0141 73.0765C70.0037 73.0489 69.9865 72.9989 69.9623 72.9264C69.9382 72.8539 69.914 72.7798 69.8899 72.7039C69.8692 72.6245 69.8519 72.5641 69.8381 72.5227C69.814 72.6297 69.7864 72.7349 69.7553 72.8384C69.7242 72.9385 69.6984 73.0178 69.6777 73.0765L69.2585 74.1944H70.4281L70.0141 73.0765Z" fill="#2F2E41"/>
<path d="M76.0055 75.7522H75.5397V72.4658H74.3701C74.339 72.7211 74.3045 72.9902 74.2666 73.2732C74.2286 73.5526 74.1907 73.82 74.1527 74.0754C74.1148 74.3307 74.0768 74.548 74.0389 74.7275C73.994 74.9586 73.9388 75.1553 73.8733 75.3175C73.8077 75.4796 73.7197 75.6021 73.6093 75.6849C73.5023 75.7677 73.3609 75.8091 73.1849 75.8091C73.1263 75.8091 73.0659 75.8022 73.0038 75.7884C72.9451 75.7781 72.8934 75.7643 72.8485 75.747V75.3589C72.8865 75.3761 72.9296 75.3916 72.9779 75.4054C73.0262 75.4158 73.078 75.421 73.1332 75.421C73.2367 75.421 73.3178 75.3796 73.3764 75.2968C73.4385 75.2105 73.4868 75.1053 73.5213 74.9811C73.5558 74.8534 73.5852 74.7275 73.6093 74.6032C73.6369 74.4721 73.6697 74.2806 73.7076 74.0288C73.749 73.7735 73.7922 73.4767 73.837 73.1386C73.8853 72.8005 73.9336 72.4399 73.9819 72.0569H76.0055V75.7522Z" fill="#2F2E41"/>
<path d="M82.9769 73.8994C82.9769 74.2824 82.9148 74.617 82.7906 74.9034C82.6698 75.1863 82.4887 75.4072 82.2472 75.5659C82.0056 75.7246 81.7055 75.8039 81.3466 75.8039C80.9947 75.8039 80.698 75.7315 80.4565 75.5866C80.2184 75.4417 80.0355 75.2364 79.9079 74.9707C79.7802 74.705 79.7095 74.3911 79.6957 74.0288H78.821V75.7522H78.3552V72.0569H78.821V73.6199H79.706C79.7302 73.2921 79.8061 73.0075 79.9337 72.766C80.0614 72.521 80.2425 72.333 80.4772 72.2018C80.7118 72.0673 80.9981 72 81.3363 72C81.6917 72 81.9901 72.0794 82.2316 72.2381C82.4766 72.3933 82.6612 72.6142 82.7854 72.9005C82.9131 73.1835 82.9769 73.5164 82.9769 73.8994ZM80.1822 73.8994C80.1822 74.3652 80.2736 74.7326 80.4565 75.0018C80.6428 75.2674 80.9343 75.4003 81.3311 75.4003C81.7348 75.4003 82.0281 75.2674 82.2109 75.0018C82.3972 74.7326 82.4904 74.3652 82.4904 73.8994C82.4904 73.4336 82.399 73.0696 82.2161 72.8074C82.0332 72.5417 81.7417 72.4089 81.3415 72.4089C80.9412 72.4089 80.6479 72.5417 80.4616 72.8074C80.2753 73.073 80.1822 73.437 80.1822 73.8994Z" fill="#2F2E41"/>
<path d="M86.1571 75.7522H85.6913V72.4658H84.5372V72.0569H87.3061V72.4658H86.1571V75.7522Z" fill="#2F2E41"/>
<path d="M91.1636 75.7522L90.7185 74.6084H89.2539L88.8139 75.7522H88.343L89.7869 72.0414H90.2061L91.6449 75.7522H91.1636ZM90.1647 73.0765C90.1544 73.0489 90.1371 72.9989 90.113 72.9264C90.0888 72.8539 90.0647 72.7798 90.0405 72.7039C90.0198 72.6245 90.0026 72.5641 89.9888 72.5227C89.9646 72.6297 89.937 72.7349 89.906 72.8384C89.8749 72.9385 89.849 73.0178 89.8283 73.0765L89.4091 74.1944H90.5788L90.1647 73.0765Z" fill="#2F2E41"/>
<path fill-rule="evenodd" clip-rule="evenodd" d="M89.7656 92.642C96.8317 86.6669 101.71 78.5032 103.619 69.4566L104.084 69.5521C102.153 78.7032 97.2182 86.961 90.0706 93.005C82.923 99.0491 73.975 102.53 64.6576 102.891C55.3403 103.252 46.1919 100.473 38.6756 94.9975C31.1593 89.522 25.7094 81.6667 23.1974 72.6879L23.655 72.5566C26.1383 81.4329 31.5261 89.1987 38.9567 94.6118C46.3872 100.025 55.4313 102.773 64.6424 102.415C73.8535 102.058 82.6995 98.6171 89.7656 92.642Z" fill="url(#paint13_linear)"/>
<path fill-rule="evenodd" clip-rule="evenodd" d="M102.033 44.0358C98.7529 35.949 93.0526 29.0695 85.7134 24.34C78.3742 19.6106 69.7553 17.2628 61.038 17.6183C52.3206 17.9739 43.9315 21.0154 37.0205 26.3261C30.1094 31.6368 25.0146 38.9566 22.4343 47.2825L21.9682 47.1374C24.5783 38.7155 29.7318 31.3112 36.7226 25.9393C43.7134 20.5674 52.1993 17.4907 61.0172 17.1311C69.8351 16.7714 78.5534 19.1463 85.9773 23.9303C93.4011 28.7143 99.1672 35.6733 102.485 43.8533L102.033 44.0358Z" fill="url(#paint14_linear)"/>
<defs>
<linearGradient id="paint0_linear" x1="50.3171" y1="36.5968" x2="50.338" y2="33.0906" gradientUnits="userSpaceOnUse">
<stop stop-color="#FC8800"/>
<stop offset="1" stop-color="#FF3D00"/>
</linearGradient>
<linearGradient id="paint1_linear" x1="59.4049" y1="39.6747" x2="61.6346" y2="37.552" gradientUnits="userSpaceOnUse">
<stop stop-color="#28B377"/>
<stop offset="1" stop-color="#16889D"/>
</linearGradient>
<linearGradient id="paint2_linear" x1="54.2999" y1="40.299" x2="58.1552" y2="39.1068" gradientUnits="userSpaceOnUse">
<stop stop-color="#28B377"/>
<stop offset="1" stop-color="#16889D"/>
</linearGradient>
<linearGradient id="paint3_linear" x1="54.1951" y1="30.3776" x2="55.2344" y2="28.5411" gradientUnits="userSpaceOnUse">
<stop stop-color="#28B377"/>
<stop offset="1" stop-color="#16889D"/>
</linearGradient>
<linearGradient id="paint4_linear" x1="0.491383" y1="60.4996" x2="3.04657" y2="58.4218" gradientUnits="userSpaceOnUse">
<stop stop-color="#28B377"/>
<stop offset="1" stop-color="#16889D"/>
</linearGradient>
<linearGradient id="paint5_linear" x1="10.3327" y1="56.5698" x2="12.5627" y2="54.4475" gradientUnits="userSpaceOnUse">
<stop stop-color="#28B377"/>
<stop offset="1" stop-color="#16889D"/>
</linearGradient>
<linearGradient id="paint6_linear" x1="6.08661" y1="61.6294" x2="6.38969" y2="52.2659" gradientUnits="userSpaceOnUse">
<stop stop-color="#FC8800"/>
<stop offset="1" stop-color="#FF3D00"/>
</linearGradient>
<linearGradient id="paint7_linear" x1="5.29859" y1="64.9264" x2="6.33815" y2="63.0914" gradientUnits="userSpaceOnUse">
<stop stop-color="#28B377"/>
<stop offset="1" stop-color="#16889D"/>
</linearGradient>
<linearGradient id="paint8_linear" x1="64" y1="59.419" x2="130.183" y2="63.3713" gradientUnits="userSpaceOnUse">
<stop stop-color="#FC8800"/>
<stop offset="1" stop-color="#FF3D00"/>
</linearGradient>
<linearGradient id="paint9_linear" x1="64" y1="59.419" x2="130.183" y2="63.3713" gradientUnits="userSpaceOnUse">
<stop stop-color="#FC8800"/>
<stop offset="1" stop-color="#FF3D00"/>
</linearGradient>
<linearGradient id="paint10_linear" x1="64" y1="59.419" x2="130.183" y2="63.3713" gradientUnits="userSpaceOnUse">
<stop stop-color="#FC8800"/>
<stop offset="1" stop-color="#FF3D00"/>
</linearGradient>
<linearGradient id="paint11_linear" x1="64" y1="59.419" x2="130.183" y2="63.3713" gradientUnits="userSpaceOnUse">
<stop stop-color="#FC8800"/>
<stop offset="1" stop-color="#FF3D00"/>
</linearGradient>
<linearGradient id="paint12_linear" x1="64" y1="59.419" x2="130.183" y2="63.3713" gradientUnits="userSpaceOnUse">
<stop stop-color="#FC8800"/>
<stop offset="1" stop-color="#FF3D00"/>
</linearGradient>
<linearGradient id="paint13_linear" x1="9209.78" y1="10694.2" x2="-417.245" y2="14015.3" gradientUnits="userSpaceOnUse">
<stop stop-color="#28B377"/>
<stop offset="1" stop-color="#16889D"/>
</linearGradient>
<linearGradient id="paint14_linear" x1="97.4416" y1="25.6328" x2="21.8129" y2="46.5735" gradientUnits="userSpaceOnUse">
<stop stop-color="#28B377"/>
<stop offset="1" stop-color="#16889D"/>
</linearGradient>
</defs>
</svg>
