<svg width="14" height="11" viewBox="0 0 14 11" fill="none" xmlns="http://www.w3.org/2000/svg">
<path d="M0.700562 0.235596H13.3005C13.5583 0.235596 13.7672 0.445869 13.7672 0.705264V10.0984C13.7672 10.3578 13.5583 10.5681 13.3005 10.5681H0.700562C0.44282 10.5681 0.233887 10.3578 0.233887 10.0984V0.705237C0.233887 0.445869 0.44282 0.235596 0.700562 0.235596Z" fill="#2E987A"/>
<path d="M13.0668 0.704168V10.0974C13.066 10.3564 12.8575 10.5663 12.6001 10.567H0.70009C0.676765 10.567 0.653414 10.5647 0.63009 10.5623C0.62309 10.56 0.613765 10.56 0.606765 10.5576C0.583605 10.5527 0.560937 10.5456 0.53909 10.5365H0.536765C0.511582 10.5271 0.487355 10.5153 0.464441 10.5013C0.443304 10.4885 0.423043 10.4744 0.403765 10.459L0.39909 10.4543C0.294199 10.3658 0.23355 10.2351 0.233414 10.0973V0.704168C0.232484 0.590515 0.274156 0.480686 0.35009 0.396532C0.361765 0.384782 0.373414 0.370692 0.387414 0.358969C0.471906 0.278668 0.583851 0.234114 0.70009 0.2345H12.6001C12.8575 0.235298 13.066 0.445103 13.0668 0.704168Z" fill="#2E987A"/>
<path d="M13.067 0.896748V0.704197C13.0662 0.445132 12.8577 0.235298 12.6003 0.234528H13.3003C13.4348 0.234555 13.5627 0.293721 13.6503 0.39656L13.067 0.896748Z" fill="#83E1C6"/>
<path d="M13.067 0.704171V0.896722L8.43067 4.88179L7.45066 5.72484C7.19052 5.9456 6.81016 5.9456 6.54999 5.72484L5.56767 4.88179L0.350342 0.396563C0.362018 0.384812 0.373666 0.370722 0.387666 0.358999C0.472158 0.278698 0.584103 0.234145 0.700342 0.23453H12.6003C12.8578 0.235301 13.0663 0.445106 13.067 0.704171Z" fill="#83E1C6"/>
<path d="M13.6016 10.4546C13.5179 10.5273 13.4111 10.5673 13.3006 10.5673H12.6006C12.858 10.5666 13.0665 10.3567 13.0673 10.0977V9.87927L13.6016 10.4546Z" fill="#83E1C6"/>
<path d="M13.0667 9.8793V10.0977C13.0659 10.3568 12.8574 10.5666 12.6 10.5674H0.699927C0.676603 10.5674 0.653251 10.565 0.629927 10.5627C0.622927 10.5603 0.613602 10.5603 0.606602 10.558C0.583442 10.5531 0.560774 10.546 0.538926 10.5368H0.536602C0.511418 10.5275 0.487192 10.5157 0.464278 10.5016C0.443141 10.4889 0.422879 10.4747 0.403602 10.4593L0.398926 10.4546L5.56727 4.88211L6.5496 5.72516C6.80975 5.94592 7.1901 5.94592 7.45028 5.72516L8.43028 4.88211L13.0667 9.8793Z" fill="#83E1C6"/>
<path d="M13.3 0H0.7C0.313414 0 0 0.315424 0 0.704489V10.0977C0 10.4867 0.313414 10.8022 0.7 10.8022H13.3C13.6866 10.8022 14 10.4867 14 10.0977V0.704489C14 0.315424 13.6866 0 13.3 0ZM13.5333 10.0977C13.5333 10.2274 13.4289 10.3325 13.3 10.3325H0.7C0.571129 10.3325 0.466676 10.2274 0.466676 10.0977V0.704489C0.466676 0.574791 0.571156 0.469669 0.7 0.469669H13.3C13.4289 0.469669 13.5333 0.574819 13.5333 0.704489V10.0977Z" fill="black"/>
<path d="M13.0124 1.02318C12.9726 0.975459 12.9156 0.945629 12.854 0.940207C12.7923 0.934786 12.731 0.954242 12.6836 0.99431L7.30059 5.54529C7.12699 5.69216 6.87359 5.69216 6.69998 5.54529L1.31699 0.994282C1.25314 0.940345 1.16553 0.924769 1.08719 0.953444C1.00885 0.982119 0.951644 1.0507 0.937152 1.13334C0.92266 1.21598 0.953066 1.3001 1.01691 1.35404L6.39994 5.9048C6.74688 6.19878 7.25372 6.19878 7.60069 5.9048L12.9837 1.35407C13.0311 1.31403 13.0607 1.25668 13.0661 1.19462C13.0715 1.13254 13.0522 1.0709 13.0124 1.02318Z" fill="black"/>
<path d="M4.26325 5.94542L0.996565 9.46787C0.937448 9.5288 0.915737 9.61719 0.939854 9.69881C0.963971 9.78046 1.03012 9.84254 1.11269 9.86109C1.1953 9.87964 1.28138 9.85174 1.33771 9.78817L4.60439 6.26572C4.6635 6.20479 4.68522 6.1164 4.6611 6.03478C4.63698 5.95313 4.57084 5.89104 4.48826 5.8725C4.40568 5.85395 4.31957 5.88185 4.26325 5.94542Z" fill="black"/>
<path d="M9.73761 5.94542C9.68131 5.88185 9.59521 5.85395 9.5126 5.8725C9.42999 5.89104 9.36387 5.95315 9.33976 6.03478C9.31564 6.11642 9.33735 6.20479 9.39647 6.26572L12.6632 9.78816C12.7518 9.87947 12.8966 9.88288 12.9893 9.79581C13.082 9.70874 13.0887 9.56311 13.0043 9.46784L9.73761 5.94542Z" fill="black"/>
</svg>
