<svg width="100" height="100" viewBox="0 0 100 100" fill="none" xmlns="http://www.w3.org/2000/svg">
<path d="M60.1586 50.8169C59.4041 49.9169 58.2329 49.2627 56.6356 48.8545C57.3695 48.5751 57.9958 48.2444 58.5143 47.8623C58.9997 47.5127 59.4274 47.0894 59.7821 46.6079C60.1046 46.1639 60.3482 45.6677 60.5021 45.141C60.6551 44.6102 60.7319 44.0603 60.7302 43.5079C60.7302 42.4689 60.5642 41.5238 60.2324 40.6726C59.8957 39.8139 59.3445 39.0558 58.6312 38.4707C57.8918 37.8526 56.9308 37.3583 55.7482 36.9878C55.3302 36.8591 54.9057 36.7528 54.4764 36.6692V32.5354L51.3159 32.3768V36.3254L48.6444 36.2231V32.2425L45.3693 32.0796V36.099L41.8511 35.9642L40.5454 35.9157V38.1177L41.8511 38.1594V60.466L40.5454 60.5092V62.7116L41.8511 62.6597L45.3693 62.5206V66.091L48.6429 65.9266V62.3906L51.3144 62.2844V65.7927L54.475 65.6342V61.977C55.034 61.8645 55.5829 61.7069 56.1164 61.5057C57.2531 61.0722 58.2036 60.4966 58.9679 59.7789C59.7142 59.0871 60.304 58.244 60.6977 57.3059C61.0928 56.3532 61.2921 55.3307 61.2838 54.2995C61.2838 52.8726 60.9087 51.7117 60.1586 50.8169ZM55.1237 44.1155C55.1237 44.7381 55.0309 45.2539 54.8452 45.6628C54.6732 46.0559 54.3905 46.3905 54.0315 46.6258C53.6757 46.8595 53.2408 47.0212 52.7268 47.1107C52.1525 47.2071 51.5707 47.2514 50.9884 47.2431L47.9151 47.2261V40.7488L51.3688 40.8346C52.0234 40.8507 52.5874 40.9178 53.0606 41.0358C53.5339 41.1538 53.922 41.3399 54.2251 41.5939C54.5373 41.8577 54.772 42.201 54.9044 42.5875C55.0506 42.9958 55.1237 43.5051 55.1237 44.1155ZM55.6123 55.4841C55.5117 55.8827 55.3216 56.2532 55.0563 56.5674C54.7858 56.8907 54.4103 57.1585 53.9296 57.3709C53.449 57.5833 52.825 57.6996 52.0577 57.72L47.9151 57.8277V51.296L52.0233 51.2693C52.7553 51.2644 53.3595 51.3312 53.836 51.4696C54.3125 51.6079 54.6938 51.8048 54.9801 52.0602C55.2653 52.3133 55.4753 52.6399 55.5871 53.0043C55.71 53.4141 55.7696 53.8402 55.7637 54.268C55.7637 54.678 55.7129 55.0865 55.6123 55.4841Z" stroke="black"/>
<circle cx="50.5" cy="49.5" r="35" stroke="black" stroke-width="3"/>
<circle cx="50.4999" cy="49.5" r="27.5341" stroke="black" stroke-width="3"/>
</svg>
