<svg width="100" height="100" viewBox="0 0 100 100" fill="none" xmlns="http://www.w3.org/2000/svg">
<path d="M54.9834 48.9482L56.4578 48.3871C57.1583 48.1206 57.7426 47.8099 58.2177 47.4598L58.222 47.4566L58.222 47.4566C58.6647 47.1378 59.0549 46.7518 59.3785 46.3128C59.6666 45.9158 59.8843 45.4723 60.022 45.0016C60.1617 44.5165 60.2318 44.0142 60.2302 43.5095L60.2302 43.5079C60.2302 42.5229 60.0731 41.6408 59.7669 40.8551L54.9834 48.9482ZM54.9834 48.9482L56.5118 49.3389C58.0467 49.7312 59.1101 50.3445 59.7755 51.1381C60.4344 51.9241 60.7838 52.963 60.7838 54.2995L60.7838 54.3035C60.7916 55.2674 60.6053 56.223 60.2362 57.1135C59.87 57.9854 59.3218 58.7692 58.628 59.4122L58.6257 59.4144C57.916 60.0807 57.0242 60.6242 55.9393 61.0381C55.4313 61.2297 54.9086 61.3797 54.3764 61.4868L53.975 61.5676V61.977V65.1586L51.8144 65.267M54.9834 48.9482L51.8144 65.267M51.8144 65.267V62.2844V61.7642L51.2946 61.7848L48.623 61.891L48.1429 61.9101V62.3906V65.451L45.8693 65.5652V62.5206V62.0004L45.3495 62.021L41.8313 62.1601L41.8312 62.1601L41.0454 62.1914V60.9929L41.8676 60.9658L42.3511 60.9498V60.466V38.1594V37.6751L41.867 37.6596L41.0454 37.6334V36.4346L41.8319 36.4638L41.8325 36.4638L45.3501 36.5986L45.8693 36.6185V36.099V32.6051L48.1444 32.7183V36.2231V36.7043L48.6252 36.7228L51.2967 36.8251L51.8159 36.8449V36.3254V32.9026L53.9764 33.0109V36.6692V37.0813L54.3809 37.16C54.7924 37.2401 55.1993 37.342 55.5999 37.4653C56.7364 37.8215 57.6339 38.2887 58.3105 38.8543L58.3105 38.8543L58.3141 38.8572C58.961 39.388 59.4611 40.0755 59.7665 40.8543L51.8144 65.267ZM52.071 58.2198L52.0707 58.2198L47.9281 58.3275L47.4151 58.3408V57.8277V51.296V50.7992L47.9119 50.796L52.02 50.7693H52.02L52.071 58.2198ZM52.071 58.2198C52.876 58.1985 53.5707 58.0761 54.1317 57.8282C54.6652 57.5925 55.1089 57.2835 55.439 56.8891C55.7529 56.5171 55.978 56.0786 56.097 55.6067C56.2074 55.1702 56.2634 54.7216 56.2637 54.2714C56.2699 53.7938 56.2033 53.3181 56.066 52.8606L56.0651 52.8576C55.9264 52.4057 55.666 52.0006 55.3125 51.6866L52.071 58.2198ZM52.8096 47.6038L52.8096 47.6038L52.8126 47.6033C53.3792 47.5046 53.8817 47.3224 54.306 47.0437C54.745 46.7559 55.091 46.3469 55.3019 45.8664C55.5251 45.3732 55.6237 44.7822 55.6237 44.1155C55.6237 43.4707 55.5472 42.901 55.3763 42.4222C55.2144 41.9515 54.9281 41.5333 54.5478 41.212L54.5463 41.2108C54.1731 40.8979 53.7116 40.6828 53.1816 40.5507C52.6631 40.4214 52.0609 40.3515 51.3812 40.3347C51.3811 40.3347 51.3811 40.3347 51.3811 40.3347L47.9275 40.2489L47.4151 40.2362V40.7488V47.2261V47.7234L47.9123 47.7261L50.9834 47.7431C51.5951 47.7517 52.2063 47.7051 52.8096 47.6038Z" stroke="black"/>
<circle cx="50.5" cy="49.5" r="35" stroke="black" stroke-width="3"/>
<circle cx="50.4999" cy="49.5" r="27.5341" stroke="black" stroke-width="3"/>
</svg>
