<svg width="14" height="14" viewBox="0 0 14 14" fill="none" xmlns="http://www.w3.org/2000/svg">
<path d="M13.6831 11.791L12.9715 12.9762C12.8515 13.1775 12.6851 13.347 12.4863 13.4709C12.3728 13.5424 12.2494 13.5966 12.12 13.6319C10.9395 13.9562 8.33356 14.0238 4.1575 9.84517C-0.0185685 5.66649 0.0467461 3.06269 0.37105 1.88211C0.406318 1.75273 0.460561 1.62928 0.532027 1.51581C0.655876 1.31693 0.825437 1.15055 1.02663 1.03053L2.21178 0.318905C2.48242 0.156851 2.83258 0.235923 3.00734 0.498566L4.03619 2.03845L4.89706 3.33102C5.06728 3.58932 5.01154 3.93494 4.76876 4.12664L4.48412 4.34829L3.70724 4.95025C3.4786 5.12884 3.41249 5.44653 3.55094 5.70151C3.86357 6.26147 4.15752 6.92174 5.61796 8.38463C7.07839 9.84752 7.74097 10.1392 8.30089 10.4518C8.55586 10.5902 8.87352 10.5241 9.0521 10.2955L9.65402 9.51854L9.87566 9.23389C10.0673 8.99107 10.4129 8.93535 10.6712 9.10558L12.0033 9.99451L13.5035 10.9954C13.7661 11.1701 13.8451 11.5204 13.6831 11.791Z" fill="#2E987A"/>
<path d="M13.2155 12.2571L12.5039 13.4423C12.4969 13.4516 12.4923 13.461 12.4853 13.4703C12.3718 13.5418 12.2484 13.596 12.119 13.6313C10.9385 13.9556 8.33254 14.0233 4.15649 9.84459C-0.0195683 5.66591 0.0457736 3.06214 0.370077 1.88156C0.405345 1.75218 0.459587 1.62873 0.531053 1.51526C0.540376 1.50826 0.549726 1.50359 0.559049 1.49659L1.7442 0.784969C2.01483 0.622915 2.365 0.701987 2.53975 0.964631L3.5686 2.50451L4.42947 3.79709C4.59761 4.05585 4.54211 4.39994 4.30117 4.5927L3.51961 5.19933L3.23965 5.41631C3.01049 5.59458 2.9443 5.9127 3.08335 6.16758C3.39598 6.72753 3.68994 7.38781 5.15037 8.85069C6.6108 10.3136 7.27338 10.6052 7.83329 10.9179C8.08818 11.0569 8.40625 10.9907 8.58451 10.7615L8.80147 10.4816L9.40806 9.69995C9.60081 9.45896 9.94487 9.40349 10.2036 9.57164L11.5357 10.4606L13.0358 11.4615C13.2985 11.6362 13.3775 11.9865 13.2155 12.2571Z" fill="#83E1C6"/>
<path d="M11.0839 14C11.4541 14.0015 11.8229 13.9534 12.1804 13.8567C12.5963 13.7401 12.9508 13.4669 13.1695 13.0945L13.882 11.9102C14.109 11.5331 13.9991 11.0442 13.6327 10.8005L10.799 8.91067C10.4394 8.67277 9.95735 8.75105 9.69153 9.09055L8.86612 10.1519C8.76001 10.2918 8.56721 10.3324 8.41375 10.2471L8.25674 10.1605C7.73625 9.87681 7.08863 9.52359 5.78378 8.21819C4.47894 6.91279 4.12503 6.26463 3.84133 5.74505L3.75523 5.58803C3.66881 5.43459 3.70862 5.24093 3.84854 5.134L4.90913 4.30877C5.24847 4.04287 5.32686 3.56095 5.08925 3.20122L3.19953 0.367364C2.95596 0.00104061 2.4674 -0.108927 2.09041 0.117707L0.905482 0.829547C0.53317 1.04844 0.260019 1.40296 0.143306 1.81879C-0.283385 3.3736 0.0376105 6.05697 3.99016 10.0103C7.13434 13.1544 9.47503 14 11.0839 14ZM0.593345 1.94224C0.678535 1.64236 0.87642 1.38702 1.14555 1.22969L2.33048 0.518782C2.49405 0.420352 2.7061 0.468063 2.81177 0.627027L3.83829 2.1683L4.69988 3.46063C4.80306 3.61667 4.76915 3.82581 4.62196 3.94127L3.56115 4.7665C3.23832 5.01336 3.14613 5.46005 3.34489 5.81456L3.42913 5.96762C3.72729 6.5145 4.09799 7.19484 5.45136 8.54809C6.80473 9.90134 7.48481 10.2721 8.03141 10.5702L8.18467 10.6547C8.53916 10.8534 8.98581 10.7613 9.23266 10.4384L10.0578 9.37753C10.1733 9.2304 10.3823 9.19653 10.5384 9.29961L13.3718 11.1895C13.5309 11.2951 13.5786 11.5072 13.4801 11.6708L12.7692 12.8558C12.6121 13.1246 12.3571 13.3223 12.0576 13.4074C10.6224 13.8014 8.1149 13.475 4.32029 9.68015C0.525679 5.88526 0.199298 3.37782 0.593345 1.94224Z" fill="black"/>
<path d="M7.93349 2.33417C10.1229 2.3366 11.8971 4.11099 11.8996 6.30053C11.8996 6.4294 12.004 6.53384 12.1329 6.53384C12.2617 6.53384 12.3661 6.42937 12.3661 6.30053C12.3634 3.85338 10.3804 1.87023 7.93349 1.86755C7.80463 1.86755 7.7002 1.972 7.7002 2.10086C7.7002 2.22969 7.80463 2.33417 7.93349 2.33417Z" fill="black"/>
<path d="M7.93349 3.73407C9.35012 3.73573 10.4981 4.88381 10.4998 6.30053C10.4998 6.4294 10.6042 6.53384 10.7331 6.53384C10.8619 6.53384 10.9664 6.42937 10.9664 6.30053C10.9644 4.62619 9.60769 3.26937 7.93349 3.26746C7.80463 3.26746 7.7002 3.37193 7.7002 3.50076C7.7002 3.62959 7.80463 3.73407 7.93349 3.73407Z" fill="black"/>
<path d="M7.93349 5.134C8.5774 5.13477 9.09921 5.65661 9.1 6.30059C9.1 6.42945 9.20444 6.53389 9.3333 6.53389C9.46215 6.53389 9.56659 6.42942 9.56659 6.30059C9.56555 5.39902 8.835 4.6684 7.93349 4.66739C7.80463 4.66739 7.7002 4.77186 7.7002 4.9007C7.7002 5.02953 7.80463 5.134 7.93349 5.134Z" fill="black"/>
</svg>
