<svg width="33" height="33" viewBox="0 0 33 33" fill="none" xmlns="http://www.w3.org/2000/svg">
<path d="M16.5 33C13.2366 33 10.0465 32.0323 7.33311 30.2192C4.6197 28.4062 2.50485 25.8293 1.256 22.8143C0.00715915 19.7993 -0.319609 16.4817 0.317047 13.281C0.953703 10.0803 2.52518 7.14031 4.83274 4.83275C7.14031 2.52518 10.0803 0.953706 13.281 0.31705C16.4817 -0.319606 19.7993 0.00715025 22.8143 1.256C25.8293 2.50484 28.4062 4.61969 30.2192 7.3331C32.0323 10.0465 33 13.2366 33 16.5C32.995 20.8746 31.2551 25.0685 28.1618 28.1618C25.0685 31.2551 20.8746 32.995 16.5 33ZM16.5 0.785725C13.392 0.785725 10.3538 1.70735 7.76961 3.43406C5.1854 5.16076 3.17127 7.615 1.98189 10.4864C0.792517 13.3578 0.48134 16.5174 1.08768 19.5657C1.69402 22.614 3.19064 25.414 5.38832 27.6117C7.586 29.8094 10.386 31.306 13.4343 31.9123C16.4826 32.5187 19.6422 32.2075 22.5136 31.0181C25.385 29.8287 27.8392 27.8146 29.566 25.2304C31.2927 22.6462 32.2143 19.608 32.2143 16.5C32.2096 12.3338 30.5525 8.3395 27.6065 5.39352C24.6605 2.44754 20.6662 0.790426 16.5 0.785725Z" fill="#3F3D56"/>
<path d="M17.0025 6C14.4761 6.00021 12.0267 6.82994 10.0657 8.34986C8.10474 9.86977 6.75167 11.9873 6.23373 14.3467C5.71579 16.7061 6.06455 19.1637 7.22142 21.3068C8.37829 23.4498 10.2728 25.1477 12.5867 26.1153C12.5405 25.3078 12.6049 24.498 12.7783 23.7064C12.9895 22.8534 14.1929 17.9839 14.1929 17.9839C13.9526 17.4612 13.832 16.8956 13.8393 16.3248C13.8393 14.7688 14.7823 13.6065 15.9612 13.6065C16.9632 13.6065 17.4445 14.3236 17.4445 15.1813C17.4445 16.142 16.8011 17.5762 16.472 18.9072C16.4064 19.1538 16.4025 19.4116 16.4606 19.6599C16.5187 19.9082 16.6371 20.1399 16.8063 20.3365C16.9755 20.5331 17.1908 20.689 17.4347 20.7916C17.6787 20.8942 17.9445 20.9406 18.2108 20.9272C20.2934 20.9272 21.6981 18.3729 21.6981 15.3453C21.6981 13.0441 20.0723 11.3241 17.1203 11.3241C13.7852 11.3241 11.7026 13.7002 11.7026 16.3529C11.6699 17.1009 11.9289 17.834 12.4296 18.4104C12.5174 18.4796 12.58 18.5736 12.6082 18.6789C12.6365 18.7842 12.6289 18.8953 12.5867 18.9962C12.5327 19.1884 12.4148 19.6524 12.3608 19.8398C12.3514 19.8965 12.328 19.9503 12.2924 19.9966C12.2569 20.0429 12.2103 20.0804 12.1565 20.1061C12.1027 20.1317 12.0432 20.1448 11.9831 20.1441C11.923 20.1435 11.8639 20.1291 11.8107 20.1023C10.2733 19.5024 9.55618 17.8995 9.55618 16.0905C9.55618 13.1097 12.1938 9.53377 17.42 9.53377C21.6196 9.53377 24.3849 12.4348 24.3849 15.5468C24.3849 19.6664 21.983 22.7409 18.4465 22.7409C17.2579 22.7409 16.1429 22.127 15.7598 21.4333C15.7598 21.4333 15.1212 23.8517 14.9837 24.3203C14.7297 25.1167 14.3575 25.8742 13.8786 26.5699C15.3918 26.9964 16.9835 27.1074 18.5457 26.8953C20.1079 26.6832 21.604 26.1531 22.9326 25.3408C24.2611 24.5286 25.3911 23.4532 26.2458 22.1876C27.1005 20.922 27.66 19.4958 27.8863 18.0058C28.1125 16.5158 28.0003 14.9967 27.5573 13.5517C27.1142 12.1067 26.3507 10.7695 25.3184 9.6308C24.2861 8.4921 23.0092 7.57854 21.5744 6.95208C20.1396 6.32563 18.5804 6.00093 17.0025 6Z" fill="#3F3D56"/>
</svg>
