<svg width="37" height="37" viewBox="0 0 37 37" fill="none" xmlns="http://www.w3.org/2000/svg">
<path d="M18.5 37C14.8411 37 11.2643 35.915 8.22196 33.8822C5.17965 31.8494 2.80846 28.9601 1.40824 25.5796C0.00801694 22.1992 -0.358346 18.4795 0.35548 14.8908C1.06931 11.3022 2.83126 8.0058 5.41853 5.41853C8.00581 2.83126 11.3022 1.06931 14.8908 0.35548C18.4795 -0.358346 22.1992 0.00801695 25.5796 1.40824C28.9601 2.80846 31.8494 5.17964 33.8822 8.22195C35.915 11.2643 37 14.8411 37 18.5C36.9944 23.4048 35.0436 28.1071 31.5753 31.5753C28.1071 35.0436 23.4048 36.9944 18.5 37ZM18.5 0.880958C15.0153 0.880958 11.6088 1.9143 8.71139 3.8503C5.81395 5.78631 3.55568 8.53802 2.22214 11.7575C0.888596 14.9769 0.539674 18.5196 1.21951 21.9373C1.89934 25.3551 3.5774 28.4945 6.04146 30.9585C8.50553 33.4226 11.6449 35.1007 15.0627 35.7805C18.4805 36.4603 22.0231 36.1114 25.2425 34.7779C28.462 33.4443 31.2137 31.1861 33.1497 28.2886C35.0857 25.3912 36.119 21.9847 36.119 18.5C36.1138 13.8288 34.2558 9.35035 30.9527 6.04728C27.6496 2.74422 23.1712 0.886237 18.5 0.880958Z" fill="#3F3D56"/>
<path d="M29.7 13.0728L32 12.6339C32 12.6339 30.068 14.697 29.7 14.8287C29.6657 15.2671 29.6657 15.7073 29.7 16.1457C25.284 34.2315 9 26.2421 9 26.2421C14.934 26.3738 15.44 24.0472 15.44 24.0472C11.99 23.5644 11.3 21.4134 11.3 21.4134C11.6095 21.5692 11.9684 21.6106 12.3079 21.5296C12.6474 21.4486 12.9437 21.2509 13.14 20.9744C9.414 20.0525 9.92 16.5846 9.92 16.5846C10.5841 17.0422 11.3602 17.3294 12.174 17.4187C11.76 16.9358 8.264 12.9411 10.38 10.878C10.38 10.878 12.956 15.2677 19.718 15.6628L20.178 15.575C20.0998 15.2588 20.0688 14.9337 20.086 14.6092C20.086 13.3868 20.5949 12.2144 21.5007 11.35C22.4065 10.4856 23.635 10 24.916 10C28.136 10 28.826 11.7559 28.826 11.7559L31.126 10.439C31.08 10.439 30.85 12.6339 29.7 13.0728Z" fill="#3F3D56"/>
</svg>
