<svg width="37" height="37" viewBox="0 0 37 37" fill="none" xmlns="http://www.w3.org/2000/svg">
<path d="M18.5 37C14.8411 37 11.2643 35.915 8.22197 33.8822C5.17966 31.8494 2.80847 28.9601 1.40825 25.5796C0.00802699 22.1992 -0.35835 18.4795 0.355477 14.8908C1.0693 11.3022 2.83126 8.0058 5.41853 5.41853C8.0058 2.83126 11.3022 1.06931 14.8908 0.35548C18.4795 -0.358346 22.1992 0.00801692 25.5796 1.40824C28.9601 2.80846 31.8494 5.17965 33.8822 8.22195C35.915 11.2643 37 14.8411 37 18.5C36.9944 23.4048 35.0436 28.1071 31.5753 31.5753C28.1071 35.0436 23.4048 36.9944 18.5 37ZM18.5 0.880958C15.0153 0.880958 11.6088 1.9143 8.71138 3.8503C5.81394 5.78631 3.55567 8.53802 2.22212 11.7575C0.888579 14.9769 0.539684 18.5196 1.21952 21.9373C1.89935 25.3551 3.57738 28.4945 6.04145 30.9585C8.50551 33.4226 11.645 35.1007 15.0627 35.7805C18.4805 36.4603 22.0231 36.1114 25.2425 34.7779C28.462 33.4443 31.2137 31.1861 33.1497 28.2886C35.0857 25.3912 36.119 21.9847 36.119 18.5C36.1138 13.8288 34.2558 9.35035 30.9527 6.04728C27.6497 2.74421 23.1713 0.886229 18.5 0.880958Z" fill="#3F3D56"/>
<path d="M25.5787 10.1673L10.3306 9.90213C10.1345 9.88885 9.93873 9.91583 9.75457 9.98155C9.57041 10.0473 9.40149 10.1504 9.25748 10.2851C9.11346 10.4197 8.99719 10.5832 8.91537 10.7662C8.83355 10.9492 8.78778 11.148 8.78068 11.3513L8.90114 27.2073C8.91494 27.6341 9.08575 28.0432 9.37844 28.3504C9.67113 28.6576 10.0634 28.8396 10.4746 28.8589L25.7182 29.124C26.1192 29.1147 26.4967 28.9416 26.7687 28.6423C27.0407 28.3431 27.1855 27.9416 27.1716 27.5251L27.0511 11.6691C27.0529 11.471 27.0155 11.2736 26.9413 11.0891C26.8671 10.9045 26.7577 10.7368 26.6197 10.5961C26.4818 10.4554 26.3183 10.3449 26.1393 10.2711C25.9603 10.1974 25.7695 10.162 25.5787 10.1673ZM14.5529 25.7749L11.9355 25.7294L11.8714 17.2856L14.4888 17.3311L14.5529 25.7749ZM13.2609 16.0261L13.2421 16.0258C12.8655 16.0166 12.504 15.853 12.2369 15.5708C11.9699 15.2885 11.8189 14.9106 11.8172 14.5199C11.8154 14.1291 11.9631 13.7574 12.2277 13.4862C12.4923 13.215 12.8524 13.0664 13.229 13.073C13.6056 13.0795 13.968 13.2407 14.2369 13.5211C14.5057 13.8016 14.659 14.1785 14.6632 14.5693C14.6675 14.9601 14.5222 15.3328 14.2593 15.6059C13.9965 15.879 13.6374 16.0301 13.2609 16.0261ZM24.1188 25.9413L21.5014 25.8957L21.4663 21.2788C21.458 20.1727 21.0713 19.4104 20.1243 19.3939C19.8281 19.3912 19.5407 19.4839 19.3017 19.6593C19.0627 19.8346 18.8838 20.084 18.7898 20.373C18.7217 20.5863 18.6927 20.8119 18.7043 21.0383L18.7409 25.8477L16.1235 25.8022L16.0593 17.3584L18.6767 17.4039L18.6856 18.579C18.9207 18.1554 19.263 17.8083 19.6766 17.5739C20.0901 17.3396 20.5596 17.2268 21.0357 17.2474C22.7539 17.2772 24.0625 18.4749 24.0818 21.0083L24.1188 25.9413Z" fill="#3F3D56"/>
</svg>
