<svg width="1385" height="1360" viewBox="0 0 1385 1360" fill="none" xmlns="http://www.w3.org/2000/svg">
<g opacity="0.5" filter="url(#filter0_d)">
<path d="M418.776 1023.79C533.968 1039.36 605.163 942.536 692.231 983.764C768.09 1019.69 749.904 1110.19 807.957 1127.51C896.399 1153.89 1155.36 1066.79 1166.91 817.956C1178.45 569.125 983.384 637.689 885.584 330.632C787.784 23.5746 424.326 129.159 272.823 351.133C256.439 375.137 122.209 578.153 190.428 788.352C193.844 798.86 263.056 1002.75 418.776 1023.79Z" fill="#34D2A5"/>
</g>
<path d="M591.135 685.828C544.691 704.295 540.242 751.501 498.425 755.555C461.989 759.081 448.14 724.91 422.573 731.027C383.627 740.36 359.142 833.209 374.783 909.555C390.934 988.387 458.793 1093.18 571.214 1100.34C697.43 1108.37 792.935 987.787 798.763 881.972C799.394 870.528 803.117 774.648 729.814 718.008C726.152 715.178 653.919 660.864 591.135 685.828Z" fill="#F4F7FA"/>
<path d="M643.078 1018.79C637.057 1002.24 630.655 976.895 636.295 948.344C642.762 915.56 659.185 908.517 673.005 873.254C692.724 822.914 667.459 787.714 689.039 771.832C699.564 764.086 716.488 763.54 727.155 770.638C757.602 790.885 752.396 883.489 706.318 921.033C685.48 938.013 666.78 936.676 651.42 958.278C637.853 977.363 639.757 1001.91 643.078 1018.79Z" fill="url(#paint0_linear)"/>
<g style="mix-blend-mode:soft-light">
<g style="mix-blend-mode:soft-light">
<path d="M638.391 976.825L637.842 976.705C639.415 969.578 641.597 962.6 644.364 955.846C650.704 940.386 657.959 931.781 667.143 920.883C673.108 913.805 679.869 905.781 687.608 894.349C702.084 872.964 706.547 865.48 710.367 853.543C717.94 829.912 715.987 809.003 714.154 798.645C711.558 783.963 711.507 779.362 703.5 766.785L703.973 766.483C712.019 779.122 712.097 783.791 714.706 798.544C716.548 808.956 718.504 829.965 710.902 853.712C707.059 865.712 702.584 873.224 688.072 894.661C680.317 906.119 673.546 914.155 667.564 921.243C658.415 932.104 651.182 940.682 644.876 956.059C642.124 962.782 639.954 969.73 638.391 976.825Z" fill="white"/>
</g>
<g style="mix-blend-mode:soft-light">
<path d="M712.843 850.785L712.821 850.324C711.966 833.129 700.616 822.355 691.244 816.336C681.068 809.802 670.972 807.316 670.873 807.291L671.004 806.745C671.106 806.77 681.293 809.278 691.546 815.863C700.944 821.897 712.307 832.672 713.356 849.822C715.129 848.698 722.535 843.706 729.073 834.907C735.94 825.663 743.228 810.2 738.95 789.024L739.5 788.914C743.821 810.302 736.457 825.921 729.516 835.26C721.996 845.372 713.334 850.502 713.247 850.553L712.843 850.785Z" fill="white"/>
</g>
<g style="mix-blend-mode:soft-light">
<path d="M711.928 892.35C700.495 892.35 691.918 888.842 691.764 888.777L691.546 888.686L691.6 888.455C695.49 871.418 691.243 859.091 686.996 851.754C682.396 843.81 676.82 839.847 676.765 839.807L677.08 839.348C677.137 839.388 682.814 843.422 687.476 851.473C691.754 858.864 696.033 871.249 692.193 888.345C694.846 889.373 720.948 898.805 742.088 881.236L742.448 881.669C732.39 890.033 721.216 892.35 711.928 892.35Z" fill="white"/>
</g>
<g style="mix-blend-mode:soft-light">
<path d="M692.936 925.355C689.235 925.374 685.544 924.96 681.939 924.12C673.752 922.17 669.462 918.562 669.42 918.526L669.262 918.395L669.336 918.209C676.277 900.817 664.919 873.071 664.812 872.794L665.331 872.579C665.446 872.858 676.798 900.61 669.936 918.223C671.701 919.588 688.393 931.493 718.481 919.399L718.691 919.921C708.475 924.03 699.831 925.355 692.936 925.355Z" fill="white"/>
</g>
</g>
<path d="M590.116 1054.99C587.044 1039.51 584.788 1015.25 596.762 993.11C617.65 954.483 658.334 965.775 695.592 923.915C725.644 890.156 715.029 865.001 748.791 842.122C754.444 838.293 784.286 817.26 807.329 828.617C820.318 835.017 825.393 848.845 826.344 851.44C840.741 890.675 802.336 954.051 750.598 984.129C720.872 1001.41 710.943 996.39 658.325 1017.12C627.405 1029.3 604.381 1044.45 590.116 1054.99Z" fill="url(#paint1_linear)"/>
<g style="mix-blend-mode:soft-light">
<g style="mix-blend-mode:soft-light">
<path d="M586.162 1073.85L585.609 1073.76C592.163 1036.31 606.053 1010.85 626.891 998.081C637.091 991.831 645.334 990.629 654.061 989.359C663.445 987.991 673.149 986.577 685.76 978.392C698.014 970.436 702.261 963.017 707.638 953.624C712.473 945.177 718.493 934.663 732.303 920.474C744.407 908.037 753.322 902.112 761.187 896.886C769.706 891.222 776.437 886.75 784.054 876.078C796.496 858.648 804 839.785 804.5 835.785C805 831.785 805 828.285 805 828.285C806.5 838.785 797.024 858.873 784.511 876.405C776.833 887.16 770.066 891.658 761.498 897.353C753.656 902.558 744.776 908.471 732.705 920.866C718.944 935.003 712.945 945.475 708.126 953.904C702.71 963.369 698.433 970.832 686.066 978.862C673.354 987.115 663.586 988.538 654.141 989.914C645.465 991.176 637.287 992.369 627.184 998.559C606.49 1011.24 592.689 1036.57 586.162 1073.85Z" fill="white"/>
</g>
<g style="mix-blend-mode:soft-light">
<path d="M757.965 899.462L758.072 899.102C758.23 898.577 763.5 859.285 765 848.785C766.5 838.285 763.854 833.785 763.854 833.785C766.258 838.785 766.124 840.077 763.854 866.285C762.628 880.482 759.338 896.671 758.713 898.898C787.034 898.758 799.605 891.832 812 882.285C825.496 871.892 825 870.785 828.486 865.621C828.486 865.621 824 872.785 823 873.785C822 874.785 820.698 876.285 812.36 882.709C799.839 892.356 787.02 899.413 758.342 899.455L757.965 899.462Z" fill="white"/>
</g>
<g style="mix-blend-mode:soft-light">
<path d="M760.618 943.623C757.766 943.623 755.063 943.527 752.536 943.364C732.691 942.091 719.082 936.608 718.946 936.552L718.724 936.462L718.78 936.227C725.355 909.069 717.57 870.968 717.491 870.588L718.04 870.473C718.121 870.855 725.884 908.856 719.383 936.122C721.225 936.833 734.221 941.63 752.595 942.806C770.821 943.973 782.666 943.207 809.696 925.811L810 926.285C786.582 941.361 778.444 943.623 760.618 943.623Z" fill="white"/>
</g>
<g style="mix-blend-mode:soft-light">
<path d="M774.009 1066.62C771.157 1066.62 768.455 1066.53 765.928 1066.36C746.082 1065.09 732.473 1059.61 732.337 1059.55L732.115 1059.46L732.172 1059.23C738.747 1032.07 730.962 993.968 730.883 993.588L731.432 993.473C731.512 993.855 739.275 1031.86 732.774 1059.12C734.617 1059.83 747.612 1064.63 765.986 1065.81C784.213 1066.97 796.058 1066.21 823.087 1048.81L823.391 1049.28C799.973 1064.36 791.835 1066.62 774.009 1066.62Z" fill="white"/>
</g>
<g style="mix-blend-mode:soft-light">
<path d="M737.384 1007.21C690.205 1007.21 662.66 988.679 662.37 988.478L662.125 988.311L662.306 988.076C681.947 962.471 672.668 921.493 672.571 921.082L673.119 920.954C673.215 921.367 682.497 962.347 662.934 988.179C665.976 990.146 696.706 1009.09 747.166 1006.38L747.196 1006.95C743.839 1007.13 740.569 1007.21 737.384 1007.21Z" fill="white"/>
</g>
</g>
<path d="M570.346 1055.23C582.902 1045.56 596.764 1037.71 611.519 1031.91C645.028 1018.82 660.786 1025.41 674.676 1010.62C689.053 995.315 678.967 981.01 696.217 963.88C697.668 962.44 716.206 944.505 733.685 950.403C745.912 954.53 751.055 968.106 753.469 974.475C762.836 999.196 759.072 1037.44 733.006 1057.08C708.296 1075.69 676.017 1068.23 665.766 1065.79C647.782 1061.51 643.337 1054.69 625.066 1050.88C602.86 1046.24 583.178 1050.83 570.346 1055.23Z" fill="url(#paint2_linear)"/>
<path d="M829.135 1083.73L388.672 1079.92V1091.19C388.672 1094.24 390.591 1096.84 393.194 1097.31L517.743 1119.49C519.218 1119.75 520.72 1119.82 522.213 1119.7L824.347 1094.41C827.045 1094.18 829.135 1091.57 829.135 1088.43V1083.73Z" fill="#BFC8D6"/>
<path d="M667.048 1065.67L387.094 1086.29C382.084 1086.66 378.011 1082.74 378.011 1077.53V869.061C378.011 863.855 382.084 859.64 387.094 859.64H667.048C671.175 859.64 674.512 863.453 674.512 868.159V1056.61C674.507 1061.31 671.17 1065.37 667.048 1065.67Z" fill="#BFC8D6"/>
<path d="M671.507 1065.67L391.557 1086.29C386.548 1086.66 382.475 1082.74 382.475 1077.53V869.061C382.475 863.855 386.548 859.64 391.557 859.64H671.507C675.633 859.64 678.971 863.453 678.971 868.159V1056.61C678.971 1061.31 675.633 1065.37 671.507 1065.67Z" fill="white"/>
<path d="M662.789 1052.39L402.041 1070.29C397.965 1070.57 394.652 1067.35 394.652 1063.11V880.585C394.652 876.337 397.965 872.879 402.041 872.855L662.789 871.743C666.193 871.729 668.941 874.854 668.941 878.722V1044.96C668.941 1048.83 666.19 1052.16 662.789 1052.39Z" fill="#34D2A5"/>
<path d="M541.419 865.34C541.419 867.277 539.979 868.851 538.199 868.858C536.42 868.864 534.972 867.294 534.972 865.352C534.972 863.41 536.417 861.836 538.199 861.834C539.982 861.833 541.419 863.403 541.419 865.34Z" fill="white"/>
<g style="mix-blend-mode:soft-light" opacity="0.48">
<path d="M391.555 1086.29L670.09 1065.78L671.51 1065.67C673.403 1065.54 675.125 1064.6 676.441 1063.18C656.397 1062.08 643.944 1054.98 635.918 1047.62C619.789 1032.86 622.587 1018.3 605.195 1008.6C583.503 996.497 566.446 1011.83 549.982 996.702C540.002 987.527 544.9 980.685 532.621 966.975C519.021 951.79 510.166 956.895 496.496 943.228C479.214 925.948 487.857 912.503 472.97 900.096C454.91 885.045 435.434 898.976 418.242 884.541C410.828 878.315 406.758 869.265 404.635 859.638H391.557C386.548 859.638 382.475 863.857 382.475 869.059V1077.53C382.475 1082.73 386.547 1086.65 391.555 1086.29Z" fill="white"/>
</g>
<path d="M684.696 1064.53L388.672 1086.22L517.743 1109.21C519.218 1109.48 520.72 1109.55 522.213 1109.42L829.135 1083.73L689.405 1064.67C687.845 1064.46 686.267 1064.42 684.696 1064.53V1064.53Z" fill="url(#paint3_linear)"/>
<path d="M431.866 1086.41L678.317 1068.08L754.59 1078.4L510.263 1097.99L431.866 1086.41Z" fill="#D8DEE8"/>
<g style="mix-blend-mode:multiply" opacity="0.3">
<path d="M580.431 929.198C571.985 902.079 544.823 886.42 519.764 894.226C494.705 902.031 481.239 930.351 489.687 957.463C498.135 984.574 525.295 1000.24 550.354 992.436C575.413 984.632 588.879 956.319 580.431 929.198ZM541.151 962.31L541.32 969.707L534.208 969.865L534.05 962.971C529.184 962.867 524.437 961.671 521.642 960.132L523.621 951.593C526.709 953.189 531.025 954.615 535.741 954.505C539.878 954.41 542.67 952.747 542.602 949.845C542.537 947.086 540.176 945.399 534.765 943.71C526.939 941.279 521.558 937.773 521.395 930.735C521.247 924.35 525.63 919.238 533.358 917.534L533.2 910.642L540.312 910.484L540.46 916.87C545.327 916.974 548.616 917.914 551.029 919.018L549.122 927.272C547.216 926.518 543.84 924.926 538.616 925.048C533.899 925.156 532.422 927.225 532.463 929.256C532.519 931.651 535.095 933.115 541.316 935.294C550.021 938.133 553.596 942.052 553.749 948.581C553.905 955.044 549.463 960.665 541.151 962.31Z" fill="#060606"/>
</g>
<g style="mix-blend-mode:multiply" opacity="0.3">
<path d="M584.56 1028.73C584.56 1032.16 581.845 1035.09 578.384 1035.28L492.683 1039.99C488.6 1040.22 485.199 1037.35 485.199 1033.59V1019.4C485.199 1015.64 488.636 1012.49 492.719 1012.37L578.33 1009.76C579.139 1009.72 579.947 1009.85 580.704 1010.14C581.461 1010.43 582.152 1010.87 582.735 1011.43C583.317 1012 583.779 1012.67 584.093 1013.42C584.407 1014.16 584.565 1014.97 584.56 1015.78V1028.73Z" fill="#97A6B7"/>
</g>
<path d="M705.009 872.847C705.009 930.055 660.276 975.057 603.1 973.301C543.599 971.474 493.555 920.086 493.555 858.591C493.555 797.096 543.599 752.455 603.1 758.652C660.276 764.61 705.009 815.644 705.009 872.847Z" fill="url(#paint4_linear)"/>
<path d="M720.459 867.92C720.459 925.128 675.725 970.13 618.55 968.376C559.049 966.548 509.007 915.16 509.007 853.664C509.007 792.169 559.049 747.528 618.55 753.725C675.725 759.677 720.459 810.711 720.459 867.92Z" fill="url(#paint5_linear)"/>
<path d="M715.971 867.618C715.971 922.306 673.169 965.254 618.551 963.486C561.813 961.649 514.175 912.607 514.175 854.013C514.175 795.419 561.816 752.8 618.551 758.614C673.169 764.209 715.971 812.928 715.971 867.618Z" fill="url(#paint6_linear)"/>
<path d="M712.757 867.402C712.757 920.285 671.341 961.766 618.551 960.002C563.783 958.163 517.855 910.796 517.855 854.269C517.855 797.741 563.783 756.56 618.551 762.105C671.341 767.451 712.757 814.517 712.757 867.402Z" fill="url(#paint7_linear)"/>
<path d="M618.011 780.097C620.821 780.365 623.094 782.893 623.094 785.746V795.482C628.774 796.121 634.41 797.098 639.973 798.41C644.128 799.387 648.253 800.549 652.351 801.896C654.805 802.702 656.479 805.182 656.228 807.733L655.033 819.942C654.717 823.182 651.513 825.084 648.498 823.74C645.799 822.536 643.026 821.503 640.196 820.647C635.093 819.12 629.844 818.139 624.534 817.721L623.099 817.602V845.493C637.753 849.595 648.543 855.113 655.47 862.048C662.392 868.951 665.849 877.564 665.84 887.886C665.84 899.057 662.017 908.011 654.372 914.748C646.672 921.529 635.859 925.336 621.931 926.168V936.914C621.931 939.769 619.656 941.992 616.845 941.88H616.755C613.938 941.768 611.649 939.356 611.649 936.491V925.89L609.385 925.788C603.084 925.519 596.807 924.85 590.591 923.784C586.21 923.028 581.875 922.033 577.603 920.804C575.049 920.066 573.295 917.633 573.53 915.018L574.935 899.323C575.24 895.93 578.649 893.959 581.876 895.221C585.607 896.695 589.421 897.948 593.299 898.971C599.279 900.55 605.392 901.571 611.561 902.022L611.651 871.003C597.585 867.523 587.054 862.368 580.135 855.543C573.182 848.682 569.702 839.91 569.695 829.227C569.695 818.184 573.467 809.666 581.012 803.671C588.51 797.716 599.145 794.747 612.917 794.761V784.807C612.909 781.933 615.195 779.83 618.011 780.097ZM612.909 817.326C608.564 817.642 605.176 818.836 602.747 820.909C600.318 822.982 599.102 825.772 599.1 829.279C599.1 832.598 600.224 835.372 602.472 837.599C604.721 839.826 608.2 841.601 612.909 842.923V817.326ZM621.925 873.486V901.932C626.651 901.94 630.28 900.812 632.81 898.55C635.34 896.288 636.602 893.096 636.596 888.974C636.596 885.214 635.423 882.093 633.078 879.612C630.733 877.131 627.017 875.089 621.931 873.488L621.925 873.486Z" fill="url(#paint8_linear)"/>
<path style="mix-blend-mode:multiply" opacity="0.3" d="M601.504 880.351C604.686 848.914 633.578 835.606 629.808 806.69C627.484 788.864 613.976 773.849 598.906 762.122C553.2 766.915 517.855 804.761 517.855 854.261C517.855 910.788 563.783 958.155 618.551 959.995C623.75 960.167 628.955 959.913 634.113 959.234C612.362 937.59 598.768 907.359 601.504 880.351Z" fill="url(#paint9_linear)"/>
<path d="M700.107 802.111V802.557C696.2 797.22 689.2 789.808 685.009 785.52C684.93 785.331 684.799 785.141 684.72 784.95C682.119 778.728 678.899 772.783 675.107 767.206C671.016 761.127 665.815 755.143 659.752 749.633C659.027 748.92 658.188 748.289 657.413 747.613C657.015 747.284 656.616 746.943 656.214 746.613L655.626 746.112C655.419 745.944 655.206 745.796 654.995 745.638C654.164 745.007 653.33 744.371 652.494 743.73L651.863 743.256L651.205 742.81C650.77 742.509 650.335 742.207 649.899 741.911C648.18 740.666 646.326 739.589 644.518 738.45C643.597 737.897 642.625 737.389 641.693 736.864C641.231 736.602 640.756 736.334 640.281 736.075C639.806 735.817 639.305 735.591 638.823 735.35C630.978 731.4 622.602 728.604 613.957 727.05C612.873 726.872 611.791 726.692 610.696 726.514C609.608 726.364 608.503 726.268 607.42 726.14L605.779 725.956L604.132 725.867L602.485 725.766C601.938 725.738 601.397 725.683 600.844 725.694C599.75 725.694 598.656 725.676 597.557 725.672C597.289 725.672 596.998 725.654 596.748 725.672L596.016 725.711L594.553 725.788L593.102 725.861C592.973 725.861 592.884 725.861 592.717 725.878L591.226 725.989L589.234 726.129L587.743 726.241L587.492 726.257H587.402C587.402 726.257 586.883 726.257 587.754 726.273L584.533 726.746C584.003 726.83 583.468 726.88 582.936 726.997L581.359 727.312L579.781 727.628L578.992 727.786C578.729 727.836 578.473 727.915 578.216 727.976C577.183 728.238 576.151 728.495 575.123 728.765C574.605 728.876 574.102 729.055 573.599 729.205L572.092 729.679L570.586 730.131L569.112 730.672C568.13 731.04 567.147 731.365 566.192 731.755C565.238 732.144 564.288 732.559 563.353 732.966C556.113 736.168 549.376 740.403 543.353 745.541L542.271 746.445L541.242 747.41C540.562 748.041 539.859 748.655 539.21 749.303C539.184 749.325 539.161 749.36 539.133 749.382C537.871 750.688 536.593 751.915 535.461 753.267C535.159 753.595 534.863 753.931 534.572 754.266L534.126 754.756L533.713 755.282C533.161 755.963 532.608 756.65 532.066 757.325C531.932 757.492 531.787 757.654 531.652 757.826L531.279 758.352C531.023 758.703 530.771 759.055 530.52 759.396C530.029 760.1 529.493 760.746 529.053 761.472C525.323 767.055 522.482 772.636 520.55 777.962C518.802 782.723 517.54 787.649 516.783 792.664C516.71 793.217 516.638 793.76 516.565 794.294C516.503 794.824 516.398 795.343 516.376 795.872C516.292 796.91 516.207 797.897 516.123 798.841C516.068 799.801 516.068 800.721 516.029 801.587C516.013 802.022 515.984 802.447 515.978 802.849C515.972 803.251 516.007 803.676 516.013 804.067C516.024 804.856 516.035 805.595 516.046 806.288C516.048 806.432 516.061 806.575 516.085 806.717C516.101 806.846 516.119 806.974 516.134 807.097C516.158 807.343 516.191 807.309 516.213 807.533C516.231 807.722 516.253 807.812 516.268 807.812H553.015L530.687 832.566L478.786 889.335L404.548 807.81H443.574C443.631 807.81 443.691 807.14 443.753 806.616C443.91 805.482 444.068 804.378 444.245 803.032C444.344 802.362 444.434 801.737 444.54 801.017C444.595 800.666 444.645 800.33 444.698 799.962C444.75 799.595 444.797 799.208 444.869 798.889C445.144 797.539 445.428 796.116 445.729 794.597C445.887 793.844 446.045 793.073 446.215 792.281C446.385 791.489 446.606 790.685 446.818 789.858C447.242 788.211 447.655 786.481 448.17 784.701C448.715 782.931 449.283 781.091 449.872 779.18C450.156 778.219 450.53 777.276 450.877 776.299C451.224 775.323 451.591 774.351 451.959 773.346C455.332 764.5 459.586 756.015 464.658 748.02C470.173 739.313 477.19 730.633 485.518 722.584C486.527 721.551 487.644 720.608 488.722 719.62C489.269 719.134 489.81 718.642 490.357 718.152L491.189 717.415L492.038 716.711C493.181 715.779 494.338 714.836 495.488 713.892L496.358 713.189L497.262 712.52C497.871 712.067 498.474 711.621 499.083 711.174C501.465 709.349 504.028 707.704 506.573 706.005C507.857 705.18 509.185 704.408 510.517 703.61C511.17 703.22 511.834 702.829 512.498 702.427L514.549 701.322C525.634 695.268 537.529 690.833 549.871 688.153C551.43 687.847 552.998 687.535 554.561 687.227C556.125 686.92 557.716 686.737 559.294 686.495L561.66 686.161L564.044 685.927L566.402 685.697C567.191 685.624 567.98 685.539 568.781 685.508C570.359 685.435 571.957 685.246 573.548 685.173C573.938 685.156 574.337 685.006 574.736 685.006H575.932L578.298 685.14L580.665 685.217C581.453 685.217 582.242 685.323 583.031 685.363L587.748 685.648C588.819 685.664 588.117 685.675 588.39 685.681L588.513 685.697L588.764 685.725L589.254 685.793L590.248 685.915L592.225 686.161L593.219 686.284L593.709 686.345L594.318 686.429L596.819 686.798L599.319 687.177L600.559 687.372C600.966 687.439 601.329 687.53 601.72 687.607C603.244 687.931 604.768 688.261 606.295 688.578C607.054 688.735 607.801 688.947 608.549 689.142L610.799 689.739L613.032 690.337L615.241 691.034C616.705 691.507 618.172 691.955 619.606 692.469C621.04 692.984 622.464 693.541 623.887 694.077C635.181 698.565 645.485 704.553 654.343 711.526C654.902 711.955 655.447 712.39 656.007 712.821C656.567 713.252 657.079 713.72 657.609 714.178C658.67 715.082 659.737 715.952 660.764 716.878C662.778 718.772 664.788 720.586 666.624 722.55C667.097 723.031 667.552 723.517 668.02 723.99L668.706 724.705L669.366 725.448C670.242 726.441 671.107 727.427 671.961 728.405L672.603 729.142L673.217 729.903C673.614 730.411 674.021 730.912 674.417 731.414C675.206 732.425 676.042 733.386 676.757 734.428C680.622 739.635 684.069 745.14 687.066 750.89C688.451 753.542 689.684 756.183 690.773 758.789C693.81 765.967 696.117 773.433 697.66 781.073C697.818 781.92 697.976 782.753 698.124 783.573C698.273 784.394 698.44 785.185 698.538 785.984C698.749 787.575 698.962 789.099 699.158 790.568C699.325 792.041 699.413 793.458 699.536 794.804C699.587 795.474 699.654 796.127 699.694 796.774C699.733 797.421 699.852 798.036 699.878 798.65C699.912 799.867 700.107 801.033 700.107 802.111Z" fill="url(#paint10_linear)"/>
<path style="mix-blend-mode:multiply" opacity="0.4" d="M700.107 802.111V802.557C696.2 797.221 689.2 789.808 685.009 785.52C684.93 785.331 684.799 785.141 684.72 784.951C682.119 778.728 678.899 772.783 675.106 767.207C671.016 761.127 665.815 755.143 659.752 749.633C659.027 748.92 658.188 748.289 657.413 747.614C657.015 747.284 656.616 746.943 656.214 746.613L655.626 746.112C655.419 745.945 655.206 745.796 654.995 745.639C654.164 745.008 653.33 744.371 652.494 743.73L651.863 743.257L651.205 742.81C650.77 742.509 650.335 742.207 649.899 741.911C648.18 740.666 646.326 739.589 644.518 738.45C643.597 737.898 642.625 737.39 641.693 736.864C641.231 736.602 640.756 736.334 640.281 736.076C639.806 735.817 639.304 735.591 638.823 735.35C630.978 731.4 622.602 728.605 613.957 727.051C612.873 726.872 611.791 726.692 610.696 726.514C609.608 726.364 608.503 726.268 607.42 726.14L605.779 725.956L604.132 725.867L602.485 725.766C601.938 725.738 601.396 725.683 600.844 725.694C599.75 725.694 598.656 725.677 597.557 725.672C597.289 725.672 596.998 725.654 596.748 725.672L596.016 725.711L594.553 725.789L593.102 725.861C592.973 725.861 592.884 725.861 592.717 725.878L591.226 725.989L589.234 726.129L587.743 726.241L587.492 726.257H587.402C587.402 726.257 586.883 726.257 587.754 726.273L584.533 726.746C584.003 726.83 583.468 726.88 582.936 726.997L581.359 727.312L579.781 727.628L578.992 727.786C578.729 727.836 578.473 727.915 578.216 727.977C577.183 728.238 576.151 728.496 575.123 728.765C574.605 728.876 574.102 729.056 573.599 729.205L572.092 729.679L570.586 730.131L569.112 730.673C568.13 731.04 567.147 731.365 566.192 731.755C565.238 732.144 564.288 732.559 563.353 732.966C556.113 736.168 549.376 740.403 543.353 745.541L542.271 746.445L541.242 747.41C540.562 748.041 539.859 748.655 539.21 749.303C539.184 749.325 539.161 749.36 539.133 749.382C555.628 728.958 582.349 715.689 612.504 715.689C643.4 715.689 670.689 729.616 687.067 750.889C688.452 753.54 689.686 756.181 690.774 758.787C693.811 765.966 696.119 773.431 697.662 781.071C697.82 781.919 697.977 782.752 698.126 783.572C698.274 784.392 698.441 785.184 698.539 785.982C698.75 787.574 698.963 789.098 699.159 790.567C699.326 792.04 699.415 793.457 699.538 794.802C699.588 795.473 699.656 796.126 699.695 796.773C699.735 797.419 699.853 798.035 699.88 798.648C699.912 799.868 700.107 801.033 700.107 802.111Z" fill="url(#paint11_linear)"/>
<path d="M479.058 913.244C477.937 912.374 477.067 911.224 476.534 909.91C475.865 908.193 476.335 907.43 475.497 906.359C474.435 904.999 472.263 904.415 470.765 905.079C470.38 905.219 470.052 905.479 469.827 905.821C469.163 906.939 470.635 908.878 471.809 909.91C472.692 910.686 473.058 910.629 473.995 911.29C474.909 911.935 476.06 913.047 476.993 915.085L479.058 913.244Z" fill="url(#paint12_linear)"/>
<path d="M429.905 903.857C431.276 903.493 432.528 902.774 433.533 901.773C434.817 900.454 434.683 899.564 435.873 898.906C437.381 898.07 439.608 898.38 440.722 899.572C441.021 899.851 441.222 900.219 441.296 900.621C441.47 901.91 439.359 903.12 437.876 903.619C436.759 903.989 436.445 903.794 435.325 904.037C434.232 904.275 432.738 904.849 431.091 906.365L429.905 903.857Z" fill="url(#paint13_linear)"/>
<path d="M434.603 905.45C435.256 908.558 431.896 911.323 429.471 914.038C424.611 919.484 419.522 929.2 421.389 937.543C422.41 942.097 425.682 947.023 430.301 949.357C435.273 951.87 438.252 949.584 443.424 952.568C443.805 952.788 450.347 956.669 450.536 961.899C450.771 968.354 441.279 975.222 433.153 975.748C418.294 976.71 400.389 956.948 401.224 937.34C402.131 915.993 425.07 899.048 431.67 901.921C432.707 902.369 434.235 903.702 434.603 905.45Z" fill="url(#paint14_linear)"/>
<path d="M441.216 1126.49L441.749 1131.9L439.23 1131.44L437.537 1126.37L441.216 1126.49Z" fill="url(#paint15_linear)"/>
<path d="M425.868 1026.56C426.082 1034.81 427.046 1043.02 428.747 1051.09C430.274 1058.31 431.162 1059.56 431.639 1064.55C432.675 1075.41 429.175 1076.97 428.533 1089.24C427.823 1102.8 431.427 1113.57 432.844 1117.68C433.845 1120.58 435.017 1123.42 436.354 1126.19C437.597 1127.27 439.498 1126.86 441.501 1126.45C442.24 1114.15 443.159 1102.58 443.898 1090.29C446.278 1071.79 448.658 1053.3 451.038 1034.8L425.868 1026.56Z" fill="url(#paint16_linear)"/>
<path style="mix-blend-mode:multiply" opacity="0.3" d="M441.501 1126.45C442.24 1114.15 443.159 1102.58 443.898 1090.29C446.278 1071.79 448.658 1053.3 451.038 1034.8L425.868 1026.56C425.886 1027.19 425.917 1027.81 425.942 1028.44C437.714 1038.66 440.017 1046.76 439.902 1052.28C439.763 1058.98 436.1 1062.3 436.816 1072.01C437.327 1078.95 439.414 1080.18 439.414 1086.45C439.414 1094.52 435.944 1099.06 434.262 1103.72C432.633 1108.23 432.054 1114.6 435.201 1123.69C435.616 1124.63 436.005 1125.47 436.354 1126.19C437.597 1127.27 439.498 1126.86 441.501 1126.45Z" fill="url(#paint17_linear)"/>
<path d="M440.271 1133.75C439.08 1132.27 437.985 1132.38 437.785 1131.38C437.627 1130.59 438.13 1129.65 438.862 1129.29C439.891 1128.8 441.106 1129.63 441.386 1129.82C443.251 1131.09 442.694 1133 444.461 1133.87C444.816 1134.05 445.382 1134.24 445.969 1134.82C446.218 1135.06 446.837 1135.67 446.68 1136.07C446.499 1136.55 445.374 1136.5 444.306 1136.46C443.024 1136.41 442.382 1136.39 441.773 1135.99C440.924 1135.43 441.192 1134.89 440.271 1133.75Z" fill="url(#paint18_linear)"/>
<path d="M442.804 1087.48L438.094 1089.32L436.72 1087.16L440.403 1084.69L442.804 1087.48Z" fill="url(#paint19_linear)"/>
<path d="M435.613 1090.47C435.889 1088.59 435.067 1087.86 435.668 1087.03C436.141 1086.38 437.179 1086.1 437.933 1086.4C438.992 1086.82 439.208 1088.28 439.257 1088.61C439.589 1090.84 437.807 1091.73 438.364 1093.62C438.476 1094 438.719 1094.54 438.695 1095.37C438.686 1095.71 438.66 1096.58 438.258 1096.74C437.785 1096.92 437.059 1096.07 436.365 1095.25C435.529 1094.28 435.103 1093.8 434.989 1093.08C434.819 1092.09 435.398 1091.92 435.613 1090.47Z" fill="url(#paint20_linear)"/>
<path d="M463.185 1018.03C471.96 1035.92 474.94 1050.84 476.067 1060.58C476.791 1066.85 476.721 1070.72 474.917 1074.62C468.449 1088.56 445.909 1089.48 442.481 1089.57L439.096 1082.64C441.17 1078.79 444.791 1073.45 450.989 1069.55C455.754 1066.55 457.614 1067.19 458.81 1065.18C463.59 1057.1 437.812 1039.59 441.662 1027.94C442.995 1023.91 448.122 1019.82 463.185 1018.03Z" fill="url(#paint21_linear)"/>
<path d="M444.169 953.703C453.652 955.331 460.87 957.027 464.095 961.993C467.499 967.239 462.087 971.187 460.615 982.697C458.361 1000.32 468.491 1006.9 465.576 1024.64C465.146 1027.25 464.485 1029.82 463.601 1032.32C462.226 1036.18 459.586 1039.46 456.109 1041.62C453.129 1043.51 449.946 1045.05 446.621 1046.22C437.006 1049.58 432.265 1047.63 419.329 1048.36C398.17 1049.57 395.002 1055.71 385.442 1051.94C375.775 1048.12 368.782 1037.81 370.831 1033.41C372.059 1030.77 375.93 1032.42 381.483 1029.18C388.639 1025.01 387.436 1019.31 393.242 1014.42C401.581 1007.41 409.602 1014.49 416.736 1008.39C423.95 1002.22 424.811 987.205 421.745 978.269C419.741 972.432 419.705 966.084 418.217 960.094C418.034 959.37 418.065 958.609 418.305 957.903C419.489 954.461 425.788 953.801 430.549 953.344C437.812 952.651 443.39 953.569 444.169 953.703Z" fill="url(#paint22_linear)"/>
<path style="mix-blend-mode:multiply" opacity="0.3" d="M386.547 1045.25C389.478 1043.3 387.891 1037.76 392.226 1034.82C396.253 1032.1 399.394 1035.67 405.33 1033.84C412.942 1031.51 412.544 1024.18 419.844 1021.84C425.09 1020.16 426.673 1023.51 434.24 1023.65C441.808 1023.8 451.695 1020.68 457.966 1012.67C460.349 1009.61 462.042 1006.07 462.929 1002.29C464.95 1008.81 467.143 1015.12 465.578 1024.64C465.026 1027.98 464.101 1031.24 462.82 1034.37C461.837 1036.79 460.174 1038.87 458.034 1040.35C454.513 1042.82 450.673 1044.79 446.621 1046.22C437.006 1049.58 432.265 1047.63 419.329 1048.36C398.17 1049.57 395.002 1055.71 385.442 1051.94C379.266 1049.5 374.196 1044.41 371.865 1039.91C380.224 1045.99 384.422 1046.67 386.547 1045.25Z" fill="url(#paint23_linear)"/>
<path d="M449.646 937.292C449.646 937.292 452.26 942.197 452.424 945.639C452.588 949.081 448.704 948.832 448.704 948.832L448.851 951.003C448.911 951.91 449.234 952.78 449.778 953.508C450.323 954.236 451.068 954.79 451.921 955.104L453.451 955.667C453.451 955.667 443.446 957.81 437.982 953.949L439.559 953.792C440.641 953.686 441.653 953.21 442.423 952.443C443.193 951.676 443.674 950.667 443.784 949.586L443.879 948.657C443.879 948.657 442.145 937.931 449.646 937.292Z" fill="url(#paint24_linear)"/>
<path d="M474.284 914.222C472.8 917.029 475.267 920.613 476.848 923.891C480.018 930.466 482.23 941.209 478.135 948.71C475.898 952.812 471.394 956.639 466.303 957.609C460.831 958.652 458.597 955.634 452.803 957.074C452.375 957.182 445.019 959.105 443.395 964.082C441.388 970.223 448.618 979.442 456.283 982.189C470.301 987.212 492.96 973.154 497.567 954.076C502.582 933.306 485.207 910.694 478.072 911.64C476.956 911.784 475.12 912.643 474.284 914.222Z" fill="url(#paint25_linear)"/>
<path d="M448.088 942.17C447.57 942.127 447.141 941.471 446.789 941.667C446.438 941.862 446.46 942.826 446.781 943.498C446.991 943.917 447.317 944.266 447.72 944.503C447.164 945.256 446.782 946.122 446.6 947.04C446.127 949.526 447.453 951.526 448.002 952.697C450.481 957.972 446.625 966.313 442.394 970.523C438.957 973.946 437.346 972.574 435.295 975.366C431.3 980.808 436.815 986.79 434.75 994.117C431.607 1005.26 414.018 1008.57 413.295 1008.7C413.008 1008.75 412.822 1008.78 412.516 1008.83C404.628 1010.08 392.667 1011.98 384.245 1005.5C377.935 1000.66 375.048 992.23 375.521 984.803C375.648 982.848 376.239 975.431 382.283 969.378C383.242 968.417 388.921 962.741 396.597 962.673C400.662 962.637 401.487 964.069 404.59 963.183C408.85 961.97 411.468 958.1 413.095 955.701C416.092 951.283 414.871 950.337 417.025 948.169C421.241 943.91 426.19 947.256 430.694 943.502C435.135 939.801 432.456 934.779 436.742 931.575C441.159 928.272 449.623 929.425 451.426 933.36C452.978 936.737 449.665 942.301 448.088 942.17Z" fill="#2F2E41"/>
<path opacity="0.2" d="M469.029 635.483C417.367 693.563 444.207 763.254 388.892 797.8C340.694 827.897 297.526 789.215 266.257 815.476C218.626 855.488 169.901 1024.82 302.972 1110.14C436.044 1195.46 533.059 1088.62 648.462 1187.67C763.865 1286.72 960.912 922.555 894.995 769.192C887.867 752.607 825.96 614.713 684.396 585.301C677.317 583.833 538.868 556.968 469.029 635.483Z" fill="#28B88F" fill-opacity="0.42"/>
<defs>
<filter id="filter0_d" x="0" y="0.00012207" width="1384.53" height="1344.16" filterUnits="userSpaceOnUse" color-interpolation-filters="sRGB">
<feFlood flood-opacity="0" result="BackgroundImageFix"/>
<feColorMatrix in="SourceAlpha" type="matrix" values="0 0 0 0 0 0 0 0 0 0 0 0 0 0 0 0 0 0 127 0"/>
<feOffset dy="4"/>
<feGaussianBlur stdDeviation="2"/>
<feColorMatrix type="matrix" values="0 0 0 0 0 0 0 0 0 0 0 0 0 0 0 0 0 0 0.25 0"/>
<feBlend mode="normal" in2="BackgroundImageFix" result="effect1_dropShadow"/>
<feBlend mode="normal" in="SourceGraphic" in2="effect1_dropShadow" result="shape"/>
</filter>
<linearGradient id="paint0_linear" x1="741" y1="806.285" x2="650.014" y2="926.117" gradientUnits="userSpaceOnUse">
<stop offset="0.0833333" stop-color="#FF4C00"/>
<stop offset="0.989583" stop-color="#53B839"/>
</linearGradient>
<linearGradient id="paint1_linear" x1="743.3" y1="845.878" x2="669.959" y2="1064.7" gradientUnits="userSpaceOnUse">
<stop stop-color="#FF4D00"/>
<stop offset="0.8125" stop-color="#FFF510"/>
</linearGradient>
<linearGradient id="paint2_linear" x1="234028" y1="216246" x2="5318.57" y2="376037" gradientUnits="userSpaceOnUse">
<stop stop-color="#D9FAEC"/>
<stop offset="1" stop-color="#9571F6"/>
</linearGradient>
<linearGradient id="paint3_linear" x1="388.672" y1="1086.98" x2="829.135" y2="1086.98" gradientUnits="userSpaceOnUse">
<stop offset="0.49" stop-color="#EBEFF2"/>
<stop offset="1" stop-color="white"/>
</linearGradient>
<linearGradient id="paint4_linear" x1="563.045" y1="877.327" x2="439.728" y2="916.903" gradientUnits="userSpaceOnUse">
<stop stop-color="#FCB148"/>
<stop offset="0.05" stop-color="#FDBA46"/>
<stop offset="0.14" stop-color="#FFC244"/>
<stop offset="0.32" stop-color="#FFC444"/>
<stop offset="0.48" stop-color="#FDB946"/>
<stop offset="0.78" stop-color="#F99C4D"/>
<stop offset="0.87" stop-color="#F8924F"/>
<stop offset="1" stop-color="#F8924F"/>
</linearGradient>
<linearGradient id="paint5_linear" x1="662.802" y1="754.578" x2="552.712" y2="997.456" gradientUnits="userSpaceOnUse">
<stop stop-color="#FFDB44"/>
<stop offset="1" stop-color="#FEEF06"/>
</linearGradient>
<linearGradient id="paint6_linear" x1="349159" y1="432820" x2="321024" y2="281864" gradientUnits="userSpaceOnUse">
<stop stop-color="#FCB148"/>
<stop offset="0.05" stop-color="#FDBA46"/>
<stop offset="0.14" stop-color="#FFC244"/>
<stop offset="0.32" stop-color="#FFC444"/>
<stop offset="0.48" stop-color="#FDB946"/>
<stop offset="0.78" stop-color="#F99C4D"/>
<stop offset="0.87" stop-color="#F8924F"/>
<stop offset="1" stop-color="#F8924F"/>
</linearGradient>
<linearGradient id="paint7_linear" x1="281607" y1="181808" x2="392997" y2="414034" gradientUnits="userSpaceOnUse">
<stop stop-color="#FCB148"/>
<stop offset="0.05" stop-color="#FDBA46"/>
<stop offset="0.14" stop-color="#FFC244"/>
<stop offset="0.32" stop-color="#FFC444"/>
<stop offset="0.48" stop-color="#FDB946"/>
<stop offset="0.78" stop-color="#F99C4D"/>
<stop offset="0.87" stop-color="#F8924F"/>
<stop offset="1" stop-color="#F8924F"/>
</linearGradient>
<linearGradient id="paint8_linear" x1="137107" y1="107379" x2="204844" y2="258227" gradientUnits="userSpaceOnUse">
<stop stop-color="#FFDB44"/>
<stop offset="1" stop-color="#FEEF06"/>
</linearGradient>
<linearGradient id="paint9_linear" x1="149207" y1="196415" x2="287974" y2="369447" gradientUnits="userSpaceOnUse">
<stop stop-color="#FCB148"/>
<stop offset="0.05" stop-color="#FDBA46"/>
<stop offset="0.14" stop-color="#FFC244"/>
<stop offset="0.32" stop-color="#FFC444"/>
<stop offset="0.48" stop-color="#FDB946"/>
<stop offset="0.78" stop-color="#F99C4D"/>
<stop offset="0.87" stop-color="#F8924F"/>
<stop offset="1" stop-color="#F8924F"/>
</linearGradient>
<linearGradient id="paint10_linear" x1="486.702" y1="895.117" x2="632.412" y2="695.423" gradientUnits="userSpaceOnUse">
<stop stop-color="#51FFEA"/>
<stop offset="1" stop-color="#0A7E2C"/>
</linearGradient>
<linearGradient id="paint11_linear" x1="239640" y1="65506.3" x2="260413" y2="12750.7" gradientUnits="userSpaceOnUse">
<stop stop-color="#6165D7"/>
<stop offset="1" stop-color="#AA80F9"/>
</linearGradient>
<linearGradient id="paint12_linear" x1="474.741" y1="907.561" x2="472.288" y2="921.867" gradientUnits="userSpaceOnUse">
<stop stop-color="#FFC444"/>
<stop offset="1" stop-color="#F36F56"/>
</linearGradient>
<linearGradient id="paint13_linear" x1="10570.5" y1="13345.6" x2="10365.8" y2="14051.8" gradientUnits="userSpaceOnUse">
<stop stop-color="#FFC444"/>
<stop offset="1" stop-color="#F36F56"/>
</linearGradient>
<linearGradient id="paint14_linear" x1="61748.4" y1="133855" x2="-20424.5" y2="158284" gradientUnits="userSpaceOnUse">
<stop stop-color="#FF5304"/>
<stop offset="1" stop-color="#FFF504"/>
</linearGradient>
<linearGradient id="paint15_linear" x1="-909.305" y1="17220.4" x2="-843.93" y2="15366.8" gradientUnits="userSpaceOnUse">
<stop stop-color="#FFC444"/>
<stop offset="1" stop-color="#F36F56"/>
</linearGradient>
<linearGradient id="paint16_linear" x1="437.938" y1="1036.92" x2="430.229" y2="1133.47" gradientUnits="userSpaceOnUse">
<stop stop-color="#137753"/>
<stop offset="1" stop-color="#398989"/>
</linearGradient>
<linearGradient id="paint17_linear" x1="-5628.39" y1="228730" x2="-16216.8" y2="288508" gradientUnits="userSpaceOnUse">
<stop stop-color="#137753"/>
<stop offset="1" stop-color="#137753"/>
</linearGradient>
<linearGradient id="paint18_linear" x1="-1838.31" y1="22469.4" x2="-2136.15" y2="21062.7" gradientUnits="userSpaceOnUse">
<stop stop-color="#FF9085"/>
<stop offset="1" stop-color="#FBE56F"/>
</linearGradient>
<linearGradient id="paint19_linear" x1="5785.27" y1="14092" x2="6831.29" y2="13197.4" gradientUnits="userSpaceOnUse">
<stop stop-color="#FFC444"/>
<stop offset="1" stop-color="#F36F56"/>
</linearGradient>
<linearGradient id="paint20_linear" x1="-733.561" y1="14634.9" x2="-342.674" y2="12973.9" gradientUnits="userSpaceOnUse">
<stop stop-color="#FF9085"/>
<stop offset="1" stop-color="#FBE56F"/>
</linearGradient>
<linearGradient id="paint21_linear" x1="26424.1" y1="171928" x2="47839.2" y2="171419" gradientUnits="userSpaceOnUse">
<stop stop-color="#137753"/>
<stop offset="1" stop-color="#893976"/>
</linearGradient>
<linearGradient id="paint22_linear" x1="89013" y1="150059" x2="74169" y2="232785" gradientUnits="userSpaceOnUse">
<stop stop-color="#FFCE85"/>
<stop offset="1" stop-color="#FB6FBB"/>
</linearGradient>
<linearGradient id="paint23_linear" x1="-177631" y1="65163.5" x2="-193279" y2="96140.3" gradientUnits="userSpaceOnUse">
<stop stop-color="#FBA138"/>
<stop offset="1" stop-color="#E3C164"/>
</linearGradient>
<linearGradient id="paint24_linear" x1="-3267" y1="32680.2" x2="-4632.05" y2="34354.9" gradientUnits="userSpaceOnUse">
<stop stop-color="#FFC444"/>
<stop offset="1" stop-color="#F36F56"/>
</linearGradient>
<linearGradient id="paint25_linear" x1="69327.1" y1="129249" x2="-20369" y2="160268" gradientUnits="userSpaceOnUse">
<stop stop-color="#FF5304"/>
<stop offset="1" stop-color="#FFF504"/>
</linearGradient>
</defs>
</svg>
