<svg width="1340" height="1340" viewBox="0 0 1340 1340" fill="none" xmlns="http://www.w3.org/2000/svg">
<path opacity="0.2" d="M351.861 340.002C309.842 442.554 378.815 523.404 320.775 596.083C270.201 659.404 193.919 627.96 164.288 678.088C119.157 754.457 230.538 938.451 377.352 1032.98C528.939 1130.6 802.066 1186.77 987.093 1019.59C1194.83 831.899 1148.5 491.878 987.511 317.213C970.101 298.325 821.799 142.531 617.643 170.284C607.435 171.676 408.667 201.369 351.861 340.002Z" fill="#28B88F" fill-opacity="0.42"/>
<g opacity="0.5" filter="url(#filter0_d)">
<path d="M1016.73 580.337C962.228 516.395 877.489 526.564 850.426 464.48C826.851 410.385 880.041 377.085 857.121 340.436C822.197 284.607 648.003 280.704 521.856 331.858C391.593 384.666 171.278 393.005 281.756 698.735C327.98 893.39 584.631 995.247 772.602 966.164C792.929 963.019 962.514 934.287 1026.64 802.596C1029.84 796.01 1090.4 666.777 1016.73 580.337Z" fill="#34D2A5"/>
</g>
<path d="M694.293 683.815C684.68 693.789 675.584 700.233 668.397 705.317C583.915 765.098 483.953 747.672 462.706 743.422C431.335 737.138 370.692 724.991 326.848 674.143C260.518 597.215 270.842 476.014 322.296 396.009C331.707 381.376 381.42 300.151 482.462 287.124C543.611 279.242 614.89 295.141 666.508 337.79C774.861 427.314 767.148 608.173 694.293 683.815Z" fill="#EFEFF4"/>
<path opacity="0.69" d="M640.264 300.279C638.901 298.197 635.645 299.33 635.881 301.813C638.144 325.758 642.113 388.733 626.4 429.017C600.827 494.606 601.717 584.76 645.806 614.651C645.806 614.646 788.829 527.01 640.264 300.279Z" fill="url(#paint0_linear)"/>
<path opacity="0.69" d="M647.887 332.753C648.105 333.481 648.228 334.1 648.386 334.757L648.811 336.704L649.626 340.611C650.153 343.22 650.649 345.833 651.123 348.45C652.074 353.682 652.966 358.925 653.798 364.18C655.452 374.691 656.823 385.242 658.035 395.815C659.247 406.387 660.194 416.99 660.899 427.61C661.605 438.231 662.14 448.865 662.337 459.511C662.769 480.798 662.04 502.132 659.81 523.327C658.582 533.91 657.076 544.467 654.951 554.916C652.759 565.342 650.128 575.684 646.749 585.783C646.716 585.892 646.64 585.982 646.54 586.034C646.439 586.087 646.322 586.097 646.214 586.063C646.105 586.03 646.015 585.954 645.963 585.854C645.91 585.753 645.9 585.636 645.934 585.528C648.887 575.344 651.317 565.016 653.212 554.584C655.143 544.162 656.465 533.639 657.513 523.095C658.562 512.551 659.173 501.961 659.559 491.368C659.945 480.775 659.869 470.165 659.746 459.562C659.411 438.351 657.94 417.166 655.895 396.042C654.849 385.484 653.599 374.945 652.143 364.425C651.43 359.168 650.663 353.916 649.841 348.67L648.537 340.816L647.847 336.898L647.481 334.944C647.35 334.307 647.225 333.619 647.084 333.067L647.061 332.975C647.047 332.921 647.043 332.865 647.049 332.81C647.056 332.755 647.074 332.702 647.101 332.654C647.129 332.605 647.165 332.563 647.209 332.529C647.253 332.495 647.303 332.469 647.357 332.455C647.41 332.44 647.466 332.436 647.521 332.443C647.577 332.449 647.63 332.467 647.678 332.494C647.727 332.522 647.769 332.559 647.803 332.602C647.837 332.646 647.862 332.696 647.877 332.75L647.887 332.753Z" fill="url(#paint1_linear)"/>
<path d="M725.935 326.441C725.189 323.95 721.588 324.116 721.089 326.666C716.23 351.329 701.428 415.601 673.683 451.276C628.512 509.362 602.542 599.946 637.803 643.028C637.814 643.028 807.201 597.857 725.935 326.441Z" fill="url(#paint2_linear)"/>
<path opacity="0.43" d="M723.887 361.254C723.887 362.05 723.826 362.704 723.79 363.41L723.639 365.494L723.289 369.65C723.033 372.42 722.744 375.184 722.45 377.949C721.841 383.474 721.17 388.993 720.437 394.505C718.964 405.525 717.189 416.499 715.253 427.457C713.318 438.415 711.1 449.312 708.643 460.16C706.185 471.009 703.551 481.824 700.574 492.547C694.662 514.001 687.58 535.155 679.028 555.714C674.648 565.943 669.996 576.078 664.766 585.914C659.467 595.709 653.749 605.283 647.358 614.398C647.29 614.485 647.191 614.544 647.081 614.561C646.971 614.579 646.859 614.554 646.767 614.492C646.674 614.43 646.609 614.336 646.583 614.228C646.558 614.12 646.574 614.006 646.629 613.909V613.909C652.626 604.59 658.141 594.968 663.15 585.083C668.193 575.219 672.655 565.069 676.85 554.819C681.044 544.569 684.811 534.142 688.358 523.642C691.905 513.141 694.989 502.493 698.027 491.833C704.009 470.485 708.85 448.824 713.093 427.05C715.19 416.159 717.076 405.228 718.752 394.257C719.604 388.774 720.399 383.283 721.135 377.785L722.158 369.527L722.634 365.397L722.846 363.331C722.905 362.653 722.982 361.924 723.007 361.328V361.231C723.009 361.174 723.021 361.118 723.044 361.066C723.067 361.013 723.1 360.966 723.141 360.927C723.182 360.887 723.231 360.856 723.284 360.835C723.337 360.814 723.394 360.804 723.451 360.806C723.508 360.807 723.565 360.819 723.617 360.842C723.669 360.865 723.716 360.898 723.756 360.939C723.795 360.98 723.827 361.029 723.847 361.082C723.868 361.135 723.878 361.192 723.877 361.249L723.887 361.254Z" fill="white"/>
<path opacity="0.5" d="M605.842 495.792H285.8C284.395 495.792 283.255 496.932 283.255 498.337V530.936C283.255 532.341 284.395 533.48 285.8 533.48H605.842C607.247 533.48 608.386 532.341 608.386 530.936V498.337C608.386 496.932 607.247 495.792 605.842 495.792Z" fill="url(#paint3_linear)"/>
<path opacity="0.5" d="M607.729 522.808H283.273C280.913 522.808 279 524.722 279 527.082V533.948C279 536.308 280.913 538.222 283.273 538.222H607.729C610.089 538.222 612.002 536.308 612.002 533.948V527.082C612.002 524.722 610.089 522.808 607.729 522.808Z" fill="url(#paint4_linear)"/>
<path opacity="0.5" d="M598.942 352.025H290.923C286.291 352.025 285.079 345.632 289.388 343.928L443.395 283.291C444.381 282.903 445.478 282.903 446.464 283.291L600.476 343.928C604.786 345.626 603.571 352.025 598.942 352.025Z" fill="url(#paint5_linear)"/>
<path d="M307.714 360.994H301.109V482.525H307.714V360.994Z" fill="#C6C9D3"/>
<path d="M317.621 360.994H311.016V482.525H317.621V360.994Z" fill="#C6C9D3"/>
<path d="M327.529 360.994H320.923V482.525H327.529V360.994Z" fill="#C6C9D3"/>
<path d="M334.794 354.388H293.843V356.168L299.786 359.012H328.848L334.794 356.168V354.388Z" fill="#C6C9D3"/>
<path d="M335.124 493.094H294.173V486.693L300.116 483.847H329.178L335.124 486.693V493.094Z" fill="#C6C9D3"/>
<path d="M359.892 360.994H353.286V482.525H359.892V360.994Z" fill="#C6C9D3"/>
<path d="M369.799 360.994H363.194V482.525H369.799V360.994Z" fill="#C6C9D3"/>
<path d="M379.709 360.994H373.103V482.525H379.709V360.994Z" fill="#C6C9D3"/>
<path d="M386.972 354.388H346.021V356.168L351.967 359.012H381.029L386.972 356.168V354.388Z" fill="#C6C9D3"/>
<path d="M387.302 493.094H346.351V486.693L352.297 483.847H381.359L387.302 486.693V493.094Z" fill="#C6C9D3"/>
<path d="M412.072 360.994H405.467V482.525H412.072V360.994Z" fill="#C6C9D3"/>
<path d="M421.98 360.994H415.374V482.525H421.98V360.994Z" fill="#C6C9D3"/>
<path d="M431.887 360.994H425.281V482.525H431.887V360.994Z" fill="#C6C9D3"/>
<path d="M439.153 354.388H398.201V356.168L404.145 359.012H433.207L439.153 356.168V354.388Z" fill="#C6C9D3"/>
<path d="M439.482 493.094H398.531V486.693L404.477 483.847H433.539L439.482 486.693V493.094Z" fill="#C6C9D3"/>
<path d="M464.251 360.994H457.645V482.525H464.251V360.994Z" fill="#C6C9D3"/>
<path d="M474.16 360.994H467.555V482.525H474.16V360.994Z" fill="#C6C9D3"/>
<path d="M484.067 360.994H477.462V482.525H484.067V360.994Z" fill="#C6C9D3"/>
<path d="M491.33 354.388H450.382V356.168L456.325 359.012H485.387L491.33 356.168V354.388Z" fill="#C6C9D3"/>
<path d="M491.663 493.094H450.712V486.693L456.655 483.847H485.717L491.663 486.693V493.094Z" fill="#C6C9D3"/>
<path d="M516.431 360.994H509.825V482.525H516.431V360.994Z" fill="#C6C9D3"/>
<path d="M526.338 360.994H519.733V482.525H526.338V360.994Z" fill="#C6C9D3"/>
<path d="M536.245 360.994H529.64V482.525H536.245V360.994Z" fill="#C6C9D3"/>
<path d="M543.511 354.388H502.56V356.168L508.506 359.012H537.567L543.511 356.168V354.388Z" fill="#C6C9D3"/>
<path d="M543.841 493.094H502.89V486.693L508.836 483.847H537.897L543.841 486.693V493.094Z" fill="#C6C9D3"/>
<path d="M568.611 360.994H562.006V482.525H568.611V360.994Z" fill="#C6C9D3"/>
<path d="M578.519 360.994H571.913V482.525H578.519V360.994Z" fill="#C6C9D3"/>
<path d="M588.426 360.994H581.82V482.525H588.426V360.994Z" fill="#C6C9D3"/>
<path d="M595.691 354.388H554.74V356.168L560.684 359.012H589.745L595.691 356.168V354.388Z" fill="#C6C9D3"/>
<path d="M596.021 493.094H555.07V486.693L561.014 483.847H590.075L596.021 486.693V493.094Z" fill="#C6C9D3"/>
<path opacity="0.5" d="M606.816 495.825H285.112C284.085 495.825 283.253 496.658 283.253 497.685V501.058C283.253 502.085 284.085 502.917 285.112 502.917H606.816C607.843 502.917 608.675 502.085 608.675 501.058V497.685C608.675 496.658 607.843 495.825 606.816 495.825Z" fill="url(#paint6_linear)"/>
<path d="M475.956 637.9L467.376 714.859H566.929L553.963 637.9H475.956Z" fill="#647180"/>
<path d="M302.725 442.793V624.152C302.724 631.326 305.526 638.217 310.533 643.355C315.541 648.493 322.357 651.471 329.528 651.656C395.764 653.364 627.462 657.507 690.521 656.576C695.737 656.499 700.722 654.41 704.435 650.746C708.149 647.082 710.304 642.125 710.451 636.91C711.668 594.775 713.642 493.457 706.333 446.42C705.588 441.619 703.188 437.23 699.549 434.011C695.909 430.793 691.26 428.947 686.404 428.794C630.909 427.02 385.294 421.378 322.266 422.797C317.042 422.916 312.072 425.075 308.42 428.813C304.767 432.55 302.723 437.568 302.725 442.793Z" fill="#97A6B7"/>
<path d="M314.105 441.911V614.222C314.105 618.408 315.751 622.426 318.689 625.409C321.628 628.391 325.621 630.097 329.807 630.159L681.445 634.507C683.497 634.538 685.535 634.161 687.44 633.399C689.345 632.637 691.08 631.505 692.545 630.067C694.01 628.63 695.174 626.916 695.972 625.025C696.769 623.135 697.184 621.104 697.191 619.052L697.779 448.282C697.791 445.313 696.638 442.458 694.569 440.33C692.5 438.201 689.678 436.969 686.711 436.896L326.697 429.621C325.058 429.581 323.428 429.869 321.902 430.469C320.376 431.069 318.985 431.968 317.812 433.113C316.638 434.258 315.706 435.626 315.069 437.138C314.433 438.649 314.105 440.272 314.105 441.911V441.911Z" fill="#F2E6E6"/>
<path d="M699.843 641.644L314.095 635.072C313.945 635.069 313.802 635.007 313.698 634.899C313.594 634.791 313.537 634.646 313.54 634.496C313.542 634.346 313.605 634.204 313.713 634.1C313.82 633.995 313.965 633.939 314.115 633.941L699.85 640.519C700 640.519 700.144 640.578 700.25 640.684C700.356 640.79 700.416 640.934 700.416 641.084C700.416 641.234 700.356 641.378 700.25 641.484C700.144 641.59 700 641.649 699.85 641.649L699.843 641.644Z" fill="#74767B"/>
<path d="M588.372 730.605H442.669C438.71 730.605 435.739 727.791 436.503 724.758L438.373 717.365C438.935 715.143 441.383 713.509 444.288 713.419L584.751 709.036C587.787 708.941 590.475 710.552 591.145 712.872L594.515 724.636C595.382 727.699 592.395 730.605 588.372 730.605Z" fill="#97A6B7"/>
<path d="M721.181 635.834H621.48C620.158 635.834 619.086 636.905 619.086 638.227V651.4C619.086 652.722 620.158 653.794 621.48 653.794H721.181C722.503 653.794 723.575 652.722 723.575 651.4V638.227C723.575 636.905 722.503 635.834 721.181 635.834Z" fill="url(#paint7_linear)"/>
<path d="M721.181 655.167H621.48C620.158 655.167 619.086 656.239 619.086 657.561V670.734C619.086 672.056 620.158 673.128 621.48 673.128H721.181C722.503 673.128 723.575 672.056 723.575 670.734V657.561C723.575 656.239 722.503 655.167 721.181 655.167Z" fill="url(#paint8_linear)"/>
<path d="M721.181 674.501H621.48C620.158 674.501 619.086 675.573 619.086 676.895V690.068C619.086 691.39 620.158 692.461 621.48 692.461H721.181C722.503 692.461 723.575 691.39 723.575 690.068V676.895C723.575 675.573 722.503 674.501 721.181 674.501Z" fill="url(#paint9_linear)"/>
<path d="M721.181 693.835H621.48C620.158 693.835 619.086 694.906 619.086 696.228V709.401C619.086 710.723 620.158 711.795 621.48 711.795H721.181C722.503 711.795 723.575 710.723 723.575 709.401V696.228C723.575 694.906 722.503 693.835 721.181 693.835Z" fill="url(#paint10_linear)"/>
<path d="M721.181 713.168H621.48C620.158 713.168 619.086 714.24 619.086 715.562V728.735C619.086 730.057 620.158 731.129 621.48 731.129H721.181C722.503 731.129 723.575 730.057 723.575 728.735V715.562C723.575 714.24 722.503 713.168 721.181 713.168Z" fill="url(#paint11_linear)"/>
<path d="M721.181 732.502H621.48C620.158 732.502 619.086 733.574 619.086 734.896V748.069C619.086 749.391 620.158 750.463 621.48 750.463H721.181C722.503 750.463 723.575 749.391 723.575 748.069V734.896C723.575 733.574 722.503 732.502 721.181 732.502Z" fill="url(#paint12_linear)"/>
<path d="M665.252 505.785C670.464 500.574 670.464 492.125 665.252 486.914C660.041 481.702 651.592 481.702 646.38 486.913C641.169 492.125 641.169 500.574 646.38 505.785C651.592 510.997 660.041 510.996 665.252 505.785Z" fill="url(#paint13_linear)"/>
<path d="M664.698 455.696C669.909 450.484 669.909 442.035 664.698 436.824C659.486 431.613 651.037 431.613 645.826 436.824C640.615 442.035 640.615 450.484 645.826 455.696C651.037 460.907 659.486 460.907 664.698 455.696Z" fill="url(#paint14_linear)"/>
<path d="M376.811 552.129C380.067 545.517 377.347 537.518 370.736 534.262C364.124 531.006 356.125 533.726 352.869 540.337C349.613 546.949 352.333 554.948 358.944 558.204C365.556 561.46 373.555 558.74 376.811 552.129Z" fill="url(#paint15_linear)"/>
<path d="M377.621 496.557C377.86 489.189 372.082 483.023 364.714 482.784C357.347 482.544 351.181 488.323 350.941 495.69C350.702 503.058 356.481 509.224 363.848 509.463C371.215 509.702 377.382 503.924 377.621 496.557Z" fill="url(#paint16_linear)"/>
<path d="M370.648 457.455C376.955 453.643 378.977 445.439 375.165 439.132C371.353 432.825 363.149 430.802 356.842 434.615C350.535 438.427 348.512 446.63 352.325 452.938C356.137 459.245 364.34 461.267 370.648 457.455Z" fill="url(#paint17_linear)"/>
<path d="M570.512 614.515C572.86 607.529 569.101 599.963 562.115 597.614C555.129 595.266 547.563 599.026 545.214 606.011C542.866 612.997 546.626 620.564 553.611 622.912C560.597 625.26 568.164 621.501 570.512 614.515Z" fill="url(#paint18_linear)"/>
<path d="M520.7 614.061C522.506 606.916 518.179 599.659 511.034 597.852C503.889 596.046 496.632 600.373 494.825 607.518C493.019 614.663 497.346 621.92 504.491 623.727C511.636 625.533 518.893 621.206 520.7 614.061Z" fill="url(#paint19_linear)"/>
<path d="M459.633 624.53C466.926 623.459 471.969 616.678 470.898 609.385C469.826 602.092 463.045 597.049 455.752 598.12C448.459 599.192 443.416 605.973 444.488 613.266C445.559 620.559 452.34 625.602 459.633 624.53Z" fill="url(#paint20_linear)"/>
<path d="M576.756 336.876C578.373 329.685 573.854 322.546 566.664 320.929C559.473 319.313 552.334 323.831 550.718 331.022C549.101 338.212 553.62 345.352 560.81 346.968C568 348.585 575.14 344.066 576.756 336.876Z" fill="url(#paint21_linear)"/>
<path d="M516.742 347.437C523.909 345.718 528.325 338.515 526.606 331.348C524.886 324.182 517.683 319.766 510.516 321.485C503.35 323.204 498.934 330.407 500.653 337.574C502.372 344.74 509.576 349.156 516.742 347.437Z" fill="url(#paint22_linear)"/>
<path d="M474.775 342.251C478.752 336.046 476.946 327.792 470.742 323.815C464.537 319.838 456.283 321.644 452.306 327.848C448.329 334.053 450.134 342.307 456.339 346.284C462.544 350.261 470.798 348.456 474.775 342.251Z" fill="url(#paint23_linear)"/>
<path d="M540.061 529.861C540.743 529.855 541.412 530.045 541.99 530.407C542.567 530.77 543.029 531.29 543.319 531.907L561.203 569.462C561.425 569.929 561.543 570.439 561.551 570.956L561.98 610.216C561.997 610.691 561.919 611.165 561.75 611.609C561.581 612.053 561.325 612.459 560.996 612.803C560.668 613.146 560.275 613.421 559.839 613.61C559.403 613.799 558.934 613.899 558.458 613.904C557.983 613.91 557.512 613.82 557.072 613.64C556.632 613.46 556.233 613.194 555.897 612.857C555.562 612.521 555.297 612.121 555.119 611.68C554.94 611.24 554.851 610.768 554.858 610.293L554.444 571.805L536.898 534.956C536.641 534.416 536.525 533.82 536.558 533.224C536.592 532.627 536.776 532.048 537.092 531.541C537.408 531.034 537.846 530.614 538.367 530.321C538.888 530.027 539.474 529.869 540.071 529.861H540.061Z" fill="url(#paint24_linear)"/>
<path d="M490.197 530.411C490.665 530.406 491.13 530.493 491.564 530.668C491.998 530.842 492.393 531.1 492.728 531.428C493.062 531.755 493.329 532.145 493.512 532.575C493.696 533.005 493.793 533.468 493.798 533.935L494.016 553.717L510.383 569.741C511.057 570.403 511.442 571.305 511.454 572.25L511.879 610.754C511.889 611.698 511.524 612.609 510.863 613.284C510.203 613.96 509.301 614.345 508.356 614.356C507.411 614.366 506.501 614.001 505.825 613.34C505.15 612.68 504.764 611.778 504.754 610.833L504.347 573.802L487.967 557.778C487.633 557.451 487.366 557.061 487.182 556.631C486.998 556.201 486.901 555.739 486.896 555.272L486.661 534.012C486.656 533.543 486.744 533.078 486.919 532.643C487.094 532.209 487.354 531.813 487.682 531.478C488.011 531.144 488.402 530.877 488.833 530.694C489.265 530.511 489.729 530.415 490.197 530.411V530.411Z" fill="url(#paint25_linear)"/>
<path d="M468.585 530.649C469.53 530.639 470.44 531.004 471.116 531.665C471.791 532.325 472.177 533.226 472.189 534.171L472.562 568.133C472.566 568.601 472.478 569.065 472.303 569.499C472.127 569.933 471.868 570.328 471.539 570.662L461.46 580.966L461.795 611.304C461.806 612.248 461.441 613.159 460.78 613.834C460.119 614.51 459.217 614.895 458.273 614.906C457.328 614.916 456.418 614.551 455.742 613.89C455.067 613.23 454.681 612.328 454.671 611.383L454.323 579.569C454.318 579.101 454.406 578.636 454.582 578.201C454.757 577.767 455.017 577.371 455.346 577.037L465.424 566.736L465.066 534.258C465.06 533.79 465.146 533.325 465.32 532.89C465.494 532.456 465.751 532.059 466.078 531.724C466.405 531.389 466.794 531.122 467.225 530.937C467.655 530.753 468.117 530.655 468.585 530.649V530.649Z" fill="url(#paint26_linear)"/>
<path d="M581.201 514.497C582.042 514.49 582.857 514.782 583.503 515.32L619.201 544.986L656.316 544.576C657.261 544.566 658.171 544.931 658.847 545.592C659.522 546.252 659.908 547.154 659.918 548.099C659.929 549.044 659.564 549.954 658.903 550.63C658.242 551.305 657.34 551.691 656.396 551.701L617.971 552.123C617.125 552.134 616.304 551.842 615.654 551.3L578.951 520.801C578.39 520.334 577.986 519.707 577.793 519.004C577.6 518.301 577.628 517.555 577.872 516.868C578.116 516.181 578.565 515.585 579.159 515.162C579.753 514.738 580.462 514.507 581.191 514.499L581.201 514.497Z" fill="url(#paint27_linear)"/>
<path d="M582.733 475.771C583.201 475.766 583.666 475.854 584.1 476.029C584.534 476.205 584.929 476.465 585.263 476.794L603.931 495.061L655.772 494.493C656.247 494.476 656.72 494.555 657.164 494.724C657.608 494.893 658.014 495.149 658.358 495.477C658.701 495.805 658.976 496.199 659.165 496.635C659.354 497.071 659.454 497.54 659.46 498.015C659.465 498.49 659.375 498.962 659.195 499.401C659.015 499.841 658.749 500.241 658.413 500.576C658.076 500.912 657.676 501.176 657.236 501.355C656.795 501.533 656.324 501.622 655.848 501.615L602.535 502.201C601.589 502.208 600.679 501.84 600.003 501.178L580.273 481.878C579.77 481.385 579.424 480.754 579.28 480.065C579.135 479.375 579.198 478.659 579.46 478.005C579.723 477.352 580.173 476.791 580.754 476.393C581.335 475.995 582.021 475.779 582.726 475.771H582.733Z" fill="url(#paint28_linear)"/>
<path d="M575.654 427.183L605.962 426.851C606.43 426.846 606.895 426.934 607.33 427.109C607.765 427.285 608.16 427.545 608.494 427.874L625.72 444.727L655.224 444.402C656.154 444.414 657.042 444.79 657.699 445.448C658.356 446.106 658.729 446.995 658.739 447.924C658.75 448.854 658.396 449.751 657.754 450.424C657.112 451.096 656.233 451.491 655.304 451.524L624.324 451.867C623.378 451.875 622.468 451.507 621.794 450.844L604.568 433.988L575.734 434.306C575.259 434.322 574.785 434.244 574.341 434.075C573.897 433.906 573.491 433.65 573.148 433.322C572.804 432.994 572.529 432.6 572.34 432.164C572.151 431.728 572.051 431.259 572.046 430.784C572.041 430.309 572.131 429.837 572.31 429.397C572.49 428.957 572.756 428.558 573.093 428.223C573.429 427.887 573.829 427.622 574.27 427.444C574.71 427.265 575.182 427.177 575.657 427.183H575.654Z" fill="url(#paint29_linear)"/>
<path d="M565.952 328.679C566.893 328.674 567.797 329.042 568.468 329.701C569.139 330.361 569.521 331.259 569.532 332.2L569.872 363.196C569.877 363.664 569.789 364.129 569.613 364.563C569.438 364.998 569.178 365.393 568.849 365.727L556.017 378.847L556.318 406.262C556.329 407.206 555.964 408.117 555.303 408.792C554.642 409.468 553.74 409.853 552.796 409.864C551.851 409.874 550.94 409.509 550.265 408.848C549.589 408.188 549.204 407.286 549.193 406.341L548.876 377.443C548.868 376.497 549.236 375.587 549.899 374.913L562.735 361.794L562.41 332.274C562.406 331.806 562.494 331.34 562.67 330.906C562.845 330.471 563.105 330.075 563.434 329.741C563.763 329.407 564.155 329.141 564.587 328.959C565.019 328.777 565.483 328.681 565.952 328.679V328.679Z" fill="url(#paint30_linear)"/>
<path d="M515.848 329.228C516.552 329.221 517.243 329.422 517.833 329.807C518.424 330.192 518.886 330.743 519.163 331.391C519.44 332.039 519.518 332.755 519.388 333.447C519.258 334.14 518.926 334.778 518.433 335.282L501.222 352.876L501.816 406.86C501.821 407.328 501.734 407.792 501.56 408.226C501.385 408.66 501.127 409.056 500.8 409.39C500.473 409.725 500.083 409.992 499.653 410.176C499.223 410.359 498.761 410.457 498.293 410.462C497.825 410.467 497.361 410.38 496.927 410.206C496.492 410.032 496.097 409.774 495.762 409.447C495.428 409.119 495.161 408.73 494.977 408.299C494.793 407.869 494.696 407.407 494.691 406.939L494.09 351.48C494.082 350.535 494.45 349.625 495.113 348.951L513.342 330.31C513.667 329.974 514.057 329.705 514.487 329.519C514.917 329.333 515.379 329.235 515.848 329.228Z" fill="url(#paint31_linear)"/>
<path d="M465.759 329.781C466.464 329.773 467.155 329.975 467.745 330.36C468.335 330.745 468.798 331.296 469.074 331.944C469.351 332.592 469.429 333.307 469.3 334C469.17 334.692 468.838 335.33 468.345 335.834L448.927 355.682L449.073 369.008L477.943 397.249C478.288 397.574 478.565 397.964 478.757 398.397C478.95 398.83 479.054 399.297 479.064 399.77C479.073 400.244 478.989 400.715 478.814 401.155C478.64 401.596 478.38 401.997 478.048 402.336C477.717 402.674 477.321 402.943 476.885 403.127C476.448 403.311 475.979 403.406 475.506 403.407C475.032 403.407 474.563 403.313 474.126 403.13C473.689 402.947 473.293 402.679 472.961 402.341L443.04 373.069C442.365 372.407 441.98 371.506 441.968 370.561L441.789 354.286C441.782 353.34 442.15 352.429 442.812 351.754L463.271 330.852C463.926 330.181 464.821 329.795 465.759 329.781Z" fill="url(#paint32_linear)"/>
<path d="M415.226 525.317L446.937 524.967C447.405 524.962 447.869 525.049 448.303 525.223C448.738 525.397 449.133 525.655 449.468 525.982C449.802 526.309 450.069 526.699 450.253 527.129C450.437 527.559 450.534 528.022 450.539 528.49C450.544 528.957 450.457 529.422 450.283 529.856C450.109 530.29 449.851 530.686 449.524 531.02C449.197 531.355 448.807 531.621 448.377 531.805C447.946 531.989 447.484 532.086 447.016 532.092L416.791 532.424L398.416 551.208C398.087 551.547 397.694 551.817 397.26 552.003C396.826 552.188 396.359 552.286 395.887 552.29L364.869 552.632C364.401 552.637 363.937 552.55 363.502 552.376C363.068 552.201 362.673 551.943 362.338 551.616C362.004 551.289 361.737 550.899 361.554 550.469C361.37 550.038 361.273 549.576 361.268 549.108C361.263 548.64 361.35 548.176 361.524 547.742C361.699 547.308 361.957 546.912 362.284 546.578C362.611 546.244 363.001 545.977 363.432 545.793C363.862 545.61 364.324 545.513 364.792 545.508L394.353 545.17L412.727 526.386C413.386 525.713 414.284 525.329 415.226 525.317Z" fill="url(#paint33_linear)"/>
<path d="M441.219 464.296C441.924 464.288 442.614 464.49 443.205 464.875C443.795 465.26 444.257 465.811 444.534 466.459C444.811 467.107 444.889 467.822 444.759 468.515C444.629 469.207 444.297 469.845 443.805 470.349L413.883 500.94C413.221 501.615 412.319 502 411.375 502.012L364.334 502.523C363.86 502.54 363.386 502.462 362.942 502.293C362.498 502.124 362.092 501.868 361.748 501.54C361.405 501.212 361.13 500.819 360.941 500.383C360.751 499.947 360.651 499.478 360.646 499.003C360.64 498.528 360.73 498.056 360.91 497.617C361.089 497.177 361.355 496.777 361.692 496.442C362.028 496.106 362.428 495.841 362.868 495.662C363.308 495.484 363.78 495.395 364.255 495.401L409.822 494.89L438.72 465.352C439.381 464.683 440.279 464.304 441.219 464.296V464.296Z" fill="url(#paint34_linear)"/>
<path d="M421.034 428.339L445.861 428.066C446.805 428.055 447.716 428.42 448.391 429.081C449.067 429.742 449.452 430.644 449.463 431.588C449.473 432.533 449.108 433.444 448.447 434.119C447.787 434.795 446.885 435.18 445.94 435.19L422.586 435.446L407.457 450.916C406.795 451.59 405.893 451.975 404.948 451.985L363.774 452.437C362.845 452.425 361.957 452.05 361.3 451.392C360.643 450.733 360.27 449.845 360.259 448.915C360.249 447.985 360.602 447.088 361.244 446.416C361.886 445.743 362.766 445.348 363.695 445.315L403.396 444.88L418.527 429.413C418.854 429.078 419.244 428.811 419.674 428.627C420.104 428.442 420.566 428.345 421.034 428.339V428.339Z" fill="url(#paint35_linear)"/>
<path d="M564.705 530.854C598.749 496.81 598.749 441.613 564.705 407.569C530.661 373.525 475.464 373.525 441.42 407.569C407.376 441.613 407.376 496.81 441.42 530.854C475.464 564.898 530.661 564.898 564.705 530.854Z" fill="#E5B731"/>
<path d="M562.654 528.803C595.566 495.892 595.566 442.531 562.654 409.62C529.742 376.708 476.382 376.708 443.471 409.62C410.559 442.531 410.559 495.892 443.471 528.803C476.382 561.715 529.742 561.715 562.654 528.803Z" fill="url(#paint36_linear)"/>
<path opacity="0.7" d="M433.567 434.768C433.47 434.769 433.375 434.745 433.29 434.698C433.205 434.651 433.133 434.583 433.082 434.501C433.031 434.418 433.001 434.324 432.997 434.227C432.992 434.131 433.012 434.034 433.056 433.947C440.69 418.832 453.01 406.591 468.174 399.052C483.338 391.514 500.533 389.083 517.193 392.122C517.341 392.149 517.471 392.233 517.556 392.357C517.641 392.48 517.674 392.633 517.647 392.78C517.62 392.928 517.535 393.058 517.412 393.143C517.288 393.229 517.136 393.261 516.988 393.234C512.391 392.398 507.728 391.979 503.056 391.981C473.728 391.981 447.305 408.256 434.068 434.456C434.021 434.549 433.95 434.628 433.862 434.683C433.773 434.738 433.671 434.767 433.567 434.768Z" fill="white"/>
<path opacity="0.78" d="M555.335 521.486C583.191 493.63 583.191 448.466 555.335 420.61C527.479 392.754 482.315 392.754 454.459 420.61C426.603 448.466 426.603 493.63 454.459 521.486C482.315 549.342 527.479 549.342 555.335 521.486Z" fill="white"/>
<path d="M540.138 476.847C536.522 473.482 531.545 471.454 525.423 470.766C525.409 470.764 525.397 470.757 525.388 470.747C525.379 470.736 525.374 470.723 525.374 470.709V470.589C525.374 470.577 525.378 470.565 525.386 470.555C525.393 470.545 525.403 470.537 525.415 470.533C530.305 469.311 532.98 467.142 536.082 464.027C539.184 460.912 540.864 457.26 540.864 453.094C540.864 447.35 538.186 442.898 533.074 439.737C528.755 437.07 523.796 435.528 516.638 435.113C516.408 435.1 516.193 434.999 516.035 434.832C515.877 434.664 515.789 434.443 515.789 434.213V419.961C515.789 419.722 515.694 419.492 515.525 419.323C515.355 419.153 515.126 419.058 514.886 419.058H508.334C508.095 419.058 507.865 419.153 507.696 419.323C507.527 419.492 507.431 419.722 507.431 419.961V434.377C507.431 434.616 507.336 434.846 507.167 435.015C506.998 435.185 506.768 435.28 506.529 435.28H498.995C498.755 435.28 498.526 435.185 498.356 435.015C498.187 434.846 498.092 434.616 498.092 434.377V419.961C498.092 419.722 497.997 419.492 497.828 419.323C497.658 419.153 497.429 419.058 497.189 419.058H490.64C490.4 419.058 490.171 419.153 490.001 419.323C489.832 419.492 489.737 419.722 489.737 419.961V434.377C489.737 434.616 489.642 434.846 489.473 435.015C489.303 435.185 489.074 435.28 488.834 435.28H469.749C469.509 435.28 469.28 435.375 469.11 435.544C468.941 435.713 468.846 435.943 468.846 436.182V443.471C468.846 443.71 468.941 443.94 469.11 444.109C469.28 444.279 469.509 444.374 469.749 444.374H480.49C480.729 444.374 480.959 444.469 481.128 444.638C481.297 444.807 481.392 445.037 481.392 445.276V501.475C481.392 501.714 481.297 501.944 481.128 502.113C480.959 502.282 480.729 502.377 480.49 502.377H469.749C469.509 502.377 469.28 502.472 469.11 502.642C468.941 502.811 468.846 503.041 468.846 503.28V511.551C468.846 511.79 468.941 512.02 469.11 512.189C469.28 512.358 469.509 512.453 469.749 512.453H488.834C489.074 512.453 489.303 512.548 489.473 512.718C489.642 512.887 489.737 513.117 489.737 513.356V528.263C489.737 528.502 489.832 528.732 490.001 528.901C490.171 529.071 490.4 529.166 490.64 529.166H497.189C497.429 529.166 497.658 529.071 497.828 528.901C497.997 528.732 498.092 528.502 498.092 528.263V513.356C498.092 513.117 498.187 512.887 498.356 512.718C498.526 512.548 498.755 512.453 498.995 512.453H506.529C506.768 512.453 506.998 512.548 507.167 512.718C507.336 512.887 507.431 513.117 507.431 513.356V528.263C507.431 528.502 507.527 528.732 507.696 528.901C507.865 529.071 508.095 529.166 508.334 529.166H514.886C515.126 529.166 515.355 529.071 515.525 528.901C515.694 528.732 515.789 528.502 515.789 528.263V513.088C515.789 512.854 515.879 512.63 516.041 512.463C516.202 512.295 516.423 512.196 516.656 512.187C525.116 511.857 532.143 509.801 537.245 506.016C542.836 501.868 545.605 496.26 545.605 489.186C545.605 484.338 543.767 480.228 540.138 476.847ZM508.155 448.061C517.51 448.061 522.19 450.777 522.19 456.45C522.19 459.503 521.05 461.899 518.771 463.638C516.491 465.377 513.37 466.247 509.406 466.247H498.987C498.869 466.247 498.751 466.224 498.642 466.179C498.532 466.134 498.433 466.068 498.349 465.984C498.265 465.9 498.198 465.801 498.153 465.692C498.108 465.582 498.084 465.465 498.084 465.347V448.972C498.084 448.732 498.179 448.503 498.349 448.334C498.518 448.164 498.748 448.069 498.987 448.069L508.155 448.061ZM521.804 497.002C519.285 498.871 515.807 499.92 511.367 499.92H498.987C498.748 499.92 498.518 499.825 498.349 499.655C498.179 499.486 498.084 499.256 498.084 499.017V480.172C498.084 479.932 498.179 479.703 498.349 479.533C498.518 479.364 498.748 479.269 498.987 479.269H511.485C515.924 479.269 519.385 480.036 521.863 481.801C524.341 483.565 525.579 486.258 525.579 489.345C525.584 492.581 524.328 495.133 521.812 497.002H521.804Z" fill="url(#paint37_linear)"/>
<g opacity="0.3">
<path opacity="0.3" d="M382.965 706.312C383.146 706.683 383.183 707.107 383.07 707.504C382.956 707.901 382.7 708.241 382.351 708.46C380.755 709.463 379.09 710.412 377.405 711.273C377.21 711.374 376.997 711.435 376.778 711.453C376.559 711.471 376.339 711.446 376.13 711.379C375.921 711.312 375.727 711.205 375.56 711.063C375.392 710.921 375.255 710.747 375.154 710.552V710.522C374.961 710.13 374.93 709.677 375.067 709.263C375.205 708.848 375.5 708.504 375.888 708.304C377.489 707.481 379.072 706.578 380.589 705.627C380.964 705.392 381.417 705.315 381.849 705.414C382.28 705.512 382.655 705.779 382.89 706.154C382.918 706.205 382.943 706.258 382.965 706.312V706.312ZM369.858 712.621C369.887 712.681 369.912 712.743 369.935 712.805C370.008 713.012 370.039 713.231 370.027 713.45C370.015 713.669 369.96 713.884 369.865 714.081C369.77 714.279 369.637 714.456 369.473 714.602C369.31 714.748 369.119 714.861 368.912 714.933C367.122 715.562 365.293 716.12 363.47 716.593C363.044 716.697 362.594 716.629 362.217 716.404C361.84 716.179 361.567 715.815 361.457 715.39C361.347 714.965 361.408 714.514 361.628 714.134C361.848 713.755 362.208 713.477 362.631 713.36C364.365 712.91 366.106 712.381 367.804 711.782C368.19 711.647 368.612 711.657 368.991 711.812C369.369 711.966 369.678 712.254 369.858 712.621V712.621ZM355.688 715.887C355.772 716.059 355.826 716.244 355.849 716.434C355.874 716.652 355.855 716.873 355.795 717.084C355.735 717.295 355.633 717.492 355.497 717.663C355.36 717.835 355.191 717.978 354.999 718.085C354.807 718.191 354.596 718.258 354.378 718.283C352.501 718.498 350.591 718.634 348.701 718.685C348.266 718.685 347.848 718.516 347.536 718.213C347.223 717.91 347.042 717.497 347.029 717.062C347.017 716.627 347.175 716.205 347.47 715.884C347.764 715.564 348.172 715.371 348.606 715.347C350.397 715.296 352.217 715.168 354 714.964C354.342 714.924 354.688 714.992 354.99 715.157C355.293 715.323 355.536 715.578 355.688 715.887V715.887ZM341.141 715.902C341.274 716.171 341.331 716.47 341.308 716.769C341.285 717.068 341.182 717.354 341.009 717.599C340.837 717.844 340.602 718.038 340.328 718.161C340.055 718.283 339.754 718.33 339.456 718.296C337.576 718.086 335.684 717.784 333.83 717.421C333.395 717.335 333.013 717.079 332.768 716.71C332.522 716.342 332.432 715.89 332.519 715.456C332.606 715.022 332.862 714.639 333.23 714.394C333.599 714.148 334.05 714.059 334.485 714.145C336.244 714.498 338.042 714.777 339.829 714.979C340.108 715.01 340.375 715.111 340.604 715.272C340.834 715.433 341.018 715.65 341.141 715.902V715.902ZM326.958 712.675C327.1 712.972 327.152 713.304 327.106 713.629C327.06 713.955 326.919 714.26 326.7 714.506C326.482 714.751 326.195 714.927 325.877 715.011C325.559 715.095 325.224 715.083 324.912 714.977C323.122 714.355 321.35 713.649 319.621 712.877C319.231 712.688 318.93 712.354 318.781 711.947C318.633 711.539 318.649 711.09 318.825 710.694C319.002 710.298 319.326 709.986 319.728 709.825C320.131 709.663 320.58 709.665 320.982 709.829C322.626 710.563 324.306 711.233 326.009 711.823C326.426 711.97 326.767 712.277 326.958 712.675ZM313.842 706.389C314.002 706.715 314.052 707.084 313.983 707.441C313.915 707.797 313.732 708.122 313.463 708.365C313.193 708.609 312.852 708.758 312.49 708.789C312.128 708.821 311.766 708.735 311.458 708.542C309.855 707.542 308.277 706.458 306.763 705.325C306.408 705.059 306.174 704.663 306.111 704.225C306.049 703.786 306.163 703.341 306.429 702.986C306.695 702.632 307.091 702.398 307.529 702.335C307.968 702.272 308.413 702.387 308.768 702.653C310.205 703.729 311.704 704.76 313.228 705.721C313.49 705.883 313.702 706.114 313.842 706.389V706.389ZM283.33 653.211C283.434 653.425 283.491 653.659 283.498 653.896C283.552 655.687 283.682 657.505 283.89 659.292C283.915 659.511 283.897 659.732 283.837 659.943C283.776 660.154 283.675 660.352 283.538 660.524C283.402 660.696 283.233 660.84 283.041 660.947C282.849 661.053 282.637 661.121 282.419 661.147C281.978 661.197 281.535 661.071 281.188 660.795C280.84 660.519 280.616 660.117 280.565 659.676C280.348 657.796 280.207 655.883 280.153 653.996C280.142 653.615 280.262 653.241 280.492 652.937C280.723 652.633 281.051 652.417 281.421 652.325C281.791 652.234 282.182 652.271 282.528 652.433C282.874 652.594 283.154 652.868 283.322 653.211H283.33ZM302.451 697.359C302.626 697.714 302.669 698.119 302.573 698.503C302.477 698.887 302.248 699.224 301.927 699.455C301.605 699.685 301.212 699.794 300.818 699.762C300.424 699.73 300.053 699.559 299.773 699.279C298.433 697.947 297.137 696.538 295.914 695.096C295.773 694.928 295.666 694.733 295.599 694.524C295.533 694.315 295.508 694.094 295.527 693.876C295.545 693.657 295.607 693.444 295.708 693.249C295.809 693.054 295.947 692.88 296.115 692.739C296.283 692.597 296.477 692.49 296.687 692.424C296.896 692.357 297.116 692.333 297.335 692.351C297.554 692.37 297.767 692.431 297.962 692.532C298.157 692.633 298.33 692.772 298.472 692.94C299.63 694.31 300.865 695.645 302.136 696.911C302.265 697.042 302.371 697.193 302.451 697.359ZM285.409 667.609C285.457 667.71 285.495 667.815 285.524 667.924C285.979 669.66 286.513 671.402 287.112 673.097C287.191 673.305 287.228 673.527 287.221 673.75C287.213 673.972 287.161 674.191 287.067 674.394C286.974 674.596 286.841 674.777 286.676 674.927C286.511 675.077 286.318 675.193 286.108 675.267C285.898 675.341 285.675 675.373 285.453 675.359C285.23 675.346 285.013 675.289 284.813 675.19C284.613 675.092 284.435 674.954 284.289 674.786C284.143 674.617 284.033 674.421 283.964 674.21C283.335 672.419 282.772 670.596 282.294 668.767C282.189 668.367 282.236 667.942 282.427 667.574C282.618 667.207 282.939 666.923 283.327 666.779C283.715 666.634 284.143 666.639 284.528 666.793C284.912 666.946 285.226 667.237 285.409 667.609V667.609ZM293.377 686.022C293.565 686.406 293.598 686.847 293.47 687.254C293.342 687.662 293.063 688.005 292.69 688.213C292.317 688.421 291.878 688.478 291.464 688.373C291.05 688.267 290.693 688.007 290.465 687.646C289.457 686.048 288.506 684.385 287.639 682.705L287.621 682.674C287.522 682.478 287.463 682.265 287.447 682.046C287.431 681.827 287.458 681.608 287.527 681.399C287.596 681.191 287.705 680.998 287.849 680.832C287.992 680.666 288.167 680.53 288.362 680.432C288.558 680.333 288.772 680.274 288.991 680.258C289.209 680.242 289.429 680.269 289.637 680.338C289.846 680.407 290.038 680.516 290.204 680.659C290.371 680.803 290.507 680.977 290.605 681.173C291.429 682.769 292.334 684.347 293.291 685.866C293.308 685.907 293.337 685.958 293.365 686.012L293.377 686.022Z" fill="#74767B"/>
<path opacity="0.3" d="M284.046 641.511C284.195 641.816 284.248 642.16 284.196 642.496C284.066 643.347 283.941 644.214 283.854 645.076C283.829 645.294 283.762 645.506 283.656 645.698C283.55 645.891 283.407 646.06 283.236 646.197C283.064 646.334 282.867 646.436 282.656 646.497C282.445 646.558 282.224 646.577 282.006 646.553C281.788 646.529 281.576 646.462 281.384 646.356C281.192 646.249 281.022 646.107 280.885 645.935C280.608 645.589 280.48 645.146 280.529 644.705C280.629 643.8 280.749 642.887 280.887 641.992C280.941 641.64 281.106 641.315 281.358 641.064C281.609 640.812 281.934 640.648 282.286 640.594C282.638 640.541 282.997 640.601 283.312 640.766C283.627 640.93 283.882 641.192 284.038 641.511H284.046Z" fill="#74767B"/>
</g>
<g opacity="0.3">
<path opacity="0.3" d="M310.773 598.189C310.946 598.546 310.987 598.952 310.888 599.336C310.79 599.72 310.559 600.057 310.236 600.286C309.532 600.782 308.827 601.309 308.141 601.821C307.967 601.955 307.769 602.054 307.557 602.111C307.345 602.169 307.124 602.184 306.906 602.156C306.688 602.128 306.478 602.058 306.287 601.949C306.096 601.84 305.929 601.694 305.795 601.52C305.66 601.346 305.562 601.148 305.504 600.936C305.446 600.724 305.431 600.503 305.459 600.285C305.487 600.067 305.558 599.857 305.667 599.666C305.776 599.475 305.922 599.308 306.095 599.174C306.819 598.619 307.561 598.072 308.302 597.547C308.481 597.421 308.683 597.331 308.897 597.283C309.111 597.235 309.332 597.229 309.548 597.266C309.764 597.304 309.97 597.383 310.155 597.5C310.34 597.617 310.501 597.77 310.627 597.949C310.683 598.024 310.732 598.105 310.773 598.189V598.189Z" fill="#74767B"/>
<path opacity="0.3" d="M406.677 622.579C407.018 623.269 407.346 623.967 407.661 624.673C407.843 625.077 407.857 625.537 407.7 625.951C407.543 626.365 407.228 626.7 406.824 626.881C406.42 627.063 405.96 627.077 405.546 626.92C405.132 626.763 404.797 626.448 404.615 626.044C403.881 624.412 403.081 622.816 402.234 621.279C402.122 621.087 402.049 620.874 402.02 620.653C401.991 620.433 402.007 620.208 402.066 619.993C402.125 619.779 402.227 619.578 402.365 619.403C402.503 619.228 402.674 619.082 402.869 618.975C403.064 618.867 403.279 618.8 403.5 618.776C403.722 618.753 403.946 618.774 404.159 618.838C404.372 618.902 404.57 619.009 404.742 619.151C404.913 619.293 405.055 619.468 405.157 619.666C405.684 620.615 406.193 621.594 406.677 622.579ZM410.717 632.941C410.758 633.024 410.792 633.109 410.819 633.197C411.346 634.987 411.804 636.813 412.177 638.634C412.226 638.85 412.232 639.074 412.193 639.293C412.154 639.512 412.072 639.72 411.952 639.907C411.831 640.093 411.675 640.254 411.492 640.379C411.309 640.505 411.102 640.592 410.885 640.637C410.667 640.682 410.443 640.683 410.225 640.64C410.008 640.597 409.801 640.511 409.616 640.387C409.432 640.263 409.275 640.104 409.153 639.918C409.031 639.733 408.947 639.525 408.907 639.306C408.551 637.578 408.116 635.839 407.628 634.14C407.511 633.74 407.548 633.309 407.732 632.934C407.916 632.56 408.234 632.267 408.623 632.116C409.013 631.964 409.444 631.963 409.834 632.114C410.223 632.265 410.542 632.556 410.727 632.931L410.717 632.941ZM400.383 612.288C400.564 612.661 400.599 613.088 400.483 613.486C400.366 613.884 400.105 614.225 399.751 614.441C399.397 614.658 398.976 614.734 398.568 614.657C398.161 614.579 397.796 614.353 397.547 614.022C396.491 612.61 395.36 611.224 394.184 609.902C393.889 609.571 393.739 609.136 393.765 608.694C393.79 608.252 393.991 607.838 394.322 607.544C394.653 607.249 395.087 607.099 395.529 607.125C395.972 607.15 396.385 607.351 396.68 607.682C397.918 609.076 399.109 610.536 400.222 612.029C400.282 612.111 400.336 612.198 400.383 612.288V612.288ZM413.229 647.037C413.325 647.233 413.381 647.446 413.395 647.664C413.515 649.52 413.558 651.405 413.523 653.264C413.5 653.697 413.309 654.103 412.992 654.398C412.675 654.693 412.256 654.853 411.823 654.845C411.39 654.837 410.977 654.661 410.672 654.354C410.366 654.047 410.192 653.633 410.185 653.2C410.219 651.433 410.185 649.646 410.063 647.881C410.037 647.495 410.147 647.113 410.372 646.798C410.598 646.484 410.925 646.258 411.299 646.158C411.672 646.059 412.069 646.092 412.421 646.252C412.773 646.413 413.058 646.69 413.229 647.037ZM390.601 601.854C390.77 602.198 390.814 602.591 390.728 602.965C390.641 603.339 390.428 603.671 390.125 603.906C389.822 604.142 389.447 604.265 389.063 604.257C388.679 604.248 388.31 604.107 388.018 603.859C386.675 602.713 385.269 601.611 383.832 600.578C383.482 600.315 383.25 599.927 383.183 599.495C383.117 599.064 383.222 598.623 383.477 598.269C383.731 597.914 384.115 597.673 384.545 597.597C384.975 597.522 385.418 597.617 385.778 597.864C387.292 598.951 388.775 600.112 390.187 601.319C390.359 601.468 390.5 601.65 390.601 601.854V601.854ZM378.753 593.816C378.91 594.132 378.962 594.491 378.902 594.839C378.843 595.187 378.674 595.507 378.42 595.753C378.167 595.999 377.842 596.159 377.492 596.208C377.142 596.257 376.786 596.194 376.474 596.028C374.912 595.202 373.295 594.43 371.671 593.726C371.46 593.647 371.267 593.526 371.104 593.37C370.94 593.215 370.81 593.027 370.721 592.82C370.633 592.612 370.587 592.389 370.587 592.164C370.586 591.938 370.632 591.715 370.721 591.507C370.809 591.299 370.939 591.112 371.102 590.956C371.265 590.8 371.458 590.678 371.669 590.599C371.88 590.52 372.105 590.484 372.331 590.494C372.556 590.504 372.777 590.56 372.981 590.658C374.689 591.386 376.392 592.192 378.037 593.069C378.349 593.235 378.6 593.497 378.753 593.816ZM365.454 588.55C365.634 588.915 365.674 589.333 365.564 589.724C365.448 590.151 365.168 590.514 364.784 590.733C364.4 590.953 363.945 591.011 363.518 590.895C361.81 590.427 360.066 590.028 358.33 589.706C357.899 589.62 357.52 589.368 357.274 589.005C357.028 588.641 356.935 588.196 357.015 587.764C357.095 587.333 357.342 586.95 357.701 586.699C358.061 586.448 358.506 586.349 358.938 586.423C360.764 586.76 362.603 587.19 364.398 587.673C364.626 587.736 364.838 587.847 365.021 587.998C365.203 588.149 365.351 588.338 365.454 588.55V588.55ZM351.32 586.302C351.448 586.563 351.506 586.852 351.488 587.142C351.47 587.431 351.376 587.711 351.217 587.954C351.058 588.197 350.838 588.393 350.579 588.525C350.32 588.656 350.032 588.718 349.742 588.704C347.975 588.619 346.185 588.612 344.42 588.681C344.003 588.66 343.609 588.483 343.316 588.186C343.023 587.889 342.851 587.493 342.836 587.076C342.82 586.659 342.961 586.251 343.231 585.932C343.501 585.614 343.881 585.409 344.295 585.356C346.151 585.285 348.036 585.292 349.898 585.379C350.196 585.393 350.484 585.485 350.734 585.648C350.984 585.81 351.186 586.036 351.32 586.302V586.302ZM337.029 587.223C337.099 587.363 337.148 587.512 337.175 587.665C337.213 587.881 337.209 588.103 337.161 588.317C337.114 588.531 337.025 588.734 336.9 588.914C336.774 589.093 336.614 589.247 336.429 589.365C336.244 589.483 336.038 589.563 335.822 589.601C334.086 589.911 332.339 590.297 330.628 590.752C330.204 590.855 329.756 590.788 329.38 590.565C329.005 590.341 328.732 589.98 328.62 589.558C328.508 589.136 328.566 588.686 328.781 588.306C328.996 587.926 329.352 587.646 329.771 587.525C331.562 587.047 333.411 586.637 335.239 586.315C335.597 586.253 335.965 586.309 336.288 586.474C336.611 586.64 336.871 586.906 337.029 587.233V587.223ZM323.301 591.256C323.317 591.287 323.329 591.32 323.342 591.351C323.513 591.759 323.514 592.219 323.346 592.628C323.177 593.038 322.853 593.364 322.445 593.535C321.243 594.046 320.043 594.578 318.877 595.151C318.456 595.357 318.037 595.569 317.621 595.785C317.228 595.986 316.771 596.023 316.351 595.888C315.931 595.754 315.581 595.458 315.378 595.065C315.175 594.673 315.136 594.217 315.268 593.796C315.401 593.374 315.696 593.023 316.087 592.819C316.525 592.593 316.966 592.372 317.409 592.154C318.637 591.55 319.9 590.98 321.163 590.453C321.556 590.291 321.996 590.285 322.393 590.436C322.791 590.587 323.115 590.884 323.301 591.266V591.256Z" fill="#74767B"/>
<path opacity="0.3" d="M412.569 661.379C412.72 661.687 412.771 662.033 412.717 662.371C412.576 663.266 412.415 664.162 412.236 665.067C412.193 665.282 412.108 665.486 411.986 665.669C411.864 665.851 411.707 666.007 411.525 666.129C411.342 666.251 411.138 666.335 410.923 666.378C410.707 666.421 410.486 666.42 410.271 666.377C410.056 666.334 409.851 666.25 409.669 666.128C409.487 666.005 409.33 665.849 409.208 665.666C409.087 665.484 409.002 665.279 408.96 665.064C408.917 664.849 408.917 664.627 408.96 664.412C409.131 663.561 409.285 662.699 409.42 661.855C409.476 661.505 409.642 661.181 409.894 660.932C410.146 660.682 410.471 660.519 410.821 660.466C411.172 660.414 411.53 660.474 411.845 660.638C412.159 660.803 412.412 661.063 412.569 661.382V661.379Z" fill="#74767B"/>
</g>
<g filter="url(#filter1_d)">
<path d="M394.189 667.883C394.259 667.736 394.28 667.57 394.25 667.41C394.22 667.25 394.139 667.104 394.02 666.993L387.151 660.433C388.048 656.025 388.221 651.501 387.663 647.038L394.997 641.03C395.124 640.928 395.215 640.789 395.258 640.631C395.3 640.474 395.291 640.308 395.232 640.156L391.284 629.463C391.227 629.311 391.125 629.18 390.991 629.088C390.857 628.996 390.697 628.949 390.534 628.952L381.044 629.172C378.559 625.423 375.479 622.105 371.927 619.346L372.858 609.884C372.876 609.723 372.842 609.559 372.761 609.418C372.68 609.277 372.556 609.165 372.408 609.099L362.053 604.348C361.906 604.278 361.741 604.256 361.581 604.287C361.421 604.317 361.274 604.397 361.163 604.516L354.603 611.385C350.197 610.488 345.673 610.316 341.211 610.874L335.191 603.537C335.088 603.411 334.948 603.32 334.791 603.278C334.634 603.235 334.468 603.243 334.316 603.299L323.624 607.273C323.47 607.327 323.337 607.429 323.245 607.564C323.153 607.699 323.107 607.859 323.112 608.022L323.329 617.513C319.581 619.997 316.263 623.077 313.507 626.63L304.044 625.699C303.883 625.681 303.719 625.715 303.578 625.796C303.437 625.877 303.325 626 303.259 626.149L298.505 636.504C298.438 636.652 298.418 636.817 298.449 636.976C298.48 637.136 298.559 637.282 298.676 637.394L305.546 643.951C304.647 648.358 304.475 652.883 305.034 657.346L297.697 663.366C297.571 663.469 297.481 663.609 297.438 663.766C297.395 663.922 297.403 664.089 297.459 664.241L301.42 674.923C301.475 675.077 301.577 675.21 301.711 675.301C301.846 675.393 302.007 675.44 302.17 675.435L311.658 675.217C314.144 678.965 317.224 682.283 320.777 685.04L319.844 694.502C319.828 694.664 319.864 694.826 319.945 694.967C320.026 695.108 320.149 695.22 320.296 695.287L330.674 700.031C330.822 700.099 330.987 700.118 331.147 700.088C331.306 700.057 331.452 699.977 331.564 699.86L338.124 692.991C342.531 693.889 347.056 694.062 351.519 693.502L357.527 700.837C357.628 700.964 357.768 701.056 357.925 701.099C358.082 701.142 358.249 701.133 358.401 701.075L369.083 697.113C369.237 697.059 369.37 696.957 369.462 696.822C369.554 696.688 369.6 696.527 369.595 696.364L369.375 686.876C373.124 684.391 376.443 681.31 379.2 677.757L388.662 678.688C388.824 678.705 388.987 678.672 389.128 678.591C389.27 678.51 389.381 678.386 389.448 678.237L394.189 667.883Z" fill="#34D2A5"/>
</g>
<path d="M356.639 647.168C357.946 649.831 358.17 652.897 357.263 655.721C356.356 658.546 354.389 660.908 351.776 662.312C349.163 663.716 346.107 664.052 343.251 663.25C340.395 662.447 337.962 660.568 336.463 658.008C334.964 655.448 334.516 652.407 335.214 649.523C335.911 646.64 337.7 644.14 340.203 642.548C342.706 640.956 345.729 640.397 348.636 640.988C351.543 641.579 354.107 643.275 355.79 645.718C356.108 646.18 356.392 646.664 356.639 647.168V647.168ZM338.461 656.055C338.653 656.445 338.872 656.821 339.119 657.18C340.405 659.048 342.366 660.345 344.589 660.798C346.812 661.251 349.124 660.825 351.039 659.608C352.954 658.392 354.323 656.481 354.858 654.276C355.393 652.072 355.053 649.745 353.909 647.786C352.765 645.828 350.906 644.388 348.723 643.772C346.539 643.155 344.202 643.408 342.202 644.479C340.202 645.549 338.695 647.354 337.997 649.512C337.299 651.671 337.466 654.016 338.461 656.055Z" fill="#979AA0"/>
<path d="M371.385 639.665C371.81 640.531 372.19 641.418 372.525 642.322C372.633 642.611 372.735 642.897 372.832 643.189C373.309 644.617 373.673 646.08 373.919 647.565C373.918 647.585 373.918 647.605 373.919 647.626C373.919 647.682 373.937 647.741 373.945 647.797C373.963 647.91 373.981 648.02 373.996 648.132C374.016 648.272 373.991 648.414 373.926 648.539C373.86 648.664 373.757 648.765 373.63 648.828C373.567 648.857 373.5 648.878 373.431 648.889C373.343 648.903 373.253 648.899 373.167 648.878C373.081 648.857 373 648.819 372.928 648.766C372.857 648.713 372.797 648.647 372.751 648.57C372.706 648.494 372.676 648.409 372.664 648.322C372.39 646.432 371.918 644.577 371.254 642.787C369.41 637.813 366.133 633.498 361.836 630.387C357.539 627.276 352.416 625.509 347.115 625.309C341.814 625.109 336.573 626.486 332.054 629.265C327.536 632.044 323.943 636.101 321.73 640.922C319.517 645.743 318.783 651.112 319.621 656.35C320.459 661.588 322.832 666.46 326.439 670.35C330.046 674.24 334.726 676.972 339.886 678.202C345.046 679.432 350.455 679.105 355.429 677.261C359.984 675.576 363.997 672.688 367.042 668.906C367.103 668.829 367.181 668.767 367.27 668.724C367.407 668.655 367.564 668.636 367.713 668.669C367.863 668.702 367.997 668.785 368.092 668.905C368.188 669.025 368.239 669.174 368.237 669.328C368.236 669.481 368.181 669.629 368.083 669.747C365.503 672.963 362.246 675.571 358.544 677.386C357.692 677.805 356.816 678.182 355.915 678.516C349.147 681.034 341.669 680.855 335.029 678.016C328.388 675.177 323.092 669.896 320.235 663.263C317.379 656.63 317.179 649.153 319.679 642.377C322.179 635.602 327.186 630.046 333.666 626.858C334.534 626.432 335.423 626.051 336.328 625.714C342.862 623.293 350.061 623.379 356.534 625.956C363.007 628.533 368.296 633.418 371.377 639.667L371.385 639.665Z" fill="#979AA0"/>
<g opacity="0.3">
<path opacity="0.3" d="M447.559 738.09C447.657 738.29 447.688 738.516 447.647 738.735C447.605 738.954 447.493 739.153 447.328 739.302C446.681 739.896 446.011 740.474 445.331 741.026C445.119 741.199 444.847 741.28 444.574 741.252C444.302 741.224 444.052 741.089 443.88 740.876C443.707 740.664 443.626 740.392 443.654 740.12C443.682 739.848 443.817 739.598 444.029 739.425C444.679 738.898 445.308 738.346 445.935 737.783C446.052 737.673 446.194 737.592 446.349 737.547C446.503 737.502 446.666 737.494 446.825 737.524C446.983 737.554 447.132 737.621 447.259 737.719C447.387 737.818 447.489 737.945 447.559 738.09V738.09Z" fill="#74767B"/>
<path opacity="0.3" d="M441.242 742.888C441.356 743.117 441.379 743.38 441.309 743.625C441.238 743.871 441.079 744.081 440.861 744.215C439.577 745.016 438.253 745.751 436.894 746.417C436.61 746.558 436.321 746.693 436.032 746.829C435.783 746.934 435.503 746.942 435.249 746.849C434.994 746.757 434.785 746.571 434.662 746.33C434.604 746.207 434.571 746.073 434.565 745.937C434.56 745.801 434.581 745.665 434.629 745.537C434.677 745.409 434.749 745.292 434.843 745.193C434.936 745.094 435.048 745.014 435.173 744.959C435.449 744.831 435.726 744.703 435.997 744.565C437.292 743.929 438.554 743.229 439.779 742.466C439.894 742.393 440.022 742.343 440.156 742.321C440.29 742.298 440.427 742.302 440.559 742.332C440.691 742.363 440.816 742.42 440.927 742.499C441.037 742.579 441.13 742.68 441.201 742.796C441.208 742.826 441.226 742.857 441.242 742.888ZM431.524 747.399C431.545 747.443 431.564 747.488 431.58 747.534C431.664 747.795 431.641 748.079 431.516 748.323C431.392 748.567 431.176 748.751 430.915 748.836C429.173 749.4 427.397 749.856 425.598 750.202C425.33 750.253 425.052 750.196 424.825 750.043C424.599 749.889 424.443 749.652 424.391 749.383C424.34 749.115 424.397 748.837 424.55 748.61C424.704 748.384 424.941 748.228 425.21 748.176C426.925 747.846 428.619 747.41 430.281 746.872C430.518 746.792 430.776 746.801 431.006 746.898C431.236 746.995 431.423 747.173 431.531 747.399H431.524ZM421.008 749.419C421.085 749.571 421.122 749.74 421.118 749.91C421.113 750.08 421.066 750.246 420.98 750.394C420.895 750.541 420.774 750.665 420.629 750.754C420.484 750.842 420.319 750.894 420.149 750.902C418.321 751.022 416.487 751.028 414.658 750.92C414.524 750.912 414.392 750.878 414.271 750.82C414.15 750.761 414.042 750.679 413.952 750.578C413.863 750.478 413.794 750.361 413.75 750.233C413.706 750.106 413.687 749.972 413.695 749.837C413.703 749.703 413.737 749.572 413.796 749.45C413.855 749.329 413.937 749.221 414.037 749.132C414.138 749.042 414.255 748.973 414.382 748.929C414.509 748.885 414.644 748.867 414.778 748.874C416.523 748.977 418.272 748.971 420.016 748.857C420.219 748.84 420.424 748.884 420.602 748.984C420.78 749.085 420.924 749.236 421.016 749.419H421.008ZM410.318 748.795C410.405 748.966 410.442 749.159 410.424 749.35C410.407 749.541 410.336 749.723 410.22 749.876C410.104 750.029 409.948 750.146 409.768 750.214C409.589 750.282 409.394 750.298 409.206 750.261C407.403 749.93 405.623 749.487 403.876 748.936C403.747 748.895 403.627 748.829 403.523 748.742C403.42 748.655 403.334 748.548 403.272 748.428C403.209 748.308 403.171 748.177 403.159 748.042C403.148 747.907 403.163 747.771 403.203 747.642C403.244 747.513 403.31 747.393 403.397 747.289C403.484 747.185 403.591 747.1 403.711 747.038C403.831 746.975 403.963 746.937 404.098 746.925C404.232 746.913 404.368 746.928 404.498 746.969C406.164 747.495 407.861 747.917 409.579 748.233C409.739 748.26 409.891 748.326 410.02 748.424C410.15 748.521 410.255 748.649 410.326 748.795H410.318ZM400.107 745.578C400.206 745.769 400.242 745.986 400.211 746.199C400.179 746.412 400.081 746.609 399.931 746.763C399.781 746.917 399.586 747.02 399.375 747.057C399.163 747.094 398.945 747.063 398.751 746.969C397.086 746.209 395.468 745.348 393.907 744.391C393.792 744.321 393.692 744.228 393.612 744.118C393.533 744.008 393.476 743.884 393.444 743.753C393.413 743.621 393.408 743.484 393.429 743.351C393.45 743.217 393.498 743.089 393.569 742.973C393.639 742.858 393.732 742.758 393.842 742.678C393.952 742.599 394.076 742.542 394.207 742.51C394.339 742.479 394.476 742.474 394.609 742.495C394.743 742.516 394.871 742.564 394.987 742.635C396.475 743.547 398.019 744.368 399.608 745.092C399.828 745.191 400.006 745.363 400.114 745.578H400.107ZM390.984 739.98C391.098 740.19 391.134 740.434 391.087 740.668C391.039 740.902 390.911 741.113 390.725 741.263C390.539 741.412 390.306 741.492 390.067 741.488C389.828 741.484 389.598 741.397 389.417 741.241C387.986 740.098 386.627 738.868 385.348 737.558C385.253 737.461 385.179 737.347 385.129 737.221C385.078 737.095 385.053 736.961 385.055 736.826C385.057 736.69 385.085 736.557 385.138 736.432C385.192 736.308 385.269 736.195 385.366 736.1C385.463 736.006 385.577 735.931 385.703 735.881C385.829 735.831 385.963 735.806 386.098 735.807C386.234 735.809 386.367 735.837 386.492 735.891C386.616 735.944 386.729 736.021 386.824 736.118C388.043 737.367 389.338 738.539 390.703 739.627C390.825 739.721 390.924 739.842 390.992 739.98H390.984ZM383.519 732.328C383.59 732.443 383.638 732.571 383.659 732.704C383.68 732.837 383.675 732.973 383.644 733.104C383.613 733.236 383.556 733.359 383.477 733.469C383.398 733.578 383.298 733.671 383.183 733.741C383.068 733.812 382.941 733.859 382.807 733.881C382.674 733.902 382.538 733.897 382.407 733.866C382.276 733.835 382.152 733.778 382.043 733.699C381.934 733.62 381.841 733.52 381.77 733.405C380.664 731.945 379.649 730.419 378.729 728.835C378.661 728.717 378.617 728.588 378.599 728.453C378.582 728.318 378.59 728.182 378.625 728.05C378.66 727.919 378.721 727.796 378.804 727.688C378.886 727.581 378.989 727.49 379.107 727.422C379.224 727.354 379.354 727.31 379.489 727.292C379.623 727.274 379.76 727.283 379.891 727.318C380.023 727.353 380.146 727.414 380.253 727.496C380.361 727.579 380.452 727.682 380.52 727.799C381.396 729.307 382.366 730.759 383.422 732.147C383.459 732.205 383.492 732.265 383.519 732.328V732.328ZM376.359 718.007C376.384 718.062 376.406 718.118 376.423 718.176C376.844 719.635 377.342 721.071 377.916 722.477C378.003 722.692 378.09 722.902 378.172 723.109C378.226 723.233 378.255 723.367 378.257 723.503C378.259 723.639 378.234 723.774 378.183 723.9C378.132 724.025 378.057 724.14 377.962 724.237C377.866 724.333 377.753 724.41 377.627 724.462C377.503 724.516 377.369 724.545 377.234 724.547C377.098 724.549 376.963 724.524 376.837 724.474C376.711 724.423 376.597 724.348 376.5 724.253C376.404 724.158 376.327 724.045 376.274 723.92C376.18 723.7 376.088 723.477 375.996 723.252C375.397 721.779 374.875 720.274 374.433 718.746C374.385 718.62 374.361 718.486 374.365 718.351C374.368 718.216 374.398 718.083 374.453 717.96C374.507 717.836 374.586 717.725 374.684 717.632C374.781 717.539 374.897 717.466 375.023 717.418C375.149 717.369 375.283 717.346 375.418 717.349C375.553 717.353 375.686 717.382 375.809 717.437C375.932 717.492 376.044 717.57 376.137 717.668C376.23 717.766 376.303 717.881 376.351 718.007H376.359Z" fill="#74767B"/>
</g>
<g opacity="0.3">
<path opacity="0.3" d="M456.959 686.296C457.081 686.541 457.101 686.824 457.014 687.083C456.928 687.343 456.741 687.557 456.496 687.679C456.375 687.74 456.243 687.776 456.108 687.785C455.973 687.795 455.837 687.777 455.709 687.734C455.449 687.648 455.235 687.461 455.113 687.216C454.337 685.684 453.468 684.201 452.512 682.774C452.437 682.662 452.384 682.536 452.358 682.403C452.331 682.27 452.331 682.133 452.357 682C452.383 681.867 452.435 681.741 452.51 681.628C452.586 681.516 452.682 681.419 452.795 681.343C452.907 681.268 453.033 681.216 453.166 681.189C453.299 681.162 453.436 681.162 453.569 681.188C453.701 681.215 453.828 681.267 453.941 681.342C454.053 681.417 454.15 681.514 454.225 681.626C455.227 683.122 456.138 684.677 456.952 686.283L456.959 686.296ZM459.056 691.137C459.072 691.17 459.087 691.206 459.1 691.242C459.714 692.934 460.227 694.662 460.634 696.415C460.665 696.547 460.67 696.684 460.648 696.818C460.626 696.952 460.578 697.08 460.506 697.195C460.435 697.31 460.341 697.41 460.231 697.489C460.121 697.568 459.996 697.625 459.864 697.656C459.732 697.687 459.596 697.691 459.462 697.669C459.328 697.647 459.2 697.599 459.085 697.528C458.97 697.456 458.87 697.363 458.791 697.253C458.712 697.142 458.655 697.018 458.624 696.886C458.235 695.211 457.744 693.561 457.156 691.945C457.049 691.694 457.046 691.41 457.148 691.157C457.25 690.903 457.448 690.701 457.7 690.593C457.951 690.486 458.235 690.483 458.488 690.585C458.741 690.687 458.944 690.886 459.051 691.137H459.056ZM451.098 677.55C451.237 677.776 451.283 678.047 451.226 678.307C451.169 678.566 451.013 678.793 450.791 678.94C450.57 679.087 450.3 679.141 450.039 679.092C449.777 679.043 449.545 678.894 449.392 678.677C448.268 677.378 447.065 676.148 445.791 674.995C445.588 674.811 445.466 674.554 445.452 674.28C445.438 674.006 445.533 673.738 445.717 673.535C445.901 673.331 446.158 673.209 446.432 673.195C446.706 673.181 446.974 673.277 447.177 673.46C448.512 674.671 449.773 675.962 450.952 677.325C451.009 677.392 451.058 677.466 451.098 677.544V677.55ZM461.44 701.4C461.493 701.508 461.527 701.625 461.54 701.745C461.735 703.537 461.82 705.339 461.795 707.141C461.791 707.415 461.678 707.675 461.481 707.866C461.285 708.056 461.02 708.161 460.747 708.156C460.473 708.152 460.212 708.039 460.022 707.842C459.832 707.646 459.727 707.381 459.731 707.108C459.759 705.389 459.681 703.671 459.499 701.962C459.459 701.716 459.511 701.463 459.645 701.252C459.779 701.041 459.985 700.887 460.225 700.817C460.465 700.748 460.722 700.769 460.948 700.876C461.174 700.984 461.352 701.17 461.45 701.4H461.44ZM443.295 670.478C443.406 670.684 443.442 670.921 443.399 671.151C443.356 671.38 443.236 671.588 443.059 671.74C442.881 671.891 442.658 671.978 442.424 671.985C442.191 671.992 441.962 671.919 441.776 671.778C440.373 670.786 438.911 669.881 437.398 669.067C437.279 669.003 437.173 668.916 437.088 668.811C437.002 668.706 436.938 668.585 436.899 668.455C436.86 668.326 436.847 668.19 436.861 668.055C436.874 667.92 436.914 667.79 436.979 667.67C437.043 667.551 437.13 667.446 437.235 667.36C437.34 667.275 437.46 667.211 437.59 667.172C437.852 667.093 438.134 667.122 438.375 667.251C439.966 668.104 441.503 669.052 442.978 670.092C443.114 670.191 443.222 670.322 443.295 670.473V670.478ZM434.027 665.486C434.124 665.673 434.16 665.884 434.133 666.092C434.105 666.3 434.013 666.495 433.871 666.649C433.729 666.803 433.543 666.91 433.338 666.955C433.133 667 432.919 666.981 432.726 666.901C431.124 666.275 429.487 665.746 427.823 665.315C427.558 665.247 427.331 665.077 427.192 664.842C427.053 664.607 427.012 664.326 427.08 664.061C427.148 663.796 427.318 663.569 427.554 663.43C427.789 663.29 428.07 663.25 428.335 663.318C430.079 663.77 431.794 664.325 433.472 664.98C433.713 665.072 433.911 665.251 434.027 665.481V665.486ZM423.826 662.858C423.916 663.04 423.95 663.244 423.923 663.446C423.907 663.581 423.863 663.711 423.796 663.829C423.728 663.946 423.638 664.05 423.53 664.132C423.422 664.215 423.299 664.275 423.168 664.31C423.036 664.344 422.899 664.352 422.765 664.333C421.061 664.108 419.345 663.986 417.627 663.97C417.492 663.969 417.358 663.941 417.233 663.888C417.109 663.835 416.996 663.758 416.901 663.661C416.806 663.564 416.732 663.45 416.681 663.324C416.631 663.199 416.605 663.064 416.607 662.929C416.608 662.794 416.636 662.66 416.689 662.536C416.742 662.411 416.819 662.298 416.916 662.203C417.012 662.109 417.127 662.034 417.252 661.983C417.378 661.933 417.512 661.907 417.647 661.909C419.45 661.925 421.249 662.052 423.036 662.29C423.204 662.311 423.364 662.373 423.502 662.471C423.64 662.57 423.751 662.701 423.826 662.852V662.858Z" fill="#74767B"/>
<path opacity="0.3" d="M461.269 711.974C461.358 712.16 461.391 712.368 461.363 712.573C461.24 713.445 461.092 714.32 460.921 715.171C460.894 715.304 460.841 715.43 460.766 715.542C460.691 715.655 460.594 715.751 460.481 715.826C460.368 715.901 460.242 715.953 460.109 715.979C459.976 716.005 459.84 716.005 459.707 715.978C459.575 715.951 459.448 715.899 459.336 715.823C459.224 715.748 459.127 715.651 459.052 715.538C458.978 715.426 458.926 715.299 458.899 715.167C458.873 715.034 458.874 714.897 458.9 714.765C459.061 713.954 459.205 713.12 459.32 712.286C459.344 712.063 459.441 711.855 459.595 711.692C459.75 711.529 459.954 711.422 460.175 711.387C460.397 711.351 460.624 711.39 460.821 711.496C461.019 711.602 461.176 711.77 461.269 711.974Z" fill="#74767B"/>
</g>
<path d="M448.929 717.073C448.979 716.975 448.995 716.864 448.976 716.756C448.957 716.647 448.904 716.548 448.824 716.472L444.221 712.081C444.82 709.136 444.935 706.113 444.561 703.131L449.471 699.1C449.556 699.032 449.618 698.939 449.646 698.835C449.675 698.73 449.669 698.619 449.63 698.517L446.978 691.357C446.941 691.252 446.871 691.162 446.779 691.101C446.687 691.04 446.577 691.01 446.467 691.016L440.117 691.162C438.455 688.653 436.393 686.432 434.015 684.587L434.639 678.263C434.651 678.154 434.629 678.045 434.574 677.95C434.52 677.855 434.437 677.78 434.337 677.736L427.409 674.557C427.311 674.51 427.2 674.495 427.093 674.516C426.985 674.536 426.888 674.59 426.813 674.67L422.425 679.273C419.479 678.674 416.456 678.559 413.474 678.933L409.441 674.02C409.373 673.935 409.28 673.873 409.174 673.845C409.069 673.816 408.957 673.822 408.855 673.862L401.695 676.511C401.59 676.548 401.501 676.618 401.439 676.71C401.378 676.802 401.348 676.912 401.355 677.023L401.5 683.372C398.992 685.035 396.772 687.096 394.928 689.474L388.616 688.853C388.508 688.841 388.399 688.864 388.305 688.918C388.211 688.972 388.136 689.055 388.092 689.155L384.911 696.083C384.866 696.182 384.853 696.292 384.873 696.399C384.894 696.506 384.947 696.603 385.026 696.678L389.629 701.067C389.03 704.012 388.915 707.035 389.289 710.018L384.379 714.051C384.295 714.12 384.235 714.213 384.207 714.318C384.178 714.423 384.183 714.534 384.22 714.636L386.872 721.797C386.909 721.901 386.979 721.991 387.071 722.052C387.163 722.114 387.273 722.143 387.384 722.137L393.734 721.991C395.396 724.5 397.456 726.721 399.833 728.566L399.194 734.885C399.182 734.994 399.204 735.103 399.259 735.197C399.313 735.291 399.396 735.366 399.495 735.41L406.423 738.591C406.522 738.636 406.633 738.649 406.74 738.629C406.846 738.608 406.944 738.555 407.019 738.476L411.408 733.873C414.353 734.472 417.376 734.586 420.358 734.213L424.386 739.123C424.455 739.207 424.549 739.267 424.654 739.296C424.759 739.324 424.87 739.319 424.972 739.282L432.133 736.632C432.236 736.593 432.324 736.523 432.385 736.431C432.446 736.339 432.477 736.231 432.473 736.121L432.327 729.771C434.834 728.106 437.054 726.046 438.899 723.669L445.224 724.293C445.332 724.303 445.441 724.28 445.535 724.226C445.63 724.172 445.705 724.09 445.75 723.991L448.929 717.073Z" fill="#D8DEE8"/>
<path d="M423.931 703.154C424.815 704.968 424.962 707.054 424.34 708.973C423.719 710.893 422.377 712.497 420.597 713.448C418.818 714.399 416.738 714.623 414.797 714.073C412.856 713.523 411.203 712.242 410.186 710.499C409.17 708.756 408.869 706.686 409.346 704.726C409.824 702.765 411.043 701.066 412.747 699.986C414.451 698.905 416.508 698.527 418.485 698.932C420.462 699.336 422.205 700.491 423.348 702.154C423.567 702.472 423.762 702.806 423.931 703.154V703.154ZM411.768 709.097C411.892 709.35 412.034 709.594 412.193 709.826C413.055 711.081 414.381 711.942 415.878 712.219C417.375 712.496 418.921 712.168 420.176 711.305C421.43 710.443 422.291 709.118 422.569 707.62C422.846 706.123 422.517 704.577 421.655 703.323V703.323C420.833 702.131 419.591 701.294 418.178 700.98C416.765 700.665 415.286 700.896 414.036 701.626C412.786 702.357 411.858 703.532 411.439 704.918C411.019 706.303 411.139 707.796 411.773 709.097H411.768Z" fill="#979AA0"/>
<path d="M434.204 697.95C435.075 699.732 435.673 701.636 435.976 703.596L436.002 703.773C436.041 704.044 435.97 704.32 435.806 704.539C435.642 704.759 435.397 704.904 435.126 704.943C434.854 704.982 434.579 704.911 434.359 704.747C434.14 704.583 433.995 704.338 433.956 704.067C433.779 702.844 433.473 701.644 433.043 700.487V700.487L432.971 700.295C431.948 697.604 430.266 695.213 428.079 693.341C426.888 692.324 425.566 691.472 424.148 690.807L424.115 690.792L424.008 690.74C421.412 689.549 418.563 689.016 415.713 689.188C412.862 689.361 410.098 690.234 407.666 691.73C405.233 693.226 403.207 695.299 401.767 697.765C400.327 700.231 399.518 703.014 399.41 705.868C399.303 708.722 399.901 711.558 401.151 714.125C402.402 716.693 404.266 718.912 406.579 720.587C408.893 722.261 411.583 723.34 414.412 723.726C417.242 724.112 420.123 723.795 422.801 722.802C425.745 721.713 428.338 719.844 430.304 717.396C430.398 717.277 430.518 717.18 430.654 717.115C430.865 717.001 431.109 716.965 431.343 717.013C431.577 717.061 431.788 717.189 431.937 717.376C432.087 717.562 432.166 717.796 432.162 718.035C432.157 718.274 432.069 718.504 431.912 718.685C430.132 720.904 427.885 722.704 425.33 723.956C424.739 724.246 424.134 724.506 423.517 724.736C418.858 726.418 413.732 726.259 409.187 724.29C404.642 722.321 401.02 718.691 399.061 714.142C397.103 709.592 396.955 704.466 398.648 699.811C400.342 695.156 403.748 691.324 408.172 689.096C412.799 686.824 418.138 686.48 423.018 688.14C427.897 689.801 431.918 693.33 434.199 697.952L434.204 697.95Z" fill="#979AA0"/>
<path d="M589.05 680.339C589.119 680.314 626.446 614.948 631.502 608.795C631.92 608.287 632.458 607.892 633.068 607.646C633.678 607.401 634.34 607.313 634.993 607.391L645.412 608.633L657.651 635.112L637.261 623.236C639.279 637.192 613.084 657.929 604.1 665.497C603.884 665.678 603.708 665.902 603.582 666.154C603.456 666.407 603.383 666.682 603.368 666.964C603.353 667.245 603.395 667.527 603.493 667.791C603.591 668.056 603.742 668.298 603.936 668.501L607.517 672.256C601.635 678.225 594.832 682.055 587.165 683.828L589.05 680.339Z" fill="url(#paint38_linear)"/>
<path d="M605.435 670.228C605.435 670.228 607.724 670.969 608.504 673.008C608.672 673.49 608.677 674.014 608.518 674.499C608.36 674.985 608.047 675.405 607.627 675.695C603.857 678.396 591.423 687.114 585.687 688.82C585.579 688.851 585.464 688.853 585.354 688.827C585.245 688.8 585.144 688.746 585.062 688.668C584.98 688.591 584.919 688.493 584.886 688.385C584.853 688.277 584.849 688.163 584.874 688.053C585.168 686.72 586.122 684.058 589.191 680.163L588.914 680.721C588.839 680.873 588.815 681.046 588.844 681.213C588.874 681.38 588.956 681.534 589.079 681.651C589.202 681.769 589.36 681.844 589.528 681.865C589.697 681.887 589.868 681.854 590.017 681.772C593.853 679.608 601.668 674.867 605.435 670.228Z" fill="#333435"/>
<path d="M603.588 696.384C603.652 696.343 609.25 682.851 609.314 682.81C614.45 651.549 626.976 624.776 630.671 617.73C630.977 617.148 631.424 616.652 631.972 616.288C632.52 615.924 633.151 615.704 633.806 615.648L644.261 614.756L661.597 638.217L639.225 630.716C644.026 643.971 622.569 669.588 615.304 678.81C615.129 679.032 615.001 679.287 614.929 679.559C614.857 679.832 614.841 680.117 614.883 680.395C614.925 680.674 615.024 680.942 615.173 681.181C615.322 681.421 615.519 681.627 615.751 681.787L620.025 684.738C615.465 691.774 609.588 696.901 602.435 700.19L603.588 696.384Z" fill="url(#paint39_linear)"/>
<path d="M617.59 683.166C617.59 683.166 619.981 683.421 621.153 685.265C621.415 685.704 621.526 686.217 621.47 686.725C621.413 687.233 621.191 687.708 620.838 688.078C617.693 691.485 607.284 702.54 602.008 705.371C601.909 705.424 601.797 705.449 601.685 705.446C601.573 705.442 601.463 705.409 601.368 705.35C601.272 705.291 601.193 705.208 601.139 705.11C601.085 705.011 601.058 704.9 601.059 704.788C601.077 703.422 601.471 700.625 603.688 696.188L603.53 696.789C603.487 696.953 603.497 697.128 603.56 697.286C603.623 697.444 603.735 697.578 603.88 697.668C604.025 697.758 604.194 697.8 604.364 697.786C604.534 697.773 604.695 697.706 604.824 697.594C608.148 694.694 614.839 688.47 617.59 683.166Z" fill="#333435"/>
<path d="M693.194 609.831C693.194 609.831 702.656 623.896 703.423 630.312C704.19 636.729 700.807 638.949 690.907 639.775C661.452 642.209 646.921 633.381 646.921 633.381C644.908 620.533 643.473 617.27 626.643 610.281C626.643 610.281 647.931 611.969 652.217 610.306C656.503 608.644 693.194 609.831 693.194 609.831Z" fill="#2E987A"/>
<path d="M660.398 530.041C660.398 530.041 665.374 530.946 666.863 533.168C668.057 534.958 672.972 533.851 674.535 537.58C674.911 538.516 675.584 539.302 676.451 539.818C677.318 540.335 678.33 540.552 679.333 540.436C684.493 539.812 692.833 540.25 696.467 548.497C699.231 554.791 696.585 558.215 693.319 560.051C690.92 561.404 689.907 564.399 691.155 566.844C692.355 569.196 692.414 572.288 688.731 575.779C680.476 583.594 665.991 569.086 665.991 569.086L655.605 539.582L660.398 530.041Z" fill="#2F2E41"/>
<path d="M667.617 607.956C667.617 607.956 656.605 597.471 651.184 590.522C649.742 588.67 648.763 586.5 648.329 584.193C647.896 581.886 648.019 579.509 648.69 577.26C651.163 568.923 655.562 560.287 655.963 558.941C656.577 556.895 668.927 556.967 668.927 556.967C668.927 556.967 693.222 572.738 702.773 599.45L692.05 602.79C692.05 602.79 685.706 592.146 679.437 585.377C679.437 585.377 690.283 599.698 690.667 605.58L667.617 607.956Z" fill="url(#paint40_linear)"/>
<path d="M646.634 612.094L654.91 603.089L664.467 605.664C664.467 605.664 675.609 607.391 681.985 605.664L688.363 603.938L702.773 599.45L705.037 605.843C705.315 606.634 705.328 607.494 705.075 608.292C704.821 609.091 704.314 609.785 703.63 610.27C702.382 611.155 700.922 612.129 699.988 612.536C698.091 613.367 656.273 612.792 656.273 612.792L646.634 612.094Z" fill="url(#paint41_linear)"/>
<path d="M662.186 540.073L668.74 557.553C668.19 560.923 659.707 561.018 658.396 559.005C658.27 558.796 658.183 558.565 658.14 558.325L655.46 545.641C655.355 545.151 655.413 544.641 655.624 544.187C655.836 543.734 656.189 543.361 656.631 543.127L659.93 541.37C661.191 540.705 661.748 538.702 662.186 540.073Z" fill="url(#paint42_linear)"/>
<path d="M646.13 533.071C646.13 533.071 644.084 537.963 646.68 545.316C649.276 552.668 653.311 553.243 655.843 551.387C658.375 549.53 661.646 546.211 661.96 539.51C662.275 532.81 648.941 526.88 646.13 533.071Z" fill="url(#paint43_linear)"/>
<path d="M656.958 539.147C656.958 539.147 652.355 529.212 645.742 535.539L645.263 538.122C645.263 538.122 638.857 536.398 640.87 530.588C642.882 524.777 649.053 521.865 655.935 525.509C662.817 529.153 666.582 532.414 666.293 537.682C666.004 542.95 662.582 540.973 662.582 540.973C662.582 540.973 661.216 537.349 659.354 536.69C657.493 536.03 657.564 538.955 657.564 538.955L656.958 539.147Z" fill="#2F2E41"/>
<path d="M658.498 539.247C658.498 539.247 656.096 534.153 659.349 533.92C662.602 533.688 661.354 538.835 660.733 540.715L658.498 539.247Z" fill="url(#paint44_linear)"/>
<path d="M674.026 615.656H673.939L635.878 615.615C635.426 615.615 634.993 615.436 634.674 615.116C634.354 614.797 634.175 614.364 634.175 613.912C634.175 613.46 634.354 613.027 634.674 612.708C634.993 612.388 635.426 612.209 635.878 612.209L673.939 612.25C674.382 612.252 674.807 612.427 675.123 612.737C675.439 613.047 675.622 613.468 675.633 613.911C675.644 614.353 675.482 614.783 675.182 615.108C674.881 615.434 674.466 615.629 674.024 615.654L674.026 615.656Z" fill="#2F2E41"/>
<path d="M601.663 581.098H633.359C634.507 581.096 635.632 581.42 636.602 582.034C637.572 582.648 638.347 583.525 638.837 584.564L653.491 615.636H614.107C613.371 615.636 612.651 615.414 612.043 615C611.434 614.586 610.963 613.998 610.693 613.314L599.328 584.561C599.177 584.179 599.121 583.765 599.166 583.356C599.21 582.947 599.353 582.556 599.583 582.215C599.813 581.874 600.123 581.594 600.485 581.399C600.847 581.205 601.252 581.102 601.663 581.098V581.098Z" fill="#2F2E41"/>
<path d="M624.004 597.043C624.689 599.179 624.183 601.25 622.871 601.672C621.559 602.094 619.935 600.708 619.25 598.575C618.564 596.442 619.071 594.368 620.383 593.944C621.695 593.519 623.306 594.898 624.004 597.043Z" fill="#FFA412"/>
<defs>
<filter id="filter0_d" x="247.722" y="295.892" width="809.363" height="683.17" filterUnits="userSpaceOnUse" color-interpolation-filters="sRGB">
<feFlood flood-opacity="0" result="BackgroundImageFix"/>
<feColorMatrix in="SourceAlpha" type="matrix" values="0 0 0 0 0 0 0 0 0 0 0 0 0 0 0 0 0 0 127 0"/>
<feOffset dy="4"/>
<feGaussianBlur stdDeviation="2"/>
<feColorMatrix type="matrix" values="0 0 0 0 0 0 0 0 0 0 0 0 0 0 0 0 0 0 0.25 0"/>
<feBlend mode="normal" in2="BackgroundImageFix" result="effect1_dropShadow"/>
<feBlend mode="normal" in="SourceGraphic" in2="effect1_dropShadow" result="shape"/>
</filter>
<filter id="filter1_d" x="293.411" y="603.25" width="105.873" height="105.875" filterUnits="userSpaceOnUse" color-interpolation-filters="sRGB">
<feFlood flood-opacity="0" result="BackgroundImageFix"/>
<feColorMatrix in="SourceAlpha" type="matrix" values="0 0 0 0 0 0 0 0 0 0 0 0 0 0 0 0 0 0 127 0"/>
<feOffset dy="4"/>
<feGaussianBlur stdDeviation="2"/>
<feColorMatrix type="matrix" values="0 0 0 0 0 0 0 0 0 0 0 0 0 0 0 0 0 0 0.25 0"/>
<feBlend mode="normal" in2="BackgroundImageFix" result="effect1_dropShadow"/>
<feBlend mode="normal" in="SourceGraphic" in2="effect1_dropShadow" result="shape"/>
</filter>
<linearGradient id="paint0_linear" x1="654.166" y1="327.981" x2="895.307" y2="506.828" gradientUnits="userSpaceOnUse">
<stop stop-color="#ABFFE7"/>
<stop offset="1" stop-color="#9571F6"/>
</linearGradient>
<linearGradient id="paint1_linear" x1="648.969" y1="372.683" x2="705.523" y2="380.183" gradientUnits="userSpaceOnUse">
<stop stop-color="#81DFC4"/>
<stop offset="1" stop-color="#9571F6"/>
</linearGradient>
<linearGradient id="paint2_linear" x1="684.423" y1="287.419" x2="516.693" y2="519.078" gradientUnits="userSpaceOnUse">
<stop stop-color="#FF9263"/>
<stop offset="0.0001" stop-color="#FF4D00"/>
<stop offset="0.8125" stop-color="#FFF510"/>
<stop offset="1" stop-color="#FFA950"/>
</linearGradient>
<linearGradient id="paint3_linear" x1="690143" y1="32790.4" x2="720507" y2="146830" gradientUnits="userSpaceOnUse">
<stop stop-color="#78E6C6"/>
<stop offset="1" stop-color="#9571F6"/>
</linearGradient>
<linearGradient id="paint4_linear" x1="706841" y1="13730.4" x2="712091" y2="63117.4" gradientUnits="userSpaceOnUse">
<stop stop-color="#78E6C6"/>
<stop offset="1" stop-color="#9571F6"/>
</linearGradient>
<linearGradient id="paint5_linear" x1="671653" y1="59430.4" x2="761236" y2="238213" gradientUnits="userSpaceOnUse">
<stop stop-color="#78E6C6"/>
<stop offset="1" stop-color="#9571F6"/>
</linearGradient>
<linearGradient id="paint6_linear" x1="690762" y1="6572.56" x2="691909" y2="29494.8" gradientUnits="userSpaceOnUse">
<stop stop-color="#78E6C6"/>
<stop offset="1" stop-color="#9571F6"/>
</linearGradient>
<linearGradient id="paint7_linear" x1="333732" y1="50240.6" x2="332824" y2="38507" gradientUnits="userSpaceOnUse">
<stop stop-color="#20A58D"/>
<stop offset="1" stop-color="#FF9A03"/>
</linearGradient>
<linearGradient id="paint8_linear" x1="333732" y1="50259.9" x2="332824" y2="38526.4" gradientUnits="userSpaceOnUse">
<stop stop-color="#20A58D"/>
<stop offset="1" stop-color="#FF9A03"/>
</linearGradient>
<linearGradient id="paint9_linear" x1="333732" y1="50279.3" x2="332824" y2="38545.7" gradientUnits="userSpaceOnUse">
<stop stop-color="#20A58D"/>
<stop offset="1" stop-color="#FF9A03"/>
</linearGradient>
<linearGradient id="paint10_linear" x1="333732" y1="50298.6" x2="332824" y2="38565" gradientUnits="userSpaceOnUse">
<stop stop-color="#20A58D"/>
<stop offset="1" stop-color="#FF9A03"/>
</linearGradient>
<linearGradient id="paint11_linear" x1="333732" y1="50318" x2="332824" y2="38584.4" gradientUnits="userSpaceOnUse">
<stop stop-color="#20A58D"/>
<stop offset="1" stop-color="#FF9A03"/>
</linearGradient>
<linearGradient id="paint12_linear" x1="333732" y1="50337.3" x2="332824" y2="38603.7" gradientUnits="userSpaceOnUse">
<stop stop-color="#20A58D"/>
<stop offset="1" stop-color="#FF9A03"/>
</linearGradient>
<linearGradient id="paint13_linear" x1="644.133" y1="484.746" x2="657.895" y2="509.639" gradientUnits="userSpaceOnUse">
<stop stop-color="#FF9263"/>
<stop offset="0.0001" stop-color="#FF4D00"/>
<stop offset="0.8125" stop-color="#FFF510"/>
<stop offset="1" stop-color="#FFA950"/>
</linearGradient>
<linearGradient id="paint14_linear" x1="643.578" y1="434.656" x2="657.341" y2="459.55" gradientUnits="userSpaceOnUse">
<stop stop-color="#FF9263"/>
<stop offset="0.0001" stop-color="#FF4D00"/>
<stop offset="0.8125" stop-color="#FFF510"/>
<stop offset="1" stop-color="#FFA950"/>
</linearGradient>
<linearGradient id="paint15_linear" x1="350.043" y1="539.009" x2="371.087" y2="558.146" gradientUnits="userSpaceOnUse">
<stop stop-color="#FF9263"/>
<stop offset="0.0001" stop-color="#FF4D00"/>
<stop offset="0.8125" stop-color="#FFF510"/>
<stop offset="1" stop-color="#FFA950"/>
</linearGradient>
<linearGradient id="paint16_linear" x1="347.818" y1="495.645" x2="374.888" y2="504.401" gradientUnits="userSpaceOnUse">
<stop stop-color="#FF9263"/>
<stop offset="0.0001" stop-color="#FF4D00"/>
<stop offset="0.8125" stop-color="#FFF510"/>
<stop offset="1" stop-color="#FFA950"/>
</linearGradient>
<linearGradient id="paint17_linear" x1="355.179" y1="431.972" x2="362.582" y2="459.436" gradientUnits="userSpaceOnUse">
<stop stop-color="#FF9263"/>
<stop offset="0.0001" stop-color="#FF4D00"/>
<stop offset="0.8125" stop-color="#FFF510"/>
<stop offset="1" stop-color="#FFA950"/>
</linearGradient>
<linearGradient id="paint18_linear" x1="542.237" y1="605.07" x2="565.639" y2="621.24" gradientUnits="userSpaceOnUse">
<stop stop-color="#FF9263"/>
<stop offset="0.0001" stop-color="#FF4D00"/>
<stop offset="0.8125" stop-color="#FFF510"/>
<stop offset="1" stop-color="#FFA950"/>
</linearGradient>
<linearGradient id="paint19_linear" x1="491.785" y1="606.808" x2="516.355" y2="621.139" gradientUnits="userSpaceOnUse">
<stop stop-color="#FF9263"/>
<stop offset="0.0001" stop-color="#FF4D00"/>
<stop offset="0.8125" stop-color="#FFF510"/>
<stop offset="1" stop-color="#FFA950"/>
</linearGradient>
<linearGradient id="paint20_linear" x1="455.242" y1="595.039" x2="451.428" y2="623.232" gradientUnits="userSpaceOnUse">
<stop stop-color="#FF9263"/>
<stop offset="0.0001" stop-color="#FF4D00"/>
<stop offset="0.8125" stop-color="#FFF510"/>
<stop offset="1" stop-color="#FFA950"/>
</linearGradient>
<linearGradient id="paint21_linear" x1="547.659" y1="330.392" x2="572.601" y2="344.067" gradientUnits="userSpaceOnUse">
<stop stop-color="#FF9263"/>
<stop offset="0.0001" stop-color="#FF4D00"/>
<stop offset="0.8125" stop-color="#FFF510"/>
<stop offset="1" stop-color="#FFA950"/>
</linearGradient>
<linearGradient id="paint22_linear" x1="509.733" y1="318.462" x2="508.456" y2="346.878" gradientUnits="userSpaceOnUse">
<stop stop-color="#FF9263"/>
<stop offset="0.0001" stop-color="#FF4D00"/>
<stop offset="0.8125" stop-color="#FFF510"/>
<stop offset="1" stop-color="#FFA950"/>
</linearGradient>
<linearGradient id="paint23_linear" x1="449.647" y1="326.211" x2="468.412" y2="347.588" gradientUnits="userSpaceOnUse">
<stop stop-color="#FF9263"/>
<stop offset="0.0001" stop-color="#FF4D00"/>
<stop offset="0.8125" stop-color="#FFF510"/>
<stop offset="1" stop-color="#FFA950"/>
</linearGradient>
<linearGradient id="paint24_linear" x1="18204.2" y1="201286" x2="32770.2" y2="201085" gradientUnits="userSpaceOnUse">
<stop stop-color="#137753"/>
<stop offset="1" stop-color="#893976"/>
</linearGradient>
<linearGradient id="paint25_linear" x1="18007.7" y1="201051" x2="32452.8" y2="200854" gradientUnits="userSpaceOnUse">
<stop stop-color="#137753"/>
<stop offset="1" stop-color="#893976"/>
</linearGradient>
<linearGradient id="paint26_linear" x1="13126.5" y1="201796" x2="23574.8" y2="201693" gradientUnits="userSpaceOnUse">
<stop stop-color="#137753"/>
<stop offset="1" stop-color="#893976"/>
</linearGradient>
<linearGradient id="paint27_linear" x1="57723.8" y1="90394.7" x2="104386" y2="85757.7" gradientUnits="userSpaceOnUse">
<stop stop-color="#137753"/>
<stop offset="1" stop-color="#893976"/>
</linearGradient>
<linearGradient id="paint28_linear" x1="56338.4" y1="63611.2" x2="101458" y2="57383.1" gradientUnits="userSpaceOnUse">
<stop stop-color="#137753"/>
<stop offset="1" stop-color="#893976"/>
</linearGradient>
<linearGradient id="paint29_linear" x1="60804" y1="60184.2" x2="109268" y2="52549.3" gradientUnits="userSpaceOnUse">
<stop stop-color="#137753"/>
<stop offset="1" stop-color="#893976"/>
</linearGradient>
<linearGradient id="paint30_linear" x1="15136.3" y1="194257" x2="27163.5" y2="194116" gradientUnits="userSpaceOnUse">
<stop stop-color="#137753"/>
<stop offset="1" stop-color="#893976"/>
</linearGradient>
<linearGradient id="paint31_linear" x1="18113" y1="194374" x2="32638.5" y2="194168" gradientUnits="userSpaceOnUse">
<stop stop-color="#137753"/>
<stop offset="1" stop-color="#893976"/>
</linearGradient>
<linearGradient id="paint32_linear" x1="26339.4" y1="176202" x2="47683.1" y2="175710" gradientUnits="userSpaceOnUse">
<stop stop-color="#137753"/>
<stop offset="1" stop-color="#893976"/>
</linearGradient>
<linearGradient id="paint33_linear" x1="62384.1" y1="66611.3" x2="112451" y2="59267.2" gradientUnits="userSpaceOnUse">
<stop stop-color="#137753"/>
<stop offset="1" stop-color="#893976"/>
</linearGradient>
<linearGradient id="paint34_linear" x1="58842.4" y1="91785" x2="106588" y2="87006" gradientUnits="userSpaceOnUse">
<stop stop-color="#137753"/>
<stop offset="1" stop-color="#893976"/>
</linearGradient>
<linearGradient id="paint35_linear" x1="62336" y1="58645.7" x2="112064" y2="50371.6" gradientUnits="userSpaceOnUse">
<stop stop-color="#137753"/>
<stop offset="1" stop-color="#893976"/>
</linearGradient>
<linearGradient id="paint36_linear" x1="429.276" y1="395.93" x2="516.193" y2="553.144" gradientUnits="userSpaceOnUse">
<stop stop-color="#FF9263"/>
<stop offset="0.0001" stop-color="#FF4D00"/>
<stop offset="0.8125" stop-color="#FFF510"/>
<stop offset="1" stop-color="#FFA950"/>
</linearGradient>
<linearGradient id="paint37_linear" x1="245179" y1="304525" x2="212207" y2="253444" gradientUnits="userSpaceOnUse">
<stop stop-color="#20A58D"/>
<stop offset="1" stop-color="#FF9A03"/>
</linearGradient>
<linearGradient id="paint38_linear" x1="596.106" y1="687.165" x2="642" y2="625.392" gradientUnits="userSpaceOnUse">
<stop stop-color="white"/>
<stop offset="1" stop-color="#EFEFF4"/>
</linearGradient>
<linearGradient id="paint39_linear" x1="105948" y1="154870" x2="116854" y2="155333" gradientUnits="userSpaceOnUse">
<stop stop-color="white"/>
<stop offset="1" stop-color="#EFEFF4"/>
</linearGradient>
<linearGradient id="paint40_linear" x1="175026" y1="141384" x2="163072" y2="112887" gradientUnits="userSpaceOnUse">
<stop stop-color="#20A58D"/>
<stop offset="1" stop-color="#FF9A03"/>
</linearGradient>
<linearGradient id="paint41_linear" x1="125306" y1="20929.8" x2="127600" y2="16598.3" gradientUnits="userSpaceOnUse">
<stop stop-color="white"/>
<stop offset="1" stop-color="#EFEFF4"/>
</linearGradient>
<linearGradient id="paint42_linear" x1="25350.6" y1="30770.8" x2="24028.8" y2="28420.6" gradientUnits="userSpaceOnUse">
<stop stop-color="white"/>
<stop offset="1" stop-color="#EFEFF4"/>
</linearGradient>
<linearGradient id="paint43_linear" x1="30677.4" y1="27773.5" x2="31012.5" y2="25964.3" gradientUnits="userSpaceOnUse">
<stop stop-color="white"/>
<stop offset="1" stop-color="#EFEFF4"/>
</linearGradient>
<linearGradient id="paint44_linear" x1="7705.8" y1="9048.18" x2="7842.57" y2="8498.85" gradientUnits="userSpaceOnUse">
<stop stop-color="white"/>
<stop offset="1" stop-color="#EFEFF4"/>
</linearGradient>
</defs>
</svg>
