<svg width="1151" height="1129" viewBox="0 0 1151 1129" fill="none" xmlns="http://www.w3.org/2000/svg">
<path opacity="0.2" d="M319.937 285.963C284.596 372.216 342.607 440.216 293.792 501.344C251.256 554.601 187.098 528.154 162.177 570.315C124.218 634.546 217.897 789.296 341.377 868.8C468.871 950.906 698.588 998.146 854.207 857.541C1028.92 699.679 989.965 413.701 854.559 266.796C839.916 250.91 715.184 119.878 543.476 143.219C534.891 144.39 367.714 169.364 319.937 285.963Z" fill="#28B88F" fill-opacity="0.42"/>
<g opacity="0.5" filter="url(#filter0_d)">
<path d="M329.654 315.135C288.92 392.907 332.669 450.127 282.802 506.378C239.352 555.387 185.591 535.116 158.925 573.496C118.307 631.967 105.797 817.304 263.851 846.629C421.904 875.954 542.875 739.189 721.45 834.216C900.025 929.244 907.48 395.871 804.062 272.736C792.878 259.42 697.14 149.778 542.875 178.556C535.162 179.998 384.721 209.999 329.654 315.135Z" fill="#34D2A5"/>
</g>
<path d="M1003 599.618C907.572 707.853 684.093 709.591 622.224 649.469C597.532 625.479 591.013 584.272 581.431 523.746C576.818 494.61 576.158 471.123 575.766 455.009C574.415 400.197 573.742 372.787 583.692 354.141C612.198 300.765 711.216 279.991 775.216 279.029C779.683 278.959 784.188 278.985 788.734 279.107C863.667 281.088 948.238 308.749 1000.39 367.859C1005.84 374.024 1010.88 380.47 1015.47 387.164C1063.07 456.584 1055.06 540.576 1003 599.618Z" fill="#F4F7FA"/>
<g opacity="0.3">
<path opacity="0.3" d="M673.763 313.644L676.058 323.712C671.168 325.459 666.461 327.584 661.99 330.06L654.341 322.385C653.842 321.887 653.236 321.482 652.559 321.193C651.883 320.904 651.148 320.737 650.398 320.701C649.648 320.665 648.898 320.761 648.19 320.983C647.482 321.206 646.831 321.55 646.274 321.997L631.448 333.761C630.306 334.659 629.61 335.92 629.51 337.271C629.41 338.621 629.915 339.952 630.915 340.975L638.631 348.756C635.366 352.448 632.462 356.38 629.952 360.51L618.843 357.24C615.848 356.359 612.593 357.822 611.571 360.519L605.177 377.385C604.152 380.087 605.752 382.998 608.754 383.887L619.904 387.183C619.115 391.845 618.782 396.558 618.907 401.271L607.292 403.452C605.783 403.746 604.463 404.552 603.615 405.698C602.767 406.843 602.459 408.237 602.755 409.582L606.595 427.135C606.733 427.798 607.019 428.43 607.436 428.994C607.853 429.558 608.393 430.042 609.025 430.418C609.656 430.794 610.365 431.054 611.112 431.183C611.858 431.312 612.626 431.308 613.37 431.17L625.02 428.989C626.912 433.401 629.234 437.658 631.961 441.711L623.048 448.835C621.891 449.762 621.188 451.052 621.087 452.431C620.986 453.81 621.496 455.169 622.508 456.22L635.706 469.73C636.205 470.244 636.816 470.663 637.502 470.964C638.188 471.264 638.934 471.439 639.698 471.479C640.462 471.518 641.226 471.422 641.947 471.194C642.667 470.967 643.329 470.613 643.893 470.155L652.804 463.004C656.936 465.972 661.352 468.613 666.004 470.898L662.233 481.097C661.211 483.859 662.849 486.838 665.896 487.752L684.96 493.473C688.013 494.389 691.312 492.891 692.329 490.119L696.044 479.999C701.326 480.701 706.667 480.98 712.005 480.835L714.392 491.266C715.048 494.123 718.132 495.96 721.279 495.369L741.008 491.667C744.162 491.075 746.182 488.279 745.52 485.425L743.118 475.079C748.115 473.307 752.924 471.14 757.485 468.606L765.253 476.436C765.757 476.951 766.372 477.372 767.062 477.673C767.752 477.975 768.504 478.15 769.271 478.19C770.039 478.23 770.809 478.133 771.534 477.905C772.259 477.677 772.925 477.323 773.493 476.863L788.45 464.759C789.598 463.816 790.284 462.513 790.362 461.127C790.44 459.741 789.904 458.384 788.868 457.344L781.134 449.583C784.45 445.781 787.386 441.729 789.906 437.473L800.856 440.711C801.583 440.926 802.351 441.009 803.116 440.957C803.88 440.905 804.625 440.719 805.307 440.408C805.988 440.098 806.593 439.67 807.086 439.149C807.579 438.629 807.95 438.026 808.177 437.377L814.313 420.241C814.783 418.926 814.653 417.5 813.95 416.27C813.248 415.04 812.028 414.103 810.554 413.662L799.711 410.463C800.445 405.694 800.703 400.878 800.484 396.069L811.625 393.98C812.371 393.836 813.078 393.563 813.705 393.177C814.332 392.791 814.867 392.298 815.279 391.728C815.691 391.158 815.972 390.522 816.106 389.855C816.24 389.189 816.225 388.505 816.061 387.844L811.827 370.363C811.511 369.028 810.61 367.857 809.323 367.109C808.035 366.361 806.466 366.096 804.958 366.372L793.849 368.456C791.854 364.019 789.42 359.748 786.576 355.692L794.969 348.957C796.104 348.042 796.783 346.765 796.86 345.407C796.936 344.049 796.404 342.719 795.378 341.708L782.055 328.538C781.552 328.039 780.942 327.632 780.262 327.342C779.581 327.052 778.842 326.884 778.088 326.848C777.334 326.812 776.579 326.908 775.867 327.131C775.154 327.353 774.499 327.699 773.937 328.147L765.49 334.905C761.305 331.993 756.841 329.412 752.148 327.192L755.679 317.571C756.152 316.287 756.031 314.889 755.343 313.684C754.655 312.479 753.455 311.565 752.008 311.143L733.208 305.691C731.763 305.274 730.191 305.382 728.836 305.992C727.481 306.601 726.454 307.662 725.98 308.942L722.409 318.59C717.182 317.944 711.901 317.712 706.628 317.895L704.312 307.912C704.162 307.26 703.868 306.641 703.446 306.09C703.025 305.539 702.485 305.067 701.857 304.702C701.229 304.337 700.526 304.086 699.788 303.963C699.05 303.84 698.292 303.848 697.558 303.987L678.223 307.617C676.734 307.899 675.431 308.69 674.596 309.818C673.761 310.946 673.462 312.321 673.763 313.644V313.644ZM640.833 411.508C633.218 377.536 657.676 344.403 695.42 337.323C733.163 330.242 770.232 351.833 778.259 385.727C786.336 419.828 761.987 453.428 723.822 460.586C685.657 467.744 648.494 445.689 640.833 411.508Z" fill="url(#paint0_linear)"/>
</g>
<path d="M875.929 377.757L839.957 640.295C839.416 644.242 842.391 647.729 846.573 648.041L987.422 659.92C995.812 660.254 1000.42 656.173 1000.97 652.099L1037.13 381.334C1037.66 377.308 1033.62 373.497 1025.28 373.191L884.511 370.82C880.323 370.734 876.463 373.853 875.929 377.757Z" fill="url(#paint1_linear)"/>
<path d="M1031.65 380.633L995.233 653.133C994.759 656.679 991.626 659.475 987.912 659.99C987.332 659.99 986.733 660.048 986.135 660.006L965.27 658.431L839.885 649.052C835.678 648.737 832.687 645.224 833.231 641.252L869.468 377.081C870.008 373.156 873.895 370.011 878.106 370.102L926.66 371.11L1024.52 373.103C1024.78 373.103 1025.03 373.103 1025.28 373.103H1025.29C1029.34 373.615 1032.16 376.819 1031.65 380.633Z" fill="url(#paint2_linear)"/>
<path d="M872.213 391.76L838.67 636.515C838.162 640.224 840.965 643.494 844.889 643.784L982.414 653.914C986.562 654.219 990.381 651.346 990.891 647.528L1024.6 395.568C1025.11 391.788 1022.12 388.621 1017.96 388.522L880.28 385.259C876.343 385.166 872.716 388.092 872.213 391.76Z" fill="#D8DEE8"/>
<path d="M946.482 379.589C946.294 380.972 947.36 382.119 948.861 382.154C950.363 382.189 951.736 381.094 951.923 379.711C952.11 378.328 951.042 377.18 949.54 377.146C948.038 377.113 946.669 378.208 946.482 379.589Z" fill="url(#paint3_linear)"/>
<g style="mix-blend-mode:soft-light" opacity="0.5">
<path d="M964.612 657.989C964.83 658.135 965.043 658.28 965.268 658.415L839.883 649.045C835.676 648.729 832.685 645.219 833.229 641.249L869.466 377.079C870.006 373.154 873.894 370.009 878.104 370.101L926.658 371.11C926.73 371.255 926.801 371.4 926.871 371.536C928.946 375.679 930.397 380.613 931.038 386.465C932.056 395.799 930.99 407.483 927.003 422.064C902.121 513.097 1009.64 522.042 958.993 591.242C937.021 621.253 943.306 639.718 956.884 652.031C959.286 654.188 961.869 656.18 964.612 657.989V657.989Z" fill="white"/>
</g>
<path d="M784.736 641.144C784.771 644.731 781.933 647.746 778.053 648.036L762.968 649.306L637.205 659.943C637.041 659.943 636.885 659.99 636.724 659.99C628.644 659.99 624.196 656.12 623.668 652.127L587.501 381.305C586.962 377.28 591.004 373.615 599.345 373.102H599.356L631.317 372.606L740.118 370.796C744.307 370.706 748.163 373.849 748.703 377.746L750.023 387.397L784.674 640.285C784.705 640.573 784.73 640.859 784.736 641.144Z" fill="url(#paint4_linear)"/>
<path d="M784.748 649.045L764.676 650.547L638.497 660.006C637.898 660.048 637.3 659.99 636.719 659.99C633.005 659.475 629.872 656.703 629.398 653.156L592.981 380.648C592.466 376.834 595.286 373.615 599.344 373.102H599.356C599.605 373.102 599.848 373.102 600.113 373.102L631.008 372.479L746.53 370.086C750.749 369.996 754.628 373.139 755.168 377.072L791.405 641.244C791.946 645.216 788.953 648.728 784.748 649.045Z" fill="url(#paint5_linear)"/>
<path d="M752.415 391.76L785.956 636.515C786.464 640.224 783.661 643.494 779.735 643.784L642.211 653.914C638.062 654.219 634.245 651.346 633.733 647.528L600.031 395.568C599.526 391.788 602.517 388.621 606.671 388.522L744.344 385.259C748.281 385.166 751.91 388.092 752.415 391.76Z" fill="#D8DEE8"/>
<path d="M678.138 379.589C678.325 380.972 677.259 382.119 675.757 382.154C674.255 382.189 672.882 381.094 672.696 379.711C672.509 378.328 673.576 377.18 675.078 377.146C676.58 377.113 677.956 378.208 678.138 379.589Z" fill="url(#paint6_linear)"/>
<g style="mix-blend-mode:soft-light" opacity="0.5">
<path d="M764.677 650.547L638.497 660.006C637.898 660.048 637.3 659.99 636.72 659.99C628.639 659.99 624.191 656.119 623.663 652.127L587.501 381.305C586.962 377.28 591.004 373.615 599.345 373.102H599.356C599.605 373.102 599.848 373.102 600.114 373.102L631.009 372.479C631.11 372.527 631.217 372.585 631.317 372.639C638.812 376.294 646.382 381.133 652.442 387.432C662.876 398.259 668.829 413.427 662.194 434.408C643.541 493.392 654.198 502.848 713.734 529.64C773.269 556.432 767.172 573.425 750.169 613.158C744.51 626.389 749.303 637.041 758.225 645.362C759.721 646.753 761.304 648.07 762.965 649.306C763.527 649.726 764.096 650.137 764.677 650.547Z" fill="white"/>
</g>
<path d="M930.424 701.205C930.424 701.205 931.792 706.34 931.836 708.201C931.88 710.062 909.776 712.655 909.432 711.285C909.087 709.915 912.788 707.419 915.459 706.438C918.13 705.456 925.968 702.782 925.968 702.782L930.424 701.205Z" fill="url(#paint7_linear)"/>
<path d="M924.591 696.417L925.858 702.834C925.858 702.834 928.572 704.222 930.736 702.834L931.264 695.71L924.591 696.417Z" fill="url(#paint8_linear)"/>
<path d="M970.736 706.702C970.736 706.702 972.104 711.837 972.146 713.699C972.189 715.56 950.088 718.152 949.743 716.781C949.399 715.41 953.1 712.916 955.771 711.933C958.442 710.951 966.278 708.28 966.278 708.28L970.736 706.702Z" fill="url(#paint9_linear)"/>
<path d="M964.902 701.915L966.17 708.332C966.17 708.332 968.883 709.719 971.048 708.332L971.574 701.208L964.902 701.915Z" fill="url(#paint10_linear)"/>
<path d="M914.005 527.21L907.561 542.228C907.877 569.865 909.437 599.824 912.86 631.734C915.407 655.475 918.727 677.898 922.526 698.894L932.919 697.677C937.147 688.061 941.87 673.618 940.922 656.291C939.938 638.219 933.822 636.262 932.704 618.971C931.253 596.559 940.866 589.837 943.934 562.522C945.108 552.076 945.334 538.532 942.271 522.34L914.005 527.21Z" fill="url(#paint11_linear)"/>
<path style="mix-blend-mode:multiply" opacity="0.3" d="M942.271 522.34L927.006 524.971C919.057 540.547 917.824 556.231 920.032 562.971C923.164 572.499 929.5 575.157 930.008 584.926C930.513 594.586 924.597 597.539 921.695 609.185C919.685 617.247 921.019 624.424 923.774 638.448C929.321 666.698 937.498 674.856 932.087 684.654C930.549 687.439 927.639 690.835 921.61 693.71C921.915 695.446 922.216 697.186 922.526 698.902C925.991 698.497 929.456 698.092 932.919 697.685C937.147 688.067 941.87 673.625 940.922 656.298C939.938 638.226 933.822 636.269 932.704 618.977C931.253 596.566 940.866 589.845 943.934 562.529C945.108 552.076 945.334 538.528 942.271 522.34Z" fill="url(#paint12_linear)"/>
<path d="M928.55 534.857C935.468 558.813 941.971 584.521 947.676 611.872C954.562 644.898 959.419 676.154 962.782 705.259L974.26 704.709C986.913 676.036 986.216 657.286 982.996 645.282C981.755 640.657 978.69 631.635 976.985 617.938C975.794 608.388 975.824 601.053 975.889 592.232C976.034 572.895 977.857 568.533 976.908 553.823C976.011 540.011 975.468 533.032 970.867 529.277C958.742 519.381 930.677 533.743 928.55 534.857Z" fill="url(#paint13_linear)"/>
<path d="M817.51 479.199C817.51 479.199 809.106 478.531 807.891 477.269C806.676 476.007 804.83 473.986 804.647 472.829C804.463 471.672 802.843 473.4 804.319 475.91C805.794 478.419 801.605 477.89 800.949 477.828C799.452 477.682 793.735 477.537 793.898 477.861C794.062 478.185 793.22 479.638 797.279 481.342C800.833 482.832 805.063 481.862 807.373 481.964L809.684 482.067L815.81 482.503L817.51 479.199Z" fill="url(#paint14_linear)"/>
<path d="M812.578 475.564C812.209 478.157 811.839 480.752 811.468 483.347C817.033 487.647 829.34 495.89 846.457 497.127C876.627 499.308 906.563 478.618 912.134 455.348C914.894 443.823 912.639 427.653 904.908 425.054C902.762 424.327 899.538 424.434 892.891 428.571C875.15 439.609 873.641 454.106 863.841 463.913C856.788 470.971 842.925 478.12 812.578 475.564Z" fill="url(#paint15_linear)"/>
<path d="M893.037 492.118C895.719 499.99 897.98 504.962 899.72 508.891V508.9C903.199 512.836 903.545 515.713 904.269 519.388C904.631 521.178 905.005 523.153 904.98 525.539C904.929 529.81 904.347 533.292 903.801 536.282C902.981 540.789 902.521 544.162 905.018 547.375C908.112 551.371 913.628 552.287 926.263 553.011C958.481 554.86 974.601 555.783 979.167 548.008C981.058 544.78 979.887 542.253 977.634 532.227C975.28 521.782 971.659 505.678 971.987 495.006C972.232 487.044 974.704 481.311 977.774 476.541C983.852 467.08 992.285 461.429 990.284 449.753C987.325 432.504 965.265 423.423 964.205 423.001C956.966 420.131 947.61 420.369 928.903 420.846C913.769 421.242 906.093 421.502 900.755 424.946C890.405 431.62 888.19 444.002 886.996 451.293C884.507 466.532 888.58 479.065 893.037 492.118Z" fill="url(#paint16_linear)"/>
<path d="M909.86 424.696C909.847 423.641 914.018 423.187 917.302 421.788C921.452 420.017 923.256 412.085 922.197 408.623C921.138 405.161 928.37 403.381 928.37 403.381C928.959 403.236 931.395 407.795 931.689 408.285C932.92 410.341 934.114 412.434 935.659 414.325C936.992 415.976 938.623 417.421 940.486 418.603C941.829 419.432 943.249 420.158 944.731 420.773C945.406 421.064 946.089 421.397 946.779 421.657C947.135 421.793 947.259 422.458 947.222 422.458H947.245C947.245 422.458 947.235 422.261 947.218 422.284C947.154 422.575 946.864 422.805 946.398 423.175C944.213 425.615 937.566 431.812 923.704 436.128C915.394 431.282 909.699 427.537 909.862 424.738C909.857 424.732 909.86 424.702 909.86 424.696Z" fill="url(#paint17_linear)"/>
<path style="mix-blend-mode:multiply" opacity="0.5" d="M935.403 540.555C924.482 542.657 911.896 538.374 903.901 536.283C903.081 540.79 902.573 544.163 905.07 547.377C908.163 551.372 913.654 552.288 926.289 553.012C958.507 554.861 974.616 555.785 979.18 548.009C981.073 544.781 979.895 542.254 977.642 532.228C975.288 521.783 971.664 505.679 971.992 495.007C972.236 487.045 974.707 481.313 977.777 476.542C970.562 468.042 960.264 463.875 946.913 477.473C946.913 477.473 927.281 496.81 912.872 497.505C904.7 497.893 899.722 502.594 899.722 508.881V508.889C901.461 512.088 901.504 515.71 904.27 519.378C905.641 521.19 907.563 523.013 909.656 524.806C924.3 537.34 952.309 537.295 935.403 540.555Z" fill="url(#paint18_linear)"/>
<path d="M930.238 433.718C930.238 433.718 927.798 440.741 925.75 440.861C924.561 440.928 923.377 441.05 922.202 441.225L919.117 433.356C919.937 433.58 921.638 434.071 922.617 434.228C925.099 434.646 928.447 433.836 930.238 433.718Z" fill="url(#paint19_linear)"/>
<path d="M926.722 440.344C926.722 440.344 931.277 485.696 947.244 492.957C946.836 494.411 947.244 506.209 947.244 506.209C947.244 506.209 932.361 502.235 931.512 502.497C930.662 502.758 913.485 477.512 922.202 441.225L926.722 440.344Z" fill="url(#paint20_linear)"/>
<path d="M914.325 405.932C911.608 404.914 909.45 401.798 909.917 398.892C910.319 396.391 912.557 394.915 913.897 394.033C917.778 391.471 924.033 390.318 928.073 392.776C930.469 394.23 930.861 399.61 930.981 400.554C931.12 401.616 930.557 402.298 930.282 403.294C929.898 404.68 929.313 406.872 928.395 410.506C927.602 409.768 926.739 409.093 925.816 408.488C925.402 408.219 923.766 407.179 921.921 406.56C918.222 405.328 916.901 406.9 914.325 405.932Z" fill="url(#paint21_linear)"/>
<path d="M930.61 406.71C930.61 406.71 930.471 412.089 924.822 414.571C919.762 416.791 912.723 407.463 914.492 403.812C915.082 402.593 916.978 401.241 918.944 400.793C920.105 400.529 920.683 400.724 922.571 400.258C924.312 399.829 924.643 399.462 925.322 399.568C926.173 399.702 927.275 400.532 928.169 403.855C928.554 402.547 929.462 401.65 930.464 401.576C930.82 401.567 931.171 401.646 931.479 401.804C932.889 402.557 932.673 404.556 930.61 406.71Z" fill="url(#paint22_linear)"/>
<path d="M925.166 398.87C925.033 399.146 926.26 399.556 927.03 400.629C928.529 402.712 927.765 406.529 925.419 408.024C924.03 408.906 923.113 408.328 920.532 409.348C919.275 409.849 918.117 410.525 917.102 411.35C917.868 414.085 920.113 416.054 922.587 416.231C925.25 416.422 927.217 414.468 928.04 413.65C928.59 413.104 930.356 411.356 930.336 408.998C930.316 406.545 928.427 406.029 928.973 404.084C929.249 403.102 929.972 402.366 930.054 400.697C930.072 400.339 930.058 399.98 930.013 399.623C927.988 399.086 925.36 398.47 925.166 398.87Z" fill="url(#paint23_linear)"/>
<path d="M919.44 411.311C919.44 411.311 920.811 411.257 922.571 410.234C922.657 410.184 922.769 410.157 922.807 410.191C922.949 410.322 922.229 411.608 920.978 411.893C920.091 412.093 919.078 411.757 919.075 411.542C919.073 411.445 919.252 411.371 919.44 411.311Z" fill="url(#paint24_linear)"/>
<path d="M896.084 510.302C896.084 510.302 895.277 511.266 894.072 508.135C892.867 505.003 888.59 506.083 888.59 506.083L889.646 508.353C889.646 508.353 877.388 505.736 877.552 507.626C877.716 509.516 881.1 513.927 884.985 514.895C888.869 515.864 896.374 514.981 896.374 514.981L896.084 510.302Z" fill="url(#paint25_linear)"/>
<path d="M968.342 422.698C968.342 422.698 951.04 419.622 951.252 449.038C951.463 478.454 955.351 498.539 939.036 501.614C922.722 504.689 895.629 507.787 895.629 507.787L896.18 518.027C896.18 518.027 976.78 535.256 982.437 510.039C988.094 484.822 1009.83 429.394 968.342 422.698Z" fill="#2E987A"/>
<path d="M681.779 714.839C681.779 714.839 680.395 720.034 680.351 721.916C680.307 723.797 702.662 726.423 703.011 725.033C703.361 723.643 699.616 721.125 696.915 720.132C694.215 719.139 686.287 716.434 686.287 716.434L681.779 714.839Z" fill="url(#paint26_linear)"/>
<path d="M687.679 709.998L686.397 716.488C686.397 716.488 683.653 717.89 681.463 716.488L680.925 709.28L687.679 709.998Z" fill="url(#paint27_linear)"/>
<path d="M641.007 720.406C641.007 720.406 639.625 725.6 639.58 727.483C639.536 729.366 661.891 731.99 662.239 730.6C662.587 729.21 658.845 726.692 656.143 725.697C653.441 724.703 645.516 722.001 645.516 722.001L641.007 720.406Z" fill="url(#paint28_linear)"/>
<path d="M646.908 715.558L645.626 722.048C645.626 722.048 642.881 723.45 640.692 722.048L640.159 714.839L646.908 715.558Z" fill="url(#paint29_linear)"/>
<path d="M698.386 538.859L704.904 554.048C704.576 581.999 703.007 612.3 699.544 644.575C696.968 668.588 693.61 691.267 689.768 712.503L679.256 711.271C674.98 701.546 670.203 686.937 671.162 669.413C672.164 651.134 678.343 649.155 679.474 631.665C680.95 608.998 671.218 602.2 668.116 574.572C666.929 564.006 666.699 550.306 669.797 533.932L698.386 538.859Z" fill="url(#paint30_linear)"/>
<path style="mix-blend-mode:multiply" opacity="0.3" d="M669.796 533.932L685.237 536.594C693.272 552.347 694.529 568.216 692.288 575.027C689.12 584.664 682.712 587.351 682.197 597.226C681.689 606.996 687.667 609.983 690.607 621.761C692.64 629.916 691.289 637.173 688.504 651.359C682.893 679.932 674.625 688.183 680.105 698.093C681.661 700.909 684.604 704.345 690.702 707.253C690.394 709.008 690.089 710.768 689.776 712.504L679.264 711.273C674.988 701.546 670.211 686.938 671.17 669.414C672.172 651.135 678.351 649.156 679.482 631.667C680.958 609 671.226 602.201 668.124 574.574C666.929 564.008 666.699 550.306 669.796 533.932Z" fill="url(#paint31_linear)"/>
<path d="M683.675 546.591C676.678 570.823 670.103 596.822 664.331 624.488C657.364 657.889 652.453 689.502 649.051 718.94L637.445 718.383C624.648 689.383 625.353 670.418 628.611 658.279C629.865 653.6 632.964 644.475 634.691 630.62C635.893 620.963 635.865 613.544 635.798 604.622C635.652 585.063 633.802 580.657 634.768 565.775C635.675 551.808 636.224 544.748 640.877 540.949C653.137 530.938 681.523 545.466 683.675 546.591Z" fill="url(#paint32_linear)"/>
<path d="M795.989 490.299C795.989 490.299 804.488 489.624 805.717 488.348C806.947 487.071 808.815 485.027 808.997 483.858C809.179 482.689 810.823 484.44 809.335 486.972C807.846 489.505 812.07 488.973 812.729 488.912C814.244 488.766 820.025 488.621 819.858 488.945C819.691 489.27 820.545 490.741 816.439 492.465C812.845 493.973 808.569 492.992 806.231 493.095L803.894 493.198L797.698 493.634L795.989 490.299Z" fill="url(#paint33_linear)"/>
<path d="M800.971 486.62C801.346 489.245 801.72 491.87 802.094 494.493C796.465 498.842 784.02 507.181 766.706 508.431C736.182 510.637 705.914 489.71 700.273 466.175C697.486 454.519 699.762 438.165 707.583 435.535C709.752 434.808 713.013 434.908 719.738 439.093C737.684 450.265 739.211 464.919 749.122 474.836C756.257 481.977 770.287 489.207 800.971 486.62Z" fill="url(#paint34_linear)"/>
<path d="M719.397 503.364C716.683 511.327 714.179 516.357 712.439 520.33C709.54 524.311 708.767 527.222 708.035 530.944C707.605 532.995 707.397 535.078 707.415 537.164C707.466 541.485 708.106 545.006 708.658 548.029C709.491 552.592 709.97 556 707.45 559.249C704.321 563.291 698.76 564.219 685.97 564.95C653.385 566.82 637.086 567.755 632.469 559.89C630.556 556.625 631.743 554.075 634.022 543.928C636.403 533.365 640.066 517.078 639.734 506.287C639.489 498.235 636.988 492.436 633.884 487.618C627.735 478.05 619.206 472.334 621.231 460.527C624.223 443.079 646.536 433.895 647.608 433.465C654.929 430.557 664.394 430.802 683.312 431.284C698.619 431.684 706.382 431.948 711.782 435.432C722.25 442.179 724.393 454.704 725.599 462.078C728.121 477.487 723.902 490.162 719.397 503.364Z" fill="url(#paint35_linear)"/>
<path d="M662.859 504.146C661.096 508.69 655.897 511.795 651.508 522.839C650.561 525.224 643.814 542.206 650.247 546.987C653.962 549.749 657.894 545.33 667.485 545.428C684.101 545.595 690.861 559.045 701.96 556.332C703.885 555.86 706.471 554.745 709.198 551.942C709.457 554.669 709.17 557 707.425 559.252C704.299 563.29 698.745 564.219 685.962 564.951C653.378 566.823 637.085 567.759 632.469 559.892C630.556 556.628 631.743 554.076 634.025 543.932C636.403 533.367 640.069 517.08 639.736 506.289C638.995 482.251 618.194 478.286 621.241 460.528C622.061 455.781 624.32 451.668 627.176 448.154C652.962 460.122 668.404 489.869 662.859 504.146Z" fill="url(#paint36_linear)"/>
<path d="M702.578 435.173C702.592 434.106 698.373 433.648 695.051 432.229C690.853 430.437 689.03 422.414 690.101 418.913C691.171 415.412 683.857 413.612 683.857 413.612C683.857 413.612 682.976 420.094 680.376 424.808C678.024 429.063 667.422 431.449 665.238 432.275C664.877 432.412 664.746 433.258 664.79 433.258H664.766C664.766 433.141 664.775 433.025 664.794 432.909C664.858 433.2 665.151 433.345 665.628 433.723C667.839 436.195 674.561 442.416 688.584 446.782C696.989 441.881 702.749 438.07 702.585 435.24C702.582 435.232 702.578 435.179 702.578 435.173Z" fill="url(#paint37_linear)"/>
<path d="M693.647 411.967C697.04 409.336 697.507 409.035 697.935 408.071C699.653 404.202 696.799 398.518 692.553 396.854C692.334 396.769 689.484 395.691 688.266 396.777C687.231 397.705 688.507 399.186 687.677 401.061C686.9 402.815 685.203 402.826 681.874 404.956C679.133 406.709 677.429 407.8 676.914 409.473C675.85 412.923 679.992 418.342 684.061 418.509C685.524 418.569 685.98 417.906 693.647 411.967Z" fill="url(#paint38_linear)"/>
<path d="M684.411 419.079C684.411 419.079 687.451 422.835 692.644 422.058C697.294 421.359 696.968 411.58 693.765 409.783C692.698 409.184 690.671 409.076 689.091 409.637C688.158 409.972 687.872 410.364 686.336 410.889C684.919 411.367 684.493 411.254 684.09 411.636C683.585 412.112 683.293 413.197 684.504 415.956C683.521 415.199 682.419 414.973 681.694 415.375C681.446 415.531 681.251 415.745 681.13 415.992C680.597 417.16 681.833 418.48 684.411 419.079Z" fill="url(#paint39_linear)"/>
<path style="mix-blend-mode:multiply" opacity="0.4" d="M676.745 552.353C687.79 554.479 700.521 550.143 708.608 548.032C709.441 552.595 709.951 556.003 707.425 559.252C704.295 563.294 698.735 564.222 685.962 564.953C653.378 566.823 637.085 567.758 632.468 559.892C630.554 556.626 631.745 554.076 634.024 543.929C636.405 533.366 640.069 517.079 639.738 506.288C639.492 498.236 636.992 492.438 633.888 487.619C641.192 479.024 651.596 474.809 665.104 488.562C665.104 488.562 684.762 508.121 699.337 508.822C707.603 509.215 712.44 513.972 712.44 520.329C711.28 523.571 710.833 527.228 708.035 530.942C706.65 532.774 704.805 534.622 702.688 536.431C687.876 549.104 659.645 549.059 676.745 552.353Z" fill="url(#paint40_linear)"/>
<path d="M681.968 444.304C681.968 444.304 684.427 451.406 686.506 451.528C687.709 451.596 688.907 451.719 690.096 451.896L693.211 443.937C692.38 444.164 690.661 444.664 689.671 444.826C687.166 445.237 683.78 444.421 681.968 444.304Z" fill="url(#paint41_linear)"/>
<path d="M685.524 450.999C685.524 450.999 680.917 496.871 664.766 504.213C665.181 505.682 664.766 517.614 664.766 517.614C664.766 517.614 679.821 513.596 680.671 513.862C681.52 514.128 698.904 488.591 690.087 451.889L685.524 450.999Z" fill="url(#paint42_linear)"/>
<path d="M844.689 482.804C844.689 512.918 818.127 536.6 784.185 535.682C748.865 534.72 719.157 507.671 719.157 475.3C719.157 442.93 748.865 419.432 784.185 422.694C818.135 425.827 844.689 452.691 844.689 482.804Z" fill="url(#paint43_linear)"/>
<path d="M853.86 480.207C853.86 510.321 827.297 534.003 793.366 533.085C758.044 532.122 728.338 505.078 728.338 472.703C728.338 440.329 758.044 416.836 793.366 420.097C827.306 423.232 853.86 450.095 853.86 480.207Z" fill="url(#paint44_linear)"/>
<path d="M851.196 480.049C851.196 508.837 825.781 531.443 793.366 530.512C759.684 529.545 731.406 503.73 731.406 472.887C731.406 442.043 759.684 419.611 793.366 422.671C825.789 425.616 851.196 451.261 851.196 480.049Z" fill="url(#paint45_linear)"/>
<path d="M849.289 479.934C849.289 507.773 824.703 529.606 793.366 528.674C760.854 527.706 733.59 502.772 733.59 473.018C733.59 443.263 760.854 421.59 793.366 424.508C824.703 427.323 849.289 452.097 849.289 479.934Z" fill="url(#paint46_linear)"/>
<path d="M793.044 433.981C794.712 434.126 796.061 435.452 796.061 436.954V442.079C799.433 442.415 802.778 442.93 806.08 443.62C808.545 444.135 810.994 444.747 813.427 445.455C814.142 445.667 814.756 446.085 815.172 446.642C815.588 447.2 815.782 447.864 815.723 448.53L815.013 454.958C814.98 455.349 814.841 455.727 814.606 456.059C814.372 456.391 814.05 456.668 813.668 456.865C813.285 457.062 812.855 457.173 812.413 457.189C811.972 457.205 811.532 457.126 811.133 456.957C809.531 456.323 807.884 455.779 806.204 455.329C803.176 454.525 800.059 454.008 796.908 453.788L796.055 453.727V468.411C804.755 470.569 811.14 473.472 815.272 477.125C819.404 480.777 821.427 485.289 821.427 490.726C821.427 496.606 819.158 501.319 814.619 504.866C810.051 508.435 803.632 510.439 795.361 510.878V516.535C795.368 516.886 795.295 517.234 795.144 517.558C794.994 517.882 794.771 518.176 794.488 518.421C794.206 518.666 793.87 518.857 793.501 518.983C793.132 519.109 792.738 519.166 792.343 519.152H792.289C791.471 519.113 790.701 518.797 790.137 518.269C789.574 517.742 789.259 517.044 789.258 516.317V510.735L787.914 510.682C784.176 510.541 780.452 510.189 776.764 509.628C774.165 509.228 771.592 508.703 769.058 508.056C767.541 507.666 766.5 506.385 766.639 505.003L767.474 496.74C767.654 494.954 769.677 493.915 771.593 494.585C773.807 495.36 776.071 496.019 778.373 496.558C781.923 497.39 785.552 497.928 789.214 498.165L789.268 481.837C780.917 480.005 774.68 477.291 770.558 473.695C766.432 470.083 764.367 465.466 764.362 459.843C764.362 454.027 766.602 449.543 771.084 446.388C775.537 443.254 781.85 441.69 790.024 441.698V436.464C790.016 434.946 791.374 433.835 793.044 433.981ZM790.016 453.574C787.435 453.742 785.424 454.372 783.984 455.464C782.543 456.556 781.821 458.022 781.818 459.861C781.818 461.605 782.485 463.065 783.821 464.238C785.157 465.412 787.222 466.347 790.016 467.042V453.574ZM795.374 483.138V498.114C798.179 498.12 800.332 497.526 801.833 496.334C803.334 495.142 804.083 493.462 804.081 491.293C804.081 489.313 803.385 487.671 801.992 486.366C800.6 485.061 798.394 483.985 795.374 483.138Z" fill="url(#paint47_linear)"/>
<path style="mix-blend-mode:multiply" opacity="0.3" d="M783.241 486.759C785.13 470.211 802.281 463.205 800.042 447.985C798.662 438.604 790.644 430.698 781.698 424.524C754.566 427.048 733.585 446.969 733.585 473.025C733.585 502.78 760.849 527.713 793.361 528.681C796.447 528.772 799.536 528.638 802.597 528.282C789.691 516.881 781.622 500.968 783.241 486.759Z" fill="url(#paint48_linear)"/>
<path d="M728.148 514.607C728.148 514.607 729.132 515.455 729.768 512.156C730.404 508.857 734.87 509.33 734.87 509.33L734.215 511.746C734.215 511.746 745.984 507.397 746.161 509.306C746.338 511.215 743.757 516.102 740.052 517.616C736.346 519.129 728.697 519.327 728.697 519.327L728.148 514.607Z" fill="url(#paint49_linear)"/>
<path d="M640.154 437.383C640.154 437.383 656.879 431.858 661.98 461.261C667.081 490.664 666.824 511.276 683.676 512.031C700.529 512.786 728.139 512.031 728.139 512.031L729.44 522.335C729.44 522.335 652.067 550.988 641.855 526.608C631.643 502.229 599.935 449.962 640.154 437.383Z" fill="url(#paint50_linear)"/>
<path d="M740.281 666.338V677.824C740.281 681.536 766.428 684.544 798.68 684.544C830.932 684.544 857.079 681.536 857.079 677.824V666.338H740.281Z" fill="url(#paint51_linear)"/>
<path d="M857.071 666.338C857.071 670.048 830.924 673.058 798.672 673.058C766.419 673.058 740.281 670.048 740.281 666.338C740.281 662.627 766.428 659.618 798.68 659.618C830.932 659.618 857.071 662.626 857.071 666.338Z" fill="url(#paint52_linear)"/>
<path d="M798.672 673.52C770.107 673.52 740.239 671.101 740.239 666.435C740.239 666.179 740.342 665.729 740.63 665.729C740.919 665.729 740.794 666.08 740.794 666.338C740.794 669.297 764.57 672.59 798.675 672.59C832.78 672.59 856.556 669.292 856.556 666.338C856.556 666.08 856.605 665.84 856.893 665.84C857.182 665.84 857.113 666.182 857.113 666.44C857.105 671.105 827.235 673.52 798.672 673.52Z" fill="url(#paint53_linear)"/>
<path d="M793.153 666.711C793.727 666.359 794.335 666.013 794.988 665.67C795.78 665.275 796.622 664.964 797.496 664.743C798.757 664.425 800.044 664.2 801.346 664.068C803.261 663.875 805.186 663.783 807.113 663.792C809.371 663.782 811.486 663.846 813.47 663.982C815.224 664.092 816.97 664.298 818.696 664.597C820.197 664.869 821.42 665.205 822.365 665.606C823.311 666.008 823.87 666.467 824.043 666.985L830.618 667.043C831.041 667.041 831.463 667.076 831.879 667.147C832.246 667.213 832.425 667.293 832.425 667.399V667.879L823.971 667.808C823.673 668.395 822.918 668.932 821.704 669.42C820.491 669.908 818.946 670.331 817.069 670.689L813.99 670.31C813.759 670.281 813.531 670.232 813.311 670.164C813.132 670.108 813.047 670.045 813.047 669.977C813.047 669.885 813.285 669.779 813.76 669.661C814.236 669.544 814.774 669.397 815.372 669.225C815.973 669.05 816.562 668.844 817.136 668.607C817.71 668.369 818.094 668.085 818.294 667.755L798.341 667.579C797.775 667.944 797.187 668.28 796.58 668.587C795.761 668.977 794.891 669.276 793.991 669.48C792.672 669.783 791.33 669.998 789.975 670.122C787.964 670.305 785.943 670.393 783.921 670.385C782.093 670.385 780.314 670.332 778.569 670.201C777.008 670.095 775.456 669.901 773.923 669.619C772.772 669.418 771.653 669.093 770.591 668.652C769.725 668.267 769.24 667.826 769.14 667.326L763.729 667.277C763.3 667.279 762.872 667.246 762.45 667.178C762.078 667.114 761.887 667.033 761.886 666.922V666.442L769.287 666.505C769.615 665.999 770.284 665.558 771.311 665.183C772.528 664.755 773.784 664.42 775.065 664.18L777.545 664.482C778.297 664.575 778.671 664.686 778.673 664.812C778.673 664.879 778.52 664.958 778.209 665.065C777.897 665.173 777.525 665.286 777.097 665.426C776.675 665.566 776.263 665.731 775.866 665.919C775.515 666.07 775.206 666.289 774.964 666.56L793.153 666.711ZM774.893 667.366C775.041 667.681 775.372 667.947 775.877 668.18C776.475 668.437 777.107 668.626 777.758 668.742C778.594 668.9 779.441 669.008 780.293 669.067C781.234 669.135 782.218 669.167 783.244 669.163C784.292 669.165 785.339 669.119 786.381 669.026C787.171 668.954 787.955 668.836 788.727 668.673C789.331 668.545 789.922 668.372 790.493 668.156C790.96 667.975 791.411 667.762 791.841 667.518L774.893 667.366ZM818.33 666.929C818.181 666.61 817.818 666.33 817.254 666.09C816.563 665.814 815.837 665.611 815.092 665.486C814.08 665.305 813.055 665.183 812.025 665.121C810.863 665.04 809.579 665.003 808.172 665.01C807.094 665.006 806.016 665.055 804.944 665.156C804.152 665.231 803.368 665.358 802.597 665.534C802.015 665.664 801.45 665.849 800.912 666.086C800.465 666.286 800.033 666.512 799.618 666.761L818.33 666.929Z" fill="#FCB048"/>
<path d="M798.68 660.344C772.64 660.344 745.528 662.38 741.191 666.306C741.359 666.442 741.518 666.588 741.665 666.742C745.32 664.011 767.708 661.262 798.68 661.262C830.446 661.262 853.193 664.154 855.948 666.953C856.082 666.799 856.228 666.654 856.384 666.516C852.803 662.451 825.181 660.344 798.68 660.344Z" fill="url(#paint54_linear)"/>
<path d="M724.039 654.273V665.759C724.039 669.47 750.185 672.479 782.437 672.479C814.69 672.479 840.836 669.47 840.836 665.759V654.273H724.039Z" fill="url(#paint55_linear)"/>
<path d="M840.836 654.273C840.836 657.983 814.69 660.993 782.437 660.993C750.185 660.993 724.039 657.983 724.039 654.273C724.039 650.562 750.185 647.553 782.437 647.553C814.69 647.553 840.836 650.561 840.836 654.273Z" fill="url(#paint56_linear)"/>
<path d="M782.437 661.457C753.873 661.457 724.004 659.038 724.004 654.37C724.004 654.115 724.107 653.664 724.396 653.664C724.685 653.664 724.56 654.017 724.56 654.273C724.56 657.232 748.335 660.525 782.441 660.525C816.546 660.525 840.321 657.227 840.321 654.273C840.321 654.017 840.37 653.776 840.659 653.776C840.948 653.776 840.879 654.119 840.879 654.375C840.871 659.041 811.001 661.457 782.437 661.457Z" fill="url(#paint57_linear)"/>
<path d="M776.918 654.647C777.492 654.295 778.101 653.949 778.753 653.606C779.546 653.211 780.388 652.9 781.262 652.679C782.522 652.361 783.81 652.135 785.112 652.003C787.026 651.811 788.952 651.719 790.879 651.727C793.136 651.718 795.254 651.782 797.234 651.919C798.989 652.029 800.735 652.233 802.461 652.533C803.961 652.804 805.184 653.14 806.131 653.542C807.078 653.943 807.637 654.402 807.808 654.92L814.383 654.98C814.806 654.977 815.229 655.012 815.644 655.083C816.012 655.15 816.19 655.228 816.19 655.334V655.816L807.736 655.743C807.439 656.33 806.683 656.868 805.47 657.357C804.257 657.845 802.712 658.268 800.835 658.625L797.755 658.245C797.524 658.216 797.297 658.167 797.077 658.1C796.898 658.042 796.813 657.979 796.813 657.912C796.813 657.819 797.049 657.714 797.526 657.595C798.003 657.476 798.539 657.331 799.138 657.159C799.739 656.983 800.328 656.777 800.902 656.54C801.476 656.303 801.86 656.018 802.06 655.688L782.106 655.512C781.541 655.877 780.953 656.214 780.345 656.521C779.526 656.909 778.657 657.209 777.756 657.412C776.438 657.715 775.096 657.93 773.741 658.055C771.73 658.238 769.709 658.326 767.687 658.318C765.859 658.325 764.08 658.264 762.335 658.133C760.774 658.028 759.221 657.834 757.688 657.552C756.537 657.35 755.419 657.026 754.356 656.585C753.491 656.199 753.005 655.759 752.905 655.26L747.494 655.211C747.066 655.212 746.637 655.178 746.215 655.11C745.843 655.046 745.653 654.965 745.651 654.855V654.375L753.053 654.437C753.381 653.931 754.05 653.491 755.076 653.116C756.293 652.688 757.55 652.353 758.831 652.114L761.31 652.415C762.063 652.509 762.437 652.618 762.438 652.745C762.438 652.813 762.286 652.89 761.974 652.998C761.663 653.105 761.291 653.219 760.863 653.358C760.44 653.499 760.028 653.664 759.63 653.853C759.28 654.004 758.972 654.222 758.729 654.493L776.918 654.647ZM758.659 655.301C758.806 655.616 759.138 655.882 759.643 656.115C760.24 656.372 760.872 656.561 761.523 656.678C762.359 656.836 763.206 656.945 764.058 657.002C765 657.071 765.983 657.103 767.01 657.098C768.057 657.1 769.104 657.054 770.147 656.961C770.936 656.889 771.72 656.772 772.493 656.609C773.097 656.481 773.687 656.308 774.259 656.092C774.726 655.91 775.177 655.697 775.607 655.454L758.659 655.301ZM802.096 654.872C801.946 654.554 801.584 654.273 801.02 654.033C800.328 653.757 799.602 653.554 798.857 653.428C797.845 653.248 796.821 653.126 795.791 653.063C794.629 652.983 793.345 652.946 791.938 652.953C790.859 652.949 789.782 652.998 788.709 653.098C787.918 653.175 787.134 653.301 786.363 653.476C785.781 653.607 785.216 653.792 784.677 654.029C784.231 654.23 783.799 654.455 783.384 654.703L802.096 654.872Z" fill="#FCB048"/>
<path d="M782.446 648.28C756.406 648.28 729.294 650.315 724.957 654.241C725.125 654.377 725.284 654.523 725.431 654.677C729.085 651.947 751.474 649.197 782.446 649.197C814.211 649.197 836.957 652.089 839.713 654.888C839.848 654.735 839.993 654.589 840.149 654.452C836.568 650.387 808.946 648.28 782.446 648.28Z" fill="url(#paint58_linear)"/>
<path d="M738.047 642.243V653.729C738.047 657.441 764.193 660.449 796.445 660.449C828.698 660.449 854.844 657.441 854.844 653.729V642.243H738.047Z" fill="url(#paint59_linear)"/>
<path d="M854.844 642.243C854.844 645.955 828.698 648.963 796.445 648.963C764.193 648.963 738.047 645.955 738.047 642.243C738.047 638.531 764.193 635.523 796.445 635.523C828.698 635.523 854.844 638.533 854.844 642.243Z" fill="url(#paint60_linear)"/>
<path d="M796.445 649.427C767.88 649.427 738.012 647.008 738.012 642.342C738.012 642.086 738.115 641.635 738.404 641.635C738.692 641.635 738.568 641.987 738.568 642.243C738.568 645.203 762.343 648.495 796.448 648.495C830.554 648.495 854.329 645.199 854.329 642.243C854.329 641.987 854.378 641.747 854.667 641.747C854.955 641.747 854.887 642.089 854.887 642.345C854.878 647.012 825.008 649.427 796.445 649.427Z" fill="url(#paint61_linear)"/>
<path d="M790.926 642.621C791.5 642.27 792.11 641.923 792.763 641.58C793.555 641.185 794.397 640.873 795.271 640.653C796.532 640.335 797.819 640.109 799.121 639.978C801.035 639.785 802.96 639.693 804.886 639.702C807.144 639.691 809.263 639.755 811.243 639.892C812.998 640.003 814.743 640.208 816.469 640.506C817.969 640.779 819.196 641.115 820.139 641.524C821.081 641.932 821.636 642.384 821.816 642.902L828.393 642.96C828.816 642.959 829.238 642.993 829.654 643.063C830.021 643.13 830.198 643.209 830.198 643.316V643.796L821.744 643.723C821.449 644.312 820.693 644.85 819.478 645.337C818.262 645.825 816.717 646.247 814.842 646.605L811.763 646.226C811.532 646.198 811.305 646.149 811.084 646.08C810.907 646.024 810.82 645.961 810.82 645.893C810.82 645.796 811.058 645.691 811.534 645.577C812.009 645.464 812.547 645.318 813.147 645.141C813.748 644.965 814.337 644.759 814.911 644.523C815.484 644.285 815.867 644 816.059 643.67L796.107 643.495C795.541 643.859 794.953 644.196 794.345 644.503C793.529 644.888 792.663 645.184 791.767 645.384C790.449 645.688 789.108 645.903 787.753 646.028C785.742 646.211 783.72 646.298 781.698 646.29C779.87 646.298 778.091 646.236 776.346 646.106C774.785 646.001 773.234 645.807 771.701 645.525C770.549 645.324 769.43 644.998 768.367 644.557C767.503 644.173 767.018 643.731 766.916 643.232L761.505 643.183C761.077 643.184 760.648 643.151 760.226 643.084C759.853 643.018 759.662 642.938 759.662 642.828V642.347L767.064 642.411C767.392 641.905 768.061 641.463 769.087 641.087C770.305 640.66 771.562 640.325 772.844 640.086L775.321 640.388C776.076 640.481 776.449 640.592 776.449 640.717C776.449 640.785 776.297 640.869 775.985 640.971C775.674 641.073 775.302 641.192 774.875 641.332C774.452 641.471 774.04 641.636 773.642 641.825C773.292 641.976 772.984 642.194 772.74 642.464L790.926 642.621ZM772.667 643.276C772.814 643.591 773.147 643.857 773.65 644.09C774.249 644.349 774.882 644.539 775.534 644.657C776.37 644.814 777.217 644.922 778.069 644.98C779.013 645.049 779.997 645.082 781.021 645.077C782.068 645.076 783.115 645.028 784.157 644.932C784.948 644.86 785.731 644.743 786.504 644.58C787.108 644.453 787.699 644.28 788.27 644.064C788.737 643.882 789.188 643.668 789.618 643.424L772.667 643.276ZM816.103 642.847C815.954 642.527 815.592 642.248 815.029 642.008C814.338 641.732 813.612 641.529 812.867 641.403C811.854 641.222 810.829 641.1 809.799 641.038C808.638 640.958 807.353 640.921 805.946 640.928C804.867 640.923 803.789 640.971 802.717 641.073C801.926 641.148 801.142 641.274 800.371 641.449C799.788 641.581 799.223 641.767 798.685 642.003C798.238 642.204 797.806 642.429 797.391 642.678L816.103 642.847Z" fill="#FCB048"/>
<path d="M796.453 636.251C770.414 636.251 743.302 638.287 738.965 642.213C739.134 642.351 739.292 642.499 739.438 642.656C743.095 639.924 765.481 637.175 796.453 637.175C828.219 637.175 850.966 640.068 853.721 642.865C853.856 642.713 854.002 642.567 854.157 642.429C850.576 638.358 822.954 636.251 796.453 636.251Z" fill="url(#paint62_linear)"/>
<path d="M746.546 630.18V641.666C746.546 645.378 772.693 648.386 804.945 648.386C837.198 648.386 863.344 645.378 863.344 641.666V630.18H746.546Z" fill="url(#paint63_linear)"/>
<path d="M863.344 630.18C863.344 633.89 837.198 636.9 804.945 636.9C772.693 636.9 746.546 633.89 746.546 630.18C746.546 626.469 772.693 623.46 804.945 623.46C837.198 623.46 863.344 626.468 863.344 630.18Z" fill="url(#paint64_linear)"/>
<path d="M804.945 637.362C776.382 637.362 746.512 634.943 746.512 630.277C746.512 630.021 746.616 629.57 746.906 629.57C747.196 629.57 747.07 629.922 747.07 630.18C747.07 633.138 770.845 636.431 804.95 636.431C839.056 636.431 862.831 633.134 862.831 630.18C862.831 629.922 862.88 629.682 863.169 629.682C863.457 629.682 863.388 630.024 863.388 630.281C863.379 634.947 833.51 637.362 804.945 637.362Z" fill="url(#paint65_linear)"/>
<path d="M799.428 630.553C799.999 630.202 800.611 629.855 801.263 629.512C802.055 629.117 802.897 628.806 803.771 628.585C805.032 628.267 806.319 628.042 807.621 627.91C809.536 627.717 811.461 627.625 813.388 627.634C815.644 627.623 817.763 627.687 819.743 627.824C821.498 627.935 823.244 628.14 824.971 628.439C826.471 628.711 827.695 629.047 828.64 629.448C829.586 629.85 830.145 630.309 830.318 630.827L836.893 630.886C837.316 630.884 837.738 630.918 838.154 630.99C838.521 631.055 838.698 631.135 838.7 631.241V631.721L830.247 631.65C829.951 632.237 829.195 632.775 827.979 633.264C826.764 633.752 825.219 634.175 823.344 634.531L820.266 634.152C820.035 634.123 819.807 634.074 819.586 634.007C819.409 633.95 819.322 633.887 819.322 633.819C819.322 633.727 819.56 633.621 820.037 633.504C820.514 633.386 821.05 633.239 821.649 633.067C822.25 632.89 822.839 632.682 823.413 632.444C823.987 632.205 824.371 631.922 824.571 631.592L804.619 631.426C804.053 631.79 803.464 632.126 802.856 632.433C802.038 632.823 801.169 633.123 800.269 633.326C798.95 633.629 797.608 633.844 796.253 633.969C794.242 634.151 792.221 634.239 790.2 634.232C788.37 634.239 786.592 634.178 784.846 634.047C783.285 633.942 781.734 633.747 780.201 633.466C779.05 633.265 777.93 632.94 776.867 632.499C776.003 632.114 775.518 631.673 775.416 631.173L770.005 631.123C769.577 631.125 769.148 631.092 768.726 631.025C768.353 630.961 768.162 630.879 768.162 630.769V630.289L775.564 630.351C775.892 629.845 776.562 629.405 777.587 629.03C778.805 628.601 780.062 628.266 781.344 628.027L783.823 628.329C784.576 628.423 784.949 628.533 784.949 628.659C784.949 628.727 784.797 628.804 784.487 628.912C784.177 629.02 783.803 629.133 783.375 629.273C782.952 629.413 782.541 629.577 782.142 629.765C781.792 629.917 781.484 630.136 781.24 630.407L799.428 630.553ZM781.167 631.208C781.316 631.523 781.647 631.789 782.15 632.022C782.748 632.28 783.38 632.469 784.031 632.585C784.867 632.742 785.713 632.85 786.564 632.909C787.508 632.978 788.492 633.01 789.516 633.005C790.563 633.007 791.61 632.961 792.653 632.868C793.443 632.796 794.228 632.678 795.001 632.515C795.604 632.388 796.194 632.215 796.765 631.999C797.232 631.817 797.683 631.604 798.113 631.36L781.167 631.208ZM824.603 630.779C824.456 630.46 824.093 630.18 823.529 629.94C822.838 629.664 822.112 629.461 821.367 629.335C820.355 629.154 819.33 629.032 818.3 628.97C817.138 628.89 815.853 628.853 814.446 628.86C813.367 628.856 812.289 628.905 811.217 629.005C810.426 629.081 809.641 629.207 808.871 629.383C808.288 629.514 807.723 629.699 807.185 629.936C806.739 630.136 806.307 630.361 805.893 630.61L824.603 630.779Z" fill="#FCB048"/>
<path d="M804.953 624.186C778.914 624.186 751.802 626.222 747.465 630.147C747.633 630.286 747.792 630.434 747.94 630.591C751.595 627.86 773.981 625.111 804.953 625.111C836.72 625.111 859.466 628.003 862.221 630.801C862.356 630.648 862.502 630.502 862.659 630.365C859.076 626.293 831.455 624.186 804.953 624.186Z" fill="url(#paint66_linear)"/>
<path d="M740.281 617.163V628.649C740.281 632.361 766.428 635.369 798.68 635.369C830.932 635.369 857.079 632.361 857.079 628.649V617.163H740.281Z" fill="url(#paint67_linear)"/>
<path d="M798.672 623.883C830.925 623.883 857.071 620.874 857.071 617.163C857.071 613.451 830.925 610.443 798.672 610.443C766.419 610.443 740.273 613.451 740.273 617.163C740.273 620.874 766.419 623.883 798.672 623.883Z" fill="url(#paint68_linear)"/>
<path d="M798.672 624.346C770.107 624.346 740.239 621.927 740.239 617.261C740.239 617.004 740.342 616.555 740.63 616.555C740.919 616.555 740.794 616.907 740.794 617.162C740.794 620.123 764.57 623.414 798.675 623.414C832.78 623.414 856.556 620.118 856.556 617.162C856.556 616.907 856.605 616.667 856.893 616.667C857.182 616.667 857.113 617.008 857.113 617.264C857.105 621.931 827.235 624.346 798.672 624.346Z" fill="url(#paint69_linear)"/>
<path d="M793.153 617.538C793.727 617.186 794.335 616.84 794.988 616.497C795.78 616.101 796.622 615.79 797.496 615.569C798.757 615.252 800.044 615.026 801.346 614.895C803.261 614.702 805.186 614.609 807.113 614.618C809.371 614.608 811.486 614.672 813.47 614.809C815.224 614.919 816.969 615.124 818.696 615.422C820.197 615.696 821.42 616.032 822.365 616.431C823.311 616.831 823.87 617.291 824.043 617.811L830.618 617.869C831.041 617.868 831.463 617.902 831.879 617.972C832.246 618.039 832.425 618.118 832.425 618.225V618.705L823.971 618.633C823.673 619.221 822.918 619.759 821.704 620.246C820.491 620.734 818.946 621.157 817.069 621.514L813.99 621.135C813.759 621.107 813.531 621.058 813.311 620.989C813.132 620.933 813.047 620.87 813.047 620.802C813.047 620.709 813.285 620.604 813.76 620.486C814.236 620.369 814.774 620.22 815.372 620.05C815.973 619.875 816.562 619.668 817.136 619.431C817.71 619.194 818.094 618.91 818.294 618.579L798.341 618.404C797.775 618.769 797.187 619.105 796.58 619.412C795.761 619.801 794.891 620.1 793.991 620.303C792.672 620.607 791.33 620.822 789.975 620.947C787.964 621.13 785.943 621.217 783.921 621.209C782.093 621.218 780.314 621.155 778.569 621.026C777.008 620.92 775.456 620.726 773.923 620.444C772.772 620.242 771.653 619.917 770.591 619.476C769.725 619.092 769.24 618.65 769.14 618.151L763.729 618.102C763.3 618.103 762.872 618.069 762.45 618.002C762.078 617.938 761.887 617.856 761.886 617.747V617.266L769.287 617.328C769.615 616.824 770.284 616.382 771.311 616.007C772.528 615.58 773.784 615.244 775.065 615.005L777.545 615.307C778.297 615.4 778.671 615.511 778.673 615.636C778.673 615.704 778.52 615.789 778.209 615.889C777.897 615.989 777.525 616.111 777.097 616.251C776.673 616.389 776.261 616.553 775.862 616.741C775.512 616.892 775.203 617.11 774.961 617.381L793.153 617.538ZM774.893 618.192C775.041 618.506 775.372 618.774 775.877 619.006C776.475 619.263 777.107 619.452 777.758 619.569C778.594 619.726 779.441 619.834 780.293 619.892C781.234 619.961 782.218 619.994 783.244 619.989C784.292 619.988 785.339 619.94 786.381 619.844C787.171 619.772 787.955 619.655 788.727 619.492C789.331 619.364 789.922 619.192 790.493 618.976C790.96 618.794 791.411 618.58 791.841 618.336L774.893 618.192ZM818.33 617.759C818.181 617.439 817.818 617.16 817.254 616.92C816.563 616.644 815.837 616.44 815.092 616.314C814.079 616.134 813.055 616.012 812.025 615.949C810.863 615.87 809.579 615.833 808.172 615.838C807.094 615.835 806.016 615.883 804.944 615.984C804.152 616.06 803.368 616.186 802.597 616.362C802.015 616.493 801.45 616.678 800.912 616.914C800.465 617.115 800.033 617.341 799.618 617.59L818.33 617.759Z" fill="#FCB048"/>
<path d="M798.68 611.171C772.64 611.171 745.528 613.206 741.191 617.132C741.36 617.268 741.518 617.414 741.665 617.568C745.32 614.838 767.708 612.088 798.68 612.088C830.446 612.088 853.193 614.982 855.948 617.779C856.083 617.626 856.228 617.48 856.384 617.343C852.803 613.278 825.181 611.171 798.68 611.171Z" fill="url(#paint70_linear)"/>
<path d="M724.039 605.099V616.585C724.039 620.297 750.185 623.305 782.437 623.305C814.69 623.305 840.836 620.297 840.836 616.585V605.099H724.039Z" fill="url(#paint71_linear)"/>
<path d="M840.836 605.098C840.836 608.809 814.69 611.819 782.437 611.819C750.185 611.819 724.039 608.809 724.039 605.098C724.039 601.386 750.185 598.379 782.437 598.379C814.69 598.379 840.836 601.387 840.836 605.098Z" fill="url(#paint72_linear)"/>
<path d="M782.437 612.281C753.873 612.281 724.004 609.862 724.004 605.196C724.004 604.94 724.107 604.49 724.396 604.49C724.685 604.49 724.56 604.842 724.56 605.099C724.56 608.058 748.335 611.351 782.441 611.351C816.546 611.351 840.321 608.053 840.321 605.099C840.321 604.842 840.37 604.602 840.659 604.602C840.948 604.602 840.879 604.943 840.879 605.201C840.871 609.866 811.001 612.281 782.437 612.281Z" fill="url(#paint73_linear)"/>
<path d="M776.918 605.473C777.492 605.121 778.101 604.775 778.753 604.432C779.546 604.037 780.388 603.725 781.262 603.504C782.522 603.187 783.81 602.961 785.112 602.83C787.026 602.637 788.952 602.544 790.879 602.553C793.136 602.543 795.254 602.606 797.234 602.744C798.989 602.854 800.734 603.059 802.461 603.357C803.961 603.631 805.184 603.97 806.131 604.375C807.078 604.78 807.637 605.24 807.808 605.754L814.383 605.812C814.807 605.81 815.229 605.845 815.644 605.916C816.012 605.982 816.19 606.062 816.19 606.168V606.648L807.736 606.576C807.439 607.164 806.683 607.701 805.47 608.189C804.257 608.676 802.712 609.1 800.835 609.458L797.755 609.077C797.524 609.049 797.297 609 797.077 608.932C796.898 608.875 796.813 608.813 796.813 608.744C796.813 608.653 797.049 608.547 797.526 608.429C798.003 608.311 798.539 608.163 799.138 607.993C799.739 607.817 800.328 607.611 800.902 607.375C801.476 607.136 801.86 606.853 802.06 606.523L782.106 606.347C781.541 606.711 780.953 607.048 780.345 607.354C779.526 607.743 778.657 608.043 777.756 608.247C776.438 608.55 775.095 608.764 773.741 608.89C771.73 609.073 769.709 609.16 767.687 609.151C765.859 609.16 764.08 609.099 762.335 608.968C760.774 608.862 759.222 608.668 757.688 608.387C756.537 608.185 755.419 607.861 754.356 607.42C753.491 607.034 753.005 606.594 752.905 606.094L747.494 606.044C747.066 606.046 746.637 606.013 746.215 605.945C745.843 605.881 745.653 605.8 745.651 605.69V605.21L753.053 605.272C753.381 604.766 754.05 604.324 755.076 603.949C756.294 603.522 757.55 603.187 758.831 602.947L761.31 603.25C762.063 603.343 762.437 603.453 762.438 603.58C762.438 603.647 762.286 603.725 761.974 603.833C761.663 603.94 761.291 604.054 760.863 604.193C760.44 604.329 760.028 604.49 759.63 604.673C759.28 604.825 758.972 605.044 758.729 605.314L776.918 605.473ZM758.659 606.127C758.806 606.443 759.138 606.709 759.643 606.941C760.24 607.199 760.872 607.388 761.523 607.504C762.36 607.661 763.206 607.77 764.058 607.828C765 607.897 765.983 607.929 767.01 607.924C768.057 607.926 769.104 607.88 770.147 607.788C770.936 607.715 771.72 607.597 772.493 607.434C773.097 607.307 773.688 607.134 774.259 606.918C774.726 606.736 775.176 606.523 775.607 606.28L758.659 606.127ZM802.096 605.698C801.946 605.378 801.584 605.099 801.02 604.859C800.328 604.583 799.602 604.38 798.857 604.255C797.845 604.073 796.821 603.952 795.791 603.89C794.629 603.809 793.345 603.772 791.938 603.779C790.859 603.775 789.782 603.824 788.709 603.924C787.918 604 787.134 604.127 786.363 604.302C785.78 604.433 785.215 604.618 784.677 604.855C784.23 605.055 783.798 605.281 783.384 605.53L802.096 605.698Z" fill="#FCB048"/>
<path d="M782.446 599.106C756.406 599.106 729.294 601.141 724.957 605.067C725.125 605.206 725.283 605.354 725.431 605.511C729.085 602.78 751.474 600.031 782.446 600.031C814.211 600.031 836.957 602.923 839.713 605.721C839.848 605.568 839.993 605.422 840.149 605.285C836.568 601.213 808.946 599.106 782.446 599.106Z" fill="url(#paint74_linear)"/>
<path d="M738.047 593.07V604.556C738.047 608.268 764.193 611.276 796.445 611.276C828.698 611.276 854.844 608.268 854.844 604.556V593.07H738.047Z" fill="url(#paint75_linear)"/>
<path d="M796.445 599.789C828.698 599.789 854.844 596.781 854.844 593.069C854.844 589.358 828.698 586.349 796.445 586.349C764.193 586.349 738.047 589.358 738.047 593.069C738.047 596.781 764.193 599.789 796.445 599.789Z" fill="url(#paint76_linear)"/>
<path d="M796.445 600.253C767.88 600.253 738.012 597.834 738.012 593.168C738.012 592.911 738.115 592.461 738.404 592.461C738.692 592.461 738.568 592.813 738.568 593.069C738.568 596.028 762.343 599.321 796.448 599.321C830.554 599.321 854.329 596.024 854.329 593.069C854.329 592.813 854.378 592.573 854.667 592.573C854.955 592.573 854.887 592.915 854.887 593.171C854.878 597.84 825.008 600.253 796.445 600.253Z" fill="url(#paint77_linear)"/>
<path d="M790.926 593.445C791.5 593.093 792.11 592.745 792.762 592.404C793.554 592.007 794.396 591.696 795.271 591.476C796.531 591.157 797.819 590.932 799.121 590.801C801.035 590.608 802.96 590.516 804.886 590.525C807.143 590.514 809.262 590.578 811.243 590.716C812.997 590.826 814.743 591.031 816.469 591.329C817.969 591.601 819.196 591.938 820.138 592.338C821.081 592.738 821.635 593.199 821.816 593.716L828.392 593.776C828.816 593.774 829.238 593.808 829.653 593.879C830.021 593.946 830.198 594.025 830.198 594.132V594.612L821.744 594.539C821.448 595.128 820.693 595.666 819.478 596.153C818.262 596.641 816.717 597.064 814.842 597.421L811.763 597.042C811.532 597.013 811.304 596.964 811.084 596.896C810.907 596.838 810.82 596.777 810.82 596.709C810.82 596.612 811.058 596.507 811.533 596.393C812.009 596.28 812.547 596.134 813.147 595.957C813.748 595.781 814.337 595.574 814.911 595.338C815.484 595.1 815.866 594.816 816.059 594.486L796.107 594.31C795.541 594.675 794.953 595.012 794.345 595.319C793.526 595.708 792.656 596.007 791.756 596.21C790.438 596.514 789.096 596.729 787.742 596.853C785.73 597.037 783.709 597.125 781.686 597.116C779.858 597.116 778.079 597.062 776.334 596.933C774.774 596.826 773.222 596.632 771.689 596.351C770.538 596.149 769.419 595.824 768.356 595.383C767.492 594.999 767.006 594.557 766.905 594.058L761.494 594.009C761.065 594.01 760.637 593.976 760.215 593.908C759.841 593.844 759.651 593.763 759.651 593.653V593.173L767.052 593.235C767.38 592.729 768.049 592.289 769.075 591.914C770.293 591.486 771.55 591.151 772.832 590.912L775.31 591.213C776.064 591.307 776.438 591.416 776.438 591.543C776.438 591.611 776.285 591.696 775.974 591.796C775.662 591.896 775.29 592.017 774.864 592.158C774.441 592.297 774.029 592.462 773.631 592.651C773.28 592.801 772.972 593.02 772.729 593.29L790.926 593.445ZM772.666 594.099C772.814 594.413 773.147 594.68 773.65 594.912C774.247 595.17 774.879 595.36 775.531 595.476C776.367 595.633 777.214 595.741 778.066 595.799C779.009 595.866 779.993 595.899 781.017 595.896C782.065 595.894 783.112 595.846 784.154 595.751C784.944 595.679 785.728 595.562 786.5 595.399C787.105 595.271 787.695 595.098 788.266 594.881C788.734 594.7 789.184 594.486 789.614 594.243L772.666 594.099ZM816.103 593.663C815.954 593.344 815.592 593.065 815.029 592.824C814.337 592.548 813.611 592.345 812.866 592.219C811.854 592.039 810.829 591.917 809.799 591.854C808.638 591.775 807.353 591.738 805.945 591.744C804.867 591.74 803.789 591.789 802.717 591.889C801.926 591.965 801.141 592.092 800.37 592.267C799.788 592.399 799.223 592.584 798.685 592.819C798.238 593.021 797.806 593.247 797.391 593.496L816.103 593.663Z" fill="#FCB048"/>
<path d="M796.453 587.08C770.414 587.08 743.302 589.116 738.965 593.041C739.134 593.177 739.292 593.323 739.438 593.478C743.095 590.747 765.481 587.998 796.453 587.998C828.219 587.998 850.966 590.891 853.721 593.688C853.856 593.536 854.002 593.39 854.157 593.252C850.576 589.183 822.954 587.08 796.453 587.08Z" fill="url(#paint78_linear)"/>
<path d="M730.76 581.005V592.491C730.76 596.203 756.906 599.211 789.158 599.211C821.411 599.211 847.557 596.203 847.557 592.491V581.005H730.76Z" fill="url(#paint79_linear)"/>
<path d="M789.158 587.725C821.411 587.725 847.557 584.716 847.557 581.005C847.557 577.293 821.411 574.284 789.158 574.284C756.906 574.284 730.76 577.293 730.76 581.005C730.76 584.716 756.906 587.725 789.158 587.725Z" fill="url(#paint80_linear)"/>
<path d="M789.158 588.188C760.595 588.188 730.727 585.769 730.727 581.103C730.727 580.847 730.828 580.397 731.119 580.397C731.409 580.397 731.283 580.749 731.283 581.004C731.283 583.965 755.058 587.256 789.163 587.256C823.269 587.256 847.044 583.96 847.044 581.004C847.044 580.749 847.093 580.509 847.382 580.509C847.67 580.509 847.601 580.85 847.601 581.106C847.592 585.772 817.723 588.188 789.158 588.188Z" fill="url(#paint81_linear)"/>
<path d="M783.641 581.38C784.214 581.028 784.825 580.681 785.476 580.339C786.268 579.943 787.11 579.632 787.984 579.411C789.245 579.093 790.532 578.868 791.834 578.736C793.749 578.543 795.674 578.451 797.601 578.46C799.857 578.449 801.976 578.513 803.956 578.651C805.711 578.761 807.457 578.966 809.184 579.264C810.683 579.537 811.907 579.873 812.853 580.273C813.791 580.676 814.35 581.134 814.531 581.653L821.106 581.711C821.529 581.71 821.951 581.744 822.367 581.814C822.734 581.881 822.911 581.96 822.913 582.067V582.547L814.46 582.474C814.163 583.063 813.407 583.601 812.194 584.088C810.981 584.576 809.435 584.999 807.557 585.356L804.479 584.977C804.248 584.948 804.02 584.9 803.799 584.831C803.622 584.775 803.535 584.712 803.535 584.644C803.535 584.552 803.773 584.446 804.25 584.328C804.727 584.21 805.263 584.062 805.862 583.892C806.463 583.716 807.052 583.51 807.626 583.274C808.2 583.036 808.584 582.752 808.784 582.421L788.83 582.246C788.264 582.611 787.676 582.947 787.068 583.254C786.249 583.643 785.38 583.942 784.48 584.145C783.162 584.449 781.82 584.664 780.465 584.789C778.454 584.972 776.433 585.059 774.411 585.051C772.581 585.06 770.804 584.997 769.057 584.868C767.497 584.762 765.945 584.568 764.412 584.286C763.261 584.084 762.142 583.759 761.079 583.318C760.215 582.934 759.729 582.492 759.628 581.993L754.217 581.944C753.788 581.945 753.36 581.912 752.938 581.843C752.564 581.779 752.374 581.698 752.374 581.589V581.108L759.775 581.17C760.103 580.666 760.774 580.224 761.799 579.849C763.017 579.421 764.273 579.086 765.555 578.847L768.034 579.149C768.787 579.242 769.161 579.353 769.161 579.478C769.161 579.546 769.01 579.631 768.698 579.731C768.387 579.831 768.015 579.953 767.587 580.093C767.164 580.232 766.752 580.397 766.354 580.586C766.003 580.737 765.695 580.956 765.452 581.226L783.641 581.38ZM765.38 582.034C765.529 582.348 765.86 582.615 766.363 582.848C766.961 583.106 767.593 583.295 768.244 583.411C769.08 583.569 769.927 583.678 770.779 583.736C771.723 583.806 772.706 583.839 773.731 583.834C774.779 583.833 775.826 583.784 776.869 583.689C777.659 583.617 778.443 583.499 779.215 583.337C779.819 583.209 780.409 583.037 780.98 582.821C781.447 582.639 781.898 582.425 782.327 582.181L765.38 582.034ZM808.816 581.605C808.669 581.285 808.306 581.006 807.742 580.766C807.051 580.49 806.325 580.287 805.58 580.16C804.567 579.98 803.543 579.858 802.513 579.795C801.351 579.716 800.067 579.679 798.659 579.684C797.58 579.68 796.502 579.729 795.43 579.83C794.639 579.905 793.855 580.031 793.084 580.206C792.502 580.338 791.937 580.523 791.398 580.759C790.952 580.96 790.52 581.186 790.106 581.435L808.816 581.605Z" fill="#FCB048"/>
<path d="M789.166 575.013C763.128 575.013 736.015 577.048 731.678 580.974C731.847 581.113 732.006 581.261 732.153 581.418C735.808 578.686 758.195 575.936 789.166 575.936C820.934 575.936 843.679 578.83 846.434 581.627C846.57 581.474 846.716 581.328 846.872 581.191C843.289 577.12 815.669 575.013 789.166 575.013Z" fill="url(#paint82_linear)"/>
<path d="M864.169 589.101L853.614 595.759C850.203 597.911 862.593 618.546 881.287 641.849C899.981 665.151 917.903 682.303 921.313 680.151L931.868 673.494L864.169 589.101Z" fill="url(#paint83_linear)"/>
<path d="M931.868 673.497C928.457 675.649 910.537 658.499 891.843 635.194C873.149 611.889 860.758 591.253 864.169 589.104C867.579 586.956 885.499 604.102 904.193 627.407C922.887 650.712 935.278 671.345 931.868 673.497Z" fill="url(#paint84_linear)"/>
<path d="M891.417 635.463C874.856 614.817 859.771 591.845 864.059 589.135C864.295 588.99 864.769 588.799 864.936 589.009C865.103 589.218 864.708 589.331 864.472 589.48C861.752 591.195 872.506 610.281 892.27 634.925C912.033 659.57 928.846 674.835 931.564 673.119C931.801 672.973 932.056 672.867 932.22 673.075C932.384 673.283 932.033 673.433 931.797 673.581C927.506 676.286 907.973 656.102 891.417 635.463Z" fill="url(#paint85_linear)"/>
<path d="M894.475 627.53C895.131 627.739 895.803 627.979 896.497 628.257C897.319 628.6 898.093 629.028 898.802 629.532C899.825 630.258 900.778 631.057 901.653 631.922C902.941 633.193 904.142 634.531 905.251 635.929C906.563 637.554 907.732 639.122 908.76 640.632C909.674 641.964 910.496 643.344 911.219 644.765C911.839 646.006 912.239 647.085 912.419 648.001C912.6 648.917 912.501 649.587 912.124 650.012L915.881 654.798C916.129 655.102 916.342 655.427 916.517 655.769C916.669 656.073 916.696 656.249 916.602 656.309L916.163 656.589L911.329 650.439C910.615 650.566 909.683 650.332 908.532 649.737C907.381 649.142 906.097 648.269 904.68 647.12L903.244 644.674C903.135 644.492 903.048 644.3 902.981 644.102C902.931 643.94 902.939 643.841 903.001 643.802C903.063 643.763 903.321 643.859 903.705 644.135C904.088 644.411 904.536 644.717 905.044 645.044C905.554 645.376 906.085 645.683 906.635 645.961C907.186 646.237 907.669 646.349 908.089 646.303L896.685 631.784C896.022 631.586 895.371 631.356 894.737 631.095C893.905 630.728 893.126 630.274 892.417 629.741C891.374 628.965 890.399 628.119 889.5 627.213C888.165 625.868 886.913 624.46 885.748 622.996C884.68 621.679 883.703 620.354 882.815 619.021C882.009 617.831 881.29 616.597 880.662 615.325C880.181 614.376 879.831 613.38 879.619 612.356C879.472 611.509 879.596 610.902 879.996 610.539L876.904 606.599C876.652 606.29 876.433 605.961 876.248 605.617C876.084 605.31 876.058 605.123 876.156 605.062L876.596 604.781L880.828 610.161C881.484 610.104 882.276 610.334 883.215 610.857C884.314 611.49 885.351 612.203 886.314 612.99L887.473 614.956C887.823 615.555 887.939 615.888 887.824 615.962C887.76 616.001 887.595 615.94 887.323 615.773C887.05 615.606 886.722 615.408 886.347 615.18C885.972 614.956 885.582 614.754 885.178 614.575C884.836 614.41 884.457 614.314 884.068 614.294L894.475 627.53ZM883.291 614.715C883.087 615.005 883.03 615.401 883.112 615.897C883.222 616.477 883.414 617.044 883.684 617.582C884.023 618.277 884.415 618.951 884.856 619.6C885.341 620.321 885.882 621.051 886.48 621.791C887.086 622.549 887.735 623.279 888.424 623.979C888.948 624.508 889.511 625.006 890.108 625.469C890.576 625.832 891.077 626.159 891.607 626.446C892.045 626.678 892.502 626.88 892.975 627.05L883.291 614.715ZM908.87 645.852C909.078 645.561 909.124 645.135 909.019 644.589C908.87 643.929 908.636 643.287 908.32 642.675C907.899 641.84 907.418 641.029 906.879 640.249C906.277 639.362 905.566 638.412 904.747 637.4C904.125 636.619 903.455 635.869 902.74 635.153C902.212 634.625 901.641 634.131 901.034 633.675C900.575 633.332 900.077 633.031 899.548 632.778C899.105 632.573 898.647 632.391 898.179 632.236L908.87 645.852Z" fill="#FCB048"/>
<path d="M903.531 627.831C888.446 609.016 870.855 590.603 864.726 589.75C864.698 589.952 864.654 590.152 864.595 590.349C869.224 591.407 884.727 605.99 902.678 628.369C921.09 651.323 931.617 669.434 930.643 673.047C930.863 673.056 931.082 673.076 931.299 673.108C932.965 668.161 918.892 646.983 903.531 627.831Z" fill="url(#paint86_linear)"/>
<path d="M852.503 302.517C807.552 280.286 750.377 292.863 725.046 330.546C721.951 335.141 719.409 340.011 717.464 345.077C714.551 352.674 713.027 360.636 712.948 368.66L726.229 354.692C727.99 347.911 730.937 341.418 734.964 335.446C757.211 302.343 807.438 291.303 846.919 310.831C863.316 318.936 875.737 331.152 882.676 345.799C884.04 348.664 885.185 351.608 886.103 354.609C886.895 357.198 890 358.792 893.044 358.17C896.087 357.547 897.904 354.946 897.112 352.354C896.434 350.158 895.662 348.003 894.795 345.887C887.274 327.638 872.48 312.401 852.503 302.517Z" fill="url(#paint87_linear)"/>
<g filter="url(#filter1_d)">
<path d="M982.634 688.916C1002.76 686.624 1028.27 680.599 1038.52 663.617C1040.96 659.575 1043.41 651.726 1037.25 648.77C1031.63 646.067 1024.36 648.915 1020.17 652.438C1017.1 655.023 1014.7 660.794 1011.25 662.616C1006.19 665.286 1003.47 657.999 1003.58 654.991C1003.82 648.268 1013.14 645.514 1019.34 644.055C1029.63 641.631 1041.61 639.547 1040.97 629.271C1040.33 618.994 1029.02 612.815 1020.32 617.322C1013.15 621.03 1014.16 628.941 1009.27 633.688C1004.92 637.904 1003.4 631.061 1003.69 627.705C1004.32 620.415 1011.55 615.143 1016.87 610.258C1022.88 604.733 1029.53 593.623 1023.12 586.322C1019.43 582.12 1010.06 581.135 1004.52 581.845C977.415 585.315 995.389 616.421 990.46 619.89C985.531 623.359 980.868 617.286 980.881 608.049C980.894 598.812 979.299 591.999 968.427 594.955C957.556 597.911 955.486 622.039 967.9 631.312C980.314 640.585 967.121 650.702 963.787 644.056C961.382 639.258 959.267 626.693 952.309 625.315C940.724 623.022 940.896 643.999 944.231 648.882C948.904 655.727 959.48 657.213 965.383 663.119C967.098 664.833 970.969 669.08 969.464 671.589C967.367 675.086 961.516 671.345 959.365 669.724C954.533 666.08 947.843 653.699 941.033 661.922C932.625 672.072 946.685 687.125 982.634 688.916Z" fill="#34D2A5"/>
</g>
<g style="mix-blend-mode:soft-light" opacity="0.8">
<g style="mix-blend-mode:soft-light" opacity="0.8">
<path d="M985.533 687.238C985.061 687.238 984.672 686.843 984.664 686.421C984.664 686.056 984.097 649.446 1002.11 605.941C1002.19 605.747 1002.35 605.589 1002.56 605.5C1002.77 605.411 1003.01 605.4 1003.23 605.467C1003.34 605.501 1003.43 605.554 1003.52 605.622C1003.6 605.69 1003.67 605.772 1003.72 605.863C1003.77 605.954 1003.79 606.053 1003.8 606.154C1003.8 606.255 1003.78 606.355 1003.74 606.45C985.84 649.687 986.397 686.034 986.397 686.396C986.407 686.822 986.025 687.238 985.544 687.238H985.533Z" fill="white"/>
</g>
</g>
<path d="M992.934 673.267C989.671 670.806 982.741 674.654 979.865 676.118C978.195 676.969 975.913 678.272 973.904 677.515C971.797 676.72 971.945 674.753 973.221 673.367C975.503 670.877 979.883 670.193 983.067 668.979C986.486 667.671 989.626 665.901 991.311 662.841C992.656 660.401 992.964 656.794 991.451 654.391C987.261 647.74 981.163 652.937 977.754 656.897C976.1 658.822 972.394 662.131 969.585 659.868C966.598 657.454 969.162 653.149 971.479 651.25C974.509 648.77 978.177 647.045 981.481 644.888C984.456 642.944 987.51 640.158 985.53 636.711C984 634.047 980.15 632.573 976.861 632.8C969.259 633.322 968.074 643.163 963.068 646.942C961.298 648.278 957.273 649.341 955.163 648.03C953.013 646.692 954.41 643.634 955.182 641.965C957.478 637.022 973.921 620.438 960.292 618.356C956.862 617.831 952.133 618.792 949.437 620.723C944.354 624.373 941.653 631.599 940.314 637.081C938.207 645.708 938.327 655.289 940.678 663.867C945.877 682.827 958.093 688.916 958.093 688.916C963.378 690.458 969.984 691.219 975.462 690.191C981.901 688.983 989.601 684.756 992.785 679.483C993.81 677.777 994.955 674.791 992.934 673.267Z" fill="url(#paint88_linear)"/>
<path d="M868.34 337.285L890.892 350.683L906.235 331.812L909.294 345.503L893.95 364.365L871.4 350.977L868.34 337.285Z" fill="url(#paint89_linear)"/>
<defs>
<filter id="filter0_d" x="128.598" y="173.762" width="746.634" height="685.08" filterUnits="userSpaceOnUse" color-interpolation-filters="sRGB">
<feFlood flood-opacity="0" result="BackgroundImageFix"/>
<feColorMatrix in="SourceAlpha" type="matrix" values="0 0 0 0 0 0 0 0 0 0 0 0 0 0 0 0 0 0 127 0"/>
<feOffset dy="4"/>
<feGaussianBlur stdDeviation="2"/>
<feColorMatrix type="matrix" values="0 0 0 0 0 0 0 0 0 0 0 0 0 0 0 0 0 0 0.25 0"/>
<feBlend mode="normal" in2="BackgroundImageFix" result="effect1_dropShadow"/>
<feBlend mode="normal" in="SourceGraphic" in2="effect1_dropShadow" result="shape"/>
</filter>
<filter id="filter1_d" x="934.67" y="581.634" width="110.455" height="115.282" filterUnits="userSpaceOnUse" color-interpolation-filters="sRGB">
<feFlood flood-opacity="0" result="BackgroundImageFix"/>
<feColorMatrix in="SourceAlpha" type="matrix" values="0 0 0 0 0 0 0 0 0 0 0 0 0 0 0 0 0 0 127 0"/>
<feOffset dy="4"/>
<feGaussianBlur stdDeviation="2"/>
<feColorMatrix type="matrix" values="0 0 0 0 0 0 0 0 0 0 0 0 0 0 0 0 0 0 0.25 0"/>
<feBlend mode="normal" in2="BackgroundImageFix" result="effect1_dropShadow"/>
<feBlend mode="normal" in="SourceGraphic" in2="effect1_dropShadow" result="shape"/>
</filter>
<linearGradient id="paint0_linear" x1="602.64" y1="399.681" x2="816.193" y2="399.681" gradientUnits="userSpaceOnUse">
<stop stop-color="#E38DDD"/>
<stop offset="1" stop-color="#9571F6"/>
</linearGradient>
<linearGradient id="paint1_linear" x1="867.635" y1="480.544" x2="973.573" y2="538.722" gradientUnits="userSpaceOnUse">
<stop stop-color="#444B8C"/>
<stop offset="1" stop-color="#26264F"/>
</linearGradient>
<linearGradient id="paint2_linear" x1="396957" y1="464925" x2="518412" y2="469084" gradientUnits="userSpaceOnUse">
<stop stop-color="#444B8C"/>
<stop offset="1" stop-color="#26264F"/>
</linearGradient>
<linearGradient id="paint3_linear" x1="945.016" y1="369.594" x2="1080.9" y2="784.634" gradientUnits="userSpaceOnUse">
<stop stop-color="#FFC444"/>
<stop offset="1" stop-color="#F36F56"/>
</linearGradient>
<linearGradient id="paint4_linear" x1="219562" y1="401286" x2="70138.3" y2="450924" gradientUnits="userSpaceOnUse">
<stop stop-color="#444B8C"/>
<stop offset="1" stop-color="#26264F"/>
</linearGradient>
<linearGradient id="paint5_linear" x1="99819.2" y1="468001" x2="240838" y2="472828" gradientUnits="userSpaceOnUse">
<stop stop-color="#444B8C"/>
<stop offset="1" stop-color="#26264F"/>
</linearGradient>
<linearGradient id="paint6_linear" x1="686.352" y1="3498.51" x2="-4107" y2="17713.3" gradientUnits="userSpaceOnUse">
<stop stop-color="#FFC444"/>
<stop offset="1" stop-color="#F36F56"/>
</linearGradient>
<linearGradient id="paint7_linear" x1="901.299" y1="646.63" x2="925.271" y2="744.191" gradientUnits="userSpaceOnUse">
<stop stop-color="#311944"/>
<stop offset="1" stop-color="#D0E8B3"/>
</linearGradient>
<linearGradient id="paint8_linear" x1="21028.5" y1="23889.6" x2="21052.3" y2="22168" gradientUnits="userSpaceOnUse">
<stop stop-color="#FFC444"/>
<stop offset="1" stop-color="#F36F56"/>
</linearGradient>
<linearGradient id="paint9_linear" x1="941.611" y1="652.131" x2="965.582" y2="749.686" gradientUnits="userSpaceOnUse">
<stop stop-color="#311944"/>
<stop offset="1" stop-color="#D0E8B3"/>
</linearGradient>
<linearGradient id="paint10_linear" x1="22706.9" y1="23918.8" x2="22730.7" y2="22197.2" gradientUnits="userSpaceOnUse">
<stop stop-color="#FFC444"/>
<stop offset="1" stop-color="#F36F56"/>
</linearGradient>
<linearGradient id="paint11_linear" x1="26737.3" y1="422262" x2="48034.5" y2="422058" gradientUnits="userSpaceOnUse">
<stop stop-color="#137753"/>
<stop offset="1" stop-color="#893976"/>
</linearGradient>
<linearGradient id="paint12_linear" x1="75687.7" y1="403239" x2="81510.2" y2="403239" gradientUnits="userSpaceOnUse">
<stop stop-color="#311944"/>
<stop offset="1" stop-color="#893976"/>
</linearGradient>
<linearGradient id="paint13_linear" x1="40139.2" y1="429162" x2="72465.5" y2="428700" gradientUnits="userSpaceOnUse">
<stop stop-color="#137753"/>
<stop offset="1" stop-color="#893976"/>
</linearGradient>
<linearGradient id="paint14_linear" x1="53450.2" y1="13740.6" x2="54984.5" y2="17413.4" gradientUnits="userSpaceOnUse">
<stop stop-color="#FFC444"/>
<stop offset="1" stop-color="#F36F56"/>
</linearGradient>
<linearGradient id="paint15_linear" x1="-70231.1" y1="94859.7" x2="-122235" y2="186040" gradientUnits="userSpaceOnUse">
<stop stop-color="#137753"/>
<stop offset="1" stop-color="#6165D7"/>
</linearGradient>
<linearGradient id="paint16_linear" x1="903.849" y1="420.603" x2="915.141" y2="608.807" gradientUnits="userSpaceOnUse">
<stop stop-color="#FF9263"/>
<stop offset="0.0001" stop-color="#FF4D00"/>
<stop offset="0.8125" stop-color="#FFF510"/>
<stop offset="1" stop-color="#FFA950"/>
</linearGradient>
<linearGradient id="paint17_linear" x1="80025.1" y1="28580.6" x2="82765" y2="39164.2" gradientUnits="userSpaceOnUse">
<stop stop-color="#FFC444"/>
<stop offset="1" stop-color="#F36F56"/>
</linearGradient>
<linearGradient id="paint18_linear" x1="-60229.4" y1="193542" x2="-12862.4" y2="129679" gradientUnits="userSpaceOnUse">
<stop stop-color="#D1C341"/>
<stop offset="1" stop-color="#D7A861"/>
</linearGradient>
<linearGradient id="paint19_linear" x1="915.096" y1="392.317" x2="940.55" y2="460.625" gradientUnits="userSpaceOnUse">
<stop stop-color="#311944"/>
<stop offset="1" stop-color="#D0E8B3"/>
</linearGradient>
<linearGradient id="paint20_linear" x1="909.795" y1="96.8322" x2="1226.8" y2="348.195" gradientUnits="userSpaceOnUse">
<stop stop-color="#311944"/>
<stop offset="1" stop-color="#D0E8B3"/>
</linearGradient>
<linearGradient id="paint21_linear" x1="44141.7" y1="15092.6" x2="45788.3" y2="17409.8" gradientUnits="userSpaceOnUse">
<stop stop-color="#1A3113"/>
<stop offset="1" stop-color="#26264F"/>
</linearGradient>
<linearGradient id="paint22_linear" x1="15790.4" y1="14612.3" x2="17853.6" y2="19232.2" gradientUnits="userSpaceOnUse">
<stop stop-color="#FFC444"/>
<stop offset="1" stop-color="#F36F56"/>
</linearGradient>
<linearGradient id="paint23_linear" x1="27969.5" y1="13878.3" x2="29566.9" y2="15412.5" gradientUnits="userSpaceOnUse">
<stop stop-color="#1A3113"/>
<stop offset="1" stop-color="#26264F"/>
</linearGradient>
<linearGradient id="paint24_linear" x1="919.718" y1="409.412" x2="923.057" y2="414.549" gradientUnits="userSpaceOnUse">
<stop stop-color="#FFC444"/>
<stop offset="1" stop-color="#F36F56"/>
</linearGradient>
<linearGradient id="paint25_linear" x1="-26916.5" y1="19186" x2="-27463.9" y2="20651.5" gradientUnits="userSpaceOnUse">
<stop stop-color="#FFC444"/>
<stop offset="1" stop-color="#F36F56"/>
</linearGradient>
<linearGradient id="paint26_linear" x1="-59032.2" y1="28424.3" x2="-60000.8" y2="35915.7" gradientUnits="userSpaceOnUse">
<stop stop-color="#244419"/>
<stop offset="1" stop-color="#893976"/>
</linearGradient>
<linearGradient id="paint27_linear" x1="-17945.7" y1="24917.9" x2="-17970.1" y2="23156.2" gradientUnits="userSpaceOnUse">
<stop stop-color="#FFC444"/>
<stop offset="1" stop-color="#F36F56"/>
</linearGradient>
<linearGradient id="paint28_linear" x1="-59068.1" y1="28430.1" x2="-60036.8" y2="35921.5" gradientUnits="userSpaceOnUse">
<stop stop-color="#244419"/>
<stop offset="1" stop-color="#893976"/>
</linearGradient>
<linearGradient id="paint29_linear" x1="-19572.1" y1="24947.9" x2="-19596.5" y2="23186.1" gradientUnits="userSpaceOnUse">
<stop stop-color="#FFC444"/>
<stop offset="1" stop-color="#F36F56"/>
</linearGradient>
<linearGradient id="paint30_linear" x1="26791.7" y1="427091" x2="48331.9" y2="426885" gradientUnits="userSpaceOnUse">
<stop stop-color="#137753"/>
<stop offset="1" stop-color="#893976"/>
</linearGradient>
<linearGradient id="paint31_linear" x1="-68733.7" y1="423314" x2="-74689.7" y2="423314" gradientUnits="userSpaceOnUse">
<stop stop-color="#444B8C"/>
<stop offset="1" stop-color="#26264F"/>
</linearGradient>
<linearGradient id="paint32_linear" x1="40283" y1="434070" x2="72976.9" y2="433603" gradientUnits="userSpaceOnUse">
<stop stop-color="#137753"/>
<stop offset="1" stop-color="#893976"/>
</linearGradient>
<linearGradient id="paint33_linear" x1="-46907.3" y1="14658.5" x2="-48475" y2="18412.7" gradientUnits="userSpaceOnUse">
<stop stop-color="#FFC444"/>
<stop offset="1" stop-color="#F36F56"/>
</linearGradient>
<linearGradient id="paint34_linear" x1="26003" y1="91278.2" x2="97514.1" y2="182036" gradientUnits="userSpaceOnUse">
<stop stop-color="#FFB185"/>
<stop offset="1" stop-color="#FB6FBB"/>
</linearGradient>
<linearGradient id="paint35_linear" x1="336732" y1="373995" x2="298243" y2="307323" gradientUnits="userSpaceOnUse">
<stop stop-color="#20A58D"/>
<stop offset="1" stop-color="#FF9A03"/>
</linearGradient>
<linearGradient id="paint36_linear" x1="313369" y1="288727" x2="211410" y2="179224" gradientUnits="userSpaceOnUse">
<stop stop-color="#FF9B85"/>
<stop offset="1" stop-color="#FF984E"/>
</linearGradient>
<linearGradient id="paint37_linear" x1="9960.04" y1="41466" x2="43182.3" y2="75740.2" gradientUnits="userSpaceOnUse">
<stop stop-color="#FFB185"/>
<stop offset="1" stop-color="#FB6FBB"/>
</linearGradient>
<linearGradient id="paint38_linear" x1="675.87" y1="434.764" x2="688.672" y2="398.097" gradientUnits="userSpaceOnUse">
<stop/>
<stop offset="1" stop-color="#05083A"/>
</linearGradient>
<linearGradient id="paint39_linear" x1="4403.96" y1="16367.6" x2="17300.7" y2="30076.2" gradientUnits="userSpaceOnUse">
<stop stop-color="#FFB185"/>
<stop offset="1" stop-color="#FB6FBB"/>
</linearGradient>
<linearGradient id="paint40_linear" x1="80228" y1="203252" x2="31712.3" y2="138151" gradientUnits="userSpaceOnUse">
<stop stop-color="#F03A01"/>
<stop offset="1" stop-color="#FF5A13"/>
</linearGradient>
<linearGradient id="paint41_linear" x1="40433.9" y1="12276.4" x2="40433.9" y2="7866.84" gradientUnits="userSpaceOnUse">
<stop stop-color="#137753"/>
<stop offset="1" stop-color="#142D24"/>
</linearGradient>
<linearGradient id="paint42_linear" x1="98988.2" y1="99488.3" x2="98988.2" y2="62580.2" gradientUnits="userSpaceOnUse">
<stop stop-color="#137753"/>
<stop offset="1" stop-color="#142D24"/>
</linearGradient>
<linearGradient id="paint43_linear" x1="760.416" y1="485.159" x2="689.023" y2="510.998" gradientUnits="userSpaceOnUse">
<stop stop-color="#FCB148"/>
<stop offset="0.05" stop-color="#FDBA46"/>
<stop offset="0.14" stop-color="#FFC244"/>
<stop offset="0.32" stop-color="#FFC444"/>
<stop offset="0.48" stop-color="#FDB946"/>
<stop offset="0.78" stop-color="#F99C4D"/>
<stop offset="0.87" stop-color="#F8924F"/>
<stop offset="1" stop-color="#F8924F"/>
</linearGradient>
<linearGradient id="paint44_linear" x1="819.634" y1="420.546" x2="766.306" y2="553.226" gradientUnits="userSpaceOnUse">
<stop stop-color="#FFDB44"/>
<stop offset="1" stop-color="#FEEF06"/>
</linearGradient>
<linearGradient id="paint45_linear" x1="170669" y1="206127" x2="163115" y2="160417" gradientUnits="userSpaceOnUse">
<stop stop-color="#FCB148"/>
<stop offset="0.05" stop-color="#FDBA46"/>
<stop offset="0.14" stop-color="#FFC244"/>
<stop offset="0.32" stop-color="#FFC444"/>
<stop offset="0.48" stop-color="#FDB946"/>
<stop offset="0.78" stop-color="#F99C4D"/>
<stop offset="0.87" stop-color="#F8924F"/>
<stop offset="1" stop-color="#F8924F"/>
</linearGradient>
<linearGradient id="paint46_linear" x1="146003" y1="128076" x2="176931" y2="200796" gradientUnits="userSpaceOnUse">
<stop stop-color="#FCB148"/>
<stop offset="0.05" stop-color="#FDBA46"/>
<stop offset="0.14" stop-color="#FFC244"/>
<stop offset="0.32" stop-color="#FFC444"/>
<stop offset="0.48" stop-color="#FDB946"/>
<stop offset="0.78" stop-color="#F99C4D"/>
<stop offset="0.87" stop-color="#F8924F"/>
<stop offset="1" stop-color="#F8924F"/>
</linearGradient>
<linearGradient id="paint47_linear" x1="71694.2" y1="92203" x2="90430.6" y2="139241" gradientUnits="userSpaceOnUse">
<stop stop-color="#FFDB44"/>
<stop offset="1" stop-color="#FEEF06"/>
</linearGradient>
<linearGradient id="paint48_linear" x1="80949.4" y1="132278" x2="121319" y2="189045" gradientUnits="userSpaceOnUse">
<stop stop-color="#FCB148"/>
<stop offset="0.05" stop-color="#FDBA46"/>
<stop offset="0.14" stop-color="#FFC244"/>
<stop offset="0.32" stop-color="#FFC444"/>
<stop offset="0.48" stop-color="#FDB946"/>
<stop offset="0.78" stop-color="#F99C4D"/>
<stop offset="0.87" stop-color="#F8924F"/>
<stop offset="1" stop-color="#F8924F"/>
</linearGradient>
<linearGradient id="paint49_linear" x1="14442.8" y1="15323.2" x2="17602.3" y2="20227.5" gradientUnits="userSpaceOnUse">
<stop stop-color="#FFC444"/>
<stop offset="1" stop-color="#F36F56"/>
</linearGradient>
<linearGradient id="paint50_linear" x1="27438" y1="123539" x2="127106" y2="222469" gradientUnits="userSpaceOnUse">
<stop stop-color="#FFB185"/>
<stop offset="1" stop-color="#FB6FBB"/>
</linearGradient>
<linearGradient id="paint51_linear" x1="730.287" y1="675.44" x2="864.656" y2="675.44" gradientUnits="userSpaceOnUse">
<stop stop-color="#F68252"/>
<stop offset="0.04" stop-color="#F99A4D"/>
<stop offset="0.08" stop-color="#FCAD49"/>
<stop offset="0.13" stop-color="#FEBA46"/>
<stop offset="0.2" stop-color="#FFC244"/>
<stop offset="0.32" stop-color="#FFC444"/>
<stop offset="0.45" stop-color="#FDB946"/>
<stop offset="0.69" stop-color="#F99C4C"/>
<stop offset="1" stop-color="#F36F56"/>
</linearGradient>
<linearGradient id="paint52_linear" x1="159639" y1="36066.8" x2="159707" y2="40996.2" gradientUnits="userSpaceOnUse">
<stop stop-color="#FFDB44"/>
<stop offset="1" stop-color="#FEEF06"/>
</linearGradient>
<linearGradient id="paint53_linear" x1="159545" y1="21066.6" x2="159552" y2="21944.4" gradientUnits="userSpaceOnUse">
<stop stop-color="#FFDB44"/>
<stop offset="1" stop-color="#FEEF06"/>
</linearGradient>
<linearGradient id="paint54_linear" x1="799.826" y1="674.129" x2="798.117" y2="657.989" gradientUnits="userSpaceOnUse">
<stop stop-color="#F36F56"/>
<stop offset="0.31" stop-color="#F99C4C"/>
<stop offset="0.55" stop-color="#FDB946"/>
<stop offset="0.68" stop-color="#FFC444"/>
<stop offset="0.8" stop-color="#FFC244"/>
<stop offset="0.87" stop-color="#FEBA46"/>
<stop offset="0.92" stop-color="#FCAD49"/>
<stop offset="0.96" stop-color="#F99A4D"/>
<stop offset="1" stop-color="#F57E53"/>
</linearGradient>
<linearGradient id="paint55_linear" x1="99773" y1="48787" x2="195486" y2="48787" gradientUnits="userSpaceOnUse">
<stop stop-color="#F68252"/>
<stop offset="0.04" stop-color="#F99A4D"/>
<stop offset="0.08" stop-color="#FCAD49"/>
<stop offset="0.13" stop-color="#FEBA46"/>
<stop offset="0.2" stop-color="#FFC244"/>
<stop offset="0.32" stop-color="#FFC444"/>
<stop offset="0.45" stop-color="#FDB946"/>
<stop offset="0.69" stop-color="#F99C4C"/>
<stop offset="1" stop-color="#F36F56"/>
</linearGradient>
<linearGradient id="paint56_linear" x1="148070" y1="34939.4" x2="148138" y2="39868.7" gradientUnits="userSpaceOnUse">
<stop stop-color="#FFDB44"/>
<stop offset="1" stop-color="#FEEF06"/>
</linearGradient>
<linearGradient id="paint57_linear" x1="147956" y1="20411.7" x2="147963" y2="21289.6" gradientUnits="userSpaceOnUse">
<stop stop-color="#FFDB44"/>
<stop offset="1" stop-color="#FEEF06"/>
</linearGradient>
<linearGradient id="paint58_linear" x1="-49300.7" y1="4501.51" x2="-49295.6" y2="5243.31" gradientUnits="userSpaceOnUse">
<stop stop-color="#F36F56"/>
<stop offset="0.31" stop-color="#F99C4C"/>
<stop offset="0.55" stop-color="#FDB946"/>
<stop offset="0.68" stop-color="#FFC444"/>
<stop offset="0.8" stop-color="#FFC244"/>
<stop offset="0.87" stop-color="#FEBA46"/>
<stop offset="0.92" stop-color="#FCAD49"/>
<stop offset="0.96" stop-color="#F99A4D"/>
<stop offset="1" stop-color="#F57E53"/>
</linearGradient>
<linearGradient id="paint59_linear" x1="109766" y1="47268.6" x2="205479" y2="47268.6" gradientUnits="userSpaceOnUse">
<stop stop-color="#F68252"/>
<stop offset="0.04" stop-color="#F99A4D"/>
<stop offset="0.08" stop-color="#FCAD49"/>
<stop offset="0.13" stop-color="#FEBA46"/>
<stop offset="0.2" stop-color="#FFC244"/>
<stop offset="0.32" stop-color="#FFC444"/>
<stop offset="0.45" stop-color="#FDB946"/>
<stop offset="0.69" stop-color="#F99C4C"/>
<stop offset="1" stop-color="#F36F56"/>
</linearGradient>
<linearGradient id="paint60_linear" x1="158062" y1="33815.4" x2="158130" y2="38744.7" gradientUnits="userSpaceOnUse">
<stop stop-color="#FFDB44"/>
<stop offset="1" stop-color="#FEEF06"/>
</linearGradient>
<linearGradient id="paint61_linear" x1="157956" y1="19751.3" x2="157963" y2="20629.1" gradientUnits="userSpaceOnUse">
<stop stop-color="#FFDB44"/>
<stop offset="1" stop-color="#FEEF06"/>
</linearGradient>
<linearGradient id="paint62_linear" x1="-59128.8" y1="5040.09" x2="-59123.7" y2="5782.55" gradientUnits="userSpaceOnUse">
<stop stop-color="#F36F56"/>
<stop offset="0.31" stop-color="#F99C4C"/>
<stop offset="0.55" stop-color="#FDB946"/>
<stop offset="0.68" stop-color="#FFC444"/>
<stop offset="0.8" stop-color="#FFC244"/>
<stop offset="0.87" stop-color="#FEBA46"/>
<stop offset="0.92" stop-color="#FCAD49"/>
<stop offset="0.96" stop-color="#F99A4D"/>
<stop offset="1" stop-color="#F57E53"/>
</linearGradient>
<linearGradient id="paint63_linear" x1="115829" y1="45745.7" x2="211543" y2="45745.7" gradientUnits="userSpaceOnUse">
<stop stop-color="#F68252"/>
<stop offset="0.04" stop-color="#F99A4D"/>
<stop offset="0.08" stop-color="#FCAD49"/>
<stop offset="0.13" stop-color="#FEBA46"/>
<stop offset="0.2" stop-color="#FFC244"/>
<stop offset="0.32" stop-color="#FFC444"/>
<stop offset="0.45" stop-color="#FDB946"/>
<stop offset="0.69" stop-color="#F99C4C"/>
<stop offset="1" stop-color="#F36F56"/>
</linearGradient>
<linearGradient id="paint64_linear" x1="164125" y1="32688" x2="164193" y2="37617.4" gradientUnits="userSpaceOnUse">
<stop stop-color="#FFDB44"/>
<stop offset="1" stop-color="#FEEF06"/>
</linearGradient>
<linearGradient id="paint65_linear" x1="164027" y1="19092.7" x2="164034" y2="19970.4" gradientUnits="userSpaceOnUse">
<stop stop-color="#FFDB44"/>
<stop offset="1" stop-color="#FEEF06"/>
</linearGradient>
<linearGradient id="paint66_linear" x1="-65092.8" y1="5577.97" x2="-65087.7" y2="6320.51" gradientUnits="userSpaceOnUse">
<stop stop-color="#F36F56"/>
<stop offset="0.31" stop-color="#F99C4C"/>
<stop offset="0.55" stop-color="#FDB946"/>
<stop offset="0.68" stop-color="#FFC444"/>
<stop offset="0.8" stop-color="#FFC244"/>
<stop offset="0.87" stop-color="#FEBA46"/>
<stop offset="0.92" stop-color="#FCAD49"/>
<stop offset="0.96" stop-color="#F99A4D"/>
<stop offset="1" stop-color="#F57E53"/>
</linearGradient>
<linearGradient id="paint67_linear" x1="111353" y1="44102.9" x2="207067" y2="44102.9" gradientUnits="userSpaceOnUse">
<stop stop-color="#F68252"/>
<stop offset="0.04" stop-color="#F99A4D"/>
<stop offset="0.08" stop-color="#FCAD49"/>
<stop offset="0.13" stop-color="#FEBA46"/>
<stop offset="0.2" stop-color="#FFC244"/>
<stop offset="0.32" stop-color="#FFC444"/>
<stop offset="0.45" stop-color="#FDB946"/>
<stop offset="0.69" stop-color="#F99C4C"/>
<stop offset="1" stop-color="#F36F56"/>
</linearGradient>
<linearGradient id="paint68_linear" x1="159650" y1="31471.8" x2="159718" y2="36401.2" gradientUnits="userSpaceOnUse">
<stop stop-color="#FFDB44"/>
<stop offset="1" stop-color="#FEEF06"/>
</linearGradient>
<linearGradient id="paint69_linear" x1="159545" y1="18382.1" x2="159552" y2="19259.9" gradientUnits="userSpaceOnUse">
<stop stop-color="#FFDB44"/>
<stop offset="1" stop-color="#FEEF06"/>
</linearGradient>
<linearGradient id="paint70_linear" x1="-60689.7" y1="6151.05" x2="-60684.6" y2="6892.84" gradientUnits="userSpaceOnUse">
<stop stop-color="#F36F56"/>
<stop offset="0.31" stop-color="#F99C4C"/>
<stop offset="0.55" stop-color="#FDB946"/>
<stop offset="0.68" stop-color="#FFC444"/>
<stop offset="0.8" stop-color="#FFC244"/>
<stop offset="0.87" stop-color="#FEBA46"/>
<stop offset="0.92" stop-color="#FCAD49"/>
<stop offset="0.96" stop-color="#F99A4D"/>
<stop offset="1" stop-color="#F57E53"/>
</linearGradient>
<linearGradient id="paint71_linear" x1="99773" y1="42580.1" x2="195486" y2="42580.1" gradientUnits="userSpaceOnUse">
<stop stop-color="#F68252"/>
<stop offset="0.04" stop-color="#F99A4D"/>
<stop offset="0.08" stop-color="#FCAD49"/>
<stop offset="0.13" stop-color="#FEBA46"/>
<stop offset="0.2" stop-color="#FFC244"/>
<stop offset="0.32" stop-color="#FFC444"/>
<stop offset="0.45" stop-color="#FDB946"/>
<stop offset="0.69" stop-color="#F99C4C"/>
<stop offset="1" stop-color="#F36F56"/>
</linearGradient>
<linearGradient id="paint72_linear" x1="148070" y1="30344.5" x2="148138" y2="35273.9" gradientUnits="userSpaceOnUse">
<stop stop-color="#FFDB44"/>
<stop offset="1" stop-color="#FEEF06"/>
</linearGradient>
<linearGradient id="paint73_linear" x1="147956" y1="17723.5" x2="147963" y2="18601.3" gradientUnits="userSpaceOnUse">
<stop stop-color="#FFDB44"/>
<stop offset="1" stop-color="#FEEF06"/>
</linearGradient>
<linearGradient id="paint74_linear" x1="-49300.7" y1="6694.02" x2="-49295.6" y2="7436.63" gradientUnits="userSpaceOnUse">
<stop stop-color="#F36F56"/>
<stop offset="0.31" stop-color="#F99C4C"/>
<stop offset="0.55" stop-color="#FDB946"/>
<stop offset="0.68" stop-color="#FFC444"/>
<stop offset="0.8" stop-color="#FFC244"/>
<stop offset="0.87" stop-color="#FEBA46"/>
<stop offset="0.92" stop-color="#FCAD49"/>
<stop offset="0.96" stop-color="#F99A4D"/>
<stop offset="1" stop-color="#F57E53"/>
</linearGradient>
<linearGradient id="paint75_linear" x1="109766" y1="41061.8" x2="205479" y2="41061.8" gradientUnits="userSpaceOnUse">
<stop stop-color="#F68252"/>
<stop offset="0.04" stop-color="#F99A4D"/>
<stop offset="0.08" stop-color="#FCAD49"/>
<stop offset="0.13" stop-color="#FEBA46"/>
<stop offset="0.2" stop-color="#FFC244"/>
<stop offset="0.32" stop-color="#FFC444"/>
<stop offset="0.45" stop-color="#FDB946"/>
<stop offset="0.69" stop-color="#F99C4C"/>
<stop offset="1" stop-color="#F36F56"/>
</linearGradient>
<linearGradient id="paint76_linear" x1="158062" y1="29220.6" x2="158130" y2="34149.8" gradientUnits="userSpaceOnUse">
<stop stop-color="#FFDB44"/>
<stop offset="1" stop-color="#FEEF06"/>
</linearGradient>
<linearGradient id="paint77_linear" x1="157956" y1="17066.9" x2="157963" y2="17944.6" gradientUnits="userSpaceOnUse">
<stop stop-color="#FFDB44"/>
<stop offset="1" stop-color="#FEEF06"/>
</linearGradient>
<linearGradient id="paint78_linear" x1="-59128.8" y1="7222" x2="-59123.7" y2="7963.81" gradientUnits="userSpaceOnUse">
<stop stop-color="#F36F56"/>
<stop offset="0.31" stop-color="#F99C4C"/>
<stop offset="0.55" stop-color="#FDB946"/>
<stop offset="0.68" stop-color="#FFC444"/>
<stop offset="0.8" stop-color="#FFC244"/>
<stop offset="0.87" stop-color="#FEBA46"/>
<stop offset="0.92" stop-color="#FCAD49"/>
<stop offset="0.96" stop-color="#F99A4D"/>
<stop offset="1" stop-color="#F57E53"/>
</linearGradient>
<linearGradient id="paint79_linear" x1="104568" y1="39539" x2="200282" y2="39539" gradientUnits="userSpaceOnUse">
<stop stop-color="#F68252"/>
<stop offset="0.04" stop-color="#F99A4D"/>
<stop offset="0.08" stop-color="#FCAD49"/>
<stop offset="0.13" stop-color="#FEBA46"/>
<stop offset="0.2" stop-color="#FFC244"/>
<stop offset="0.32" stop-color="#FFC444"/>
<stop offset="0.45" stop-color="#FDB946"/>
<stop offset="0.69" stop-color="#F99C4C"/>
<stop offset="1" stop-color="#F36F56"/>
</linearGradient>
<linearGradient id="paint80_linear" x1="152864" y1="28093.2" x2="152932" y2="33022.6" gradientUnits="userSpaceOnUse">
<stop stop-color="#FFDB44"/>
<stop offset="1" stop-color="#FEEF06"/>
</linearGradient>
<linearGradient id="paint81_linear" x1="152755" y1="16408.3" x2="152762" y2="17286" gradientUnits="userSpaceOnUse">
<stop stop-color="#FFDB44"/>
<stop offset="1" stop-color="#FEEF06"/>
</linearGradient>
<linearGradient id="paint82_linear" x1="-54017.7" y1="7764.59" x2="-54012.6" y2="8507.03" gradientUnits="userSpaceOnUse">
<stop stop-color="#F36F56"/>
<stop offset="0.31" stop-color="#F99C4C"/>
<stop offset="0.55" stop-color="#FDB946"/>
<stop offset="0.68" stop-color="#FFC444"/>
<stop offset="0.8" stop-color="#FFC244"/>
<stop offset="0.87" stop-color="#FEBA46"/>
<stop offset="0.92" stop-color="#FCAD49"/>
<stop offset="0.96" stop-color="#F99A4D"/>
<stop offset="1" stop-color="#F57E53"/>
</linearGradient>
<linearGradient id="paint83_linear" x1="-22815.5" y1="169710" x2="8940.59" y2="219725" gradientUnits="userSpaceOnUse">
<stop stop-color="#F68252"/>
<stop offset="0.04" stop-color="#F99A4D"/>
<stop offset="0.08" stop-color="#FCAD49"/>
<stop offset="0.13" stop-color="#FEBA46"/>
<stop offset="0.2" stop-color="#FFC244"/>
<stop offset="0.32" stop-color="#FFC444"/>
<stop offset="0.45" stop-color="#FDB946"/>
<stop offset="0.69" stop-color="#F99C4C"/>
<stop offset="1" stop-color="#F36F56"/>
</linearGradient>
<linearGradient id="paint84_linear" x1="-2072.85" y1="167940" x2="-23510.4" y2="192137" gradientUnits="userSpaceOnUse">
<stop stop-color="#FFDB44"/>
<stop offset="1" stop-color="#FEEF06"/>
</linearGradient>
<linearGradient id="paint85_linear" x1="-916.959" y1="167339" x2="-7512.53" y2="174782" gradientUnits="userSpaceOnUse">
<stop stop-color="#FFDB44"/>
<stop offset="1" stop-color="#FEEF06"/>
</linearGradient>
<linearGradient id="paint86_linear" x1="203315" y1="-27850.9" x2="209749" y2="-35142.2" gradientUnits="userSpaceOnUse">
<stop stop-color="#F36F56"/>
<stop offset="0.31" stop-color="#F99C4C"/>
<stop offset="0.55" stop-color="#FDB946"/>
<stop offset="0.68" stop-color="#FFC444"/>
<stop offset="0.8" stop-color="#FFC244"/>
<stop offset="0.87" stop-color="#FEBA46"/>
<stop offset="0.92" stop-color="#FCAD49"/>
<stop offset="0.96" stop-color="#F99A4D"/>
<stop offset="1" stop-color="#F57E53"/>
</linearGradient>
<linearGradient id="paint87_linear" x1="764.19" y1="370.842" x2="806.876" y2="274.178" gradientUnits="userSpaceOnUse">
<stop stop-color="#51FFEA"/>
<stop offset="1" stop-color="#0A7E2C"/>
</linearGradient>
<linearGradient id="paint88_linear" x1="948.14" y1="618.24" x2="954.4" y2="720.176" gradientUnits="userSpaceOnUse">
<stop stop-color="#FF9263"/>
<stop offset="0.0001" stop-color="#FF4D00"/>
<stop offset="0.8125" stop-color="#FFF510"/>
<stop offset="1" stop-color="#FFA950"/>
</linearGradient>
<linearGradient id="paint89_linear" x1="895.001" y1="371.991" x2="893.428" y2="338.781" gradientUnits="userSpaceOnUse">
<stop stop-color="#51FFEA"/>
<stop offset="1" stop-color="#0A7E2C"/>
</linearGradient>
</defs>
</svg>
