<svg width="37" height="37" viewBox="0 0 37 37" fill="none" xmlns="http://www.w3.org/2000/svg">
<path d="M18.5 37C14.8411 37 11.2643 35.915 8.22197 33.8822C5.17966 31.8494 2.80847 28.9601 1.40825 25.5796C0.00802692 22.1992 -0.35835 18.4795 0.355477 14.8908C1.0693 11.3022 2.83126 8.0058 5.41853 5.41853C8.0058 2.83126 11.3022 1.06931 14.8908 0.35548C18.4795 -0.358346 22.1992 0.00801695 25.5796 1.40824C28.9601 2.80846 31.8494 5.17964 33.8822 8.22195C35.915 11.2643 37 14.8411 37 18.5C36.9944 23.4048 35.0436 28.1071 31.5753 31.5753C28.1071 35.0436 23.4048 36.9944 18.5 37ZM18.5 0.880958C15.0153 0.880958 11.6088 1.9143 8.71138 3.8503C5.81394 5.78631 3.55567 8.53802 2.22212 11.7575C0.888579 14.9769 0.539684 18.5196 1.21952 21.9373C1.89935 25.3551 3.57738 28.4945 6.04145 30.9585C8.50551 33.4226 11.645 35.1007 15.0627 35.7805C18.4805 36.4603 22.0231 36.1114 25.2425 34.7779C28.462 33.4443 31.2137 31.1861 33.1497 28.2886C35.0857 25.3912 36.119 21.9847 36.119 18.5C36.1138 13.8288 34.2558 9.35035 30.9527 6.04728C27.6497 2.74421 23.1712 0.886229 18.5 0.880958Z" fill="#3F3D56"/>
<path d="M23.5832 8.91649C24.7977 8.92029 25.9615 9.42637 26.8203 10.3242C27.6791 11.2221 28.1632 12.4387 28.1668 13.7085V23.2915C28.1632 24.5613 27.6791 25.7779 26.8203 26.6758C25.9615 27.5736 24.7977 28.0797 23.5832 28.0835H14.4168C13.2023 28.0797 12.0385 27.5736 11.1797 26.6758C10.3209 25.7779 9.8368 24.5613 9.83317 23.2915V13.7085C9.8368 12.4387 10.3209 11.2221 11.1797 10.3242C12.0385 9.42637 13.2023 8.92028 14.4168 8.91649H23.5832ZM23.5832 7H14.4168C12.7165 7.00518 11.0872 7.71363 9.88492 8.97059C8.6826 10.2276 8.00495 11.9309 8 13.7085V23.2915C8.00495 25.0691 8.6826 26.7724 9.88492 28.0294C11.0872 29.2864 12.7165 29.9948 14.4168 30H23.5832C25.2835 29.9948 26.9128 29.2864 28.1151 28.0294C29.3174 26.7724 29.995 25.0691 30 23.2915V13.7085C29.995 11.9309 29.3174 10.2276 28.1151 8.97059C26.9128 7.71363 25.2835 7.00518 23.5832 7Z" fill="#3F3D56"/>
<path d="M24.4968 14C24.0992 13.9991 23.7183 13.8405 23.4376 13.559C23.157 13.2774 22.9996 12.8959 23 12.4984C23.0004 12.1008 23.1587 11.7197 23.4399 11.4388C23.7212 11.1578 24.1024 11 24.5 11C24.8975 11 25.2788 11.1578 25.5601 11.4388C25.8413 11.7197 25.9996 12.1008 26 12.4984C26.0004 12.8959 25.843 13.2774 25.5624 13.559C25.2817 13.8405 24.9008 13.9991 24.5032 14C24.5011 14 24.4989 14 24.4968 14Z" fill="#3F3D56"/>
<path d="M19 14.1665C19.7912 14.1665 20.5646 14.4206 21.2224 14.8968C21.8802 15.373 22.3929 16.0498 22.6957 16.8416C22.9985 17.6335 23.0777 18.5048 22.9233 19.3454C22.769 20.1861 22.388 20.9582 21.8286 21.5643C21.2691 22.1703 20.5564 22.5831 19.7804 22.7503C19.0045 22.9175 18.2002 22.8316 17.4692 22.5037C16.7383 22.1757 16.1135 21.6202 15.674 20.9076C15.2345 20.1949 14.9998 19.3571 14.9998 18.5C14.9998 17.3507 15.4213 16.2484 16.1715 15.4357C16.9216 14.623 17.9391 14.1665 19 14.1665ZM19 12C17.8133 12 16.6533 12.3812 15.6666 13.0954C14.6799 13.8097 13.9109 14.8248 13.4567 16.0125C13.0026 17.2003 12.8838 18.5072 13.1153 19.7681C13.3468 21.0289 13.9182 22.1871 14.7573 23.0962C15.5965 24.0052 16.6656 24.6243 17.8294 24.8751C18.9933 25.1259 20.1997 24.9972 21.2961 24.5052C22.3925 24.0132 23.3295 23.1801 23.9888 22.1112C24.6481 21.0423 25 19.7856 25 18.5C25 16.7761 24.3679 15.1228 23.2426 13.9038C22.1174 12.6848 20.5913 12 19 12V12Z" fill="#3F3D56"/>
</svg>
