<svg width="100" height="100" viewBox="0 0 100 100" fill="none" xmlns="http://www.w3.org/2000/svg">
<path d="M48.6201 86H52.1414C61.5389 85.5452 70.4008 81.5011 76.8905 74.7058C83.3801 67.9106 87 58.8852 87 49.5C87 40.1148 83.3801 31.0894 76.8905 24.2942C70.4008 17.4989 61.5389 13.4548 52.1414 13H48.6976C39.3293 13.4967 30.5089 17.5589 24.0536 24.3495C17.5983 31.1401 14 40.1418 14 49.5C14 58.8582 17.5983 67.8599 24.0536 74.6505C30.5089 81.4411 39.3293 85.5033 48.6976 86H48.6201ZM26.4933 73.1176C28.8349 71.4276 31.3485 69.9883 33.9923 68.8235C36.5097 74.0793 40.0545 78.7803 44.4186 82.6506C37.6106 81.3762 31.3559 78.0559 26.4933 73.1348V73.1176ZM49.1969 82.8825C43.8759 78.9105 39.5789 73.7322 36.6613 67.7757C40.6893 66.3182 44.9163 65.4813 49.1969 65.2938V82.8825ZM49.1969 62.4339C44.5226 62.6272 39.9071 63.5457 35.5162 65.1563C33.8423 60.9846 32.8539 56.5708 32.589 52.0851H49.1969V62.4339ZM49.1969 49.251H32.4684C32.4877 44.6765 33.2584 40.1361 34.7499 35.8104C39.3635 37.6103 44.2468 38.6263 49.1969 38.8162V49.251ZM56.2913 82.7451C60.8503 78.7364 64.524 73.8259 67.0792 68.3254C69.9199 69.4758 72.6228 70.9391 75.1378 72.6882C70.104 77.9942 63.4773 81.5239 56.2569 82.7451H56.2913ZM77.0147 70.5498C74.2514 68.6063 71.273 66.9867 68.1381 65.7232C69.8195 61.3721 70.8044 56.7843 71.0568 52.128H84.2898C83.7761 58.8645 81.2276 65.2874 76.9803 70.5498H77.0147ZM78.0736 29.8501C82.1668 35.505 84.3881 42.2934 84.4276 49.2681H71.1429C71.1279 44.4885 70.346 39.7422 68.8269 35.2092C72.1003 33.7944 75.1929 31.9954 78.0392 29.8501H78.0736ZM76.3517 27.6257C73.7364 29.5884 70.9022 31.2427 67.9057 32.5554C65.3426 26.3049 61.3784 20.723 56.3171 16.2378C64.1104 17.5732 71.1826 21.6053 76.2914 27.6257H76.3517ZM52.0553 16.4181C57.9088 20.8741 62.4698 26.8019 65.2711 33.5946C61.0271 35.1141 56.5636 35.935 52.0553 36.0251V16.4181ZM52.0553 38.8506C56.8939 38.7667 61.6863 37.8964 66.244 36.2741C67.6398 40.4742 68.3577 44.869 68.3706 49.2939H52.0123L52.0553 38.8506ZM52.0553 52.1108H68.2242C67.9708 56.4412 67.0442 60.7061 65.4777 64.7527C61.1285 63.2981 56.5816 62.516 51.9951 62.4339L52.0553 52.1108ZM52.0553 65.2508C56.2608 65.3322 60.4307 66.0385 64.4274 67.3463C61.5778 73.3371 57.3363 78.5631 52.0553 82.5904V65.2508ZM49.1969 16.1261V35.9907C44.6039 35.7804 40.0774 34.8141 35.8003 33.1308C38.6831 26.3826 43.3052 20.5157 49.1969 16.1261ZM44.4616 16.3494C39.6014 20.6805 35.7566 26.0258 33.2002 32.0058C30.408 30.6802 27.7717 29.0499 25.3396 27.1448C30.3183 21.525 37.0364 17.7255 44.4272 16.3494H44.4616ZM23.5488 29.3348C26.2072 31.4247 29.0957 33.2053 32.1585 34.6424C30.5162 39.354 29.6724 44.3056 29.6617 49.2939H16.7731C16.7979 42.0888 19.1632 35.0859 23.5144 29.3348H23.5488ZM16.8849 52.128H29.7219C29.9809 56.9726 31.0337 61.7421 32.8386 66.2471C29.9162 67.5366 27.1421 69.1376 24.5648 71.0221C20.0888 65.6791 17.4031 59.0717 16.8849 52.128Z" fill="#34D2A5"/>
</svg>
