<svg width="100" height="100" viewBox="0 0 100 100" fill="none" xmlns="http://www.w3.org/2000/svg">
<path d="M18 70.6938C18 75.9513 19.2132 79.698 21.7244 82.1584C24.9653 85.3353 29.9962 86 35.9859 86C38.056 86 40.2278 85.9223 42.51 85.836C45.0552 85.7497 47.6767 85.6547 50.3916 85.6547C52.4956 85.6547 54.5572 85.6547 56.5509 85.7324C66.0529 85.9223 74.2568 86.0863 78.906 81.4159C81.5106 78.826 82.7747 74.9499 82.7747 69.5802C82.7747 56.7775 74.961 39.8052 62.3285 34.6945C62.1815 34.64 62.0267 34.6108 61.8703 34.6082H38.9044C38.7479 34.6102 38.593 34.6394 38.4462 34.6945C26.2124 39.6757 18 57.3214 18 70.6938ZM39.1504 37.198H61.6582C71.9577 41.5145 80.3228 55.9919 80.3228 69.6147C80.3228 74.2592 79.3048 77.5311 77.2092 79.6289C73.3151 83.5137 65.5947 83.3583 56.6612 83.177C54.6505 83.177 52.5804 83.0994 50.451 83.0994C47.6852 83.0994 45.0467 83.1943 42.4846 83.2893C34.2382 83.5828 27.1202 83.8504 23.523 80.3195C21.5378 78.3685 20.5706 75.2175 20.5706 70.6938C20.5112 55.284 30.1065 41.0224 39.1504 37.198Z" fill="#272525"/>
<path d="M40.4488 32.3291H60.1145C60.2864 32.3289 60.4564 32.2928 60.614 32.223C60.7716 32.1532 60.9134 32.0512 61.0307 31.9234C64.6958 27.9436 66.8761 19.8373 66.8761 14.2777C66.8761 13.9388 66.7439 13.6138 66.5084 13.3742C66.2729 13.1346 65.9536 13 65.6205 13H34.9173C34.5842 13 34.2648 13.1346 34.0294 13.3742C33.7939 13.6138 33.6616 13.9388 33.6616 14.2777C33.6616 19.8286 35.842 27.9436 39.5071 31.9234C39.6273 32.0545 39.7732 32.1583 39.9355 32.2282C40.0977 32.2981 40.2726 32.3325 40.4488 32.3291ZM64.3055 15.5726C64.0171 20.2517 62.2524 26.4846 59.5291 29.7911H40.9832C38.2599 26.4846 36.4952 20.2948 36.2068 15.5726H64.3055Z" fill="#272525"/>
<path d="M41.1697 70.668C43.1115 71.7073 45.2368 72.3441 47.4223 72.5413V75.1312C47.4223 75.4701 47.5546 75.795 47.7901 76.0347C48.0255 76.2743 48.3449 76.4089 48.6779 76.4089H52.5211C52.841 76.3961 53.1442 76.2604 53.3695 76.029C53.4871 75.9107 53.58 75.7694 53.6427 75.6136C53.7054 75.4579 53.7365 75.2909 53.7343 75.1226V72.1615C55.4222 71.7602 56.9452 70.8337 58.0916 69.5108C59.2381 68.188 59.951 66.5345 60.1312 64.7803C60.5978 59.7387 57.2976 57.6927 56.6358 57.3387C56.2371 57.1229 55.6347 56.8812 54.8881 56.5704C53.3517 55.9902 51.8695 55.2708 50.4595 54.4208C50.2595 54.3168 50.0945 54.1545 49.9857 53.9546C49.8769 53.7546 49.8292 53.5262 49.8487 53.2985C49.9505 52.91 50.4765 52.8151 50.7735 52.7892C52.745 52.8309 54.6988 53.1773 56.568 53.8165C56.7344 53.8713 56.9103 53.8904 57.0844 53.8724C57.2585 53.8545 57.427 53.8 57.5794 53.7124C57.7317 53.6247 57.8645 53.5059 57.9693 53.3633C58.0741 53.2207 58.1487 53.0576 58.1884 52.8841L59.1131 48.6799C59.1712 48.4246 59.1502 48.1572 59.053 47.9145C58.9558 47.6718 58.7871 47.4657 58.5702 47.3245C57.0523 46.5699 55.4094 46.1103 53.7258 45.9692V43.6987C53.7258 43.3598 53.5936 43.0348 53.3581 42.7952C53.1226 42.5556 52.8033 42.421 52.4702 42.421H48.627C48.294 42.421 47.9746 42.5556 47.7392 42.7952C47.5037 43.0348 47.3714 43.3598 47.3714 43.6987V46.6512C42.8919 47.9461 40.72 51.0367 41.2291 55.4395C41.789 60.2826 48.0925 62.3458 49.3481 62.717C51.9612 63.4767 51.8933 63.917 51.7321 64.53C51.5709 65.1429 49.3991 65.6177 47.2866 65.1774C46.1076 64.9089 44.9672 64.4883 43.893 63.9257C43.7298 63.8372 43.5497 63.7859 43.365 63.7755C43.1804 63.765 42.9958 63.7957 42.824 63.8652C42.6537 63.9354 42.5008 64.043 42.3761 64.1803C42.2515 64.3176 42.1582 64.4812 42.1029 64.6595L40.6521 69.2349C40.5753 69.4986 40.5842 69.7806 40.6774 70.0387C40.7706 70.2969 40.9433 70.5176 41.1697 70.668ZM44.0372 66.7659C44.9204 67.1369 45.8347 67.4258 46.769 67.6292C49.3906 68.1817 53.5562 67.9486 54.167 65.0393C54.9221 61.6379 51.7406 60.7228 50.0269 60.2135C47.9822 59.6178 44.0287 57.779 43.7148 55.0942C43.3161 51.641 44.962 49.6899 48.8815 48.8439C49.1622 48.7844 49.4141 48.6283 49.5949 48.4018C49.7757 48.1754 49.8743 47.8925 49.8741 47.6008V44.9677H51.2061V47.1173C51.2074 47.4389 51.3278 47.7481 51.5432 47.9833C51.7586 48.2186 52.0533 48.3625 52.3684 48.3864C53.744 48.4949 55.1054 48.7436 56.4322 49.1288L56.025 50.9849C54.2642 50.4637 52.4374 50.2106 50.6038 50.2338C49.8871 50.2342 49.1898 50.4708 48.6163 50.9081C48.0428 51.3454 47.6239 51.9599 47.4223 52.6597C47.2641 53.4103 47.343 54.1926 47.6477 54.8949C47.9524 55.5972 48.4674 56.1836 49.1191 56.5704C50.6705 57.4964 52.3003 58.2794 53.9888 58.9099C54.6167 59.1689 55.2105 59.4106 55.4905 59.5574C55.9147 59.7818 57.9848 61.0854 57.6709 64.5041C57.527 65.8665 56.9233 67.1361 55.9626 68.0963C55.0019 69.0566 53.7437 69.6482 52.4024 69.7702C52.0873 69.7984 51.7944 69.9466 51.5821 70.185C51.3698 70.4235 51.2537 70.7347 51.257 71.0565V73.819H49.9335V71.3673C49.934 71.04 49.8111 70.7251 49.5901 70.4874C49.3691 70.2496 49.0669 70.1073 48.7458 70.0896C46.9006 69.9795 45.082 69.5896 43.35 68.9328L44.0372 66.7659Z" fill="#272525"/>
</svg>
