<svg width="100" height="100" viewBox="0 0 100 100" fill="none" xmlns="http://www.w3.org/2000/svg">
<path d="M36.1976 47.546C31.9423 47.5441 27.7686 48.7151 24.1334 50.931C20.4983 53.1469 17.542 56.3221 15.5883 60.1089C13.6346 63.8957 12.7589 68.148 13.057 72.4002C13.3551 76.6523 14.8155 80.7403 17.2784 84.2164C19.7413 87.6925 23.1115 90.4227 27.0201 92.1078C30.9287 93.793 35.2249 94.3682 39.4381 93.7705C43.6513 93.1728 47.619 91.4251 50.9068 88.719C54.1945 86.0129 56.6755 82.4526 58.078 78.4281C59.6455 78.4936 61.0824 78.5154 62.2472 78.5154C69.3665 78.5154 85.9238 77.752 85.9238 70.7621V61.3187C85.9719 61.1075 85.9975 60.8919 86 60.6753C85.9968 60.4732 85.9712 60.272 85.9238 60.0755V52.4422C85.9633 52.2192 85.9779 51.9924 85.9673 51.7662C85.9641 51.564 85.9385 51.3629 85.8911 51.1664V42.628C85.9409 42.4061 85.9664 42.1794 85.9673 41.9519C85.9684 41.5796 85.9021 41.2101 85.7714 40.8615C85.8506 40.5478 85.8908 40.2254 85.8911 39.9018V30.4584C85.9386 30.2471 85.9641 30.0315 85.9673 29.815C85.9641 29.6129 85.9385 29.4118 85.8911 29.2153V20.666C86.0261 20.0919 85.9805 19.4901 85.7605 18.943C85.5616 18.2462 85.1167 17.6455 84.5086 17.2528C79.6753 13.1418 64.2611 13 62.2145 13C60.168 13 44.7973 13.1418 39.9314 17.2528C39.4864 17.5908 39.1259 18.0278 38.8784 18.5294C38.6309 19.0309 38.5032 19.5831 38.5053 20.1426C38.5098 20.3584 38.5316 20.5736 38.5707 20.7859V29.3352C38.5322 29.5329 38.5104 29.7336 38.5053 29.935C38.5103 30.1508 38.5322 30.3659 38.5707 30.5784V40.0218C38.5744 40.3459 38.6183 40.6682 38.7013 40.9814C38.5706 41.33 38.5042 41.6995 38.5053 42.0719C38.5103 42.2877 38.5322 42.5028 38.5707 42.7153V47.7641C37.7978 47.5896 36.9813 47.546 36.1976 47.546ZM83.2241 70.5767C83.2187 70.6348 83.2187 70.6932 83.2241 70.7512V70.8276C83.0934 73.4229 73.7317 75.5384 62.2472 75.5384C61.1586 75.5384 59.9939 75.5384 58.9053 75.4729C59.2246 73.9268 59.3851 72.3519 59.3843 70.773C59.3843 70.3586 59.3843 69.9552 59.3843 69.5517C60.4728 69.5517 61.4416 69.5517 62.2798 69.5517C67.6248 69.5517 78.2602 69.1264 83.2568 65.964L83.2241 70.5767ZM83.2241 61.6567C83.2186 61.7147 83.2186 61.7732 83.2241 61.8312V61.9075C83.0934 64.5028 73.7317 66.6183 62.2472 66.6183C61.1586 66.6183 60.0701 66.6183 58.9815 66.5529C58.5376 64.1325 57.7108 61.7986 56.5322 59.6393C58.7093 59.7593 60.6905 59.8029 62.2363 59.8029C67.5812 59.8029 78.2166 59.3776 83.2132 56.2152L83.2241 61.6567ZM83.2241 39.7819C83.2186 39.8363 83.2186 39.8911 83.2241 39.9455V40.0218C83.0934 42.628 73.7317 44.7326 62.2472 44.7326C50.7627 44.7326 41.4118 42.628 41.2812 40.0218V34.3187C46.2778 37.481 56.924 37.9063 62.2581 37.9063C67.5921 37.9063 78.2384 37.481 83.235 34.3187L83.2241 39.7819ZM62.2472 16.5004C74.1563 16.5004 81.5368 18.6813 82.7778 20.088C81.5368 21.4729 74.1563 23.6866 62.2472 23.6866C50.3382 23.6866 42.9685 21.5057 41.7166 20.088C42.9685 18.7141 50.3491 16.5004 62.2472 16.5004ZM62.2472 27.1107C64.1413 27.1107 77.3784 26.9907 83.2241 23.752V29.9568C83.2187 30.0148 83.2187 30.0732 83.2241 30.1313V30.2076C83.0934 32.8029 73.7317 34.9184 62.2472 34.9184C50.7627 34.9184 41.4118 32.8029 41.2812 30.1967V23.7193C47.116 26.9907 60.364 27.1107 62.2472 27.1107ZM62.2472 48.9964C64.1413 48.9964 77.3784 48.8764 83.2241 45.6377V51.8752C83.2186 51.9296 83.2186 51.9844 83.2241 52.0388V52.1151C83.0934 54.7213 73.7317 56.8259 62.2472 56.8259C59.4931 56.8259 56.8696 56.706 54.453 56.4879C51.1562 52.26 46.5036 49.3018 41.2812 48.1131V45.6377C47.116 48.8764 60.364 48.9964 62.2472 48.9964ZM56.4124 70.8057C56.4124 74.8108 55.2268 78.7259 53.0056 82.056C50.7844 85.3861 47.6272 87.9816 43.9334 89.5143C40.2396 91.047 36.1751 91.448 32.2538 90.6666C28.3325 89.8853 24.7306 87.9567 21.9035 85.1246C19.0764 82.2926 17.1511 78.6844 16.3711 74.7563C15.5911 70.8282 15.9914 66.7566 17.5214 63.0564C19.0514 59.3562 21.6424 56.1936 24.9668 53.9685C28.2911 51.7434 32.1994 50.5557 36.1976 50.5557C41.5515 50.5615 46.6849 52.6923 50.4737 56.4816C54.2626 60.2709 56.398 65.4098 56.4124 70.773V70.8057Z" fill="#272525"/>
<path d="M20 71C20 74.1645 20.9384 77.2579 22.6965 79.8891C24.4546 82.5203 26.9535 84.5711 29.8771 85.7821C32.8007 86.9931 36.0177 87.3099 39.1214 86.6926C42.2251 86.0752 45.0761 84.5514 47.3137 82.3137C49.5514 80.0761 51.0752 77.2251 51.6926 74.1215C52.3099 71.0178 51.9931 67.8007 50.7821 64.8771C49.5711 61.9535 47.5203 59.4546 44.8891 57.6965C42.258 55.9384 39.1645 55 36 55C31.7584 55.0059 27.6921 56.6935 24.6928 59.6928C21.6935 62.6921 20.0059 66.7583 20 71ZM49.9707 71C49.9707 73.7631 49.1514 76.4642 47.6162 78.7617C46.0811 81.0592 43.8992 82.8499 41.3464 83.9073C38.7935 84.9647 35.9845 85.2413 33.2744 84.7023C30.5644 84.1632 28.075 82.8326 26.1212 80.8788C24.1673 78.9249 22.8368 76.4356 22.2977 73.7256C21.7587 71.0155 22.0353 68.2065 23.0927 65.6536C24.1502 63.1008 25.9408 60.9189 28.2383 59.3838C30.5358 57.8487 33.2369 57.0293 36 57.0293C39.7044 57.0322 43.2562 58.5051 45.8756 61.1245C48.495 63.7438 49.9678 67.2956 49.9707 71Z" fill="#272525"/>
<path d="M33.8772 60.9093V62.617C33.0626 62.9112 32.3281 63.3895 31.732 64.0141C30.8326 64.9703 30.3368 66.2323 30.3466 67.5403C30.3396 68.219 30.4766 68.8915 30.7488 69.5141C31.1421 70.41 31.7809 71.1784 32.5923 71.7319C33.4047 72.2719 34.2786 72.7148 35.1956 73.0514C35.7184 73.2079 36.2072 73.4599 36.6369 73.7944C36.7072 73.8607 36.7641 73.9397 36.8045 74.0272C36.8226 74.1113 36.8226 74.1982 36.8045 74.2823C36.811 74.3654 36.7959 74.4488 36.7607 74.5245C36.7255 74.6002 36.6713 74.6657 36.6033 74.7147C36.3092 74.917 35.9549 75.0147 35.5978 74.9919C34.7154 75.0029 33.8505 74.7477 33.1174 74.2601L32.5141 73.8609C32.3851 73.7783 32.2391 73.7255 32.0868 73.7062C31.9345 73.687 31.7799 73.7018 31.6341 73.7497C31.4884 73.7976 31.3553 73.8772 31.2446 73.9828C31.1339 74.0884 31.0485 74.2173 30.9946 74.3599L30.0449 76.9879C29.9829 77.1879 29.9852 77.402 30.0512 77.6007C30.1173 77.7993 30.2439 77.9727 30.4136 78.0968L30.76 78.3518C31.3932 78.7746 32.0913 79.0929 32.827 79.2944C33.1057 79.3778 33.3892 79.4445 33.676 79.494V80.9909C33.676 81.2585 33.7832 81.5152 33.9738 81.7044C34.1645 81.8937 34.4232 82 34.6928 82H37.2849C37.5546 82 37.8131 81.8937 38.0038 81.7044C38.1945 81.5152 38.3016 81.2585 38.3016 80.9909V79.3387C39.2137 79.0122 40.0282 78.4631 40.6702 77.7419C41.5314 76.7621 42.0039 75.5048 41.9998 74.2046C42.0051 73.5477 41.8955 72.8949 41.6758 72.2752C41.3411 71.3714 40.7611 70.577 39.9999 69.9798C39.23 69.373 38.3708 68.8868 37.4525 68.5383H37.3408C36.7292 68.3247 36.1531 68.022 35.6313 67.6401C35.5742 67.6051 35.5279 67.5553 35.4972 67.496C35.4972 67.496 35.4972 67.4405 35.4972 67.3629C35.4945 67.3226 35.5001 67.2822 35.5135 67.2441C35.527 67.206 35.548 67.171 35.5754 67.1411C35.8149 66.9807 36.104 66.91 36.3911 66.9416C37.149 66.9382 37.8938 67.1374 38.5475 67.5182L39.1172 67.8397C39.2438 67.9151 39.3859 67.9612 39.5329 67.9747C39.6799 67.9881 39.828 67.9685 39.9664 67.9174C40.1035 67.8681 40.2284 67.7901 40.3325 67.6887C40.4366 67.5873 40.5175 67.4648 40.5697 67.3297L41.5641 64.746C41.6477 64.5226 41.65 64.2772 41.5704 64.0524C41.4908 63.8276 41.3344 63.6375 41.1284 63.5151L40.715 63.2712C40.0217 62.8706 39.2668 62.5859 38.4804 62.4284V61.0091C38.4804 60.7415 38.3733 60.4848 38.1826 60.2956C37.9919 60.1063 37.7333 60 37.4637 60H34.8939C34.6408 59.9988 34.3963 60.0913 34.2083 60.2595C34.0203 60.4276 33.9022 60.6593 33.8772 60.9093ZM35.9106 63.3488V61.9184H36.447V63.1936C36.446 63.4436 36.5395 63.6849 36.7092 63.8697C36.8788 64.0545 37.1122 64.1693 37.3631 64.1915C38.0603 64.2548 38.7409 64.4387 39.3742 64.7349L39.1061 65.4224C38.8786 65.3099 38.6434 65.2136 38.4022 65.1341C37.7572 64.9226 37.0815 64.8177 36.4022 64.8236C35.5831 64.7782 34.7794 65.0574 34.1677 65.5998C33.9452 65.8164 33.7692 66.0754 33.6502 66.3613C33.5312 66.6471 33.4715 66.9538 33.4749 67.2631C33.4681 67.6063 33.5367 67.9469 33.676 68.2611C33.8329 68.5635 34.045 68.8342 34.3017 69.0595C35.0116 69.6013 35.8035 70.028 36.6481 70.3236C37.3972 70.5858 38.1017 70.9597 38.7374 71.4325C39.2112 71.8064 39.5741 72.3007 39.7876 72.8629C39.9266 73.2622 39.9946 73.6824 39.9887 74.1048C39.9961 74.9196 39.7019 75.7088 39.1619 76.3226C38.6097 76.9243 37.8841 77.3425 37.0838 77.5202C36.8631 77.5741 36.6666 77.6991 36.525 77.8757C36.3835 78.0522 36.305 78.2704 36.3017 78.496V80.004H35.7431V78.6401C35.7438 78.3884 35.6487 78.1456 35.4767 77.9605C35.3047 77.7755 35.0686 77.6617 34.8157 77.6421C34.3462 77.5985 33.8822 77.5094 33.4303 77.376C33.0413 77.2633 32.6665 77.107 32.313 76.9103L32.5588 76.2117C33.5182 76.7093 34.5824 76.9752 35.6648 76.9879C36.5075 77.0359 37.3375 76.7667 37.9888 76.2339C38.4175 75.8733 38.7184 75.3857 38.8471 74.8428C38.9758 74.2998 38.9256 73.7303 38.7038 73.2178C38.5645 72.8943 38.3634 72.6006 38.1117 72.3528C37.498 71.7927 36.7757 71.3625 35.9888 71.0887C35.2241 70.8067 34.4964 70.4344 33.8213 69.9798C33.3149 69.6464 32.9094 69.1826 32.6482 68.6381C32.496 68.2688 32.42 67.8728 32.4247 67.4738C32.4142 66.6763 32.7144 65.9056 33.2627 65.3226C33.7826 64.7943 34.4466 64.4282 35.1732 64.2692C35.3768 64.21 35.557 64.0898 35.689 63.9251C35.821 63.7603 35.8984 63.559 35.9106 63.3488Z" fill="#272525"/>
</svg>
