<svg width="445" height="235" viewBox="0 0 445 235" fill="none" xmlns="http://www.w3.org/2000/svg">
<g filter="url(#filter0_df)">
<ellipse cx="222.5" cy="160" rx="122.5" ry="24" fill="white"/>
</g>
<g clip-path="url(#clip0)">
<path d="M252.037 157.428C250.32 158.65 248.46 159.659 246.496 160.432C245.982 160.636 245.465 160.827 244.939 161H218.101C217.992 160.812 217.887 160.622 217.778 160.432C215.601 156.559 213.626 152.535 213.066 148.16C212.395 142.906 214.278 136.958 218.932 134.377C219.542 134.039 220.188 133.77 220.858 133.576C221.135 133.491 221.418 133.423 221.704 133.363C223.449 132.978 225.265 133.062 226.966 133.606C228.667 134.15 230.192 135.135 231.384 136.458C232.575 137.782 233.39 139.397 233.746 141.138C234.101 142.879 233.983 144.682 233.404 146.362C237.35 142.341 236.613 135.822 235.253 130.373C233.89 124.924 232.239 118.859 235.013 113.963C236.553 111.24 239.265 109.551 242.305 108.869C242.399 108.849 242.493 108.83 242.585 108.813C246.209 108.083 249.977 108.739 253.137 110.65C258.954 114.29 261.94 121.198 262.908 127.962C264.471 138.849 261.014 150.996 252.037 157.428Z" fill="#F2F2F2"/>
<path d="M223.81 136.833C225.958 141.168 226.643 146.076 225.764 150.829C225.1 154.314 223.638 157.6 221.489 160.432C221.344 160.625 221.195 160.816 221.044 161H219.984C220.147 160.816 220.306 160.625 220.458 160.432C222.409 158.017 223.824 155.218 224.609 152.221C225.394 149.223 225.531 146.095 225.012 143.04C224.397 139.604 222.973 136.362 220.858 133.576C221.135 133.491 221.418 133.423 221.704 133.363C222.508 134.455 223.213 135.616 223.81 136.833Z" fill="white"/>
<path d="M249.485 139.976C249.256 142.377 248.675 144.732 247.762 146.967C246.92 148.944 245.786 150.786 244.396 152.43C241.559 155.823 237.805 158.376 233.727 160.074C233.43 160.199 233.13 160.318 232.827 160.432C232.301 160.636 231.77 160.824 231.236 161H228.341C229.024 160.829 229.704 160.639 230.376 160.432C231.972 159.938 233.53 159.328 235.036 158.606C238.864 156.803 242.188 154.093 244.716 150.715C247.428 146.995 248.625 142.523 248.831 137.977C249.048 133.113 248.411 128.161 247.293 123.427C246.153 118.576 244.419 113.881 242.13 109.448C242.079 109.348 242.069 109.232 242.101 109.124C242.134 109.016 242.206 108.925 242.305 108.869C242.387 108.815 242.487 108.795 242.585 108.812C242.632 108.825 242.677 108.847 242.714 108.879C242.752 108.91 242.782 108.95 242.802 108.994C243.085 109.542 243.362 110.09 243.628 110.644C245.846 115.26 247.481 120.132 248.494 125.148C249.473 129.987 249.999 135.049 249.485 139.976Z" fill="white"/>
<path d="M276.806 153.229L279.951 154.761L287.395 143.434L282.753 141.172L276.806 153.229Z" fill="#FFB8B8"/>
<path d="M276.507 151.818L282.701 154.835L282.701 154.836C283.22 155.088 283.683 155.44 284.065 155.87C284.447 156.301 284.739 156.801 284.926 157.344C285.113 157.887 285.19 158.461 285.154 159.034C285.117 159.607 284.968 160.166 284.714 160.682L284.651 160.809L274.509 155.868L276.507 151.818Z" fill="#2F2E41"/>
<path d="M307.976 158.57L311.479 158.57L313.146 145.143H307.976L307.976 158.57Z" fill="#FFB8B8"/>
<path d="M307.083 156.298L313.981 156.297H313.982C314.559 156.297 315.131 156.41 315.664 156.63C316.198 156.849 316.682 157.171 317.09 157.577C317.499 157.983 317.823 158.464 318.043 158.994C318.264 159.524 318.378 160.093 318.378 160.666V160.808L307.083 160.809L307.083 156.298Z" fill="#2F2E41"/>
<path d="M300.452 65.9019C304.328 65.9019 307.47 62.7794 307.47 58.9277C307.47 55.076 304.328 51.9536 300.452 51.9536C296.577 51.9536 293.435 55.076 293.435 58.9277C293.435 62.7794 296.577 65.9019 300.452 65.9019Z" fill="#FFB8B8"/>
<path d="M307.44 154.141C307.109 154.141 306.791 154.014 306.552 153.786C306.313 153.558 306.172 153.248 306.157 152.919L303.445 117.039C303.442 116.945 303.407 116.855 303.347 116.782C303.287 116.709 303.204 116.659 303.112 116.638C303.02 116.617 302.923 116.627 302.837 116.666C302.751 116.705 302.681 116.772 302.637 116.855L285.284 149.777C285.127 150.072 284.859 150.295 284.539 150.398C284.219 150.5 283.872 150.475 283.57 150.327L278.733 147.923C278.429 147.772 278.198 147.507 278.09 147.187C277.982 146.867 278.005 146.518 278.155 146.215L288.509 125.364L295.367 109.745C298.014 104.563 300.825 101.893 303.961 101.582C307.178 101.262 310.613 103.46 314.465 108.302L314.496 108.341L314.495 108.392L313.924 152.222C313.925 152.54 313.806 152.847 313.59 153.082C313.374 153.317 313.077 153.464 312.758 153.492L307.566 154.135C307.524 154.139 307.482 154.141 307.44 154.141Z" fill="#2F2E41"/>
<path d="M293.045 112.268C293.427 112.034 293.753 111.719 293.999 111.347C294.245 110.974 294.407 110.552 294.471 110.111C294.536 109.669 294.502 109.219 294.373 108.792C294.243 108.365 294.021 107.972 293.722 107.639L294.78 79.853L289.637 80.49L289.204 107.522C288.675 108.058 288.362 108.769 288.325 109.518C288.289 110.268 288.53 111.006 289.003 111.591C289.477 112.176 290.15 112.568 290.895 112.693C291.64 112.817 292.405 112.666 293.045 112.268Z" fill="#FFB8B8"/>
<path d="M296.299 84.7658L289.392 83.9859C289.196 83.9637 289.006 83.8996 288.837 83.7982C288.668 83.6967 288.522 83.5601 288.411 83.3977C288.299 83.2354 288.224 83.051 288.191 82.8573C288.158 82.6636 288.167 82.465 288.218 82.275L290.001 75.6199C290.121 74.6214 290.634 73.711 291.429 73.0882C292.223 72.4654 293.234 72.1811 294.239 72.2975C295.244 72.414 296.161 72.9218 296.79 73.7095C297.419 74.4973 297.708 75.5007 297.594 76.4998L297.83 83.3605C297.836 83.557 297.8 83.7525 297.724 83.9339C297.648 84.1153 297.533 84.2782 297.388 84.4115C297.243 84.5449 297.07 84.6456 296.882 84.7067C296.694 84.7679 296.495 84.788 296.299 84.7658V84.7658Z" fill="url(#paint0_linear)"/>
<path d="M328.431 78.9605C328.329 79.0803 328.236 79.2079 328.154 79.3421L314.005 79.9378L312.15 77.0516L307.411 79.2588L310.196 84.6848C310.421 85.1232 310.783 85.4773 311.227 85.6942C311.671 85.911 312.174 85.9788 312.66 85.8874L328.486 82.9079C328.895 83.357 329.432 83.6718 330.025 83.8104C330.618 83.949 331.239 83.9048 331.805 83.6838C332.371 83.4628 332.856 83.0753 333.195 82.573C333.534 82.0706 333.711 81.4773 333.703 80.8717C333.695 80.2662 333.501 79.6772 333.148 79.1831C332.795 78.689 332.3 78.3132 331.727 78.1058C331.155 77.8983 330.533 77.8689 329.944 78.0216C329.355 78.1743 328.828 78.5018 328.431 78.9605Z" fill="#FFB8B8"/>
<path d="M313.487 80.0446L307.599 82.7518C307.432 82.8289 307.249 82.869 307.065 82.8696C306.88 82.8702 306.697 82.8312 306.529 82.7552C306.361 82.6793 306.211 82.5682 306.089 82.4295C305.968 82.2908 305.878 82.1277 305.826 81.9514L303.991 75.775C303.597 74.9194 303.561 73.944 303.889 73.0629C304.218 72.1819 304.884 71.467 305.743 71.0753C306.601 70.6835 307.582 70.6469 308.469 70.9733C309.356 71.2998 310.077 71.9627 310.474 72.8167L314.019 78.1838C314.121 78.3375 314.188 78.5111 314.216 78.6927C314.244 78.8743 314.232 79.0598 314.182 79.2364C314.131 79.413 314.043 79.5766 313.923 79.716C313.803 79.8555 313.654 79.9676 313.487 80.0446L313.487 80.0446Z" fill="url(#paint1_linear)"/>
<path d="M316.534 110.475L308.918 73.6096C308.556 71.8574 307.525 70.3129 306.041 69.3006C304.557 68.2882 302.736 67.8869 300.96 68.181L298.421 68.6017C297.538 68.7478 296.694 69.0652 295.935 69.5358C295.176 70.0063 294.518 70.6208 293.998 71.3442C293.172 72.4935 292.615 73.8121 292.369 75.2032C292.123 76.5943 292.194 78.0225 292.577 79.3828L296.78 94.3342L293.661 110.352C293.626 110.53 293.634 110.713 293.685 110.887C293.736 111.061 293.828 111.22 293.954 111.351C294.079 111.482 294.235 111.582 294.407 111.641C294.579 111.701 294.763 111.718 294.943 111.693C296.505 111.471 299.079 111.154 302.036 110.981L303.638 104.84L304.289 110.884C307.922 110.782 311.865 110.959 315.117 111.799C315.306 111.849 315.503 111.851 315.692 111.803C315.881 111.756 316.055 111.661 316.197 111.529C316.338 111.396 316.444 111.23 316.503 111.045C316.562 110.861 316.572 110.664 316.534 110.475Z" fill="url(#paint2_linear)"/>
<path d="M303.153 57.3762C304.956 58.603 307.325 59.8641 309.167 58.5576C310.376 57.6998 310.758 56.1113 310.267 54.7172C309.385 52.2103 306.961 51.1067 304.644 50.2607C301.631 49.161 298.351 48.2861 295.24 49.0737C292.13 49.8613 289.381 52.8539 289.943 55.9944C290.394 58.5199 292.791 60.6213 292.451 63.164C292.109 65.723 289.213 67.07 286.656 67.5274C284.1 67.9847 281.239 68.1317 279.401 69.9566C277.058 72.2847 277.643 76.4458 279.848 78.9038C282.054 81.3617 285.382 82.4759 288.607 83.2333C292.88 84.2369 297.501 84.7643 301.559 83.0988C305.618 81.4333 308.776 76.95 307.6 72.746C307.103 70.9703 305.934 69.4695 304.803 68.0084C303.673 66.5474 302.528 65.0196 302.097 63.227C301.737 61.7332 302.003 59.9989 303 58.8784C303.181 58.6823 303.296 58.4341 303.326 58.1695C303.357 57.9049 303.302 57.6375 303.17 57.4057L303.153 57.3762Z" fill="#2F2E41"/>
<path d="M164.621 157.232L161.212 156.434L162.687 142.984L167.72 144.163L164.621 157.232Z" fill="#FFB8B8"/>
<path d="M164.712 160.721L153.718 158.147L153.751 158.008C153.883 157.45 154.125 156.923 154.462 156.457C154.8 155.992 155.226 155.597 155.717 155.295C156.208 154.993 156.754 154.79 157.324 154.698C157.894 154.606 158.476 154.626 159.038 154.758L159.038 154.758L165.753 156.33L164.712 160.721Z" fill="#2F2E41"/>
<path d="M177.908 157.346H174.405L172.739 143.918L177.908 143.919L177.908 157.346Z" fill="#FFB8B8"/>
<path d="M178.801 160.72L167.506 160.72V160.578C167.506 160.004 167.62 159.436 167.841 158.906C168.062 158.376 168.386 157.894 168.794 157.489C169.202 157.083 169.687 156.761 170.22 156.542C170.754 156.322 171.325 156.209 171.903 156.209H171.903L178.801 156.209L178.801 160.72Z" fill="#2F2E41"/>
<path d="M196.827 104.243C197.062 103.863 197.21 103.436 197.26 102.993C197.311 102.55 197.264 102.101 197.121 101.678C196.978 101.256 196.744 100.869 196.435 100.546C196.126 100.223 195.749 99.9708 195.331 99.808L185.075 73.9619L179.369 77.4042L191.245 101.728C191.016 102.443 191.059 103.217 191.367 103.903C191.674 104.589 192.224 105.139 192.912 105.449C193.6 105.759 194.378 105.808 195.1 105.585C195.822 105.363 196.436 104.885 196.827 104.243Z" fill="#FFB8B8"/>
<path d="M187.255 78.2362L180.736 80.6342C180.551 80.7025 180.353 80.7302 180.155 80.7155C179.958 80.7007 179.766 80.644 179.593 80.549C179.42 80.454 179.27 80.323 179.152 80.165C179.034 80.007 178.952 79.8257 178.912 79.6333L177.484 72.894C177.138 71.949 177.184 70.9063 177.61 69.9944C178.037 69.0826 178.81 68.3761 179.76 68.0297C180.71 67.6834 181.759 67.7256 182.678 68.147C183.597 68.5683 184.31 69.3346 184.661 70.2776L187.984 76.2959C188.079 76.4682 188.136 76.6589 188.15 76.855C188.164 77.051 188.136 77.2478 188.067 77.4319C187.997 77.6161 187.889 77.7832 187.749 77.922C187.609 78.0608 187.44 78.1679 187.255 78.2362V78.2362Z" fill="url(#paint3_linear)"/>
<path d="M177.675 152.526C177.658 152.526 177.641 152.525 177.624 152.525L172.659 152.328C172.323 152.316 172.005 152.174 171.775 151.932C171.544 151.689 171.418 151.367 171.424 151.033L171.805 123.774C171.807 123.664 171.766 123.558 171.691 123.478C171.616 123.397 171.512 123.349 171.402 123.343C171.292 123.336 171.184 123.372 171.099 123.443C171.015 123.514 170.962 123.614 170.95 123.723L168.07 151.013C168.04 151.29 167.92 151.551 167.727 151.754C167.534 151.958 167.28 152.093 167.003 152.14L166.986 152.143L162.324 151.778C162.141 151.806 161.953 151.794 161.774 151.743C161.596 151.692 161.431 151.603 161.29 151.482C161.149 151.361 161.037 151.212 160.96 151.043C160.883 150.875 160.844 150.693 160.845 150.508L161.124 104.287L183.996 105.725L178.953 151.387C178.918 151.7 178.768 151.989 178.532 152.198C178.297 152.408 177.992 152.525 177.675 152.526Z" fill="#2F2E41"/>
<path d="M173.495 63.937C177.37 63.937 180.512 60.8146 180.512 56.9629C180.512 53.1112 177.37 49.9888 173.495 49.9888C169.619 49.9888 166.477 53.1112 166.477 56.9629C166.477 60.8146 169.619 63.937 173.495 63.937Z" fill="#FFB8B8"/>
<path d="M182.859 107.76C182.827 107.76 182.794 107.759 182.762 107.757L161.623 106.22C161.294 106.196 160.987 106.048 160.766 105.805C160.544 105.563 160.424 105.246 160.431 104.918L160.989 78.5381C160.951 76.9195 161.247 75.3103 161.857 73.8091C162.467 72.3078 163.379 70.9461 164.537 69.8072C165.695 68.6683 167.074 67.7762 168.591 67.1855C170.108 66.5948 171.73 66.3179 173.359 66.3718C174.987 66.4257 176.587 66.8093 178.061 67.499C179.535 68.1887 180.852 69.17 181.931 70.383C183.01 71.5959 183.829 73.015 184.337 74.5533C184.845 76.0915 185.032 77.7167 184.886 79.3293C184.517 83.395 184.223 101.157 184.141 106.503C184.136 106.838 183.999 107.157 183.759 107.393C183.519 107.628 183.196 107.76 182.859 107.76Z" fill="url(#paint4_linear)"/>
<path d="M143.993 82.1103C144.125 82.197 144.249 82.2939 144.365 82.4001L158.121 79.0466L159.096 75.7599L164.265 76.5649L163.107 82.5489C163.013 83.0324 162.765 83.4729 162.399 83.8044C162.033 84.1359 161.569 84.3405 161.077 84.3874L145.044 85.9167C144.776 86.4616 144.349 86.9129 143.818 87.2105C143.288 87.5081 142.679 87.6379 142.073 87.5828C141.467 87.5276 140.893 87.29 140.427 86.9017C139.961 86.5133 139.625 85.9925 139.464 85.4086C139.303 84.8246 139.324 84.2053 139.525 83.6328C139.726 83.0603 140.097 82.5619 140.588 82.2039C141.08 81.8458 141.669 81.6451 142.277 81.6284C142.885 81.6117 143.484 81.7798 143.993 82.1103Z" fill="#FFB8B8"/>
<path d="M157.813 76.3306C157.756 76.1558 157.739 75.9708 157.76 75.7884C157.782 75.6059 157.844 75.4302 157.94 75.2733L161.303 69.7916C161.673 68.9258 162.371 68.2403 163.247 67.8852C164.122 67.5302 165.102 67.5345 165.973 67.8974C166.844 68.2602 167.533 68.9519 167.891 69.8209C168.249 70.6899 168.246 71.6653 167.882 72.5333L166.255 78.7672C166.208 78.9451 166.124 79.111 166.007 79.2536C165.891 79.3963 165.744 79.5123 165.579 79.5938C165.413 79.6753 165.232 79.7204 165.047 79.7259C164.863 79.7314 164.679 79.6973 164.509 79.6259L158.535 77.1154C158.364 77.0441 158.212 76.937 158.087 76.8015C157.963 76.6661 157.869 76.5055 157.813 76.3306Z" fill="url(#paint5_linear)"/>
<path d="M177.121 62.4845C176.041 62.4765 174.981 62.1967 174.039 61.6712C173.097 61.1456 172.305 60.3915 171.736 59.4792C171.674 59.3829 171.336 58.8899 170.945 58.3192C169.846 56.7154 169.588 56.3338 169.566 56.2778C169.269 55.5152 168.325 55.2207 167.585 55.1079C167.447 55.0868 167.307 55.0682 167.167 55.0494C166.125 54.9107 165.048 54.7674 164.458 53.6296C164.025 52.7947 163.316 49.3948 163.86 48.564C164.542 47.5219 165.852 47.8602 167.119 48.1877C167.929 48.3968 168.767 48.6133 169.435 48.4752C172.329 47.8768 175.609 47.1986 178.506 48.9519C180.812 50.347 182.199 52.9818 182.125 55.8283C182.047 58.8849 180.705 61.2977 178.537 62.2826L178.086 62.4132L177.832 62.4443C177.596 62.471 177.358 62.4845 177.121 62.4845Z" fill="#2F2E41"/>
<path d="M348.866 160.716C348.866 160.791 348.835 160.863 348.782 160.917C348.728 160.97 348.656 161 348.58 161H118.286C118.21 161 118.137 160.97 118.084 160.917C118.03 160.864 118 160.791 118 160.716C118 160.641 118.03 160.569 118.084 160.515C118.137 160.462 118.21 160.432 118.286 160.432H348.58C348.656 160.432 348.728 160.462 348.782 160.516C348.835 160.569 348.866 160.641 348.866 160.716Z" fill="#3F3D56"/>
</g>
<defs>
<filter id="filter0_df" x="0" y="36" width="445" height="248" filterUnits="userSpaceOnUse" color-interpolation-filters="sRGB">
<feFlood flood-opacity="0" result="BackgroundImageFix"/>
<feColorMatrix in="SourceAlpha" type="matrix" values="0 0 0 0 0 0 0 0 0 0 0 0 0 0 0 0 0 0 127 0"/>
<feOffset dy="4"/>
<feGaussianBlur stdDeviation="2"/>
<feColorMatrix type="matrix" values="0 0 0 0 0 0 0 0 0 0 0 0 0 0 0 0 0 0 0.25 0"/>
<feBlend mode="normal" in2="BackgroundImageFix" result="effect1_dropShadow"/>
<feBlend mode="normal" in="SourceGraphic" in2="effect1_dropShadow" result="shape"/>
<feGaussianBlur stdDeviation="50" result="effect2_foregroundBlur"/>
</filter>
<linearGradient id="paint0_linear" x1="288.171" y1="78.5233" x2="298.681" y2="78.6253" gradientUnits="userSpaceOnUse">
<stop stop-color="#FC8800"/>
<stop offset="1" stop-color="#FF3D00"/>
</linearGradient>
<linearGradient id="paint1_linear" x1="303.078" y1="74.5565" x2="314.601" y2="80.7754" gradientUnits="userSpaceOnUse">
<stop stop-color="#FC8800"/>
<stop offset="1" stop-color="#FF3D00"/>
</linearGradient>
<linearGradient id="paint2_linear" x1="292.226" y1="89.9623" x2="318.7" y2="90.1472" gradientUnits="userSpaceOnUse">
<stop stop-color="#FC8800"/>
<stop offset="1" stop-color="#FF3D00"/>
</linearGradient>
<linearGradient id="paint3_linear" x1="177.254" y1="74.2583" x2="189.113" y2="74.384" gradientUnits="userSpaceOnUse">
<stop stop-color="#FC8800"/>
<stop offset="1" stop-color="#FF3D00"/>
</linearGradient>
<linearGradient id="paint4_linear" x1="160.431" y1="87.0627" x2="187.093" y2="87.2609" gradientUnits="userSpaceOnUse">
<stop stop-color="#FC8800"/>
<stop offset="1" stop-color="#FF3D00"/>
</linearGradient>
<linearGradient id="paint5_linear" x1="158.262" y1="77.1778" x2="169.74" y2="70.8821" gradientUnits="userSpaceOnUse">
<stop stop-color="#FC8800"/>
<stop offset="1" stop-color="#FF3D00"/>
</linearGradient>
<clipPath id="clip0">
<rect width="231" height="161" fill="white" transform="translate(118)"/>
</clipPath>
</defs>
</svg>
